<svg xmlns="http://www.w3.org/2000/svg" xmlns:xlink="http://www.w3.org/1999/xlink" xmlns:ev="http://www.w3.org/2001/xml-events" xml:space="preserve" color-interpolation-filters="sRGB" class="st16" viewBox="173 221.38 410.58 132.12">
	<style type="text/css">
	<![CDATA[
		.st1 {fill:none;stroke:#203864;stroke-dasharray:3.5,2.5;stroke-width:0.5}
		.st2 {fill:url(#grad0-6);stroke:#000000;stroke-width:0.75}
		.st3 {fill:#203864;font-family:Times New Roman;font-size:0.833336em;font-weight:bold}
		.st4 {font-size:1em}
		.st5 {visibility:visible}
		.st6 {fill:none;filter:url(#filter_2.6666667461395);stroke:#000000;stroke-linecap:round;stroke-linejoin:round;stroke-opacity:0.4}
		.st7 {stroke:#000000;stroke-linecap:round;stroke-linejoin:round;stroke-width:1}
		.st8 {fill:none;stroke:none;stroke-width:1}
		.st9 {fill:#000000;font-family:Times New Roman;font-size:0.833336em}
		.st10 {fill:#000000;stroke:none;stroke-linecap:butt;stroke-width:9.5625}
		.st11 {fill:#000000;fill-opacity:0.4;filter:url(#filter_2.6666667461395);stroke:none;stroke-linecap:butt}
		.st12 {fill:#000000;stroke:none;stroke-linecap:butt;stroke-width:6.12}
		.st13 {fill:#000000;stroke:none;stroke-linecap:butt;stroke-width:5.56364}
		.st14 {fill:url(#grad0-233);stroke:#000000;stroke-width:0.75}
		.st15 {fill:#000000;font-family:Times New Roman;font-size:0.833336em;font-weight:bold}
		.st16 {fill:none;fill-rule:evenodd;font-size:12px;overflow:visible;stroke-linecap:square;stroke-miterlimit:3}
	]]>
	</style>

	<defs id="Patterns_And_Gradients">
		<linearGradient id="grad0-6" x1="0" y1="0" x2="1" y2="0" gradientTransform="rotate(0 0.5 0.5)">
			<stop offset="0" stop-color="#f5f7fc" stop-opacity="1"/>
			<stop offset="0.5" stop-color="#b5c6e7" stop-opacity="1"/>
			<stop offset="1" stop-color="#90aadb" stop-opacity="1"/>
		</linearGradient>
		<linearGradient id="grad0-233" x1="0" y1="0" x2="1" y2="0" gradientTransform="rotate(0 0.5 0.5)">
			<stop offset="0" stop-color="#ffffff" stop-opacity="1"/>
			<stop offset="1" stop-color="#d8d8d8" stop-opacity="1"/>
		</linearGradient>
	</defs>
	<defs id="Filters">
		<filter id="filter_2.6666667461395">
			<feGaussianBlur stdDeviation="2.6666667461395"/>
		</filter>
	</defs>
	<g>
		<title>Page-1</title>
		<g id="shape233-1" transform="translate(173.25,-258.75)">
			<title>Rectangle</title>
			<path d="M0 612 L195.75 612 L195.75 480.38 L0 480.38 L0 612 Z" class="st1"/>
		</g>
		<g id="shape156-3" transform="translate(396,-306)">
			<title>Rounded Rectangle.99</title>
			<desc>Mobile Core</desc>
			<path d="M4.03 612 L67.97 612 A4.02509 4.02509 -180 0 0 72 607.97 L72 580.03 A4.02509 4.02509 -180 0 0 67.97 576 L4.03        576 A4.02509 4.02509 -180 0 0 0 580.03 L0 607.97 A4.02509 4.02509 -180 0 0 4.03 612 Z" class="st2"/>
			<text x="21" y="591" class="st3">Mobile <tspan x="25.45" dy="1.2em" class="st4">Core</tspan></text>		</g>
		<g id="shape150-9" transform="translate(684.203,-215.882) rotate(39.7261)">
			<title>Sheet.150</title>
			<g id="shadow150-10" transform="matrix(1,0,0,1,2.9873,0.275751)" class="st5">
				<path d="M0 612 L51.93 612" class="st6"/>
			</g>
			<path d="M0 612 L51.93 612" class="st7"/>
		</g>
		<g id="shape151-17" transform="translate(105.265,-287.565) rotate(-12.9738)">
			<title>Sheet.151</title>
			<g id="shadow151-18" transform="matrix(1,2.77556E-17,-2.77556E-17,1,1.59092,2.54342)" class="st5">
				<path d="M0 612 L92.7 612" class="st6"/>
			</g>
			<path d="M0 612 L92.7 612" class="st7"/>
		</g>
		<g id="shape52-25" transform="translate(270,-314.807)">
			<title>Rounded Rectangle.52</title>
			<desc>gNB</desc>
			<path d="M3.6 612 L32.4 612 A3.59994 3.59994 -180 0 0 36 608.4 L36 593.61 A3.59994 3.59994 -180 0 0 32.4 590.01 L3.6        590.01 A3.59994 3.59994 -180 0 0 -0 593.61 L0 608.4 A3.59994 3.59994 -180 0 0 3.6 612 Z" class="st8"/>
			<text x="8.55" y="604.01" class="st9">gNB</text>		</g>
		<g id="group121-28" transform="translate(273.6,-334.307)">
			<title>Sheet.121</title>
			<g id="shape108-29" transform="translate(1.92581,0)">
				<title>Sheet.108</title>
				<path d="M0.89 605.8 a0.885191 0.885191 -180 0 0 -0.885191 0.885191 L0 611.11 a0.885191 0.885191 -180 0 0 0.885191         0.885191 L24.09 612 a0.885191 0.885191 -180 0 0 0.885191 -0.885191 L24.98 606.69 a0.885191 0.885191         -180 0 0 -0.885191 -0.885191 L20.46 605.8 L16.24 571.33 a0.885191 0.885191 -180 0 0 -0.885191 -0.778969         L13.38 570.56 L13.38 566.63 a0.885191 0.885191 -180 0 0 -1.77038 0 L11.6 570.56 L9.61 570.56 a0.885191         0.885191 -180 0 0 -0.885191 0.778969 L4.52 605.8 L0.89 605.8 ZM23.21 610.23 L1.77 610.23 L1.77 607.57         L23.21 607.57 L23.21 610.23 ZM13.23 572.33 L12.49 573.07 L11.75 572.33 L13.23 572.33 ZM7.44 605.8 L11.6         601.64 L11.6 605.8 L7.44 605.8 ZM8.24 589.95 L11.6 589.95 L11.6 597.37 L7.8 593.56 L8.24 589.95 ZM9.65         578.44 L11.6 576.46 L11.6 582.34 L9.17 582.34 L9.65 578.44 ZM17.18 593.56 L13.38 597.37 L13.38 589.95         L16.74 589.95 L17.18 593.56 ZM13.38 588.18 L13.38 584.11 L16.03 584.11 L16.54 588.18 L13.38 588.18 ZM15.81         582.34 L13.38 582.34 L13.38 576.46 L15.33 578.41 L15.81 582.34 ZM11.6 584.11 L11.6 588.18 L8.45 588.18         L8.96 584.11 L11.6 584.11 ZM13.38 601.64 L17.54 605.8 L13.38 605.8 L13.38 601.64 ZM13.74 599.51 L17.46         595.79 L18.48 604.25 L13.74 599.51 ZM13.74 574.32 L14.71 573.35 L14.98 575.56 L13.74 574.32 ZM11.24         574.32 L10 575.56 L10.27 573.35 L11.24 574.32 ZM7.52 595.79 L11.24 599.51 L6.5 604.25 L7.52 595.79 Z" class="st10"/>
			</g>
			<g id="shape109-31" transform="translate(19.9476,-39.9126)">
				<title>Sheet.109</title>
				<path d="M0.26 611.74 a0.885191 0.885191 -180 0 0 1.24812 0 A4.74463 4.74463 -180 0 0 1.51 605.02 a0.885191 0.885191         -180 0 0 -1.24812 1.24812 A3.00965 3.00965 0 0 1 1.14 608.38 A2.97424 2.97424 0 0 1 0.26 610.49 a0.885191         0.885191 -180 0 0 -8.21565E-15 1.24812 Z" class="st10"/>
			</g>
			<g id="shape110-33" transform="translate(5.98013,-40.1198)">
				<title>Sheet.110</title>
				<path d="M1.4 611.95 a0.885191 0.885191 -180 1 0 1.24812 -1.24812 A2.99195 2.99195 0 0 1 2.65 606.47 a0.885191 0.885191         -180 1 0 -1.24812 -1.24812 A4.74463 4.74463 -180 0 0 1.4 611.95 Z" class="st10"/>
			</g>
			<g id="shape111-35" transform="translate(22.1296,-38.0101)">
				<title>Sheet.111</title>
				<path d="M2.02 606.48 A5.99275 5.99275 0 0 1 0.25 610.74 a0.888813 0.888813 -180 1 0 1.25697 1.25697 A7.80739 7.80739         -180 0 0 1.51 600.95 a0.885191 0.885191 -180 0 0 -1.24812 0 a0.885191 0.885191 -180 0 0 -6.77236E-15         1.25697 A5.97504 5.97504 0 0 1 2.02 606.48 Z" class="st10"/>
			</g>
			<g id="shape112-37" transform="translate(2.90982,-38.0101)">
				<title>Sheet.112</title>
				<path d="M2.31 612 a0.885191 0.885191 -180 0 0 1.23042 -1.25697 A6.02815 6.02815 0 0 1 3.54 602.21 a0.888813 0.888813         -180 1 0 -1.25697 -1.25697 A7.82509 7.82509 -180 0 0 2.28 612 L2.31 612 Z" class="st10"/>
			</g>
			<g id="shape113-39" transform="translate(24.139,-35.6814)">
				<title>Sheet.113</title>
				<path d="M2.92 604.15 A8.92273 8.92273 0 0 1 0.26 610.49 a0.885191 0.885191 -180 0 0 -8.77076E-15 1.25697 a0.885191         0.885191 -180 0 0 1.24812 0 A10.7285 10.7285 -180 0 0 1.51 596.55 a0.885191 0.885191 -180 0 0 -1.24812         0 a0.885191 0.885191 -180 0 0 -1.38778E-14 1.25697 A8.90503 8.90503 0 0 1 2.92 604.15 Z" class="st10"/>
			</g>
			<g id="shape114-41" transform="translate(-3.89688E-14,-35.6769)">
				<title>Sheet.114</title>
				<path d="M4.4 611.74 a0.885191 0.885191 -180 0 0 0 -1.25697 A8.95814 8.95814 0 0 1 4.4 597.81 a0.888813 0.888813         -180 1 0 -1.25697 -1.25697 A10.7374 10.7374 -180 0 0 3.15 611.74 a0.885191 0.885191 -180 0 0 1.25697         0 Z" class="st10"/>
			</g>
		</g>
		<g id="group122-43" transform="translate(223.2,-280.307)">
			<title>Sheet.122</title>
			<g id="shape123-44" transform="translate(1.92581,0)">
				<title>Sheet.123</title>
				<path d="M0.89 605.8 a0.885191 0.885191 -180 0 0 -0.885191 0.885191 L0 611.11 a0.885191 0.885191 -180 0 0 0.885191         0.885191 L24.09 612 a0.885191 0.885191 -180 0 0 0.885191 -0.885191 L24.98 606.69 a0.885191 0.885191         -180 0 0 -0.885191 -0.885191 L20.46 605.8 L16.24 571.33 a0.885191 0.885191 -180 0 0 -0.885191 -0.778969         L13.38 570.56 L13.38 566.63 a0.885191 0.885191 -180 0 0 -1.77038 0 L11.6 570.56 L9.61 570.56 a0.885191         0.885191 -180 0 0 -0.885191 0.778969 L4.52 605.8 L0.89 605.8 ZM23.21 610.23 L1.77 610.23 L1.77 607.57         L23.21 607.57 L23.21 610.23 ZM13.23 572.33 L12.49 573.07 L11.75 572.33 L13.23 572.33 ZM7.44 605.8 L11.6         601.64 L11.6 605.8 L7.44 605.8 ZM8.24 589.95 L11.6 589.95 L11.6 597.37 L7.8 593.56 L8.24 589.95 ZM9.65         578.44 L11.6 576.46 L11.6 582.34 L9.17 582.34 L9.65 578.44 ZM17.18 593.56 L13.38 597.37 L13.38 589.95         L16.74 589.95 L17.18 593.56 ZM13.38 588.18 L13.38 584.11 L16.03 584.11 L16.54 588.18 L13.38 588.18 ZM15.81         582.34 L13.38 582.34 L13.38 576.46 L15.33 578.41 L15.81 582.34 ZM11.6 584.11 L11.6 588.18 L8.45 588.18         L8.96 584.11 L11.6 584.11 ZM13.38 601.64 L17.54 605.8 L13.38 605.8 L13.38 601.64 ZM13.74 599.51 L17.46         595.79 L18.48 604.25 L13.74 599.51 ZM13.74 574.32 L14.71 573.35 L14.98 575.56 L13.74 574.32 ZM11.24         574.32 L10 575.56 L10.27 573.35 L11.24 574.32 ZM7.52 595.79 L11.24 599.51 L6.5 604.25 L7.52 595.79 Z" class="st10"/>
			</g>
			<g id="shape124-46" transform="translate(19.9476,-39.9126)">
				<title>Sheet.124</title>
				<path d="M0.26 611.74 a0.885191 0.885191 -180 0 0 1.24812 0 A4.74463 4.74463 -180 0 0 1.51 605.02 a0.885191 0.885191         -180 0 0 -1.24812 1.24812 A3.00965 3.00965 0 0 1 1.14 608.38 A2.97424 2.97424 0 0 1 0.26 610.49 a0.885191         0.885191 -180 0 0 -8.21565E-15 1.24812 Z" class="st10"/>
			</g>
			<g id="shape125-48" transform="translate(5.98013,-40.1198)">
				<title>Sheet.125</title>
				<path d="M1.4 611.95 a0.885191 0.885191 -180 1 0 1.24812 -1.24812 A2.99195 2.99195 0 0 1 2.65 606.47 a0.885191 0.885191         -180 1 0 -1.24812 -1.24812 A4.74463 4.74463 -180 0 0 1.4 611.95 Z" class="st10"/>
			</g>
			<g id="shape126-50" transform="translate(22.1296,-38.0101)">
				<title>Sheet.126</title>
				<path d="M2.02 606.48 A5.99275 5.99275 0 0 1 0.25 610.74 a0.888813 0.888813 -180 1 0 1.25697 1.25697 A7.80739 7.80739         -180 0 0 1.51 600.95 a0.885191 0.885191 -180 0 0 -1.24812 0 a0.885191 0.885191 -180 0 0 -6.77236E-15         1.25697 A5.97504 5.97504 0 0 1 2.02 606.48 Z" class="st10"/>
			</g>
			<g id="shape127-52" transform="translate(2.90982,-38.0101)">
				<title>Sheet.127</title>
				<path d="M2.31 612 a0.885191 0.885191 -180 0 0 1.23042 -1.25697 A6.02815 6.02815 0 0 1 3.54 602.21 a0.888813 0.888813         -180 1 0 -1.25697 -1.25697 A7.82509 7.82509 -180 0 0 2.28 612 L2.31 612 Z" class="st10"/>
			</g>
			<g id="shape128-54" transform="translate(24.139,-35.6814)">
				<title>Sheet.128</title>
				<path d="M2.92 604.15 A8.92273 8.92273 0 0 1 0.26 610.49 a0.885191 0.885191 -180 0 0 -8.77076E-15 1.25697 a0.885191         0.885191 -180 0 0 1.24812 0 A10.7285 10.7285 -180 0 0 1.51 596.55 a0.885191 0.885191 -180 0 0 -1.24812         0 a0.885191 0.885191 -180 0 0 -1.38778E-14 1.25697 A8.90503 8.90503 0 0 1 2.92 604.15 Z" class="st10"/>
			</g>
			<g id="shape129-56" transform="translate(-3.89688E-14,-35.6769)">
				<title>Sheet.129</title>
				<path d="M4.4 611.74 a0.885191 0.885191 -180 0 0 0 -1.25697 A8.95814 8.95814 0 0 1 4.4 597.81 a0.888813 0.888813         -180 1 0 -1.25697 -1.25697 A10.7374 10.7374 -180 0 0 3.15 611.74 a0.885191 0.885191 -180 0 0 1.25697         0 Z" class="st10"/>
			</g>
		</g>
		<g id="shape148-58" transform="translate(387,-315)">
			<title>Sheet.148</title>
			<g id="shadow148-59" transform="matrix(1,0,0,1,2.12132,2.12132)" class="st5">
				<path d="M0 597.4 L0 608.6 A3.4 3.4 -180 0 0 3.4 612 L14.6 612 A3.4 3.4 -180 0 0 18 608.6 L18 597.4 A3.4 3.4 -180         0 0 14.6 594 L3.4 594 A3.4 3.4 -180 0 0 0 597.4 ZM4.79 598.66 L4.79 599.72 L8.11 599.72 L8.11 601.19         L4.79 601.19 L4.79 602.26 L1.2 600.46 L4.79 598.66 ZM8.13 608.84 L4.8 608.84 L4.8 609.91 L1.19 608.1         L4.8 606.3 L4.8 607.37 L8.13 607.37 L8.13 608.84 ZM9.9 597.18 L13.21 597.18 L13.21 596.11 L16.8 597.91         L13.21 599.71 L13.21 598.65 L9.9 598.65 L9.9 597.18 ZM13.21 607.34 L13.21 606.27 L9.9 606.27 L9.9 604.8         L13.21 604.8 L13.21 603.74 L16.8 605.54 L13.21 607.34 Z" class="st11"/>
			</g>
			<path d="M0 597.4 L0 608.6 A3.4 3.4 -180 0 0 3.4 612 L14.6 612 A3.4 3.4 -180 0 0 18 608.6 L18 597.4 A3.4 3.4 -180 0 0        14.6 594 L3.4 594 A3.4 3.4 -180 0 0 0 597.4 ZM4.79 598.66 L4.79 599.72 L8.11 599.72 L8.11 601.19 L4.79 601.19        L4.79 602.26 L1.2 600.46 L4.79 598.66 ZM8.13 608.84 L4.8 608.84 L4.8 609.91 L1.19 608.1 L4.8 606.3 L4.8        607.37 L8.13 607.37 L8.13 608.84 ZM9.9 597.18 L13.21 597.18 L13.21 596.11 L16.8 597.91 L13.21 599.71 L13.21        598.65 L9.9 598.65 L9.9 597.18 ZM13.21 607.34 L13.21 606.27 L9.9 606.27 L9.9 604.8 L13.21 604.8 L13.21 603.74        L16.8 605.54 L13.21 607.34 Z" class="st12"/>
		</g>
		<g id="shape146-63" transform="translate(333,-315)">
			<title>Sheet.146</title>
			<g id="shadow146-64" transform="matrix(1,0,0,1,2.12132,2.12132)" class="st5">
				<path d="M0 597.4 L0 608.6 A3.4 3.4 -180 0 0 3.4 612 L14.6 612 A3.4 3.4 -180 0 0 18 608.6 L18 597.4 A3.4 3.4 -180         0 0 14.6 594 L3.4 594 A3.4 3.4 -180 0 0 0 597.4 ZM4.79 598.66 L4.79 599.72 L8.11 599.72 L8.11 601.19         L4.79 601.19 L4.79 602.26 L1.2 600.46 L4.79 598.66 ZM8.13 608.84 L4.8 608.84 L4.8 609.91 L1.19 608.1         L4.8 606.3 L4.8 607.37 L8.13 607.37 L8.13 608.84 ZM9.9 597.18 L13.21 597.18 L13.21 596.11 L16.8 597.91         L13.21 599.71 L13.21 598.65 L9.9 598.65 L9.9 597.18 ZM13.21 607.34 L13.21 606.27 L9.9 606.27 L9.9 604.8         L13.21 604.8 L13.21 603.74 L16.8 605.54 L13.21 607.34 Z" class="st11"/>
			</g>
			<path d="M0 597.4 L0 608.6 A3.4 3.4 -180 0 0 3.4 612 L14.6 612 A3.4 3.4 -180 0 0 18 608.6 L18 597.4 A3.4 3.4 -180 0 0        14.6 594 L3.4 594 A3.4 3.4 -180 0 0 0 597.4 ZM4.79 598.66 L4.79 599.72 L8.11 599.72 L8.11 601.19 L4.79 601.19        L4.79 602.26 L1.2 600.46 L4.79 598.66 ZM8.13 608.84 L4.8 608.84 L4.8 609.91 L1.19 608.1 L4.8 606.3 L4.8        607.37 L8.13 607.37 L8.13 608.84 ZM9.9 597.18 L13.21 597.18 L13.21 596.11 L16.8 597.91 L13.21 599.71 L13.21        598.65 L9.9 598.65 L9.9 597.18 ZM13.21 607.34 L13.21 606.27 L9.9 606.27 L9.9 604.8 L13.21 604.8 L13.21 603.74        L16.8 605.54 L13.21 607.34 Z" class="st12"/>
		</g>
		<g id="shape153-68" transform="translate(459,-315)">
			<title>Sheet.153</title>
			<g id="shadow153-69" transform="matrix(1,0,0,1,2.12132,2.12132)" class="st5">
				<path d="M0 597.4 L0 608.6 A3.4 3.4 -180 0 0 3.4 612 L14.6 612 A3.4 3.4 -180 0 0 18 608.6 L18 597.4 A3.4 3.4 -180         0 0 14.6 594 L3.4 594 A3.4 3.4 -180 0 0 0 597.4 ZM4.79 598.66 L4.79 599.72 L8.11 599.72 L8.11 601.19         L4.79 601.19 L4.79 602.26 L1.2 600.46 L4.79 598.66 ZM8.13 608.84 L4.8 608.84 L4.8 609.91 L1.19 608.1         L4.8 606.3 L4.8 607.37 L8.13 607.37 L8.13 608.84 ZM9.9 597.18 L13.21 597.18 L13.21 596.11 L16.8 597.91         L13.21 599.71 L13.21 598.65 L9.9 598.65 L9.9 597.18 ZM13.21 607.34 L13.21 606.27 L9.9 606.27 L9.9 604.8         L13.21 604.8 L13.21 603.74 L16.8 605.54 L13.21 607.34 Z" class="st11"/>
			</g>
			<path d="M0 597.4 L0 608.6 A3.4 3.4 -180 0 0 3.4 612 L14.6 612 A3.4 3.4 -180 0 0 18 608.6 L18 597.4 A3.4 3.4 -180 0 0        14.6 594 L3.4 594 A3.4 3.4 -180 0 0 0 597.4 ZM4.79 598.66 L4.79 599.72 L8.11 599.72 L8.11 601.19 L4.79 601.19        L4.79 602.26 L1.2 600.46 L4.79 598.66 ZM8.13 608.84 L4.8 608.84 L4.8 609.91 L1.19 608.1 L4.8 606.3 L4.8        607.37 L8.13 607.37 L8.13 608.84 ZM9.9 597.18 L13.21 597.18 L13.21 596.11 L16.8 597.91 L13.21 599.71 L13.21        598.65 L9.9 598.65 L9.9 597.18 ZM13.21 607.34 L13.21 606.27 L9.9 606.27 L9.9 604.8 L13.21 604.8 L13.21 603.74        L16.8 605.54 L13.21 607.34 Z" class="st12"/>
		</g>
		<g id="shape154-73" transform="translate(351,-324)">
			<title>Sheet.154</title>
			<g id="shadow154-74" transform="matrix(1,0,0,1,2.12132,2.12132)" class="st5">
				<path d="M0 612 L36 612" class="st6"/>
			</g>
			<path d="M0 612 L36 612" class="st7"/>
		</g>
		<g id="shape157-81" transform="translate(219.6,-260.807)">
			<title>Rounded Rectangle.157</title>
			<desc>gNB</desc>
			<path d="M3.6 612 L32.4 612 A3.59994 3.59994 -180 0 0 36 608.4 L36 593.61 A3.59994 3.59994 -180 0 0 32.4 590.01 L3.6        590.01 A3.59994 3.59994 -180 0 0 -0 593.61 L0 608.4 A3.59994 3.59994 -180 0 0 3.6 612 Z" class="st8"/>
			<text x="8.55" y="604.01" class="st9">gNB</text>		</g>
		<g id="group158-84" transform="translate(200.16,-312.421)">
			<title>Sheet.158</title>
			<g id="shape159-85" transform="translate(3.71137,0)">
				<title>Sheet.159</title>
				<path d="M5.85 600.42 L1.1 600.42 C0.49 600.42 0 600.91 0 601.52 L0 610.9 C0 611.51 0.49 612 1.1 612 L5.87 612 C6.49         612 6.98 611.51 6.98 610.9 L6.98 601.52 C6.98 600.93 6.47 600.42 5.85 600.42 L5.85 600.42 ZM6.55 610.9         C6.55 611.28 6.24 611.6 5.85 611.6 L1.1 611.6 C0.72 611.6 0.4 611.28 0.4 610.9 L0.4 601.52 C0.4 601.14         0.72 600.82 1.1 600.82 L5.87 600.82 C6.26 600.82 6.57 601.14 6.57 601.52 L6.57 610.9 L6.55 610.9 Z" class="st13"/>
			</g>
			<g id="shape160-87" transform="translate(4.11434,-0.402897)">
				<title>Sheet.160</title>
				<path d="M0 610.52 L0 611.3 C0 611.68 0.32 612 0.7 612 L5.47 612 C5.85 612 6.17 611.68 6.17 611.3 L6.17 610.52 L0         610.52 ZM3.65 611.45 L2.52 611.45 C2.42 611.45 2.31 611.36 2.31 611.24 C2.31 611.11 2.4 611.02 2.52         611.02 L3.65 611.02 C3.75 611.02 3.86 611.11 3.86 611.24 C3.86 611.36 3.75 611.45 3.65 611.45 Z" class="st13"/>
			</g>
			<g id="shape161-89" transform="translate(4.11432,-9.6919)">
				<title>Sheet.161</title>
				<path d="M5.45 610.52 L0.7 610.52 C0.32 610.52 0 610.83 0 611.22 L0 612 L6.17 612 L6.17 611.22 C6.15 610.83 5.85         610.52 5.45 610.52 L5.45 610.52 ZM3.39 611.47 L2.76 611.47 C2.65 611.47 2.54 611.38 2.54 611.26 C2.54         611.15 2.63 611.05 2.76 611.05 L3.39 611.05 C3.5 611.05 3.61 611.13 3.61 611.26 C3.61 611.38 3.5 611.47         3.39 611.47 Z" class="st13"/>
			</g>
			<g id="shape162-91" transform="translate(3.69006,-1.88735)">
				<title>Sheet.162</title>
				<path d="M7 611.79 C7 611.89 6.91 612 6.79 612 L0.21 612 C0.11 612 0 611.92 0 611.79 C0 611.68 0.08 611.58 0.21 611.58         L6.79 611.58 C6.89 611.58 7 611.68 7 611.79 Z" class="st13"/>
			</g>
			<g id="shape163-93" transform="translate(3.69006,-9.26773)">
				<title>Sheet.163</title>
				<path d="M7 611.79 C7 611.89 6.91 612 6.79 612 L0.21 612 C0.11 612 0 611.92 0 611.79 C0 611.68 0.08 611.58 0.21 611.58         L6.79 611.58 C6.89 611.58 7 611.68 7 611.79 Z" class="st13"/>
			</g>
			<g id="shape164-95" transform="translate(2.88519E-14,-2.60831)">
				<title>Sheet.164</title>
				<path d="M1.78 612 C1.72 612 1.65 611.98 1.61 611.92 C0 609.67 0 607.59 1.63 605.7 C1.72 605.62 1.85 605.62 1.93         605.68 C2.01 605.76 2.01 605.89 1.95 605.98 C0.45 607.72 0.45 609.58 1.97 611.7 C2.04 611.79 2.01 611.92         1.93 612 L1.78 612 L1.78 612 Z" class="st13"/>
			</g>
			<g id="shape165-97" transform="translate(1.35731,-3.49919)">
				<title>Sheet.165</title>
				<path d="M1.34 612 C1.27 612 1.21 611.98 1.17 611.92 C0 610.32 0.02 608.82 1.19 607.48 C1.27 607.4 1.4 607.4 1.48         607.46 C1.57 607.55 1.57 607.67 1.51 607.76 C0.47 608.95 0.47 610.24 1.53 611.68 C1.59 611.77 1.57 611.89         1.48 611.98 C1.42 612 1.38 612 1.34 612 L1.34 612 Z" class="st13"/>
			</g>
			<g id="shape166-99" transform="translate(12.3641,-2.60841)">
				<title>Sheet.166</title>
				<path d="M0.23 612 C0.19 612 0.15 611.98 0.11 611.96 C0.02 611.89 0 611.77 0.06 611.66 C1.59 609.56 1.59 607.69 0.08         605.93 C0 605.85 0.02 605.72 0.11 605.64 C0.19 605.55 0.32 605.57 0.4 605.66 C2.04 607.55 2.04 609.65         0.42 611.89 C0.36 611.98 0.3 612 0.23 612 L0.23 612 Z" class="st13"/>
			</g>
			<g id="shape167-101" transform="translate(11.4521,-3.49919)">
				<title>Sheet.167</title>
				<path d="M0.23 612 C0.19 612 0.15 611.98 0.11 611.96 C0.02 611.89 0 611.77 0.06 611.66 C1.1 610.22 1.1 608.92 0.08         607.74 C0 607.65 0.02 607.53 0.11 607.44 C0.19 607.36 0.32 607.38 0.4 607.46 C1.57 608.8 1.57 610.3         0.42 611.89 C0.36 611.98 0.3 612 0.23 612 L0.23 612 Z" class="st13"/>
			</g>
		</g>
		<g id="group168-103" transform="translate(176.4,-294.45)">
			<title>Sheet.168</title>
			<g id="shape169-104" transform="translate(3.71137,0)">
				<title>Sheet.169</title>
				<path d="M5.85 600.42 L1.1 600.42 C0.49 600.42 0 600.91 0 601.52 L0 610.9 C0 611.51 0.49 612 1.1 612 L5.87 612 C6.49         612 6.98 611.51 6.98 610.9 L6.98 601.52 C6.98 600.93 6.47 600.42 5.85 600.42 L5.85 600.42 ZM6.55 610.9         C6.55 611.28 6.24 611.6 5.85 611.6 L1.1 611.6 C0.72 611.6 0.4 611.28 0.4 610.9 L0.4 601.52 C0.4 601.14         0.72 600.82 1.1 600.82 L5.87 600.82 C6.26 600.82 6.57 601.14 6.57 601.52 L6.57 610.9 L6.55 610.9 Z" class="st13"/>
			</g>
			<g id="shape170-106" transform="translate(4.11434,-0.402897)">
				<title>Sheet.170</title>
				<path d="M0 610.52 L0 611.3 C0 611.68 0.32 612 0.7 612 L5.47 612 C5.85 612 6.17 611.68 6.17 611.3 L6.17 610.52 L0         610.52 ZM3.65 611.45 L2.52 611.45 C2.42 611.45 2.31 611.36 2.31 611.24 C2.31 611.11 2.4 611.02 2.52         611.02 L3.65 611.02 C3.75 611.02 3.86 611.11 3.86 611.24 C3.86 611.36 3.75 611.45 3.65 611.45 Z" class="st13"/>
			</g>
			<g id="shape171-108" transform="translate(4.11432,-9.6919)">
				<title>Sheet.171</title>
				<path d="M5.45 610.52 L0.7 610.52 C0.32 610.52 0 610.83 0 611.22 L0 612 L6.17 612 L6.17 611.22 C6.15 610.83 5.85         610.52 5.45 610.52 L5.45 610.52 ZM3.39 611.47 L2.76 611.47 C2.65 611.47 2.54 611.38 2.54 611.26 C2.54         611.15 2.63 611.05 2.76 611.05 L3.39 611.05 C3.5 611.05 3.61 611.13 3.61 611.26 C3.61 611.38 3.5 611.47         3.39 611.47 Z" class="st13"/>
			</g>
			<g id="shape172-110" transform="translate(3.69006,-1.88735)">
				<title>Sheet.172</title>
				<path d="M7 611.79 C7 611.89 6.91 612 6.79 612 L0.21 612 C0.11 612 0 611.92 0 611.79 C0 611.68 0.08 611.58 0.21 611.58         L6.79 611.58 C6.89 611.58 7 611.68 7 611.79 Z" class="st13"/>
			</g>
			<g id="shape173-112" transform="translate(3.69006,-9.26773)">
				<title>Sheet.173</title>
				<path d="M7 611.79 C7 611.89 6.91 612 6.79 612 L0.21 612 C0.11 612 0 611.92 0 611.79 C0 611.68 0.08 611.58 0.21 611.58         L6.79 611.58 C6.89 611.58 7 611.68 7 611.79 Z" class="st13"/>
			</g>
			<g id="shape174-114" transform="translate(2.88519E-14,-2.60831)">
				<title>Sheet.174</title>
				<path d="M1.78 612 C1.72 612 1.65 611.98 1.61 611.92 C0 609.67 0 607.59 1.63 605.7 C1.72 605.62 1.85 605.62 1.93         605.68 C2.01 605.76 2.01 605.89 1.95 605.98 C0.45 607.72 0.45 609.58 1.97 611.7 C2.04 611.79 2.01 611.92         1.93 612 L1.78 612 L1.78 612 Z" class="st13"/>
			</g>
			<g id="shape175-116" transform="translate(1.35731,-3.49919)">
				<title>Sheet.175</title>
				<path d="M1.34 612 C1.27 612 1.21 611.98 1.17 611.92 C0 610.32 0.02 608.82 1.19 607.48 C1.27 607.4 1.4 607.4 1.48         607.46 C1.57 607.55 1.57 607.67 1.51 607.76 C0.47 608.95 0.47 610.24 1.53 611.68 C1.59 611.77 1.57 611.89         1.48 611.98 C1.42 612 1.38 612 1.34 612 L1.34 612 Z" class="st13"/>
			</g>
			<g id="shape176-118" transform="translate(12.3641,-2.60841)">
				<title>Sheet.176</title>
				<path d="M0.23 612 C0.19 612 0.15 611.98 0.11 611.96 C0.02 611.89 0 611.77 0.06 611.66 C1.59 609.56 1.59 607.69 0.08         605.93 C0 605.85 0.02 605.72 0.11 605.64 C0.19 605.55 0.32 605.57 0.4 605.66 C2.04 607.55 2.04 609.65         0.42 611.89 C0.36 611.98 0.3 612 0.23 612 L0.23 612 Z" class="st13"/>
			</g>
			<g id="shape177-120" transform="translate(11.4521,-3.49919)">
				<title>Sheet.177</title>
				<path d="M0.23 612 C0.19 612 0.15 611.98 0.11 611.96 C0.02 611.89 0 611.77 0.06 611.66 C1.1 610.22 1.1 608.92 0.08         607.74 C0 607.65 0.02 607.53 0.11 607.44 C0.19 607.36 0.32 607.38 0.4 607.46 C1.57 608.8 1.57 610.3         0.42 611.89 C0.36 611.98 0.3 612 0.23 612 L0.23 612 Z" class="st13"/>
			</g>
		</g>
		<g id="group178-122" transform="translate(195.84,-277.71)">
			<title>Sheet.178</title>
			<g id="shape179-123" transform="translate(3.71137,0)">
				<title>Sheet.179</title>
				<path d="M5.85 600.42 L1.1 600.42 C0.49 600.42 0 600.91 0 601.52 L0 610.9 C0 611.51 0.49 612 1.1 612 L5.87 612 C6.49         612 6.98 611.51 6.98 610.9 L6.98 601.52 C6.98 600.93 6.47 600.42 5.85 600.42 L5.85 600.42 ZM6.55 610.9         C6.55 611.28 6.24 611.6 5.85 611.6 L1.1 611.6 C0.72 611.6 0.4 611.28 0.4 610.9 L0.4 601.52 C0.4 601.14         0.72 600.82 1.1 600.82 L5.87 600.82 C6.26 600.82 6.57 601.14 6.57 601.52 L6.57 610.9 L6.55 610.9 Z" class="st13"/>
			</g>
			<g id="shape180-125" transform="translate(4.11434,-0.402897)">
				<title>Sheet.180</title>
				<path d="M0 610.52 L0 611.3 C0 611.68 0.32 612 0.7 612 L5.47 612 C5.85 612 6.17 611.68 6.17 611.3 L6.17 610.52 L0         610.52 ZM3.65 611.45 L2.52 611.45 C2.42 611.45 2.31 611.36 2.31 611.24 C2.31 611.11 2.4 611.02 2.52         611.02 L3.65 611.02 C3.75 611.02 3.86 611.11 3.86 611.24 C3.86 611.36 3.75 611.45 3.65 611.45 Z" class="st13"/>
			</g>
			<g id="shape181-127" transform="translate(4.11432,-9.6919)">
				<title>Sheet.181</title>
				<path d="M5.45 610.52 L0.7 610.52 C0.32 610.52 0 610.83 0 611.22 L0 612 L6.17 612 L6.17 611.22 C6.15 610.83 5.85         610.52 5.45 610.52 L5.45 610.52 ZM3.39 611.47 L2.76 611.47 C2.65 611.47 2.54 611.38 2.54 611.26 C2.54         611.15 2.63 611.05 2.76 611.05 L3.39 611.05 C3.5 611.05 3.61 611.13 3.61 611.26 C3.61 611.38 3.5 611.47         3.39 611.47 Z" class="st13"/>
			</g>
			<g id="shape182-129" transform="translate(3.69006,-1.88735)">
				<title>Sheet.182</title>
				<path d="M7 611.79 C7 611.89 6.91 612 6.79 612 L0.21 612 C0.11 612 0 611.92 0 611.79 C0 611.68 0.08 611.58 0.21 611.58         L6.79 611.58 C6.89 611.58 7 611.68 7 611.79 Z" class="st13"/>
			</g>
			<g id="shape183-131" transform="translate(3.69006,-9.26773)">
				<title>Sheet.183</title>
				<path d="M7 611.79 C7 611.89 6.91 612 6.79 612 L0.21 612 C0.11 612 0 611.92 0 611.79 C0 611.68 0.08 611.58 0.21 611.58         L6.79 611.58 C6.89 611.58 7 611.68 7 611.79 Z" class="st13"/>
			</g>
			<g id="shape184-133" transform="translate(2.88519E-14,-2.60831)">
				<title>Sheet.184</title>
				<path d="M1.78 612 C1.72 612 1.65 611.98 1.61 611.92 C0 609.67 0 607.59 1.63 605.7 C1.72 605.62 1.85 605.62 1.93         605.68 C2.01 605.76 2.01 605.89 1.95 605.98 C0.45 607.72 0.45 609.58 1.97 611.7 C2.04 611.79 2.01 611.92         1.93 612 L1.78 612 L1.78 612 Z" class="st13"/>
			</g>
			<g id="shape185-135" transform="translate(1.35731,-3.49919)">
				<title>Sheet.185</title>
				<path d="M1.34 612 C1.27 612 1.21 611.98 1.17 611.92 C0 610.32 0.02 608.82 1.19 607.48 C1.27 607.4 1.4 607.4 1.48         607.46 C1.57 607.55 1.57 607.67 1.51 607.76 C0.47 608.95 0.47 610.24 1.53 611.68 C1.59 611.77 1.57 611.89         1.48 611.98 C1.42 612 1.38 612 1.34 612 L1.34 612 Z" class="st13"/>
			</g>
			<g id="shape186-137" transform="translate(12.3641,-2.60841)">
				<title>Sheet.186</title>
				<path d="M0.23 612 C0.19 612 0.15 611.98 0.11 611.96 C0.02 611.89 0 611.77 0.06 611.66 C1.59 609.56 1.59 607.69 0.08         605.93 C0 605.85 0.02 605.72 0.11 605.64 C0.19 605.55 0.32 605.57 0.4 605.66 C2.04 607.55 2.04 609.65         0.42 611.89 C0.36 611.98 0.3 612 0.23 612 L0.23 612 Z" class="st13"/>
			</g>
			<g id="shape187-139" transform="translate(11.4521,-3.49919)">
				<title>Sheet.187</title>
				<path d="M0.23 612 C0.19 612 0.15 611.98 0.11 611.96 C0.02 611.89 0 611.77 0.06 611.66 C1.1 610.22 1.1 608.92 0.08         607.74 C0 607.65 0.02 607.53 0.11 607.44 C0.19 607.36 0.32 607.38 0.4 607.46 C1.57 608.8 1.57 610.3         0.42 611.89 C0.36 611.98 0.3 612 0.23 612 L0.23 612 Z" class="st13"/>
			</g>
		</g>
		<g id="group188-141" transform="translate(246.6,-369.96)">
			<title>Sheet.188</title>
			<g id="shape189-142" transform="translate(3.71137,0)">
				<title>Sheet.189</title>
				<path d="M5.85 600.42 L1.1 600.42 C0.49 600.42 0 600.91 0 601.52 L0 610.9 C0 611.51 0.49 612 1.1 612 L5.87 612 C6.49         612 6.98 611.51 6.98 610.9 L6.98 601.52 C6.98 600.93 6.47 600.42 5.85 600.42 L5.85 600.42 ZM6.55 610.9         C6.55 611.28 6.24 611.6 5.85 611.6 L1.1 611.6 C0.72 611.6 0.4 611.28 0.4 610.9 L0.4 601.52 C0.4 601.14         0.72 600.82 1.1 600.82 L5.87 600.82 C6.26 600.82 6.57 601.14 6.57 601.52 L6.57 610.9 L6.55 610.9 Z" class="st13"/>
			</g>
			<g id="shape190-144" transform="translate(4.11434,-0.402897)">
				<title>Sheet.190</title>
				<path d="M0 610.52 L0 611.3 C0 611.68 0.32 612 0.7 612 L5.47 612 C5.85 612 6.17 611.68 6.17 611.3 L6.17 610.52 L0         610.52 ZM3.65 611.45 L2.52 611.45 C2.42 611.45 2.31 611.36 2.31 611.24 C2.31 611.11 2.4 611.02 2.52         611.02 L3.65 611.02 C3.75 611.02 3.86 611.11 3.86 611.24 C3.86 611.36 3.75 611.45 3.65 611.45 Z" class="st13"/>
			</g>
			<g id="shape191-146" transform="translate(4.11432,-9.6919)">
				<title>Sheet.191</title>
				<path d="M5.45 610.52 L0.7 610.52 C0.32 610.52 0 610.83 0 611.22 L0 612 L6.17 612 L6.17 611.22 C6.15 610.83 5.85         610.52 5.45 610.52 L5.45 610.52 ZM3.39 611.47 L2.76 611.47 C2.65 611.47 2.54 611.38 2.54 611.26 C2.54         611.15 2.63 611.05 2.76 611.05 L3.39 611.05 C3.5 611.05 3.61 611.13 3.61 611.26 C3.61 611.38 3.5 611.47         3.39 611.47 Z" class="st13"/>
			</g>
			<g id="shape192-148" transform="translate(3.69006,-1.88735)">
				<title>Sheet.192</title>
				<path d="M7 611.79 C7 611.89 6.91 612 6.79 612 L0.21 612 C0.11 612 0 611.92 0 611.79 C0 611.68 0.08 611.58 0.21 611.58         L6.79 611.58 C6.89 611.58 7 611.68 7 611.79 Z" class="st13"/>
			</g>
			<g id="shape193-150" transform="translate(3.69006,-9.26773)">
				<title>Sheet.193</title>
				<path d="M7 611.79 C7 611.89 6.91 612 6.79 612 L0.21 612 C0.11 612 0 611.92 0 611.79 C0 611.68 0.08 611.58 0.21 611.58         L6.79 611.58 C6.89 611.58 7 611.68 7 611.79 Z" class="st13"/>
			</g>
			<g id="shape194-152" transform="translate(2.88519E-14,-2.60831)">
				<title>Sheet.194</title>
				<path d="M1.78 612 C1.72 612 1.65 611.98 1.61 611.92 C0 609.67 0 607.59 1.63 605.7 C1.72 605.62 1.85 605.62 1.93         605.68 C2.01 605.76 2.01 605.89 1.95 605.98 C0.45 607.72 0.45 609.58 1.97 611.7 C2.04 611.79 2.01 611.92         1.93 612 L1.78 612 L1.78 612 Z" class="st13"/>
			</g>
			<g id="shape195-154" transform="translate(1.35731,-3.49919)">
				<title>Sheet.195</title>
				<path d="M1.34 612 C1.27 612 1.21 611.98 1.17 611.92 C0 610.32 0.02 608.82 1.19 607.48 C1.27 607.4 1.4 607.4 1.48         607.46 C1.57 607.55 1.57 607.67 1.51 607.76 C0.47 608.95 0.47 610.24 1.53 611.68 C1.59 611.77 1.57 611.89         1.48 611.98 C1.42 612 1.38 612 1.34 612 L1.34 612 Z" class="st13"/>
			</g>
			<g id="shape196-156" transform="translate(12.3641,-2.60841)">
				<title>Sheet.196</title>
				<path d="M0.23 612 C0.19 612 0.15 611.98 0.11 611.96 C0.02 611.89 0 611.77 0.06 611.66 C1.59 609.56 1.59 607.69 0.08         605.93 C0 605.85 0.02 605.72 0.11 605.64 C0.19 605.55 0.32 605.57 0.4 605.66 C2.04 607.55 2.04 609.65         0.42 611.89 C0.36 611.98 0.3 612 0.23 612 L0.23 612 Z" class="st13"/>
			</g>
			<g id="shape197-158" transform="translate(11.4521,-3.49919)">
				<title>Sheet.197</title>
				<path d="M0.23 612 C0.19 612 0.15 611.98 0.11 611.96 C0.02 611.89 0 611.77 0.06 611.66 C1.1 610.22 1.1 608.92 0.08         607.74 C0 607.65 0.02 607.53 0.11 607.44 C0.19 607.36 0.32 607.38 0.4 607.46 C1.57 608.8 1.57 610.3         0.42 611.89 C0.36 611.98 0.3 612 0.23 612 L0.23 612 Z" class="st13"/>
			</g>
		</g>
		<g id="group198-160" transform="translate(217.8,-365.46)">
			<title>Sheet.198</title>
			<g id="shape199-161" transform="translate(3.71137,0)">
				<title>Sheet.199</title>
				<path d="M5.85 600.42 L1.1 600.42 C0.49 600.42 0 600.91 0 601.52 L0 610.9 C0 611.51 0.49 612 1.1 612 L5.87 612 C6.49         612 6.98 611.51 6.98 610.9 L6.98 601.52 C6.98 600.93 6.47 600.42 5.85 600.42 L5.85 600.42 ZM6.55 610.9         C6.55 611.28 6.24 611.6 5.85 611.6 L1.1 611.6 C0.72 611.6 0.4 611.28 0.4 610.9 L0.4 601.52 C0.4 601.14         0.72 600.82 1.1 600.82 L5.87 600.82 C6.26 600.82 6.57 601.14 6.57 601.52 L6.57 610.9 L6.55 610.9 Z" class="st13"/>
			</g>
			<g id="shape200-163" transform="translate(4.11434,-0.402897)">
				<title>Sheet.200</title>
				<path d="M0 610.52 L0 611.3 C0 611.68 0.32 612 0.7 612 L5.47 612 C5.85 612 6.17 611.68 6.17 611.3 L6.17 610.52 L0         610.52 ZM3.65 611.45 L2.52 611.45 C2.42 611.45 2.31 611.36 2.31 611.24 C2.31 611.11 2.4 611.02 2.52         611.02 L3.65 611.02 C3.75 611.02 3.86 611.11 3.86 611.24 C3.86 611.36 3.75 611.45 3.65 611.45 Z" class="st13"/>
			</g>
			<g id="shape201-165" transform="translate(4.11432,-9.6919)">
				<title>Sheet.201</title>
				<path d="M5.45 610.52 L0.7 610.52 C0.32 610.52 0 610.83 0 611.22 L0 612 L6.17 612 L6.17 611.22 C6.15 610.83 5.85         610.52 5.45 610.52 L5.45 610.52 ZM3.39 611.47 L2.76 611.47 C2.65 611.47 2.54 611.38 2.54 611.26 C2.54         611.15 2.63 611.05 2.76 611.05 L3.39 611.05 C3.5 611.05 3.61 611.13 3.61 611.26 C3.61 611.38 3.5 611.47         3.39 611.47 Z" class="st13"/>
			</g>
			<g id="shape202-167" transform="translate(3.69006,-1.88735)">
				<title>Sheet.202</title>
				<path d="M7 611.79 C7 611.89 6.91 612 6.79 612 L0.21 612 C0.11 612 0 611.92 0 611.79 C0 611.68 0.08 611.58 0.21 611.58         L6.79 611.58 C6.89 611.58 7 611.68 7 611.79 Z" class="st13"/>
			</g>
			<g id="shape203-169" transform="translate(3.69006,-9.26773)">
				<title>Sheet.203</title>
				<path d="M7 611.79 C7 611.89 6.91 612 6.79 612 L0.21 612 C0.11 612 0 611.92 0 611.79 C0 611.68 0.08 611.58 0.21 611.58         L6.79 611.58 C6.89 611.58 7 611.68 7 611.79 Z" class="st13"/>
			</g>
			<g id="shape204-171" transform="translate(2.88519E-14,-2.60831)">
				<title>Sheet.204</title>
				<path d="M1.78 612 C1.72 612 1.65 611.98 1.61 611.92 C0 609.67 0 607.59 1.63 605.7 C1.72 605.62 1.85 605.62 1.93         605.68 C2.01 605.76 2.01 605.89 1.95 605.98 C0.45 607.72 0.45 609.58 1.97 611.7 C2.04 611.79 2.01 611.92         1.93 612 L1.78 612 L1.78 612 Z" class="st13"/>
			</g>
			<g id="shape205-173" transform="translate(1.35731,-3.49919)">
				<title>Sheet.205</title>
				<path d="M1.34 612 C1.27 612 1.21 611.98 1.17 611.92 C0 610.32 0.02 608.82 1.19 607.48 C1.27 607.4 1.4 607.4 1.48         607.46 C1.57 607.55 1.57 607.67 1.51 607.76 C0.47 608.95 0.47 610.24 1.53 611.68 C1.59 611.77 1.57 611.89         1.48 611.98 C1.42 612 1.38 612 1.34 612 L1.34 612 Z" class="st13"/>
			</g>
			<g id="shape206-175" transform="translate(12.3641,-2.60841)">
				<title>Sheet.206</title>
				<path d="M0.23 612 C0.19 612 0.15 611.98 0.11 611.96 C0.02 611.89 0 611.77 0.06 611.66 C1.59 609.56 1.59 607.69 0.08         605.93 C0 605.85 0.02 605.72 0.11 605.64 C0.19 605.55 0.32 605.57 0.4 605.66 C2.04 607.55 2.04 609.65         0.42 611.89 C0.36 611.98 0.3 612 0.23 612 L0.23 612 Z" class="st13"/>
			</g>
			<g id="shape207-177" transform="translate(11.4521,-3.49919)">
				<title>Sheet.207</title>
				<path d="M0.23 612 C0.19 612 0.15 611.98 0.11 611.96 C0.02 611.89 0 611.77 0.06 611.66 C1.1 610.22 1.1 608.92 0.08         607.74 C0 607.65 0.02 607.53 0.11 607.44 C0.19 607.36 0.32 607.38 0.4 607.46 C1.57 608.8 1.57 610.3         0.42 611.89 C0.36 611.98 0.3 612 0.23 612 L0.23 612 Z" class="st13"/>
			</g>
		</g>
		<g id="group208-179" transform="translate(246.6,-343.125)">
			<title>Sheet.208</title>
			<g id="shape209-180" transform="translate(3.71137,0)">
				<title>Sheet.209</title>
				<path d="M5.85 600.42 L1.1 600.42 C0.49 600.42 0 600.91 0 601.52 L0 610.9 C0 611.51 0.49 612 1.1 612 L5.87 612 C6.49         612 6.98 611.51 6.98 610.9 L6.98 601.52 C6.98 600.93 6.47 600.42 5.85 600.42 L5.85 600.42 ZM6.55 610.9         C6.55 611.28 6.24 611.6 5.85 611.6 L1.1 611.6 C0.72 611.6 0.4 611.28 0.4 610.9 L0.4 601.52 C0.4 601.14         0.72 600.82 1.1 600.82 L5.87 600.82 C6.26 600.82 6.57 601.14 6.57 601.52 L6.57 610.9 L6.55 610.9 Z" class="st13"/>
			</g>
			<g id="shape210-182" transform="translate(4.11434,-0.402897)">
				<title>Sheet.210</title>
				<path d="M0 610.52 L0 611.3 C0 611.68 0.32 612 0.7 612 L5.47 612 C5.85 612 6.17 611.68 6.17 611.3 L6.17 610.52 L0         610.52 ZM3.65 611.45 L2.52 611.45 C2.42 611.45 2.31 611.36 2.31 611.24 C2.31 611.11 2.4 611.02 2.52         611.02 L3.65 611.02 C3.75 611.02 3.86 611.11 3.86 611.24 C3.86 611.36 3.75 611.45 3.65 611.45 Z" class="st13"/>
			</g>
			<g id="shape211-184" transform="translate(4.11432,-9.6919)">
				<title>Sheet.211</title>
				<path d="M5.45 610.52 L0.7 610.52 C0.32 610.52 0 610.83 0 611.22 L0 612 L6.17 612 L6.17 611.22 C6.15 610.83 5.85         610.52 5.45 610.52 L5.45 610.52 ZM3.39 611.47 L2.76 611.47 C2.65 611.47 2.54 611.38 2.54 611.26 C2.54         611.15 2.63 611.05 2.76 611.05 L3.39 611.05 C3.5 611.05 3.61 611.13 3.61 611.26 C3.61 611.38 3.5 611.47         3.39 611.47 Z" class="st13"/>
			</g>
			<g id="shape212-186" transform="translate(3.69006,-1.88735)">
				<title>Sheet.212</title>
				<path d="M7 611.79 C7 611.89 6.91 612 6.79 612 L0.21 612 C0.11 612 0 611.92 0 611.79 C0 611.68 0.08 611.58 0.21 611.58         L6.79 611.58 C6.89 611.58 7 611.68 7 611.79 Z" class="st13"/>
			</g>
			<g id="shape213-188" transform="translate(3.69006,-9.26773)">
				<title>Sheet.213</title>
				<path d="M7 611.79 C7 611.89 6.91 612 6.79 612 L0.21 612 C0.11 612 0 611.92 0 611.79 C0 611.68 0.08 611.58 0.21 611.58         L6.79 611.58 C6.89 611.58 7 611.68 7 611.79 Z" class="st13"/>
			</g>
			<g id="shape214-190" transform="translate(2.88519E-14,-2.60831)">
				<title>Sheet.214</title>
				<path d="M1.78 612 C1.72 612 1.65 611.98 1.61 611.92 C0 609.67 0 607.59 1.63 605.7 C1.72 605.62 1.85 605.62 1.93         605.68 C2.01 605.76 2.01 605.89 1.95 605.98 C0.45 607.72 0.45 609.58 1.97 611.7 C2.04 611.79 2.01 611.92         1.93 612 L1.78 612 L1.78 612 Z" class="st13"/>
			</g>
			<g id="shape215-192" transform="translate(1.35731,-3.49919)">
				<title>Sheet.215</title>
				<path d="M1.34 612 C1.27 612 1.21 611.98 1.17 611.92 C0 610.32 0.02 608.82 1.19 607.48 C1.27 607.4 1.4 607.4 1.48         607.46 C1.57 607.55 1.57 607.67 1.51 607.76 C0.47 608.95 0.47 610.24 1.53 611.68 C1.59 611.77 1.57 611.89         1.48 611.98 C1.42 612 1.38 612 1.34 612 L1.34 612 Z" class="st13"/>
			</g>
			<g id="shape216-194" transform="translate(12.3641,-2.60841)">
				<title>Sheet.216</title>
				<path d="M0.23 612 C0.19 612 0.15 611.98 0.11 611.96 C0.02 611.89 0 611.77 0.06 611.66 C1.59 609.56 1.59 607.69 0.08         605.93 C0 605.85 0.02 605.72 0.11 605.64 C0.19 605.55 0.32 605.57 0.4 605.66 C2.04 607.55 2.04 609.65         0.42 611.89 C0.36 611.98 0.3 612 0.23 612 L0.23 612 Z" class="st13"/>
			</g>
			<g id="shape217-196" transform="translate(11.4521,-3.49919)">
				<title>Sheet.217</title>
				<path d="M0.23 612 C0.19 612 0.15 611.98 0.11 611.96 C0.02 611.89 0 611.77 0.06 611.66 C1.1 610.22 1.1 608.92 0.08         607.74 C0 607.65 0.02 607.53 0.11 607.44 C0.19 607.36 0.32 607.38 0.4 607.46 C1.57 608.8 1.57 610.3         0.42 611.89 C0.36 611.98 0.3 612 0.23 612 L0.23 612 Z" class="st13"/>
			</g>
		</g>
		<g id="group218-198" transform="translate(214.875,-340.546)">
			<title>Sheet.218</title>
			<g id="shape219-199" transform="translate(3.71137,0)">
				<title>Sheet.219</title>
				<path d="M5.85 600.42 L1.1 600.42 C0.49 600.42 0 600.91 0 601.52 L0 610.9 C0 611.51 0.49 612 1.1 612 L5.87 612 C6.49         612 6.98 611.51 6.98 610.9 L6.98 601.52 C6.98 600.93 6.47 600.42 5.85 600.42 L5.85 600.42 ZM6.55 610.9         C6.55 611.28 6.24 611.6 5.85 611.6 L1.1 611.6 C0.72 611.6 0.4 611.28 0.4 610.9 L0.4 601.52 C0.4 601.14         0.72 600.82 1.1 600.82 L5.87 600.82 C6.26 600.82 6.57 601.14 6.57 601.52 L6.57 610.9 L6.55 610.9 Z" class="st13"/>
			</g>
			<g id="shape220-201" transform="translate(4.11434,-0.402897)">
				<title>Sheet.220</title>
				<path d="M0 610.52 L0 611.3 C0 611.68 0.32 612 0.7 612 L5.47 612 C5.85 612 6.17 611.68 6.17 611.3 L6.17 610.52 L0         610.52 ZM3.65 611.45 L2.52 611.45 C2.42 611.45 2.31 611.36 2.31 611.24 C2.31 611.11 2.4 611.02 2.52         611.02 L3.65 611.02 C3.75 611.02 3.86 611.11 3.86 611.24 C3.86 611.36 3.75 611.45 3.65 611.45 Z" class="st13"/>
			</g>
			<g id="shape221-203" transform="translate(4.11432,-9.6919)">
				<title>Sheet.221</title>
				<path d="M5.45 610.52 L0.7 610.52 C0.32 610.52 0 610.83 0 611.22 L0 612 L6.17 612 L6.17 611.22 C6.15 610.83 5.85         610.52 5.45 610.52 L5.45 610.52 ZM3.39 611.47 L2.76 611.47 C2.65 611.47 2.54 611.38 2.54 611.26 C2.54         611.15 2.63 611.05 2.76 611.05 L3.39 611.05 C3.5 611.05 3.61 611.13 3.61 611.26 C3.61 611.38 3.5 611.47         3.39 611.47 Z" class="st13"/>
			</g>
			<g id="shape222-205" transform="translate(3.69006,-1.88735)">
				<title>Sheet.222</title>
				<path d="M7 611.79 C7 611.89 6.91 612 6.79 612 L0.21 612 C0.11 612 0 611.92 0 611.79 C0 611.68 0.08 611.58 0.21 611.58         L6.79 611.58 C6.89 611.58 7 611.68 7 611.79 Z" class="st13"/>
			</g>
			<g id="shape223-207" transform="translate(3.69006,-9.26773)">
				<title>Sheet.223</title>
				<path d="M7 611.79 C7 611.89 6.91 612 6.79 612 L0.21 612 C0.11 612 0 611.92 0 611.79 C0 611.68 0.08 611.58 0.21 611.58         L6.79 611.58 C6.89 611.58 7 611.68 7 611.79 Z" class="st13"/>
			</g>
			<g id="shape224-209" transform="translate(2.88519E-14,-2.60831)">
				<title>Sheet.224</title>
				<path d="M1.78 612 C1.72 612 1.65 611.98 1.61 611.92 C0 609.67 0 607.59 1.63 605.7 C1.72 605.62 1.85 605.62 1.93         605.68 C2.01 605.76 2.01 605.89 1.95 605.98 C0.45 607.72 0.45 609.58 1.97 611.7 C2.04 611.79 2.01 611.92         1.93 612 L1.78 612 L1.78 612 Z" class="st13"/>
			</g>
			<g id="shape225-211" transform="translate(1.35731,-3.49919)">
				<title>Sheet.225</title>
				<path d="M1.34 612 C1.27 612 1.21 611.98 1.17 611.92 C0 610.32 0.02 608.82 1.19 607.48 C1.27 607.4 1.4 607.4 1.48         607.46 C1.57 607.55 1.57 607.67 1.51 607.76 C0.47 608.95 0.47 610.24 1.53 611.68 C1.59 611.77 1.57 611.89         1.48 611.98 C1.42 612 1.38 612 1.34 612 L1.34 612 Z" class="st13"/>
			</g>
			<g id="shape226-213" transform="translate(12.3641,-2.60841)">
				<title>Sheet.226</title>
				<path d="M0.23 612 C0.19 612 0.15 611.98 0.11 611.96 C0.02 611.89 0 611.77 0.06 611.66 C1.59 609.56 1.59 607.69 0.08         605.93 C0 605.85 0.02 605.72 0.11 605.64 C0.19 605.55 0.32 605.57 0.4 605.66 C2.04 607.55 2.04 609.65         0.42 611.89 C0.36 611.98 0.3 612 0.23 612 L0.23 612 Z" class="st13"/>
			</g>
			<g id="shape227-215" transform="translate(11.4521,-3.49919)">
				<title>Sheet.227</title>
				<path d="M0.23 612 C0.19 612 0.15 611.98 0.11 611.96 C0.02 611.89 0 611.77 0.06 611.66 C1.1 610.22 1.1 608.92 0.08         607.74 C0 607.65 0.02 607.53 0.11 607.44 C0.19 607.36 0.32 607.38 0.4 607.46 C1.57 608.8 1.57 610.3         0.42 611.89 C0.36 611.98 0.3 612 0.23 612 L0.23 612 Z" class="st13"/>
			</g>
		</g>
		<g id="shape228-217" transform="translate(187.2,-289.862)">
			<title>Rounded Rectangle.228</title>
			<desc>UEs</desc>
			<path d="M3.6 612 L32.4 612 A3.59994 3.59994 -180 0 0 36 608.4 L36 593.61 A3.59994 3.59994 -180 0 0 32.4 590.01 L3.6        590.01 A3.59994 3.59994 -180 0 0 -0 593.61 L0 608.4 A3.59994 3.59994 -180 0 0 3.6 612 Z" class="st8"/>
			<text x="9.39" y="604.01" class="st9">UEs</text>		</g>
		<g id="shape229-220" transform="translate(221.4,-347.482)">
			<title>Rounded Rectangle.229</title>
			<desc>UEs</desc>
			<path d="M3.6 612 L32.4 612 A3.59994 3.59994 -180 0 0 36 608.4 L36 590.4 A3.59994 3.59994 -180 0 0 32.4 586.8 L3.6 586.8        A3.59994 3.59994 -180 0 0 -0 590.4 L0 608.4 A3.59994 3.59994 -180 0 0 3.6 612 Z" class="st8"/>
			<text x="9.39" y="602.4" class="st9">UEs</text>		</g>
		<g id="shape230-223" transform="translate(312.75,-289.125)">
			<title>Rounded Rectangle.230</title>
			<desc>Backhaul Network</desc>
			<path d="M5.85 612 L52.65 612 A5.84991 5.84991 -180 0 0 58.5 606.15 L58.5 595.86 A5.84991 5.84991 -180 0 0 52.65 590.01        L5.85 590.01 A5.84991 5.84991 -180 0 0 -0 595.86 L0 606.15 A5.84991 5.84991 -180 0 0 5.85 612 Z" class="st8"/>
			<text x="10.37" y="598.01" class="st9">Backhaul <tspan x="11.75" dy="1.2em" class="st4">Network</tspan></text>		</g>
		<g id="shape234-227" transform="translate(265.5,-259.148)">
			<title>Rounded Rectangle.234</title>
			<desc>Radio Access Network</desc>
			<path d="M5.79 612 L98.84 612 A5.78955 5.78955 -180 0 0 104.63 606.21 A5.78955 5.78955 -180 0 0 98.84 600.42 L5.79 600.42        A5.78955 5.78955 -180 0 0 -0 606.21 A5.78955 5.78955 -180 0 0 5.79 612 Z" class="st8"/>
			<text x="4.27" y="609.21" class="st3">Radio Access Network</text>		</g>
		<g id="shape238-230" transform="translate(511.2,-306)">
			<title>Rounded Rectangle.7</title>
			<desc>Backbone (Internet)</desc>
			<path d="M7.2 612 L64.8 612 A7.19988 7.19988 -180 0 0 72 604.8 L72 583.2 A7.19988 7.19988 -180 0 0 64.8 576 L7.2 576        A7.19988 7.19988 -180 0 0 -0 583.2 L0 604.8 A7.19988 7.19988 -180 0 0 7.2 612 Z" class="st14"/>
			<text x="14.88" y="590.95" class="st15">Backbone <tspan x="15.18" dy="1.207em" class="st4">(Internet)</tspan></text>		</g>
		<g id="shape240-236" transform="translate(477,-324) rotate(6.81127E-06)">
			<title>Sheet.240</title>
			<g id="shadow240-237" transform="matrix(1,0,0,1,2.12132,2.12132)" class="st5">
				<path d="M0 612 L34.2 612" class="st6"/>
			</g>
			<path d="M0 612 L34.2 612" class="st7"/>
		</g>
	</g>
</svg>