<?xml version="1.0" encoding="utf-8" standalone="no"?>
<!DOCTYPE svg PUBLIC "-//W3C//DTD SVG 1.1//EN"
  "http://www.w3.org/Graphics/SVG/1.1/DTD/svg11.dtd">
<svg xmlns:xlink="http://www.w3.org/1999/xlink" width="429.15125pt" height="316.559844pt" viewBox="0 0 429.15125 316.559844" xmlns="http://www.w3.org/2000/svg" version="1.1">
 <metadata>
  <rdf:RDF xmlns:dc="http://purl.org/dc/elements/1.1/" xmlns:cc="http://creativecommons.org/ns#" xmlns:rdf="http://www.w3.org/1999/02/22-rdf-syntax-ns#">
   <cc:Work>
    <dc:type rdf:resource="http://purl.org/dc/dcmitype/StillImage"/>
    <dc:date>2024-11-26T12:27:02.089281</dc:date>
    <dc:format>image/svg+xml</dc:format>
    <dc:creator>
     <cc:Agent>
      <dc:title>Matplotlib v3.8.3, https://matplotlib.org/</dc:title>
     </cc:Agent>
    </dc:creator>
   </cc:Work>
  </rdf:RDF>
 </metadata>
 <defs>
  <style type="text/css">*{stroke-linejoin: round; stroke-linecap: butt}</style>
 </defs>
 <g id="figure_1">
  <g id="patch_1">
   <path d="M 0 316.559844 
L 429.15125 316.559844 
L 429.15125 0 
L 0 0 
z
" style="fill: #ffffff"/>
  </g>
  <g id="axes_1">
   <g id="patch_2">
    <path d="M 75.69875 263.518594 
L 410.49875 263.518594 
L 410.49875 14.038594 
L 75.69875 14.038594 
z
" style="fill: #ffffff"/>
   </g>
   <g id="patch_3">
    <path d="M 167.490545 263.518594 
L 169.57147 263.518594 
L 169.57147 262.270944 
L 167.490545 262.270944 
z
" clip-path="url(#p1dc00c7e79)" style="fill: #00a4ef; fill-opacity: 0.5"/>
   </g>
   <g id="patch_4">
    <path d="M 169.802684 263.518594 
L 171.88361 263.518594 
L 171.88361 255.616813 
L 169.802684 255.616813 
z
" clip-path="url(#p1dc00c7e79)" style="fill: #00a4ef; fill-opacity: 0.5"/>
   </g>
   <g id="patch_5">
    <path d="M 172.114824 263.518594 
L 174.19575 263.518594 
L 174.19575 246.467384 
L 172.114824 246.467384 
z
" clip-path="url(#p1dc00c7e79)" style="fill: #00a4ef; fill-opacity: 0.5"/>
   </g>
   <g id="patch_6">
    <path d="M 174.426964 263.518594 
L 176.507889 263.518594 
L 176.507889 237.733837 
L 174.426964 237.733837 
z
" clip-path="url(#p1dc00c7e79)" style="fill: #00a4ef; fill-opacity: 0.5"/>
   </g>
   <g id="patch_7">
    <path d="M 176.739103 263.518594 
L 178.820029 263.518594 
L 178.820029 203.631416 
L 176.739103 203.631416 
z
" clip-path="url(#p1dc00c7e79)" style="fill: #00a4ef; fill-opacity: 0.5"/>
   </g>
   <g id="patch_8">
    <path d="M 179.051243 263.518594 
L 181.132169 263.518594 
L 181.132169 183.253141 
L 179.051243 183.253141 
z
" clip-path="url(#p1dc00c7e79)" style="fill: #00a4ef; fill-opacity: 0.5"/>
   </g>
   <g id="patch_9">
    <path d="M 181.363383 263.518594 
L 183.444308 263.518594 
L 183.444308 154.557201 
L 181.363383 154.557201 
z
" clip-path="url(#p1dc00c7e79)" style="fill: #00a4ef; fill-opacity: 0.5"/>
   </g>
   <g id="patch_10">
    <path d="M 183.675522 263.518594 
L 185.756448 263.518594 
L 185.756448 115.880066 
L 183.675522 115.880066 
z
" clip-path="url(#p1dc00c7e79)" style="fill: #00a4ef; fill-opacity: 0.5"/>
   </g>
   <g id="patch_11">
    <path d="M 185.987662 263.518594 
L 188.068588 263.518594 
L 188.068588 107.562403 
L 185.987662 107.562403 
z
" clip-path="url(#p1dc00c7e79)" style="fill: #00a4ef; fill-opacity: 0.5"/>
   </g>
   <g id="patch_12">
    <path d="M 188.299802 263.518594 
L 190.380728 263.518594 
L 190.380728 83.441178 
L 188.299802 83.441178 
z
" clip-path="url(#p1dc00c7e79)" style="fill: #00a4ef; fill-opacity: 0.5"/>
   </g>
   <g id="patch_13">
    <path d="M 190.611942 263.518594 
L 192.692867 263.518594 
L 192.692867 99.660622 
L 190.611942 99.660622 
z
" clip-path="url(#p1dc00c7e79)" style="fill: #00a4ef; fill-opacity: 0.5"/>
   </g>
   <g id="patch_14">
    <path d="M 192.924081 263.518594 
L 195.005007 263.518594 
L 195.005007 79.282347 
L 192.924081 79.282347 
z
" clip-path="url(#p1dc00c7e79)" style="fill: #00a4ef; fill-opacity: 0.5"/>
   </g>
   <g id="patch_15">
    <path d="M 195.236221 263.518594 
L 197.317147 263.518594 
L 197.317147 113.80065 
L 195.236221 113.80065 
z
" clip-path="url(#p1dc00c7e79)" style="fill: #00a4ef; fill-opacity: 0.5"/>
   </g>
   <g id="patch_16">
    <path d="M 197.548361 263.518594 
L 199.629286 263.518594 
L 199.629286 127.524795 
L 197.548361 127.524795 
z
" clip-path="url(#p1dc00c7e79)" style="fill: #00a4ef; fill-opacity: 0.5"/>
   </g>
   <g id="patch_17">
    <path d="M 199.8605 263.518594 
L 201.941426 263.518594 
L 201.941426 145.823655 
L 199.8605 145.823655 
z
" clip-path="url(#p1dc00c7e79)" style="fill: #00a4ef; fill-opacity: 0.5"/>
   </g>
   <g id="patch_18">
    <path d="M 202.17264 263.518594 
L 204.253566 263.518594 
L 204.253566 166.20193 
L 202.17264 166.20193 
z
" clip-path="url(#p1dc00c7e79)" style="fill: #00a4ef; fill-opacity: 0.5"/>
   </g>
   <g id="patch_19">
    <path d="M 204.48478 263.518594 
L 206.565705 263.518594 
L 206.565705 176.183127 
L 204.48478 176.183127 
z
" clip-path="url(#p1dc00c7e79)" style="fill: #00a4ef; fill-opacity: 0.5"/>
   </g>
   <g id="patch_20">
    <path d="M 206.796919 263.518594 
L 208.877845 263.518594 
L 208.877845 183.253141 
L 206.796919 183.253141 
z
" clip-path="url(#p1dc00c7e79)" style="fill: #00a4ef; fill-opacity: 0.5"/>
   </g>
   <g id="patch_21">
    <path d="M 209.109059 263.518594 
L 211.189985 263.518594 
L 211.189985 202.383767 
L 209.109059 202.383767 
z
" clip-path="url(#p1dc00c7e79)" style="fill: #00a4ef; fill-opacity: 0.5"/>
   </g>
   <g id="patch_22">
    <path d="M 211.421199 263.518594 
L 213.502125 263.518594 
L 213.502125 201.552 
L 211.421199 201.552 
z
" clip-path="url(#p1dc00c7e79)" style="fill: #00a4ef; fill-opacity: 0.5"/>
   </g>
   <g id="patch_23">
    <path d="M 213.733339 263.518594 
L 215.814264 263.518594 
L 215.814264 219.434977 
L 213.733339 219.434977 
z
" clip-path="url(#p1dc00c7e79)" style="fill: #00a4ef; fill-opacity: 0.5"/>
   </g>
   <g id="patch_24">
    <path d="M 216.045478 263.518594 
L 218.126404 263.518594 
L 218.126404 226.504991 
L 216.045478 226.504991 
z
" clip-path="url(#p1dc00c7e79)" style="fill: #00a4ef; fill-opacity: 0.5"/>
   </g>
   <g id="patch_25">
    <path d="M 218.357618 263.518594 
L 220.438544 263.518594 
L 220.438544 235.238538 
L 218.357618 235.238538 
z
" clip-path="url(#p1dc00c7e79)" style="fill: #00a4ef; fill-opacity: 0.5"/>
   </g>
   <g id="patch_26">
    <path d="M 220.669758 263.518594 
L 222.750683 263.518594 
L 222.750683 243.556201 
L 220.669758 243.556201 
z
" clip-path="url(#p1dc00c7e79)" style="fill: #00a4ef; fill-opacity: 0.5"/>
   </g>
   <g id="patch_27">
    <path d="M 222.981897 263.518594 
L 225.062823 263.518594 
L 225.062823 254.785047 
L 222.981897 254.785047 
z
" clip-path="url(#p1dc00c7e79)" style="fill: #00a4ef; fill-opacity: 0.5"/>
   </g>
   <g id="patch_28">
    <path d="M 225.294037 263.518594 
L 227.374963 263.518594 
L 227.374963 259.775645 
L 225.294037 259.775645 
z
" clip-path="url(#p1dc00c7e79)" style="fill: #00a4ef; fill-opacity: 0.5"/>
   </g>
   <g id="patch_29">
    <path d="M 227.606177 263.518594 
L 229.687102 263.518594 
L 229.687102 263.102711 
L 227.606177 263.102711 
z
" clip-path="url(#p1dc00c7e79)" style="fill: #00a4ef; fill-opacity: 0.5"/>
   </g>
   <g id="patch_30">
    <path d="M 229.918316 263.518594 
L 231.999242 263.518594 
L 231.999242 263.518594 
L 229.918316 263.518594 
z
" clip-path="url(#p1dc00c7e79)" style="fill: #00a4ef; fill-opacity: 0.5"/>
   </g>
   <g id="patch_31">
    <path d="M 232.230456 263.518594 
L 234.311382 263.518594 
L 234.311382 263.518594 
L 232.230456 263.518594 
z
" clip-path="url(#p1dc00c7e79)" style="fill: #00a4ef; fill-opacity: 0.5"/>
   </g>
   <g id="patch_32">
    <path d="M 234.542596 263.518594 
L 236.623522 263.518594 
L 236.623522 263.102711 
L 234.542596 263.102711 
z
" clip-path="url(#p1dc00c7e79)" style="fill: #00a4ef; fill-opacity: 0.5"/>
   </g>
   <g id="patch_33">
    <path d="M 236.854736 263.518594 
L 238.935661 263.518594 
L 238.935661 263.518594 
L 236.854736 263.518594 
z
" clip-path="url(#p1dc00c7e79)" style="fill: #00a4ef; fill-opacity: 0.5"/>
   </g>
   <g id="patch_34">
    <path d="M 239.166875 263.518594 
L 241.247801 263.518594 
L 241.247801 263.518594 
L 239.166875 263.518594 
z
" clip-path="url(#p1dc00c7e79)" style="fill: #00a4ef; fill-opacity: 0.5"/>
   </g>
   <g id="patch_35">
    <path d="M 241.479015 263.518594 
L 243.559941 263.518594 
L 243.559941 263.518594 
L 241.479015 263.518594 
z
" clip-path="url(#p1dc00c7e79)" style="fill: #00a4ef; fill-opacity: 0.5"/>
   </g>
   <g id="patch_36">
    <path d="M 243.791155 263.518594 
L 245.87208 263.518594 
L 245.87208 263.518594 
L 243.791155 263.518594 
z
" clip-path="url(#p1dc00c7e79)" style="fill: #00a4ef; fill-opacity: 0.5"/>
   </g>
   <g id="patch_37">
    <path d="M 246.103294 263.518594 
L 248.18422 263.518594 
L 248.18422 263.518594 
L 246.103294 263.518594 
z
" clip-path="url(#p1dc00c7e79)" style="fill: #00a4ef; fill-opacity: 0.5"/>
   </g>
   <g id="patch_38">
    <path d="M 248.415434 263.518594 
L 250.49636 263.518594 
L 250.49636 263.102711 
L 248.415434 263.102711 
z
" clip-path="url(#p1dc00c7e79)" style="fill: #00a4ef; fill-opacity: 0.5"/>
   </g>
   <g id="patch_39">
    <path d="M 250.727574 263.518594 
L 252.808499 263.518594 
L 252.808499 263.518594 
L 250.727574 263.518594 
z
" clip-path="url(#p1dc00c7e79)" style="fill: #00a4ef; fill-opacity: 0.5"/>
   </g>
   <g id="patch_40">
    <path d="M 253.039713 263.518594 
L 255.120639 263.518594 
L 255.120639 262.270944 
L 253.039713 262.270944 
z
" clip-path="url(#p1dc00c7e79)" style="fill: #00a4ef; fill-opacity: 0.5"/>
   </g>
   <g id="patch_41">
    <path d="M 255.351853 263.518594 
L 257.432779 263.518594 
L 257.432779 263.518594 
L 255.351853 263.518594 
z
" clip-path="url(#p1dc00c7e79)" style="fill: #00a4ef; fill-opacity: 0.5"/>
   </g>
   <g id="patch_42">
    <path d="M 257.663993 263.518594 
L 259.744919 263.518594 
L 259.744919 263.102711 
L 257.663993 263.102711 
z
" clip-path="url(#p1dc00c7e79)" style="fill: #00a4ef; fill-opacity: 0.5"/>
   </g>
   <g id="patch_43">
    <path d="M 259.976133 263.518594 
L 262.057058 263.518594 
L 262.057058 263.518594 
L 259.976133 263.518594 
z
" clip-path="url(#p1dc00c7e79)" style="fill: #00a4ef; fill-opacity: 0.5"/>
   </g>
   <g id="patch_44">
    <path d="M 262.288272 263.518594 
L 264.369198 263.518594 
L 264.369198 263.518594 
L 262.288272 263.518594 
z
" clip-path="url(#p1dc00c7e79)" style="fill: #00a4ef; fill-opacity: 0.5"/>
   </g>
   <g id="patch_45">
    <path d="M 264.600412 263.518594 
L 266.681338 263.518594 
L 266.681338 263.518594 
L 264.600412 263.518594 
z
" clip-path="url(#p1dc00c7e79)" style="fill: #00a4ef; fill-opacity: 0.5"/>
   </g>
   <g id="patch_46">
    <path d="M 266.912552 263.518594 
L 268.993477 263.518594 
L 268.993477 263.102711 
L 266.912552 263.102711 
z
" clip-path="url(#p1dc00c7e79)" style="fill: #00a4ef; fill-opacity: 0.5"/>
   </g>
   <g id="patch_47">
    <path d="M 269.224691 263.518594 
L 271.305617 263.518594 
L 271.305617 262.686827 
L 269.224691 262.686827 
z
" clip-path="url(#p1dc00c7e79)" style="fill: #00a4ef; fill-opacity: 0.5"/>
   </g>
   <g id="patch_48">
    <path d="M 271.536831 263.518594 
L 273.617757 263.518594 
L 273.617757 263.518594 
L 271.536831 263.518594 
z
" clip-path="url(#p1dc00c7e79)" style="fill: #00a4ef; fill-opacity: 0.5"/>
   </g>
   <g id="patch_49">
    <path d="M 273.848971 263.518594 
L 275.929897 263.518594 
L 275.929897 263.518594 
L 273.848971 263.518594 
z
" clip-path="url(#p1dc00c7e79)" style="fill: #00a4ef; fill-opacity: 0.5"/>
   </g>
   <g id="patch_50">
    <path d="M 276.16111 263.518594 
L 278.242036 263.518594 
L 278.242036 263.518594 
L 276.16111 263.518594 
z
" clip-path="url(#p1dc00c7e79)" style="fill: #00a4ef; fill-opacity: 0.5"/>
   </g>
   <g id="patch_51">
    <path d="M 278.47325 263.518594 
L 280.554176 263.518594 
L 280.554176 263.518594 
L 278.47325 263.518594 
z
" clip-path="url(#p1dc00c7e79)" style="fill: #00a4ef; fill-opacity: 0.5"/>
   </g>
   <g id="patch_52">
    <path d="M 280.78539 263.518594 
L 282.866316 263.518594 
L 282.866316 263.518594 
L 280.78539 263.518594 
z
" clip-path="url(#p1dc00c7e79)" style="fill: #00a4ef; fill-opacity: 0.5"/>
   </g>
   <g id="patch_53">
    <path d="M 283.09753 263.518594 
L 285.178455 263.518594 
L 285.178455 263.518594 
L 283.09753 263.518594 
z
" clip-path="url(#p1dc00c7e79)" style="fill: #00a4ef; fill-opacity: 0.5"/>
   </g>
   <g id="patch_54">
    <path d="M 285.409669 263.518594 
L 287.490595 263.518594 
L 287.490595 263.518594 
L 285.409669 263.518594 
z
" clip-path="url(#p1dc00c7e79)" style="fill: #00a4ef; fill-opacity: 0.5"/>
   </g>
   <g id="patch_55">
    <path d="M 287.721809 263.518594 
L 289.802735 263.518594 
L 289.802735 263.102711 
L 287.721809 263.102711 
z
" clip-path="url(#p1dc00c7e79)" style="fill: #00a4ef; fill-opacity: 0.5"/>
   </g>
   <g id="patch_56">
    <path d="M 290.033949 263.518594 
L 292.114874 263.518594 
L 292.114874 263.518594 
L 290.033949 263.518594 
z
" clip-path="url(#p1dc00c7e79)" style="fill: #00a4ef; fill-opacity: 0.5"/>
   </g>
   <g id="patch_57">
    <path d="M 292.346088 263.518594 
L 294.427014 263.518594 
L 294.427014 263.102711 
L 292.346088 263.102711 
z
" clip-path="url(#p1dc00c7e79)" style="fill: #00a4ef; fill-opacity: 0.5"/>
   </g>
   <g id="patch_58">
    <path d="M 294.658228 263.518594 
L 296.739154 263.518594 
L 296.739154 263.518594 
L 294.658228 263.518594 
z
" clip-path="url(#p1dc00c7e79)" style="fill: #00a4ef; fill-opacity: 0.5"/>
   </g>
   <g id="patch_59">
    <path d="M 296.970368 263.518594 
L 299.051294 263.518594 
L 299.051294 263.518594 
L 296.970368 263.518594 
z
" clip-path="url(#p1dc00c7e79)" style="fill: #00a4ef; fill-opacity: 0.5"/>
   </g>
   <g id="patch_60">
    <path d="M 299.282508 263.518594 
L 301.363433 263.518594 
L 301.363433 263.102711 
L 299.282508 263.102711 
z
" clip-path="url(#p1dc00c7e79)" style="fill: #00a4ef; fill-opacity: 0.5"/>
   </g>
   <g id="patch_61">
    <path d="M 301.594647 263.518594 
L 303.675573 263.518594 
L 303.675573 263.518594 
L 301.594647 263.518594 
z
" clip-path="url(#p1dc00c7e79)" style="fill: #00a4ef; fill-opacity: 0.5"/>
   </g>
   <g id="patch_62">
    <path d="M 303.906787 263.518594 
L 305.987713 263.518594 
L 305.987713 263.518594 
L 303.906787 263.518594 
z
" clip-path="url(#p1dc00c7e79)" style="fill: #00a4ef; fill-opacity: 0.5"/>
   </g>
   <g id="patch_63">
    <path d="M 306.218927 263.518594 
L 308.299852 263.518594 
L 308.299852 263.518594 
L 306.218927 263.518594 
z
" clip-path="url(#p1dc00c7e79)" style="fill: #00a4ef; fill-opacity: 0.5"/>
   </g>
   <g id="patch_64">
    <path d="M 308.531066 263.518594 
L 310.611992 263.518594 
L 310.611992 263.102711 
L 308.531066 263.102711 
z
" clip-path="url(#p1dc00c7e79)" style="fill: #00a4ef; fill-opacity: 0.5"/>
   </g>
   <g id="patch_65">
    <path d="M 310.843206 263.518594 
L 312.924132 263.518594 
L 312.924132 263.518594 
L 310.843206 263.518594 
z
" clip-path="url(#p1dc00c7e79)" style="fill: #00a4ef; fill-opacity: 0.5"/>
   </g>
   <g id="patch_66">
    <path d="M 313.155346 263.518594 
L 315.236271 263.518594 
L 315.236271 263.518594 
L 313.155346 263.518594 
z
" clip-path="url(#p1dc00c7e79)" style="fill: #00a4ef; fill-opacity: 0.5"/>
   </g>
   <g id="patch_67">
    <path d="M 315.467485 263.518594 
L 317.548411 263.518594 
L 317.548411 263.102711 
L 315.467485 263.102711 
z
" clip-path="url(#p1dc00c7e79)" style="fill: #00a4ef; fill-opacity: 0.5"/>
   </g>
   <g id="patch_68">
    <path d="M 317.779625 263.518594 
L 319.860551 263.518594 
L 319.860551 263.102711 
L 317.779625 263.102711 
z
" clip-path="url(#p1dc00c7e79)" style="fill: #00a4ef; fill-opacity: 0.5"/>
   </g>
   <g id="patch_69">
    <path d="M 320.091765 263.518594 
L 322.172691 263.518594 
L 322.172691 263.102711 
L 320.091765 263.102711 
z
" clip-path="url(#p1dc00c7e79)" style="fill: #00a4ef; fill-opacity: 0.5"/>
   </g>
   <g id="patch_70">
    <path d="M 322.403905 263.518594 
L 324.48483 263.518594 
L 324.48483 263.518594 
L 322.403905 263.518594 
z
" clip-path="url(#p1dc00c7e79)" style="fill: #00a4ef; fill-opacity: 0.5"/>
   </g>
   <g id="patch_71">
    <path d="M 324.716044 263.518594 
L 326.79697 263.518594 
L 326.79697 263.102711 
L 324.716044 263.102711 
z
" clip-path="url(#p1dc00c7e79)" style="fill: #00a4ef; fill-opacity: 0.5"/>
   </g>
   <g id="patch_72">
    <path d="M 327.028184 263.518594 
L 329.10911 263.518594 
L 329.10911 263.518594 
L 327.028184 263.518594 
z
" clip-path="url(#p1dc00c7e79)" style="fill: #00a4ef; fill-opacity: 0.5"/>
   </g>
   <g id="patch_73">
    <path d="M 329.340324 263.518594 
L 331.421249 263.518594 
L 331.421249 263.518594 
L 329.340324 263.518594 
z
" clip-path="url(#p1dc00c7e79)" style="fill: #00a4ef; fill-opacity: 0.5"/>
   </g>
   <g id="patch_74">
    <path d="M 331.652463 263.518594 
L 333.733389 263.518594 
L 333.733389 263.518594 
L 331.652463 263.518594 
z
" clip-path="url(#p1dc00c7e79)" style="fill: #00a4ef; fill-opacity: 0.5"/>
   </g>
   <g id="patch_75">
    <path d="M 333.964603 263.518594 
L 336.045529 263.518594 
L 336.045529 263.102711 
L 333.964603 263.102711 
z
" clip-path="url(#p1dc00c7e79)" style="fill: #00a4ef; fill-opacity: 0.5"/>
   </g>
   <g id="patch_76">
    <path d="M 336.276743 263.518594 
L 338.357668 263.518594 
L 338.357668 263.102711 
L 336.276743 263.102711 
z
" clip-path="url(#p1dc00c7e79)" style="fill: #00a4ef; fill-opacity: 0.5"/>
   </g>
   <g id="patch_77">
    <path d="M 338.588882 263.518594 
L 340.669808 263.518594 
L 340.669808 263.518594 
L 338.588882 263.518594 
z
" clip-path="url(#p1dc00c7e79)" style="fill: #00a4ef; fill-opacity: 0.5"/>
   </g>
   <g id="patch_78">
    <path d="M 340.901022 263.518594 
L 342.981948 263.518594 
L 342.981948 263.518594 
L 340.901022 263.518594 
z
" clip-path="url(#p1dc00c7e79)" style="fill: #00a4ef; fill-opacity: 0.5"/>
   </g>
   <g id="patch_79">
    <path d="M 343.213162 263.518594 
L 345.294088 263.518594 
L 345.294088 263.518594 
L 343.213162 263.518594 
z
" clip-path="url(#p1dc00c7e79)" style="fill: #00a4ef; fill-opacity: 0.5"/>
   </g>
   <g id="patch_80">
    <path d="M 345.525302 263.518594 
L 347.606227 263.518594 
L 347.606227 263.518594 
L 345.525302 263.518594 
z
" clip-path="url(#p1dc00c7e79)" style="fill: #00a4ef; fill-opacity: 0.5"/>
   </g>
   <g id="patch_81">
    <path d="M 347.837441 263.518594 
L 349.918367 263.518594 
L 349.918367 263.518594 
L 347.837441 263.518594 
z
" clip-path="url(#p1dc00c7e79)" style="fill: #00a4ef; fill-opacity: 0.5"/>
   </g>
   <g id="patch_82">
    <path d="M 350.149581 263.518594 
L 352.230507 263.518594 
L 352.230507 263.102711 
L 350.149581 263.102711 
z
" clip-path="url(#p1dc00c7e79)" style="fill: #00a4ef; fill-opacity: 0.5"/>
   </g>
   <g id="patch_83">
    <path d="M 352.461721 263.518594 
L 354.542646 263.518594 
L 354.542646 262.686827 
L 352.461721 262.686827 
z
" clip-path="url(#p1dc00c7e79)" style="fill: #00a4ef; fill-opacity: 0.5"/>
   </g>
   <g id="patch_84">
    <path d="M 354.77386 263.518594 
L 356.854786 263.518594 
L 356.854786 263.518594 
L 354.77386 263.518594 
z
" clip-path="url(#p1dc00c7e79)" style="fill: #00a4ef; fill-opacity: 0.5"/>
   </g>
   <g id="patch_85">
    <path d="M 357.086 263.518594 
L 359.166926 263.518594 
L 359.166926 263.518594 
L 357.086 263.518594 
z
" clip-path="url(#p1dc00c7e79)" style="fill: #00a4ef; fill-opacity: 0.5"/>
   </g>
   <g id="patch_86">
    <path d="M 359.39814 263.518594 
L 361.479065 263.518594 
L 361.479065 263.518594 
L 359.39814 263.518594 
z
" clip-path="url(#p1dc00c7e79)" style="fill: #00a4ef; fill-opacity: 0.5"/>
   </g>
   <g id="patch_87">
    <path d="M 361.710279 263.518594 
L 363.791205 263.518594 
L 363.791205 263.518594 
L 361.710279 263.518594 
z
" clip-path="url(#p1dc00c7e79)" style="fill: #00a4ef; fill-opacity: 0.5"/>
   </g>
   <g id="patch_88">
    <path d="M 364.022419 263.518594 
L 366.103345 263.518594 
L 366.103345 263.518594 
L 364.022419 263.518594 
z
" clip-path="url(#p1dc00c7e79)" style="fill: #00a4ef; fill-opacity: 0.5"/>
   </g>
   <g id="patch_89">
    <path d="M 366.334559 263.518594 
L 368.415485 263.518594 
L 368.415485 263.518594 
L 366.334559 263.518594 
z
" clip-path="url(#p1dc00c7e79)" style="fill: #00a4ef; fill-opacity: 0.5"/>
   </g>
   <g id="patch_90">
    <path d="M 368.646699 263.518594 
L 370.727624 263.518594 
L 370.727624 263.518594 
L 368.646699 263.518594 
z
" clip-path="url(#p1dc00c7e79)" style="fill: #00a4ef; fill-opacity: 0.5"/>
   </g>
   <g id="patch_91">
    <path d="M 370.958838 263.518594 
L 373.039764 263.518594 
L 373.039764 263.102711 
L 370.958838 263.102711 
z
" clip-path="url(#p1dc00c7e79)" style="fill: #00a4ef; fill-opacity: 0.5"/>
   </g>
   <g id="patch_92">
    <path d="M 373.270978 263.518594 
L 375.351904 263.518594 
L 375.351904 263.102711 
L 373.270978 263.102711 
z
" clip-path="url(#p1dc00c7e79)" style="fill: #00a4ef; fill-opacity: 0.5"/>
   </g>
   <g id="patch_93">
    <path d="M 375.583118 263.518594 
L 377.664043 263.518594 
L 377.664043 263.518594 
L 375.583118 263.518594 
z
" clip-path="url(#p1dc00c7e79)" style="fill: #00a4ef; fill-opacity: 0.5"/>
   </g>
   <g id="patch_94">
    <path d="M 377.895257 263.518594 
L 379.976183 263.518594 
L 379.976183 263.518594 
L 377.895257 263.518594 
z
" clip-path="url(#p1dc00c7e79)" style="fill: #00a4ef; fill-opacity: 0.5"/>
   </g>
   <g id="patch_95">
    <path d="M 380.207397 263.518594 
L 382.288323 263.518594 
L 382.288323 263.102711 
L 380.207397 263.102711 
z
" clip-path="url(#p1dc00c7e79)" style="fill: #00a4ef; fill-opacity: 0.5"/>
   </g>
   <g id="patch_96">
    <path d="M 382.519537 263.518594 
L 384.600463 263.518594 
L 384.600463 263.102711 
L 382.519537 263.102711 
z
" clip-path="url(#p1dc00c7e79)" style="fill: #00a4ef; fill-opacity: 0.5"/>
   </g>
   <g id="patch_97">
    <path d="M 384.831676 263.518594 
L 386.912602 263.518594 
L 386.912602 263.102711 
L 384.831676 263.102711 
z
" clip-path="url(#p1dc00c7e79)" style="fill: #00a4ef; fill-opacity: 0.5"/>
   </g>
   <g id="patch_98">
    <path d="M 387.143816 263.518594 
L 389.224742 263.518594 
L 389.224742 263.518594 
L 387.143816 263.518594 
z
" clip-path="url(#p1dc00c7e79)" style="fill: #00a4ef; fill-opacity: 0.5"/>
   </g>
   <g id="patch_99">
    <path d="M 389.455956 263.518594 
L 391.536882 263.518594 
L 391.536882 263.518594 
L 389.455956 263.518594 
z
" clip-path="url(#p1dc00c7e79)" style="fill: #00a4ef; fill-opacity: 0.5"/>
   </g>
   <g id="patch_100">
    <path d="M 391.768096 263.518594 
L 393.849021 263.518594 
L 393.849021 263.102711 
L 391.768096 263.102711 
z
" clip-path="url(#p1dc00c7e79)" style="fill: #00a4ef; fill-opacity: 0.5"/>
   </g>
   <g id="patch_101">
    <path d="M 394.080235 263.518594 
L 396.161161 263.518594 
L 396.161161 263.518594 
L 394.080235 263.518594 
z
" clip-path="url(#p1dc00c7e79)" style="fill: #00a4ef; fill-opacity: 0.5"/>
   </g>
   <g id="patch_102">
    <path d="M 396.392375 263.518594 
L 398.473301 263.518594 
L 398.473301 262.686827 
L 396.392375 262.686827 
z
" clip-path="url(#p1dc00c7e79)" style="fill: #00a4ef; fill-opacity: 0.5"/>
   </g>
   <g id="patch_103">
    <path d="M 156.277565 263.518594 
L 158.396063 263.518594 
L 158.396063 263.102044 
L 156.277565 263.102044 
z
" clip-path="url(#p1dc00c7e79)" style="fill: #f25022; fill-opacity: 0.5"/>
   </g>
   <g id="patch_104">
    <path d="M 158.631452 263.518594 
L 160.74995 263.518594 
L 160.74995 263.518594 
L 158.631452 263.518594 
z
" clip-path="url(#p1dc00c7e79)" style="fill: #f25022; fill-opacity: 0.5"/>
   </g>
   <g id="patch_105">
    <path d="M 160.985339 263.518594 
L 163.103837 263.518594 
L 163.103837 263.518594 
L 160.985339 263.518594 
z
" clip-path="url(#p1dc00c7e79)" style="fill: #f25022; fill-opacity: 0.5"/>
   </g>
   <g id="patch_106">
    <path d="M 163.339226 263.518594 
L 165.457724 263.518594 
L 165.457724 263.518594 
L 163.339226 263.518594 
z
" clip-path="url(#p1dc00c7e79)" style="fill: #f25022; fill-opacity: 0.5"/>
   </g>
   <g id="patch_107">
    <path d="M 165.693113 263.518594 
L 167.811611 263.518594 
L 167.811611 263.518594 
L 165.693113 263.518594 
z
" clip-path="url(#p1dc00c7e79)" style="fill: #f25022; fill-opacity: 0.5"/>
   </g>
   <g id="patch_108">
    <path d="M 168.046999 263.518594 
L 170.165498 263.518594 
L 170.165498 263.518594 
L 168.046999 263.518594 
z
" clip-path="url(#p1dc00c7e79)" style="fill: #f25022; fill-opacity: 0.5"/>
   </g>
   <g id="patch_109">
    <path d="M 170.400886 263.518594 
L 172.519384 263.518594 
L 172.519384 263.518594 
L 170.400886 263.518594 
z
" clip-path="url(#p1dc00c7e79)" style="fill: #f25022; fill-opacity: 0.5"/>
   </g>
   <g id="patch_110">
    <path d="M 172.754773 263.518594 
L 174.873271 263.518594 
L 174.873271 263.518594 
L 172.754773 263.518594 
z
" clip-path="url(#p1dc00c7e79)" style="fill: #f25022; fill-opacity: 0.5"/>
   </g>
   <g id="patch_111">
    <path d="M 175.10866 263.518594 
L 177.227158 263.518594 
L 177.227158 263.102044 
L 175.10866 263.102044 
z
" clip-path="url(#p1dc00c7e79)" style="fill: #f25022; fill-opacity: 0.5"/>
   </g>
   <g id="patch_112">
    <path d="M 177.462547 263.518594 
L 179.581045 263.518594 
L 179.581045 263.518594 
L 177.462547 263.518594 
z
" clip-path="url(#p1dc00c7e79)" style="fill: #f25022; fill-opacity: 0.5"/>
   </g>
   <g id="patch_113">
    <path d="M 179.816434 263.518594 
L 181.934932 263.518594 
L 181.934932 263.518594 
L 179.816434 263.518594 
z
" clip-path="url(#p1dc00c7e79)" style="fill: #f25022; fill-opacity: 0.5"/>
   </g>
   <g id="patch_114">
    <path d="M 182.170321 263.518594 
L 184.288819 263.518594 
L 184.288819 263.518594 
L 182.170321 263.518594 
z
" clip-path="url(#p1dc00c7e79)" style="fill: #f25022; fill-opacity: 0.5"/>
   </g>
   <g id="patch_115">
    <path d="M 184.524208 263.518594 
L 186.642706 263.518594 
L 186.642706 263.518594 
L 184.524208 263.518594 
z
" clip-path="url(#p1dc00c7e79)" style="fill: #f25022; fill-opacity: 0.5"/>
   </g>
   <g id="patch_116">
    <path d="M 186.878095 263.518594 
L 188.996593 263.518594 
L 188.996593 263.518594 
L 186.878095 263.518594 
z
" clip-path="url(#p1dc00c7e79)" style="fill: #f25022; fill-opacity: 0.5"/>
   </g>
   <g id="patch_117">
    <path d="M 189.231981 263.518594 
L 191.35048 263.518594 
L 191.35048 263.518594 
L 189.231981 263.518594 
z
" clip-path="url(#p1dc00c7e79)" style="fill: #f25022; fill-opacity: 0.5"/>
   </g>
   <g id="patch_118">
    <path d="M 191.585868 263.518594 
L 193.704367 263.518594 
L 193.704367 263.102044 
L 191.585868 263.102044 
z
" clip-path="url(#p1dc00c7e79)" style="fill: #f25022; fill-opacity: 0.5"/>
   </g>
   <g id="patch_119">
    <path d="M 193.939755 263.518594 
L 196.058253 263.518594 
L 196.058253 263.518594 
L 193.939755 263.518594 
z
" clip-path="url(#p1dc00c7e79)" style="fill: #f25022; fill-opacity: 0.5"/>
   </g>
   <g id="patch_120">
    <path d="M 196.293642 263.518594 
L 198.41214 263.518594 
L 198.41214 263.518594 
L 196.293642 263.518594 
z
" clip-path="url(#p1dc00c7e79)" style="fill: #f25022; fill-opacity: 0.5"/>
   </g>
   <g id="patch_121">
    <path d="M 198.647529 263.518594 
L 200.766027 263.518594 
L 200.766027 263.518594 
L 198.647529 263.518594 
z
" clip-path="url(#p1dc00c7e79)" style="fill: #f25022; fill-opacity: 0.5"/>
   </g>
   <g id="patch_122">
    <path d="M 201.001416 263.518594 
L 203.119914 263.518594 
L 203.119914 263.518594 
L 201.001416 263.518594 
z
" clip-path="url(#p1dc00c7e79)" style="fill: #f25022; fill-opacity: 0.5"/>
   </g>
   <g id="patch_123">
    <path d="M 203.355303 263.518594 
L 205.473801 263.518594 
L 205.473801 263.518594 
L 203.355303 263.518594 
z
" clip-path="url(#p1dc00c7e79)" style="fill: #f25022; fill-opacity: 0.5"/>
   </g>
   <g id="patch_124">
    <path d="M 205.70919 263.518594 
L 207.827688 263.518594 
L 207.827688 263.518594 
L 205.70919 263.518594 
z
" clip-path="url(#p1dc00c7e79)" style="fill: #f25022; fill-opacity: 0.5"/>
   </g>
   <g id="patch_125">
    <path d="M 208.063077 263.518594 
L 210.181575 263.518594 
L 210.181575 263.102044 
L 208.063077 263.102044 
z
" clip-path="url(#p1dc00c7e79)" style="fill: #f25022; fill-opacity: 0.5"/>
   </g>
   <g id="patch_126">
    <path d="M 210.416963 263.518594 
L 212.535462 263.518594 
L 212.535462 263.518594 
L 210.416963 263.518594 
z
" clip-path="url(#p1dc00c7e79)" style="fill: #f25022; fill-opacity: 0.5"/>
   </g>
   <g id="patch_127">
    <path d="M 212.77085 263.518594 
L 214.889349 263.518594 
L 214.889349 263.518594 
L 212.77085 263.518594 
z
" clip-path="url(#p1dc00c7e79)" style="fill: #f25022; fill-opacity: 0.5"/>
   </g>
   <g id="patch_128">
    <path d="M 215.124737 263.518594 
L 217.243235 263.518594 
L 217.243235 263.102044 
L 215.124737 263.102044 
z
" clip-path="url(#p1dc00c7e79)" style="fill: #f25022; fill-opacity: 0.5"/>
   </g>
   <g id="patch_129">
    <path d="M 217.478624 263.518594 
L 219.597122 263.518594 
L 219.597122 263.102044 
L 217.478624 263.102044 
z
" clip-path="url(#p1dc00c7e79)" style="fill: #f25022; fill-opacity: 0.5"/>
   </g>
   <g id="patch_130">
    <path d="M 219.832511 263.518594 
L 221.951009 263.518594 
L 221.951009 263.518594 
L 219.832511 263.518594 
z
" clip-path="url(#p1dc00c7e79)" style="fill: #f25022; fill-opacity: 0.5"/>
   </g>
   <g id="patch_131">
    <path d="M 222.186398 263.518594 
L 224.304896 263.518594 
L 224.304896 263.518594 
L 222.186398 263.518594 
z
" clip-path="url(#p1dc00c7e79)" style="fill: #f25022; fill-opacity: 0.5"/>
   </g>
   <g id="patch_132">
    <path d="M 224.540285 263.518594 
L 226.658783 263.518594 
L 226.658783 263.518594 
L 224.540285 263.518594 
z
" clip-path="url(#p1dc00c7e79)" style="fill: #f25022; fill-opacity: 0.5"/>
   </g>
   <g id="patch_133">
    <path d="M 226.894172 263.518594 
L 229.01267 263.518594 
L 229.01267 263.518594 
L 226.894172 263.518594 
z
" clip-path="url(#p1dc00c7e79)" style="fill: #f25022; fill-opacity: 0.5"/>
   </g>
   <g id="patch_134">
    <path d="M 229.248059 263.518594 
L 231.366557 263.518594 
L 231.366557 263.518594 
L 229.248059 263.518594 
z
" clip-path="url(#p1dc00c7e79)" style="fill: #f25022; fill-opacity: 0.5"/>
   </g>
   <g id="patch_135">
    <path d="M 231.601945 263.518594 
L 233.720444 263.518594 
L 233.720444 263.518594 
L 231.601945 263.518594 
z
" clip-path="url(#p1dc00c7e79)" style="fill: #f25022; fill-opacity: 0.5"/>
   </g>
   <g id="patch_136">
    <path d="M 233.955832 263.518594 
L 236.074331 263.518594 
L 236.074331 263.518594 
L 233.955832 263.518594 
z
" clip-path="url(#p1dc00c7e79)" style="fill: #f25022; fill-opacity: 0.5"/>
   </g>
   <g id="patch_137">
    <path d="M 236.309719 263.518594 
L 238.428217 263.518594 
L 238.428217 263.518594 
L 236.309719 263.518594 
z
" clip-path="url(#p1dc00c7e79)" style="fill: #f25022; fill-opacity: 0.5"/>
   </g>
   <g id="patch_138">
    <path d="M 238.663606 263.518594 
L 240.782104 263.518594 
L 240.782104 263.518594 
L 238.663606 263.518594 
z
" clip-path="url(#p1dc00c7e79)" style="fill: #f25022; fill-opacity: 0.5"/>
   </g>
   <g id="patch_139">
    <path d="M 241.017493 263.518594 
L 243.135991 263.518594 
L 243.135991 263.518594 
L 241.017493 263.518594 
z
" clip-path="url(#p1dc00c7e79)" style="fill: #f25022; fill-opacity: 0.5"/>
   </g>
   <g id="patch_140">
    <path d="M 243.37138 263.518594 
L 245.489878 263.518594 
L 245.489878 263.518594 
L 243.37138 263.518594 
z
" clip-path="url(#p1dc00c7e79)" style="fill: #f25022; fill-opacity: 0.5"/>
   </g>
   <g id="patch_141">
    <path d="M 245.725267 263.518594 
L 247.843765 263.518594 
L 247.843765 263.518594 
L 245.725267 263.518594 
z
" clip-path="url(#p1dc00c7e79)" style="fill: #f25022; fill-opacity: 0.5"/>
   </g>
   <g id="patch_142">
    <path d="M 248.079154 263.518594 
L 250.197652 263.518594 
L 250.197652 263.518594 
L 248.079154 263.518594 
z
" clip-path="url(#p1dc00c7e79)" style="fill: #f25022; fill-opacity: 0.5"/>
   </g>
   <g id="patch_143">
    <path d="M 250.433041 263.518594 
L 252.551539 263.518594 
L 252.551539 263.518594 
L 250.433041 263.518594 
z
" clip-path="url(#p1dc00c7e79)" style="fill: #f25022; fill-opacity: 0.5"/>
   </g>
   <g id="patch_144">
    <path d="M 252.786927 263.518594 
L 254.905426 263.518594 
L 254.905426 263.518594 
L 252.786927 263.518594 
z
" clip-path="url(#p1dc00c7e79)" style="fill: #f25022; fill-opacity: 0.5"/>
   </g>
   <g id="patch_145">
    <path d="M 255.140814 263.518594 
L 257.259313 263.518594 
L 257.259313 263.518594 
L 255.140814 263.518594 
z
" clip-path="url(#p1dc00c7e79)" style="fill: #f25022; fill-opacity: 0.5"/>
   </g>
   <g id="patch_146">
    <path d="M 257.494701 263.518594 
L 259.613199 263.518594 
L 259.613199 263.518594 
L 257.494701 263.518594 
z
" clip-path="url(#p1dc00c7e79)" style="fill: #f25022; fill-opacity: 0.5"/>
   </g>
   <g id="patch_147">
    <path d="M 259.848588 263.518594 
L 261.967086 263.518594 
L 261.967086 263.518594 
L 259.848588 263.518594 
z
" clip-path="url(#p1dc00c7e79)" style="fill: #f25022; fill-opacity: 0.5"/>
   </g>
   <g id="patch_148">
    <path d="M 262.202475 263.518594 
L 264.320973 263.518594 
L 264.320973 263.518594 
L 262.202475 263.518594 
z
" clip-path="url(#p1dc00c7e79)" style="fill: #f25022; fill-opacity: 0.5"/>
   </g>
   <g id="patch_149">
    <path d="M 264.556362 263.518594 
L 266.67486 263.518594 
L 266.67486 263.518594 
L 264.556362 263.518594 
z
" clip-path="url(#p1dc00c7e79)" style="fill: #f25022; fill-opacity: 0.5"/>
   </g>
   <g id="patch_150">
    <path d="M 266.910249 263.518594 
L 269.028747 263.518594 
L 269.028747 263.518594 
L 266.910249 263.518594 
z
" clip-path="url(#p1dc00c7e79)" style="fill: #f25022; fill-opacity: 0.5"/>
   </g>
   <g id="patch_151">
    <path d="M 269.264136 263.518594 
L 271.382634 263.518594 
L 271.382634 263.518594 
L 269.264136 263.518594 
z
" clip-path="url(#p1dc00c7e79)" style="fill: #f25022; fill-opacity: 0.5"/>
   </g>
   <g id="patch_152">
    <path d="M 271.618023 263.518594 
L 273.736521 263.518594 
L 273.736521 263.518594 
L 271.618023 263.518594 
z
" clip-path="url(#p1dc00c7e79)" style="fill: #f25022; fill-opacity: 0.5"/>
   </g>
   <g id="patch_153">
    <path d="M 273.971909 263.518594 
L 276.090408 263.518594 
L 276.090408 263.518594 
L 273.971909 263.518594 
z
" clip-path="url(#p1dc00c7e79)" style="fill: #f25022; fill-opacity: 0.5"/>
   </g>
   <g id="patch_154">
    <path d="M 276.325796 263.518594 
L 278.444295 263.518594 
L 278.444295 263.102044 
L 276.325796 263.102044 
z
" clip-path="url(#p1dc00c7e79)" style="fill: #f25022; fill-opacity: 0.5"/>
   </g>
   <g id="patch_155">
    <path d="M 278.679683 263.518594 
L 280.798181 263.518594 
L 280.798181 263.102044 
L 278.679683 263.102044 
z
" clip-path="url(#p1dc00c7e79)" style="fill: #f25022; fill-opacity: 0.5"/>
   </g>
   <g id="patch_156">
    <path d="M 281.03357 263.518594 
L 283.152068 263.518594 
L 283.152068 263.102044 
L 281.03357 263.102044 
z
" clip-path="url(#p1dc00c7e79)" style="fill: #f25022; fill-opacity: 0.5"/>
   </g>
   <g id="patch_157">
    <path d="M 283.387457 263.518594 
L 285.505955 263.518594 
L 285.505955 261.852395 
L 283.387457 261.852395 
z
" clip-path="url(#p1dc00c7e79)" style="fill: #f25022; fill-opacity: 0.5"/>
   </g>
   <g id="patch_158">
    <path d="M 285.741344 263.518594 
L 287.859842 263.518594 
L 287.859842 251.43865 
L 285.741344 251.43865 
z
" clip-path="url(#p1dc00c7e79)" style="fill: #f25022; fill-opacity: 0.5"/>
   </g>
   <g id="patch_159">
    <path d="M 288.095231 263.518594 
L 290.213729 263.518594 
L 290.213729 243.940754 
L 288.095231 243.940754 
z
" clip-path="url(#p1dc00c7e79)" style="fill: #f25022; fill-opacity: 0.5"/>
   </g>
   <g id="patch_160">
    <path d="M 290.449118 263.518594 
L 292.567616 263.518594 
L 292.567616 209.783671 
L 290.449118 209.783671 
z
" clip-path="url(#p1dc00c7e79)" style="fill: #f25022; fill-opacity: 0.5"/>
   </g>
   <g id="patch_161">
    <path d="M 292.803005 263.518594 
L 294.921503 263.518594 
L 294.921503 197.287177 
L 292.803005 197.287177 
z
" clip-path="url(#p1dc00c7e79)" style="fill: #f25022; fill-opacity: 0.5"/>
   </g>
   <g id="patch_162">
    <path d="M 295.156891 263.518594 
L 297.27539 263.518594 
L 297.27539 195.620978 
L 295.156891 195.620978 
z
" clip-path="url(#p1dc00c7e79)" style="fill: #f25022; fill-opacity: 0.5"/>
   </g>
   <g id="patch_163">
    <path d="M 297.510778 263.518594 
L 299.629277 263.518594 
L 299.629277 192.28858 
L 297.510778 192.28858 
z
" clip-path="url(#p1dc00c7e79)" style="fill: #f25022; fill-opacity: 0.5"/>
   </g>
   <g id="patch_164">
    <path d="M 299.864665 263.518594 
L 301.983163 263.518594 
L 301.983163 194.371329 
L 299.864665 194.371329 
z
" clip-path="url(#p1dc00c7e79)" style="fill: #f25022; fill-opacity: 0.5"/>
   </g>
   <g id="patch_165">
    <path d="M 302.218552 263.518594 
L 304.33705 263.518594 
L 304.33705 188.123082 
L 302.218552 188.123082 
z
" clip-path="url(#p1dc00c7e79)" style="fill: #f25022; fill-opacity: 0.5"/>
   </g>
   <g id="patch_166">
    <path d="M 304.572439 263.518594 
L 306.690937 263.518594 
L 306.690937 196.870627 
L 304.572439 196.870627 
z
" clip-path="url(#p1dc00c7e79)" style="fill: #f25022; fill-opacity: 0.5"/>
   </g>
   <g id="patch_167">
    <path d="M 306.926326 263.518594 
L 309.044824 263.518594 
L 309.044824 196.870627 
L 306.926326 196.870627 
z
" clip-path="url(#p1dc00c7e79)" style="fill: #f25022; fill-opacity: 0.5"/>
   </g>
   <g id="patch_168">
    <path d="M 309.280213 263.518594 
L 311.398711 263.518594 
L 311.398711 193.954779 
L 309.280213 193.954779 
z
" clip-path="url(#p1dc00c7e79)" style="fill: #f25022; fill-opacity: 0.5"/>
   </g>
   <g id="patch_169">
    <path d="M 311.6341 263.518594 
L 313.752598 263.518594 
L 313.752598 190.622381 
L 311.6341 190.622381 
z
" clip-path="url(#p1dc00c7e79)" style="fill: #f25022; fill-opacity: 0.5"/>
   </g>
   <g id="patch_170">
    <path d="M 313.987987 263.518594 
L 316.106485 263.518594 
L 316.106485 190.205831 
L 313.987987 190.205831 
z
" clip-path="url(#p1dc00c7e79)" style="fill: #f25022; fill-opacity: 0.5"/>
   </g>
   <g id="patch_171">
    <path d="M 316.341873 263.518594 
L 318.460372 263.518594 
L 318.460372 193.538229 
L 316.341873 193.538229 
z
" clip-path="url(#p1dc00c7e79)" style="fill: #f25022; fill-opacity: 0.5"/>
   </g>
   <g id="patch_172">
    <path d="M 318.69576 263.518594 
L 320.814259 263.518594 
L 320.814259 203.951974 
L 318.69576 203.951974 
z
" clip-path="url(#p1dc00c7e79)" style="fill: #f25022; fill-opacity: 0.5"/>
   </g>
   <g id="patch_173">
    <path d="M 321.049647 263.518594 
L 323.168145 263.518594 
L 323.168145 184.374134 
L 321.049647 184.374134 
z
" clip-path="url(#p1dc00c7e79)" style="fill: #f25022; fill-opacity: 0.5"/>
   </g>
   <g id="patch_174">
    <path d="M 323.403534 263.518594 
L 325.522032 263.518594 
L 325.522032 197.287177 
L 323.403534 197.287177 
z
" clip-path="url(#p1dc00c7e79)" style="fill: #f25022; fill-opacity: 0.5"/>
   </g>
   <g id="patch_175">
    <path d="M 325.757421 263.518594 
L 327.875919 263.518594 
L 327.875919 195.204428 
L 325.757421 195.204428 
z
" clip-path="url(#p1dc00c7e79)" style="fill: #f25022; fill-opacity: 0.5"/>
   </g>
   <g id="patch_176">
    <path d="M 328.111308 263.518594 
L 330.229806 263.518594 
L 330.229806 187.289982 
L 328.111308 187.289982 
z
" clip-path="url(#p1dc00c7e79)" style="fill: #f25022; fill-opacity: 0.5"/>
   </g>
   <g id="patch_177">
    <path d="M 330.465195 263.518594 
L 332.583693 263.518594 
L 332.583693 184.374134 
L 330.465195 184.374134 
z
" clip-path="url(#p1dc00c7e79)" style="fill: #f25022; fill-opacity: 0.5"/>
   </g>
   <g id="patch_178">
    <path d="M 332.819082 263.518594 
L 334.93758 263.518594 
L 334.93758 201.452675 
L 332.819082 201.452675 
z
" clip-path="url(#p1dc00c7e79)" style="fill: #f25022; fill-opacity: 0.5"/>
   </g>
   <g id="patch_179">
    <path d="M 335.172969 263.518594 
L 337.291467 263.518594 
L 337.291467 183.957584 
L 335.172969 183.957584 
z
" clip-path="url(#p1dc00c7e79)" style="fill: #f25022; fill-opacity: 0.5"/>
   </g>
   <g id="patch_180">
    <path d="M 337.526856 263.518594 
L 339.645354 263.518594 
L 339.645354 191.45548 
L 337.526856 191.45548 
z
" clip-path="url(#p1dc00c7e79)" style="fill: #f25022; fill-opacity: 0.5"/>
   </g>
   <g id="patch_181">
    <path d="M 339.880742 263.518594 
L 341.999241 263.518594 
L 341.999241 191.87203 
L 339.880742 191.87203 
z
" clip-path="url(#p1dc00c7e79)" style="fill: #f25022; fill-opacity: 0.5"/>
   </g>
   <g id="patch_182">
    <path d="M 342.234629 263.518594 
L 344.353127 263.518594 
L 344.353127 187.706532 
L 342.234629 187.706532 
z
" clip-path="url(#p1dc00c7e79)" style="fill: #f25022; fill-opacity: 0.5"/>
   </g>
   <g id="patch_183">
    <path d="M 344.588516 263.518594 
L 346.707014 263.518594 
L 346.707014 193.538229 
L 344.588516 193.538229 
z
" clip-path="url(#p1dc00c7e79)" style="fill: #f25022; fill-opacity: 0.5"/>
   </g>
   <g id="patch_184">
    <path d="M 346.942403 263.518594 
L 349.060901 263.518594 
L 349.060901 188.956181 
L 346.942403 188.956181 
z
" clip-path="url(#p1dc00c7e79)" style="fill: #f25022; fill-opacity: 0.5"/>
   </g>
   <g id="patch_185">
    <path d="M 349.29629 263.518594 
L 351.414788 263.518594 
L 351.414788 183.124484 
L 349.29629 183.124484 
z
" clip-path="url(#p1dc00c7e79)" style="fill: #f25022; fill-opacity: 0.5"/>
   </g>
   <g id="patch_186">
    <path d="M 351.650177 263.518594 
L 353.768675 263.518594 
L 353.768675 191.87203 
L 351.650177 191.87203 
z
" clip-path="url(#p1dc00c7e79)" style="fill: #f25022; fill-opacity: 0.5"/>
   </g>
   <g id="patch_187">
    <path d="M 354.004064 263.518594 
L 356.122562 263.518594 
L 356.122562 210.61677 
L 354.004064 210.61677 
z
" clip-path="url(#p1dc00c7e79)" style="fill: #f25022; fill-opacity: 0.5"/>
   </g>
   <g id="patch_188">
    <path d="M 356.357951 263.518594 
L 358.476449 263.518594 
L 358.476449 234.360108 
L 356.357951 234.360108 
z
" clip-path="url(#p1dc00c7e79)" style="fill: #f25022; fill-opacity: 0.5"/>
   </g>
   <g id="patch_189">
    <path d="M 358.711838 263.518594 
L 360.830336 263.518594 
L 360.830336 252.688299 
L 358.711838 252.688299 
z
" clip-path="url(#p1dc00c7e79)" style="fill: #f25022; fill-opacity: 0.5"/>
   </g>
   <g id="patch_190">
    <path d="M 361.065724 263.518594 
L 363.184223 263.518594 
L 363.184223 259.353096 
L 361.065724 259.353096 
z
" clip-path="url(#p1dc00c7e79)" style="fill: #f25022; fill-opacity: 0.5"/>
   </g>
   <g id="patch_191">
    <path d="M 363.419611 263.518594 
L 365.53811 263.518594 
L 365.53811 259.769646 
L 363.419611 259.769646 
z
" clip-path="url(#p1dc00c7e79)" style="fill: #f25022; fill-opacity: 0.5"/>
   </g>
   <g id="patch_192">
    <path d="M 365.773498 263.518594 
L 367.891996 263.518594 
L 367.891996 259.769646 
L 365.773498 259.769646 
z
" clip-path="url(#p1dc00c7e79)" style="fill: #f25022; fill-opacity: 0.5"/>
   </g>
   <g id="patch_193">
    <path d="M 368.127385 263.518594 
L 370.245883 263.518594 
L 370.245883 261.852395 
L 368.127385 261.852395 
z
" clip-path="url(#p1dc00c7e79)" style="fill: #f25022; fill-opacity: 0.5"/>
   </g>
   <g id="patch_194">
    <path d="M 370.481272 263.518594 
L 372.59977 263.518594 
L 372.59977 262.268944 
L 370.481272 262.268944 
z
" clip-path="url(#p1dc00c7e79)" style="fill: #f25022; fill-opacity: 0.5"/>
   </g>
   <g id="patch_195">
    <path d="M 372.835159 263.518594 
L 374.953657 263.518594 
L 374.953657 260.186195 
L 372.835159 260.186195 
z
" clip-path="url(#p1dc00c7e79)" style="fill: #f25022; fill-opacity: 0.5"/>
   </g>
   <g id="patch_196">
    <path d="M 375.189046 263.518594 
L 377.307544 263.518594 
L 377.307544 260.186195 
L 375.189046 260.186195 
z
" clip-path="url(#p1dc00c7e79)" style="fill: #f25022; fill-opacity: 0.5"/>
   </g>
   <g id="patch_197">
    <path d="M 377.542933 263.518594 
L 379.661431 263.518594 
L 379.661431 260.602745 
L 377.542933 260.602745 
z
" clip-path="url(#p1dc00c7e79)" style="fill: #f25022; fill-opacity: 0.5"/>
   </g>
   <g id="patch_198">
    <path d="M 379.89682 263.518594 
L 382.015318 263.518594 
L 382.015318 261.019295 
L 379.89682 261.019295 
z
" clip-path="url(#p1dc00c7e79)" style="fill: #f25022; fill-opacity: 0.5"/>
   </g>
   <g id="patch_199">
    <path d="M 382.250706 263.518594 
L 384.369205 263.518594 
L 384.369205 257.686897 
L 382.250706 257.686897 
z
" clip-path="url(#p1dc00c7e79)" style="fill: #f25022; fill-opacity: 0.5"/>
   </g>
   <g id="patch_200">
    <path d="M 384.604593 263.518594 
L 386.723092 263.518594 
L 386.723092 261.019295 
L 384.604593 261.019295 
z
" clip-path="url(#p1dc00c7e79)" style="fill: #f25022; fill-opacity: 0.5"/>
   </g>
   <g id="patch_201">
    <path d="M 386.95848 263.518594 
L 389.076978 263.518594 
L 389.076978 259.353096 
L 386.95848 259.353096 
z
" clip-path="url(#p1dc00c7e79)" style="fill: #f25022; fill-opacity: 0.5"/>
   </g>
   <g id="patch_202">
    <path d="M 389.312367 263.518594 
L 391.430865 263.518594 
L 391.430865 262.685494 
L 389.312367 262.685494 
z
" clip-path="url(#p1dc00c7e79)" style="fill: #f25022; fill-opacity: 0.5"/>
   </g>
   <g id="matplotlib.axis_1">
    <g id="xtick_1">
     <g id="line2d_1">
      <path d="M 75.69875 263.518594 
L 75.69875 14.038594 
" clip-path="url(#p1dc00c7e79)" style="fill: none; stroke-dasharray: 2.96,1.28; stroke-dashoffset: 0; stroke: #b0b0b0; stroke-width: 0.8"/>
     </g>
     <g id="line2d_2">
      <defs>
       <path id="m39a9bd4549" d="M 0 0 
L 0 3.5 
" style="stroke: #000000; stroke-width: 0.8"/>
      </defs>
      <g>
       <use xlink:href="#m39a9bd4549" x="75.69875" y="263.518594" style="stroke: #000000; stroke-width: 0.8"/>
      </g>
     </g>
     <g id="text_1">
      <!-- 0 -->
      <g transform="translate(69.9725 284.195781) scale(0.18 -0.18)">
       <defs>
        <path id="DejaVuSans-30" d="M 2034 4250 
Q 1547 4250 1301 3770 
Q 1056 3291 1056 2328 
Q 1056 1369 1301 889 
Q 1547 409 2034 409 
Q 2525 409 2770 889 
Q 3016 1369 3016 2328 
Q 3016 3291 2770 3770 
Q 2525 4250 2034 4250 
z
M 2034 4750 
Q 2819 4750 3233 4129 
Q 3647 3509 3647 2328 
Q 3647 1150 3233 529 
Q 2819 -91 2034 -91 
Q 1250 -91 836 529 
Q 422 1150 422 2328 
Q 422 3509 836 4129 
Q 1250 4750 2034 4750 
z
" transform="scale(0.015625)"/>
       </defs>
       <use xlink:href="#DejaVuSans-30"/>
      </g>
     </g>
    </g>
    <g id="xtick_2">
     <g id="line2d_3">
      <path d="M 109.17875 263.518594 
L 109.17875 14.038594 
" clip-path="url(#p1dc00c7e79)" style="fill: none; stroke-dasharray: 2.96,1.28; stroke-dashoffset: 0; stroke: #b0b0b0; stroke-width: 0.8"/>
     </g>
     <g id="line2d_4">
      <g>
       <use xlink:href="#m39a9bd4549" x="109.17875" y="263.518594" style="stroke: #000000; stroke-width: 0.8"/>
      </g>
     </g>
     <g id="text_2">
      <!-- 1 -->
      <g transform="translate(103.4525 284.195781) scale(0.18 -0.18)">
       <defs>
        <path id="DejaVuSans-31" d="M 794 531 
L 1825 531 
L 1825 4091 
L 703 3866 
L 703 4441 
L 1819 4666 
L 2450 4666 
L 2450 531 
L 3481 531 
L 3481 0 
L 794 0 
L 794 531 
z
" transform="scale(0.015625)"/>
       </defs>
       <use xlink:href="#DejaVuSans-31"/>
      </g>
     </g>
    </g>
    <g id="xtick_3">
     <g id="line2d_5">
      <path d="M 142.65875 263.518594 
L 142.65875 14.038594 
" clip-path="url(#p1dc00c7e79)" style="fill: none; stroke-dasharray: 2.96,1.28; stroke-dashoffset: 0; stroke: #b0b0b0; stroke-width: 0.8"/>
     </g>
     <g id="line2d_6">
      <g>
       <use xlink:href="#m39a9bd4549" x="142.65875" y="263.518594" style="stroke: #000000; stroke-width: 0.8"/>
      </g>
     </g>
     <g id="text_3">
      <!-- 2 -->
      <g transform="translate(136.9325 284.195781) scale(0.18 -0.18)">
       <defs>
        <path id="DejaVuSans-32" d="M 1228 531 
L 3431 531 
L 3431 0 
L 469 0 
L 469 531 
Q 828 903 1448 1529 
Q 2069 2156 2228 2338 
Q 2531 2678 2651 2914 
Q 2772 3150 2772 3378 
Q 2772 3750 2511 3984 
Q 2250 4219 1831 4219 
Q 1534 4219 1204 4116 
Q 875 4013 500 3803 
L 500 4441 
Q 881 4594 1212 4672 
Q 1544 4750 1819 4750 
Q 2544 4750 2975 4387 
Q 3406 4025 3406 3419 
Q 3406 3131 3298 2873 
Q 3191 2616 2906 2266 
Q 2828 2175 2409 1742 
Q 1991 1309 1228 531 
z
" transform="scale(0.015625)"/>
       </defs>
       <use xlink:href="#DejaVuSans-32"/>
      </g>
     </g>
    </g>
    <g id="xtick_4">
     <g id="line2d_7">
      <path d="M 176.13875 263.518594 
L 176.13875 14.038594 
" clip-path="url(#p1dc00c7e79)" style="fill: none; stroke-dasharray: 2.96,1.28; stroke-dashoffset: 0; stroke: #b0b0b0; stroke-width: 0.8"/>
     </g>
     <g id="line2d_8">
      <g>
       <use xlink:href="#m39a9bd4549" x="176.13875" y="263.518594" style="stroke: #000000; stroke-width: 0.8"/>
      </g>
     </g>
     <g id="text_4">
      <!-- 3 -->
      <g transform="translate(170.4125 284.195781) scale(0.18 -0.18)">
       <defs>
        <path id="DejaVuSans-33" d="M 2597 2516 
Q 3050 2419 3304 2112 
Q 3559 1806 3559 1356 
Q 3559 666 3084 287 
Q 2609 -91 1734 -91 
Q 1441 -91 1130 -33 
Q 819 25 488 141 
L 488 750 
Q 750 597 1062 519 
Q 1375 441 1716 441 
Q 2309 441 2620 675 
Q 2931 909 2931 1356 
Q 2931 1769 2642 2001 
Q 2353 2234 1838 2234 
L 1294 2234 
L 1294 2753 
L 1863 2753 
Q 2328 2753 2575 2939 
Q 2822 3125 2822 3475 
Q 2822 3834 2567 4026 
Q 2313 4219 1838 4219 
Q 1578 4219 1281 4162 
Q 984 4106 628 3988 
L 628 4550 
Q 988 4650 1302 4700 
Q 1616 4750 1894 4750 
Q 2613 4750 3031 4423 
Q 3450 4097 3450 3541 
Q 3450 3153 3228 2886 
Q 3006 2619 2597 2516 
z
" transform="scale(0.015625)"/>
       </defs>
       <use xlink:href="#DejaVuSans-33"/>
      </g>
     </g>
    </g>
    <g id="xtick_5">
     <g id="line2d_9">
      <path d="M 209.61875 263.518594 
L 209.61875 14.038594 
" clip-path="url(#p1dc00c7e79)" style="fill: none; stroke-dasharray: 2.96,1.28; stroke-dashoffset: 0; stroke: #b0b0b0; stroke-width: 0.8"/>
     </g>
     <g id="line2d_10">
      <g>
       <use xlink:href="#m39a9bd4549" x="209.61875" y="263.518594" style="stroke: #000000; stroke-width: 0.8"/>
      </g>
     </g>
     <g id="text_5">
      <!-- 4 -->
      <g transform="translate(203.8925 284.195781) scale(0.18 -0.18)">
       <defs>
        <path id="DejaVuSans-34" d="M 2419 4116 
L 825 1625 
L 2419 1625 
L 2419 4116 
z
M 2253 4666 
L 3047 4666 
L 3047 1625 
L 3713 1625 
L 3713 1100 
L 3047 1100 
L 3047 0 
L 2419 0 
L 2419 1100 
L 313 1100 
L 313 1709 
L 2253 4666 
z
" transform="scale(0.015625)"/>
       </defs>
       <use xlink:href="#DejaVuSans-34"/>
      </g>
     </g>
    </g>
    <g id="xtick_6">
     <g id="line2d_11">
      <path d="M 243.09875 263.518594 
L 243.09875 14.038594 
" clip-path="url(#p1dc00c7e79)" style="fill: none; stroke-dasharray: 2.96,1.28; stroke-dashoffset: 0; stroke: #b0b0b0; stroke-width: 0.8"/>
     </g>
     <g id="line2d_12">
      <g>
       <use xlink:href="#m39a9bd4549" x="243.09875" y="263.518594" style="stroke: #000000; stroke-width: 0.8"/>
      </g>
     </g>
     <g id="text_6">
      <!-- 5 -->
      <g transform="translate(237.3725 284.195781) scale(0.18 -0.18)">
       <defs>
        <path id="DejaVuSans-35" d="M 691 4666 
L 3169 4666 
L 3169 4134 
L 1269 4134 
L 1269 2991 
Q 1406 3038 1543 3061 
Q 1681 3084 1819 3084 
Q 2600 3084 3056 2656 
Q 3513 2228 3513 1497 
Q 3513 744 3044 326 
Q 2575 -91 1722 -91 
Q 1428 -91 1123 -41 
Q 819 9 494 109 
L 494 744 
Q 775 591 1075 516 
Q 1375 441 1709 441 
Q 2250 441 2565 725 
Q 2881 1009 2881 1497 
Q 2881 1984 2565 2268 
Q 2250 2553 1709 2553 
Q 1456 2553 1204 2497 
Q 953 2441 691 2322 
L 691 4666 
z
" transform="scale(0.015625)"/>
       </defs>
       <use xlink:href="#DejaVuSans-35"/>
      </g>
     </g>
    </g>
    <g id="xtick_7">
     <g id="line2d_13">
      <path d="M 276.57875 263.518594 
L 276.57875 14.038594 
" clip-path="url(#p1dc00c7e79)" style="fill: none; stroke-dasharray: 2.96,1.28; stroke-dashoffset: 0; stroke: #b0b0b0; stroke-width: 0.8"/>
     </g>
     <g id="line2d_14">
      <g>
       <use xlink:href="#m39a9bd4549" x="276.57875" y="263.518594" style="stroke: #000000; stroke-width: 0.8"/>
      </g>
     </g>
     <g id="text_7">
      <!-- 6 -->
      <g transform="translate(270.8525 284.195781) scale(0.18 -0.18)">
       <defs>
        <path id="DejaVuSans-36" d="M 2113 2584 
Q 1688 2584 1439 2293 
Q 1191 2003 1191 1497 
Q 1191 994 1439 701 
Q 1688 409 2113 409 
Q 2538 409 2786 701 
Q 3034 994 3034 1497 
Q 3034 2003 2786 2293 
Q 2538 2584 2113 2584 
z
M 3366 4563 
L 3366 3988 
Q 3128 4100 2886 4159 
Q 2644 4219 2406 4219 
Q 1781 4219 1451 3797 
Q 1122 3375 1075 2522 
Q 1259 2794 1537 2939 
Q 1816 3084 2150 3084 
Q 2853 3084 3261 2657 
Q 3669 2231 3669 1497 
Q 3669 778 3244 343 
Q 2819 -91 2113 -91 
Q 1303 -91 875 529 
Q 447 1150 447 2328 
Q 447 3434 972 4092 
Q 1497 4750 2381 4750 
Q 2619 4750 2861 4703 
Q 3103 4656 3366 4563 
z
" transform="scale(0.015625)"/>
       </defs>
       <use xlink:href="#DejaVuSans-36"/>
      </g>
     </g>
    </g>
    <g id="xtick_8">
     <g id="line2d_15">
      <path d="M 310.05875 263.518594 
L 310.05875 14.038594 
" clip-path="url(#p1dc00c7e79)" style="fill: none; stroke-dasharray: 2.96,1.28; stroke-dashoffset: 0; stroke: #b0b0b0; stroke-width: 0.8"/>
     </g>
     <g id="line2d_16">
      <g>
       <use xlink:href="#m39a9bd4549" x="310.05875" y="263.518594" style="stroke: #000000; stroke-width: 0.8"/>
      </g>
     </g>
     <g id="text_8">
      <!-- 7 -->
      <g transform="translate(304.3325 284.195781) scale(0.18 -0.18)">
       <defs>
        <path id="DejaVuSans-37" d="M 525 4666 
L 3525 4666 
L 3525 4397 
L 1831 0 
L 1172 0 
L 2766 4134 
L 525 4134 
L 525 4666 
z
" transform="scale(0.015625)"/>
       </defs>
       <use xlink:href="#DejaVuSans-37"/>
      </g>
     </g>
    </g>
    <g id="xtick_9">
     <g id="line2d_17">
      <path d="M 343.53875 263.518594 
L 343.53875 14.038594 
" clip-path="url(#p1dc00c7e79)" style="fill: none; stroke-dasharray: 2.96,1.28; stroke-dashoffset: 0; stroke: #b0b0b0; stroke-width: 0.8"/>
     </g>
     <g id="line2d_18">
      <g>
       <use xlink:href="#m39a9bd4549" x="343.53875" y="263.518594" style="stroke: #000000; stroke-width: 0.8"/>
      </g>
     </g>
     <g id="text_9">
      <!-- 8 -->
      <g transform="translate(337.8125 284.195781) scale(0.18 -0.18)">
       <defs>
        <path id="DejaVuSans-38" d="M 2034 2216 
Q 1584 2216 1326 1975 
Q 1069 1734 1069 1313 
Q 1069 891 1326 650 
Q 1584 409 2034 409 
Q 2484 409 2743 651 
Q 3003 894 3003 1313 
Q 3003 1734 2745 1975 
Q 2488 2216 2034 2216 
z
M 1403 2484 
Q 997 2584 770 2862 
Q 544 3141 544 3541 
Q 544 4100 942 4425 
Q 1341 4750 2034 4750 
Q 2731 4750 3128 4425 
Q 3525 4100 3525 3541 
Q 3525 3141 3298 2862 
Q 3072 2584 2669 2484 
Q 3125 2378 3379 2068 
Q 3634 1759 3634 1313 
Q 3634 634 3220 271 
Q 2806 -91 2034 -91 
Q 1263 -91 848 271 
Q 434 634 434 1313 
Q 434 1759 690 2068 
Q 947 2378 1403 2484 
z
M 1172 3481 
Q 1172 3119 1398 2916 
Q 1625 2713 2034 2713 
Q 2441 2713 2670 2916 
Q 2900 3119 2900 3481 
Q 2900 3844 2670 4047 
Q 2441 4250 2034 4250 
Q 1625 4250 1398 4047 
Q 1172 3844 1172 3481 
z
" transform="scale(0.015625)"/>
       </defs>
       <use xlink:href="#DejaVuSans-38"/>
      </g>
     </g>
    </g>
    <g id="xtick_10">
     <g id="line2d_19">
      <path d="M 377.01875 263.518594 
L 377.01875 14.038594 
" clip-path="url(#p1dc00c7e79)" style="fill: none; stroke-dasharray: 2.96,1.28; stroke-dashoffset: 0; stroke: #b0b0b0; stroke-width: 0.8"/>
     </g>
     <g id="line2d_20">
      <g>
       <use xlink:href="#m39a9bd4549" x="377.01875" y="263.518594" style="stroke: #000000; stroke-width: 0.8"/>
      </g>
     </g>
     <g id="text_10">
      <!-- 9 -->
      <g transform="translate(371.2925 284.195781) scale(0.18 -0.18)">
       <defs>
        <path id="DejaVuSans-39" d="M 703 97 
L 703 672 
Q 941 559 1184 500 
Q 1428 441 1663 441 
Q 2288 441 2617 861 
Q 2947 1281 2994 2138 
Q 2813 1869 2534 1725 
Q 2256 1581 1919 1581 
Q 1219 1581 811 2004 
Q 403 2428 403 3163 
Q 403 3881 828 4315 
Q 1253 4750 1959 4750 
Q 2769 4750 3195 4129 
Q 3622 3509 3622 2328 
Q 3622 1225 3098 567 
Q 2575 -91 1691 -91 
Q 1453 -91 1209 -44 
Q 966 3 703 97 
z
M 1959 2075 
Q 2384 2075 2632 2365 
Q 2881 2656 2881 3163 
Q 2881 3666 2632 3958 
Q 2384 4250 1959 4250 
Q 1534 4250 1286 3958 
Q 1038 3666 1038 3163 
Q 1038 2656 1286 2365 
Q 1534 2075 1959 2075 
z
" transform="scale(0.015625)"/>
       </defs>
       <use xlink:href="#DejaVuSans-39"/>
      </g>
     </g>
    </g>
    <g id="xtick_11">
     <g id="line2d_21">
      <path d="M 410.49875 263.518594 
L 410.49875 14.038594 
" clip-path="url(#p1dc00c7e79)" style="fill: none; stroke-dasharray: 2.96,1.28; stroke-dashoffset: 0; stroke: #b0b0b0; stroke-width: 0.8"/>
     </g>
     <g id="line2d_22">
      <g>
       <use xlink:href="#m39a9bd4549" x="410.49875" y="263.518594" style="stroke: #000000; stroke-width: 0.8"/>
      </g>
     </g>
     <g id="text_11">
      <!-- 10 -->
      <g transform="translate(399.04625 284.195781) scale(0.18 -0.18)">
       <use xlink:href="#DejaVuSans-31"/>
       <use xlink:href="#DejaVuSans-30" x="63.623047"/>
      </g>
     </g>
    </g>
    <g id="text_12">
     <!-- One-way latency [ms] -->
     <g transform="translate(144.063594 305.616406) scale(0.18 -0.18)">
      <defs>
       <path id="DejaVuSans-4f" d="M 2522 4238 
Q 1834 4238 1429 3725 
Q 1025 3213 1025 2328 
Q 1025 1447 1429 934 
Q 1834 422 2522 422 
Q 3209 422 3611 934 
Q 4013 1447 4013 2328 
Q 4013 3213 3611 3725 
Q 3209 4238 2522 4238 
z
M 2522 4750 
Q 3503 4750 4090 4092 
Q 4678 3434 4678 2328 
Q 4678 1225 4090 567 
Q 3503 -91 2522 -91 
Q 1538 -91 948 565 
Q 359 1222 359 2328 
Q 359 3434 948 4092 
Q 1538 4750 2522 4750 
z
" transform="scale(0.015625)"/>
       <path id="DejaVuSans-6e" d="M 3513 2113 
L 3513 0 
L 2938 0 
L 2938 2094 
Q 2938 2591 2744 2837 
Q 2550 3084 2163 3084 
Q 1697 3084 1428 2787 
Q 1159 2491 1159 1978 
L 1159 0 
L 581 0 
L 581 3500 
L 1159 3500 
L 1159 2956 
Q 1366 3272 1645 3428 
Q 1925 3584 2291 3584 
Q 2894 3584 3203 3211 
Q 3513 2838 3513 2113 
z
" transform="scale(0.015625)"/>
       <path id="DejaVuSans-65" d="M 3597 1894 
L 3597 1613 
L 953 1613 
Q 991 1019 1311 708 
Q 1631 397 2203 397 
Q 2534 397 2845 478 
Q 3156 559 3463 722 
L 3463 178 
Q 3153 47 2828 -22 
Q 2503 -91 2169 -91 
Q 1331 -91 842 396 
Q 353 884 353 1716 
Q 353 2575 817 3079 
Q 1281 3584 2069 3584 
Q 2775 3584 3186 3129 
Q 3597 2675 3597 1894 
z
M 3022 2063 
Q 3016 2534 2758 2815 
Q 2500 3097 2075 3097 
Q 1594 3097 1305 2825 
Q 1016 2553 972 2059 
L 3022 2063 
z
" transform="scale(0.015625)"/>
       <path id="DejaVuSans-2d" d="M 313 2009 
L 1997 2009 
L 1997 1497 
L 313 1497 
L 313 2009 
z
" transform="scale(0.015625)"/>
       <path id="DejaVuSans-77" d="M 269 3500 
L 844 3500 
L 1563 769 
L 2278 3500 
L 2956 3500 
L 3675 769 
L 4391 3500 
L 4966 3500 
L 4050 0 
L 3372 0 
L 2619 2869 
L 1863 0 
L 1184 0 
L 269 3500 
z
" transform="scale(0.015625)"/>
       <path id="DejaVuSans-61" d="M 2194 1759 
Q 1497 1759 1228 1600 
Q 959 1441 959 1056 
Q 959 750 1161 570 
Q 1363 391 1709 391 
Q 2188 391 2477 730 
Q 2766 1069 2766 1631 
L 2766 1759 
L 2194 1759 
z
M 3341 1997 
L 3341 0 
L 2766 0 
L 2766 531 
Q 2569 213 2275 61 
Q 1981 -91 1556 -91 
Q 1019 -91 701 211 
Q 384 513 384 1019 
Q 384 1609 779 1909 
Q 1175 2209 1959 2209 
L 2766 2209 
L 2766 2266 
Q 2766 2663 2505 2880 
Q 2244 3097 1772 3097 
Q 1472 3097 1187 3025 
Q 903 2953 641 2809 
L 641 3341 
Q 956 3463 1253 3523 
Q 1550 3584 1831 3584 
Q 2591 3584 2966 3190 
Q 3341 2797 3341 1997 
z
" transform="scale(0.015625)"/>
       <path id="DejaVuSans-79" d="M 2059 -325 
Q 1816 -950 1584 -1140 
Q 1353 -1331 966 -1331 
L 506 -1331 
L 506 -850 
L 844 -850 
Q 1081 -850 1212 -737 
Q 1344 -625 1503 -206 
L 1606 56 
L 191 3500 
L 800 3500 
L 1894 763 
L 2988 3500 
L 3597 3500 
L 2059 -325 
z
" transform="scale(0.015625)"/>
       <path id="DejaVuSans-20" transform="scale(0.015625)"/>
       <path id="DejaVuSans-6c" d="M 603 4863 
L 1178 4863 
L 1178 0 
L 603 0 
L 603 4863 
z
" transform="scale(0.015625)"/>
       <path id="DejaVuSans-74" d="M 1172 4494 
L 1172 3500 
L 2356 3500 
L 2356 3053 
L 1172 3053 
L 1172 1153 
Q 1172 725 1289 603 
Q 1406 481 1766 481 
L 2356 481 
L 2356 0 
L 1766 0 
Q 1100 0 847 248 
Q 594 497 594 1153 
L 594 3053 
L 172 3053 
L 172 3500 
L 594 3500 
L 594 4494 
L 1172 4494 
z
" transform="scale(0.015625)"/>
       <path id="DejaVuSans-63" d="M 3122 3366 
L 3122 2828 
Q 2878 2963 2633 3030 
Q 2388 3097 2138 3097 
Q 1578 3097 1268 2742 
Q 959 2388 959 1747 
Q 959 1106 1268 751 
Q 1578 397 2138 397 
Q 2388 397 2633 464 
Q 2878 531 3122 666 
L 3122 134 
Q 2881 22 2623 -34 
Q 2366 -91 2075 -91 
Q 1284 -91 818 406 
Q 353 903 353 1747 
Q 353 2603 823 3093 
Q 1294 3584 2113 3584 
Q 2378 3584 2631 3529 
Q 2884 3475 3122 3366 
z
" transform="scale(0.015625)"/>
       <path id="DejaVuSans-5b" d="M 550 4863 
L 1875 4863 
L 1875 4416 
L 1125 4416 
L 1125 -397 
L 1875 -397 
L 1875 -844 
L 550 -844 
L 550 4863 
z
" transform="scale(0.015625)"/>
       <path id="DejaVuSans-6d" d="M 3328 2828 
Q 3544 3216 3844 3400 
Q 4144 3584 4550 3584 
Q 5097 3584 5394 3201 
Q 5691 2819 5691 2113 
L 5691 0 
L 5113 0 
L 5113 2094 
Q 5113 2597 4934 2840 
Q 4756 3084 4391 3084 
Q 3944 3084 3684 2787 
Q 3425 2491 3425 1978 
L 3425 0 
L 2847 0 
L 2847 2094 
Q 2847 2600 2669 2842 
Q 2491 3084 2119 3084 
Q 1678 3084 1418 2786 
Q 1159 2488 1159 1978 
L 1159 0 
L 581 0 
L 581 3500 
L 1159 3500 
L 1159 2956 
Q 1356 3278 1631 3431 
Q 1906 3584 2284 3584 
Q 2666 3584 2933 3390 
Q 3200 3197 3328 2828 
z
" transform="scale(0.015625)"/>
       <path id="DejaVuSans-73" d="M 2834 3397 
L 2834 2853 
Q 2591 2978 2328 3040 
Q 2066 3103 1784 3103 
Q 1356 3103 1142 2972 
Q 928 2841 928 2578 
Q 928 2378 1081 2264 
Q 1234 2150 1697 2047 
L 1894 2003 
Q 2506 1872 2764 1633 
Q 3022 1394 3022 966 
Q 3022 478 2636 193 
Q 2250 -91 1575 -91 
Q 1294 -91 989 -36 
Q 684 19 347 128 
L 347 722 
Q 666 556 975 473 
Q 1284 391 1588 391 
Q 1994 391 2212 530 
Q 2431 669 2431 922 
Q 2431 1156 2273 1281 
Q 2116 1406 1581 1522 
L 1381 1569 
Q 847 1681 609 1914 
Q 372 2147 372 2553 
Q 372 3047 722 3315 
Q 1072 3584 1716 3584 
Q 2034 3584 2315 3537 
Q 2597 3491 2834 3397 
z
" transform="scale(0.015625)"/>
       <path id="DejaVuSans-5d" d="M 1947 4863 
L 1947 -844 
L 622 -844 
L 622 -397 
L 1369 -397 
L 1369 4416 
L 622 4416 
L 622 4863 
L 1947 4863 
z
" transform="scale(0.015625)"/>
      </defs>
      <use xlink:href="#DejaVuSans-4f"/>
      <use xlink:href="#DejaVuSans-6e" x="78.710938"/>
      <use xlink:href="#DejaVuSans-65" x="142.089844"/>
      <use xlink:href="#DejaVuSans-2d" x="203.613281"/>
      <use xlink:href="#DejaVuSans-77" x="239.697266"/>
      <use xlink:href="#DejaVuSans-61" x="321.484375"/>
      <use xlink:href="#DejaVuSans-79" x="382.763672"/>
      <use xlink:href="#DejaVuSans-20" x="441.943359"/>
      <use xlink:href="#DejaVuSans-6c" x="473.730469"/>
      <use xlink:href="#DejaVuSans-61" x="501.513672"/>
      <use xlink:href="#DejaVuSans-74" x="562.792969"/>
      <use xlink:href="#DejaVuSans-65" x="602.001953"/>
      <use xlink:href="#DejaVuSans-6e" x="663.525391"/>
      <use xlink:href="#DejaVuSans-63" x="726.904297"/>
      <use xlink:href="#DejaVuSans-79" x="781.884766"/>
      <use xlink:href="#DejaVuSans-20" x="841.064453"/>
      <use xlink:href="#DejaVuSans-5b" x="872.851562"/>
      <use xlink:href="#DejaVuSans-6d" x="911.865234"/>
      <use xlink:href="#DejaVuSans-73" x="1009.277344"/>
      <use xlink:href="#DejaVuSans-5d" x="1061.376953"/>
     </g>
    </g>
   </g>
   <g id="matplotlib.axis_2">
    <g id="ytick_1">
     <g id="line2d_23">
      <path d="M 75.69875 263.518594 
L 410.49875 263.518594 
" clip-path="url(#p1dc00c7e79)" style="fill: none; stroke-dasharray: 2.96,1.28; stroke-dashoffset: 0; stroke: #b0b0b0; stroke-width: 0.8"/>
     </g>
     <g id="line2d_24">
      <defs>
       <path id="mb9a16ae156" d="M 0 0 
L -3.5 0 
" style="stroke: #000000; stroke-width: 0.8"/>
      </defs>
      <g>
       <use xlink:href="#mb9a16ae156" x="75.69875" y="263.518594" style="stroke: #000000; stroke-width: 0.8"/>
      </g>
     </g>
     <g id="text_13">
      <!-- 0.00 -->
      <g transform="translate(28.620625 270.357188) scale(0.18 -0.18)">
       <defs>
        <path id="DejaVuSans-2e" d="M 684 794 
L 1344 794 
L 1344 0 
L 684 0 
L 684 794 
z
" transform="scale(0.015625)"/>
       </defs>
       <use xlink:href="#DejaVuSans-30"/>
       <use xlink:href="#DejaVuSans-2e" x="63.623047"/>
       <use xlink:href="#DejaVuSans-30" x="95.410156"/>
       <use xlink:href="#DejaVuSans-30" x="159.033203"/>
      </g>
     </g>
    </g>
    <g id="ytick_2">
     <g id="line2d_25">
      <path d="M 75.69875 221.938594 
L 410.49875 221.938594 
" clip-path="url(#p1dc00c7e79)" style="fill: none; stroke-dasharray: 2.96,1.28; stroke-dashoffset: 0; stroke: #b0b0b0; stroke-width: 0.8"/>
     </g>
     <g id="line2d_26">
      <g>
       <use xlink:href="#mb9a16ae156" x="75.69875" y="221.938594" style="stroke: #000000; stroke-width: 0.8"/>
      </g>
     </g>
     <g id="text_14">
      <!-- 0.02 -->
      <g transform="translate(28.620625 228.777187) scale(0.18 -0.18)">
       <use xlink:href="#DejaVuSans-30"/>
       <use xlink:href="#DejaVuSans-2e" x="63.623047"/>
       <use xlink:href="#DejaVuSans-30" x="95.410156"/>
       <use xlink:href="#DejaVuSans-32" x="159.033203"/>
      </g>
     </g>
    </g>
    <g id="ytick_3">
     <g id="line2d_27">
      <path d="M 75.69875 180.358594 
L 410.49875 180.358594 
" clip-path="url(#p1dc00c7e79)" style="fill: none; stroke-dasharray: 2.96,1.28; stroke-dashoffset: 0; stroke: #b0b0b0; stroke-width: 0.8"/>
     </g>
     <g id="line2d_28">
      <g>
       <use xlink:href="#mb9a16ae156" x="75.69875" y="180.358594" style="stroke: #000000; stroke-width: 0.8"/>
      </g>
     </g>
     <g id="text_15">
      <!-- 0.04 -->
      <g transform="translate(28.620625 187.197187) scale(0.18 -0.18)">
       <use xlink:href="#DejaVuSans-30"/>
       <use xlink:href="#DejaVuSans-2e" x="63.623047"/>
       <use xlink:href="#DejaVuSans-30" x="95.410156"/>
       <use xlink:href="#DejaVuSans-34" x="159.033203"/>
      </g>
     </g>
    </g>
    <g id="ytick_4">
     <g id="line2d_29">
      <path d="M 75.69875 138.778594 
L 410.49875 138.778594 
" clip-path="url(#p1dc00c7e79)" style="fill: none; stroke-dasharray: 2.96,1.28; stroke-dashoffset: 0; stroke: #b0b0b0; stroke-width: 0.8"/>
     </g>
     <g id="line2d_30">
      <g>
       <use xlink:href="#mb9a16ae156" x="75.69875" y="138.778594" style="stroke: #000000; stroke-width: 0.8"/>
      </g>
     </g>
     <g id="text_16">
      <!-- 0.06 -->
      <g transform="translate(28.620625 145.617187) scale(0.18 -0.18)">
       <use xlink:href="#DejaVuSans-30"/>
       <use xlink:href="#DejaVuSans-2e" x="63.623047"/>
       <use xlink:href="#DejaVuSans-30" x="95.410156"/>
       <use xlink:href="#DejaVuSans-36" x="159.033203"/>
      </g>
     </g>
    </g>
    <g id="ytick_5">
     <g id="line2d_31">
      <path d="M 75.69875 97.198594 
L 410.49875 97.198594 
" clip-path="url(#p1dc00c7e79)" style="fill: none; stroke-dasharray: 2.96,1.28; stroke-dashoffset: 0; stroke: #b0b0b0; stroke-width: 0.8"/>
     </g>
     <g id="line2d_32">
      <g>
       <use xlink:href="#mb9a16ae156" x="75.69875" y="97.198594" style="stroke: #000000; stroke-width: 0.8"/>
      </g>
     </g>
     <g id="text_17">
      <!-- 0.08 -->
      <g transform="translate(28.620625 104.037187) scale(0.18 -0.18)">
       <use xlink:href="#DejaVuSans-30"/>
       <use xlink:href="#DejaVuSans-2e" x="63.623047"/>
       <use xlink:href="#DejaVuSans-30" x="95.410156"/>
       <use xlink:href="#DejaVuSans-38" x="159.033203"/>
      </g>
     </g>
    </g>
    <g id="ytick_6">
     <g id="line2d_33">
      <path d="M 75.69875 55.618594 
L 410.49875 55.618594 
" clip-path="url(#p1dc00c7e79)" style="fill: none; stroke-dasharray: 2.96,1.28; stroke-dashoffset: 0; stroke: #b0b0b0; stroke-width: 0.8"/>
     </g>
     <g id="line2d_34">
      <g>
       <use xlink:href="#mb9a16ae156" x="75.69875" y="55.618594" style="stroke: #000000; stroke-width: 0.8"/>
      </g>
     </g>
     <g id="text_18">
      <!-- 0.10 -->
      <g transform="translate(28.620625 62.457187) scale(0.18 -0.18)">
       <use xlink:href="#DejaVuSans-30"/>
       <use xlink:href="#DejaVuSans-2e" x="63.623047"/>
       <use xlink:href="#DejaVuSans-31" x="95.410156"/>
       <use xlink:href="#DejaVuSans-30" x="159.033203"/>
      </g>
     </g>
    </g>
    <g id="ytick_7">
     <g id="line2d_35">
      <path d="M 75.69875 14.038594 
L 410.49875 14.038594 
" clip-path="url(#p1dc00c7e79)" style="fill: none; stroke-dasharray: 2.96,1.28; stroke-dashoffset: 0; stroke: #b0b0b0; stroke-width: 0.8"/>
     </g>
     <g id="line2d_36">
      <g>
       <use xlink:href="#mb9a16ae156" x="75.69875" y="14.038594" style="stroke: #000000; stroke-width: 0.8"/>
      </g>
     </g>
     <g id="text_19">
      <!-- 0.12 -->
      <g transform="translate(28.620625 20.877187) scale(0.18 -0.18)">
       <use xlink:href="#DejaVuSans-30"/>
       <use xlink:href="#DejaVuSans-2e" x="63.623047"/>
       <use xlink:href="#DejaVuSans-31" x="95.410156"/>
       <use xlink:href="#DejaVuSans-32" x="159.033203"/>
      </g>
     </g>
    </g>
    <g id="text_20">
     <!-- Probability -->
     <g transform="translate(20.877187 186.350625) rotate(-90) scale(0.18 -0.18)">
      <defs>
       <path id="DejaVuSans-50" d="M 1259 4147 
L 1259 2394 
L 2053 2394 
Q 2494 2394 2734 2622 
Q 2975 2850 2975 3272 
Q 2975 3691 2734 3919 
Q 2494 4147 2053 4147 
L 1259 4147 
z
M 628 4666 
L 2053 4666 
Q 2838 4666 3239 4311 
Q 3641 3956 3641 3272 
Q 3641 2581 3239 2228 
Q 2838 1875 2053 1875 
L 1259 1875 
L 1259 0 
L 628 0 
L 628 4666 
z
" transform="scale(0.015625)"/>
       <path id="DejaVuSans-72" d="M 2631 2963 
Q 2534 3019 2420 3045 
Q 2306 3072 2169 3072 
Q 1681 3072 1420 2755 
Q 1159 2438 1159 1844 
L 1159 0 
L 581 0 
L 581 3500 
L 1159 3500 
L 1159 2956 
Q 1341 3275 1631 3429 
Q 1922 3584 2338 3584 
Q 2397 3584 2469 3576 
Q 2541 3569 2628 3553 
L 2631 2963 
z
" transform="scale(0.015625)"/>
       <path id="DejaVuSans-6f" d="M 1959 3097 
Q 1497 3097 1228 2736 
Q 959 2375 959 1747 
Q 959 1119 1226 758 
Q 1494 397 1959 397 
Q 2419 397 2687 759 
Q 2956 1122 2956 1747 
Q 2956 2369 2687 2733 
Q 2419 3097 1959 3097 
z
M 1959 3584 
Q 2709 3584 3137 3096 
Q 3566 2609 3566 1747 
Q 3566 888 3137 398 
Q 2709 -91 1959 -91 
Q 1206 -91 779 398 
Q 353 888 353 1747 
Q 353 2609 779 3096 
Q 1206 3584 1959 3584 
z
" transform="scale(0.015625)"/>
       <path id="DejaVuSans-62" d="M 3116 1747 
Q 3116 2381 2855 2742 
Q 2594 3103 2138 3103 
Q 1681 3103 1420 2742 
Q 1159 2381 1159 1747 
Q 1159 1113 1420 752 
Q 1681 391 2138 391 
Q 2594 391 2855 752 
Q 3116 1113 3116 1747 
z
M 1159 2969 
Q 1341 3281 1617 3432 
Q 1894 3584 2278 3584 
Q 2916 3584 3314 3078 
Q 3713 2572 3713 1747 
Q 3713 922 3314 415 
Q 2916 -91 2278 -91 
Q 1894 -91 1617 61 
Q 1341 213 1159 525 
L 1159 0 
L 581 0 
L 581 4863 
L 1159 4863 
L 1159 2969 
z
" transform="scale(0.015625)"/>
       <path id="DejaVuSans-69" d="M 603 3500 
L 1178 3500 
L 1178 0 
L 603 0 
L 603 3500 
z
M 603 4863 
L 1178 4863 
L 1178 4134 
L 603 4134 
L 603 4863 
z
" transform="scale(0.015625)"/>
      </defs>
      <use xlink:href="#DejaVuSans-50"/>
      <use xlink:href="#DejaVuSans-72" x="58.552734"/>
      <use xlink:href="#DejaVuSans-6f" x="97.416016"/>
      <use xlink:href="#DejaVuSans-62" x="158.597656"/>
      <use xlink:href="#DejaVuSans-61" x="222.074219"/>
      <use xlink:href="#DejaVuSans-62" x="283.353516"/>
      <use xlink:href="#DejaVuSans-69" x="346.830078"/>
      <use xlink:href="#DejaVuSans-6c" x="374.613281"/>
      <use xlink:href="#DejaVuSans-69" x="402.396484"/>
      <use xlink:href="#DejaVuSans-74" x="430.179688"/>
      <use xlink:href="#DejaVuSans-79" x="469.388672"/>
     </g>
    </g>
   </g>
   <g id="line2d_37">
    <path d="M 167.374938 261.186702 
L 168.536817 259.467721 
L 169.698696 256.985397 
L 170.860575 253.636436 
L 172.022455 249.297523 
L 173.184334 243.754209 
L 174.346213 236.707416 
L 175.508092 227.912797 
L 176.669971 217.371581 
L 178.99373 192.433545 
L 184.803126 125.694699 
L 185.965005 115.275608 
L 187.126885 106.836708 
L 188.288764 100.448661 
L 189.450643 96.101539 
L 190.612522 93.755471 
L 191.774402 93.386698 
L 192.936281 95.049362 
L 194.09816 98.828659 
L 195.260039 104.655342 
L 196.421919 112.166182 
L 202.231315 155.229076 
L 204.555073 169.373526 
L 206.878832 181.350133 
L 209.20259 192.145423 
L 217.335745 227.501961 
L 220.821383 241.359706 
L 223.145141 249.577034 
L 224.307021 253.069223 
L 225.4689 256.070349 
L 226.630779 258.537446 
L 227.792658 260.436321 
L 228.954538 261.772177 
L 230.116417 262.612705 
L 231.278296 263.074943 
L 232.440175 263.287764 
L 234.763934 263.372762 
L 240.57333 263.48188 
L 245.220847 263.490124 
L 248.706485 263.329157 
L 253.354002 263.023834 
L 256.83964 263.149963 
L 261.487157 263.408948 
L 264.972794 263.375492 
L 270.782191 263.188296 
L 281.239104 263.516852 
L 287.0485 263.423314 
L 292.857896 263.324934 
L 307.962326 263.397916 
L 321.904877 263.239293 
L 330.038032 263.419596 
L 337.009308 263.310175 
L 342.818704 263.50709 
L 347.466221 263.419034 
L 353.275617 263.159808 
L 363.73253 263.51353 
L 369.541927 263.372083 
L 374.189444 263.30613 
L 379.99884 263.307949 
L 384.646357 263.200027 
L 393.941391 263.335827 
L 398.588908 263.232981 
L 398.588908 263.232981 
" clip-path="url(#p1dc00c7e79)" style="fill: none; stroke: #00a4ef; stroke-width: 1.5; stroke-linecap: square"/>
   </g>
   <g id="line2d_38">
    <path d="M 156.159871 263.417021 
L 190.462745 263.447514 
L 197.559891 263.455904 
L 204.657038 263.471479 
L 217.668473 263.318839 
L 230.679908 263.518172 
L 273.262786 263.424906 
L 276.811359 263.149043 
L 277.994217 262.920546 
L 279.177075 262.524811 
L 280.359933 261.847547 
L 281.54279 260.732579 
L 282.725648 258.991892 
L 283.908506 256.430362 
L 285.091364 252.884853 
L 286.274221 248.272574 
L 287.457079 242.637521 
L 289.822795 229.240377 
L 292.18851 215.694757 
L 293.371368 209.896166 
L 294.554225 205.078177 
L 295.737083 201.28582 
L 296.919941 198.434208 
L 298.102799 196.37192 
L 299.285656 194.941888 
L 300.468514 194.01678 
L 301.651372 193.501879 
L 302.83423 193.314889 
L 304.017087 193.362298 
L 307.565661 193.793534 
L 309.931376 193.606356 
L 312.297091 193.229942 
L 313.479949 193.140939 
L 315.845665 193.306552 
L 318.21138 193.648143 
L 319.394238 193.709047 
L 320.577096 193.645039 
L 322.942811 193.207309 
L 325.308527 192.523289 
L 328.8571 191.36468 
L 330.039957 191.12305 
L 332.405673 191.004209 
L 334.771388 190.983707 
L 337.137104 190.60129 
L 340.685677 189.774964 
L 343.051393 189.509034 
L 345.417108 189.510096 
L 346.599966 189.742434 
L 347.782823 190.347244 
L 348.965681 191.579699 
L 350.148539 193.722213 
L 351.331397 197.017452 
L 352.514254 201.593641 
L 353.697112 207.40547 
L 356.062828 221.614772 
L 358.428543 236.223397 
L 359.611401 242.540597 
L 360.794259 247.81426 
L 361.977116 251.957883 
L 363.159974 255.031501 
L 364.342832 257.196454 
L 365.52569 258.659365 
L 366.708547 259.621079 
L 367.891405 260.24274 
L 369.074263 260.634138 
L 370.25712 260.861191 
L 372.622836 260.969302 
L 374.988551 260.799544 
L 383.268556 259.976094 
L 384.451413 260.074285 
L 386.817129 260.604833 
L 391.54856 262.307522 
L 391.54856 262.307522 
" clip-path="url(#p1dc00c7e79)" style="fill: none; stroke: #f25022; stroke-width: 1.5; stroke-linecap: square"/>
   </g>
   <g id="patch_203">
    <path d="M 75.69875 263.518594 
L 75.69875 14.038594 
" style="fill: none; stroke: #000000; stroke-width: 0.8; stroke-linejoin: miter; stroke-linecap: square"/>
   </g>
   <g id="patch_204">
    <path d="M 410.49875 263.518594 
L 410.49875 14.038594 
" style="fill: none; stroke: #000000; stroke-width: 0.8; stroke-linejoin: miter; stroke-linecap: square"/>
   </g>
   <g id="patch_205">
    <path d="M 75.69875 263.518594 
L 410.49875 263.518594 
" style="fill: none; stroke: #000000; stroke-width: 0.8; stroke-linejoin: miter; stroke-linecap: square"/>
   </g>
   <g id="patch_206">
    <path d="M 75.69875 14.038594 
L 410.49875 14.038594 
" style="fill: none; stroke: #000000; stroke-width: 0.8; stroke-linejoin: miter; stroke-linecap: square"/>
   </g>
   <g id="legend_1">
    <g id="patch_207">
     <path d="M 257.465 81.279844 
L 397.89875 81.279844 
Q 401.49875 81.279844 401.49875 77.679844 
L 401.49875 26.638594 
Q 401.49875 23.038594 397.89875 23.038594 
L 257.465 23.038594 
Q 253.865 23.038594 253.865 26.638594 
L 253.865 77.679844 
Q 253.865 81.279844 257.465 81.279844 
z
" style="fill: #ffffff; opacity: 0.8; stroke: #cccccc; stroke-linejoin: miter"/>
    </g>
    <g id="patch_208">
     <path d="M 261.065 43.915781 
L 297.065 43.915781 
L 297.065 31.315781 
L 261.065 31.315781 
z
" style="fill: #00a4ef; fill-opacity: 0.5"/>
    </g>
    <g id="text_21">
     <!-- Downlink -->
     <g transform="translate(311.465 43.915781) scale(0.18 -0.18)">
      <defs>
       <path id="DejaVuSans-44" d="M 1259 4147 
L 1259 519 
L 2022 519 
Q 2988 519 3436 956 
Q 3884 1394 3884 2338 
Q 3884 3275 3436 3711 
Q 2988 4147 2022 4147 
L 1259 4147 
z
M 628 4666 
L 1925 4666 
Q 3281 4666 3915 4102 
Q 4550 3538 4550 2338 
Q 4550 1131 3912 565 
Q 3275 0 1925 0 
L 628 0 
L 628 4666 
z
" transform="scale(0.015625)"/>
       <path id="DejaVuSans-6b" d="M 581 4863 
L 1159 4863 
L 1159 1991 
L 2875 3500 
L 3609 3500 
L 1753 1863 
L 3688 0 
L 2938 0 
L 1159 1709 
L 1159 0 
L 581 0 
L 581 4863 
z
" transform="scale(0.015625)"/>
      </defs>
      <use xlink:href="#DejaVuSans-44"/>
      <use xlink:href="#DejaVuSans-6f" x="77.001953"/>
      <use xlink:href="#DejaVuSans-77" x="138.183594"/>
      <use xlink:href="#DejaVuSans-6e" x="219.970703"/>
      <use xlink:href="#DejaVuSans-6c" x="283.349609"/>
      <use xlink:href="#DejaVuSans-69" x="311.132812"/>
      <use xlink:href="#DejaVuSans-6e" x="338.916016"/>
      <use xlink:href="#DejaVuSans-6b" x="402.294922"/>
     </g>
    </g>
    <g id="patch_209">
     <path d="M 261.065 70.336406 
L 297.065 70.336406 
L 297.065 57.736406 
L 261.065 57.736406 
z
" style="fill: #f25022; fill-opacity: 0.5"/>
    </g>
    <g id="text_22">
     <!-- Uplink -->
     <g transform="translate(311.465 70.336406) scale(0.18 -0.18)">
      <defs>
       <path id="DejaVuSans-55" d="M 556 4666 
L 1191 4666 
L 1191 1831 
Q 1191 1081 1462 751 
Q 1734 422 2344 422 
Q 2950 422 3222 751 
Q 3494 1081 3494 1831 
L 3494 4666 
L 4128 4666 
L 4128 1753 
Q 4128 841 3676 375 
Q 3225 -91 2344 -91 
Q 1459 -91 1007 375 
Q 556 841 556 1753 
L 556 4666 
z
" transform="scale(0.015625)"/>
       <path id="DejaVuSans-70" d="M 1159 525 
L 1159 -1331 
L 581 -1331 
L 581 3500 
L 1159 3500 
L 1159 2969 
Q 1341 3281 1617 3432 
Q 1894 3584 2278 3584 
Q 2916 3584 3314 3078 
Q 3713 2572 3713 1747 
Q 3713 922 3314 415 
Q 2916 -91 2278 -91 
Q 1894 -91 1617 61 
Q 1341 213 1159 525 
z
M 3116 1747 
Q 3116 2381 2855 2742 
Q 2594 3103 2138 3103 
Q 1681 3103 1420 2742 
Q 1159 2381 1159 1747 
Q 1159 1113 1420 752 
Q 1681 391 2138 391 
Q 2594 391 2855 752 
Q 3116 1113 3116 1747 
z
" transform="scale(0.015625)"/>
      </defs>
      <use xlink:href="#DejaVuSans-55"/>
      <use xlink:href="#DejaVuSans-70" x="73.193359"/>
      <use xlink:href="#DejaVuSans-6c" x="136.669922"/>
      <use xlink:href="#DejaVuSans-69" x="164.453125"/>
      <use xlink:href="#DejaVuSans-6e" x="192.236328"/>
      <use xlink:href="#DejaVuSans-6b" x="255.615234"/>
     </g>
    </g>
   </g>
  </g>
 </g>
 <defs>
  <clipPath id="p1dc00c7e79">
   <rect x="75.69875" y="14.038594" width="334.8" height="249.48"/>
  </clipPath>
 </defs>
</svg>
