<svg width="548" height="65" xmlns="http://www.w3.org/2000/svg" xmlns:xlink="http://www.w3.org/1999/xlink" xml:space="preserve" overflow="hidden"><defs><clipPath id="clip0"><rect x="200" y="223" width="548" height="65"/></clipPath></defs><g clip-path="url(#clip0)" transform="translate(-200 -223)"><path d="M0 719.982 458.142 719.982" stroke="#000000" stroke-width="0.882331" stroke-linecap="round" stroke-linejoin="round" stroke-miterlimit="3" fill="none" fill-rule="evenodd" transform="matrix(1.00003 0 0 1 259.073 -463.86)"/><path d="M7.72922 2.57641 0 0 7.72922-2.57641 7.72922 2.57641" fill-rule="evenodd" transform="matrix(-1.00003 0 0 -1 724.957 256.122)"/><path d="M0 698.806 101.645 698.806 101.645 719.982 1.79511e-06 719.982Z" fill="#FFFFFF" fill-rule="evenodd" transform="matrix(1.00003 0 0 1 381.897 -480.805)"/><text fill="#6AA84F" font-family="Times New Roman,Times New Roman_MSFontService,sans-serif" font-weight="400" font-size="10" transform="matrix(1.17647 0 0 1.17644 391.768 232)">DP slot </text><text fill="#6AA84F" font-family="Times New Roman,Times New Roman_MSFontService,sans-serif" font-style="italic" font-weight="400" font-size="10" transform="matrix(1.17647 0 0 1.17644 431.768 232)">s</text><text fill="#6AA84F" font-family="Times New Roman,Times New Roman_MSFontService,sans-serif" font-weight="400" font-size="10" transform="matrix(1.17647 0 0 1.17644 436.474 232)"> </text><text fill="#6AA84F" font-family="Times New Roman,Times New Roman_MSFontService,sans-serif" font-weight="400" font-size="10" transform="matrix(1.17647 0 0 1.17644 440.003 232)">+ </text><text fill="#6AA84F" font-family="Times New Roman,Times New Roman_MSFontService,sans-serif" font-style="italic" font-weight="400" font-size="10" transform="matrix(1.17647 0 0 1.17644 450.591 232)">H</text><text fill="#6AA84F" font-family="Times New Roman,Times New Roman_MSFontService,sans-serif" font-weight="400" font-size="10" transform="matrix(1.17647 0 0 1.17644 458.827 232)"> </text><text fill="#6AA84F" font-family="Times New Roman,Times New Roman_MSFontService,sans-serif" font-weight="400" font-size="10" transform="matrix(1.17647 0 0 1.17644 462.356 232)">+ </text><text fill="#6AA84F" font-family="Times New Roman,Times New Roman_MSFontService,sans-serif" font-weight="400" font-size="10" transform="matrix(1.17647 0 0 1.17644 472.944 232)">1</text><path d="M0 698.806 101.645 698.806 101.645 719.982 1.79511e-06 719.982Z" fill="#FFFFFF" fill-rule="evenodd" transform="matrix(1.00003 0 0 1 508.956 -480.805)"/><text fill="#6AA84F" font-family="Times New Roman,Times New Roman_MSFontService,sans-serif" font-weight="400" font-size="10" transform="matrix(1.17647 0 0 1.17644 516.862 232)">DP slot </text><text fill="#6AA84F" font-family="Times New Roman,Times New Roman_MSFontService,sans-serif" font-style="italic" font-weight="400" font-size="10" transform="matrix(1.17647 0 0 1.17644 556.862 232)">s</text><text fill="#6AA84F" font-family="Times New Roman,Times New Roman_MSFontService,sans-serif" font-weight="400" font-size="10" transform="matrix(1.17647 0 0 1.17644 561.568 232)"> </text><text fill="#6AA84F" font-family="Times New Roman,Times New Roman_MSFontService,sans-serif" font-weight="400" font-size="10" transform="matrix(1.17647 0 0 1.17644 565.097 232)">+ </text><text fill="#6AA84F" font-family="Times New Roman,Times New Roman_MSFontService,sans-serif" font-style="italic" font-weight="400" font-size="10" transform="matrix(1.17647 0 0 1.17644 575.686 232)">H</text><text fill="#6AA84F" font-family="Times New Roman,Times New Roman_MSFontService,sans-serif" font-weight="400" font-size="10" transform="matrix(1.17647 0 0 1.17644 583.921 232)"> </text><text fill="#6AA84F" font-family="Times New Roman,Times New Roman_MSFontService,sans-serif" font-weight="400" font-size="10" transform="matrix(1.17647 0 0 1.17644 587.45 232)">+ </text><text fill="#6AA84F" font-family="Times New Roman,Times New Roman_MSFontService,sans-serif" font-style="italic" font-weight="400" font-size="10" transform="matrix(1.17647 0 0 1.17644 598.039 232)">M</text><path d="M0 698.806 118.585 698.806 118.585 719.982 3.59022e-06 719.982Z" fill="#FFFFFF" fill-rule="evenodd" transform="matrix(1.00003 0 0 1 627.545 -480.805)"/><text fill="#6AA84F" font-family="Times New Roman,Times New Roman_MSFontService,sans-serif" font-weight="400" font-size="10" transform="matrix(1.17647 0 0 1.17644 634.721 232)">DP slot </text><text fill="#6AA84F" font-family="Times New Roman,Times New Roman_MSFontService,sans-serif" font-style="italic" font-weight="400" font-size="10" transform="matrix(1.17647 0 0 1.17644 674.721 232)">s</text><text fill="#6AA84F" font-family="Times New Roman,Times New Roman_MSFontService,sans-serif" font-weight="400" font-size="10" transform="matrix(1.17647 0 0 1.17644 679.427 232)"> </text><text fill="#6AA84F" font-family="Times New Roman,Times New Roman_MSFontService,sans-serif" font-weight="400" font-size="10" transform="matrix(1.17647 0 0 1.17644 682.956 232)">+ </text><text fill="#6AA84F" font-family="Times New Roman,Times New Roman_MSFontService,sans-serif" font-style="italic" font-weight="400" font-size="10" transform="matrix(1.17647 0 0 1.17644 693.545 232)">H</text><text fill="#6AA84F" font-family="Times New Roman,Times New Roman_MSFontService,sans-serif" font-weight="400" font-size="10" transform="matrix(1.17647 0 0 1.17644 701.78 232)"> </text><text fill="#6AA84F" font-family="Times New Roman,Times New Roman_MSFontService,sans-serif" font-weight="400" font-size="10" transform="matrix(1.17647 0 0 1.17644 705.309 232)">+ </text><text fill="#6AA84F" font-family="Times New Roman,Times New Roman_MSFontService,sans-serif" font-style="italic" font-weight="400" font-size="10" transform="matrix(1.17647 0 0 1.17644 715.898 232)">M</text><text fill="#6AA84F" font-family="Times New Roman,Times New Roman_MSFontService,sans-serif" font-weight="400" font-size="10" transform="matrix(1.17647 0 0 1.17644 725.31 232)"> </text><text fill="#6AA84F" font-family="Times New Roman,Times New Roman_MSFontService,sans-serif" font-weight="400" font-size="10" transform="matrix(1.17647 0 0 1.17644 728.839 232)">+ </text><text fill="#6AA84F" font-family="Times New Roman,Times New Roman_MSFontService,sans-serif" font-weight="400" font-size="10" transform="matrix(1.17647 0 0 1.17644 739.427 232)">1</text><path d="M0 698.806 118.585 698.806 118.585 719.982 3.59022e-06 719.982Z" fill="#FFFFFF" fill-rule="evenodd" transform="matrix(1.00003 0 0 1 373.426 -425.744)"/><text fill="#3333B3" font-family="Times New Roman,Times New Roman_MSFontService,sans-serif" font-weight="400" font-size="10" transform="matrix(1.17647 0 0 1.17644 379.626 287)">DU slot </text><text fill="#3333B3" font-family="Times New Roman,Times New Roman_MSFontService,sans-serif" font-style="italic" font-weight="400" font-size="10" transform="matrix(1.17647 0 0 1.17644 420.803 287)">s</text><text fill="#3333B3" font-family="Times New Roman,Times New Roman_MSFontService,sans-serif" font-weight="400" font-size="10" transform="matrix(1.17647 0 0 1.17644 425.509 287)"> </text><text fill="#3333B3" font-family="Times New Roman,Times New Roman_MSFontService,sans-serif" font-weight="400" font-size="10" transform="matrix(1.17647 0 0 1.17644 429.038 287)">+ </text><text fill="#3333B3" font-family="Times New Roman,Times New Roman_MSFontService,sans-serif" font-style="italic" font-weight="400" font-size="10" transform="matrix(1.17647 0 0 1.17644 439.627 287)">H</text><text fill="#3333B3" font-family="Times New Roman,Times New Roman_MSFontService,sans-serif" font-weight="400" font-size="10" transform="matrix(1.17647 0 0 1.17644 447.862 287)"> </text><text fill="#3333B3" font-family="Times New Roman,Times New Roman_MSFontService,sans-serif" font-weight="400" font-size="10" transform="matrix(1.17647 0 0 1.17644 451.391 287)">+ </text><text fill="#3333B3" font-family="Times New Roman,Times New Roman_MSFontService,sans-serif" font-style="italic" font-weight="400" font-size="10" transform="matrix(1.17647 0 0 1.17644 461.979 287)">M</text><text fill="#3333B3" font-family="Times New Roman,Times New Roman_MSFontService,sans-serif" font-weight="400" font-size="10" transform="matrix(1.17647 0 0 1.17644 471.391 287)"> </text><text fill="#3333B3" font-family="Times New Roman,Times New Roman_MSFontService,sans-serif" font-weight="400" font-size="10" transform="matrix(1.17647 0 0 1.17644 474.921 287)">+ </text><text fill="#3333B3" font-family="Times New Roman,Times New Roman_MSFontService,sans-serif" font-weight="400" font-size="10" transform="matrix(1.17647 0 0 1.17644 485.509 287)">1</text><path d="M0 698.806 101.645 698.806 101.645 719.982 1.79511e-06 719.982Z" fill="#FFFFFF" fill-rule="evenodd" transform="matrix(1.00003 0 0 1 254.838 -480.805)"/><text fill="#6AA84F" font-family="Times New Roman,Times New Roman_MSFontService,sans-serif" font-weight="400" font-size="10" transform="matrix(1.17647 0 0 1.17644 273.909 232)">DP slot </text><text fill="#6AA84F" font-family="Times New Roman,Times New Roman_MSFontService,sans-serif" font-style="italic" font-weight="400" font-size="10" transform="matrix(1.17647 0 0 1.17644 313.909 232)">s</text><text fill="#6AA84F" font-family="Times New Roman,Times New Roman_MSFontService,sans-serif" font-weight="400" font-size="10" transform="matrix(1.17647 0 0 1.17644 318.614 232)"> </text><text fill="#6AA84F" font-family="Times New Roman,Times New Roman_MSFontService,sans-serif" font-weight="400" font-size="10" transform="matrix(1.17647 0 0 1.17644 322.144 232)">+ </text><text fill="#6AA84F" font-family="Times New Roman,Times New Roman_MSFontService,sans-serif" font-style="italic" font-weight="400" font-size="10" transform="matrix(1.17647 0 0 1.17644 332.732 232)">H</text><path d="M0 698.806 101.645 698.806 101.645 719.982 1.79511e-06 719.982Z" fill="#FFFFFF" fill-rule="evenodd" transform="matrix(1.00003 0 0 1 254.838 -425.744)"/><text fill="#3333B3" font-family="Times New Roman,Times New Roman_MSFontService,sans-serif" font-weight="400" font-size="10" transform="matrix(1.17647 0 0 1.17644 261.767 287)">DU slot </text><text fill="#3333B3" font-family="Times New Roman,Times New Roman_MSFontService,sans-serif" font-style="italic" font-weight="400" font-size="10" transform="matrix(1.17647 0 0 1.17644 302.944 287)">s</text><text fill="#3333B3" font-family="Times New Roman,Times New Roman_MSFontService,sans-serif" font-weight="400" font-size="10" transform="matrix(1.17647 0 0 1.17644 307.65 287)"> </text><text fill="#3333B3" font-family="Times New Roman,Times New Roman_MSFontService,sans-serif" font-weight="400" font-size="10" transform="matrix(1.17647 0 0 1.17644 311.179 287)">+ </text><text fill="#3333B3" font-family="Times New Roman,Times New Roman_MSFontService,sans-serif" font-style="italic" font-weight="400" font-size="10" transform="matrix(1.17647 0 0 1.17644 321.767 287)">H</text><text fill="#3333B3" font-family="Times New Roman,Times New Roman_MSFontService,sans-serif" font-weight="400" font-size="10" transform="matrix(1.17647 0 0 1.17644 330.003 287)"> </text><text fill="#3333B3" font-family="Times New Roman,Times New Roman_MSFontService,sans-serif" font-weight="400" font-size="10" transform="matrix(1.17647 0 0 1.17644 333.532 287)">+ </text><text fill="#3333B3" font-family="Times New Roman,Times New Roman_MSFontService,sans-serif" font-style="italic" font-weight="400" font-size="10" transform="matrix(1.17647 0 0 1.17644 344.12 287)">M</text><path d="M0 719.982 33.8815 719.982" stroke="#000000" stroke-width="0.588221" stroke-linecap="round" stroke-linejoin="round" stroke-miterlimit="3" fill="none" fill-rule="evenodd" transform="matrix(6.1234e-17 1 -1.00003 6.12323e-17 1025.66 239.178)"/><path d="M0 719.982 33.8815 719.982" stroke="#000000" stroke-width="0.588221" stroke-linecap="round" stroke-linejoin="round" stroke-miterlimit="3" fill="none" fill-rule="evenodd" transform="matrix(6.1234e-17 1 -1.00003 6.12323e-17 1406.84 239.178)"/><path d="M0 719.982 33.8815 719.982" stroke="#000000" stroke-width="0.588221" stroke-linecap="round" stroke-linejoin="round" stroke-miterlimit="3" fill="none" fill-rule="evenodd" transform="matrix(6.1234e-17 1 -1.00003 6.12323e-17 1152.72 239.178)"/><path d="M0 719.982 33.8815 719.982" stroke="#000000" stroke-width="0.588221" stroke-linecap="round" stroke-linejoin="round" stroke-miterlimit="3" fill="none" fill-rule="evenodd" transform="matrix(6.1234e-17 1 -1.00003 6.12323e-17 1279.78 239.178)"/><path d="M0 698.806 118.585 698.806 118.585 719.982 3.59022e-06 719.982Z" fill="#FFFFFF" fill-rule="evenodd" transform="matrix(1.00003 0 0 1 500.485 -425.744)"/><text fill="#3333B3" font-family="Times New Roman,Times New Roman_MSFontService,sans-serif" font-weight="400" font-size="10" transform="matrix(1.17647 0 0 1.17644 512.944 287)">DU slot </text><text fill="#3333B3" font-family="Times New Roman,Times New Roman_MSFontService,sans-serif" font-style="italic" font-weight="400" font-size="10" transform="matrix(1.17647 0 0 1.17644 554.121 287)">s</text><text fill="#3333B3" font-family="Times New Roman,Times New Roman_MSFontService,sans-serif" font-weight="400" font-size="10" transform="matrix(1.17647 0 0 1.17644 558.827 287)"> </text><text fill="#3333B3" font-family="Times New Roman,Times New Roman_MSFontService,sans-serif" font-weight="400" font-size="10" transform="matrix(1.17647 0 0 1.17644 562.356 287)">+ </text><text fill="#3333B3" font-family="Times New Roman,Times New Roman_MSFontService,sans-serif" font-style="italic" font-weight="400" font-size="10" transform="matrix(1.17647 0 0 1.17644 572.944 287)">H</text><text fill="#3333B3" font-family="Times New Roman,Times New Roman_MSFontService,sans-serif" font-weight="400" font-size="10" transform="matrix(1.17647 0 0 1.17644 581.18 287)"> </text><text fill="#3333B3" font-family="Times New Roman,Times New Roman_MSFontService,sans-serif" font-weight="400" font-size="10" transform="matrix(1.17647 0 0 1.17644 584.709 287)">+ </text><text fill="#3333B3" font-family="Times New Roman,Times New Roman_MSFontService,sans-serif" font-weight="400" font-size="10" transform="matrix(1.17647 0 0 1.17644 595.297 287)">2</text><text fill="#3333B3" font-family="Times New Roman,Times New Roman_MSFontService,sans-serif" font-style="italic" font-weight="400" font-size="10" transform="matrix(1.17647 0 0 1.17644 601.18 287)">M</text><path d="M0 688.218 31.3323 688.218 31.3323 719.982 5.99566e-07 719.982Z" fill="#FFFFFF" fill-rule="evenodd" transform="matrix(1.00003 0 0 1 480.583 -447.131)"/><text font-family="Times New Roman,Times New Roman_MSFontService,sans-serif" font-weight="400" font-size="14" transform="matrix(1.17647 0 0 1.17644 488.018 262)">···</text><path d="M0 703.823 46.5871 703.823 46.5871 719.983-1.79511e-06 719.983Z" fill="#90AADB" fill-rule="evenodd" transform="matrix(1.00003 0 0 1 306.322 -446.924)"/><path d="M0 703.823 2.91275 703.823 2.91275 719.983-7.67409e-08 719.983Z" fill="#93C47D" fill-rule="evenodd" transform="matrix(1.00003 0 0 1 302.089 -464.644)"/><path d="M0 703.823 1.3235 703.823 1.3235 719.983 0 719.983Z" fill="#D9EAD3" fill-rule="evenodd" transform="matrix(1.00003 0 0 1 306.319 -464.644)"/><path d="M0 703.823 2.91275 703.823 2.91275 719.983-7.67409e-08 719.983Z" fill="#93C47D" fill-rule="evenodd" transform="matrix(1.00003 0 0 1 429.148 -464.644)"/><path d="M0 703.823 1.3235 703.823 1.3235 719.983 0 719.983Z" fill="#D9EAD3" fill-rule="evenodd" transform="matrix(1.00003 0 0 1 433.378 -464.644)"/><path d="M0 703.823 2.91275 703.823 2.91275 719.983-7.67409e-08 719.983Z" fill="#93C47D" fill-rule="evenodd" transform="matrix(1.00003 0 0 1 556.207 -464.644)"/><path d="M0 703.823 1.3235 703.823 1.3235 719.983 0 719.983Z" fill="#D9EAD3" fill-rule="evenodd" transform="matrix(1.00003 0 0 1 560.437 -464.644)"/><path d="M0 703.823 2.91275 703.823 2.91275 719.983-7.67409e-08 719.983Z" fill="#93C47D" fill-rule="evenodd" transform="matrix(1.00003 0 0 1 683.266 -464.644)"/><path d="M0 703.823 1.3235 703.823 1.3235 719.983 0 719.983Z" fill="#D9EAD3" fill-rule="evenodd" transform="matrix(1.00003 0 0 1 687.496 -464.644)"/><text fill="#6AA84F" font-family="Times New Roman,Times New Roman_MSFontService,sans-serif" font-weight="700" font-size="10" transform="matrix(1.17647 0 0 1.17644 206.567 234)">RU</text><text fill="#6AA84F" font-family="Times New Roman,Times New Roman_MSFontService,sans-serif" font-weight="700" font-size="10" transform="matrix(1.17647 0 0 1.17644 223.038 234)">-</text><text fill="#6AA84F" font-family="Times New Roman,Times New Roman_MSFontService,sans-serif" font-weight="700" font-size="10" transform="matrix(1.17647 0 0 1.17644 226.567 234)">DL </text><text fill="#6AA84F" font-family="Times New Roman,Times New Roman_MSFontService,sans-serif" font-weight="700" font-size="10" transform="matrix(1.17647 0 0 1.17644 200.697 248)">Processor</text><text fill="#3333B3" font-family="Times New Roman,Times New Roman_MSFontService,sans-serif" font-weight="700" font-size="10" transform="matrix(1.17647 0 0 1.17644 216.697 271)">DU </text><text fill="#3333B3" font-family="Times New Roman,Times New Roman_MSFontService,sans-serif" font-weight="700" font-size="10" transform="matrix(1.17647 0 0 1.17644 200.697 285)">Processor</text><text font-family="Cambria Math,Cambria Math_MSFontService,sans-serif" font-weight="400" font-size="10" transform="matrix(1.17647 0 0 1.17644 273.418 251)">①</text><path d="M3.56462 719.982 3.98814 719.982 15.2467 719.982" stroke="#000000" stroke-width="0.588221" stroke-linecap="round" stroke-linejoin="round" stroke-miterlimit="3" fill="none" fill-rule="evenodd" transform="matrix(-1.00003 1.22465e-16 -1.22468e-16 -1 301.426 967.241)"/><path d="M4.56459 2.2823 0 0 4.52162-2.2672C3.81538-0.831931 3.81831 0.850477 4.52956 2.28328" fill-rule="evenodd" transform="matrix(-1.00003 1.22465e-16 -1.22468e-16 -1 301.432 247.259)"/><path d="M3.56462 719.982 3.98814 719.982 15.2467 719.982" stroke="#000000" stroke-width="0.588221" stroke-linecap="round" stroke-linejoin="round" stroke-miterlimit="3" fill="none" fill-rule="evenodd" transform="matrix(-1.00003 1.22465e-16 -1.22468e-16 -1 304.736 984.96)"/><path d="M4.56459 2.2823 0 0 4.52162-2.2672C3.81538-0.831931 3.81831 0.850477 4.52956 2.28328" fill-rule="evenodd" transform="matrix(-1.00003 1.22465e-16 -1.22468e-16 -1 304.742 264.978)"/><text font-family="Cambria Math,Cambria Math_MSFontService,sans-serif" font-weight="400" font-size="10" transform="matrix(1.17647 0 0 1.17644 276.72 269)">②</text><path d="M3.56462 719.982 3.98814 719.982 15.2467 719.982" stroke="#000000" stroke-width="0.588221" stroke-linecap="round" stroke-linejoin="round" stroke-miterlimit="3" fill="none" fill-rule="evenodd" transform="matrix(-1.00003 1.22465e-16 -1.22468e-16 -1 682.815 967.241)"/><path d="M4.56459 2.2823 0 0 4.52162-2.2672C3.81538-0.831931 3.81831 0.850477 4.52956 2.28328" fill-rule="evenodd" transform="matrix(-1.00003 1.22465e-16 -1.22468e-16 -1 682.821 247.259)"/><text font-family="Cambria Math,Cambria Math_MSFontService,sans-serif" font-weight="400" font-size="10" transform="matrix(1.17647 0 0 1.17644 654.806 251)">③</text><path d="M0 698.806 127.056 698.806 127.056 719.982 0 719.982Z" fill="#FFFFFF" fill-rule="evenodd" transform="matrix(1.00003 0 0 1 623.309 -425.744)"/><text fill="#3333B3" font-family="Times New Roman,Times New Roman_MSFontService,sans-serif" font-weight="400" font-size="10" transform="matrix(1.17647 0 0 1.17644 630.803 287)">DU slot </text><text fill="#3333B3" font-family="Times New Roman,Times New Roman_MSFontService,sans-serif" font-style="italic" font-weight="400" font-size="10" transform="matrix(1.17647 0 0 1.17644 671.98 287)">s</text><text fill="#3333B3" font-family="Times New Roman,Times New Roman_MSFontService,sans-serif" font-weight="400" font-size="10" transform="matrix(1.17647 0 0 1.17644 676.686 287)"> </text><text fill="#3333B3" font-family="Times New Roman,Times New Roman_MSFontService,sans-serif" font-weight="400" font-size="10" transform="matrix(1.17647 0 0 1.17644 680.215 287)">+ </text><text fill="#3333B3" font-family="Times New Roman,Times New Roman_MSFontService,sans-serif" font-style="italic" font-weight="400" font-size="10" transform="matrix(1.17647 0 0 1.17644 690.804 287)">H</text><text fill="#3333B3" font-family="Times New Roman,Times New Roman_MSFontService,sans-serif" font-weight="400" font-size="10" transform="matrix(1.17647 0 0 1.17644 699.039 287)"> </text><text fill="#3333B3" font-family="Times New Roman,Times New Roman_MSFontService,sans-serif" font-weight="400" font-size="10" transform="matrix(1.17647 0 0 1.17644 702.568 287)">+ </text><text fill="#3333B3" font-family="Times New Roman,Times New Roman_MSFontService,sans-serif" font-weight="400" font-size="10" transform="matrix(1.17647 0 0 1.17644 713.157 287)">2</text><text fill="#3333B3" font-family="Times New Roman,Times New Roman_MSFontService,sans-serif" font-style="italic" font-weight="400" font-size="10" transform="matrix(1.17647 0 0 1.17644 719.039 287)">M</text><text fill="#3333B3" font-family="Times New Roman,Times New Roman_MSFontService,sans-serif" font-weight="400" font-size="10" transform="matrix(1.17647 0 0 1.17644 728.451 287)"> </text><text fill="#3333B3" font-family="Times New Roman,Times New Roman_MSFontService,sans-serif" font-weight="400" font-size="10" transform="matrix(1.17647 0 0 1.17644 731.98 287)">+ </text><text fill="#3333B3" font-family="Times New Roman,Times New Roman_MSFontService,sans-serif" font-weight="400" font-size="10" transform="matrix(1.17647 0 0 1.17644 742.568 287)">1</text></g></svg>