<svg width="526" height="65" xmlns="http://www.w3.org/2000/svg" xmlns:xlink="http://www.w3.org/1999/xlink" xml:space="preserve" overflow="hidden"><defs><clipPath id="clip0"><rect x="200" y="223" width="526" height="65"/></clipPath></defs><g clip-path="url(#clip0)" transform="translate(-200 -223)"><path d="M0 703.828 4.63227 703.828 4.63227 719.988 0 719.988Z" fill="#93C47D" fill-rule="evenodd" transform="matrix(1 0 0 1.00388 619.056 -467.573)"/><path d="M0 703.828 3.30877 703.828 3.30877 719.988 0 719.988Z" fill="#D9EAD3" fill-rule="evenodd" transform="matrix(1 0 0 1.00388 624.026 -467.573)"/><path d="M0 698.811 101.645 698.811 101.645 719.987 1.79512e-06 719.987Z" fill="#FFFFFF" fill-rule="evenodd" transform="matrix(1 0 0 1.00388 381.884 -483.797)"/><text fill="#6AA84F" font-family="Times New Roman,Times New Roman_MSFontService,sans-serif" font-weight="400" font-size="10" transform="matrix(1.17645 0 0 1.18102 402.26 232)">DP slot </text><text fill="#6AA84F" font-family="Times New Roman,Times New Roman_MSFontService,sans-serif" font-style="italic" font-weight="400" font-size="10" transform="matrix(1.17645 0 0 1.18102 442.26 232)">s</text><text fill="#6AA84F" font-family="Times New Roman,Times New Roman_MSFontService,sans-serif" font-weight="400" font-size="10" transform="matrix(1.17645 0 0 1.18102 446.965 232)"> </text><text fill="#6AA84F" font-family="Times New Roman,Times New Roman_MSFontService,sans-serif" font-weight="400" font-size="10" transform="matrix(1.17645 0 0 1.18102 450.495 232)">+ </text><text fill="#6AA84F" font-family="Times New Roman,Times New Roman_MSFontService,sans-serif" font-weight="400" font-size="10" transform="matrix(1.17645 0 0 1.18102 461.083 232)">1</text><path d="M0 698.811 101.645 698.811 101.645 719.987 1.79512e-06 719.987Z" fill="#FFFFFF" fill-rule="evenodd" transform="matrix(1 0 0 1.00388 508.941 -483.797)"/><text fill="#6AA84F" font-family="Times New Roman,Times New Roman_MSFontService,sans-serif" font-weight="400" font-size="10" transform="matrix(1.17645 0 0 1.18102 529.317 232)">DP slot </text><text fill="#6AA84F" font-family="Times New Roman,Times New Roman_MSFontService,sans-serif" font-style="italic" font-weight="400" font-size="10" transform="matrix(1.17645 0 0 1.18102 569.316 232)">s</text><text fill="#6AA84F" font-family="Times New Roman,Times New Roman_MSFontService,sans-serif" font-weight="400" font-size="10" transform="matrix(1.17645 0 0 1.18102 574.022 232)"> </text><text fill="#6AA84F" font-family="Times New Roman,Times New Roman_MSFontService,sans-serif" font-weight="400" font-size="10" transform="matrix(1.17645 0 0 1.18102 577.551 232)">+ </text><text fill="#6AA84F" font-family="Times New Roman,Times New Roman_MSFontService,sans-serif" font-weight="400" font-size="10" transform="matrix(1.17645 0 0 1.18102 588.139 232)">2</text><path d="M0 698.811 118.586 698.811 118.586 719.987 3.59024e-06 719.987Z" fill="#FFFFFF" fill-rule="evenodd" transform="matrix(1 0 0 1.00388 627.527 -483.797)"/><text fill="#6AA84F" font-family="Times New Roman,Times New Roman_MSFontService,sans-serif" font-weight="400" font-size="10" transform="matrix(1.17645 0 0 1.18102 656.373 232)">DP slot </text><text fill="#6AA84F" font-family="Times New Roman,Times New Roman_MSFontService,sans-serif" font-style="italic" font-weight="400" font-size="10" transform="matrix(1.17645 0 0 1.18102 696.373 232)">s</text><text fill="#6AA84F" font-family="Times New Roman,Times New Roman_MSFontService,sans-serif" font-weight="400" font-size="10" transform="matrix(1.17645 0 0 1.18102 701.079 232)"> </text><text fill="#6AA84F" font-family="Times New Roman,Times New Roman_MSFontService,sans-serif" font-weight="400" font-size="10" transform="matrix(1.17645 0 0 1.18102 704.608 232)">+ </text><text fill="#6AA84F" font-family="Times New Roman,Times New Roman_MSFontService,sans-serif" font-weight="400" font-size="10" transform="matrix(1.17645 0 0 1.18102 715.196 232)">3</text><path d="M0 698.811 118.586 698.811 118.586 719.987 3.59024e-06 719.987Z" fill="#FFFFFF" fill-rule="evenodd" transform="matrix(1 0 0 1.00388 373.414 -428.522)"/><text fill="#3333B3" font-family="Times New Roman,Times New Roman_MSFontService,sans-serif" font-weight="400" font-size="10" transform="matrix(1.17645 0 0 1.18102 401.284 287)">DU slot </text><text fill="#3333B3" font-family="Times New Roman,Times New Roman_MSFontService,sans-serif" font-style="italic" font-weight="400" font-size="10" transform="matrix(1.17645 0 0 1.18102 442.46 287)">s</text><text fill="#3333B3" font-family="Times New Roman,Times New Roman_MSFontService,sans-serif" font-weight="400" font-size="10" transform="matrix(1.17645 0 0 1.18102 447.165 287)"> </text><text fill="#3333B3" font-family="Times New Roman,Times New Roman_MSFontService,sans-serif" font-weight="400" font-size="10" transform="matrix(1.17645 0 0 1.18102 450.695 287)">+ </text><text fill="#3333B3" font-family="Times New Roman,Times New Roman_MSFontService,sans-serif" font-weight="400" font-size="10" transform="matrix(1.17645 0 0 1.18102 461.283 287)">1</text><path d="M0 698.811 101.645 698.811 101.645 719.987 1.79512e-06 719.987Z" fill="#FFFFFF" fill-rule="evenodd" transform="matrix(1 0 0 1.00388 254.827 -483.797)"/><text fill="#6AA84F" font-family="Times New Roman,Times New Roman_MSFontService,sans-serif" font-weight="400" font-size="10" transform="matrix(1.17645 0 0 1.18102 284.403 232)">DP slot </text><text fill="#6AA84F" font-family="Times New Roman,Times New Roman_MSFontService,sans-serif" font-style="italic" font-weight="400" font-size="10" transform="matrix(1.17645 0 0 1.18102 324.403 232)">s</text><path d="M0 698.811 101.645 698.811 101.645 719.987 1.79512e-06 719.987Z" fill="#FFFFFF" fill-rule="evenodd" transform="matrix(1 0 0 1.00388 254.827 -428.522)"/><text fill="#3333B3" font-family="Times New Roman,Times New Roman_MSFontService,sans-serif" font-weight="400" font-size="10" transform="matrix(1.17645 0 0 1.18102 283.427 287)">DU slot </text><text fill="#3333B3" font-family="Times New Roman,Times New Roman_MSFontService,sans-serif" font-style="italic" font-weight="400" font-size="10" transform="matrix(1.17645 0 0 1.18102 324.603 287)">s</text><path d="M0 719.987 33.8818 719.987" stroke="#000000" stroke-width="0.588225" stroke-linecap="round" stroke-linejoin="round" stroke-miterlimit="3" fill="none" fill-rule="evenodd" transform="matrix(6.12323e-17 1.00388 -1 6.14702e-17 1025.64 238.988)"/><path d="M0 719.987 33.8818 719.987" stroke="#000000" stroke-width="0.588225" stroke-linecap="round" stroke-linejoin="round" stroke-miterlimit="3" fill="none" fill-rule="evenodd" transform="matrix(6.12323e-17 1.00388 -1 6.14702e-17 1406.81 238.988)"/><path d="M0 719.987 33.8818 719.987" stroke="#000000" stroke-width="0.588225" stroke-linecap="round" stroke-linejoin="round" stroke-miterlimit="3" fill="none" fill-rule="evenodd" transform="matrix(6.12323e-17 1.00388 -1 6.14702e-17 1152.69 238.988)"/><path d="M0 719.987 33.8818 719.987" stroke="#000000" stroke-width="0.588225" stroke-linecap="round" stroke-linejoin="round" stroke-miterlimit="3" fill="none" fill-rule="evenodd" transform="matrix(6.12323e-17 1.00388 -1 6.14702e-17 1279.75 238.988)"/><path d="M0 698.811 118.586 698.811 118.586 719.987 3.59024e-06 719.987Z" fill="#FFFFFF" fill-rule="evenodd" transform="matrix(1 0 0 1.00388 500.47 -428.522)"/><text fill="#3333B3" font-family="Times New Roman,Times New Roman_MSFontService,sans-serif" font-weight="400" font-size="10" transform="matrix(1.17645 0 0 1.18102 528.34 287)">DU slot </text><text fill="#3333B3" font-family="Times New Roman,Times New Roman_MSFontService,sans-serif" font-style="italic" font-weight="400" font-size="10" transform="matrix(1.17645 0 0 1.18102 569.516 287)">s</text><text fill="#3333B3" font-family="Times New Roman,Times New Roman_MSFontService,sans-serif" font-weight="400" font-size="10" transform="matrix(1.17645 0 0 1.18102 574.222 287)"> </text><text fill="#3333B3" font-family="Times New Roman,Times New Roman_MSFontService,sans-serif" font-weight="400" font-size="10" transform="matrix(1.17645 0 0 1.18102 577.751 287)">+ </text><text fill="#3333B3" font-family="Times New Roman,Times New Roman_MSFontService,sans-serif" font-weight="400" font-size="10" transform="matrix(1.17645 0 0 1.18102 588.339 287)">2</text><path d="M0 703.828 46.5874 703.828 46.5874 719.988-1.79512e-06 719.988Z" fill="#90AADB" fill-rule="evenodd" transform="matrix(1 0 0 1.00388 306.31 -449.785)"/><text fill="#6AA84F" font-family="Times New Roman,Times New Roman_MSFontService,sans-serif" font-weight="700" font-size="10" transform="matrix(1.17645 0 0 1.18102 206.558 234)">RU</text><text fill="#6AA84F" font-family="Times New Roman,Times New Roman_MSFontService,sans-serif" font-weight="700" font-size="10" transform="matrix(1.17645 0 0 1.18102 223.028 234)">-</text><text fill="#6AA84F" font-family="Times New Roman,Times New Roman_MSFontService,sans-serif" font-weight="700" font-size="10" transform="matrix(1.17645 0 0 1.18102 226.557 234)">DL </text><text fill="#6AA84F" font-family="Times New Roman,Times New Roman_MSFontService,sans-serif" font-weight="700" font-size="10" transform="matrix(1.17645 0 0 1.18102 200.687 248)">Processor</text><text fill="#3333B3" font-family="Times New Roman,Times New Roman_MSFontService,sans-serif" font-weight="700" font-size="10" transform="matrix(1.17645 0 0 1.18102 216.687 271)">DU </text><text fill="#3333B3" font-family="Times New Roman,Times New Roman_MSFontService,sans-serif" font-weight="700" font-size="10" transform="matrix(1.17645 0 0 1.18102 200.687 285)">Processor</text><path d="M0 698.811 127.057 698.811 127.057 719.987 0 719.987Z" fill="#FFFFFF" fill-rule="evenodd" transform="matrix(1 0 0 1.00388 623.292 -428.522)"/><text fill="#3333B3" font-family="Times New Roman,Times New Roman_MSFontService,sans-serif" font-weight="400" font-size="10" transform="matrix(1.17645 0 0 1.18102 655.397 287)">DU slot </text><text fill="#3333B3" font-family="Times New Roman,Times New Roman_MSFontService,sans-serif" font-style="italic" font-weight="400" font-size="10" transform="matrix(1.17645 0 0 1.18102 696.573 287)">s</text><text fill="#3333B3" font-family="Times New Roman,Times New Roman_MSFontService,sans-serif" font-weight="400" font-size="10" transform="matrix(1.17645 0 0 1.18102 701.279 287)"> </text><text fill="#3333B3" font-family="Times New Roman,Times New Roman_MSFontService,sans-serif" font-weight="400" font-size="10" transform="matrix(1.17645 0 0 1.18102 704.808 287)">+ </text><text fill="#3333B3" font-family="Times New Roman,Times New Roman_MSFontService,sans-serif" font-weight="400" font-size="10" transform="matrix(1.17645 0 0 1.18102 715.396 287)">3</text><path d="M0 703.828 58.6293 703.828 58.6293 719.988 2.01053e-07 719.988Z" fill="#90AADB" fill-rule="evenodd" transform="matrix(1 0 0 1.00388 560.427 -449.785)"/><path d="M0 703.828 4.63227 703.828 4.63227 719.988 0 719.988Z" fill="#93C47D" fill-rule="evenodd" transform="matrix(1 0 0 1.00388 352.863 -467.573)"/><path d="M0 703.828 3.30877 703.828 3.30877 719.988 0 719.988Z" fill="#D9EAD3" fill-rule="evenodd" transform="matrix(1 0 0 1.00388 357.833 -467.573)"/><path d="M0 719.987 59.2931 719.987" stroke="#000000" stroke-width="0.294113" stroke-linecap="round" stroke-linejoin="round" stroke-miterlimit="3" stroke-dasharray="2.05879 1.47056" fill="none" fill-rule="evenodd" transform="matrix(6.12323e-17 -1.00388 1 6.14702e-17 -367.09 285.756)"/><path d="M0 703.828 4.63227 703.828 4.63227 719.988 0 719.988Z" fill="#93C47D" fill-rule="evenodd" transform="matrix(1 0 0 1.00388 498.617 -467.576)"/><path d="M0 703.828 3.30877 703.828 3.30877 719.988 0 719.988Z" fill="#D9EAD3" fill-rule="evenodd" transform="matrix(1 0 0 1.00388 503.587 -467.576)"/><path d="M0 719.987 59.2931 719.987" stroke="#000000" stroke-width="0.294113" stroke-linecap="round" stroke-linejoin="round" stroke-miterlimit="3" stroke-dasharray="2.05879 1.47056" fill="none" fill-rule="evenodd" transform="matrix(-3.49066e-05 -1.00388 1 -3.50422e-05 -100.931 285.782)"/><path d="M3.56464 719.987 3.98817 719.987 15.2468 719.987" stroke="#000000" stroke-width="0.588225" stroke-linecap="round" stroke-linejoin="round" stroke-miterlimit="3" fill="none" fill-rule="evenodd" transform="matrix(-1 1.2294e-16 -1.22465e-16 -1.00388 305.041 969.882)"/><path d="M4.56463 2.28231 0 0 4.52165-2.26722C3.81541-0.831937 3.81833 0.850484 4.52959 2.28329" fill-rule="evenodd" transform="matrix(-1 1.2294e-16 -1.22465e-16 -1.00388 305.047 247.098)"/><text font-family="Cambria Math,Cambria Math_MSFontService,sans-serif" font-weight="400" font-size="10" transform="matrix(1.17645 0 0 1.18102 277.031 251)">②</text><path d="M3.56464 719.987 3.98817 719.987 15.2468 719.987" stroke="#000000" stroke-width="0.588225" stroke-linecap="round" stroke-linejoin="round" stroke-miterlimit="3" fill="none" fill-rule="evenodd" transform="matrix(-1 1.2294e-16 -1.22465e-16 -1.00388 305.041 987.673)"/><path d="M4.56463 2.28231 0 0 4.52165-2.26722C3.81541-0.831937 3.81833 0.850484 4.52959 2.28329" fill-rule="evenodd" transform="matrix(-1 1.2294e-16 -1.22465e-16 -1.00388 305.047 264.889)"/><text font-family="Cambria Math,Cambria Math_MSFontService,sans-serif" font-weight="400" font-size="10" transform="matrix(1.17645 0 0 1.18102 277.031 269)">①</text><path d="M3.56464 719.987 3.98817 719.987 15.2468 719.987" stroke="#000000" stroke-width="0.588225" stroke-linecap="round" stroke-linejoin="round" stroke-miterlimit="3" fill="none" fill-rule="evenodd" transform="matrix(-1 1.2294e-16 -1.22465e-16 -1.00388 352.37 969.884)"/><path d="M4.56463 2.28231 0 0 4.52165-2.26722C3.81541-0.831937 3.81833 0.850484 4.52959 2.28329" fill-rule="evenodd" transform="matrix(-1 1.2294e-16 -1.22465e-16 -1.00388 352.376 247.1)"/><text font-family="Cambria Math,Cambria Math_MSFontService,sans-serif" font-weight="400" font-size="10" transform="matrix(1.17645 0 0 1.18102 324.356 251)">③</text><path d="M0 719.987 458.145 719.987" stroke="#000000" stroke-width="0.882338" stroke-linecap="round" stroke-linejoin="round" stroke-miterlimit="3" fill="none" fill-rule="evenodd" transform="matrix(1 0 0 1.00388 259.063 -466.787)"/><path d="M7.72928 2.57643 0 0 7.72928-2.57643 7.72928 2.57643" fill-rule="evenodd" transform="matrix(-1 0 0 -1.00388 724.937 255.998)"/><path d="M0 703.828 65.2499 703.828 65.2499 719.988 2.11106e-06 719.988Z" fill="#90AADB" fill-rule="evenodd" transform="matrix(1 0 0 1.00388 433.368 -449.785)"/><path d="M0 719.987 59.2931 719.987" stroke="#000000" stroke-width="0.294113" stroke-linecap="round" stroke-linejoin="round" stroke-miterlimit="3" stroke-dasharray="2.05879 1.47056" fill="none" fill-rule="evenodd" transform="matrix(-3.49066e-05 -1.00388 1 -3.50422e-05 -221.37 285.782)"/></g></svg>