<svg width="575" height="173" xmlns="http://www.w3.org/2000/svg" xmlns:xlink="http://www.w3.org/1999/xlink" xml:space="preserve" overflow="hidden"><defs><clipPath id="clip0"><rect x="421" y="195" width="575" height="173"/></clipPath><linearGradient x1="-3.00696e-09" y1="567.758" x2="378.953" y2="567.758" gradientUnits="userSpaceOnUse" spreadMethod="pad" id="fill1"><stop offset="0" stop-color="#FFFFFF"/><stop offset="1" stop-color="#D8D8D8"/></linearGradient><linearGradient x1="0" y1="614.365" x2="216.087" y2="614.365" gradientUnits="userSpaceOnUse" spreadMethod="pad" id="fill2"><stop offset="0" stop-color="#F5F7FC"/><stop offset="0.5" stop-color="#B5C6E7"/><stop offset="1" stop-color="#90AADB"/></linearGradient><linearGradient x1="-8.97938e-08" y1="639.787" x2="68.6394" y2="639.787" gradientUnits="userSpaceOnUse" spreadMethod="pad" id="fill3"><stop offset="0" stop-color="#90AADB"/><stop offset="1" stop-color="#203864"/></linearGradient><linearGradient x1="-9.02084e-10" y1="639.787" x2="63.555" y2="639.787" gradientUnits="userSpaceOnUse" spreadMethod="pad" id="fill4"><stop offset="0" stop-color="#90AADB"/><stop offset="1" stop-color="#305497"/></linearGradient></defs><g clip-path="url(#clip0)" transform="translate(-421 -195)"><path d="M21.185 720.29 357.768 720.29C369.468 720.29 378.952 710.806 378.953 699.106 378.953 699.106 378.953 699.105 378.953 699.105L378.953 588.943C378.953 577.243 369.468 567.758 357.768 567.758 357.768 567.758 357.768 567.758 357.768 567.758L21.185 567.758C9.48504 567.758 0.000195004 577.242-8.3627e-15 588.942-3.92329e-09 588.943-3.92329e-09 588.943-8.3627e-15 588.943L0 699.105C-0.000195004 710.805 9.48434 720.29 21.1843 720.29 21.1845 720.29 21.1848 720.29 21.185 720.29Z" stroke="#000000" stroke-width="0.882709" stroke-linecap="square" stroke-miterlimit="3" fill="url(#fill1)" fill-rule="evenodd" transform="matrix(1 0 0 1.001 515.13 -354.669)"/><path d="M6.3555 720.29 57.1995 720.29C60.7095 720.29 63.555 717.445 63.555 713.935 63.555 713.935 63.555 713.935 63.555 713.935L63.555 646.143C63.5551 642.633 60.7097 639.787 57.1997 639.787 57.1997 639.787 57.1996 639.787 57.1995 639.787L6.3555 639.787C2.84551 639.787 5.86135e-05 642.632 1.12242e-07 646.142 1.11065e-07 646.143 1.11065e-07 646.143 1.12242e-07 646.143L0 713.935C-5.85013e-05 717.445 2.8453 720.29 6.35529 720.29 6.35536 720.29 6.35543 720.29 6.3555 720.29Z" stroke="#000000" stroke-width="0.588472" stroke-linecap="square" stroke-miterlimit="3" fill="#F2F2F2" fill-rule="evenodd" transform="matrix(1 0 0 1.001 531.814 -384.358)"/><text font-family="Times New Roman,Times New Roman_MSFontService,sans-serif" font-weight="700" font-size="10" transform="matrix(1.17694 0 0 1.17813 551.163 293)">RLC </text><text font-family="Times New Roman,Times New Roman_MSFontService,sans-serif" font-weight="700" font-size="10" transform="matrix(1.17694 0 0 1.17813 548.562 307)">Layer</text><text font-family="Times New Roman,Times New Roman_MSFontService,sans-serif" font-weight="700" font-size="12" transform="matrix(1.17694 0 0 1.17813 654.973 205)">Distributed Unit</text><text fill="#7F7F7F" font-family="Times New Roman,Times New Roman_MSFontService,sans-serif" font-weight="400" font-size="10" transform="matrix(1.17694 0 0 1.17813 480.546 268)">DL </text><text fill="#7F7F7F" font-family="Times New Roman,Times New Roman_MSFontService,sans-serif" font-weight="400" font-size="10" transform="matrix(1.17694 0 0 1.17813 477.274 282)">Data</text><text fill="#7F7F7F" font-family="Times New Roman,Times New Roman_MSFontService,sans-serif" font-weight="400" font-size="10" transform="matrix(1.17694 0 0 1.17813 480.546 316)">UL </text><text fill="#7F7F7F" font-family="Times New Roman,Times New Roman_MSFontService,sans-serif" font-weight="400" font-size="10" transform="matrix(1.17694 0 0 1.17813 477.274 330)">Data</text><text fill="#3333B3" font-family="Times New Roman,Times New Roman_MSFontService,sans-serif" font-weight="400" font-size="10" transform="matrix(1.17694 0 0 1.17813 918.544 267)">DL </text><text fill="#3333B3" font-family="Times New Roman,Times New Roman_MSFontService,sans-serif" font-weight="400" font-size="10" transform="matrix(1.17694 0 0 1.17813 905.774 281)">Symbols</text><text fill="#F1C232" font-family="Times New Roman,Times New Roman_MSFontService,sans-serif" font-weight="400" font-size="10" transform="matrix(1.17694 0 0 1.17813 918.544 319)">UL </text><text fill="#F1C232" font-family="Times New Roman,Times New Roman_MSFontService,sans-serif" font-weight="400" font-size="10" transform="matrix(1.17694 0 0 1.17813 905.774 333)">Symbols</text><path d="M0 688.513 31.3457 688.513 31.3457 720.29 5.99822e-07 720.29Z" fill="#FFFFFF" fill-rule="evenodd" transform="matrix(1 0 0 1.001 412.868 -407.897)"/><text font-family="Times New Roman,Times New Roman_MSFontService,sans-serif" font-weight="700" font-size="14" transform="matrix(1.17694 0 0 1.17813 420.295 302)">···</text><path d="M12.0755 720.29 204.012 720.29C210.68 720.288 216.084 714.883 216.087 708.215L216.087 626.441C216.084 619.773 210.68 614.368 204.012 614.365L12.0755 614.365C5.40744 614.368 0.00259837 619.773 2.69381e-07 626.441L0 708.215C0.0025981 714.883 5.40744 720.288 12.0755 720.29Z" stroke="#000000" stroke-width="0.882709" stroke-linecap="square" stroke-miterlimit="3" fill="url(#fill2)" fill-rule="evenodd" transform="matrix(1 0 0 1.001 663.161 -371.634)"/><path d="M6.86159 720.29 61.7778 720.29C65.5669 720.289 68.6382 717.218 68.6394 713.429L68.6394 646.649C68.6382 642.86 65.5669 639.788 61.7778 639.787L6.86159 639.787C3.07255 639.788 0.00123416 642.86-8.97938e-08 646.649L0 713.429C0.00123425 717.218 3.07255 720.289 6.86159 720.29Z" stroke="#000000" stroke-width="0.588472" stroke-linecap="square" stroke-miterlimit="3" fill="url(#fill3)" fill-rule="evenodd" transform="matrix(1 0 0 1.001 675.872 -384.358)"/><text fill="#FFFFFF" font-family="Times New Roman,Times New Roman_MSFontService,sans-serif" font-weight="700" font-size="10" transform="matrix(1.17694 0 0 1.17813 696.139 286)">MAC </text><text fill="#FFFFFF" font-family="Times New Roman,Times New Roman_MSFontService,sans-serif" font-weight="700" font-size="10" transform="matrix(1.17694 0 0 1.17813 695.162 300)">Layer </text><text fill="#FFFFFF" font-family="Times New Roman,Times New Roman_MSFontService,sans-serif" font-weight="700" font-size="10" transform="matrix(1.17694 0 0 1.17813 681.097 314)">(</text><text fill="#FFFFFF" font-family="Times New Roman,Times New Roman_MSFontService,sans-serif" font-weight="700" font-size="10" transform="matrix(1.17694 0 0 1.17813 684.628 314)">Scheduler</text><text fill="#FFFFFF" font-family="Times New Roman,Times New Roman_MSFontService,sans-serif" font-weight="700" font-size="10" transform="matrix(1.17694 0 0 1.17813 735.237 314)">)</text><path d="M6.3555 720.29 57.1995 720.29C60.7095 720.29 63.555 717.445 63.555 713.935 63.555 713.935 63.555 713.935 63.555 713.935L63.555 646.143C63.5551 642.633 60.7097 639.787 57.1997 639.787 57.1997 639.787 57.1996 639.787 57.1995 639.787L6.3555 639.787C2.84551 639.787 5.86135e-05 642.632 1.12242e-07 646.142 1.11065e-07 646.143 1.11065e-07 646.143 1.12242e-07 646.143L0 713.935C-5.85013e-05 717.445 2.8453 720.29 6.35529 720.29 6.35536 720.29 6.35543 720.29 6.3555 720.29Z" stroke="#000000" stroke-width="0.588472" stroke-linecap="square" stroke-miterlimit="3" fill="url(#fill4)" fill-rule="evenodd" transform="matrix(1 0 0 1.001 802.982 -384.358)"/><text fill="#FFFFFF" font-family="Times New Roman,Times New Roman_MSFontService,sans-serif" font-weight="700" font-size="10" transform="matrix(1.17694 0 0 1.17813 818.741 286)">Upper </text><text fill="#FFFFFF" font-family="Times New Roman,Times New Roman_MSFontService,sans-serif" font-weight="700" font-size="10" transform="matrix(1.17694 0 0 1.17813 822.342 300)">PHY </text><text fill="#FFFFFF" font-family="Times New Roman,Times New Roman_MSFontService,sans-serif" font-weight="700" font-size="10" transform="matrix(1.17694 0 0 1.17813 819.73 314)">Layer</text><text font-family="Times New Roman,Times New Roman_MSFontService,sans-serif" font-weight="700" font-size="12" transform="matrix(1.17694 0 0 1.17813 729.835 235)">DU Processor</text><path d="M0 720.29 97.451 720.29" stroke="#3333B3" stroke-width="1.76542" stroke-linecap="round" stroke-linejoin="round" stroke-miterlimit="3" fill="none" fill-rule="evenodd" transform="matrix(-1 1.22588e-16 -1.22465e-16 -1.001 966.371 991.185)"/><path d="M7.15841-3.72645C5.58476-1.479 3.04694-0.101081 0.304992-0.0053245L0.304976 0.00532264C3.04693 0.101072 5.58472 1.47899 7.15841 3.72643" stroke="#3333B3" stroke-width="1.76542" stroke-linecap="round" stroke-linejoin="round" stroke-miterlimit="3" fill="none" fill-rule="evenodd" transform="matrix(-1 1.22588e-16 -1.22465e-16 -1.001 966.371 270.171)"/><path d="M0 720.29 97.451 720.29" stroke="#F1C232" stroke-width="1.76542" stroke-linecap="round" stroke-linejoin="round" stroke-miterlimit="3" fill="none" fill-rule="evenodd" transform="matrix(-1 1.22588e-16 -1.22465e-16 -1.001 966.371 1043.57)"/><path d="M7.15841-3.72645C5.58476-1.479 3.04694-0.101081 0.304992-0.0053245L0.304976 0.00532264C3.04693 0.101072 5.58472 1.47899 7.15841 3.72643" stroke="#F1C232" stroke-width="1.76542" stroke-linecap="round" stroke-linejoin="round" stroke-miterlimit="3" fill="none" fill-rule="evenodd" transform="matrix(1 -1.22588e-16 1.22465e-16 1.001 868.92 322.556)"/><path d="M0 720.29 80.2323 720.29" stroke="#7F7F7F" stroke-width="1.76542" stroke-linecap="round" stroke-linejoin="round" stroke-miterlimit="3" fill="none" fill-rule="evenodd" transform="matrix(-1 1.22588e-16 -1.22465e-16 -1.001 529.96 992.468)"/><path d="M7.15841-3.72645C5.58476-1.479 3.04694-0.101081 0.304992-0.0053245L0.304976 0.00532264C3.04693 0.101072 5.58472 1.47899 7.15841 3.72643" stroke="#7F7F7F" stroke-width="1.76542" stroke-linecap="round" stroke-linejoin="round" stroke-miterlimit="3" fill="none" fill-rule="evenodd" transform="matrix(-1 1.22588e-16 -1.22465e-16 -1.001 529.96 271.454)"/><path d="M0 720.29 80.2323 720.29" stroke="#7F7F7F" stroke-width="1.76542" stroke-linecap="round" stroke-linejoin="round" stroke-miterlimit="3" fill="none" fill-rule="evenodd" transform="matrix(-1 1.22588e-16 -1.22465e-16 -1.001 529.96 1040.79)"/><path d="M7.15841-3.72645C5.58476-1.479 3.04694-0.101081 0.304992-0.0053245L0.304976 0.00532264C3.04693 0.101072 5.58472 1.47899 7.15841 3.72643" stroke="#7F7F7F" stroke-width="1.76542" stroke-linecap="round" stroke-linejoin="round" stroke-miterlimit="3" fill="none" fill-rule="evenodd" transform="matrix(1 -1.22588e-16 1.22465e-16 1.001 449.728 319.774)"/><path d="M0 688.513 31.3457 688.513 31.3457 720.29 5.99822e-07 720.29Z" fill="#FFFFFF" fill-rule="evenodd" transform="matrix(1 0 0 1.001 971.882 -407.897)"/><text font-family="Times New Roman,Times New Roman_MSFontService,sans-serif" font-weight="700" font-size="14" transform="matrix(1.17694 0 0 1.17813 979.308 302)">···</text><path d="M0 720.29 76.6309 720.29" stroke="#000000" stroke-width="1.76542" stroke-linecap="round" stroke-linejoin="round" stroke-miterlimit="3" fill="none" fill-rule="evenodd" transform="matrix(1 0 0 1.001 597.487 -449.563)"/><path d="M7.15841-3.72645C5.58476-1.479 3.04694-0.101081 0.304992-0.0053245L0.304976 0.00532264C3.04693 0.101072 5.58472 1.47899 7.15841 3.72643" stroke="#000000" stroke-width="1.76542" stroke-linecap="round" stroke-linejoin="round" stroke-miterlimit="3" fill="none" fill-rule="evenodd" transform="matrix(-1 0 0 -1.001 674.118 271.451)"/><path d="M0 720.29 76.6309 720.29" stroke="#000000" stroke-width="1.76542" stroke-linecap="round" stroke-linejoin="round" stroke-miterlimit="3" fill="none" fill-rule="evenodd" transform="matrix(-1 0 0 1.001 674.118 -401.238)"/><path d="M7.15841-3.72645C5.58476-1.479 3.04694-0.101081 0.304992-0.0053245L0.304976 0.00532264C3.04693 0.101072 5.58472 1.47899 7.15841 3.72643" stroke="#000000" stroke-width="1.76542" stroke-linecap="round" stroke-linejoin="round" stroke-miterlimit="3" fill="none" fill-rule="evenodd" transform="matrix(1 0 0 -1.001 597.487 319.775)"/><path d="M0 720.29 55.2811 720.29" stroke="#203864" stroke-width="1.76542" stroke-linecap="round" stroke-linejoin="round" stroke-miterlimit="3" fill="none" fill-rule="evenodd" transform="matrix(1 0 0 1.001 746.113 -449.563)"/><path d="M7.15841-3.72645C5.58476-1.479 3.04694-0.101081 0.304992-0.0053245L0.304976 0.00532264C3.04693 0.101072 5.58472 1.47899 7.15841 3.72643" stroke="#203864" stroke-width="1.76542" stroke-linecap="round" stroke-linejoin="round" stroke-miterlimit="3" fill="none" fill-rule="evenodd" transform="matrix(-1 0 0 -1.001 801.394 271.451)"/><path d="M0 720.29 55.2811 720.29" stroke="#203864" stroke-width="1.76542" stroke-linecap="round" stroke-linejoin="round" stroke-miterlimit="3" fill="none" fill-rule="evenodd" transform="matrix(-1 0 0 1.001 801.393 -401.238)"/><path d="M7.15841-3.72645C5.58476-1.479 3.04694-0.101081 0.304992-0.0053245L0.304976 0.00532264C3.04693 0.101072 5.58472 1.47899 7.15841 3.72643" stroke="#203864" stroke-width="1.76542" stroke-linecap="round" stroke-linejoin="round" stroke-miterlimit="3" fill="none" fill-rule="evenodd" transform="matrix(1 0 0 -1.001 746.112 319.775)"/><text font-family="Times New Roman,Times New Roman_MSFontService,sans-serif" font-weight="400" font-size="10" transform="matrix(1.17694 0 0 1.17813 625.663 268)">DL </text><text font-family="Times New Roman,Times New Roman_MSFontService,sans-serif" font-weight="400" font-size="10" transform="matrix(1.17694 0 0 1.17813 610.622 282)">Segments</text><text font-family="Times New Roman,Times New Roman_MSFontService,sans-serif" font-weight="400" font-size="9" transform="matrix(1.17694 0 0 1.17813 626.44 317)">UL </text><text font-family="Times New Roman,Times New Roman_MSFontService,sans-serif" font-weight="400" font-size="9" transform="matrix(1.17694 0 0 1.17813 612.905 329)">Segments</text><text fill="#203864" font-family="Times New Roman,Times New Roman_MSFontService,sans-serif" font-weight="400" font-size="10" transform="matrix(1.17694 0 0 1.17813 765.908 268)">DL </text><text fill="#203864" font-family="Times New Roman,Times New Roman_MSFontService,sans-serif" font-weight="400" font-size="10" transform="matrix(1.17694 0 0 1.17813 763.943 282)">TBs</text><text fill="#203864" font-family="Times New Roman,Times New Roman_MSFontService,sans-serif" font-weight="400" font-size="10" transform="matrix(1.17694 0 0 1.17813 765.908 316)">UL </text><text fill="#203864" font-family="Times New Roman,Times New Roman_MSFontService,sans-serif" font-weight="400" font-size="10" transform="matrix(1.17694 0 0 1.17813 763.943 330)">TBs</text></g></svg>