<svg width="526" height="93" xmlns="http://www.w3.org/2000/svg" xmlns:xlink="http://www.w3.org/1999/xlink" xml:space="preserve" overflow="hidden"><defs><clipPath id="clip0"><rect x="200" y="223" width="526" height="93"/></clipPath></defs><g clip-path="url(#clip0)" transform="translate(-200 -223)"><path d="M0 704.177 31.7799 704.177 31.7799 720.345 0 720.345Z" fill="#90AADB" fill-rule="evenodd" transform="matrix(1 0 0 1.00502 481.57 -450.631)"/><text fill="#FFFFFF" font-family="Times New Roman,Times New Roman_MSFontService,sans-serif" font-style="italic" font-weight="400" font-size="9" transform="matrix(1.17703 0 0 1.18294 487.114 269)">s</text><text fill="#FFFFFF" font-family="Times New Roman,Times New Roman_MSFontService,sans-serif" font-weight="400" font-size="9" transform="matrix(1.17703 0 0 1.18294 491.822 269)"> </text><text fill="#FFFFFF" font-family="Times New Roman,Times New Roman_MSFontService,sans-serif" font-weight="400" font-size="9" transform="matrix(1.17703 0 0 1.18294 494.176 269)">+ </text><text fill="#FFFFFF" font-family="Times New Roman,Times New Roman_MSFontService,sans-serif" font-weight="400" font-size="9" transform="matrix(1.17703 0 0 1.18294 502.415 269)">3</text><path d="M0 704.177 101.696 704.177 101.696 720.345 1.79601e-06 720.345Z" fill="#CC0000" fill-rule="evenodd" transform="matrix(1 0 0 1.00502 378.417 -450.631)"/><text fill="#FFFFFF" font-family="Times New Roman,Times New Roman_MSFontService,sans-serif" font-style="italic" font-weight="700" font-size="9" transform="matrix(1.17703 0 0 1.18294 418.884 269)">s</text><text fill="#FFFFFF" font-family="Times New Roman,Times New Roman_MSFontService,sans-serif" font-weight="700" font-size="9" transform="matrix(1.17703 0 0 1.18294 423.592 269)"> </text><text fill="#FFFFFF" font-family="Times New Roman,Times New Roman_MSFontService,sans-serif" font-weight="700" font-size="9" transform="matrix(1.17703 0 0 1.18294 425.946 269)">+ </text><text fill="#FFFFFF" font-family="Times New Roman,Times New Roman_MSFontService,sans-serif" font-weight="700" font-size="9" transform="matrix(1.17703 0 0 1.18294 434.185 269)">2</text><path d="M0 720.345 458.372 720.345" stroke="#000000" stroke-width="0.882776" stroke-linecap="round" stroke-linejoin="round" stroke-miterlimit="3" fill="none" fill-rule="evenodd" transform="matrix(1 0 0 1.00502 259.111 -467.67)"/><path d="M7.73311 2.5777 0 0 7.73311-2.5777 7.73311 2.5777" fill-rule="evenodd" transform="matrix(-1 0 0 -1.00502 725.216 256.29)"/><path d="M0 720.345 33.8986 720.345" stroke="#000000" stroke-width="0.588517" stroke-linecap="round" stroke-linejoin="round" stroke-miterlimit="3" fill="none" fill-rule="evenodd" transform="matrix(6.12323e-17 1.00502 -1 6.15397e-17 1021.83 239.256)"/><path d="M0 720.345 33.8986 720.345" stroke="#000000" stroke-width="0.588517" stroke-linecap="round" stroke-linejoin="round" stroke-miterlimit="3" fill="none" fill-rule="evenodd" transform="matrix(6.12323e-17 1.00502 -1 6.15397e-17 1403.19 239.256)"/><text fill="#6AA84F" font-family="Times New Roman,Times New Roman_MSFontService,sans-serif" font-weight="400" font-size="10" transform="matrix(1.17703 0 0 1.18294 347.294 232)">DP slot </text><text fill="#6AA84F" font-family="Times New Roman,Times New Roman_MSFontService,sans-serif" font-style="italic" font-weight="400" font-size="10" transform="matrix(1.17703 0 0 1.18294 387.313 232)">s</text><text fill="#6AA84F" font-family="Times New Roman,Times New Roman_MSFontService,sans-serif" font-weight="400" font-size="10" transform="matrix(1.17703 0 0 1.18294 392.021 232)"> </text><text fill="#6AA84F" font-family="Times New Roman,Times New Roman_MSFontService,sans-serif" font-weight="400" font-size="10" transform="matrix(1.17703 0 0 1.18294 395.552 232)">+ </text><text fill="#6AA84F" font-family="Times New Roman,Times New Roman_MSFontService,sans-serif" font-weight="400" font-size="10" transform="matrix(1.17703 0 0 1.18294 406.146 232)">1</text><text fill="#6AA84F" font-family="Times New Roman,Times New Roman_MSFontService,sans-serif" font-weight="400" font-size="10" transform="matrix(1.17703 0 0 1.18294 652.381 232)">DP slot </text><text fill="#6AA84F" font-family="Times New Roman,Times New Roman_MSFontService,sans-serif" font-style="italic" font-weight="400" font-size="10" transform="matrix(1.17703 0 0 1.18294 692.4 232)">s</text><text fill="#6AA84F" font-family="Times New Roman,Times New Roman_MSFontService,sans-serif" font-weight="400" font-size="10" transform="matrix(1.17703 0 0 1.18294 697.109 232)"> </text><text fill="#6AA84F" font-family="Times New Roman,Times New Roman_MSFontService,sans-serif" font-weight="400" font-size="10" transform="matrix(1.17703 0 0 1.18294 700.64 232)">+ </text><text fill="#6AA84F" font-family="Times New Roman,Times New Roman_MSFontService,sans-serif" font-style="italic" font-weight="400" font-size="10" transform="matrix(1.17703 0 0 1.18294 711.233 232)">5</text><text fill="#6AA84F" font-family="Times New Roman,Times New Roman_MSFontService,sans-serif" font-weight="400" font-size="10" transform="matrix(1.17703 0 0 1.18294 280.227 232)">DP slot </text><text fill="#6AA84F" font-family="Times New Roman,Times New Roman_MSFontService,sans-serif" font-style="italic" font-weight="400" font-size="10" transform="matrix(1.17703 0 0 1.18294 320.246 232)">s</text><path d="M0 720.345 33.8986 720.345" stroke="#000000" stroke-width="0.588517" stroke-linecap="round" stroke-linejoin="round" stroke-miterlimit="3" fill="none" fill-rule="evenodd" transform="matrix(6.12323e-17 1.00502 -1 6.15397e-17 1098.1 239.256)"/><path d="M0 720.345 33.8986 720.345" stroke="#000000" stroke-width="0.588517" stroke-linecap="round" stroke-linejoin="round" stroke-miterlimit="3" fill="none" fill-rule="evenodd" transform="matrix(6.12323e-17 1.00502 -1 6.15397e-17 1174.37 239.256)"/><path d="M0 720.345 33.8986 720.345" stroke="#000000" stroke-width="0.588517" stroke-linecap="round" stroke-linejoin="round" stroke-miterlimit="3" fill="none" fill-rule="evenodd" transform="matrix(6.12323e-17 1.00502 -1 6.15397e-17 1250.64 239.252)"/><path d="M0 720.345 33.8986 720.345" stroke="#000000" stroke-width="0.588517" stroke-linecap="round" stroke-linejoin="round" stroke-miterlimit="3" fill="none" fill-rule="evenodd" transform="matrix(6.12323e-17 1.00502 -1 6.15397e-17 1326.92 239.256)"/><text fill="#6AA84F" font-family="Times New Roman,Times New Roman_MSFontService,sans-serif" font-weight="400" font-size="10" transform="matrix(1.17703 0 0 1.18294 423.566 232)">DP slot </text><text fill="#6AA84F" font-family="Times New Roman,Times New Roman_MSFontService,sans-serif" font-style="italic" font-weight="400" font-size="10" transform="matrix(1.17703 0 0 1.18294 463.585 232)">s</text><text fill="#6AA84F" font-family="Times New Roman,Times New Roman_MSFontService,sans-serif" font-weight="400" font-size="10" transform="matrix(1.17703 0 0 1.18294 468.293 232)"> </text><text fill="#6AA84F" font-family="Times New Roman,Times New Roman_MSFontService,sans-serif" font-weight="400" font-size="10" transform="matrix(1.17703 0 0 1.18294 471.824 232)">+ </text><text fill="#6AA84F" font-family="Times New Roman,Times New Roman_MSFontService,sans-serif" font-weight="400" font-size="10" transform="matrix(1.17703 0 0 1.18294 482.418 232)">2</text><text fill="#6AA84F" font-family="Times New Roman,Times New Roman_MSFontService,sans-serif" font-weight="400" font-size="10" transform="matrix(1.17703 0 0 1.18294 499.838 232)">DP slot </text><text fill="#6AA84F" font-family="Times New Roman,Times New Roman_MSFontService,sans-serif" font-style="italic" font-weight="400" font-size="10" transform="matrix(1.17703 0 0 1.18294 539.857 232)">s</text><text fill="#6AA84F" font-family="Times New Roman,Times New Roman_MSFontService,sans-serif" font-weight="400" font-size="10" transform="matrix(1.17703 0 0 1.18294 544.565 232)"> </text><text fill="#6AA84F" font-family="Times New Roman,Times New Roman_MSFontService,sans-serif" font-weight="400" font-size="10" transform="matrix(1.17703 0 0 1.18294 548.096 232)">+ </text><text fill="#6AA84F" font-family="Times New Roman,Times New Roman_MSFontService,sans-serif" font-weight="400" font-size="10" transform="matrix(1.17703 0 0 1.18294 558.689 232)">3</text><text fill="#6AA84F" font-family="Times New Roman,Times New Roman_MSFontService,sans-serif" font-weight="400" font-size="10" transform="matrix(1.17703 0 0 1.18294 576.109 232)">DP slot </text><text fill="#6AA84F" font-family="Times New Roman,Times New Roman_MSFontService,sans-serif" font-style="italic" font-weight="400" font-size="10" transform="matrix(1.17703 0 0 1.18294 616.129 232)">s</text><text fill="#6AA84F" font-family="Times New Roman,Times New Roman_MSFontService,sans-serif" font-weight="400" font-size="10" transform="matrix(1.17703 0 0 1.18294 620.837 232)"> </text><text fill="#6AA84F" font-family="Times New Roman,Times New Roman_MSFontService,sans-serif" font-weight="400" font-size="10" transform="matrix(1.17703 0 0 1.18294 624.368 232)">+ </text><text fill="#6AA84F" font-family="Times New Roman,Times New Roman_MSFontService,sans-serif" font-weight="400" font-size="10" transform="matrix(1.17703 0 0 1.18294 634.961 232)">4</text><text fill="#3333B3" font-family="Times New Roman,Times New Roman_MSFontService,sans-serif" font-weight="400" font-size="10" transform="matrix(1.17703 0 0 1.18294 651.404 288)">DU slot </text><text fill="#3333B3" font-family="Times New Roman,Times New Roman_MSFontService,sans-serif" font-style="italic" font-weight="400" font-size="10" transform="matrix(1.17703 0 0 1.18294 692.6 288)">s</text><text fill="#3333B3" font-family="Times New Roman,Times New Roman_MSFontService,sans-serif" font-weight="400" font-size="10" transform="matrix(1.17703 0 0 1.18294 697.309 288)"> </text><text fill="#3333B3" font-family="Times New Roman,Times New Roman_MSFontService,sans-serif" font-weight="400" font-size="10" transform="matrix(1.17703 0 0 1.18294 700.84 288)">+ </text><text fill="#3333B3" font-family="Times New Roman,Times New Roman_MSFontService,sans-serif" font-weight="400" font-size="10" transform="matrix(1.17703 0 0 1.18294 711.433 288)">6</text><text fill="#3333B3" font-family="Times New Roman,Times New Roman_MSFontService,sans-serif" font-weight="400" font-size="10" transform="matrix(1.17703 0 0 1.18294 270.045 288)">DU slot </text><text fill="#3333B3" font-family="Times New Roman,Times New Roman_MSFontService,sans-serif" font-style="italic" font-weight="400" font-size="10" transform="matrix(1.17703 0 0 1.18294 311.241 288)">s</text><text fill="#3333B3" font-family="Times New Roman,Times New Roman_MSFontService,sans-serif" font-weight="400" font-size="10" transform="matrix(1.17703 0 0 1.18294 315.95 288)"> </text><text fill="#3333B3" font-family="Times New Roman,Times New Roman_MSFontService,sans-serif" font-weight="400" font-size="10" transform="matrix(1.17703 0 0 1.18294 319.481 288)">+ </text><text fill="#3333B3" font-family="Times New Roman,Times New Roman_MSFontService,sans-serif" font-weight="400" font-size="10" transform="matrix(1.17703 0 0 1.18294 330.074 288)">1</text><text fill="#CC0000" font-family="Times New Roman,Times New Roman_MSFontService,sans-serif" font-weight="400" font-size="10" transform="matrix(1.17703 0 0 1.18294 346.317 288)">DU slot </text><text fill="#CC0000" font-family="Times New Roman,Times New Roman_MSFontService,sans-serif" font-style="italic" font-weight="400" font-size="10" transform="matrix(1.17703 0 0 1.18294 387.513 288)">s</text><text fill="#CC0000" font-family="Times New Roman,Times New Roman_MSFontService,sans-serif" font-weight="400" font-size="10" transform="matrix(1.17703 0 0 1.18294 392.221 288)"> </text><text fill="#CC0000" font-family="Times New Roman,Times New Roman_MSFontService,sans-serif" font-weight="400" font-size="10" transform="matrix(1.17703 0 0 1.18294 395.753 288)">+ </text><text fill="#CC0000" font-family="Times New Roman,Times New Roman_MSFontService,sans-serif" font-weight="400" font-size="10" transform="matrix(1.17703 0 0 1.18294 406.346 288)">2</text><text fill="#3333B3" font-family="Times New Roman,Times New Roman_MSFontService,sans-serif" font-weight="400" font-size="10" transform="matrix(1.17703 0 0 1.18294 422.589 288)">DU slot </text><text fill="#3333B3" font-family="Times New Roman,Times New Roman_MSFontService,sans-serif" font-style="italic" font-weight="400" font-size="10" transform="matrix(1.17703 0 0 1.18294 463.785 288)">s</text><text fill="#3333B3" font-family="Times New Roman,Times New Roman_MSFontService,sans-serif" font-weight="400" font-size="10" transform="matrix(1.17703 0 0 1.18294 468.493 288)"> </text><text fill="#3333B3" font-family="Times New Roman,Times New Roman_MSFontService,sans-serif" font-weight="400" font-size="10" transform="matrix(1.17703 0 0 1.18294 472.024 288)">+ </text><text fill="#3333B3" font-family="Times New Roman,Times New Roman_MSFontService,sans-serif" font-weight="400" font-size="10" transform="matrix(1.17703 0 0 1.18294 482.618 288)">3</text><text fill="#3333B3" font-family="Times New Roman,Times New Roman_MSFontService,sans-serif" font-weight="400" font-size="10" transform="matrix(1.17703 0 0 1.18294 498.861 288)">DU slot </text><text fill="#3333B3" font-family="Times New Roman,Times New Roman_MSFontService,sans-serif" font-style="italic" font-weight="400" font-size="10" transform="matrix(1.17703 0 0 1.18294 540.057 288)">s</text><text fill="#3333B3" font-family="Times New Roman,Times New Roman_MSFontService,sans-serif" font-weight="400" font-size="10" transform="matrix(1.17703 0 0 1.18294 544.765 288)"> </text><text fill="#3333B3" font-family="Times New Roman,Times New Roman_MSFontService,sans-serif" font-weight="400" font-size="10" transform="matrix(1.17703 0 0 1.18294 548.296 288)">+ </text><text fill="#3333B3" font-family="Times New Roman,Times New Roman_MSFontService,sans-serif" font-weight="400" font-size="10" transform="matrix(1.17703 0 0 1.18294 558.889 288)">4</text><text fill="#3333B3" font-family="Times New Roman,Times New Roman_MSFontService,sans-serif" font-weight="400" font-size="10" transform="matrix(1.17703 0 0 1.18294 575.133 288)">DU slot </text><text fill="#3333B3" font-family="Times New Roman,Times New Roman_MSFontService,sans-serif" font-style="italic" font-weight="400" font-size="10" transform="matrix(1.17703 0 0 1.18294 616.329 288)">s</text><text fill="#3333B3" font-family="Times New Roman,Times New Roman_MSFontService,sans-serif" font-weight="400" font-size="10" transform="matrix(1.17703 0 0 1.18294 621.037 288)"> </text><text fill="#3333B3" font-family="Times New Roman,Times New Roman_MSFontService,sans-serif" font-weight="400" font-size="10" transform="matrix(1.17703 0 0 1.18294 624.568 288)">+ </text><text fill="#3333B3" font-family="Times New Roman,Times New Roman_MSFontService,sans-serif" font-weight="400" font-size="10" transform="matrix(1.17703 0 0 1.18294 635.161 288)">5</text><path d="M0 704.177 31.7799 704.177 31.7799 720.345 0 720.345Z" fill="#90AADB" fill-rule="evenodd" transform="matrix(1 0 0 1.00502 302.145 -450.635)"/><text fill="#FFFFFF" font-family="Times New Roman,Times New Roman_MSFontService,sans-serif" font-style="italic" font-weight="400" font-size="9" transform="matrix(1.17703 0 0 1.18294 307.689 268)">s</text><text fill="#FFFFFF" font-family="Times New Roman,Times New Roman_MSFontService,sans-serif" font-weight="400" font-size="9" transform="matrix(1.17703 0 0 1.18294 312.397 268)"> </text><text fill="#FFFFFF" font-family="Times New Roman,Times New Roman_MSFontService,sans-serif" font-weight="400" font-size="9" transform="matrix(1.17703 0 0 1.18294 314.751 268)">+ </text><text fill="#FFFFFF" font-family="Times New Roman,Times New Roman_MSFontService,sans-serif" font-weight="400" font-size="9" transform="matrix(1.17703 0 0 1.18294 322.991 268)">1</text><path d="M0 704.177 4.63457 704.177 4.63457 720.345 0 720.345Z" fill="#93C47D" fill-rule="evenodd" transform="matrix(1 0 0 1.00502 296.187 -468.458)"/><path d="M0 704.177 3.31041 704.177 3.31041 720.345 0 720.345Z" fill="#D9EAD3" fill-rule="evenodd" transform="matrix(1 0 0 1.00502 302.145 -468.458)"/><path d="M0 704.177 4.63457 704.177 4.63457 720.345 0 720.345Z" fill="#93C47D" fill-rule="evenodd" transform="matrix(1 0 0 1.00502 372.46 -468.458)"/><path d="M0 704.177 3.31041 704.177 3.31041 720.345 0 720.345Z" fill="#D9EAD3" fill-rule="evenodd" transform="matrix(1 0 0 1.00502 378.418 -468.458)"/><path d="M0 704.177 4.63457 704.177 4.63457 720.345 0 720.345Z" fill="#93C47D" fill-rule="evenodd" transform="matrix(1 0 0 1.00502 448.732 -468.458)"/><path d="M0 704.177 3.31041 704.177 3.31041 720.345 0 720.345Z" fill="#D9EAD3" fill-rule="evenodd" transform="matrix(1 0 0 1.00502 454.69 -468.458)"/><path d="M0 704.177 4.63457 704.177 4.63457 720.345 0 720.345Z" fill="#93C47D" fill-rule="evenodd" transform="matrix(1 0 0 1.00502 525.004 -468.458)"/><path d="M0 704.177 3.31041 704.177 3.31041 720.345 0 720.345Z" fill="#D9EAD3" fill-rule="evenodd" transform="matrix(1 0 0 1.00502 530.962 -468.458)"/><path d="M0 704.177 4.63457 704.177 4.63457 720.345 0 720.345Z" fill="#93C47D" fill-rule="evenodd" transform="matrix(1 0 0 1.00502 601.276 -468.458)"/><path d="M0 704.177 3.31041 704.177 3.31041 720.345 0 720.345Z" fill="#D9EAD3" fill-rule="evenodd" transform="matrix(1 0 0 1.00502 607.234 -468.458)"/><path d="M0 704.177 4.63457 704.177 4.63457 720.345 0 720.345Z" fill="#93C47D" fill-rule="evenodd" transform="matrix(1 0 0 1.00502 677.547 -468.458)"/><path d="M0 704.177 3.31041 704.177 3.31041 720.345 0 720.345Z" fill="#D9EAD3" fill-rule="evenodd" transform="matrix(1 0 0 1.00502 683.506 -468.458)"/><path d="M0 704.177 31.7799 704.177 31.7799 720.345 0 720.345Z" fill="#90AADB" fill-rule="evenodd" transform="matrix(1 0 0 1.00502 530.961 -450.631)"/><text fill="#FFFFFF" font-family="Times New Roman,Times New Roman_MSFontService,sans-serif" font-style="italic" font-weight="400" font-size="9" transform="matrix(1.17703 0 0 1.18294 536.505 269)">s</text><text fill="#FFFFFF" font-family="Times New Roman,Times New Roman_MSFontService,sans-serif" font-weight="400" font-size="9" transform="matrix(1.17703 0 0 1.18294 541.213 269)"> </text><text fill="#FFFFFF" font-family="Times New Roman,Times New Roman_MSFontService,sans-serif" font-weight="400" font-size="9" transform="matrix(1.17703 0 0 1.18294 543.567 269)">+ </text><text fill="#FFFFFF" font-family="Times New Roman,Times New Roman_MSFontService,sans-serif" font-weight="400" font-size="9" transform="matrix(1.17703 0 0 1.18294 551.806 269)">4</text><path d="M0 704.177 31.7799 704.177 31.7799 720.345 0 720.345Z" fill="#90AADB" fill-rule="evenodd" transform="matrix(1 0 0 1.00502 607.234 -450.631)"/><text fill="#FFFFFF" font-family="Times New Roman,Times New Roman_MSFontService,sans-serif" font-style="italic" font-weight="400" font-size="9" transform="matrix(1.17703 0 0 1.18294 612.778 269)">s</text><text fill="#FFFFFF" font-family="Times New Roman,Times New Roman_MSFontService,sans-serif" font-weight="400" font-size="9" transform="matrix(1.17703 0 0 1.18294 617.486 269)"> </text><text fill="#FFFFFF" font-family="Times New Roman,Times New Roman_MSFontService,sans-serif" font-weight="400" font-size="9" transform="matrix(1.17703 0 0 1.18294 619.84 269)">+ </text><text fill="#FFFFFF" font-family="Times New Roman,Times New Roman_MSFontService,sans-serif" font-weight="400" font-size="9" transform="matrix(1.17703 0 0 1.18294 628.079 269)">5</text><path d="M4.6022 720.345 5.02594 720.345 23.7172 720.345" stroke="#CC0000" stroke-width="1.17703" stroke-linecap="round" stroke-linejoin="round" stroke-miterlimit="3" fill="none" fill-rule="evenodd" transform="matrix(6.12323e-17 1.00502 -1 6.15397e-17 1135.71 275.442)"/><path d="M5.74393 2.87196 0 0 5.68985-2.85297C4.80115-1.04687 4.80482 1.07021 5.69984 2.8732" fill="#CC0000" fill-rule="evenodd" transform="matrix(6.12323e-17 1.00502 -1 6.15397e-17 415.362 275.442)"/><text fill="#CC0000" font-family="Segoe UI Symbol,Segoe UI Symbol_MSFontService,sans-serif" font-weight="400" font-size="10" transform="matrix(1.17703 0 0 1.18294 307.746 314)">✘</text><text fill="#CC0000" font-family="Times New Roman,Times New Roman_MSFontService,sans-serif" font-weight="400" font-size="10" transform="matrix(1.17703 0 0 1.18294 317.162 314)"> </text><text fill="#CC0000" font-family="Times New Roman,Times New Roman_MSFontService,sans-serif" font-weight="400" font-size="10" transform="matrix(1.17703 0 0 1.18294 320.693 314)">A sudden slowdown in the DU</text><text fill="#CC0000" font-family="Times New Roman,Times New Roman_MSFontService,sans-serif" font-weight="400" font-size="10" transform="matrix(1.17703 0 0 1.18294 466.645 314)">’</text><text fill="#CC0000" font-family="Times New Roman,Times New Roman_MSFontService,sans-serif" font-weight="400" font-size="10" transform="matrix(1.17703 0 0 1.18294 471.353 314)">s execution</text><path d="M4.6022 720.345 5.02594 720.345 14.301 720.345" stroke="#375623" stroke-width="1.17703" stroke-linecap="round" stroke-linejoin="round" stroke-miterlimit="3" fill="none" fill-rule="evenodd" transform="matrix(-1 1.23079e-16 -1.22465e-16 -1.00502 523.943 971.339)"/><path d="M5.74393 2.87196 0 0 5.68985-2.85297C4.80115-1.04687 4.80482 1.07021 5.69984 2.8732" fill="#375623" fill-rule="evenodd" transform="matrix(-1 1.23079e-16 -1.22465e-16 -1.00502 523.943 247.378)"/><text fill="#375623" font-family="Segoe UI Symbol,Segoe UI Symbol_MSFontService,sans-serif" font-weight="700" font-size="10" transform="matrix(1.17703 0 0 1.18294 496.106 251)">✓</text><text fill="#6AA84F" font-family="Times New Roman,Times New Roman_MSFontService,sans-serif" font-weight="700" font-size="10" transform="matrix(1.17703 0 0 1.18294 206.58 234)">RU</text><text fill="#6AA84F" font-family="Times New Roman,Times New Roman_MSFontService,sans-serif" font-weight="700" font-size="10" transform="matrix(1.17703 0 0 1.18294 223.058 234)">-</text><text fill="#6AA84F" font-family="Times New Roman,Times New Roman_MSFontService,sans-serif" font-weight="700" font-size="10" transform="matrix(1.17703 0 0 1.18294 226.589 234)">DL </text><text fill="#6AA84F" font-family="Times New Roman,Times New Roman_MSFontService,sans-serif" font-weight="700" font-size="10" transform="matrix(1.17703 0 0 1.18294 200.706 248)">Processor</text><text fill="#3333B3" font-family="Times New Roman,Times New Roman_MSFontService,sans-serif" font-weight="700" font-size="10" transform="matrix(1.17703 0 0 1.18294 216.714 271)">DU </text><text fill="#3333B3" font-family="Times New Roman,Times New Roman_MSFontService,sans-serif" font-weight="700" font-size="10" transform="matrix(1.17703 0 0 1.18294 200.706 286)">Processor</text></g></svg>