<svg width="544" height="64" xmlns="http://www.w3.org/2000/svg" xmlns:xlink="http://www.w3.org/1999/xlink" xml:space="preserve" overflow="hidden"><defs><clipPath id="clip0"><rect x="200" y="224" width="544" height="64"/></clipPath></defs><g clip-path="url(#clip0)" transform="translate(-200 -224)"><path d="M0 714.445 454.618 714.445" stroke="#000000" stroke-width="0.875546" stroke-linecap="round" stroke-linejoin="round" stroke-miterlimit="3" fill="none" fill-rule="evenodd" transform="matrix(1.00872 0 0 1 258.877 -457.828)"/><path d="M7.66978 2.55659 0 0 7.66978-2.55659 7.66978 2.55659" fill-rule="evenodd" transform="matrix(-1.00872 0 0 -1 725.197 256.617)"/><path d="M0 714.445 33.6209 714.445" stroke="#000000" stroke-width="0.583697" stroke-linecap="round" stroke-linejoin="round" stroke-miterlimit="3" fill="none" fill-rule="evenodd" transform="matrix(6.17664e-17 1 -1.00872 6.12323e-17 1021.95 239.807)"/><path d="M0 714.445 33.6209 714.445" stroke="#000000" stroke-width="0.583697" stroke-linecap="round" stroke-linejoin="round" stroke-miterlimit="3" fill="none" fill-rule="evenodd" transform="matrix(6.17664e-17 1 -1.00872 6.12323e-17 1403.48 239.807)"/><path d="M0 714.445 33.6209 714.445" stroke="#000000" stroke-width="0.583697" stroke-linecap="round" stroke-linejoin="round" stroke-miterlimit="3" fill="none" fill-rule="evenodd" transform="matrix(6.17664e-17 1 -1.00872 6.12323e-17 1149.12 239.807)"/><path d="M0 714.445 33.6209 714.445" stroke="#000000" stroke-width="0.583697" stroke-linecap="round" stroke-linejoin="round" stroke-miterlimit="3" fill="none" fill-rule="evenodd" transform="matrix(6.17664e-17 1 -1.00872 6.12323e-17 1276.3 239.807)"/><path d="M0 693.432 100.863 693.432 100.863 714.445 1.7813e-06 714.445Z" fill="#FFFFFF" fill-rule="evenodd" transform="matrix(1.00872 0 0 1 377.576 -474.639)"/><text fill="#CC0000" font-family="Times New Roman,Times New Roman_MSFontService,sans-serif" font-weight="400" font-size="10" transform="matrix(1.17758 0 0 1.16739 397.972 233)">UP slot </text><text fill="#CC0000" font-family="Times New Roman,Times New Roman_MSFontService,sans-serif" font-style="italic" font-weight="400" font-size="10" transform="matrix(1.17758 0 0 1.16739 438.01 233)">s</text><text fill="#CC0000" font-family="Times New Roman,Times New Roman_MSFontService,sans-serif" font-weight="400" font-size="10" transform="matrix(1.17758 0 0 1.16739 442.72 233)"> </text><text fill="#CC0000" font-family="Times New Roman,Times New Roman_MSFontService,sans-serif" font-weight="400" font-size="10" transform="matrix(1.17758 0 0 1.16739 446.253 233)">+ </text><text fill="#CC0000" font-family="Times New Roman,Times New Roman_MSFontService,sans-serif" font-weight="400" font-size="10" transform="matrix(1.17758 0 0 1.16739 456.851 233)">1</text><path d="M0 693.432 100.863 693.432 100.863 714.445 1.7813e-06 714.445Z" fill="#FFFFFF" fill-rule="evenodd" transform="matrix(1.00872 0 0 1 504.755 -474.639)"/><text fill="#CC0000" font-family="Times New Roman,Times New Roman_MSFontService,sans-serif" font-weight="400" font-size="10" transform="matrix(1.17758 0 0 1.16739 523.184 233)">UP slot </text><text fill="#CC0000" font-family="Times New Roman,Times New Roman_MSFontService,sans-serif" font-style="italic" font-weight="400" font-size="10" transform="matrix(1.17758 0 0 1.16739 563.221 233)">s</text><text fill="#CC0000" font-family="Times New Roman,Times New Roman_MSFontService,sans-serif" font-weight="400" font-size="10" transform="matrix(1.17758 0 0 1.16739 567.932 233)"> </text><text fill="#CC0000" font-family="Times New Roman,Times New Roman_MSFontService,sans-serif" font-weight="400" font-size="10" transform="matrix(1.17758 0 0 1.16739 571.464 233)">+ </text><text fill="#CC0000" font-family="Times New Roman,Times New Roman_MSFontService,sans-serif" font-style="italic" font-weight="400" font-size="10" transform="matrix(1.17758 0 0 1.16739 582.063 233)">M</text><path d="M0 693.432 100.863 693.432 100.863 714.445 1.7813e-06 714.445Z" fill="#FFFFFF" fill-rule="evenodd" transform="matrix(1.00872 0 0 1 631.933 -474.639)"/><text fill="#CC0000" font-family="Times New Roman,Times New Roman_MSFontService,sans-serif" font-weight="400" font-size="10" transform="matrix(1.17758 0 0 1.16739 641.153 233)">UP slot </text><text fill="#CC0000" font-family="Times New Roman,Times New Roman_MSFontService,sans-serif" font-style="italic" font-weight="400" font-size="10" transform="matrix(1.17758 0 0 1.16739 681.191 233)">s</text><text fill="#CC0000" font-family="Times New Roman,Times New Roman_MSFontService,sans-serif" font-weight="400" font-size="10" transform="matrix(1.17758 0 0 1.16739 685.901 233)"> </text><text fill="#CC0000" font-family="Times New Roman,Times New Roman_MSFontService,sans-serif" font-weight="400" font-size="10" transform="matrix(1.17758 0 0 1.16739 689.434 233)">+ </text><text fill="#CC0000" font-family="Times New Roman,Times New Roman_MSFontService,sans-serif" font-style="italic" font-weight="400" font-size="10" transform="matrix(1.17758 0 0 1.16739 700.032 233)">M</text><text fill="#CC0000" font-family="Times New Roman,Times New Roman_MSFontService,sans-serif" font-weight="400" font-size="10" transform="matrix(1.17758 0 0 1.16739 709.453 233)"> </text><text fill="#CC0000" font-family="Times New Roman,Times New Roman_MSFontService,sans-serif" font-weight="400" font-size="10" transform="matrix(1.17758 0 0 1.16739 712.986 233)">+ </text><text fill="#CC0000" font-family="Times New Roman,Times New Roman_MSFontService,sans-serif" font-weight="400" font-size="10" transform="matrix(1.17758 0 0 1.16739 723.584 233)">1</text><path d="M0 693.432 117.673 693.432 117.673 714.445 3.5626e-06 714.445Z" fill="#FFFFFF" fill-rule="evenodd" transform="matrix(1.00872 0 0 1 369.098 -420.008)"/><text fill="#3333B3" font-family="Times New Roman,Times New Roman_MSFontService,sans-serif" font-weight="400" font-size="10" transform="matrix(1.17758 0 0 1.16739 375.304 287)">DU slot </text><text fill="#3333B3" font-family="Times New Roman,Times New Roman_MSFontService,sans-serif" font-style="italic" font-weight="400" font-size="10" transform="matrix(1.17758 0 0 1.16739 416.519 287)">s</text><text fill="#3333B3" font-family="Times New Roman,Times New Roman_MSFontService,sans-serif" font-weight="400" font-size="10" transform="matrix(1.17758 0 0 1.16739 421.229 287)"> </text><text fill="#3333B3" font-family="Times New Roman,Times New Roman_MSFontService,sans-serif" font-weight="400" font-size="10" transform="matrix(1.17758 0 0 1.16739 424.762 287)">+ </text><text fill="#3333B3" font-family="Times New Roman,Times New Roman_MSFontService,sans-serif" font-style="italic" font-weight="400" font-size="10" transform="matrix(1.17758 0 0 1.16739 435.36 287)">H</text><text fill="#3333B3" font-family="Times New Roman,Times New Roman_MSFontService,sans-serif" font-weight="400" font-size="10" transform="matrix(1.17758 0 0 1.16739 443.603 287)"> </text><text fill="#3333B3" font-family="Times New Roman,Times New Roman_MSFontService,sans-serif" font-weight="400" font-size="10" transform="matrix(1.17758 0 0 1.16739 447.136 287)">+ </text><text fill="#3333B3" font-family="Times New Roman,Times New Roman_MSFontService,sans-serif" font-style="italic" font-weight="400" font-size="10" transform="matrix(1.17758 0 0 1.16739 457.734 287)">M</text><text fill="#3333B3" font-family="Times New Roman,Times New Roman_MSFontService,sans-serif" font-weight="400" font-size="10" transform="matrix(1.17758 0 0 1.16739 467.155 287)"> </text><text fill="#3333B3" font-family="Times New Roman,Times New Roman_MSFontService,sans-serif" font-weight="400" font-size="10" transform="matrix(1.17758 0 0 1.16739 470.687 287)">+ </text><text fill="#3333B3" font-family="Times New Roman,Times New Roman_MSFontService,sans-serif" font-weight="400" font-size="10" transform="matrix(1.17758 0 0 1.16739 481.286 287)">1</text><path d="M0 693.432 126.079 693.432 126.079 714.445 0 714.445Z" fill="#FFFFFF" fill-rule="evenodd" transform="matrix(1.00872 0 0 1 619.215 -420.008)"/><text fill="#3333B3" font-family="Times New Roman,Times New Roman_MSFontService,sans-serif" font-weight="400" font-size="10" transform="matrix(1.17758 0 0 1.16739 626.716 287)">DU slot </text><text fill="#3333B3" font-family="Times New Roman,Times New Roman_MSFontService,sans-serif" font-style="italic" font-weight="400" font-size="10" transform="matrix(1.17758 0 0 1.16739 667.932 287)">s</text><text fill="#3333B3" font-family="Times New Roman,Times New Roman_MSFontService,sans-serif" font-weight="400" font-size="10" transform="matrix(1.17758 0 0 1.16739 672.642 287)"> </text><text fill="#3333B3" font-family="Times New Roman,Times New Roman_MSFontService,sans-serif" font-weight="400" font-size="10" transform="matrix(1.17758 0 0 1.16739 676.175 287)">+ </text><text fill="#3333B3" font-family="Times New Roman,Times New Roman_MSFontService,sans-serif" font-style="italic" font-weight="400" font-size="10" transform="matrix(1.17758 0 0 1.16739 686.773 287)">H</text><text fill="#3333B3" font-family="Times New Roman,Times New Roman_MSFontService,sans-serif" font-weight="400" font-size="10" transform="matrix(1.17758 0 0 1.16739 695.016 287)"> </text><text fill="#3333B3" font-family="Times New Roman,Times New Roman_MSFontService,sans-serif" font-weight="400" font-size="10" transform="matrix(1.17758 0 0 1.16739 698.549 287)">+ </text><text fill="#3333B3" font-family="Times New Roman,Times New Roman_MSFontService,sans-serif" font-weight="400" font-size="10" transform="matrix(1.17758 0 0 1.16739 709.147 287)">2</text><text fill="#3333B3" font-family="Times New Roman,Times New Roman_MSFontService,sans-serif" font-style="italic" font-weight="400" font-size="10" transform="matrix(1.17758 0 0 1.16739 715.035 287)">M</text><text fill="#3333B3" font-family="Times New Roman,Times New Roman_MSFontService,sans-serif" font-weight="400" font-size="10" transform="matrix(1.17758 0 0 1.16739 724.455 287)"> </text><text fill="#3333B3" font-family="Times New Roman,Times New Roman_MSFontService,sans-serif" font-weight="400" font-size="10" transform="matrix(1.17758 0 0 1.16739 727.988 287)">+ </text><text fill="#3333B3" font-family="Times New Roman,Times New Roman_MSFontService,sans-serif" font-weight="400" font-size="10" transform="matrix(1.17758 0 0 1.16739 738.586 287)">1</text><path d="M0 693.432 100.863 693.432 100.863 714.445 1.7813e-06 714.445Z" fill="#FFFFFF" fill-rule="evenodd" transform="matrix(1.00872 0 0 1 250.398 -474.639)"/><text fill="#CC0000" font-family="Times New Roman,Times New Roman_MSFontService,sans-serif" font-weight="400" font-size="10" transform="matrix(1.17758 0 0 1.16739 280.002 233)">UP slot </text><text fill="#CC0000" font-family="Times New Roman,Times New Roman_MSFontService,sans-serif" font-style="italic" font-weight="400" font-size="10" transform="matrix(1.17758 0 0 1.16739 320.04 233)">s</text><path d="M0 693.432 100.863 693.432 100.863 714.445 1.7813e-06 714.445Z" fill="#FFFFFF" fill-rule="evenodd" transform="matrix(1.00872 0 0 1 250.398 -420.008)"/><text fill="#3333B3" font-family="Times New Roman,Times New Roman_MSFontService,sans-serif" font-weight="400" font-size="10" transform="matrix(1.17758 0 0 1.16739 257.334 287)">DU slot </text><text fill="#3333B3" font-family="Times New Roman,Times New Roman_MSFontService,sans-serif" font-style="italic" font-weight="400" font-size="10" transform="matrix(1.17758 0 0 1.16739 298.549 287)">s</text><text fill="#3333B3" font-family="Times New Roman,Times New Roman_MSFontService,sans-serif" font-weight="400" font-size="10" transform="matrix(1.17758 0 0 1.16739 303.26 287)"> </text><text fill="#3333B3" font-family="Times New Roman,Times New Roman_MSFontService,sans-serif" font-weight="400" font-size="10" transform="matrix(1.17758 0 0 1.16739 306.792 287)">+ </text><text fill="#3333B3" font-family="Times New Roman,Times New Roman_MSFontService,sans-serif" font-style="italic" font-weight="400" font-size="10" transform="matrix(1.17758 0 0 1.16739 317.391 287)">H</text><text fill="#3333B3" font-family="Times New Roman,Times New Roman_MSFontService,sans-serif" font-weight="400" font-size="10" transform="matrix(1.17758 0 0 1.16739 325.634 287)"> </text><text fill="#3333B3" font-family="Times New Roman,Times New Roman_MSFontService,sans-serif" font-weight="400" font-size="10" transform="matrix(1.17758 0 0 1.16739 329.166 287)">+ </text><text fill="#3333B3" font-family="Times New Roman,Times New Roman_MSFontService,sans-serif" font-style="italic" font-weight="400" font-size="10" transform="matrix(1.17758 0 0 1.16739 339.764 287)">M</text><path d="M0 693.432 117.673 693.432 117.673 714.445 3.5626e-06 714.445Z" fill="#FFFFFF" fill-rule="evenodd" transform="matrix(1.00872 0 0 1 496.276 -420.008)"/><text fill="#3333B3" font-family="Times New Roman,Times New Roman_MSFontService,sans-serif" font-weight="400" font-size="10" transform="matrix(1.17758 0 0 1.16739 508.747 287)">DU slot </text><text fill="#3333B3" font-family="Times New Roman,Times New Roman_MSFontService,sans-serif" font-style="italic" font-weight="400" font-size="10" transform="matrix(1.17758 0 0 1.16739 549.962 287)">s</text><text fill="#3333B3" font-family="Times New Roman,Times New Roman_MSFontService,sans-serif" font-weight="400" font-size="10" transform="matrix(1.17758 0 0 1.16739 554.672 287)"> </text><text fill="#3333B3" font-family="Times New Roman,Times New Roman_MSFontService,sans-serif" font-weight="400" font-size="10" transform="matrix(1.17758 0 0 1.16739 558.205 287)">+ </text><text fill="#3333B3" font-family="Times New Roman,Times New Roman_MSFontService,sans-serif" font-style="italic" font-weight="400" font-size="10" transform="matrix(1.17758 0 0 1.16739 568.803 287)">H</text><text fill="#3333B3" font-family="Times New Roman,Times New Roman_MSFontService,sans-serif" font-weight="400" font-size="10" transform="matrix(1.17758 0 0 1.16739 577.046 287)"> </text><text fill="#3333B3" font-family="Times New Roman,Times New Roman_MSFontService,sans-serif" font-weight="400" font-size="10" transform="matrix(1.17758 0 0 1.16739 580.579 287)">+ </text><text fill="#3333B3" font-family="Times New Roman,Times New Roman_MSFontService,sans-serif" font-weight="400" font-size="10" transform="matrix(1.17758 0 0 1.16739 591.177 287)">2</text><text fill="#3333B3" font-family="Times New Roman,Times New Roman_MSFontService,sans-serif" font-style="italic" font-weight="400" font-size="10" transform="matrix(1.17758 0 0 1.16739 597.065 287)">M</text><path d="M0 682.926 31.0913 682.926 31.0913 714.445 5.94955e-07 714.445Z" fill="#FFFFFF" fill-rule="evenodd" transform="matrix(1.00872 0 0 1 478.475 -441.228)"/><text font-family="Times New Roman,Times New Roman_MSFontService,sans-serif" font-weight="400" font-size="14" transform="matrix(1.17758 0 0 1.16739 485.917 262)">···</text><path d="M0 698.41 18.3865 698.41 18.3865 714.445 0 714.445Z" fill="#F4CCCC" fill-rule="evenodd" transform="matrix(1.00872 0 0 1 301.931 -458.602)"/><path d="M0 698.41 1.31332 698.41 1.31332 714.445 0 714.445Z" fill="#E06666" fill-rule="evenodd" transform="matrix(1.00872 0 0 1 320.882 -458.602)"/><path d="M0 698.41 18.3865 698.41 18.3865 714.445 0 714.445Z" fill="#F4CCCC" fill-rule="evenodd" transform="matrix(1.00872 0 0 1 322.61 -458.602)"/><path d="M0 698.41 1.31332 698.41 1.31332 714.445 0 714.445Z" fill="#E06666" fill-rule="evenodd" transform="matrix(1.00872 0 0 1 341.56 -458.602)"/><path d="M0 698.41 18.3865 698.41 18.3865 714.445 0 714.445Z" fill="#F4CCCC" fill-rule="evenodd" transform="matrix(1.00872 0 0 1 343.288 -458.602)"/><path d="M0 698.41 1.31332 698.41 1.31332 714.445 0 714.445Z" fill="#E06666" fill-rule="evenodd" transform="matrix(1.00872 0 0 1 362.237 -458.602)"/><path d="M0 698.41 1.31332 698.41 1.31332 714.445 0 714.445Z" fill="#E06666" fill-rule="evenodd" transform="matrix(1.00872 0 0 1 426.461 -458.602)"/><path d="M0 698.41 18.3865 698.41 18.3865 714.445 0 714.445Z" fill="#F4CCCC" fill-rule="evenodd" transform="matrix(1.00872 0 0 1 407.51 -458.602)"/><text fill="#CC0000" font-family="Times New Roman,Times New Roman_MSFontService,sans-serif" font-weight="400" font-size="14" transform="matrix(1.17758 0 0 1.16739 377.297 254)">···</text><path d="M0 698.41 18.3865 698.41 18.3865 714.445 0 714.445Z" fill="#F4CCCC" fill-rule="evenodd" transform="matrix(1.00872 0 0 1 556.288 -458.602)"/><path d="M0 698.41 1.31332 698.41 1.31332 714.445 0 714.445Z" fill="#E06666" fill-rule="evenodd" transform="matrix(1.00872 0 0 1 575.239 -458.602)"/><path d="M0 698.41 18.3865 698.41 18.3865 714.445 0 714.445Z" fill="#F4CCCC" fill-rule="evenodd" transform="matrix(1.00872 0 0 1 576.966 -458.602)"/><path d="M0 698.41 1.31332 698.41 1.31332 714.445 0 714.445Z" fill="#E06666" fill-rule="evenodd" transform="matrix(1.00872 0 0 1 595.917 -458.602)"/><path d="M0 698.41 18.3865 698.41 18.3865 714.445 0 714.445Z" fill="#F4CCCC" fill-rule="evenodd" transform="matrix(1.00872 0 0 1 597.644 -458.602)"/><path d="M0 698.41 1.31332 698.41 1.31332 714.445 0 714.445Z" fill="#E06666" fill-rule="evenodd" transform="matrix(1.00872 0 0 1 616.594 -458.602)"/><path d="M0 698.41 1.31332 698.41 1.31332 714.445 0 714.445Z" fill="#E06666" fill-rule="evenodd" transform="matrix(1.00872 0 0 1 680.818 -458.602)"/><path d="M0 698.41 18.3865 698.41 18.3865 714.445 0 714.445Z" fill="#F4CCCC" fill-rule="evenodd" transform="matrix(1.00872 0 0 1 661.867 -458.602)"/><text fill="#CC0000" font-family="Times New Roman,Times New Roman_MSFontService,sans-serif" font-weight="400" font-size="14" transform="matrix(1.17758 0 0 1.16739 631.654 254)">···</text><path d="M0 698.41 46.2288 698.41 46.2288 714.445-1.7813e-06 714.445Z" fill="#FEE599" fill-rule="evenodd" transform="matrix(1.00872 0 0 1 429.111 -441.022)"/><text fill="#CC0000" font-family="Times New Roman,Times New Roman_MSFontService,sans-serif" font-weight="700" font-size="10" transform="matrix(1.17758 0 0 1.16739 206.322 235)">RU</text><text fill="#CC0000" font-family="Times New Roman,Times New Roman_MSFontService,sans-serif" font-weight="700" font-size="10" transform="matrix(1.17758 0 0 1.16739 222.808 235)">-</text><text fill="#CC0000" font-family="Times New Roman,Times New Roman_MSFontService,sans-serif" font-weight="700" font-size="10" transform="matrix(1.17758 0 0 1.16739 226.34 235)">UL </text><text fill="#CC0000" font-family="Times New Roman,Times New Roman_MSFontService,sans-serif" font-weight="700" font-size="10" transform="matrix(1.17758 0 0 1.16739 200.445 249)">Processor</text><text fill="#3333B3" font-family="Times New Roman,Times New Roman_MSFontService,sans-serif" font-weight="700" font-size="10" transform="matrix(1.17758 0 0 1.16739 216.46 272)">DU </text><text fill="#3333B3" font-family="Times New Roman,Times New Roman_MSFontService,sans-serif" font-weight="700" font-size="10" transform="matrix(1.17758 0 0 1.16739 200.445 286)">Processor</text><path d="M3.5372 714.445 3.95747 714.445 15.1294 714.445" stroke="#000000" stroke-width="0.583697" stroke-linecap="round" stroke-linejoin="round" stroke-miterlimit="3" fill="none" fill-rule="evenodd" transform="matrix(-1.00872 1.22465e-16 -1.23533e-16 -1 300.608 962.271)"/><path d="M4.52949 2.26474 0 0 4.48684-2.24977C3.78604-0.825533 3.78894 0.843937 4.49473 2.26572" fill-rule="evenodd" transform="matrix(-1.00872 1.22465e-16 -1.23533e-16 -1 300.614 247.825)"/><text font-family="Cambria Math,Cambria Math_MSFontService,sans-serif" font-weight="400" font-size="10" transform="matrix(1.17758 0 0 1.16739 272.572 252)">④</text><path d="M3.5372 714.445 3.95747 714.445 15.1294 714.445" stroke="#000000" stroke-width="0.583697" stroke-linecap="round" stroke-linejoin="round" stroke-miterlimit="3" fill="none" fill-rule="evenodd" transform="matrix(-1.00872 1.22465e-16 -1.23533e-16 -1 427.786 979.85)"/><path d="M4.52949 2.26474 0 0 4.48684-2.24977C3.78604-0.825533 3.78894 0.843937 4.49473 2.26572" fill-rule="evenodd" transform="matrix(-1.00872 1.22465e-16 -1.23533e-16 -1 427.792 265.405)"/><text font-family="Cambria Math,Cambria Math_MSFontService,sans-serif" font-weight="400" font-size="10" transform="matrix(1.17758 0 0 1.16739 399.75 269)">⑤</text></g></svg>