<?xml version="1.0" encoding="utf-8" standalone="no"?>
<!DOCTYPE svg PUBLIC "-//W3C//DTD SVG 1.1//EN"
  "http://www.w3.org/Graphics/SVG/1.1/DTD/svg11.dtd">
<svg xmlns:xlink="http://www.w3.org/1999/xlink" width="429.15125pt" height="316.559844pt" viewBox="0 0 429.15125 316.559844" xmlns="http://www.w3.org/2000/svg" version="1.1">
 <metadata>
  <rdf:RDF xmlns:dc="http://purl.org/dc/elements/1.1/" xmlns:cc="http://creativecommons.org/ns#" xmlns:rdf="http://www.w3.org/1999/02/22-rdf-syntax-ns#">
   <cc:Work>
    <dc:type rdf:resource="http://purl.org/dc/dcmitype/StillImage"/>
    <dc:date>2024-11-26T12:27:04.456973</dc:date>
    <dc:format>image/svg+xml</dc:format>
    <dc:creator>
     <cc:Agent>
      <dc:title>Matplotlib v3.8.3, https://matplotlib.org/</dc:title>
     </cc:Agent>
    </dc:creator>
   </cc:Work>
  </rdf:RDF>
 </metadata>
 <defs>
  <style type="text/css">*{stroke-linejoin: round; stroke-linecap: butt}</style>
 </defs>
 <g id="figure_1">
  <g id="patch_1">
   <path d="M 0 316.559844 
L 429.15125 316.559844 
L 429.15125 0 
L 0 0 
z
" style="fill: #ffffff"/>
  </g>
  <g id="axes_1">
   <g id="patch_2">
    <path d="M 75.69875 263.518594 
L 410.49875 263.518594 
L 410.49875 14.038594 
L 75.69875 14.038594 
z
" style="fill: #ffffff"/>
   </g>
   <g id="patch_3">
    <path d="M 137.632105 263.518594 
L 139.770144 263.518594 
L 139.770144 253.955194 
L 137.632105 253.955194 
z
" clip-path="url(#p4dcbe2be1c)" style="fill: #00a4ef; fill-opacity: 0.5"/>
   </g>
   <g id="patch_4">
    <path d="M 140.007704 263.518594 
L 142.145743 263.518594 
L 142.145743 250.628794 
L 140.007704 250.628794 
z
" clip-path="url(#p4dcbe2be1c)" style="fill: #00a4ef; fill-opacity: 0.5"/>
   </g>
   <g id="patch_5">
    <path d="M 142.383302 263.518594 
L 144.521341 263.518594 
L 144.521341 234.828394 
L 142.383302 234.828394 
z
" clip-path="url(#p4dcbe2be1c)" style="fill: #00a4ef; fill-opacity: 0.5"/>
   </g>
   <g id="patch_6">
    <path d="M 144.758901 263.518594 
L 146.89694 263.518594 
L 146.89694 202.811794 
L 144.758901 202.811794 
z
" clip-path="url(#p4dcbe2be1c)" style="fill: #00a4ef; fill-opacity: 0.5"/>
   </g>
   <g id="patch_7">
    <path d="M 147.1345 263.518594 
L 149.272538 263.518594 
L 149.272538 172.458394 
L 147.1345 172.458394 
z
" clip-path="url(#p4dcbe2be1c)" style="fill: #00a4ef; fill-opacity: 0.5"/>
   </g>
   <g id="patch_8">
    <path d="M 149.510098 263.518594 
L 151.648137 263.518594 
L 151.648137 153.747394 
L 149.510098 153.747394 
z
" clip-path="url(#p4dcbe2be1c)" style="fill: #00a4ef; fill-opacity: 0.5"/>
   </g>
   <g id="patch_9">
    <path d="M 151.885697 263.518594 
L 154.023736 263.518594 
L 154.023736 120.483394 
L 151.885697 120.483394 
z
" clip-path="url(#p4dcbe2be1c)" style="fill: #00a4ef; fill-opacity: 0.5"/>
   </g>
   <g id="patch_10">
    <path d="M 154.261295 263.518594 
L 156.399334 263.518594 
L 156.399334 100.109194 
L 154.261295 100.109194 
z
" clip-path="url(#p4dcbe2be1c)" style="fill: #00a4ef; fill-opacity: 0.5"/>
   </g>
   <g id="patch_11">
    <path d="M 156.636894 263.518594 
L 158.774933 263.518594 
L 158.774933 78.903394 
L 156.636894 78.903394 
z
" clip-path="url(#p4dcbe2be1c)" style="fill: #00a4ef; fill-opacity: 0.5"/>
   </g>
   <g id="patch_12">
    <path d="M 159.012493 263.518594 
L 161.150531 263.518594 
L 161.150531 77.240194 
L 159.012493 77.240194 
z
" clip-path="url(#p4dcbe2be1c)" style="fill: #00a4ef; fill-opacity: 0.5"/>
   </g>
   <g id="patch_13">
    <path d="M 161.388091 263.518594 
L 163.52613 263.518594 
L 163.52613 95.119594 
L 161.388091 95.119594 
z
" clip-path="url(#p4dcbe2be1c)" style="fill: #00a4ef; fill-opacity: 0.5"/>
   </g>
   <g id="patch_14">
    <path d="M 163.76369 263.518594 
L 165.901729 263.518594 
L 165.901729 110.088394 
L 163.76369 110.088394 
z
" clip-path="url(#p4dcbe2be1c)" style="fill: #00a4ef; fill-opacity: 0.5"/>
   </g>
   <g id="patch_15">
    <path d="M 166.139289 263.518594 
L 168.277327 263.518594 
L 168.277327 131.294194 
L 166.139289 131.294194 
z
" clip-path="url(#p4dcbe2be1c)" style="fill: #00a4ef; fill-opacity: 0.5"/>
   </g>
   <g id="patch_16">
    <path d="M 168.514887 263.518594 
L 170.652926 263.518594 
L 170.652926 153.331594 
L 168.514887 153.331594 
z
" clip-path="url(#p4dcbe2be1c)" style="fill: #00a4ef; fill-opacity: 0.5"/>
   </g>
   <g id="patch_17">
    <path d="M 170.890486 263.518594 
L 173.028525 263.518594 
L 173.028525 162.479194 
L 170.890486 162.479194 
z
" clip-path="url(#p4dcbe2be1c)" style="fill: #00a4ef; fill-opacity: 0.5"/>
   </g>
   <g id="patch_18">
    <path d="M 173.266084 263.518594 
L 175.404123 263.518594 
L 175.404123 179.111194 
L 173.266084 179.111194 
z
" clip-path="url(#p4dcbe2be1c)" style="fill: #00a4ef; fill-opacity: 0.5"/>
   </g>
   <g id="patch_19">
    <path d="M 175.641683 263.518594 
L 177.779722 263.518594 
L 177.779722 187.011394 
L 175.641683 187.011394 
z
" clip-path="url(#p4dcbe2be1c)" style="fill: #00a4ef; fill-opacity: 0.5"/>
   </g>
   <g id="patch_20">
    <path d="M 178.017282 263.518594 
L 180.15532 263.518594 
L 180.15532 197.822194 
L 178.017282 197.822194 
z
" clip-path="url(#p4dcbe2be1c)" style="fill: #00a4ef; fill-opacity: 0.5"/>
   </g>
   <g id="patch_21">
    <path d="M 180.39288 263.518594 
L 182.530919 263.518594 
L 182.530919 211.127794 
L 180.39288 211.127794 
z
" clip-path="url(#p4dcbe2be1c)" style="fill: #00a4ef; fill-opacity: 0.5"/>
   </g>
   <g id="patch_22">
    <path d="M 182.768479 263.518594 
L 184.906518 263.518594 
L 184.906518 213.206794 
L 182.768479 213.206794 
z
" clip-path="url(#p4dcbe2be1c)" style="fill: #00a4ef; fill-opacity: 0.5"/>
   </g>
   <g id="patch_23">
    <path d="M 185.144078 263.518594 
L 187.282116 263.518594 
L 187.282116 227.343994 
L 185.144078 227.343994 
z
" clip-path="url(#p4dcbe2be1c)" style="fill: #00a4ef; fill-opacity: 0.5"/>
   </g>
   <g id="patch_24">
    <path d="M 187.519676 263.518594 
L 189.657715 263.518594 
L 189.657715 238.154794 
L 187.519676 238.154794 
z
" clip-path="url(#p4dcbe2be1c)" style="fill: #00a4ef; fill-opacity: 0.5"/>
   </g>
   <g id="patch_25">
    <path d="M 189.895275 263.518594 
L 192.033314 263.518594 
L 192.033314 248.133994 
L 189.895275 248.133994 
z
" clip-path="url(#p4dcbe2be1c)" style="fill: #00a4ef; fill-opacity: 0.5"/>
   </g>
   <g id="patch_26">
    <path d="M 192.270873 263.518594 
L 194.408912 263.518594 
L 194.408912 258.944794 
L 192.270873 258.944794 
z
" clip-path="url(#p4dcbe2be1c)" style="fill: #00a4ef; fill-opacity: 0.5"/>
   </g>
   <g id="patch_27">
    <path d="M 194.646472 263.518594 
L 196.784511 263.518594 
L 196.784511 263.102794 
L 194.646472 263.102794 
z
" clip-path="url(#p4dcbe2be1c)" style="fill: #00a4ef; fill-opacity: 0.5"/>
   </g>
   <g id="patch_28">
    <path d="M 197.022071 263.518594 
L 199.160109 263.518594 
L 199.160109 263.518594 
L 197.022071 263.518594 
z
" clip-path="url(#p4dcbe2be1c)" style="fill: #00a4ef; fill-opacity: 0.5"/>
   </g>
   <g id="patch_29">
    <path d="M 199.397669 263.518594 
L 201.535708 263.518594 
L 201.535708 263.518594 
L 199.397669 263.518594 
z
" clip-path="url(#p4dcbe2be1c)" style="fill: #00a4ef; fill-opacity: 0.5"/>
   </g>
   <g id="patch_30">
    <path d="M 201.773268 263.518594 
L 203.911307 263.518594 
L 203.911307 263.518594 
L 201.773268 263.518594 
z
" clip-path="url(#p4dcbe2be1c)" style="fill: #00a4ef; fill-opacity: 0.5"/>
   </g>
   <g id="patch_31">
    <path d="M 204.148867 263.518594 
L 206.286905 263.518594 
L 206.286905 262.686994 
L 204.148867 262.686994 
z
" clip-path="url(#p4dcbe2be1c)" style="fill: #00a4ef; fill-opacity: 0.5"/>
   </g>
   <g id="patch_32">
    <path d="M 206.524465 263.518594 
L 208.662504 263.518594 
L 208.662504 263.518594 
L 206.524465 263.518594 
z
" clip-path="url(#p4dcbe2be1c)" style="fill: #00a4ef; fill-opacity: 0.5"/>
   </g>
   <g id="patch_33">
    <path d="M 208.900064 263.518594 
L 211.038103 263.518594 
L 211.038103 263.518594 
L 208.900064 263.518594 
z
" clip-path="url(#p4dcbe2be1c)" style="fill: #00a4ef; fill-opacity: 0.5"/>
   </g>
   <g id="patch_34">
    <path d="M 211.275662 263.518594 
L 213.413701 263.518594 
L 213.413701 263.518594 
L 211.275662 263.518594 
z
" clip-path="url(#p4dcbe2be1c)" style="fill: #00a4ef; fill-opacity: 0.5"/>
   </g>
   <g id="patch_35">
    <path d="M 213.651261 263.518594 
L 215.7893 263.518594 
L 215.7893 263.518594 
L 213.651261 263.518594 
z
" clip-path="url(#p4dcbe2be1c)" style="fill: #00a4ef; fill-opacity: 0.5"/>
   </g>
   <g id="patch_36">
    <path d="M 216.02686 263.518594 
L 218.164898 263.518594 
L 218.164898 263.518594 
L 216.02686 263.518594 
z
" clip-path="url(#p4dcbe2be1c)" style="fill: #00a4ef; fill-opacity: 0.5"/>
   </g>
   <g id="patch_37">
    <path d="M 218.402458 263.518594 
L 220.540497 263.518594 
L 220.540497 263.518594 
L 218.402458 263.518594 
z
" clip-path="url(#p4dcbe2be1c)" style="fill: #00a4ef; fill-opacity: 0.5"/>
   </g>
   <g id="patch_38">
    <path d="M 220.778057 263.518594 
L 222.916096 263.518594 
L 222.916096 263.102794 
L 220.778057 263.102794 
z
" clip-path="url(#p4dcbe2be1c)" style="fill: #00a4ef; fill-opacity: 0.5"/>
   </g>
   <g id="patch_39">
    <path d="M 223.153655 263.518594 
L 225.291694 263.518594 
L 225.291694 263.518594 
L 223.153655 263.518594 
z
" clip-path="url(#p4dcbe2be1c)" style="fill: #00a4ef; fill-opacity: 0.5"/>
   </g>
   <g id="patch_40">
    <path d="M 225.529254 263.518594 
L 227.667293 263.518594 
L 227.667293 263.102794 
L 225.529254 263.102794 
z
" clip-path="url(#p4dcbe2be1c)" style="fill: #00a4ef; fill-opacity: 0.5"/>
   </g>
   <g id="patch_41">
    <path d="M 227.904853 263.518594 
L 230.042891 263.518594 
L 230.042891 263.518594 
L 227.904853 263.518594 
z
" clip-path="url(#p4dcbe2be1c)" style="fill: #00a4ef; fill-opacity: 0.5"/>
   </g>
   <g id="patch_42">
    <path d="M 230.280451 263.518594 
L 232.41849 263.518594 
L 232.41849 263.518594 
L 230.280451 263.518594 
z
" clip-path="url(#p4dcbe2be1c)" style="fill: #00a4ef; fill-opacity: 0.5"/>
   </g>
   <g id="patch_43">
    <path d="M 232.65605 263.518594 
L 234.794089 263.518594 
L 234.794089 262.686994 
L 232.65605 262.686994 
z
" clip-path="url(#p4dcbe2be1c)" style="fill: #00a4ef; fill-opacity: 0.5"/>
   </g>
   <g id="patch_44">
    <path d="M 235.031649 263.518594 
L 237.169687 263.518594 
L 237.169687 263.518594 
L 235.031649 263.518594 
z
" clip-path="url(#p4dcbe2be1c)" style="fill: #00a4ef; fill-opacity: 0.5"/>
   </g>
   <g id="patch_45">
    <path d="M 237.407247 263.518594 
L 239.545286 263.518594 
L 239.545286 263.518594 
L 237.407247 263.518594 
z
" clip-path="url(#p4dcbe2be1c)" style="fill: #00a4ef; fill-opacity: 0.5"/>
   </g>
   <g id="patch_46">
    <path d="M 239.782846 263.518594 
L 241.920885 263.518594 
L 241.920885 263.518594 
L 239.782846 263.518594 
z
" clip-path="url(#p4dcbe2be1c)" style="fill: #00a4ef; fill-opacity: 0.5"/>
   </g>
   <g id="patch_47">
    <path d="M 242.158444 263.518594 
L 244.296483 263.518594 
L 244.296483 262.686994 
L 242.158444 262.686994 
z
" clip-path="url(#p4dcbe2be1c)" style="fill: #00a4ef; fill-opacity: 0.5"/>
   </g>
   <g id="patch_48">
    <path d="M 244.534043 263.518594 
L 246.672082 263.518594 
L 246.672082 262.686994 
L 244.534043 262.686994 
z
" clip-path="url(#p4dcbe2be1c)" style="fill: #00a4ef; fill-opacity: 0.5"/>
   </g>
   <g id="patch_49">
    <path d="M 246.909642 263.518594 
L 249.04768 263.518594 
L 249.04768 263.102794 
L 246.909642 263.102794 
z
" clip-path="url(#p4dcbe2be1c)" style="fill: #00a4ef; fill-opacity: 0.5"/>
   </g>
   <g id="patch_50">
    <path d="M 249.28524 263.518594 
L 251.423279 263.518594 
L 251.423279 263.518594 
L 249.28524 263.518594 
z
" clip-path="url(#p4dcbe2be1c)" style="fill: #00a4ef; fill-opacity: 0.5"/>
   </g>
   <g id="patch_51">
    <path d="M 251.660839 263.518594 
L 253.798878 263.518594 
L 253.798878 263.518594 
L 251.660839 263.518594 
z
" clip-path="url(#p4dcbe2be1c)" style="fill: #00a4ef; fill-opacity: 0.5"/>
   </g>
   <g id="patch_52">
    <path d="M 254.036438 263.518594 
L 256.174476 263.518594 
L 256.174476 263.518594 
L 254.036438 263.518594 
z
" clip-path="url(#p4dcbe2be1c)" style="fill: #00a4ef; fill-opacity: 0.5"/>
   </g>
   <g id="patch_53">
    <path d="M 256.412036 263.518594 
L 258.550075 263.518594 
L 258.550075 263.518594 
L 256.412036 263.518594 
z
" clip-path="url(#p4dcbe2be1c)" style="fill: #00a4ef; fill-opacity: 0.5"/>
   </g>
   <g id="patch_54">
    <path d="M 258.787635 263.518594 
L 260.925674 263.518594 
L 260.925674 263.518594 
L 258.787635 263.518594 
z
" clip-path="url(#p4dcbe2be1c)" style="fill: #00a4ef; fill-opacity: 0.5"/>
   </g>
   <g id="patch_55">
    <path d="M 261.163233 263.518594 
L 263.301272 263.518594 
L 263.301272 263.102794 
L 261.163233 263.102794 
z
" clip-path="url(#p4dcbe2be1c)" style="fill: #00a4ef; fill-opacity: 0.5"/>
   </g>
   <g id="patch_56">
    <path d="M 263.538832 263.518594 
L 265.676871 263.518594 
L 265.676871 263.102794 
L 263.538832 263.102794 
z
" clip-path="url(#p4dcbe2be1c)" style="fill: #00a4ef; fill-opacity: 0.5"/>
   </g>
   <g id="patch_57">
    <path d="M 265.914431 263.518594 
L 268.052469 263.518594 
L 268.052469 263.518594 
L 265.914431 263.518594 
z
" clip-path="url(#p4dcbe2be1c)" style="fill: #00a4ef; fill-opacity: 0.5"/>
   </g>
   <g id="patch_58">
    <path d="M 268.290029 263.518594 
L 270.428068 263.518594 
L 270.428068 263.518594 
L 268.290029 263.518594 
z
" clip-path="url(#p4dcbe2be1c)" style="fill: #00a4ef; fill-opacity: 0.5"/>
   </g>
   <g id="patch_59">
    <path d="M 270.665628 263.518594 
L 272.803667 263.518594 
L 272.803667 263.518594 
L 270.665628 263.518594 
z
" clip-path="url(#p4dcbe2be1c)" style="fill: #00a4ef; fill-opacity: 0.5"/>
   </g>
   <g id="patch_60">
    <path d="M 273.041227 263.518594 
L 275.179265 263.518594 
L 275.179265 263.518594 
L 273.041227 263.518594 
z
" clip-path="url(#p4dcbe2be1c)" style="fill: #00a4ef; fill-opacity: 0.5"/>
   </g>
   <g id="patch_61">
    <path d="M 275.416825 263.518594 
L 277.554864 263.518594 
L 277.554864 263.518594 
L 275.416825 263.518594 
z
" clip-path="url(#p4dcbe2be1c)" style="fill: #00a4ef; fill-opacity: 0.5"/>
   </g>
   <g id="patch_62">
    <path d="M 277.792424 263.518594 
L 279.930463 263.518594 
L 279.930463 263.518594 
L 277.792424 263.518594 
z
" clip-path="url(#p4dcbe2be1c)" style="fill: #00a4ef; fill-opacity: 0.5"/>
   </g>
   <g id="patch_63">
    <path d="M 280.168022 263.518594 
L 282.306061 263.518594 
L 282.306061 263.518594 
L 280.168022 263.518594 
z
" clip-path="url(#p4dcbe2be1c)" style="fill: #00a4ef; fill-opacity: 0.5"/>
   </g>
   <g id="patch_64">
    <path d="M 282.543621 263.518594 
L 284.68166 263.518594 
L 284.68166 263.518594 
L 282.543621 263.518594 
z
" clip-path="url(#p4dcbe2be1c)" style="fill: #00a4ef; fill-opacity: 0.5"/>
   </g>
   <g id="patch_65">
    <path d="M 284.91922 263.518594 
L 287.057258 263.518594 
L 287.057258 263.102794 
L 284.91922 263.102794 
z
" clip-path="url(#p4dcbe2be1c)" style="fill: #00a4ef; fill-opacity: 0.5"/>
   </g>
   <g id="patch_66">
    <path d="M 287.294818 263.518594 
L 289.432857 263.518594 
L 289.432857 263.518594 
L 287.294818 263.518594 
z
" clip-path="url(#p4dcbe2be1c)" style="fill: #00a4ef; fill-opacity: 0.5"/>
   </g>
   <g id="patch_67">
    <path d="M 289.670417 263.518594 
L 291.808456 263.518594 
L 291.808456 263.518594 
L 289.670417 263.518594 
z
" clip-path="url(#p4dcbe2be1c)" style="fill: #00a4ef; fill-opacity: 0.5"/>
   </g>
   <g id="patch_68">
    <path d="M 292.046016 263.518594 
L 294.184054 263.518594 
L 294.184054 263.102794 
L 292.046016 263.102794 
z
" clip-path="url(#p4dcbe2be1c)" style="fill: #00a4ef; fill-opacity: 0.5"/>
   </g>
   <g id="patch_69">
    <path d="M 294.421614 263.518594 
L 296.559653 263.518594 
L 296.559653 263.102794 
L 294.421614 263.102794 
z
" clip-path="url(#p4dcbe2be1c)" style="fill: #00a4ef; fill-opacity: 0.5"/>
   </g>
   <g id="patch_70">
    <path d="M 296.797213 263.518594 
L 298.935252 263.518594 
L 298.935252 263.518594 
L 296.797213 263.518594 
z
" clip-path="url(#p4dcbe2be1c)" style="fill: #00a4ef; fill-opacity: 0.5"/>
   </g>
   <g id="patch_71">
    <path d="M 299.172811 263.518594 
L 301.31085 263.518594 
L 301.31085 263.518594 
L 299.172811 263.518594 
z
" clip-path="url(#p4dcbe2be1c)" style="fill: #00a4ef; fill-opacity: 0.5"/>
   </g>
   <g id="patch_72">
    <path d="M 301.54841 263.518594 
L 303.686449 263.518594 
L 303.686449 262.686994 
L 301.54841 262.686994 
z
" clip-path="url(#p4dcbe2be1c)" style="fill: #00a4ef; fill-opacity: 0.5"/>
   </g>
   <g id="patch_73">
    <path d="M 303.924009 263.518594 
L 306.062047 263.518594 
L 306.062047 263.102794 
L 303.924009 263.102794 
z
" clip-path="url(#p4dcbe2be1c)" style="fill: #00a4ef; fill-opacity: 0.5"/>
   </g>
   <g id="patch_74">
    <path d="M 306.299607 263.518594 
L 308.437646 263.518594 
L 308.437646 263.102794 
L 306.299607 263.102794 
z
" clip-path="url(#p4dcbe2be1c)" style="fill: #00a4ef; fill-opacity: 0.5"/>
   </g>
   <g id="patch_75">
    <path d="M 308.675206 263.518594 
L 310.813245 263.518594 
L 310.813245 263.518594 
L 308.675206 263.518594 
z
" clip-path="url(#p4dcbe2be1c)" style="fill: #00a4ef; fill-opacity: 0.5"/>
   </g>
   <g id="patch_76">
    <path d="M 311.050804 263.518594 
L 313.188843 263.518594 
L 313.188843 263.518594 
L 311.050804 263.518594 
z
" clip-path="url(#p4dcbe2be1c)" style="fill: #00a4ef; fill-opacity: 0.5"/>
   </g>
   <g id="patch_77">
    <path d="M 313.426403 263.518594 
L 315.564442 263.518594 
L 315.564442 263.102794 
L 313.426403 263.102794 
z
" clip-path="url(#p4dcbe2be1c)" style="fill: #00a4ef; fill-opacity: 0.5"/>
   </g>
   <g id="patch_78">
    <path d="M 315.802002 263.518594 
L 317.94004 263.518594 
L 317.94004 263.518594 
L 315.802002 263.518594 
z
" clip-path="url(#p4dcbe2be1c)" style="fill: #00a4ef; fill-opacity: 0.5"/>
   </g>
   <g id="patch_79">
    <path d="M 318.1776 263.518594 
L 320.315639 263.518594 
L 320.315639 263.518594 
L 318.1776 263.518594 
z
" clip-path="url(#p4dcbe2be1c)" style="fill: #00a4ef; fill-opacity: 0.5"/>
   </g>
   <g id="patch_80">
    <path d="M 320.553199 263.518594 
L 322.691238 263.518594 
L 322.691238 263.518594 
L 320.553199 263.518594 
z
" clip-path="url(#p4dcbe2be1c)" style="fill: #00a4ef; fill-opacity: 0.5"/>
   </g>
   <g id="patch_81">
    <path d="M 322.928798 263.518594 
L 325.066836 263.518594 
L 325.066836 263.518594 
L 322.928798 263.518594 
z
" clip-path="url(#p4dcbe2be1c)" style="fill: #00a4ef; fill-opacity: 0.5"/>
   </g>
   <g id="patch_82">
    <path d="M 325.304396 263.518594 
L 327.442435 263.518594 
L 327.442435 263.102794 
L 325.304396 263.102794 
z
" clip-path="url(#p4dcbe2be1c)" style="fill: #00a4ef; fill-opacity: 0.5"/>
   </g>
   <g id="patch_83">
    <path d="M 327.679995 263.518594 
L 329.818034 263.518594 
L 329.818034 263.102794 
L 327.679995 263.102794 
z
" clip-path="url(#p4dcbe2be1c)" style="fill: #00a4ef; fill-opacity: 0.5"/>
   </g>
   <g id="patch_84">
    <path d="M 330.055593 263.518594 
L 332.193632 263.518594 
L 332.193632 263.518594 
L 330.055593 263.518594 
z
" clip-path="url(#p4dcbe2be1c)" style="fill: #00a4ef; fill-opacity: 0.5"/>
   </g>
   <g id="patch_85">
    <path d="M 332.431192 263.518594 
L 334.569231 263.518594 
L 334.569231 263.102794 
L 332.431192 263.102794 
z
" clip-path="url(#p4dcbe2be1c)" style="fill: #00a4ef; fill-opacity: 0.5"/>
   </g>
   <g id="patch_86">
    <path d="M 334.806791 263.518594 
L 336.944829 263.518594 
L 336.944829 263.518594 
L 334.806791 263.518594 
z
" clip-path="url(#p4dcbe2be1c)" style="fill: #00a4ef; fill-opacity: 0.5"/>
   </g>
   <g id="patch_87">
    <path d="M 337.182389 263.518594 
L 339.320428 263.518594 
L 339.320428 263.102794 
L 337.182389 263.102794 
z
" clip-path="url(#p4dcbe2be1c)" style="fill: #00a4ef; fill-opacity: 0.5"/>
   </g>
   <g id="patch_88">
    <path d="M 339.557988 263.518594 
L 341.696027 263.518594 
L 341.696027 263.518594 
L 339.557988 263.518594 
z
" clip-path="url(#p4dcbe2be1c)" style="fill: #00a4ef; fill-opacity: 0.5"/>
   </g>
   <g id="patch_89">
    <path d="M 341.933587 263.518594 
L 344.071625 263.518594 
L 344.071625 263.518594 
L 341.933587 263.518594 
z
" clip-path="url(#p4dcbe2be1c)" style="fill: #00a4ef; fill-opacity: 0.5"/>
   </g>
   <g id="patch_90">
    <path d="M 344.309185 263.518594 
L 346.447224 263.518594 
L 346.447224 263.518594 
L 344.309185 263.518594 
z
" clip-path="url(#p4dcbe2be1c)" style="fill: #00a4ef; fill-opacity: 0.5"/>
   </g>
   <g id="patch_91">
    <path d="M 346.684784 263.518594 
L 348.822823 263.518594 
L 348.822823 263.518594 
L 346.684784 263.518594 
z
" clip-path="url(#p4dcbe2be1c)" style="fill: #00a4ef; fill-opacity: 0.5"/>
   </g>
   <g id="patch_92">
    <path d="M 349.060382 263.518594 
L 351.198421 263.518594 
L 351.198421 263.518594 
L 349.060382 263.518594 
z
" clip-path="url(#p4dcbe2be1c)" style="fill: #00a4ef; fill-opacity: 0.5"/>
   </g>
   <g id="patch_93">
    <path d="M 351.435981 263.518594 
L 353.57402 263.518594 
L 353.57402 263.518594 
L 351.435981 263.518594 
z
" clip-path="url(#p4dcbe2be1c)" style="fill: #00a4ef; fill-opacity: 0.5"/>
   </g>
   <g id="patch_94">
    <path d="M 353.81158 263.518594 
L 355.949618 263.518594 
L 355.949618 263.518594 
L 353.81158 263.518594 
z
" clip-path="url(#p4dcbe2be1c)" style="fill: #00a4ef; fill-opacity: 0.5"/>
   </g>
   <g id="patch_95">
    <path d="M 356.187178 263.518594 
L 358.325217 263.518594 
L 358.325217 262.686994 
L 356.187178 262.686994 
z
" clip-path="url(#p4dcbe2be1c)" style="fill: #00a4ef; fill-opacity: 0.5"/>
   </g>
   <g id="patch_96">
    <path d="M 358.562777 263.518594 
L 360.700816 263.518594 
L 360.700816 263.102794 
L 358.562777 263.102794 
z
" clip-path="url(#p4dcbe2be1c)" style="fill: #00a4ef; fill-opacity: 0.5"/>
   </g>
   <g id="patch_97">
    <path d="M 360.938376 263.518594 
L 363.076414 263.518594 
L 363.076414 263.102794 
L 360.938376 263.102794 
z
" clip-path="url(#p4dcbe2be1c)" style="fill: #00a4ef; fill-opacity: 0.5"/>
   </g>
   <g id="patch_98">
    <path d="M 363.313974 263.518594 
L 365.452013 263.518594 
L 365.452013 263.518594 
L 363.313974 263.518594 
z
" clip-path="url(#p4dcbe2be1c)" style="fill: #00a4ef; fill-opacity: 0.5"/>
   </g>
   <g id="patch_99">
    <path d="M 365.689573 263.518594 
L 367.827612 263.518594 
L 367.827612 263.518594 
L 365.689573 263.518594 
z
" clip-path="url(#p4dcbe2be1c)" style="fill: #00a4ef; fill-opacity: 0.5"/>
   </g>
   <g id="patch_100">
    <path d="M 368.065171 263.518594 
L 370.20321 263.518594 
L 370.20321 263.518594 
L 368.065171 263.518594 
z
" clip-path="url(#p4dcbe2be1c)" style="fill: #00a4ef; fill-opacity: 0.5"/>
   </g>
   <g id="patch_101">
    <path d="M 370.44077 263.518594 
L 372.578809 263.518594 
L 372.578809 263.518594 
L 370.44077 263.518594 
z
" clip-path="url(#p4dcbe2be1c)" style="fill: #00a4ef; fill-opacity: 0.5"/>
   </g>
   <g id="patch_102">
    <path d="M 372.816369 263.518594 
L 374.954407 263.518594 
L 374.954407 263.102794 
L 372.816369 263.102794 
z
" clip-path="url(#p4dcbe2be1c)" style="fill: #00a4ef; fill-opacity: 0.5"/>
   </g>
   <g id="patch_103">
    <path d="M 199.950508 263.518594 
L 201.674531 263.518594 
L 201.674531 263.100788 
L 199.950508 263.100788 
z
" clip-path="url(#p4dcbe2be1c)" style="fill: #f25022; fill-opacity: 0.5"/>
   </g>
   <g id="patch_104">
    <path d="M 201.86609 263.518594 
L 203.590113 263.518594 
L 203.590113 263.518594 
L 201.86609 263.518594 
z
" clip-path="url(#p4dcbe2be1c)" style="fill: #f25022; fill-opacity: 0.5"/>
   </g>
   <g id="patch_105">
    <path d="M 203.781671 263.518594 
L 205.505694 263.518594 
L 205.505694 263.518594 
L 203.781671 263.518594 
z
" clip-path="url(#p4dcbe2be1c)" style="fill: #f25022; fill-opacity: 0.5"/>
   </g>
   <g id="patch_106">
    <path d="M 205.697252 263.518594 
L 207.421275 263.518594 
L 207.421275 263.518594 
L 205.697252 263.518594 
z
" clip-path="url(#p4dcbe2be1c)" style="fill: #f25022; fill-opacity: 0.5"/>
   </g>
   <g id="patch_107">
    <path d="M 207.612834 263.518594 
L 209.336857 263.518594 
L 209.336857 263.518594 
L 207.612834 263.518594 
z
" clip-path="url(#p4dcbe2be1c)" style="fill: #f25022; fill-opacity: 0.5"/>
   </g>
   <g id="patch_108">
    <path d="M 209.528415 263.518594 
L 211.252438 263.518594 
L 211.252438 263.518594 
L 209.528415 263.518594 
z
" clip-path="url(#p4dcbe2be1c)" style="fill: #f25022; fill-opacity: 0.5"/>
   </g>
   <g id="patch_109">
    <path d="M 211.443996 263.518594 
L 213.168019 263.518594 
L 213.168019 263.100788 
L 211.443996 263.100788 
z
" clip-path="url(#p4dcbe2be1c)" style="fill: #f25022; fill-opacity: 0.5"/>
   </g>
   <g id="patch_110">
    <path d="M 213.359577 263.518594 
L 215.083601 263.518594 
L 215.083601 263.518594 
L 213.359577 263.518594 
z
" clip-path="url(#p4dcbe2be1c)" style="fill: #f25022; fill-opacity: 0.5"/>
   </g>
   <g id="patch_111">
    <path d="M 215.275159 263.518594 
L 216.999182 263.518594 
L 216.999182 263.518594 
L 215.275159 263.518594 
z
" clip-path="url(#p4dcbe2be1c)" style="fill: #f25022; fill-opacity: 0.5"/>
   </g>
   <g id="patch_112">
    <path d="M 217.19074 263.518594 
L 218.914763 263.518594 
L 218.914763 263.518594 
L 217.19074 263.518594 
z
" clip-path="url(#p4dcbe2be1c)" style="fill: #f25022; fill-opacity: 0.5"/>
   </g>
   <g id="patch_113">
    <path d="M 219.106321 263.518594 
L 220.830345 263.518594 
L 220.830345 263.518594 
L 219.106321 263.518594 
z
" clip-path="url(#p4dcbe2be1c)" style="fill: #f25022; fill-opacity: 0.5"/>
   </g>
   <g id="patch_114">
    <path d="M 221.021903 263.518594 
L 222.745926 263.518594 
L 222.745926 263.518594 
L 221.021903 263.518594 
z
" clip-path="url(#p4dcbe2be1c)" style="fill: #f25022; fill-opacity: 0.5"/>
   </g>
   <g id="patch_115">
    <path d="M 222.937484 263.518594 
L 224.661507 263.518594 
L 224.661507 263.518594 
L 222.937484 263.518594 
z
" clip-path="url(#p4dcbe2be1c)" style="fill: #f25022; fill-opacity: 0.5"/>
   </g>
   <g id="patch_116">
    <path d="M 224.853065 263.518594 
L 226.577089 263.518594 
L 226.577089 263.100788 
L 224.853065 263.100788 
z
" clip-path="url(#p4dcbe2be1c)" style="fill: #f25022; fill-opacity: 0.5"/>
   </g>
   <g id="patch_117">
    <path d="M 226.768647 263.518594 
L 228.49267 263.518594 
L 228.49267 263.518594 
L 226.768647 263.518594 
z
" clip-path="url(#p4dcbe2be1c)" style="fill: #f25022; fill-opacity: 0.5"/>
   </g>
   <g id="patch_118">
    <path d="M 228.684228 263.518594 
L 230.408251 263.518594 
L 230.408251 263.518594 
L 228.684228 263.518594 
z
" clip-path="url(#p4dcbe2be1c)" style="fill: #f25022; fill-opacity: 0.5"/>
   </g>
   <g id="patch_119">
    <path d="M 230.599809 263.518594 
L 232.323833 263.518594 
L 232.323833 263.518594 
L 230.599809 263.518594 
z
" clip-path="url(#p4dcbe2be1c)" style="fill: #f25022; fill-opacity: 0.5"/>
   </g>
   <g id="patch_120">
    <path d="M 232.515391 263.518594 
L 234.239414 263.518594 
L 234.239414 263.518594 
L 232.515391 263.518594 
z
" clip-path="url(#p4dcbe2be1c)" style="fill: #f25022; fill-opacity: 0.5"/>
   </g>
   <g id="patch_121">
    <path d="M 234.430972 263.518594 
L 236.154995 263.518594 
L 236.154995 263.518594 
L 234.430972 263.518594 
z
" clip-path="url(#p4dcbe2be1c)" style="fill: #f25022; fill-opacity: 0.5"/>
   </g>
   <g id="patch_122">
    <path d="M 236.346553 263.518594 
L 238.070577 263.518594 
L 238.070577 263.518594 
L 236.346553 263.518594 
z
" clip-path="url(#p4dcbe2be1c)" style="fill: #f25022; fill-opacity: 0.5"/>
   </g>
   <g id="patch_123">
    <path d="M 238.262135 263.518594 
L 239.986158 263.518594 
L 239.986158 263.518594 
L 238.262135 263.518594 
z
" clip-path="url(#p4dcbe2be1c)" style="fill: #f25022; fill-opacity: 0.5"/>
   </g>
   <g id="patch_124">
    <path d="M 240.177716 263.518594 
L 241.901739 263.518594 
L 241.901739 263.518594 
L 240.177716 263.518594 
z
" clip-path="url(#p4dcbe2be1c)" style="fill: #f25022; fill-opacity: 0.5"/>
   </g>
   <g id="patch_125">
    <path d="M 242.093297 263.518594 
L 243.81732 263.518594 
L 243.81732 263.518594 
L 242.093297 263.518594 
z
" clip-path="url(#p4dcbe2be1c)" style="fill: #f25022; fill-opacity: 0.5"/>
   </g>
   <g id="patch_126">
    <path d="M 244.008879 263.518594 
L 245.732902 263.518594 
L 245.732902 263.518594 
L 244.008879 263.518594 
z
" clip-path="url(#p4dcbe2be1c)" style="fill: #f25022; fill-opacity: 0.5"/>
   </g>
   <g id="patch_127">
    <path d="M 245.92446 263.518594 
L 247.648483 263.518594 
L 247.648483 263.100788 
L 245.92446 263.100788 
z
" clip-path="url(#p4dcbe2be1c)" style="fill: #f25022; fill-opacity: 0.5"/>
   </g>
   <g id="patch_128">
    <path d="M 247.840041 263.518594 
L 249.564064 263.518594 
L 249.564064 263.518594 
L 247.840041 263.518594 
z
" clip-path="url(#p4dcbe2be1c)" style="fill: #f25022; fill-opacity: 0.5"/>
   </g>
   <g id="patch_129">
    <path d="M 249.755623 263.518594 
L 251.479646 263.518594 
L 251.479646 263.518594 
L 249.755623 263.518594 
z
" clip-path="url(#p4dcbe2be1c)" style="fill: #f25022; fill-opacity: 0.5"/>
   </g>
   <g id="patch_130">
    <path d="M 251.671204 263.518594 
L 253.395227 263.518594 
L 253.395227 263.518594 
L 251.671204 263.518594 
z
" clip-path="url(#p4dcbe2be1c)" style="fill: #f25022; fill-opacity: 0.5"/>
   </g>
   <g id="patch_131">
    <path d="M 253.586785 263.518594 
L 255.310808 263.518594 
L 255.310808 263.518594 
L 253.586785 263.518594 
z
" clip-path="url(#p4dcbe2be1c)" style="fill: #f25022; fill-opacity: 0.5"/>
   </g>
   <g id="patch_132">
    <path d="M 255.502367 263.518594 
L 257.22639 263.518594 
L 257.22639 263.518594 
L 255.502367 263.518594 
z
" clip-path="url(#p4dcbe2be1c)" style="fill: #f25022; fill-opacity: 0.5"/>
   </g>
   <g id="patch_133">
    <path d="M 257.417948 263.518594 
L 259.141971 263.518594 
L 259.141971 263.100788 
L 257.417948 263.100788 
z
" clip-path="url(#p4dcbe2be1c)" style="fill: #f25022; fill-opacity: 0.5"/>
   </g>
   <g id="patch_134">
    <path d="M 259.333529 263.518594 
L 261.057552 263.518594 
L 261.057552 263.518594 
L 259.333529 263.518594 
z
" clip-path="url(#p4dcbe2be1c)" style="fill: #f25022; fill-opacity: 0.5"/>
   </g>
   <g id="patch_135">
    <path d="M 261.249111 263.518594 
L 262.973134 263.518594 
L 262.973134 263.518594 
L 261.249111 263.518594 
z
" clip-path="url(#p4dcbe2be1c)" style="fill: #f25022; fill-opacity: 0.5"/>
   </g>
   <g id="patch_136">
    <path d="M 263.164692 263.518594 
L 264.888715 263.518594 
L 264.888715 263.518594 
L 263.164692 263.518594 
z
" clip-path="url(#p4dcbe2be1c)" style="fill: #f25022; fill-opacity: 0.5"/>
   </g>
   <g id="patch_137">
    <path d="M 265.080273 263.518594 
L 266.804296 263.518594 
L 266.804296 263.518594 
L 265.080273 263.518594 
z
" clip-path="url(#p4dcbe2be1c)" style="fill: #f25022; fill-opacity: 0.5"/>
   </g>
   <g id="patch_138">
    <path d="M 266.995854 263.518594 
L 268.719878 263.518594 
L 268.719878 263.518594 
L 266.995854 263.518594 
z
" clip-path="url(#p4dcbe2be1c)" style="fill: #f25022; fill-opacity: 0.5"/>
   </g>
   <g id="patch_139">
    <path d="M 268.911436 263.518594 
L 270.635459 263.518594 
L 270.635459 263.518594 
L 268.911436 263.518594 
z
" clip-path="url(#p4dcbe2be1c)" style="fill: #f25022; fill-opacity: 0.5"/>
   </g>
   <g id="patch_140">
    <path d="M 270.827017 263.518594 
L 272.55104 263.518594 
L 272.55104 263.518594 
L 270.827017 263.518594 
z
" clip-path="url(#p4dcbe2be1c)" style="fill: #f25022; fill-opacity: 0.5"/>
   </g>
   <g id="patch_141">
    <path d="M 272.742598 263.518594 
L 274.466622 263.518594 
L 274.466622 263.518594 
L 272.742598 263.518594 
z
" clip-path="url(#p4dcbe2be1c)" style="fill: #f25022; fill-opacity: 0.5"/>
   </g>
   <g id="patch_142">
    <path d="M 274.65818 263.518594 
L 276.382203 263.518594 
L 276.382203 263.518594 
L 274.65818 263.518594 
z
" clip-path="url(#p4dcbe2be1c)" style="fill: #f25022; fill-opacity: 0.5"/>
   </g>
   <g id="patch_143">
    <path d="M 276.573761 263.518594 
L 278.297784 263.518594 
L 278.297784 263.518594 
L 276.573761 263.518594 
z
" clip-path="url(#p4dcbe2be1c)" style="fill: #f25022; fill-opacity: 0.5"/>
   </g>
   <g id="patch_144">
    <path d="M 278.489342 263.518594 
L 280.213366 263.518594 
L 280.213366 263.518594 
L 278.489342 263.518594 
z
" clip-path="url(#p4dcbe2be1c)" style="fill: #f25022; fill-opacity: 0.5"/>
   </g>
   <g id="patch_145">
    <path d="M 280.404924 263.518594 
L 282.128947 263.518594 
L 282.128947 262.682983 
L 280.404924 262.682983 
z
" clip-path="url(#p4dcbe2be1c)" style="fill: #f25022; fill-opacity: 0.5"/>
   </g>
   <g id="patch_146">
    <path d="M 282.320505 263.518594 
L 284.044528 263.518594 
L 284.044528 263.100788 
L 282.320505 263.100788 
z
" clip-path="url(#p4dcbe2be1c)" style="fill: #f25022; fill-opacity: 0.5"/>
   </g>
   <g id="patch_147">
    <path d="M 284.236086 263.518594 
L 285.96011 263.518594 
L 285.96011 258.087123 
L 284.236086 258.087123 
z
" clip-path="url(#p4dcbe2be1c)" style="fill: #f25022; fill-opacity: 0.5"/>
   </g>
   <g id="patch_148">
    <path d="M 286.151668 263.518594 
L 287.875691 263.518594 
L 287.875691 253.491263 
L 286.151668 253.491263 
z
" clip-path="url(#p4dcbe2be1c)" style="fill: #f25022; fill-opacity: 0.5"/>
   </g>
   <g id="patch_149">
    <path d="M 288.067249 263.518594 
L 289.791272 263.518594 
L 289.791272 236.361238 
L 288.067249 236.361238 
z
" clip-path="url(#p4dcbe2be1c)" style="fill: #f25022; fill-opacity: 0.5"/>
   </g>
   <g id="patch_150">
    <path d="M 289.98283 263.518594 
L 291.706854 263.518594 
L 291.706854 219.231214 
L 289.98283 219.231214 
z
" clip-path="url(#p4dcbe2be1c)" style="fill: #f25022; fill-opacity: 0.5"/>
   </g>
   <g id="patch_151">
    <path d="M 291.898412 263.518594 
L 293.622435 263.518594 
L 293.622435 211.710716 
L 291.898412 211.710716 
z
" clip-path="url(#p4dcbe2be1c)" style="fill: #f25022; fill-opacity: 0.5"/>
   </g>
   <g id="patch_152">
    <path d="M 293.813993 263.518594 
L 295.538016 263.518594 
L 295.538016 210.039494 
L 293.813993 210.039494 
z
" clip-path="url(#p4dcbe2be1c)" style="fill: #f25022; fill-opacity: 0.5"/>
   </g>
   <g id="patch_153">
    <path d="M 295.729574 263.518594 
L 297.453597 263.518594 
L 297.453597 212.128521 
L 295.729574 212.128521 
z
" clip-path="url(#p4dcbe2be1c)" style="fill: #f25022; fill-opacity: 0.5"/>
   </g>
   <g id="patch_154">
    <path d="M 297.645156 263.518594 
L 299.369179 263.518594 
L 299.369179 201.265579 
L 297.645156 201.265579 
z
" clip-path="url(#p4dcbe2be1c)" style="fill: #f25022; fill-opacity: 0.5"/>
   </g>
   <g id="patch_155">
    <path d="M 299.560737 263.518594 
L 301.28476 263.518594 
L 301.28476 205.025828 
L 299.560737 205.025828 
z
" clip-path="url(#p4dcbe2be1c)" style="fill: #f25022; fill-opacity: 0.5"/>
   </g>
   <g id="patch_156">
    <path d="M 301.476318 263.518594 
L 303.200341 263.518594 
L 303.200341 205.861439 
L 301.476318 205.861439 
z
" clip-path="url(#p4dcbe2be1c)" style="fill: #f25022; fill-opacity: 0.5"/>
   </g>
   <g id="patch_157">
    <path d="M 303.3919 263.518594 
L 305.115923 263.518594 
L 305.115923 220.066825 
L 303.3919 220.066825 
z
" clip-path="url(#p4dcbe2be1c)" style="fill: #f25022; fill-opacity: 0.5"/>
   </g>
   <g id="patch_158">
    <path d="M 305.307481 263.518594 
L 307.031504 263.518594 
L 307.031504 202.518996 
L 305.307481 202.518996 
z
" clip-path="url(#p4dcbe2be1c)" style="fill: #f25022; fill-opacity: 0.5"/>
   </g>
   <g id="patch_159">
    <path d="M 307.223062 263.518594 
L 308.947085 263.518594 
L 308.947085 208.786078 
L 307.223062 208.786078 
z
" clip-path="url(#p4dcbe2be1c)" style="fill: #f25022; fill-opacity: 0.5"/>
   </g>
   <g id="patch_160">
    <path d="M 309.138644 263.518594 
L 310.862667 263.518594 
L 310.862667 206.279245 
L 309.138644 206.279245 
z
" clip-path="url(#p4dcbe2be1c)" style="fill: #f25022; fill-opacity: 0.5"/>
   </g>
   <g id="patch_161">
    <path d="M 311.054225 263.518594 
L 312.778248 263.518594 
L 312.778248 208.368272 
L 311.054225 208.368272 
z
" clip-path="url(#p4dcbe2be1c)" style="fill: #f25022; fill-opacity: 0.5"/>
   </g>
   <g id="patch_162">
    <path d="M 312.969806 263.518594 
L 314.693829 263.518594 
L 314.693829 202.10119 
L 312.969806 202.10119 
z
" clip-path="url(#p4dcbe2be1c)" style="fill: #f25022; fill-opacity: 0.5"/>
   </g>
   <g id="patch_163">
    <path d="M 314.885388 263.518594 
L 316.609411 263.518594 
L 316.609411 207.114856 
L 314.885388 207.114856 
z
" clip-path="url(#p4dcbe2be1c)" style="fill: #f25022; fill-opacity: 0.5"/>
   </g>
   <g id="patch_164">
    <path d="M 316.800969 263.518594 
L 318.524992 263.518594 
L 318.524992 210.4573 
L 316.800969 210.4573 
z
" clip-path="url(#p4dcbe2be1c)" style="fill: #f25022; fill-opacity: 0.5"/>
   </g>
   <g id="patch_165">
    <path d="M 318.71655 263.518594 
L 320.440573 263.518594 
L 320.440573 202.936801 
L 318.71655 202.936801 
z
" clip-path="url(#p4dcbe2be1c)" style="fill: #f25022; fill-opacity: 0.5"/>
   </g>
   <g id="patch_166">
    <path d="M 320.632131 263.518594 
L 322.356155 263.518594 
L 322.356155 210.875105 
L 320.632131 210.875105 
z
" clip-path="url(#p4dcbe2be1c)" style="fill: #f25022; fill-opacity: 0.5"/>
   </g>
   <g id="patch_167">
    <path d="M 322.547713 263.518594 
L 324.271736 263.518594 
L 324.271736 204.608023 
L 322.547713 204.608023 
z
" clip-path="url(#p4dcbe2be1c)" style="fill: #f25022; fill-opacity: 0.5"/>
   </g>
   <g id="patch_168">
    <path d="M 324.463294 263.518594 
L 326.187317 263.518594 
L 326.187317 198.340941 
L 324.463294 198.340941 
z
" clip-path="url(#p4dcbe2be1c)" style="fill: #f25022; fill-opacity: 0.5"/>
   </g>
   <g id="patch_169">
    <path d="M 326.378875 263.518594 
L 328.102899 263.518594 
L 328.102899 208.368272 
L 326.378875 208.368272 
z
" clip-path="url(#p4dcbe2be1c)" style="fill: #f25022; fill-opacity: 0.5"/>
   </g>
   <g id="patch_170">
    <path d="M 328.294457 263.518594 
L 330.01848 263.518594 
L 330.01848 204.190218 
L 328.294457 204.190218 
z
" clip-path="url(#p4dcbe2be1c)" style="fill: #f25022; fill-opacity: 0.5"/>
   </g>
   <g id="patch_171">
    <path d="M 330.210038 263.518594 
L 331.934061 263.518594 
L 331.934061 198.340941 
L 330.210038 198.340941 
z
" clip-path="url(#p4dcbe2be1c)" style="fill: #f25022; fill-opacity: 0.5"/>
   </g>
   <g id="patch_172">
    <path d="M 332.125619 263.518594 
L 333.849643 263.518594 
L 333.849643 208.786078 
L 332.125619 208.786078 
z
" clip-path="url(#p4dcbe2be1c)" style="fill: #f25022; fill-opacity: 0.5"/>
   </g>
   <g id="patch_173">
    <path d="M 334.041201 263.518594 
L 335.765224 263.518594 
L 335.765224 204.608023 
L 334.041201 204.608023 
z
" clip-path="url(#p4dcbe2be1c)" style="fill: #f25022; fill-opacity: 0.5"/>
   </g>
   <g id="patch_174">
    <path d="M 335.956782 263.518594 
L 337.680805 263.518594 
L 337.680805 202.10119 
L 335.956782 202.10119 
z
" clip-path="url(#p4dcbe2be1c)" style="fill: #f25022; fill-opacity: 0.5"/>
   </g>
   <g id="patch_175">
    <path d="M 337.872363 263.518594 
L 339.596387 263.518594 
L 339.596387 205.443634 
L 337.872363 205.443634 
z
" clip-path="url(#p4dcbe2be1c)" style="fill: #f25022; fill-opacity: 0.5"/>
   </g>
   <g id="patch_176">
    <path d="M 339.787945 263.518594 
L 341.511968 263.518594 
L 341.511968 203.772412 
L 339.787945 203.772412 
z
" clip-path="url(#p4dcbe2be1c)" style="fill: #f25022; fill-opacity: 0.5"/>
   </g>
   <g id="patch_177">
    <path d="M 341.703526 263.518594 
L 343.427549 263.518594 
L 343.427549 207.950467 
L 341.703526 207.950467 
z
" clip-path="url(#p4dcbe2be1c)" style="fill: #f25022; fill-opacity: 0.5"/>
   </g>
   <g id="patch_178">
    <path d="M 343.619107 263.518594 
L 345.343131 263.518594 
L 345.343131 200.012163 
L 343.619107 200.012163 
z
" clip-path="url(#p4dcbe2be1c)" style="fill: #f25022; fill-opacity: 0.5"/>
   </g>
   <g id="patch_179">
    <path d="M 345.534689 263.518594 
L 347.258712 263.518594 
L 347.258712 204.190218 
L 345.534689 204.190218 
z
" clip-path="url(#p4dcbe2be1c)" style="fill: #f25022; fill-opacity: 0.5"/>
   </g>
   <g id="patch_180">
    <path d="M 347.45027 263.518594 
L 349.174293 263.518594 
L 349.174293 202.10119 
L 347.45027 202.10119 
z
" clip-path="url(#p4dcbe2be1c)" style="fill: #f25022; fill-opacity: 0.5"/>
   </g>
   <g id="patch_181">
    <path d="M 349.365851 263.518594 
L 351.089875 263.518594 
L 351.089875 197.50533 
L 349.365851 197.50533 
z
" clip-path="url(#p4dcbe2be1c)" style="fill: #f25022; fill-opacity: 0.5"/>
   </g>
   <g id="patch_182">
    <path d="M 351.281433 263.518594 
L 353.005456 263.518594 
L 353.005456 202.936801 
L 351.281433 202.936801 
z
" clip-path="url(#p4dcbe2be1c)" style="fill: #f25022; fill-opacity: 0.5"/>
   </g>
   <g id="patch_183">
    <path d="M 353.197014 263.518594 
L 354.921037 263.518594 
L 354.921037 216.724382 
L 353.197014 216.724382 
z
" clip-path="url(#p4dcbe2be1c)" style="fill: #f25022; fill-opacity: 0.5"/>
   </g>
   <g id="patch_184">
    <path d="M 355.112595 263.518594 
L 356.836618 263.518594 
L 356.836618 235.107822 
L 355.112595 235.107822 
z
" clip-path="url(#p4dcbe2be1c)" style="fill: #f25022; fill-opacity: 0.5"/>
   </g>
   <g id="patch_185">
    <path d="M 357.028177 263.518594 
L 358.7522 263.518594 
L 358.7522 249.731013 
L 357.028177 249.731013 
z
" clip-path="url(#p4dcbe2be1c)" style="fill: #f25022; fill-opacity: 0.5"/>
   </g>
   <g id="patch_186">
    <path d="M 358.943758 263.518594 
L 360.667781 263.518594 
L 360.667781 256.833706 
L 358.943758 256.833706 
z
" clip-path="url(#p4dcbe2be1c)" style="fill: #f25022; fill-opacity: 0.5"/>
   </g>
   <g id="patch_187">
    <path d="M 360.859339 263.518594 
L 362.583362 263.518594 
L 362.583362 260.593955 
L 360.859339 260.593955 
z
" clip-path="url(#p4dcbe2be1c)" style="fill: #f25022; fill-opacity: 0.5"/>
   </g>
   <g id="patch_188">
    <path d="M 362.774921 263.518594 
L 364.498944 263.518594 
L 364.498944 262.265177 
L 362.774921 262.265177 
z
" clip-path="url(#p4dcbe2be1c)" style="fill: #f25022; fill-opacity: 0.5"/>
   </g>
   <g id="patch_189">
    <path d="M 364.690502 263.518594 
L 366.414525 263.518594 
L 366.414525 260.593955 
L 364.690502 260.593955 
z
" clip-path="url(#p4dcbe2be1c)" style="fill: #f25022; fill-opacity: 0.5"/>
   </g>
   <g id="patch_190">
    <path d="M 366.606083 263.518594 
L 368.330106 263.518594 
L 368.330106 261.011761 
L 366.606083 261.011761 
z
" clip-path="url(#p4dcbe2be1c)" style="fill: #f25022; fill-opacity: 0.5"/>
   </g>
   <g id="patch_191">
    <path d="M 368.521665 263.518594 
L 370.245688 263.518594 
L 370.245688 261.011761 
L 368.521665 261.011761 
z
" clip-path="url(#p4dcbe2be1c)" style="fill: #f25022; fill-opacity: 0.5"/>
   </g>
   <g id="patch_192">
    <path d="M 370.437246 263.518594 
L 372.161269 263.518594 
L 372.161269 256.833706 
L 370.437246 256.833706 
z
" clip-path="url(#p4dcbe2be1c)" style="fill: #f25022; fill-opacity: 0.5"/>
   </g>
   <g id="patch_193">
    <path d="M 372.352827 263.518594 
L 374.07685 263.518594 
L 374.07685 259.758345 
L 372.352827 259.758345 
z
" clip-path="url(#p4dcbe2be1c)" style="fill: #f25022; fill-opacity: 0.5"/>
   </g>
   <g id="patch_194">
    <path d="M 374.268408 263.518594 
L 375.992432 263.518594 
L 375.992432 260.593955 
L 374.268408 260.593955 
z
" clip-path="url(#p4dcbe2be1c)" style="fill: #f25022; fill-opacity: 0.5"/>
   </g>
   <g id="patch_195">
    <path d="M 376.18399 263.518594 
L 377.908013 263.518594 
L 377.908013 262.265177 
L 376.18399 262.265177 
z
" clip-path="url(#p4dcbe2be1c)" style="fill: #f25022; fill-opacity: 0.5"/>
   </g>
   <g id="patch_196">
    <path d="M 378.099571 263.518594 
L 379.823594 263.518594 
L 379.823594 261.429566 
L 378.099571 261.429566 
z
" clip-path="url(#p4dcbe2be1c)" style="fill: #f25022; fill-opacity: 0.5"/>
   </g>
   <g id="patch_197">
    <path d="M 380.015152 263.518594 
L 381.739176 263.518594 
L 381.739176 261.429566 
L 380.015152 261.429566 
z
" clip-path="url(#p4dcbe2be1c)" style="fill: #f25022; fill-opacity: 0.5"/>
   </g>
   <g id="patch_198">
    <path d="M 381.930734 263.518594 
L 383.654757 263.518594 
L 383.654757 261.011761 
L 381.930734 261.011761 
z
" clip-path="url(#p4dcbe2be1c)" style="fill: #f25022; fill-opacity: 0.5"/>
   </g>
   <g id="patch_199">
    <path d="M 383.846315 263.518594 
L 385.570338 263.518594 
L 385.570338 262.682983 
L 383.846315 262.682983 
z
" clip-path="url(#p4dcbe2be1c)" style="fill: #f25022; fill-opacity: 0.5"/>
   </g>
   <g id="patch_200">
    <path d="M 385.761896 263.518594 
L 387.48592 263.518594 
L 387.48592 261.429566 
L 385.761896 261.429566 
z
" clip-path="url(#p4dcbe2be1c)" style="fill: #f25022; fill-opacity: 0.5"/>
   </g>
   <g id="patch_201">
    <path d="M 387.677478 263.518594 
L 389.401501 263.518594 
L 389.401501 261.429566 
L 387.677478 261.429566 
z
" clip-path="url(#p4dcbe2be1c)" style="fill: #f25022; fill-opacity: 0.5"/>
   </g>
   <g id="patch_202">
    <path d="M 389.593059 263.518594 
L 391.317082 263.518594 
L 391.317082 262.682983 
L 389.593059 262.682983 
z
" clip-path="url(#p4dcbe2be1c)" style="fill: #f25022; fill-opacity: 0.5"/>
   </g>
   <g id="matplotlib.axis_1">
    <g id="xtick_1">
     <g id="line2d_1">
      <path d="M 75.69875 263.518594 
L 75.69875 14.038594 
" clip-path="url(#p4dcbe2be1c)" style="fill: none; stroke-dasharray: 2.96,1.28; stroke-dashoffset: 0; stroke: #b0b0b0; stroke-width: 0.8"/>
     </g>
     <g id="line2d_2">
      <defs>
       <path id="m52b7b790ef" d="M 0 0 
L 0 3.5 
" style="stroke: #000000; stroke-width: 0.8"/>
      </defs>
      <g>
       <use xlink:href="#m52b7b790ef" x="75.69875" y="263.518594" style="stroke: #000000; stroke-width: 0.8"/>
      </g>
     </g>
     <g id="text_1">
      <!-- 0 -->
      <g transform="translate(69.9725 284.195781) scale(0.18 -0.18)">
       <defs>
        <path id="DejaVuSans-30" d="M 2034 4250 
Q 1547 4250 1301 3770 
Q 1056 3291 1056 2328 
Q 1056 1369 1301 889 
Q 1547 409 2034 409 
Q 2525 409 2770 889 
Q 3016 1369 3016 2328 
Q 3016 3291 2770 3770 
Q 2525 4250 2034 4250 
z
M 2034 4750 
Q 2819 4750 3233 4129 
Q 3647 3509 3647 2328 
Q 3647 1150 3233 529 
Q 2819 -91 2034 -91 
Q 1250 -91 836 529 
Q 422 1150 422 2328 
Q 422 3509 836 4129 
Q 1250 4750 2034 4750 
z
" transform="scale(0.015625)"/>
       </defs>
       <use xlink:href="#DejaVuSans-30"/>
      </g>
     </g>
    </g>
    <g id="xtick_2">
     <g id="line2d_3">
      <path d="M 109.17875 263.518594 
L 109.17875 14.038594 
" clip-path="url(#p4dcbe2be1c)" style="fill: none; stroke-dasharray: 2.96,1.28; stroke-dashoffset: 0; stroke: #b0b0b0; stroke-width: 0.8"/>
     </g>
     <g id="line2d_4">
      <g>
       <use xlink:href="#m52b7b790ef" x="109.17875" y="263.518594" style="stroke: #000000; stroke-width: 0.8"/>
      </g>
     </g>
     <g id="text_2">
      <!-- 1 -->
      <g transform="translate(103.4525 284.195781) scale(0.18 -0.18)">
       <defs>
        <path id="DejaVuSans-31" d="M 794 531 
L 1825 531 
L 1825 4091 
L 703 3866 
L 703 4441 
L 1819 4666 
L 2450 4666 
L 2450 531 
L 3481 531 
L 3481 0 
L 794 0 
L 794 531 
z
" transform="scale(0.015625)"/>
       </defs>
       <use xlink:href="#DejaVuSans-31"/>
      </g>
     </g>
    </g>
    <g id="xtick_3">
     <g id="line2d_5">
      <path d="M 142.65875 263.518594 
L 142.65875 14.038594 
" clip-path="url(#p4dcbe2be1c)" style="fill: none; stroke-dasharray: 2.96,1.28; stroke-dashoffset: 0; stroke: #b0b0b0; stroke-width: 0.8"/>
     </g>
     <g id="line2d_6">
      <g>
       <use xlink:href="#m52b7b790ef" x="142.65875" y="263.518594" style="stroke: #000000; stroke-width: 0.8"/>
      </g>
     </g>
     <g id="text_3">
      <!-- 2 -->
      <g transform="translate(136.9325 284.195781) scale(0.18 -0.18)">
       <defs>
        <path id="DejaVuSans-32" d="M 1228 531 
L 3431 531 
L 3431 0 
L 469 0 
L 469 531 
Q 828 903 1448 1529 
Q 2069 2156 2228 2338 
Q 2531 2678 2651 2914 
Q 2772 3150 2772 3378 
Q 2772 3750 2511 3984 
Q 2250 4219 1831 4219 
Q 1534 4219 1204 4116 
Q 875 4013 500 3803 
L 500 4441 
Q 881 4594 1212 4672 
Q 1544 4750 1819 4750 
Q 2544 4750 2975 4387 
Q 3406 4025 3406 3419 
Q 3406 3131 3298 2873 
Q 3191 2616 2906 2266 
Q 2828 2175 2409 1742 
Q 1991 1309 1228 531 
z
" transform="scale(0.015625)"/>
       </defs>
       <use xlink:href="#DejaVuSans-32"/>
      </g>
     </g>
    </g>
    <g id="xtick_4">
     <g id="line2d_7">
      <path d="M 176.13875 263.518594 
L 176.13875 14.038594 
" clip-path="url(#p4dcbe2be1c)" style="fill: none; stroke-dasharray: 2.96,1.28; stroke-dashoffset: 0; stroke: #b0b0b0; stroke-width: 0.8"/>
     </g>
     <g id="line2d_8">
      <g>
       <use xlink:href="#m52b7b790ef" x="176.13875" y="263.518594" style="stroke: #000000; stroke-width: 0.8"/>
      </g>
     </g>
     <g id="text_4">
      <!-- 3 -->
      <g transform="translate(170.4125 284.195781) scale(0.18 -0.18)">
       <defs>
        <path id="DejaVuSans-33" d="M 2597 2516 
Q 3050 2419 3304 2112 
Q 3559 1806 3559 1356 
Q 3559 666 3084 287 
Q 2609 -91 1734 -91 
Q 1441 -91 1130 -33 
Q 819 25 488 141 
L 488 750 
Q 750 597 1062 519 
Q 1375 441 1716 441 
Q 2309 441 2620 675 
Q 2931 909 2931 1356 
Q 2931 1769 2642 2001 
Q 2353 2234 1838 2234 
L 1294 2234 
L 1294 2753 
L 1863 2753 
Q 2328 2753 2575 2939 
Q 2822 3125 2822 3475 
Q 2822 3834 2567 4026 
Q 2313 4219 1838 4219 
Q 1578 4219 1281 4162 
Q 984 4106 628 3988 
L 628 4550 
Q 988 4650 1302 4700 
Q 1616 4750 1894 4750 
Q 2613 4750 3031 4423 
Q 3450 4097 3450 3541 
Q 3450 3153 3228 2886 
Q 3006 2619 2597 2516 
z
" transform="scale(0.015625)"/>
       </defs>
       <use xlink:href="#DejaVuSans-33"/>
      </g>
     </g>
    </g>
    <g id="xtick_5">
     <g id="line2d_9">
      <path d="M 209.61875 263.518594 
L 209.61875 14.038594 
" clip-path="url(#p4dcbe2be1c)" style="fill: none; stroke-dasharray: 2.96,1.28; stroke-dashoffset: 0; stroke: #b0b0b0; stroke-width: 0.8"/>
     </g>
     <g id="line2d_10">
      <g>
       <use xlink:href="#m52b7b790ef" x="209.61875" y="263.518594" style="stroke: #000000; stroke-width: 0.8"/>
      </g>
     </g>
     <g id="text_5">
      <!-- 4 -->
      <g transform="translate(203.8925 284.195781) scale(0.18 -0.18)">
       <defs>
        <path id="DejaVuSans-34" d="M 2419 4116 
L 825 1625 
L 2419 1625 
L 2419 4116 
z
M 2253 4666 
L 3047 4666 
L 3047 1625 
L 3713 1625 
L 3713 1100 
L 3047 1100 
L 3047 0 
L 2419 0 
L 2419 1100 
L 313 1100 
L 313 1709 
L 2253 4666 
z
" transform="scale(0.015625)"/>
       </defs>
       <use xlink:href="#DejaVuSans-34"/>
      </g>
     </g>
    </g>
    <g id="xtick_6">
     <g id="line2d_11">
      <path d="M 243.09875 263.518594 
L 243.09875 14.038594 
" clip-path="url(#p4dcbe2be1c)" style="fill: none; stroke-dasharray: 2.96,1.28; stroke-dashoffset: 0; stroke: #b0b0b0; stroke-width: 0.8"/>
     </g>
     <g id="line2d_12">
      <g>
       <use xlink:href="#m52b7b790ef" x="243.09875" y="263.518594" style="stroke: #000000; stroke-width: 0.8"/>
      </g>
     </g>
     <g id="text_6">
      <!-- 5 -->
      <g transform="translate(237.3725 284.195781) scale(0.18 -0.18)">
       <defs>
        <path id="DejaVuSans-35" d="M 691 4666 
L 3169 4666 
L 3169 4134 
L 1269 4134 
L 1269 2991 
Q 1406 3038 1543 3061 
Q 1681 3084 1819 3084 
Q 2600 3084 3056 2656 
Q 3513 2228 3513 1497 
Q 3513 744 3044 326 
Q 2575 -91 1722 -91 
Q 1428 -91 1123 -41 
Q 819 9 494 109 
L 494 744 
Q 775 591 1075 516 
Q 1375 441 1709 441 
Q 2250 441 2565 725 
Q 2881 1009 2881 1497 
Q 2881 1984 2565 2268 
Q 2250 2553 1709 2553 
Q 1456 2553 1204 2497 
Q 953 2441 691 2322 
L 691 4666 
z
" transform="scale(0.015625)"/>
       </defs>
       <use xlink:href="#DejaVuSans-35"/>
      </g>
     </g>
    </g>
    <g id="xtick_7">
     <g id="line2d_13">
      <path d="M 276.57875 263.518594 
L 276.57875 14.038594 
" clip-path="url(#p4dcbe2be1c)" style="fill: none; stroke-dasharray: 2.96,1.28; stroke-dashoffset: 0; stroke: #b0b0b0; stroke-width: 0.8"/>
     </g>
     <g id="line2d_14">
      <g>
       <use xlink:href="#m52b7b790ef" x="276.57875" y="263.518594" style="stroke: #000000; stroke-width: 0.8"/>
      </g>
     </g>
     <g id="text_7">
      <!-- 6 -->
      <g transform="translate(270.8525 284.195781) scale(0.18 -0.18)">
       <defs>
        <path id="DejaVuSans-36" d="M 2113 2584 
Q 1688 2584 1439 2293 
Q 1191 2003 1191 1497 
Q 1191 994 1439 701 
Q 1688 409 2113 409 
Q 2538 409 2786 701 
Q 3034 994 3034 1497 
Q 3034 2003 2786 2293 
Q 2538 2584 2113 2584 
z
M 3366 4563 
L 3366 3988 
Q 3128 4100 2886 4159 
Q 2644 4219 2406 4219 
Q 1781 4219 1451 3797 
Q 1122 3375 1075 2522 
Q 1259 2794 1537 2939 
Q 1816 3084 2150 3084 
Q 2853 3084 3261 2657 
Q 3669 2231 3669 1497 
Q 3669 778 3244 343 
Q 2819 -91 2113 -91 
Q 1303 -91 875 529 
Q 447 1150 447 2328 
Q 447 3434 972 4092 
Q 1497 4750 2381 4750 
Q 2619 4750 2861 4703 
Q 3103 4656 3366 4563 
z
" transform="scale(0.015625)"/>
       </defs>
       <use xlink:href="#DejaVuSans-36"/>
      </g>
     </g>
    </g>
    <g id="xtick_8">
     <g id="line2d_15">
      <path d="M 310.05875 263.518594 
L 310.05875 14.038594 
" clip-path="url(#p4dcbe2be1c)" style="fill: none; stroke-dasharray: 2.96,1.28; stroke-dashoffset: 0; stroke: #b0b0b0; stroke-width: 0.8"/>
     </g>
     <g id="line2d_16">
      <g>
       <use xlink:href="#m52b7b790ef" x="310.05875" y="263.518594" style="stroke: #000000; stroke-width: 0.8"/>
      </g>
     </g>
     <g id="text_8">
      <!-- 7 -->
      <g transform="translate(304.3325 284.195781) scale(0.18 -0.18)">
       <defs>
        <path id="DejaVuSans-37" d="M 525 4666 
L 3525 4666 
L 3525 4397 
L 1831 0 
L 1172 0 
L 2766 4134 
L 525 4134 
L 525 4666 
z
" transform="scale(0.015625)"/>
       </defs>
       <use xlink:href="#DejaVuSans-37"/>
      </g>
     </g>
    </g>
    <g id="xtick_9">
     <g id="line2d_17">
      <path d="M 343.53875 263.518594 
L 343.53875 14.038594 
" clip-path="url(#p4dcbe2be1c)" style="fill: none; stroke-dasharray: 2.96,1.28; stroke-dashoffset: 0; stroke: #b0b0b0; stroke-width: 0.8"/>
     </g>
     <g id="line2d_18">
      <g>
       <use xlink:href="#m52b7b790ef" x="343.53875" y="263.518594" style="stroke: #000000; stroke-width: 0.8"/>
      </g>
     </g>
     <g id="text_9">
      <!-- 8 -->
      <g transform="translate(337.8125 284.195781) scale(0.18 -0.18)">
       <defs>
        <path id="DejaVuSans-38" d="M 2034 2216 
Q 1584 2216 1326 1975 
Q 1069 1734 1069 1313 
Q 1069 891 1326 650 
Q 1584 409 2034 409 
Q 2484 409 2743 651 
Q 3003 894 3003 1313 
Q 3003 1734 2745 1975 
Q 2488 2216 2034 2216 
z
M 1403 2484 
Q 997 2584 770 2862 
Q 544 3141 544 3541 
Q 544 4100 942 4425 
Q 1341 4750 2034 4750 
Q 2731 4750 3128 4425 
Q 3525 4100 3525 3541 
Q 3525 3141 3298 2862 
Q 3072 2584 2669 2484 
Q 3125 2378 3379 2068 
Q 3634 1759 3634 1313 
Q 3634 634 3220 271 
Q 2806 -91 2034 -91 
Q 1263 -91 848 271 
Q 434 634 434 1313 
Q 434 1759 690 2068 
Q 947 2378 1403 2484 
z
M 1172 3481 
Q 1172 3119 1398 2916 
Q 1625 2713 2034 2713 
Q 2441 2713 2670 2916 
Q 2900 3119 2900 3481 
Q 2900 3844 2670 4047 
Q 2441 4250 2034 4250 
Q 1625 4250 1398 4047 
Q 1172 3844 1172 3481 
z
" transform="scale(0.015625)"/>
       </defs>
       <use xlink:href="#DejaVuSans-38"/>
      </g>
     </g>
    </g>
    <g id="xtick_10">
     <g id="line2d_19">
      <path d="M 377.01875 263.518594 
L 377.01875 14.038594 
" clip-path="url(#p4dcbe2be1c)" style="fill: none; stroke-dasharray: 2.96,1.28; stroke-dashoffset: 0; stroke: #b0b0b0; stroke-width: 0.8"/>
     </g>
     <g id="line2d_20">
      <g>
       <use xlink:href="#m52b7b790ef" x="377.01875" y="263.518594" style="stroke: #000000; stroke-width: 0.8"/>
      </g>
     </g>
     <g id="text_10">
      <!-- 9 -->
      <g transform="translate(371.2925 284.195781) scale(0.18 -0.18)">
       <defs>
        <path id="DejaVuSans-39" d="M 703 97 
L 703 672 
Q 941 559 1184 500 
Q 1428 441 1663 441 
Q 2288 441 2617 861 
Q 2947 1281 2994 2138 
Q 2813 1869 2534 1725 
Q 2256 1581 1919 1581 
Q 1219 1581 811 2004 
Q 403 2428 403 3163 
Q 403 3881 828 4315 
Q 1253 4750 1959 4750 
Q 2769 4750 3195 4129 
Q 3622 3509 3622 2328 
Q 3622 1225 3098 567 
Q 2575 -91 1691 -91 
Q 1453 -91 1209 -44 
Q 966 3 703 97 
z
M 1959 2075 
Q 2384 2075 2632 2365 
Q 2881 2656 2881 3163 
Q 2881 3666 2632 3958 
Q 2384 4250 1959 4250 
Q 1534 4250 1286 3958 
Q 1038 3666 1038 3163 
Q 1038 2656 1286 2365 
Q 1534 2075 1959 2075 
z
" transform="scale(0.015625)"/>
       </defs>
       <use xlink:href="#DejaVuSans-39"/>
      </g>
     </g>
    </g>
    <g id="xtick_11">
     <g id="line2d_21">
      <path d="M 410.49875 263.518594 
L 410.49875 14.038594 
" clip-path="url(#p4dcbe2be1c)" style="fill: none; stroke-dasharray: 2.96,1.28; stroke-dashoffset: 0; stroke: #b0b0b0; stroke-width: 0.8"/>
     </g>
     <g id="line2d_22">
      <g>
       <use xlink:href="#m52b7b790ef" x="410.49875" y="263.518594" style="stroke: #000000; stroke-width: 0.8"/>
      </g>
     </g>
     <g id="text_11">
      <!-- 10 -->
      <g transform="translate(399.04625 284.195781) scale(0.18 -0.18)">
       <use xlink:href="#DejaVuSans-31"/>
       <use xlink:href="#DejaVuSans-30" x="63.623047"/>
      </g>
     </g>
    </g>
    <g id="text_12">
     <!-- One-way latency [ms] -->
     <g transform="translate(144.063594 305.616406) scale(0.18 -0.18)">
      <defs>
       <path id="DejaVuSans-4f" d="M 2522 4238 
Q 1834 4238 1429 3725 
Q 1025 3213 1025 2328 
Q 1025 1447 1429 934 
Q 1834 422 2522 422 
Q 3209 422 3611 934 
Q 4013 1447 4013 2328 
Q 4013 3213 3611 3725 
Q 3209 4238 2522 4238 
z
M 2522 4750 
Q 3503 4750 4090 4092 
Q 4678 3434 4678 2328 
Q 4678 1225 4090 567 
Q 3503 -91 2522 -91 
Q 1538 -91 948 565 
Q 359 1222 359 2328 
Q 359 3434 948 4092 
Q 1538 4750 2522 4750 
z
" transform="scale(0.015625)"/>
       <path id="DejaVuSans-6e" d="M 3513 2113 
L 3513 0 
L 2938 0 
L 2938 2094 
Q 2938 2591 2744 2837 
Q 2550 3084 2163 3084 
Q 1697 3084 1428 2787 
Q 1159 2491 1159 1978 
L 1159 0 
L 581 0 
L 581 3500 
L 1159 3500 
L 1159 2956 
Q 1366 3272 1645 3428 
Q 1925 3584 2291 3584 
Q 2894 3584 3203 3211 
Q 3513 2838 3513 2113 
z
" transform="scale(0.015625)"/>
       <path id="DejaVuSans-65" d="M 3597 1894 
L 3597 1613 
L 953 1613 
Q 991 1019 1311 708 
Q 1631 397 2203 397 
Q 2534 397 2845 478 
Q 3156 559 3463 722 
L 3463 178 
Q 3153 47 2828 -22 
Q 2503 -91 2169 -91 
Q 1331 -91 842 396 
Q 353 884 353 1716 
Q 353 2575 817 3079 
Q 1281 3584 2069 3584 
Q 2775 3584 3186 3129 
Q 3597 2675 3597 1894 
z
M 3022 2063 
Q 3016 2534 2758 2815 
Q 2500 3097 2075 3097 
Q 1594 3097 1305 2825 
Q 1016 2553 972 2059 
L 3022 2063 
z
" transform="scale(0.015625)"/>
       <path id="DejaVuSans-2d" d="M 313 2009 
L 1997 2009 
L 1997 1497 
L 313 1497 
L 313 2009 
z
" transform="scale(0.015625)"/>
       <path id="DejaVuSans-77" d="M 269 3500 
L 844 3500 
L 1563 769 
L 2278 3500 
L 2956 3500 
L 3675 769 
L 4391 3500 
L 4966 3500 
L 4050 0 
L 3372 0 
L 2619 2869 
L 1863 0 
L 1184 0 
L 269 3500 
z
" transform="scale(0.015625)"/>
       <path id="DejaVuSans-61" d="M 2194 1759 
Q 1497 1759 1228 1600 
Q 959 1441 959 1056 
Q 959 750 1161 570 
Q 1363 391 1709 391 
Q 2188 391 2477 730 
Q 2766 1069 2766 1631 
L 2766 1759 
L 2194 1759 
z
M 3341 1997 
L 3341 0 
L 2766 0 
L 2766 531 
Q 2569 213 2275 61 
Q 1981 -91 1556 -91 
Q 1019 -91 701 211 
Q 384 513 384 1019 
Q 384 1609 779 1909 
Q 1175 2209 1959 2209 
L 2766 2209 
L 2766 2266 
Q 2766 2663 2505 2880 
Q 2244 3097 1772 3097 
Q 1472 3097 1187 3025 
Q 903 2953 641 2809 
L 641 3341 
Q 956 3463 1253 3523 
Q 1550 3584 1831 3584 
Q 2591 3584 2966 3190 
Q 3341 2797 3341 1997 
z
" transform="scale(0.015625)"/>
       <path id="DejaVuSans-79" d="M 2059 -325 
Q 1816 -950 1584 -1140 
Q 1353 -1331 966 -1331 
L 506 -1331 
L 506 -850 
L 844 -850 
Q 1081 -850 1212 -737 
Q 1344 -625 1503 -206 
L 1606 56 
L 191 3500 
L 800 3500 
L 1894 763 
L 2988 3500 
L 3597 3500 
L 2059 -325 
z
" transform="scale(0.015625)"/>
       <path id="DejaVuSans-20" transform="scale(0.015625)"/>
       <path id="DejaVuSans-6c" d="M 603 4863 
L 1178 4863 
L 1178 0 
L 603 0 
L 603 4863 
z
" transform="scale(0.015625)"/>
       <path id="DejaVuSans-74" d="M 1172 4494 
L 1172 3500 
L 2356 3500 
L 2356 3053 
L 1172 3053 
L 1172 1153 
Q 1172 725 1289 603 
Q 1406 481 1766 481 
L 2356 481 
L 2356 0 
L 1766 0 
Q 1100 0 847 248 
Q 594 497 594 1153 
L 594 3053 
L 172 3053 
L 172 3500 
L 594 3500 
L 594 4494 
L 1172 4494 
z
" transform="scale(0.015625)"/>
       <path id="DejaVuSans-63" d="M 3122 3366 
L 3122 2828 
Q 2878 2963 2633 3030 
Q 2388 3097 2138 3097 
Q 1578 3097 1268 2742 
Q 959 2388 959 1747 
Q 959 1106 1268 751 
Q 1578 397 2138 397 
Q 2388 397 2633 464 
Q 2878 531 3122 666 
L 3122 134 
Q 2881 22 2623 -34 
Q 2366 -91 2075 -91 
Q 1284 -91 818 406 
Q 353 903 353 1747 
Q 353 2603 823 3093 
Q 1294 3584 2113 3584 
Q 2378 3584 2631 3529 
Q 2884 3475 3122 3366 
z
" transform="scale(0.015625)"/>
       <path id="DejaVuSans-5b" d="M 550 4863 
L 1875 4863 
L 1875 4416 
L 1125 4416 
L 1125 -397 
L 1875 -397 
L 1875 -844 
L 550 -844 
L 550 4863 
z
" transform="scale(0.015625)"/>
       <path id="DejaVuSans-6d" d="M 3328 2828 
Q 3544 3216 3844 3400 
Q 4144 3584 4550 3584 
Q 5097 3584 5394 3201 
Q 5691 2819 5691 2113 
L 5691 0 
L 5113 0 
L 5113 2094 
Q 5113 2597 4934 2840 
Q 4756 3084 4391 3084 
Q 3944 3084 3684 2787 
Q 3425 2491 3425 1978 
L 3425 0 
L 2847 0 
L 2847 2094 
Q 2847 2600 2669 2842 
Q 2491 3084 2119 3084 
Q 1678 3084 1418 2786 
Q 1159 2488 1159 1978 
L 1159 0 
L 581 0 
L 581 3500 
L 1159 3500 
L 1159 2956 
Q 1356 3278 1631 3431 
Q 1906 3584 2284 3584 
Q 2666 3584 2933 3390 
Q 3200 3197 3328 2828 
z
" transform="scale(0.015625)"/>
       <path id="DejaVuSans-73" d="M 2834 3397 
L 2834 2853 
Q 2591 2978 2328 3040 
Q 2066 3103 1784 3103 
Q 1356 3103 1142 2972 
Q 928 2841 928 2578 
Q 928 2378 1081 2264 
Q 1234 2150 1697 2047 
L 1894 2003 
Q 2506 1872 2764 1633 
Q 3022 1394 3022 966 
Q 3022 478 2636 193 
Q 2250 -91 1575 -91 
Q 1294 -91 989 -36 
Q 684 19 347 128 
L 347 722 
Q 666 556 975 473 
Q 1284 391 1588 391 
Q 1994 391 2212 530 
Q 2431 669 2431 922 
Q 2431 1156 2273 1281 
Q 2116 1406 1581 1522 
L 1381 1569 
Q 847 1681 609 1914 
Q 372 2147 372 2553 
Q 372 3047 722 3315 
Q 1072 3584 1716 3584 
Q 2034 3584 2315 3537 
Q 2597 3491 2834 3397 
z
" transform="scale(0.015625)"/>
       <path id="DejaVuSans-5d" d="M 1947 4863 
L 1947 -844 
L 622 -844 
L 622 -397 
L 1369 -397 
L 1369 4416 
L 622 4416 
L 622 4863 
L 1947 4863 
z
" transform="scale(0.015625)"/>
      </defs>
      <use xlink:href="#DejaVuSans-4f"/>
      <use xlink:href="#DejaVuSans-6e" x="78.710938"/>
      <use xlink:href="#DejaVuSans-65" x="142.089844"/>
      <use xlink:href="#DejaVuSans-2d" x="203.613281"/>
      <use xlink:href="#DejaVuSans-77" x="239.697266"/>
      <use xlink:href="#DejaVuSans-61" x="321.484375"/>
      <use xlink:href="#DejaVuSans-79" x="382.763672"/>
      <use xlink:href="#DejaVuSans-20" x="441.943359"/>
      <use xlink:href="#DejaVuSans-6c" x="473.730469"/>
      <use xlink:href="#DejaVuSans-61" x="501.513672"/>
      <use xlink:href="#DejaVuSans-74" x="562.792969"/>
      <use xlink:href="#DejaVuSans-65" x="602.001953"/>
      <use xlink:href="#DejaVuSans-6e" x="663.525391"/>
      <use xlink:href="#DejaVuSans-63" x="726.904297"/>
      <use xlink:href="#DejaVuSans-79" x="781.884766"/>
      <use xlink:href="#DejaVuSans-20" x="841.064453"/>
      <use xlink:href="#DejaVuSans-5b" x="872.851562"/>
      <use xlink:href="#DejaVuSans-6d" x="911.865234"/>
      <use xlink:href="#DejaVuSans-73" x="1009.277344"/>
      <use xlink:href="#DejaVuSans-5d" x="1061.376953"/>
     </g>
    </g>
   </g>
   <g id="matplotlib.axis_2">
    <g id="ytick_1">
     <g id="line2d_23">
      <path d="M 75.69875 263.518594 
L 410.49875 263.518594 
" clip-path="url(#p4dcbe2be1c)" style="fill: none; stroke-dasharray: 2.96,1.28; stroke-dashoffset: 0; stroke: #b0b0b0; stroke-width: 0.8"/>
     </g>
     <g id="line2d_24">
      <defs>
       <path id="md9d881de9e" d="M 0 0 
L -3.5 0 
" style="stroke: #000000; stroke-width: 0.8"/>
      </defs>
      <g>
       <use xlink:href="#md9d881de9e" x="75.69875" y="263.518594" style="stroke: #000000; stroke-width: 0.8"/>
      </g>
     </g>
     <g id="text_13">
      <!-- 0.00 -->
      <g transform="translate(28.620625 270.357188) scale(0.18 -0.18)">
       <defs>
        <path id="DejaVuSans-2e" d="M 684 794 
L 1344 794 
L 1344 0 
L 684 0 
L 684 794 
z
" transform="scale(0.015625)"/>
       </defs>
       <use xlink:href="#DejaVuSans-30"/>
       <use xlink:href="#DejaVuSans-2e" x="63.623047"/>
       <use xlink:href="#DejaVuSans-30" x="95.410156"/>
       <use xlink:href="#DejaVuSans-30" x="159.033203"/>
      </g>
     </g>
    </g>
    <g id="ytick_2">
     <g id="line2d_25">
      <path d="M 75.69875 221.938594 
L 410.49875 221.938594 
" clip-path="url(#p4dcbe2be1c)" style="fill: none; stroke-dasharray: 2.96,1.28; stroke-dashoffset: 0; stroke: #b0b0b0; stroke-width: 0.8"/>
     </g>
     <g id="line2d_26">
      <g>
       <use xlink:href="#md9d881de9e" x="75.69875" y="221.938594" style="stroke: #000000; stroke-width: 0.8"/>
      </g>
     </g>
     <g id="text_14">
      <!-- 0.02 -->
      <g transform="translate(28.620625 228.777187) scale(0.18 -0.18)">
       <use xlink:href="#DejaVuSans-30"/>
       <use xlink:href="#DejaVuSans-2e" x="63.623047"/>
       <use xlink:href="#DejaVuSans-30" x="95.410156"/>
       <use xlink:href="#DejaVuSans-32" x="159.033203"/>
      </g>
     </g>
    </g>
    <g id="ytick_3">
     <g id="line2d_27">
      <path d="M 75.69875 180.358594 
L 410.49875 180.358594 
" clip-path="url(#p4dcbe2be1c)" style="fill: none; stroke-dasharray: 2.96,1.28; stroke-dashoffset: 0; stroke: #b0b0b0; stroke-width: 0.8"/>
     </g>
     <g id="line2d_28">
      <g>
       <use xlink:href="#md9d881de9e" x="75.69875" y="180.358594" style="stroke: #000000; stroke-width: 0.8"/>
      </g>
     </g>
     <g id="text_15">
      <!-- 0.04 -->
      <g transform="translate(28.620625 187.197187) scale(0.18 -0.18)">
       <use xlink:href="#DejaVuSans-30"/>
       <use xlink:href="#DejaVuSans-2e" x="63.623047"/>
       <use xlink:href="#DejaVuSans-30" x="95.410156"/>
       <use xlink:href="#DejaVuSans-34" x="159.033203"/>
      </g>
     </g>
    </g>
    <g id="ytick_4">
     <g id="line2d_29">
      <path d="M 75.69875 138.778594 
L 410.49875 138.778594 
" clip-path="url(#p4dcbe2be1c)" style="fill: none; stroke-dasharray: 2.96,1.28; stroke-dashoffset: 0; stroke: #b0b0b0; stroke-width: 0.8"/>
     </g>
     <g id="line2d_30">
      <g>
       <use xlink:href="#md9d881de9e" x="75.69875" y="138.778594" style="stroke: #000000; stroke-width: 0.8"/>
      </g>
     </g>
     <g id="text_16">
      <!-- 0.06 -->
      <g transform="translate(28.620625 145.617187) scale(0.18 -0.18)">
       <use xlink:href="#DejaVuSans-30"/>
       <use xlink:href="#DejaVuSans-2e" x="63.623047"/>
       <use xlink:href="#DejaVuSans-30" x="95.410156"/>
       <use xlink:href="#DejaVuSans-36" x="159.033203"/>
      </g>
     </g>
    </g>
    <g id="ytick_5">
     <g id="line2d_31">
      <path d="M 75.69875 97.198594 
L 410.49875 97.198594 
" clip-path="url(#p4dcbe2be1c)" style="fill: none; stroke-dasharray: 2.96,1.28; stroke-dashoffset: 0; stroke: #b0b0b0; stroke-width: 0.8"/>
     </g>
     <g id="line2d_32">
      <g>
       <use xlink:href="#md9d881de9e" x="75.69875" y="97.198594" style="stroke: #000000; stroke-width: 0.8"/>
      </g>
     </g>
     <g id="text_17">
      <!-- 0.08 -->
      <g transform="translate(28.620625 104.037187) scale(0.18 -0.18)">
       <use xlink:href="#DejaVuSans-30"/>
       <use xlink:href="#DejaVuSans-2e" x="63.623047"/>
       <use xlink:href="#DejaVuSans-30" x="95.410156"/>
       <use xlink:href="#DejaVuSans-38" x="159.033203"/>
      </g>
     </g>
    </g>
    <g id="ytick_6">
     <g id="line2d_33">
      <path d="M 75.69875 55.618594 
L 410.49875 55.618594 
" clip-path="url(#p4dcbe2be1c)" style="fill: none; stroke-dasharray: 2.96,1.28; stroke-dashoffset: 0; stroke: #b0b0b0; stroke-width: 0.8"/>
     </g>
     <g id="line2d_34">
      <g>
       <use xlink:href="#md9d881de9e" x="75.69875" y="55.618594" style="stroke: #000000; stroke-width: 0.8"/>
      </g>
     </g>
     <g id="text_18">
      <!-- 0.10 -->
      <g transform="translate(28.620625 62.457187) scale(0.18 -0.18)">
       <use xlink:href="#DejaVuSans-30"/>
       <use xlink:href="#DejaVuSans-2e" x="63.623047"/>
       <use xlink:href="#DejaVuSans-31" x="95.410156"/>
       <use xlink:href="#DejaVuSans-30" x="159.033203"/>
      </g>
     </g>
    </g>
    <g id="ytick_7">
     <g id="line2d_35">
      <path d="M 75.69875 14.038594 
L 410.49875 14.038594 
" clip-path="url(#p4dcbe2be1c)" style="fill: none; stroke-dasharray: 2.96,1.28; stroke-dashoffset: 0; stroke: #b0b0b0; stroke-width: 0.8"/>
     </g>
     <g id="line2d_36">
      <g>
       <use xlink:href="#md9d881de9e" x="75.69875" y="14.038594" style="stroke: #000000; stroke-width: 0.8"/>
      </g>
     </g>
     <g id="text_19">
      <!-- 0.12 -->
      <g transform="translate(28.620625 20.877187) scale(0.18 -0.18)">
       <use xlink:href="#DejaVuSans-30"/>
       <use xlink:href="#DejaVuSans-2e" x="63.623047"/>
       <use xlink:href="#DejaVuSans-31" x="95.410156"/>
       <use xlink:href="#DejaVuSans-32" x="159.033203"/>
      </g>
     </g>
    </g>
    <g id="text_20">
     <!-- Probability -->
     <g transform="translate(20.877187 186.350625) rotate(-90) scale(0.18 -0.18)">
      <defs>
       <path id="DejaVuSans-50" d="M 1259 4147 
L 1259 2394 
L 2053 2394 
Q 2494 2394 2734 2622 
Q 2975 2850 2975 3272 
Q 2975 3691 2734 3919 
Q 2494 4147 2053 4147 
L 1259 4147 
z
M 628 4666 
L 2053 4666 
Q 2838 4666 3239 4311 
Q 3641 3956 3641 3272 
Q 3641 2581 3239 2228 
Q 2838 1875 2053 1875 
L 1259 1875 
L 1259 0 
L 628 0 
L 628 4666 
z
" transform="scale(0.015625)"/>
       <path id="DejaVuSans-72" d="M 2631 2963 
Q 2534 3019 2420 3045 
Q 2306 3072 2169 3072 
Q 1681 3072 1420 2755 
Q 1159 2438 1159 1844 
L 1159 0 
L 581 0 
L 581 3500 
L 1159 3500 
L 1159 2956 
Q 1341 3275 1631 3429 
Q 1922 3584 2338 3584 
Q 2397 3584 2469 3576 
Q 2541 3569 2628 3553 
L 2631 2963 
z
" transform="scale(0.015625)"/>
       <path id="DejaVuSans-6f" d="M 1959 3097 
Q 1497 3097 1228 2736 
Q 959 2375 959 1747 
Q 959 1119 1226 758 
Q 1494 397 1959 397 
Q 2419 397 2687 759 
Q 2956 1122 2956 1747 
Q 2956 2369 2687 2733 
Q 2419 3097 1959 3097 
z
M 1959 3584 
Q 2709 3584 3137 3096 
Q 3566 2609 3566 1747 
Q 3566 888 3137 398 
Q 2709 -91 1959 -91 
Q 1206 -91 779 398 
Q 353 888 353 1747 
Q 353 2609 779 3096 
Q 1206 3584 1959 3584 
z
" transform="scale(0.015625)"/>
       <path id="DejaVuSans-62" d="M 3116 1747 
Q 3116 2381 2855 2742 
Q 2594 3103 2138 3103 
Q 1681 3103 1420 2742 
Q 1159 2381 1159 1747 
Q 1159 1113 1420 752 
Q 1681 391 2138 391 
Q 2594 391 2855 752 
Q 3116 1113 3116 1747 
z
M 1159 2969 
Q 1341 3281 1617 3432 
Q 1894 3584 2278 3584 
Q 2916 3584 3314 3078 
Q 3713 2572 3713 1747 
Q 3713 922 3314 415 
Q 2916 -91 2278 -91 
Q 1894 -91 1617 61 
Q 1341 213 1159 525 
L 1159 0 
L 581 0 
L 581 4863 
L 1159 4863 
L 1159 2969 
z
" transform="scale(0.015625)"/>
       <path id="DejaVuSans-69" d="M 603 3500 
L 1178 3500 
L 1178 0 
L 603 0 
L 603 3500 
z
M 603 4863 
L 1178 4863 
L 1178 4134 
L 603 4134 
L 603 4863 
z
" transform="scale(0.015625)"/>
      </defs>
      <use xlink:href="#DejaVuSans-50"/>
      <use xlink:href="#DejaVuSans-72" x="58.552734"/>
      <use xlink:href="#DejaVuSans-6f" x="97.416016"/>
      <use xlink:href="#DejaVuSans-62" x="158.597656"/>
      <use xlink:href="#DejaVuSans-61" x="222.074219"/>
      <use xlink:href="#DejaVuSans-62" x="283.353516"/>
      <use xlink:href="#DejaVuSans-69" x="346.830078"/>
      <use xlink:href="#DejaVuSans-6c" x="374.613281"/>
      <use xlink:href="#DejaVuSans-69" x="402.396484"/>
      <use xlink:href="#DejaVuSans-74" x="430.179688"/>
      <use xlink:href="#DejaVuSans-79" x="469.388672"/>
     </g>
    </g>
   </g>
   <g id="line2d_37">
    <path d="M 137.513325 257.691988 
L 138.707093 254.227366 
L 139.900861 249.633134 
L 141.09463 243.654036 
L 142.288398 235.988452 
L 143.482166 226.478424 
L 144.675934 215.286316 
L 147.06347 189.850474 
L 153.032311 123.461827 
L 154.226079 112.068629 
L 155.419847 102.479939 
L 156.613616 94.998938 
L 157.807384 89.885089 
L 159.001152 87.420255 
L 160.19492 87.79393 
L 161.388688 90.943805 
L 162.582456 96.519768 
L 163.776225 103.989651 
L 166.163761 122.37926 
L 168.551297 141.868299 
L 169.745065 150.692795 
L 170.938833 158.413062 
L 172.132602 165.055966 
L 174.520138 176.474152 
L 180.488979 203.929242 
L 182.876515 213.474619 
L 185.264051 222.854559 
L 188.845356 238.611575 
L 191.232892 248.591849 
L 192.42666 252.860421 
L 193.620428 256.428401 
L 194.814196 259.183939 
L 196.007965 261.113298 
L 197.201733 262.316797 
L 198.395501 262.971557 
L 199.589269 263.266279 
L 201.976805 263.332262 
L 205.55811 263.242625 
L 213.914487 263.516454 
L 219.883328 263.433808 
L 225.852168 263.309762 
L 231.821009 263.291566 
L 235.402314 263.24788 
L 238.983618 263.333028 
L 242.564923 263.111762 
L 244.952459 262.974575 
L 247.339995 263.028698 
L 253.308836 263.481401 
L 258.083908 263.441828 
L 264.052749 263.294289 
L 277.184199 263.515602 
L 291.509417 263.344464 
L 297.478257 263.294954 
L 301.059562 263.162215 
L 304.640866 263.094522 
L 314.191012 263.36897 
L 322.547389 263.463601 
L 329.709998 263.216179 
L 350.004056 263.514418 
L 353.585361 263.426087 
L 359.554201 262.999443 
L 363.135506 263.302239 
L 366.71681 263.494386 
L 371.491883 263.456826 
L 375.073187 263.376258 
L 375.073187 263.376258 
" clip-path="url(#p4dcbe2be1c)" style="fill: none; stroke: #00a4ef; stroke-width: 1.5; stroke-linecap: square"/>
   </g>
   <g id="line2d_38">
    <path d="M 199.854729 263.434352 
L 245.097102 263.446754 
L 258.573554 263.433749 
L 274.937816 263.421536 
L 276.863023 263.215892 
L 277.825627 263.006378 
L 278.788231 262.674678 
L 279.750835 262.16456 
L 280.713438 261.404203 
L 281.676042 260.308699 
L 282.638646 258.787262 
L 283.601249 256.755744 
L 284.563853 254.153435 
L 285.526457 250.961048 
L 286.48906 247.215089 
L 288.414268 238.508765 
L 291.302079 225.076391 
L 292.264682 221.198098 
L 293.227286 217.804971 
L 294.18989 214.936464 
L 295.152493 212.59523 
L 296.115097 210.760409 
L 297.077701 209.397712 
L 298.040304 208.463585 
L 299.002908 207.904355 
L 299.965512 207.653824 
L 300.928115 207.63326 
L 305.741134 208.204418 
L 307.666341 207.935843 
L 312.47936 206.875996 
L 315.367171 206.671395 
L 318.254982 206.54296 
L 320.180189 206.286622 
L 322.105396 205.793112 
L 326.918415 204.246132 
L 328.843622 203.952281 
L 330.76883 203.864784 
L 333.656641 203.97985 
L 338.469659 204.332529 
L 340.394866 204.239835 
L 342.320074 203.91473 
L 345.207885 203.268531 
L 346.170488 203.209601 
L 347.133092 203.385046 
L 348.095696 203.926889 
L 349.058299 204.978619 
L 350.020903 206.674091 
L 350.983507 209.111865 
L 351.94611 212.331059 
L 352.908714 216.295075 
L 354.833922 225.924024 
L 357.721733 241.317985 
L 358.684336 245.78938 
L 359.64694 249.661217 
L 360.609544 252.865089 
L 361.572147 255.393677 
L 362.534751 257.288549 
L 363.497355 258.624374 
L 364.459958 259.493552 
L 365.422562 259.993956 
L 366.385166 260.220831 
L 368.310373 260.196863 
L 371.198184 259.963969 
L 373.123391 260.113193 
L 376.011202 260.744635 
L 378.899013 261.311772 
L 381.786825 261.555538 
L 385.637239 261.805002 
L 388.52505 262.221065 
L 391.412861 262.769201 
L 391.412861 262.769201 
" clip-path="url(#p4dcbe2be1c)" style="fill: none; stroke: #f25022; stroke-width: 1.5; stroke-linecap: square"/>
   </g>
   <g id="patch_203">
    <path d="M 75.69875 263.518594 
L 75.69875 14.038594 
" style="fill: none; stroke: #000000; stroke-width: 0.8; stroke-linejoin: miter; stroke-linecap: square"/>
   </g>
   <g id="patch_204">
    <path d="M 410.49875 263.518594 
L 410.49875 14.038594 
" style="fill: none; stroke: #000000; stroke-width: 0.8; stroke-linejoin: miter; stroke-linecap: square"/>
   </g>
   <g id="patch_205">
    <path d="M 75.69875 263.518594 
L 410.49875 263.518594 
" style="fill: none; stroke: #000000; stroke-width: 0.8; stroke-linejoin: miter; stroke-linecap: square"/>
   </g>
   <g id="patch_206">
    <path d="M 75.69875 14.038594 
L 410.49875 14.038594 
" style="fill: none; stroke: #000000; stroke-width: 0.8; stroke-linejoin: miter; stroke-linecap: square"/>
   </g>
   <g id="legend_1">
    <g id="patch_207">
     <path d="M 257.465 81.279844 
L 397.89875 81.279844 
Q 401.49875 81.279844 401.49875 77.679844 
L 401.49875 26.638594 
Q 401.49875 23.038594 397.89875 23.038594 
L 257.465 23.038594 
Q 253.865 23.038594 253.865 26.638594 
L 253.865 77.679844 
Q 253.865 81.279844 257.465 81.279844 
z
" style="fill: #ffffff; opacity: 0.8; stroke: #cccccc; stroke-linejoin: miter"/>
    </g>
    <g id="patch_208">
     <path d="M 261.065 43.915781 
L 297.065 43.915781 
L 297.065 31.315781 
L 261.065 31.315781 
z
" style="fill: #00a4ef; fill-opacity: 0.5"/>
    </g>
    <g id="text_21">
     <!-- Downlink -->
     <g transform="translate(311.465 43.915781) scale(0.18 -0.18)">
      <defs>
       <path id="DejaVuSans-44" d="M 1259 4147 
L 1259 519 
L 2022 519 
Q 2988 519 3436 956 
Q 3884 1394 3884 2338 
Q 3884 3275 3436 3711 
Q 2988 4147 2022 4147 
L 1259 4147 
z
M 628 4666 
L 1925 4666 
Q 3281 4666 3915 4102 
Q 4550 3538 4550 2338 
Q 4550 1131 3912 565 
Q 3275 0 1925 0 
L 628 0 
L 628 4666 
z
" transform="scale(0.015625)"/>
       <path id="DejaVuSans-6b" d="M 581 4863 
L 1159 4863 
L 1159 1991 
L 2875 3500 
L 3609 3500 
L 1753 1863 
L 3688 0 
L 2938 0 
L 1159 1709 
L 1159 0 
L 581 0 
L 581 4863 
z
" transform="scale(0.015625)"/>
      </defs>
      <use xlink:href="#DejaVuSans-44"/>
      <use xlink:href="#DejaVuSans-6f" x="77.001953"/>
      <use xlink:href="#DejaVuSans-77" x="138.183594"/>
      <use xlink:href="#DejaVuSans-6e" x="219.970703"/>
      <use xlink:href="#DejaVuSans-6c" x="283.349609"/>
      <use xlink:href="#DejaVuSans-69" x="311.132812"/>
      <use xlink:href="#DejaVuSans-6e" x="338.916016"/>
      <use xlink:href="#DejaVuSans-6b" x="402.294922"/>
     </g>
    </g>
    <g id="patch_209">
     <path d="M 261.065 70.336406 
L 297.065 70.336406 
L 297.065 57.736406 
L 261.065 57.736406 
z
" style="fill: #f25022; fill-opacity: 0.5"/>
    </g>
    <g id="text_22">
     <!-- Uplink -->
     <g transform="translate(311.465 70.336406) scale(0.18 -0.18)">
      <defs>
       <path id="DejaVuSans-55" d="M 556 4666 
L 1191 4666 
L 1191 1831 
Q 1191 1081 1462 751 
Q 1734 422 2344 422 
Q 2950 422 3222 751 
Q 3494 1081 3494 1831 
L 3494 4666 
L 4128 4666 
L 4128 1753 
Q 4128 841 3676 375 
Q 3225 -91 2344 -91 
Q 1459 -91 1007 375 
Q 556 841 556 1753 
L 556 4666 
z
" transform="scale(0.015625)"/>
       <path id="DejaVuSans-70" d="M 1159 525 
L 1159 -1331 
L 581 -1331 
L 581 3500 
L 1159 3500 
L 1159 2969 
Q 1341 3281 1617 3432 
Q 1894 3584 2278 3584 
Q 2916 3584 3314 3078 
Q 3713 2572 3713 1747 
Q 3713 922 3314 415 
Q 2916 -91 2278 -91 
Q 1894 -91 1617 61 
Q 1341 213 1159 525 
z
M 3116 1747 
Q 3116 2381 2855 2742 
Q 2594 3103 2138 3103 
Q 1681 3103 1420 2742 
Q 1159 2381 1159 1747 
Q 1159 1113 1420 752 
Q 1681 391 2138 391 
Q 2594 391 2855 752 
Q 3116 1113 3116 1747 
z
" transform="scale(0.015625)"/>
      </defs>
      <use xlink:href="#DejaVuSans-55"/>
      <use xlink:href="#DejaVuSans-70" x="73.193359"/>
      <use xlink:href="#DejaVuSans-6c" x="136.669922"/>
      <use xlink:href="#DejaVuSans-69" x="164.453125"/>
      <use xlink:href="#DejaVuSans-6e" x="192.236328"/>
      <use xlink:href="#DejaVuSans-6b" x="255.615234"/>
     </g>
    </g>
   </g>
  </g>
 </g>
 <defs>
  <clipPath id="p4dcbe2be1c">
   <rect x="75.69875" y="14.038594" width="334.8" height="249.48"/>
  </clipPath>
 </defs>
</svg>
