<?xml version="1.0" encoding="utf-8" standalone="no"?>
<!DOCTYPE svg PUBLIC "-//W3C//DTD SVG 1.1//EN"
  "http://www.w3.org/Graphics/SVG/1.1/DTD/svg11.dtd">
<svg xmlns:xlink="http://www.w3.org/1999/xlink" width="429.15125pt" height="316.559844pt" viewBox="0 0 429.15125 316.559844" xmlns="http://www.w3.org/2000/svg" version="1.1">
 <metadata>
  <rdf:RDF xmlns:dc="http://purl.org/dc/elements/1.1/" xmlns:cc="http://creativecommons.org/ns#" xmlns:rdf="http://www.w3.org/1999/02/22-rdf-syntax-ns#">
   <cc:Work>
    <dc:type rdf:resource="http://purl.org/dc/dcmitype/StillImage"/>
    <dc:date>2024-11-26T12:27:06.793292</dc:date>
    <dc:format>image/svg+xml</dc:format>
    <dc:creator>
     <cc:Agent>
      <dc:title>Matplotlib v3.8.3, https://matplotlib.org/</dc:title>
     </cc:Agent>
    </dc:creator>
   </cc:Work>
  </rdf:RDF>
 </metadata>
 <defs>
  <style type="text/css">*{stroke-linejoin: round; stroke-linecap: butt}</style>
 </defs>
 <g id="figure_1">
  <g id="patch_1">
   <path d="M 0 316.559844 
L 429.15125 316.559844 
L 429.15125 0 
L 0 0 
z
" style="fill: #ffffff"/>
  </g>
  <g id="axes_1">
   <g id="patch_2">
    <path d="M 75.69875 263.518594 
L 410.49875 263.518594 
L 410.49875 14.038594 
L 75.69875 14.038594 
z
" style="fill: #ffffff"/>
   </g>
   <g id="patch_3">
    <path d="M 118.882417 263.518594 
L 121.462776 263.518594 
L 121.462776 258.942048 
L 118.882417 258.942048 
z
" clip-path="url(#p6c671c4377)" style="fill: #00a4ef; fill-opacity: 0.5"/>
   </g>
   <g id="patch_4">
    <path d="M 121.749483 263.518594 
L 124.329842 263.518594 
L 124.329842 251.453154 
L 121.749483 251.453154 
z
" clip-path="url(#p6c671c4377)" style="fill: #00a4ef; fill-opacity: 0.5"/>
   </g>
   <g id="patch_5">
    <path d="M 124.616549 263.518594 
L 127.196908 263.518594 
L 127.196908 233.146971 
L 124.616549 233.146971 
z
" clip-path="url(#p6c671c4377)" style="fill: #00a4ef; fill-opacity: 0.5"/>
   </g>
   <g id="patch_6">
    <path d="M 127.483615 263.518594 
L 130.063974 263.518594 
L 130.063974 183.637065 
L 127.483615 183.637065 
z
" clip-path="url(#p6c671c4377)" style="fill: #00a4ef; fill-opacity: 0.5"/>
   </g>
   <g id="patch_7">
    <path d="M 130.350681 263.518594 
L 132.93104 263.518594 
L 132.93104 154.513591 
L 130.350681 154.513591 
z
" clip-path="url(#p6c671c4377)" style="fill: #00a4ef; fill-opacity: 0.5"/>
   </g>
   <g id="patch_8">
    <path d="M 133.217747 263.518594 
L 135.798106 263.518594 
L 135.798106 95.434543 
L 133.217747 95.434543 
z
" clip-path="url(#p6c671c4377)" style="fill: #00a4ef; fill-opacity: 0.5"/>
   </g>
   <g id="patch_9">
    <path d="M 136.084813 263.518594 
L 138.665172 263.518594 
L 138.665172 72.551814 
L 136.084813 72.551814 
z
" clip-path="url(#p6c671c4377)" style="fill: #00a4ef; fill-opacity: 0.5"/>
   </g>
   <g id="patch_10">
    <path d="M 138.951879 263.518594 
L 141.532238 263.518594 
L 141.532238 50.501183 
L 138.951879 50.501183 
z
" clip-path="url(#p6c671c4377)" style="fill: #00a4ef; fill-opacity: 0.5"/>
   </g>
   <g id="patch_11">
    <path d="M 141.818945 263.518594 
L 144.399304 263.518594 
L 144.399304 42.59624 
L 141.818945 42.59624 
z
" clip-path="url(#p6c671c4377)" style="fill: #00a4ef; fill-opacity: 0.5"/>
   </g>
   <g id="patch_12">
    <path d="M 144.686011 263.518594 
L 147.26637 263.518594 
L 147.26637 65.06292 
L 144.686011 65.06292 
z
" clip-path="url(#p6c671c4377)" style="fill: #00a4ef; fill-opacity: 0.5"/>
   </g>
   <g id="patch_13">
    <path d="M 147.553077 263.518594 
L 150.133436 263.518594 
L 150.133436 83.785154 
L 147.553077 83.785154 
z
" clip-path="url(#p6c671c4377)" style="fill: #00a4ef; fill-opacity: 0.5"/>
   </g>
   <g id="patch_14">
    <path d="M 150.420143 263.518594 
L 153.000502 263.518594 
L 153.000502 114.156777 
L 150.420143 114.156777 
z
" clip-path="url(#p6c671c4377)" style="fill: #00a4ef; fill-opacity: 0.5"/>
   </g>
   <g id="patch_15">
    <path d="M 153.287209 263.518594 
L 155.867568 263.518594 
L 155.867568 140.783953 
L 153.287209 140.783953 
z
" clip-path="url(#p6c671c4377)" style="fill: #00a4ef; fill-opacity: 0.5"/>
   </g>
   <g id="patch_16">
    <path d="M 156.154275 263.518594 
L 158.734634 263.518594 
L 158.734634 157.841988 
L 156.154275 157.841988 
z
" clip-path="url(#p6c671c4377)" style="fill: #00a4ef; fill-opacity: 0.5"/>
   </g>
   <g id="patch_17">
    <path d="M 159.021341 263.518594 
L 161.6017 263.518594 
L 161.6017 178.22842 
L 159.021341 178.22842 
z
" clip-path="url(#p6c671c4377)" style="fill: #00a4ef; fill-opacity: 0.5"/>
   </g>
   <g id="patch_18">
    <path d="M 161.888407 263.518594 
L 164.468766 263.518594 
L 164.468766 196.950653 
L 161.888407 196.950653 
z
" clip-path="url(#p6c671c4377)" style="fill: #00a4ef; fill-opacity: 0.5"/>
   </g>
   <g id="patch_19">
    <path d="M 164.755473 263.518594 
L 167.335832 263.518594 
L 167.335832 211.09634 
L 164.755473 211.09634 
z
" clip-path="url(#p6c671c4377)" style="fill: #00a4ef; fill-opacity: 0.5"/>
   </g>
   <g id="patch_20">
    <path d="M 167.622539 263.518594 
L 170.202898 263.518594 
L 170.202898 224.409929 
L 167.622539 224.409929 
z
" clip-path="url(#p6c671c4377)" style="fill: #00a4ef; fill-opacity: 0.5"/>
   </g>
   <g id="patch_21">
    <path d="M 170.489605 263.518594 
L 173.069964 263.518594 
L 173.069964 237.723517 
L 170.489605 237.723517 
z
" clip-path="url(#p6c671c4377)" style="fill: #00a4ef; fill-opacity: 0.5"/>
   </g>
   <g id="patch_22">
    <path d="M 173.356671 263.518594 
L 175.93703 263.518594 
L 175.93703 252.701303 
L 173.356671 252.701303 
z
" clip-path="url(#p6c671c4377)" style="fill: #00a4ef; fill-opacity: 0.5"/>
   </g>
   <g id="patch_23">
    <path d="M 176.223737 263.518594 
L 178.804096 263.518594 
L 178.804096 262.686494 
L 176.223737 262.686494 
z
" clip-path="url(#p6c671c4377)" style="fill: #00a4ef; fill-opacity: 0.5"/>
   </g>
   <g id="patch_24">
    <path d="M 179.090803 263.518594 
L 181.671162 263.518594 
L 181.671162 263.102544 
L 179.090803 263.102544 
z
" clip-path="url(#p6c671c4377)" style="fill: #00a4ef; fill-opacity: 0.5"/>
   </g>
   <g id="patch_25">
    <path d="M 181.957869 263.518594 
L 184.538228 263.518594 
L 184.538228 263.518594 
L 181.957869 263.518594 
z
" clip-path="url(#p6c671c4377)" style="fill: #00a4ef; fill-opacity: 0.5"/>
   </g>
   <g id="patch_26">
    <path d="M 184.824935 263.518594 
L 187.405294 263.518594 
L 187.405294 263.518594 
L 184.824935 263.518594 
z
" clip-path="url(#p6c671c4377)" style="fill: #00a4ef; fill-opacity: 0.5"/>
   </g>
   <g id="patch_27">
    <path d="M 187.692001 263.518594 
L 190.27236 263.518594 
L 190.27236 262.686494 
L 187.692001 262.686494 
z
" clip-path="url(#p6c671c4377)" style="fill: #00a4ef; fill-opacity: 0.5"/>
   </g>
   <g id="patch_28">
    <path d="M 190.559067 263.518594 
L 193.139426 263.518594 
L 193.139426 263.518594 
L 190.559067 263.518594 
z
" clip-path="url(#p6c671c4377)" style="fill: #00a4ef; fill-opacity: 0.5"/>
   </g>
   <g id="patch_29">
    <path d="M 193.426133 263.518594 
L 196.006492 263.518594 
L 196.006492 263.518594 
L 193.426133 263.518594 
z
" clip-path="url(#p6c671c4377)" style="fill: #00a4ef; fill-opacity: 0.5"/>
   </g>
   <g id="patch_30">
    <path d="M 196.293199 263.518594 
L 198.873558 263.518594 
L 198.873558 263.518594 
L 196.293199 263.518594 
z
" clip-path="url(#p6c671c4377)" style="fill: #00a4ef; fill-opacity: 0.5"/>
   </g>
   <g id="patch_31">
    <path d="M 199.160265 263.518594 
L 201.740624 263.518594 
L 201.740624 263.102544 
L 199.160265 263.102544 
z
" clip-path="url(#p6c671c4377)" style="fill: #00a4ef; fill-opacity: 0.5"/>
   </g>
   <g id="patch_32">
    <path d="M 202.027331 263.518594 
L 204.60769 263.518594 
L 204.60769 263.518594 
L 202.027331 263.518594 
z
" clip-path="url(#p6c671c4377)" style="fill: #00a4ef; fill-opacity: 0.5"/>
   </g>
   <g id="patch_33">
    <path d="M 204.894397 263.518594 
L 207.474756 263.518594 
L 207.474756 263.102544 
L 204.894397 263.102544 
z
" clip-path="url(#p6c671c4377)" style="fill: #00a4ef; fill-opacity: 0.5"/>
   </g>
   <g id="patch_34">
    <path d="M 207.761463 263.518594 
L 210.341822 263.518594 
L 210.341822 263.102544 
L 207.761463 263.102544 
z
" clip-path="url(#p6c671c4377)" style="fill: #00a4ef; fill-opacity: 0.5"/>
   </g>
   <g id="patch_35">
    <path d="M 210.628529 263.518594 
L 213.208888 263.518594 
L 213.208888 263.518594 
L 210.628529 263.518594 
z
" clip-path="url(#p6c671c4377)" style="fill: #00a4ef; fill-opacity: 0.5"/>
   </g>
   <g id="patch_36">
    <path d="M 213.495595 263.518594 
L 216.075954 263.518594 
L 216.075954 263.102544 
L 213.495595 263.102544 
z
" clip-path="url(#p6c671c4377)" style="fill: #00a4ef; fill-opacity: 0.5"/>
   </g>
   <g id="patch_37">
    <path d="M 216.362661 263.518594 
L 218.94302 263.518594 
L 218.94302 263.518594 
L 216.362661 263.518594 
z
" clip-path="url(#p6c671c4377)" style="fill: #00a4ef; fill-opacity: 0.5"/>
   </g>
   <g id="patch_38">
    <path d="M 219.229727 263.518594 
L 221.810086 263.518594 
L 221.810086 263.102544 
L 219.229727 263.102544 
z
" clip-path="url(#p6c671c4377)" style="fill: #00a4ef; fill-opacity: 0.5"/>
   </g>
   <g id="patch_39">
    <path d="M 222.096793 263.518594 
L 224.677152 263.518594 
L 224.677152 263.518594 
L 222.096793 263.518594 
z
" clip-path="url(#p6c671c4377)" style="fill: #00a4ef; fill-opacity: 0.5"/>
   </g>
   <g id="patch_40">
    <path d="M 224.963859 263.518594 
L 227.544218 263.518594 
L 227.544218 263.518594 
L 224.963859 263.518594 
z
" clip-path="url(#p6c671c4377)" style="fill: #00a4ef; fill-opacity: 0.5"/>
   </g>
   <g id="patch_41">
    <path d="M 227.830925 263.518594 
L 230.411284 263.518594 
L 230.411284 262.686494 
L 227.830925 262.686494 
z
" clip-path="url(#p6c671c4377)" style="fill: #00a4ef; fill-opacity: 0.5"/>
   </g>
   <g id="patch_42">
    <path d="M 230.697991 263.518594 
L 233.27835 263.518594 
L 233.27835 263.518594 
L 230.697991 263.518594 
z
" clip-path="url(#p6c671c4377)" style="fill: #00a4ef; fill-opacity: 0.5"/>
   </g>
   <g id="patch_43">
    <path d="M 233.565057 263.518594 
L 236.145416 263.518594 
L 236.145416 263.518594 
L 233.565057 263.518594 
z
" clip-path="url(#p6c671c4377)" style="fill: #00a4ef; fill-opacity: 0.5"/>
   </g>
   <g id="patch_44">
    <path d="M 236.432123 263.518594 
L 239.012483 263.518594 
L 239.012483 263.518594 
L 236.432123 263.518594 
z
" clip-path="url(#p6c671c4377)" style="fill: #00a4ef; fill-opacity: 0.5"/>
   </g>
   <g id="patch_45">
    <path d="M 239.299189 263.518594 
L 241.879549 263.518594 
L 241.879549 263.518594 
L 239.299189 263.518594 
z
" clip-path="url(#p6c671c4377)" style="fill: #00a4ef; fill-opacity: 0.5"/>
   </g>
   <g id="patch_46">
    <path d="M 242.166255 263.518594 
L 244.746615 263.518594 
L 244.746615 263.102544 
L 242.166255 263.102544 
z
" clip-path="url(#p6c671c4377)" style="fill: #00a4ef; fill-opacity: 0.5"/>
   </g>
   <g id="patch_47">
    <path d="M 245.033321 263.518594 
L 247.613681 263.518594 
L 247.613681 263.518594 
L 245.033321 263.518594 
z
" clip-path="url(#p6c671c4377)" style="fill: #00a4ef; fill-opacity: 0.5"/>
   </g>
   <g id="patch_48">
    <path d="M 247.900387 263.518594 
L 250.480747 263.518594 
L 250.480747 263.518594 
L 247.900387 263.518594 
z
" clip-path="url(#p6c671c4377)" style="fill: #00a4ef; fill-opacity: 0.5"/>
   </g>
   <g id="patch_49">
    <path d="M 250.767453 263.518594 
L 253.347813 263.518594 
L 253.347813 263.518594 
L 250.767453 263.518594 
z
" clip-path="url(#p6c671c4377)" style="fill: #00a4ef; fill-opacity: 0.5"/>
   </g>
   <g id="patch_50">
    <path d="M 253.634519 263.518594 
L 256.214879 263.518594 
L 256.214879 263.102544 
L 253.634519 263.102544 
z
" clip-path="url(#p6c671c4377)" style="fill: #00a4ef; fill-opacity: 0.5"/>
   </g>
   <g id="patch_51">
    <path d="M 256.501585 263.518594 
L 259.081945 263.518594 
L 259.081945 263.518594 
L 256.501585 263.518594 
z
" clip-path="url(#p6c671c4377)" style="fill: #00a4ef; fill-opacity: 0.5"/>
   </g>
   <g id="patch_52">
    <path d="M 259.368651 263.518594 
L 261.949011 263.518594 
L 261.949011 263.102544 
L 259.368651 263.102544 
z
" clip-path="url(#p6c671c4377)" style="fill: #00a4ef; fill-opacity: 0.5"/>
   </g>
   <g id="patch_53">
    <path d="M 262.235717 263.518594 
L 264.816077 263.518594 
L 264.816077 263.102544 
L 262.235717 263.102544 
z
" clip-path="url(#p6c671c4377)" style="fill: #00a4ef; fill-opacity: 0.5"/>
   </g>
   <g id="patch_54">
    <path d="M 265.102783 263.518594 
L 267.683143 263.518594 
L 267.683143 263.102544 
L 265.102783 263.102544 
z
" clip-path="url(#p6c671c4377)" style="fill: #00a4ef; fill-opacity: 0.5"/>
   </g>
   <g id="patch_55">
    <path d="M 267.969849 263.518594 
L 270.550209 263.518594 
L 270.550209 263.518594 
L 267.969849 263.518594 
z
" clip-path="url(#p6c671c4377)" style="fill: #00a4ef; fill-opacity: 0.5"/>
   </g>
   <g id="patch_56">
    <path d="M 270.836915 263.518594 
L 273.417275 263.518594 
L 273.417275 263.102544 
L 270.836915 263.102544 
z
" clip-path="url(#p6c671c4377)" style="fill: #00a4ef; fill-opacity: 0.5"/>
   </g>
   <g id="patch_57">
    <path d="M 273.703981 263.518594 
L 276.284341 263.518594 
L 276.284341 263.518594 
L 273.703981 263.518594 
z
" clip-path="url(#p6c671c4377)" style="fill: #00a4ef; fill-opacity: 0.5"/>
   </g>
   <g id="patch_58">
    <path d="M 276.571047 263.518594 
L 279.151407 263.518594 
L 279.151407 263.102544 
L 276.571047 263.102544 
z
" clip-path="url(#p6c671c4377)" style="fill: #00a4ef; fill-opacity: 0.5"/>
   </g>
   <g id="patch_59">
    <path d="M 279.438113 263.518594 
L 282.018473 263.518594 
L 282.018473 262.686494 
L 279.438113 262.686494 
z
" clip-path="url(#p6c671c4377)" style="fill: #00a4ef; fill-opacity: 0.5"/>
   </g>
   <g id="patch_60">
    <path d="M 282.305179 263.518594 
L 284.885539 263.518594 
L 284.885539 263.518594 
L 282.305179 263.518594 
z
" clip-path="url(#p6c671c4377)" style="fill: #00a4ef; fill-opacity: 0.5"/>
   </g>
   <g id="patch_61">
    <path d="M 285.172245 263.518594 
L 287.752605 263.518594 
L 287.752605 263.102544 
L 285.172245 263.102544 
z
" clip-path="url(#p6c671c4377)" style="fill: #00a4ef; fill-opacity: 0.5"/>
   </g>
   <g id="patch_62">
    <path d="M 288.039311 263.518594 
L 290.619671 263.518594 
L 290.619671 263.518594 
L 288.039311 263.518594 
z
" clip-path="url(#p6c671c4377)" style="fill: #00a4ef; fill-opacity: 0.5"/>
   </g>
   <g id="patch_63">
    <path d="M 290.906377 263.518594 
L 293.486737 263.518594 
L 293.486737 263.102544 
L 290.906377 263.102544 
z
" clip-path="url(#p6c671c4377)" style="fill: #00a4ef; fill-opacity: 0.5"/>
   </g>
   <g id="patch_64">
    <path d="M 293.773443 263.518594 
L 296.353803 263.518594 
L 296.353803 263.102544 
L 293.773443 263.102544 
z
" clip-path="url(#p6c671c4377)" style="fill: #00a4ef; fill-opacity: 0.5"/>
   </g>
   <g id="patch_65">
    <path d="M 296.640509 263.518594 
L 299.220869 263.518594 
L 299.220869 263.518594 
L 296.640509 263.518594 
z
" clip-path="url(#p6c671c4377)" style="fill: #00a4ef; fill-opacity: 0.5"/>
   </g>
   <g id="patch_66">
    <path d="M 299.507575 263.518594 
L 302.087935 263.518594 
L 302.087935 263.518594 
L 299.507575 263.518594 
z
" clip-path="url(#p6c671c4377)" style="fill: #00a4ef; fill-opacity: 0.5"/>
   </g>
   <g id="patch_67">
    <path d="M 302.374641 263.518594 
L 304.955001 263.518594 
L 304.955001 263.518594 
L 302.374641 263.518594 
z
" clip-path="url(#p6c671c4377)" style="fill: #00a4ef; fill-opacity: 0.5"/>
   </g>
   <g id="patch_68">
    <path d="M 305.241707 263.518594 
L 307.822067 263.518594 
L 307.822067 263.102544 
L 305.241707 263.102544 
z
" clip-path="url(#p6c671c4377)" style="fill: #00a4ef; fill-opacity: 0.5"/>
   </g>
   <g id="patch_69">
    <path d="M 308.108773 263.518594 
L 310.689133 263.518594 
L 310.689133 263.518594 
L 308.108773 263.518594 
z
" clip-path="url(#p6c671c4377)" style="fill: #00a4ef; fill-opacity: 0.5"/>
   </g>
   <g id="patch_70">
    <path d="M 310.975839 263.518594 
L 313.556199 263.518594 
L 313.556199 263.102544 
L 310.975839 263.102544 
z
" clip-path="url(#p6c671c4377)" style="fill: #00a4ef; fill-opacity: 0.5"/>
   </g>
   <g id="patch_71">
    <path d="M 313.842905 263.518594 
L 316.423265 263.518594 
L 316.423265 263.518594 
L 313.842905 263.518594 
z
" clip-path="url(#p6c671c4377)" style="fill: #00a4ef; fill-opacity: 0.5"/>
   </g>
   <g id="patch_72">
    <path d="M 316.709971 263.518594 
L 319.290331 263.518594 
L 319.290331 263.518594 
L 316.709971 263.518594 
z
" clip-path="url(#p6c671c4377)" style="fill: #00a4ef; fill-opacity: 0.5"/>
   </g>
   <g id="patch_73">
    <path d="M 319.577037 263.518594 
L 322.157397 263.518594 
L 322.157397 263.102544 
L 319.577037 263.102544 
z
" clip-path="url(#p6c671c4377)" style="fill: #00a4ef; fill-opacity: 0.5"/>
   </g>
   <g id="patch_74">
    <path d="M 322.444103 263.518594 
L 325.024463 263.518594 
L 325.024463 263.518594 
L 322.444103 263.518594 
z
" clip-path="url(#p6c671c4377)" style="fill: #00a4ef; fill-opacity: 0.5"/>
   </g>
   <g id="patch_75">
    <path d="M 325.311169 263.518594 
L 327.891529 263.518594 
L 327.891529 263.102544 
L 325.311169 263.102544 
z
" clip-path="url(#p6c671c4377)" style="fill: #00a4ef; fill-opacity: 0.5"/>
   </g>
   <g id="patch_76">
    <path d="M 328.178235 263.518594 
L 330.758595 263.518594 
L 330.758595 263.518594 
L 328.178235 263.518594 
z
" clip-path="url(#p6c671c4377)" style="fill: #00a4ef; fill-opacity: 0.5"/>
   </g>
   <g id="patch_77">
    <path d="M 331.045301 263.518594 
L 333.625661 263.518594 
L 333.625661 263.102544 
L 331.045301 263.102544 
z
" clip-path="url(#p6c671c4377)" style="fill: #00a4ef; fill-opacity: 0.5"/>
   </g>
   <g id="patch_78">
    <path d="M 333.912367 263.518594 
L 336.492727 263.518594 
L 336.492727 263.518594 
L 333.912367 263.518594 
z
" clip-path="url(#p6c671c4377)" style="fill: #00a4ef; fill-opacity: 0.5"/>
   </g>
   <g id="patch_79">
    <path d="M 336.779433 263.518594 
L 339.359793 263.518594 
L 339.359793 263.518594 
L 336.779433 263.518594 
z
" clip-path="url(#p6c671c4377)" style="fill: #00a4ef; fill-opacity: 0.5"/>
   </g>
   <g id="patch_80">
    <path d="M 339.646499 263.518594 
L 342.226859 263.518594 
L 342.226859 263.518594 
L 339.646499 263.518594 
z
" clip-path="url(#p6c671c4377)" style="fill: #00a4ef; fill-opacity: 0.5"/>
   </g>
   <g id="patch_81">
    <path d="M 342.513565 263.518594 
L 345.093925 263.518594 
L 345.093925 263.102544 
L 342.513565 263.102544 
z
" clip-path="url(#p6c671c4377)" style="fill: #00a4ef; fill-opacity: 0.5"/>
   </g>
   <g id="patch_82">
    <path d="M 345.380631 263.518594 
L 347.960991 263.518594 
L 347.960991 263.518594 
L 345.380631 263.518594 
z
" clip-path="url(#p6c671c4377)" style="fill: #00a4ef; fill-opacity: 0.5"/>
   </g>
   <g id="patch_83">
    <path d="M 348.247697 263.518594 
L 350.828057 263.518594 
L 350.828057 263.518594 
L 348.247697 263.518594 
z
" clip-path="url(#p6c671c4377)" style="fill: #00a4ef; fill-opacity: 0.5"/>
   </g>
   <g id="patch_84">
    <path d="M 351.114763 263.518594 
L 353.695123 263.518594 
L 353.695123 263.518594 
L 351.114763 263.518594 
z
" clip-path="url(#p6c671c4377)" style="fill: #00a4ef; fill-opacity: 0.5"/>
   </g>
   <g id="patch_85">
    <path d="M 353.981829 263.518594 
L 356.562189 263.518594 
L 356.562189 263.518594 
L 353.981829 263.518594 
z
" clip-path="url(#p6c671c4377)" style="fill: #00a4ef; fill-opacity: 0.5"/>
   </g>
   <g id="patch_86">
    <path d="M 356.848895 263.518594 
L 359.429255 263.518594 
L 359.429255 263.518594 
L 356.848895 263.518594 
z
" clip-path="url(#p6c671c4377)" style="fill: #00a4ef; fill-opacity: 0.5"/>
   </g>
   <g id="patch_87">
    <path d="M 359.715961 263.518594 
L 362.296321 263.518594 
L 362.296321 263.518594 
L 359.715961 263.518594 
z
" clip-path="url(#p6c671c4377)" style="fill: #00a4ef; fill-opacity: 0.5"/>
   </g>
   <g id="patch_88">
    <path d="M 362.583027 263.518594 
L 365.163387 263.518594 
L 365.163387 263.518594 
L 362.583027 263.518594 
z
" clip-path="url(#p6c671c4377)" style="fill: #00a4ef; fill-opacity: 0.5"/>
   </g>
   <g id="patch_89">
    <path d="M 365.450093 263.518594 
L 368.030453 263.518594 
L 368.030453 263.518594 
L 365.450093 263.518594 
z
" clip-path="url(#p6c671c4377)" style="fill: #00a4ef; fill-opacity: 0.5"/>
   </g>
   <g id="patch_90">
    <path d="M 368.317159 263.518594 
L 370.897519 263.518594 
L 370.897519 263.518594 
L 368.317159 263.518594 
z
" clip-path="url(#p6c671c4377)" style="fill: #00a4ef; fill-opacity: 0.5"/>
   </g>
   <g id="patch_91">
    <path d="M 371.184225 263.518594 
L 373.764585 263.518594 
L 373.764585 263.518594 
L 371.184225 263.518594 
z
" clip-path="url(#p6c671c4377)" style="fill: #00a4ef; fill-opacity: 0.5"/>
   </g>
   <g id="patch_92">
    <path d="M 374.051291 263.518594 
L 376.631651 263.518594 
L 376.631651 263.518594 
L 374.051291 263.518594 
z
" clip-path="url(#p6c671c4377)" style="fill: #00a4ef; fill-opacity: 0.5"/>
   </g>
   <g id="patch_93">
    <path d="M 376.918357 263.518594 
L 379.498717 263.518594 
L 379.498717 263.518594 
L 376.918357 263.518594 
z
" clip-path="url(#p6c671c4377)" style="fill: #00a4ef; fill-opacity: 0.5"/>
   </g>
   <g id="patch_94">
    <path d="M 379.785423 263.518594 
L 382.365783 263.518594 
L 382.365783 263.518594 
L 379.785423 263.518594 
z
" clip-path="url(#p6c671c4377)" style="fill: #00a4ef; fill-opacity: 0.5"/>
   </g>
   <g id="patch_95">
    <path d="M 382.652489 263.518594 
L 385.232849 263.518594 
L 385.232849 263.518594 
L 382.652489 263.518594 
z
" clip-path="url(#p6c671c4377)" style="fill: #00a4ef; fill-opacity: 0.5"/>
   </g>
   <g id="patch_96">
    <path d="M 385.519555 263.518594 
L 388.099915 263.518594 
L 388.099915 263.518594 
L 385.519555 263.518594 
z
" clip-path="url(#p6c671c4377)" style="fill: #00a4ef; fill-opacity: 0.5"/>
   </g>
   <g id="patch_97">
    <path d="M 388.386621 263.518594 
L 390.966981 263.518594 
L 390.966981 263.102544 
L 388.386621 263.102544 
z
" clip-path="url(#p6c671c4377)" style="fill: #00a4ef; fill-opacity: 0.5"/>
   </g>
   <g id="patch_98">
    <path d="M 391.253687 263.518594 
L 393.834047 263.518594 
L 393.834047 263.518594 
L 391.253687 263.518594 
z
" clip-path="url(#p6c671c4377)" style="fill: #00a4ef; fill-opacity: 0.5"/>
   </g>
   <g id="patch_99">
    <path d="M 394.120753 263.518594 
L 396.701113 263.518594 
L 396.701113 263.518594 
L 394.120753 263.518594 
z
" clip-path="url(#p6c671c4377)" style="fill: #00a4ef; fill-opacity: 0.5"/>
   </g>
   <g id="patch_100">
    <path d="M 396.987819 263.518594 
L 399.568179 263.518594 
L 399.568179 262.686494 
L 396.987819 262.686494 
z
" clip-path="url(#p6c671c4377)" style="fill: #00a4ef; fill-opacity: 0.5"/>
   </g>
   <g id="patch_101">
    <path d="M 399.854885 263.518594 
L 402.435245 263.518594 
L 402.435245 263.518594 
L 399.854885 263.518594 
z
" clip-path="url(#p6c671c4377)" style="fill: #00a4ef; fill-opacity: 0.5"/>
   </g>
   <g id="patch_102">
    <path d="M 402.721951 263.518594 
L 405.302311 263.518594 
L 405.302311 263.102544 
L 402.721951 263.102544 
z
" clip-path="url(#p6c671c4377)" style="fill: #00a4ef; fill-opacity: 0.5"/>
   </g>
   <g id="patch_103">
    <path d="M 152.45731 263.518594 
L 154.777895 263.518594 
L 154.777895 263.102378 
L 152.45731 263.102378 
z
" clip-path="url(#p6c671c4377)" style="fill: #f25022; fill-opacity: 0.5"/>
   </g>
   <g id="patch_104">
    <path d="M 155.035738 263.518594 
L 157.356323 263.518594 
L 157.356323 263.518594 
L 155.035738 263.518594 
z
" clip-path="url(#p6c671c4377)" style="fill: #f25022; fill-opacity: 0.5"/>
   </g>
   <g id="patch_105">
    <path d="M 157.614165 263.518594 
L 159.93475 263.518594 
L 159.93475 263.518594 
L 157.614165 263.518594 
z
" clip-path="url(#p6c671c4377)" style="fill: #f25022; fill-opacity: 0.5"/>
   </g>
   <g id="patch_106">
    <path d="M 160.192593 263.518594 
L 162.513178 263.518594 
L 162.513178 263.518594 
L 160.192593 263.518594 
z
" clip-path="url(#p6c671c4377)" style="fill: #f25022; fill-opacity: 0.5"/>
   </g>
   <g id="patch_107">
    <path d="M 162.771021 263.518594 
L 165.091606 263.518594 
L 165.091606 263.518594 
L 162.771021 263.518594 
z
" clip-path="url(#p6c671c4377)" style="fill: #f25022; fill-opacity: 0.5"/>
   </g>
   <g id="patch_108">
    <path d="M 165.349449 263.518594 
L 167.670033 263.518594 
L 167.670033 263.102378 
L 165.349449 263.102378 
z
" clip-path="url(#p6c671c4377)" style="fill: #f25022; fill-opacity: 0.5"/>
   </g>
   <g id="patch_109">
    <path d="M 167.927876 263.518594 
L 170.248461 263.518594 
L 170.248461 263.518594 
L 167.927876 263.518594 
z
" clip-path="url(#p6c671c4377)" style="fill: #f25022; fill-opacity: 0.5"/>
   </g>
   <g id="patch_110">
    <path d="M 170.506304 263.518594 
L 172.826889 263.518594 
L 172.826889 263.518594 
L 170.506304 263.518594 
z
" clip-path="url(#p6c671c4377)" style="fill: #f25022; fill-opacity: 0.5"/>
   </g>
   <g id="patch_111">
    <path d="M 173.084732 263.518594 
L 175.405317 263.518594 
L 175.405317 263.518594 
L 173.084732 263.518594 
z
" clip-path="url(#p6c671c4377)" style="fill: #f25022; fill-opacity: 0.5"/>
   </g>
   <g id="patch_112">
    <path d="M 175.663159 263.518594 
L 177.983744 263.518594 
L 177.983744 263.518594 
L 175.663159 263.518594 
z
" clip-path="url(#p6c671c4377)" style="fill: #f25022; fill-opacity: 0.5"/>
   </g>
   <g id="patch_113">
    <path d="M 178.241587 263.518594 
L 180.562172 263.518594 
L 180.562172 263.518594 
L 178.241587 263.518594 
z
" clip-path="url(#p6c671c4377)" style="fill: #f25022; fill-opacity: 0.5"/>
   </g>
   <g id="patch_114">
    <path d="M 180.820015 263.518594 
L 183.1406 263.518594 
L 183.1406 263.518594 
L 180.820015 263.518594 
z
" clip-path="url(#p6c671c4377)" style="fill: #f25022; fill-opacity: 0.5"/>
   </g>
   <g id="patch_115">
    <path d="M 183.398442 263.518594 
L 185.719027 263.518594 
L 185.719027 263.518594 
L 183.398442 263.518594 
z
" clip-path="url(#p6c671c4377)" style="fill: #f25022; fill-opacity: 0.5"/>
   </g>
   <g id="patch_116">
    <path d="M 185.97687 263.518594 
L 188.297455 263.518594 
L 188.297455 263.518594 
L 185.97687 263.518594 
z
" clip-path="url(#p6c671c4377)" style="fill: #f25022; fill-opacity: 0.5"/>
   </g>
   <g id="patch_117">
    <path d="M 188.555298 263.518594 
L 190.875883 263.518594 
L 190.875883 263.518594 
L 188.555298 263.518594 
z
" clip-path="url(#p6c671c4377)" style="fill: #f25022; fill-opacity: 0.5"/>
   </g>
   <g id="patch_118">
    <path d="M 191.133726 263.518594 
L 193.45431 263.518594 
L 193.45431 263.518594 
L 191.133726 263.518594 
z
" clip-path="url(#p6c671c4377)" style="fill: #f25022; fill-opacity: 0.5"/>
   </g>
   <g id="patch_119">
    <path d="M 193.712153 263.518594 
L 196.032738 263.518594 
L 196.032738 263.518594 
L 193.712153 263.518594 
z
" clip-path="url(#p6c671c4377)" style="fill: #f25022; fill-opacity: 0.5"/>
   </g>
   <g id="patch_120">
    <path d="M 196.290581 263.518594 
L 198.611166 263.518594 
L 198.611166 263.518594 
L 196.290581 263.518594 
z
" clip-path="url(#p6c671c4377)" style="fill: #f25022; fill-opacity: 0.5"/>
   </g>
   <g id="patch_121">
    <path d="M 198.869009 263.518594 
L 201.189594 263.518594 
L 201.189594 263.518594 
L 198.869009 263.518594 
z
" clip-path="url(#p6c671c4377)" style="fill: #f25022; fill-opacity: 0.5"/>
   </g>
   <g id="patch_122">
    <path d="M 201.447436 263.518594 
L 203.768021 263.518594 
L 203.768021 263.518594 
L 201.447436 263.518594 
z
" clip-path="url(#p6c671c4377)" style="fill: #f25022; fill-opacity: 0.5"/>
   </g>
   <g id="patch_123">
    <path d="M 204.025864 263.518594 
L 206.346449 263.518594 
L 206.346449 263.518594 
L 204.025864 263.518594 
z
" clip-path="url(#p6c671c4377)" style="fill: #f25022; fill-opacity: 0.5"/>
   </g>
   <g id="patch_124">
    <path d="M 206.604292 263.518594 
L 208.924877 263.518594 
L 208.924877 263.518594 
L 206.604292 263.518594 
z
" clip-path="url(#p6c671c4377)" style="fill: #f25022; fill-opacity: 0.5"/>
   </g>
   <g id="patch_125">
    <path d="M 209.182719 263.518594 
L 211.503304 263.518594 
L 211.503304 263.518594 
L 209.182719 263.518594 
z
" clip-path="url(#p6c671c4377)" style="fill: #f25022; fill-opacity: 0.5"/>
   </g>
   <g id="patch_126">
    <path d="M 211.761147 263.518594 
L 214.081732 263.518594 
L 214.081732 263.518594 
L 211.761147 263.518594 
z
" clip-path="url(#p6c671c4377)" style="fill: #f25022; fill-opacity: 0.5"/>
   </g>
   <g id="patch_127">
    <path d="M 214.339575 263.518594 
L 216.66016 263.518594 
L 216.66016 263.102378 
L 214.339575 263.102378 
z
" clip-path="url(#p6c671c4377)" style="fill: #f25022; fill-opacity: 0.5"/>
   </g>
   <g id="patch_128">
    <path d="M 216.918002 263.518594 
L 219.238587 263.518594 
L 219.238587 259.772648 
L 216.918002 259.772648 
z
" clip-path="url(#p6c671c4377)" style="fill: #f25022; fill-opacity: 0.5"/>
   </g>
   <g id="patch_129">
    <path d="M 219.49643 263.518594 
L 221.817015 263.518594 
L 221.817015 240.210486 
L 219.49643 240.210486 
z
" clip-path="url(#p6c671c4377)" style="fill: #f25022; fill-opacity: 0.5"/>
   </g>
   <g id="patch_130">
    <path d="M 222.074858 263.518594 
L 224.395443 263.518594 
L 224.395443 213.156432 
L 222.074858 213.156432 
z
" clip-path="url(#p6c671c4377)" style="fill: #f25022; fill-opacity: 0.5"/>
   </g>
   <g id="patch_131">
    <path d="M 224.653286 263.518594 
L 226.97387 263.518594 
L 226.97387 191.929405 
L 224.653286 191.929405 
z
" clip-path="url(#p6c671c4377)" style="fill: #f25022; fill-opacity: 0.5"/>
   </g>
   <g id="patch_132">
    <path d="M 227.231713 263.518594 
L 229.552298 263.518594 
L 229.552298 191.929405 
L 227.231713 191.929405 
z
" clip-path="url(#p6c671c4377)" style="fill: #f25022; fill-opacity: 0.5"/>
   </g>
   <g id="patch_133">
    <path d="M 229.810141 263.518594 
L 232.130726 263.518594 
L 232.130726 187.767242 
L 229.810141 187.767242 
z
" clip-path="url(#p6c671c4377)" style="fill: #f25022; fill-opacity: 0.5"/>
   </g>
   <g id="patch_134">
    <path d="M 232.388569 263.518594 
L 234.709154 263.518594 
L 234.709154 194.426702 
L 232.388569 194.426702 
z
" clip-path="url(#p6c671c4377)" style="fill: #f25022; fill-opacity: 0.5"/>
   </g>
   <g id="patch_135">
    <path d="M 234.966996 263.518594 
L 237.287581 263.518594 
L 237.287581 187.767242 
L 234.966996 187.767242 
z
" clip-path="url(#p6c671c4377)" style="fill: #f25022; fill-opacity: 0.5"/>
   </g>
   <g id="patch_136">
    <path d="M 237.545424 263.518594 
L 239.866009 263.518594 
L 239.866009 190.26454 
L 237.545424 190.26454 
z
" clip-path="url(#p6c671c4377)" style="fill: #f25022; fill-opacity: 0.5"/>
   </g>
   <g id="patch_137">
    <path d="M 240.123852 263.518594 
L 242.444437 263.518594 
L 242.444437 183.60508 
L 240.123852 183.60508 
z
" clip-path="url(#p6c671c4377)" style="fill: #f25022; fill-opacity: 0.5"/>
   </g>
   <g id="patch_138">
    <path d="M 242.702279 263.518594 
L 245.022864 263.518594 
L 245.022864 191.513188 
L 242.702279 191.513188 
z
" clip-path="url(#p6c671c4377)" style="fill: #f25022; fill-opacity: 0.5"/>
   </g>
   <g id="patch_139">
    <path d="M 245.280707 263.518594 
L 247.601292 263.518594 
L 247.601292 182.356432 
L 245.280707 182.356432 
z
" clip-path="url(#p6c671c4377)" style="fill: #f25022; fill-opacity: 0.5"/>
   </g>
   <g id="patch_140">
    <path d="M 247.859135 263.518594 
L 250.17972 263.518594 
L 250.17972 192.761837 
L 247.859135 192.761837 
z
" clip-path="url(#p6c671c4377)" style="fill: #f25022; fill-opacity: 0.5"/>
   </g>
   <g id="patch_141">
    <path d="M 250.437563 263.518594 
L 252.758147 263.518594 
L 252.758147 192.345621 
L 250.437563 192.345621 
z
" clip-path="url(#p6c671c4377)" style="fill: #f25022; fill-opacity: 0.5"/>
   </g>
   <g id="patch_142">
    <path d="M 253.01599 263.518594 
L 255.336575 263.518594 
L 255.336575 185.686161 
L 253.01599 185.686161 
z
" clip-path="url(#p6c671c4377)" style="fill: #f25022; fill-opacity: 0.5"/>
   </g>
   <g id="patch_143">
    <path d="M 255.594418 263.518594 
L 257.915003 263.518594 
L 257.915003 184.021296 
L 255.594418 184.021296 
z
" clip-path="url(#p6c671c4377)" style="fill: #f25022; fill-opacity: 0.5"/>
   </g>
   <g id="patch_144">
    <path d="M 258.172846 263.518594 
L 260.493431 263.518594 
L 260.493431 185.686161 
L 258.172846 185.686161 
z
" clip-path="url(#p6c671c4377)" style="fill: #f25022; fill-opacity: 0.5"/>
   </g>
   <g id="patch_145">
    <path d="M 260.751273 263.518594 
L 263.071858 263.518594 
L 263.071858 181.523999 
L 260.751273 181.523999 
z
" clip-path="url(#p6c671c4377)" style="fill: #f25022; fill-opacity: 0.5"/>
   </g>
   <g id="patch_146">
    <path d="M 263.329701 263.518594 
L 265.650286 263.518594 
L 265.650286 179.442918 
L 263.329701 179.442918 
z
" clip-path="url(#p6c671c4377)" style="fill: #f25022; fill-opacity: 0.5"/>
   </g>
   <g id="patch_147">
    <path d="M 265.908129 263.518594 
L 268.228714 263.518594 
L 268.228714 186.518594 
L 265.908129 186.518594 
z
" clip-path="url(#p6c671c4377)" style="fill: #f25022; fill-opacity: 0.5"/>
   </g>
   <g id="patch_148">
    <path d="M 268.486556 263.518594 
L 270.807141 263.518594 
L 270.807141 186.518594 
L 268.486556 186.518594 
z
" clip-path="url(#p6c671c4377)" style="fill: #f25022; fill-opacity: 0.5"/>
   </g>
   <g id="patch_149">
    <path d="M 271.064984 263.518594 
L 273.385569 263.518594 
L 273.385569 178.194269 
L 271.064984 178.194269 
z
" clip-path="url(#p6c671c4377)" style="fill: #f25022; fill-opacity: 0.5"/>
   </g>
   <g id="patch_150">
    <path d="M 273.643412 263.518594 
L 275.963997 263.518594 
L 275.963997 183.60508 
L 273.643412 183.60508 
z
" clip-path="url(#p6c671c4377)" style="fill: #f25022; fill-opacity: 0.5"/>
   </g>
   <g id="patch_151">
    <path d="M 276.221839 263.518594 
L 278.542424 263.518594 
L 278.542424 190.26454 
L 276.221839 190.26454 
z
" clip-path="url(#p6c671c4377)" style="fill: #f25022; fill-opacity: 0.5"/>
   </g>
   <g id="patch_152">
    <path d="M 278.800267 263.518594 
L 281.120852 263.518594 
L 281.120852 168.621296 
L 278.800267 168.621296 
z
" clip-path="url(#p6c671c4377)" style="fill: #f25022; fill-opacity: 0.5"/>
   </g>
   <g id="patch_153">
    <path d="M 281.378695 263.518594 
L 283.69928 263.518594 
L 283.69928 181.107783 
L 281.378695 181.107783 
z
" clip-path="url(#p6c671c4377)" style="fill: #f25022; fill-opacity: 0.5"/>
   </g>
   <g id="patch_154">
    <path d="M 283.957123 263.518594 
L 286.277707 263.518594 
L 286.277707 189.432107 
L 283.957123 189.432107 
z
" clip-path="url(#p6c671c4377)" style="fill: #f25022; fill-opacity: 0.5"/>
   </g>
   <g id="patch_155">
    <path d="M 286.53555 263.518594 
L 288.856135 263.518594 
L 288.856135 213.156432 
L 286.53555 213.156432 
z
" clip-path="url(#p6c671c4377)" style="fill: #f25022; fill-opacity: 0.5"/>
   </g>
   <g id="patch_156">
    <path d="M 289.113978 263.518594 
L 291.434563 263.518594 
L 291.434563 233.967242 
L 289.113978 233.967242 
z
" clip-path="url(#p6c671c4377)" style="fill: #f25022; fill-opacity: 0.5"/>
   </g>
   <g id="patch_157">
    <path d="M 291.692406 263.518594 
L 294.012991 263.518594 
L 294.012991 252.696972 
L 291.692406 252.696972 
z
" clip-path="url(#p6c671c4377)" style="fill: #f25022; fill-opacity: 0.5"/>
   </g>
   <g id="patch_158">
    <path d="M 294.270833 263.518594 
L 296.591418 263.518594 
L 296.591418 261.437513 
L 294.270833 261.437513 
z
" clip-path="url(#p6c671c4377)" style="fill: #f25022; fill-opacity: 0.5"/>
   </g>
   <g id="patch_159">
    <path d="M 296.849261 263.518594 
L 299.169846 263.518594 
L 299.169846 257.275351 
L 296.849261 257.275351 
z
" clip-path="url(#p6c671c4377)" style="fill: #f25022; fill-opacity: 0.5"/>
   </g>
   <g id="patch_160">
    <path d="M 299.427689 263.518594 
L 301.748274 263.518594 
L 301.748274 256.859134 
L 299.427689 256.859134 
z
" clip-path="url(#p6c671c4377)" style="fill: #f25022; fill-opacity: 0.5"/>
   </g>
   <g id="patch_161">
    <path d="M 302.006116 263.518594 
L 304.326701 263.518594 
L 304.326701 259.356432 
L 302.006116 259.356432 
z
" clip-path="url(#p6c671c4377)" style="fill: #f25022; fill-opacity: 0.5"/>
   </g>
   <g id="patch_162">
    <path d="M 304.584544 263.518594 
L 306.905129 263.518594 
L 306.905129 260.188864 
L 304.584544 260.188864 
z
" clip-path="url(#p6c671c4377)" style="fill: #f25022; fill-opacity: 0.5"/>
   </g>
   <g id="patch_163">
    <path d="M 307.162972 263.518594 
L 309.483557 263.518594 
L 309.483557 258.107783 
L 307.162972 258.107783 
z
" clip-path="url(#p6c671c4377)" style="fill: #f25022; fill-opacity: 0.5"/>
   </g>
   <g id="patch_164">
    <path d="M 309.7414 263.518594 
L 312.061984 263.518594 
L 312.061984 258.523999 
L 309.7414 258.523999 
z
" clip-path="url(#p6c671c4377)" style="fill: #f25022; fill-opacity: 0.5"/>
   </g>
   <g id="patch_165">
    <path d="M 312.319827 263.518594 
L 314.640412 263.518594 
L 314.640412 258.523999 
L 312.319827 258.523999 
z
" clip-path="url(#p6c671c4377)" style="fill: #f25022; fill-opacity: 0.5"/>
   </g>
   <g id="patch_166">
    <path d="M 314.898255 263.518594 
L 317.21884 263.518594 
L 317.21884 256.859134 
L 314.898255 256.859134 
z
" clip-path="url(#p6c671c4377)" style="fill: #f25022; fill-opacity: 0.5"/>
   </g>
   <g id="patch_167">
    <path d="M 317.476683 263.518594 
L 319.797268 263.518594 
L 319.797268 260.188864 
L 317.476683 260.188864 
z
" clip-path="url(#p6c671c4377)" style="fill: #f25022; fill-opacity: 0.5"/>
   </g>
   <g id="patch_168">
    <path d="M 320.05511 263.518594 
L 322.375695 263.518594 
L 322.375695 260.188864 
L 320.05511 260.188864 
z
" clip-path="url(#p6c671c4377)" style="fill: #f25022; fill-opacity: 0.5"/>
   </g>
   <g id="patch_169">
    <path d="M 322.633538 263.518594 
L 324.954123 263.518594 
L 324.954123 262.686161 
L 322.633538 262.686161 
z
" clip-path="url(#p6c671c4377)" style="fill: #f25022; fill-opacity: 0.5"/>
   </g>
   <g id="patch_170">
    <path d="M 325.211966 263.518594 
L 327.532551 263.518594 
L 327.532551 263.518594 
L 325.211966 263.518594 
z
" clip-path="url(#p6c671c4377)" style="fill: #f25022; fill-opacity: 0.5"/>
   </g>
   <g id="patch_171">
    <path d="M 327.790393 263.518594 
L 330.110978 263.518594 
L 330.110978 263.518594 
L 327.790393 263.518594 
z
" clip-path="url(#p6c671c4377)" style="fill: #f25022; fill-opacity: 0.5"/>
   </g>
   <g id="patch_172">
    <path d="M 330.368821 263.518594 
L 332.689406 263.518594 
L 332.689406 263.518594 
L 330.368821 263.518594 
z
" clip-path="url(#p6c671c4377)" style="fill: #f25022; fill-opacity: 0.5"/>
   </g>
   <g id="patch_173">
    <path d="M 332.947249 263.518594 
L 335.267834 263.518594 
L 335.267834 263.518594 
L 332.947249 263.518594 
z
" clip-path="url(#p6c671c4377)" style="fill: #f25022; fill-opacity: 0.5"/>
   </g>
   <g id="patch_174">
    <path d="M 335.525676 263.518594 
L 337.846261 263.518594 
L 337.846261 263.518594 
L 335.525676 263.518594 
z
" clip-path="url(#p6c671c4377)" style="fill: #f25022; fill-opacity: 0.5"/>
   </g>
   <g id="patch_175">
    <path d="M 338.104104 263.518594 
L 340.424689 263.518594 
L 340.424689 263.518594 
L 338.104104 263.518594 
z
" clip-path="url(#p6c671c4377)" style="fill: #f25022; fill-opacity: 0.5"/>
   </g>
   <g id="patch_176">
    <path d="M 340.682532 263.518594 
L 343.003117 263.518594 
L 343.003117 263.518594 
L 340.682532 263.518594 
z
" clip-path="url(#p6c671c4377)" style="fill: #f25022; fill-opacity: 0.5"/>
   </g>
   <g id="patch_177">
    <path d="M 343.26096 263.518594 
L 345.581545 263.518594 
L 345.581545 263.518594 
L 343.26096 263.518594 
z
" clip-path="url(#p6c671c4377)" style="fill: #f25022; fill-opacity: 0.5"/>
   </g>
   <g id="patch_178">
    <path d="M 345.839387 263.518594 
L 348.159972 263.518594 
L 348.159972 263.518594 
L 345.839387 263.518594 
z
" clip-path="url(#p6c671c4377)" style="fill: #f25022; fill-opacity: 0.5"/>
   </g>
   <g id="patch_179">
    <path d="M 348.417815 263.518594 
L 350.7384 263.518594 
L 350.7384 263.518594 
L 348.417815 263.518594 
z
" clip-path="url(#p6c671c4377)" style="fill: #f25022; fill-opacity: 0.5"/>
   </g>
   <g id="patch_180">
    <path d="M 350.996243 263.518594 
L 353.316828 263.518594 
L 353.316828 263.518594 
L 350.996243 263.518594 
z
" clip-path="url(#p6c671c4377)" style="fill: #f25022; fill-opacity: 0.5"/>
   </g>
   <g id="patch_181">
    <path d="M 353.57467 263.518594 
L 355.895255 263.518594 
L 355.895255 263.518594 
L 353.57467 263.518594 
z
" clip-path="url(#p6c671c4377)" style="fill: #f25022; fill-opacity: 0.5"/>
   </g>
   <g id="patch_182">
    <path d="M 356.153098 263.518594 
L 358.473683 263.518594 
L 358.473683 263.518594 
L 356.153098 263.518594 
z
" clip-path="url(#p6c671c4377)" style="fill: #f25022; fill-opacity: 0.5"/>
   </g>
   <g id="patch_183">
    <path d="M 358.731526 263.518594 
L 361.052111 263.518594 
L 361.052111 263.518594 
L 358.731526 263.518594 
z
" clip-path="url(#p6c671c4377)" style="fill: #f25022; fill-opacity: 0.5"/>
   </g>
   <g id="patch_184">
    <path d="M 361.309953 263.518594 
L 363.630538 263.518594 
L 363.630538 263.518594 
L 361.309953 263.518594 
z
" clip-path="url(#p6c671c4377)" style="fill: #f25022; fill-opacity: 0.5"/>
   </g>
   <g id="patch_185">
    <path d="M 363.888381 263.518594 
L 366.208966 263.518594 
L 366.208966 263.518594 
L 363.888381 263.518594 
z
" clip-path="url(#p6c671c4377)" style="fill: #f25022; fill-opacity: 0.5"/>
   </g>
   <g id="patch_186">
    <path d="M 366.466809 263.518594 
L 368.787394 263.518594 
L 368.787394 263.518594 
L 366.466809 263.518594 
z
" clip-path="url(#p6c671c4377)" style="fill: #f25022; fill-opacity: 0.5"/>
   </g>
   <g id="patch_187">
    <path d="M 369.045237 263.518594 
L 371.365821 263.518594 
L 371.365821 263.518594 
L 369.045237 263.518594 
z
" clip-path="url(#p6c671c4377)" style="fill: #f25022; fill-opacity: 0.5"/>
   </g>
   <g id="patch_188">
    <path d="M 371.623664 263.518594 
L 373.944249 263.518594 
L 373.944249 263.518594 
L 371.623664 263.518594 
z
" clip-path="url(#p6c671c4377)" style="fill: #f25022; fill-opacity: 0.5"/>
   </g>
   <g id="patch_189">
    <path d="M 374.202092 263.518594 
L 376.522677 263.518594 
L 376.522677 263.518594 
L 374.202092 263.518594 
z
" clip-path="url(#p6c671c4377)" style="fill: #f25022; fill-opacity: 0.5"/>
   </g>
   <g id="patch_190">
    <path d="M 376.78052 263.518594 
L 379.101105 263.518594 
L 379.101105 263.518594 
L 376.78052 263.518594 
z
" clip-path="url(#p6c671c4377)" style="fill: #f25022; fill-opacity: 0.5"/>
   </g>
   <g id="patch_191">
    <path d="M 379.358947 263.518594 
L 381.679532 263.518594 
L 381.679532 263.518594 
L 379.358947 263.518594 
z
" clip-path="url(#p6c671c4377)" style="fill: #f25022; fill-opacity: 0.5"/>
   </g>
   <g id="patch_192">
    <path d="M 381.937375 263.518594 
L 384.25796 263.518594 
L 384.25796 263.518594 
L 381.937375 263.518594 
z
" clip-path="url(#p6c671c4377)" style="fill: #f25022; fill-opacity: 0.5"/>
   </g>
   <g id="patch_193">
    <path d="M 384.515803 263.518594 
L 386.836388 263.518594 
L 386.836388 263.518594 
L 384.515803 263.518594 
z
" clip-path="url(#p6c671c4377)" style="fill: #f25022; fill-opacity: 0.5"/>
   </g>
   <g id="patch_194">
    <path d="M 387.09423 263.518594 
L 389.414815 263.518594 
L 389.414815 263.518594 
L 387.09423 263.518594 
z
" clip-path="url(#p6c671c4377)" style="fill: #f25022; fill-opacity: 0.5"/>
   </g>
   <g id="patch_195">
    <path d="M 389.672658 263.518594 
L 391.993243 263.518594 
L 391.993243 263.518594 
L 389.672658 263.518594 
z
" clip-path="url(#p6c671c4377)" style="fill: #f25022; fill-opacity: 0.5"/>
   </g>
   <g id="patch_196">
    <path d="M 392.251086 263.518594 
L 394.571671 263.518594 
L 394.571671 263.518594 
L 392.251086 263.518594 
z
" clip-path="url(#p6c671c4377)" style="fill: #f25022; fill-opacity: 0.5"/>
   </g>
   <g id="patch_197">
    <path d="M 394.829514 263.518594 
L 397.150098 263.518594 
L 397.150098 263.518594 
L 394.829514 263.518594 
z
" clip-path="url(#p6c671c4377)" style="fill: #f25022; fill-opacity: 0.5"/>
   </g>
   <g id="patch_198">
    <path d="M 397.407941 263.518594 
L 399.728526 263.518594 
L 399.728526 263.518594 
L 397.407941 263.518594 
z
" clip-path="url(#p6c671c4377)" style="fill: #f25022; fill-opacity: 0.5"/>
   </g>
   <g id="patch_199">
    <path d="M 399.986369 263.518594 
L 402.306954 263.518594 
L 402.306954 263.518594 
L 399.986369 263.518594 
z
" clip-path="url(#p6c671c4377)" style="fill: #f25022; fill-opacity: 0.5"/>
   </g>
   <g id="patch_200">
    <path d="M 402.564797 263.518594 
L 404.885382 263.518594 
L 404.885382 263.518594 
L 402.564797 263.518594 
z
" clip-path="url(#p6c671c4377)" style="fill: #f25022; fill-opacity: 0.5"/>
   </g>
   <g id="patch_201">
    <path d="M 405.143224 263.518594 
L 407.463809 263.518594 
L 407.463809 263.518594 
L 405.143224 263.518594 
z
" clip-path="url(#p6c671c4377)" style="fill: #f25022; fill-opacity: 0.5"/>
   </g>
   <g id="patch_202">
    <path d="M 407.721652 263.518594 
L 410.042237 263.518594 
L 410.042237 263.102378 
L 407.721652 263.102378 
z
" clip-path="url(#p6c671c4377)" style="fill: #f25022; fill-opacity: 0.5"/>
   </g>
   <g id="matplotlib.axis_1">
    <g id="xtick_1">
     <g id="line2d_1">
      <path d="M 75.69875 263.518594 
L 75.69875 14.038594 
" clip-path="url(#p6c671c4377)" style="fill: none; stroke-dasharray: 2.96,1.28; stroke-dashoffset: 0; stroke: #b0b0b0; stroke-width: 0.8"/>
     </g>
     <g id="line2d_2">
      <defs>
       <path id="m4b1d7f939e" d="M 0 0 
L 0 3.5 
" style="stroke: #000000; stroke-width: 0.8"/>
      </defs>
      <g>
       <use xlink:href="#m4b1d7f939e" x="75.69875" y="263.518594" style="stroke: #000000; stroke-width: 0.8"/>
      </g>
     </g>
     <g id="text_1">
      <!-- 0 -->
      <g transform="translate(69.9725 284.195781) scale(0.18 -0.18)">
       <defs>
        <path id="DejaVuSans-30" d="M 2034 4250 
Q 1547 4250 1301 3770 
Q 1056 3291 1056 2328 
Q 1056 1369 1301 889 
Q 1547 409 2034 409 
Q 2525 409 2770 889 
Q 3016 1369 3016 2328 
Q 3016 3291 2770 3770 
Q 2525 4250 2034 4250 
z
M 2034 4750 
Q 2819 4750 3233 4129 
Q 3647 3509 3647 2328 
Q 3647 1150 3233 529 
Q 2819 -91 2034 -91 
Q 1250 -91 836 529 
Q 422 1150 422 2328 
Q 422 3509 836 4129 
Q 1250 4750 2034 4750 
z
" transform="scale(0.015625)"/>
       </defs>
       <use xlink:href="#DejaVuSans-30"/>
      </g>
     </g>
    </g>
    <g id="xtick_2">
     <g id="line2d_3">
      <path d="M 109.17875 263.518594 
L 109.17875 14.038594 
" clip-path="url(#p6c671c4377)" style="fill: none; stroke-dasharray: 2.96,1.28; stroke-dashoffset: 0; stroke: #b0b0b0; stroke-width: 0.8"/>
     </g>
     <g id="line2d_4">
      <g>
       <use xlink:href="#m4b1d7f939e" x="109.17875" y="263.518594" style="stroke: #000000; stroke-width: 0.8"/>
      </g>
     </g>
     <g id="text_2">
      <!-- 1 -->
      <g transform="translate(103.4525 284.195781) scale(0.18 -0.18)">
       <defs>
        <path id="DejaVuSans-31" d="M 794 531 
L 1825 531 
L 1825 4091 
L 703 3866 
L 703 4441 
L 1819 4666 
L 2450 4666 
L 2450 531 
L 3481 531 
L 3481 0 
L 794 0 
L 794 531 
z
" transform="scale(0.015625)"/>
       </defs>
       <use xlink:href="#DejaVuSans-31"/>
      </g>
     </g>
    </g>
    <g id="xtick_3">
     <g id="line2d_5">
      <path d="M 142.65875 263.518594 
L 142.65875 14.038594 
" clip-path="url(#p6c671c4377)" style="fill: none; stroke-dasharray: 2.96,1.28; stroke-dashoffset: 0; stroke: #b0b0b0; stroke-width: 0.8"/>
     </g>
     <g id="line2d_6">
      <g>
       <use xlink:href="#m4b1d7f939e" x="142.65875" y="263.518594" style="stroke: #000000; stroke-width: 0.8"/>
      </g>
     </g>
     <g id="text_3">
      <!-- 2 -->
      <g transform="translate(136.9325 284.195781) scale(0.18 -0.18)">
       <defs>
        <path id="DejaVuSans-32" d="M 1228 531 
L 3431 531 
L 3431 0 
L 469 0 
L 469 531 
Q 828 903 1448 1529 
Q 2069 2156 2228 2338 
Q 2531 2678 2651 2914 
Q 2772 3150 2772 3378 
Q 2772 3750 2511 3984 
Q 2250 4219 1831 4219 
Q 1534 4219 1204 4116 
Q 875 4013 500 3803 
L 500 4441 
Q 881 4594 1212 4672 
Q 1544 4750 1819 4750 
Q 2544 4750 2975 4387 
Q 3406 4025 3406 3419 
Q 3406 3131 3298 2873 
Q 3191 2616 2906 2266 
Q 2828 2175 2409 1742 
Q 1991 1309 1228 531 
z
" transform="scale(0.015625)"/>
       </defs>
       <use xlink:href="#DejaVuSans-32"/>
      </g>
     </g>
    </g>
    <g id="xtick_4">
     <g id="line2d_7">
      <path d="M 176.13875 263.518594 
L 176.13875 14.038594 
" clip-path="url(#p6c671c4377)" style="fill: none; stroke-dasharray: 2.96,1.28; stroke-dashoffset: 0; stroke: #b0b0b0; stroke-width: 0.8"/>
     </g>
     <g id="line2d_8">
      <g>
       <use xlink:href="#m4b1d7f939e" x="176.13875" y="263.518594" style="stroke: #000000; stroke-width: 0.8"/>
      </g>
     </g>
     <g id="text_4">
      <!-- 3 -->
      <g transform="translate(170.4125 284.195781) scale(0.18 -0.18)">
       <defs>
        <path id="DejaVuSans-33" d="M 2597 2516 
Q 3050 2419 3304 2112 
Q 3559 1806 3559 1356 
Q 3559 666 3084 287 
Q 2609 -91 1734 -91 
Q 1441 -91 1130 -33 
Q 819 25 488 141 
L 488 750 
Q 750 597 1062 519 
Q 1375 441 1716 441 
Q 2309 441 2620 675 
Q 2931 909 2931 1356 
Q 2931 1769 2642 2001 
Q 2353 2234 1838 2234 
L 1294 2234 
L 1294 2753 
L 1863 2753 
Q 2328 2753 2575 2939 
Q 2822 3125 2822 3475 
Q 2822 3834 2567 4026 
Q 2313 4219 1838 4219 
Q 1578 4219 1281 4162 
Q 984 4106 628 3988 
L 628 4550 
Q 988 4650 1302 4700 
Q 1616 4750 1894 4750 
Q 2613 4750 3031 4423 
Q 3450 4097 3450 3541 
Q 3450 3153 3228 2886 
Q 3006 2619 2597 2516 
z
" transform="scale(0.015625)"/>
       </defs>
       <use xlink:href="#DejaVuSans-33"/>
      </g>
     </g>
    </g>
    <g id="xtick_5">
     <g id="line2d_9">
      <path d="M 209.61875 263.518594 
L 209.61875 14.038594 
" clip-path="url(#p6c671c4377)" style="fill: none; stroke-dasharray: 2.96,1.28; stroke-dashoffset: 0; stroke: #b0b0b0; stroke-width: 0.8"/>
     </g>
     <g id="line2d_10">
      <g>
       <use xlink:href="#m4b1d7f939e" x="209.61875" y="263.518594" style="stroke: #000000; stroke-width: 0.8"/>
      </g>
     </g>
     <g id="text_5">
      <!-- 4 -->
      <g transform="translate(203.8925 284.195781) scale(0.18 -0.18)">
       <defs>
        <path id="DejaVuSans-34" d="M 2419 4116 
L 825 1625 
L 2419 1625 
L 2419 4116 
z
M 2253 4666 
L 3047 4666 
L 3047 1625 
L 3713 1625 
L 3713 1100 
L 3047 1100 
L 3047 0 
L 2419 0 
L 2419 1100 
L 313 1100 
L 313 1709 
L 2253 4666 
z
" transform="scale(0.015625)"/>
       </defs>
       <use xlink:href="#DejaVuSans-34"/>
      </g>
     </g>
    </g>
    <g id="xtick_6">
     <g id="line2d_11">
      <path d="M 243.09875 263.518594 
L 243.09875 14.038594 
" clip-path="url(#p6c671c4377)" style="fill: none; stroke-dasharray: 2.96,1.28; stroke-dashoffset: 0; stroke: #b0b0b0; stroke-width: 0.8"/>
     </g>
     <g id="line2d_12">
      <g>
       <use xlink:href="#m4b1d7f939e" x="243.09875" y="263.518594" style="stroke: #000000; stroke-width: 0.8"/>
      </g>
     </g>
     <g id="text_6">
      <!-- 5 -->
      <g transform="translate(237.3725 284.195781) scale(0.18 -0.18)">
       <defs>
        <path id="DejaVuSans-35" d="M 691 4666 
L 3169 4666 
L 3169 4134 
L 1269 4134 
L 1269 2991 
Q 1406 3038 1543 3061 
Q 1681 3084 1819 3084 
Q 2600 3084 3056 2656 
Q 3513 2228 3513 1497 
Q 3513 744 3044 326 
Q 2575 -91 1722 -91 
Q 1428 -91 1123 -41 
Q 819 9 494 109 
L 494 744 
Q 775 591 1075 516 
Q 1375 441 1709 441 
Q 2250 441 2565 725 
Q 2881 1009 2881 1497 
Q 2881 1984 2565 2268 
Q 2250 2553 1709 2553 
Q 1456 2553 1204 2497 
Q 953 2441 691 2322 
L 691 4666 
z
" transform="scale(0.015625)"/>
       </defs>
       <use xlink:href="#DejaVuSans-35"/>
      </g>
     </g>
    </g>
    <g id="xtick_7">
     <g id="line2d_13">
      <path d="M 276.57875 263.518594 
L 276.57875 14.038594 
" clip-path="url(#p6c671c4377)" style="fill: none; stroke-dasharray: 2.96,1.28; stroke-dashoffset: 0; stroke: #b0b0b0; stroke-width: 0.8"/>
     </g>
     <g id="line2d_14">
      <g>
       <use xlink:href="#m4b1d7f939e" x="276.57875" y="263.518594" style="stroke: #000000; stroke-width: 0.8"/>
      </g>
     </g>
     <g id="text_7">
      <!-- 6 -->
      <g transform="translate(270.8525 284.195781) scale(0.18 -0.18)">
       <defs>
        <path id="DejaVuSans-36" d="M 2113 2584 
Q 1688 2584 1439 2293 
Q 1191 2003 1191 1497 
Q 1191 994 1439 701 
Q 1688 409 2113 409 
Q 2538 409 2786 701 
Q 3034 994 3034 1497 
Q 3034 2003 2786 2293 
Q 2538 2584 2113 2584 
z
M 3366 4563 
L 3366 3988 
Q 3128 4100 2886 4159 
Q 2644 4219 2406 4219 
Q 1781 4219 1451 3797 
Q 1122 3375 1075 2522 
Q 1259 2794 1537 2939 
Q 1816 3084 2150 3084 
Q 2853 3084 3261 2657 
Q 3669 2231 3669 1497 
Q 3669 778 3244 343 
Q 2819 -91 2113 -91 
Q 1303 -91 875 529 
Q 447 1150 447 2328 
Q 447 3434 972 4092 
Q 1497 4750 2381 4750 
Q 2619 4750 2861 4703 
Q 3103 4656 3366 4563 
z
" transform="scale(0.015625)"/>
       </defs>
       <use xlink:href="#DejaVuSans-36"/>
      </g>
     </g>
    </g>
    <g id="xtick_8">
     <g id="line2d_15">
      <path d="M 310.05875 263.518594 
L 310.05875 14.038594 
" clip-path="url(#p6c671c4377)" style="fill: none; stroke-dasharray: 2.96,1.28; stroke-dashoffset: 0; stroke: #b0b0b0; stroke-width: 0.8"/>
     </g>
     <g id="line2d_16">
      <g>
       <use xlink:href="#m4b1d7f939e" x="310.05875" y="263.518594" style="stroke: #000000; stroke-width: 0.8"/>
      </g>
     </g>
     <g id="text_8">
      <!-- 7 -->
      <g transform="translate(304.3325 284.195781) scale(0.18 -0.18)">
       <defs>
        <path id="DejaVuSans-37" d="M 525 4666 
L 3525 4666 
L 3525 4397 
L 1831 0 
L 1172 0 
L 2766 4134 
L 525 4134 
L 525 4666 
z
" transform="scale(0.015625)"/>
       </defs>
       <use xlink:href="#DejaVuSans-37"/>
      </g>
     </g>
    </g>
    <g id="xtick_9">
     <g id="line2d_17">
      <path d="M 343.53875 263.518594 
L 343.53875 14.038594 
" clip-path="url(#p6c671c4377)" style="fill: none; stroke-dasharray: 2.96,1.28; stroke-dashoffset: 0; stroke: #b0b0b0; stroke-width: 0.8"/>
     </g>
     <g id="line2d_18">
      <g>
       <use xlink:href="#m4b1d7f939e" x="343.53875" y="263.518594" style="stroke: #000000; stroke-width: 0.8"/>
      </g>
     </g>
     <g id="text_9">
      <!-- 8 -->
      <g transform="translate(337.8125 284.195781) scale(0.18 -0.18)">
       <defs>
        <path id="DejaVuSans-38" d="M 2034 2216 
Q 1584 2216 1326 1975 
Q 1069 1734 1069 1313 
Q 1069 891 1326 650 
Q 1584 409 2034 409 
Q 2484 409 2743 651 
Q 3003 894 3003 1313 
Q 3003 1734 2745 1975 
Q 2488 2216 2034 2216 
z
M 1403 2484 
Q 997 2584 770 2862 
Q 544 3141 544 3541 
Q 544 4100 942 4425 
Q 1341 4750 2034 4750 
Q 2731 4750 3128 4425 
Q 3525 4100 3525 3541 
Q 3525 3141 3298 2862 
Q 3072 2584 2669 2484 
Q 3125 2378 3379 2068 
Q 3634 1759 3634 1313 
Q 3634 634 3220 271 
Q 2806 -91 2034 -91 
Q 1263 -91 848 271 
Q 434 634 434 1313 
Q 434 1759 690 2068 
Q 947 2378 1403 2484 
z
M 1172 3481 
Q 1172 3119 1398 2916 
Q 1625 2713 2034 2713 
Q 2441 2713 2670 2916 
Q 2900 3119 2900 3481 
Q 2900 3844 2670 4047 
Q 2441 4250 2034 4250 
Q 1625 4250 1398 4047 
Q 1172 3844 1172 3481 
z
" transform="scale(0.015625)"/>
       </defs>
       <use xlink:href="#DejaVuSans-38"/>
      </g>
     </g>
    </g>
    <g id="xtick_10">
     <g id="line2d_19">
      <path d="M 377.01875 263.518594 
L 377.01875 14.038594 
" clip-path="url(#p6c671c4377)" style="fill: none; stroke-dasharray: 2.96,1.28; stroke-dashoffset: 0; stroke: #b0b0b0; stroke-width: 0.8"/>
     </g>
     <g id="line2d_20">
      <g>
       <use xlink:href="#m4b1d7f939e" x="377.01875" y="263.518594" style="stroke: #000000; stroke-width: 0.8"/>
      </g>
     </g>
     <g id="text_10">
      <!-- 9 -->
      <g transform="translate(371.2925 284.195781) scale(0.18 -0.18)">
       <defs>
        <path id="DejaVuSans-39" d="M 703 97 
L 703 672 
Q 941 559 1184 500 
Q 1428 441 1663 441 
Q 2288 441 2617 861 
Q 2947 1281 2994 2138 
Q 2813 1869 2534 1725 
Q 2256 1581 1919 1581 
Q 1219 1581 811 2004 
Q 403 2428 403 3163 
Q 403 3881 828 4315 
Q 1253 4750 1959 4750 
Q 2769 4750 3195 4129 
Q 3622 3509 3622 2328 
Q 3622 1225 3098 567 
Q 2575 -91 1691 -91 
Q 1453 -91 1209 -44 
Q 966 3 703 97 
z
M 1959 2075 
Q 2384 2075 2632 2365 
Q 2881 2656 2881 3163 
Q 2881 3666 2632 3958 
Q 2384 4250 1959 4250 
Q 1534 4250 1286 3958 
Q 1038 3666 1038 3163 
Q 1038 2656 1286 2365 
Q 1534 2075 1959 2075 
z
" transform="scale(0.015625)"/>
       </defs>
       <use xlink:href="#DejaVuSans-39"/>
      </g>
     </g>
    </g>
    <g id="xtick_11">
     <g id="line2d_21">
      <path d="M 410.49875 263.518594 
L 410.49875 14.038594 
" clip-path="url(#p6c671c4377)" style="fill: none; stroke-dasharray: 2.96,1.28; stroke-dashoffset: 0; stroke: #b0b0b0; stroke-width: 0.8"/>
     </g>
     <g id="line2d_22">
      <g>
       <use xlink:href="#m4b1d7f939e" x="410.49875" y="263.518594" style="stroke: #000000; stroke-width: 0.8"/>
      </g>
     </g>
     <g id="text_11">
      <!-- 10 -->
      <g transform="translate(399.04625 284.195781) scale(0.18 -0.18)">
       <use xlink:href="#DejaVuSans-31"/>
       <use xlink:href="#DejaVuSans-30" x="63.623047"/>
      </g>
     </g>
    </g>
    <g id="text_12">
     <!-- One-way latency [ms] -->
     <g transform="translate(144.063594 305.616406) scale(0.18 -0.18)">
      <defs>
       <path id="DejaVuSans-4f" d="M 2522 4238 
Q 1834 4238 1429 3725 
Q 1025 3213 1025 2328 
Q 1025 1447 1429 934 
Q 1834 422 2522 422 
Q 3209 422 3611 934 
Q 4013 1447 4013 2328 
Q 4013 3213 3611 3725 
Q 3209 4238 2522 4238 
z
M 2522 4750 
Q 3503 4750 4090 4092 
Q 4678 3434 4678 2328 
Q 4678 1225 4090 567 
Q 3503 -91 2522 -91 
Q 1538 -91 948 565 
Q 359 1222 359 2328 
Q 359 3434 948 4092 
Q 1538 4750 2522 4750 
z
" transform="scale(0.015625)"/>
       <path id="DejaVuSans-6e" d="M 3513 2113 
L 3513 0 
L 2938 0 
L 2938 2094 
Q 2938 2591 2744 2837 
Q 2550 3084 2163 3084 
Q 1697 3084 1428 2787 
Q 1159 2491 1159 1978 
L 1159 0 
L 581 0 
L 581 3500 
L 1159 3500 
L 1159 2956 
Q 1366 3272 1645 3428 
Q 1925 3584 2291 3584 
Q 2894 3584 3203 3211 
Q 3513 2838 3513 2113 
z
" transform="scale(0.015625)"/>
       <path id="DejaVuSans-65" d="M 3597 1894 
L 3597 1613 
L 953 1613 
Q 991 1019 1311 708 
Q 1631 397 2203 397 
Q 2534 397 2845 478 
Q 3156 559 3463 722 
L 3463 178 
Q 3153 47 2828 -22 
Q 2503 -91 2169 -91 
Q 1331 -91 842 396 
Q 353 884 353 1716 
Q 353 2575 817 3079 
Q 1281 3584 2069 3584 
Q 2775 3584 3186 3129 
Q 3597 2675 3597 1894 
z
M 3022 2063 
Q 3016 2534 2758 2815 
Q 2500 3097 2075 3097 
Q 1594 3097 1305 2825 
Q 1016 2553 972 2059 
L 3022 2063 
z
" transform="scale(0.015625)"/>
       <path id="DejaVuSans-2d" d="M 313 2009 
L 1997 2009 
L 1997 1497 
L 313 1497 
L 313 2009 
z
" transform="scale(0.015625)"/>
       <path id="DejaVuSans-77" d="M 269 3500 
L 844 3500 
L 1563 769 
L 2278 3500 
L 2956 3500 
L 3675 769 
L 4391 3500 
L 4966 3500 
L 4050 0 
L 3372 0 
L 2619 2869 
L 1863 0 
L 1184 0 
L 269 3500 
z
" transform="scale(0.015625)"/>
       <path id="DejaVuSans-61" d="M 2194 1759 
Q 1497 1759 1228 1600 
Q 959 1441 959 1056 
Q 959 750 1161 570 
Q 1363 391 1709 391 
Q 2188 391 2477 730 
Q 2766 1069 2766 1631 
L 2766 1759 
L 2194 1759 
z
M 3341 1997 
L 3341 0 
L 2766 0 
L 2766 531 
Q 2569 213 2275 61 
Q 1981 -91 1556 -91 
Q 1019 -91 701 211 
Q 384 513 384 1019 
Q 384 1609 779 1909 
Q 1175 2209 1959 2209 
L 2766 2209 
L 2766 2266 
Q 2766 2663 2505 2880 
Q 2244 3097 1772 3097 
Q 1472 3097 1187 3025 
Q 903 2953 641 2809 
L 641 3341 
Q 956 3463 1253 3523 
Q 1550 3584 1831 3584 
Q 2591 3584 2966 3190 
Q 3341 2797 3341 1997 
z
" transform="scale(0.015625)"/>
       <path id="DejaVuSans-79" d="M 2059 -325 
Q 1816 -950 1584 -1140 
Q 1353 -1331 966 -1331 
L 506 -1331 
L 506 -850 
L 844 -850 
Q 1081 -850 1212 -737 
Q 1344 -625 1503 -206 
L 1606 56 
L 191 3500 
L 800 3500 
L 1894 763 
L 2988 3500 
L 3597 3500 
L 2059 -325 
z
" transform="scale(0.015625)"/>
       <path id="DejaVuSans-20" transform="scale(0.015625)"/>
       <path id="DejaVuSans-6c" d="M 603 4863 
L 1178 4863 
L 1178 0 
L 603 0 
L 603 4863 
z
" transform="scale(0.015625)"/>
       <path id="DejaVuSans-74" d="M 1172 4494 
L 1172 3500 
L 2356 3500 
L 2356 3053 
L 1172 3053 
L 1172 1153 
Q 1172 725 1289 603 
Q 1406 481 1766 481 
L 2356 481 
L 2356 0 
L 1766 0 
Q 1100 0 847 248 
Q 594 497 594 1153 
L 594 3053 
L 172 3053 
L 172 3500 
L 594 3500 
L 594 4494 
L 1172 4494 
z
" transform="scale(0.015625)"/>
       <path id="DejaVuSans-63" d="M 3122 3366 
L 3122 2828 
Q 2878 2963 2633 3030 
Q 2388 3097 2138 3097 
Q 1578 3097 1268 2742 
Q 959 2388 959 1747 
Q 959 1106 1268 751 
Q 1578 397 2138 397 
Q 2388 397 2633 464 
Q 2878 531 3122 666 
L 3122 134 
Q 2881 22 2623 -34 
Q 2366 -91 2075 -91 
Q 1284 -91 818 406 
Q 353 903 353 1747 
Q 353 2603 823 3093 
Q 1294 3584 2113 3584 
Q 2378 3584 2631 3529 
Q 2884 3475 3122 3366 
z
" transform="scale(0.015625)"/>
       <path id="DejaVuSans-5b" d="M 550 4863 
L 1875 4863 
L 1875 4416 
L 1125 4416 
L 1125 -397 
L 1875 -397 
L 1875 -844 
L 550 -844 
L 550 4863 
z
" transform="scale(0.015625)"/>
       <path id="DejaVuSans-6d" d="M 3328 2828 
Q 3544 3216 3844 3400 
Q 4144 3584 4550 3584 
Q 5097 3584 5394 3201 
Q 5691 2819 5691 2113 
L 5691 0 
L 5113 0 
L 5113 2094 
Q 5113 2597 4934 2840 
Q 4756 3084 4391 3084 
Q 3944 3084 3684 2787 
Q 3425 2491 3425 1978 
L 3425 0 
L 2847 0 
L 2847 2094 
Q 2847 2600 2669 2842 
Q 2491 3084 2119 3084 
Q 1678 3084 1418 2786 
Q 1159 2488 1159 1978 
L 1159 0 
L 581 0 
L 581 3500 
L 1159 3500 
L 1159 2956 
Q 1356 3278 1631 3431 
Q 1906 3584 2284 3584 
Q 2666 3584 2933 3390 
Q 3200 3197 3328 2828 
z
" transform="scale(0.015625)"/>
       <path id="DejaVuSans-73" d="M 2834 3397 
L 2834 2853 
Q 2591 2978 2328 3040 
Q 2066 3103 1784 3103 
Q 1356 3103 1142 2972 
Q 928 2841 928 2578 
Q 928 2378 1081 2264 
Q 1234 2150 1697 2047 
L 1894 2003 
Q 2506 1872 2764 1633 
Q 3022 1394 3022 966 
Q 3022 478 2636 193 
Q 2250 -91 1575 -91 
Q 1294 -91 989 -36 
Q 684 19 347 128 
L 347 722 
Q 666 556 975 473 
Q 1284 391 1588 391 
Q 1994 391 2212 530 
Q 2431 669 2431 922 
Q 2431 1156 2273 1281 
Q 2116 1406 1581 1522 
L 1381 1569 
Q 847 1681 609 1914 
Q 372 2147 372 2553 
Q 372 3047 722 3315 
Q 1072 3584 1716 3584 
Q 2034 3584 2315 3537 
Q 2597 3491 2834 3397 
z
" transform="scale(0.015625)"/>
       <path id="DejaVuSans-5d" d="M 1947 4863 
L 1947 -844 
L 622 -844 
L 622 -397 
L 1369 -397 
L 1369 4416 
L 622 4416 
L 622 4863 
L 1947 4863 
z
" transform="scale(0.015625)"/>
      </defs>
      <use xlink:href="#DejaVuSans-4f"/>
      <use xlink:href="#DejaVuSans-6e" x="78.710938"/>
      <use xlink:href="#DejaVuSans-65" x="142.089844"/>
      <use xlink:href="#DejaVuSans-2d" x="203.613281"/>
      <use xlink:href="#DejaVuSans-77" x="239.697266"/>
      <use xlink:href="#DejaVuSans-61" x="321.484375"/>
      <use xlink:href="#DejaVuSans-79" x="382.763672"/>
      <use xlink:href="#DejaVuSans-20" x="441.943359"/>
      <use xlink:href="#DejaVuSans-6c" x="473.730469"/>
      <use xlink:href="#DejaVuSans-61" x="501.513672"/>
      <use xlink:href="#DejaVuSans-74" x="562.792969"/>
      <use xlink:href="#DejaVuSans-65" x="602.001953"/>
      <use xlink:href="#DejaVuSans-6e" x="663.525391"/>
      <use xlink:href="#DejaVuSans-63" x="726.904297"/>
      <use xlink:href="#DejaVuSans-79" x="781.884766"/>
      <use xlink:href="#DejaVuSans-20" x="841.064453"/>
      <use xlink:href="#DejaVuSans-5b" x="872.851562"/>
      <use xlink:href="#DejaVuSans-6d" x="911.865234"/>
      <use xlink:href="#DejaVuSans-73" x="1009.277344"/>
      <use xlink:href="#DejaVuSans-5d" x="1061.376953"/>
     </g>
    </g>
   </g>
   <g id="matplotlib.axis_2">
    <g id="ytick_1">
     <g id="line2d_23">
      <path d="M 75.69875 263.518594 
L 410.49875 263.518594 
" clip-path="url(#p6c671c4377)" style="fill: none; stroke-dasharray: 2.96,1.28; stroke-dashoffset: 0; stroke: #b0b0b0; stroke-width: 0.8"/>
     </g>
     <g id="line2d_24">
      <defs>
       <path id="mb43c7f71cb" d="M 0 0 
L -3.5 0 
" style="stroke: #000000; stroke-width: 0.8"/>
      </defs>
      <g>
       <use xlink:href="#mb43c7f71cb" x="75.69875" y="263.518594" style="stroke: #000000; stroke-width: 0.8"/>
      </g>
     </g>
     <g id="text_13">
      <!-- 0.00 -->
      <g transform="translate(28.620625 270.357188) scale(0.18 -0.18)">
       <defs>
        <path id="DejaVuSans-2e" d="M 684 794 
L 1344 794 
L 1344 0 
L 684 0 
L 684 794 
z
" transform="scale(0.015625)"/>
       </defs>
       <use xlink:href="#DejaVuSans-30"/>
       <use xlink:href="#DejaVuSans-2e" x="63.623047"/>
       <use xlink:href="#DejaVuSans-30" x="95.410156"/>
       <use xlink:href="#DejaVuSans-30" x="159.033203"/>
      </g>
     </g>
    </g>
    <g id="ytick_2">
     <g id="line2d_25">
      <path d="M 75.69875 221.938594 
L 410.49875 221.938594 
" clip-path="url(#p6c671c4377)" style="fill: none; stroke-dasharray: 2.96,1.28; stroke-dashoffset: 0; stroke: #b0b0b0; stroke-width: 0.8"/>
     </g>
     <g id="line2d_26">
      <g>
       <use xlink:href="#mb43c7f71cb" x="75.69875" y="221.938594" style="stroke: #000000; stroke-width: 0.8"/>
      </g>
     </g>
     <g id="text_14">
      <!-- 0.02 -->
      <g transform="translate(28.620625 228.777187) scale(0.18 -0.18)">
       <use xlink:href="#DejaVuSans-30"/>
       <use xlink:href="#DejaVuSans-2e" x="63.623047"/>
       <use xlink:href="#DejaVuSans-30" x="95.410156"/>
       <use xlink:href="#DejaVuSans-32" x="159.033203"/>
      </g>
     </g>
    </g>
    <g id="ytick_3">
     <g id="line2d_27">
      <path d="M 75.69875 180.358594 
L 410.49875 180.358594 
" clip-path="url(#p6c671c4377)" style="fill: none; stroke-dasharray: 2.96,1.28; stroke-dashoffset: 0; stroke: #b0b0b0; stroke-width: 0.8"/>
     </g>
     <g id="line2d_28">
      <g>
       <use xlink:href="#mb43c7f71cb" x="75.69875" y="180.358594" style="stroke: #000000; stroke-width: 0.8"/>
      </g>
     </g>
     <g id="text_15">
      <!-- 0.04 -->
      <g transform="translate(28.620625 187.197187) scale(0.18 -0.18)">
       <use xlink:href="#DejaVuSans-30"/>
       <use xlink:href="#DejaVuSans-2e" x="63.623047"/>
       <use xlink:href="#DejaVuSans-30" x="95.410156"/>
       <use xlink:href="#DejaVuSans-34" x="159.033203"/>
      </g>
     </g>
    </g>
    <g id="ytick_4">
     <g id="line2d_29">
      <path d="M 75.69875 138.778594 
L 410.49875 138.778594 
" clip-path="url(#p6c671c4377)" style="fill: none; stroke-dasharray: 2.96,1.28; stroke-dashoffset: 0; stroke: #b0b0b0; stroke-width: 0.8"/>
     </g>
     <g id="line2d_30">
      <g>
       <use xlink:href="#mb43c7f71cb" x="75.69875" y="138.778594" style="stroke: #000000; stroke-width: 0.8"/>
      </g>
     </g>
     <g id="text_16">
      <!-- 0.06 -->
      <g transform="translate(28.620625 145.617187) scale(0.18 -0.18)">
       <use xlink:href="#DejaVuSans-30"/>
       <use xlink:href="#DejaVuSans-2e" x="63.623047"/>
       <use xlink:href="#DejaVuSans-30" x="95.410156"/>
       <use xlink:href="#DejaVuSans-36" x="159.033203"/>
      </g>
     </g>
    </g>
    <g id="ytick_5">
     <g id="line2d_31">
      <path d="M 75.69875 97.198594 
L 410.49875 97.198594 
" clip-path="url(#p6c671c4377)" style="fill: none; stroke-dasharray: 2.96,1.28; stroke-dashoffset: 0; stroke: #b0b0b0; stroke-width: 0.8"/>
     </g>
     <g id="line2d_32">
      <g>
       <use xlink:href="#mb43c7f71cb" x="75.69875" y="97.198594" style="stroke: #000000; stroke-width: 0.8"/>
      </g>
     </g>
     <g id="text_17">
      <!-- 0.08 -->
      <g transform="translate(28.620625 104.037187) scale(0.18 -0.18)">
       <use xlink:href="#DejaVuSans-30"/>
       <use xlink:href="#DejaVuSans-2e" x="63.623047"/>
       <use xlink:href="#DejaVuSans-30" x="95.410156"/>
       <use xlink:href="#DejaVuSans-38" x="159.033203"/>
      </g>
     </g>
    </g>
    <g id="ytick_6">
     <g id="line2d_33">
      <path d="M 75.69875 55.618594 
L 410.49875 55.618594 
" clip-path="url(#p6c671c4377)" style="fill: none; stroke-dasharray: 2.96,1.28; stroke-dashoffset: 0; stroke: #b0b0b0; stroke-width: 0.8"/>
     </g>
     <g id="line2d_34">
      <g>
       <use xlink:href="#mb43c7f71cb" x="75.69875" y="55.618594" style="stroke: #000000; stroke-width: 0.8"/>
      </g>
     </g>
     <g id="text_18">
      <!-- 0.10 -->
      <g transform="translate(28.620625 62.457187) scale(0.18 -0.18)">
       <use xlink:href="#DejaVuSans-30"/>
       <use xlink:href="#DejaVuSans-2e" x="63.623047"/>
       <use xlink:href="#DejaVuSans-31" x="95.410156"/>
       <use xlink:href="#DejaVuSans-30" x="159.033203"/>
      </g>
     </g>
    </g>
    <g id="ytick_7">
     <g id="line2d_35">
      <path d="M 75.69875 14.038594 
L 410.49875 14.038594 
" clip-path="url(#p6c671c4377)" style="fill: none; stroke-dasharray: 2.96,1.28; stroke-dashoffset: 0; stroke: #b0b0b0; stroke-width: 0.8"/>
     </g>
     <g id="line2d_36">
      <g>
       <use xlink:href="#mb43c7f71cb" x="75.69875" y="14.038594" style="stroke: #000000; stroke-width: 0.8"/>
      </g>
     </g>
     <g id="text_19">
      <!-- 0.12 -->
      <g transform="translate(28.620625 20.877187) scale(0.18 -0.18)">
       <use xlink:href="#DejaVuSans-30"/>
       <use xlink:href="#DejaVuSans-2e" x="63.623047"/>
       <use xlink:href="#DejaVuSans-31" x="95.410156"/>
       <use xlink:href="#DejaVuSans-32" x="159.033203"/>
      </g>
     </g>
    </g>
    <g id="text_20">
     <!-- Probability -->
     <g transform="translate(20.877187 186.350625) rotate(-90) scale(0.18 -0.18)">
      <defs>
       <path id="DejaVuSans-50" d="M 1259 4147 
L 1259 2394 
L 2053 2394 
Q 2494 2394 2734 2622 
Q 2975 2850 2975 3272 
Q 2975 3691 2734 3919 
Q 2494 4147 2053 4147 
L 1259 4147 
z
M 628 4666 
L 2053 4666 
Q 2838 4666 3239 4311 
Q 3641 3956 3641 3272 
Q 3641 2581 3239 2228 
Q 2838 1875 2053 1875 
L 1259 1875 
L 1259 0 
L 628 0 
L 628 4666 
z
" transform="scale(0.015625)"/>
       <path id="DejaVuSans-72" d="M 2631 2963 
Q 2534 3019 2420 3045 
Q 2306 3072 2169 3072 
Q 1681 3072 1420 2755 
Q 1159 2438 1159 1844 
L 1159 0 
L 581 0 
L 581 3500 
L 1159 3500 
L 1159 2956 
Q 1341 3275 1631 3429 
Q 1922 3584 2338 3584 
Q 2397 3584 2469 3576 
Q 2541 3569 2628 3553 
L 2631 2963 
z
" transform="scale(0.015625)"/>
       <path id="DejaVuSans-6f" d="M 1959 3097 
Q 1497 3097 1228 2736 
Q 959 2375 959 1747 
Q 959 1119 1226 758 
Q 1494 397 1959 397 
Q 2419 397 2687 759 
Q 2956 1122 2956 1747 
Q 2956 2369 2687 2733 
Q 2419 3097 1959 3097 
z
M 1959 3584 
Q 2709 3584 3137 3096 
Q 3566 2609 3566 1747 
Q 3566 888 3137 398 
Q 2709 -91 1959 -91 
Q 1206 -91 779 398 
Q 353 888 353 1747 
Q 353 2609 779 3096 
Q 1206 3584 1959 3584 
z
" transform="scale(0.015625)"/>
       <path id="DejaVuSans-62" d="M 3116 1747 
Q 3116 2381 2855 2742 
Q 2594 3103 2138 3103 
Q 1681 3103 1420 2742 
Q 1159 2381 1159 1747 
Q 1159 1113 1420 752 
Q 1681 391 2138 391 
Q 2594 391 2855 752 
Q 3116 1113 3116 1747 
z
M 1159 2969 
Q 1341 3281 1617 3432 
Q 1894 3584 2278 3584 
Q 2916 3584 3314 3078 
Q 3713 2572 3713 1747 
Q 3713 922 3314 415 
Q 2916 -91 2278 -91 
Q 1894 -91 1617 61 
Q 1341 213 1159 525 
L 1159 0 
L 581 0 
L 581 4863 
L 1159 4863 
L 1159 2969 
z
" transform="scale(0.015625)"/>
       <path id="DejaVuSans-69" d="M 603 3500 
L 1178 3500 
L 1178 0 
L 603 0 
L 603 3500 
z
M 603 4863 
L 1178 4863 
L 1178 4134 
L 603 4134 
L 603 4863 
z
" transform="scale(0.015625)"/>
      </defs>
      <use xlink:href="#DejaVuSans-50"/>
      <use xlink:href="#DejaVuSans-72" x="58.552734"/>
      <use xlink:href="#DejaVuSans-6f" x="97.416016"/>
      <use xlink:href="#DejaVuSans-62" x="158.597656"/>
      <use xlink:href="#DejaVuSans-61" x="222.074219"/>
      <use xlink:href="#DejaVuSans-62" x="283.353516"/>
      <use xlink:href="#DejaVuSans-69" x="346.830078"/>
      <use xlink:href="#DejaVuSans-6c" x="374.613281"/>
      <use xlink:href="#DejaVuSans-69" x="402.396484"/>
      <use xlink:href="#DejaVuSans-74" x="430.179688"/>
      <use xlink:href="#DejaVuSans-79" x="469.388672"/>
     </g>
    </g>
   </g>
   <g id="line2d_37">
    <path d="M 118.739064 259.789667 
L 120.1798 256.834717 
L 121.620537 252.223411 
L 123.061274 245.211219 
L 124.50201 235.024449 
L 125.942747 221.330894 
L 127.383484 204.604068 
L 130.264957 166.150323 
L 134.587167 106.752343 
L 136.027904 89.7555 
L 137.468641 75.542225 
L 138.909377 64.377133 
L 140.350114 56.620622 
L 141.790851 52.981661 
L 143.231587 53.965126 
L 144.672324 59.215907 
L 146.113061 67.64345 
L 147.553797 78.050727 
L 150.435271 101.46405 
L 156.198218 150.043811 
L 157.638954 160.497491 
L 160.520428 179.137947 
L 163.401901 196.105699 
L 166.283374 211.777797 
L 169.164848 225.956967 
L 173.487058 245.827051 
L 174.927794 251.650953 
L 176.368531 256.304522 
L 177.809268 259.565689 
L 179.250004 261.556795 
L 180.690741 262.619087 
L 182.131478 263.121286 
L 183.572215 263.32731 
L 186.453688 263.334283 
L 190.775898 263.2092 
L 196.538845 263.40458 
L 206.624001 263.259217 
L 225.353578 263.314729 
L 229.675788 263.193031 
L 238.320209 263.500294 
L 258.490522 263.294602 
L 268.575679 263.267162 
L 272.897889 263.267136 
L 281.542309 263.141186 
L 288.745992 263.272956 
L 295.949676 263.280771 
L 301.712623 263.419087 
L 308.916306 263.36127 
L 327.645883 263.341365 
L 337.73104 263.425203 
L 391.038297 263.324573 
L 399.682717 263.254049 
L 404.004927 263.348925 
L 405.445664 263.347679 
L 405.445664 263.347679 
" clip-path="url(#p6c671c4377)" style="fill: none; stroke: #00a4ef; stroke-width: 1.5; stroke-linecap: square"/>
   </g>
   <g id="line2d_38">
    <path d="M 152.328389 263.407552 
L 201.564696 263.518154 
L 208.043158 263.433796 
L 209.33885 263.314429 
L 210.634543 263.054413 
L 211.930235 262.526558 
L 213.225927 261.534089 
L 214.52162 259.813289 
L 215.817312 257.068055 
L 217.113004 253.040379 
L 218.408696 247.60163 
L 219.704389 240.831641 
L 222.295773 224.77287 
L 223.591466 216.622918 
L 224.887158 209.193312 
L 226.18285 202.939417 
L 227.478543 198.108634 
L 228.774235 194.723068 
L 230.069927 192.605723 
L 231.36562 191.438422 
L 232.661312 190.842781 
L 235.252696 190.089465 
L 237.844081 189.04561 
L 240.435466 188.073865 
L 241.731158 187.796171 
L 243.02685 187.689289 
L 244.322543 187.750122 
L 246.913927 188.257623 
L 248.20962 188.54674 
L 249.505312 188.692822 
L 250.801004 188.581792 
L 252.096697 188.170461 
L 253.392389 187.506542 
L 258.575158 184.394668 
L 261.166543 183.287706 
L 262.462235 182.940646 
L 263.757927 182.781452 
L 265.05362 182.809304 
L 267.645004 183.210105 
L 271.532081 183.823036 
L 272.827773 183.875717 
L 274.123466 183.73663 
L 275.419158 183.338971 
L 278.010543 182.116578 
L 279.306235 181.92406 
L 280.601927 182.65047 
L 281.89762 184.754389 
L 283.193312 188.519828 
L 284.489004 193.987551 
L 285.784697 200.956416 
L 288.376081 217.689956 
L 290.967466 234.441717 
L 292.263158 241.491278 
L 293.55885 247.189599 
L 294.854543 251.439717 
L 296.150235 254.351358 
L 297.445927 256.184641 
L 298.74162 257.263012 
L 300.037312 257.887386 
L 302.628697 258.560098 
L 305.220081 258.915268 
L 307.811466 258.927984 
L 314.289927 258.388847 
L 315.58562 258.543748 
L 316.881312 258.861936 
L 319.472697 259.902926 
L 323.359774 261.756993 
L 325.951158 262.689179 
L 328.542543 263.222261 
L 331.133927 263.441902 
L 336.316697 263.516883 
L 404.988389 263.473559 
L 410.171158 263.407686 
L 410.171158 263.407686 
" clip-path="url(#p6c671c4377)" style="fill: none; stroke: #f25022; stroke-width: 1.5; stroke-linecap: square"/>
   </g>
   <g id="patch_203">
    <path d="M 75.69875 263.518594 
L 75.69875 14.038594 
" style="fill: none; stroke: #000000; stroke-width: 0.8; stroke-linejoin: miter; stroke-linecap: square"/>
   </g>
   <g id="patch_204">
    <path d="M 410.49875 263.518594 
L 410.49875 14.038594 
" style="fill: none; stroke: #000000; stroke-width: 0.8; stroke-linejoin: miter; stroke-linecap: square"/>
   </g>
   <g id="patch_205">
    <path d="M 75.69875 263.518594 
L 410.49875 263.518594 
" style="fill: none; stroke: #000000; stroke-width: 0.8; stroke-linejoin: miter; stroke-linecap: square"/>
   </g>
   <g id="patch_206">
    <path d="M 75.69875 14.038594 
L 410.49875 14.038594 
" style="fill: none; stroke: #000000; stroke-width: 0.8; stroke-linejoin: miter; stroke-linecap: square"/>
   </g>
   <g id="legend_1">
    <g id="patch_207">
     <path d="M 257.465 81.279844 
L 397.89875 81.279844 
Q 401.49875 81.279844 401.49875 77.679844 
L 401.49875 26.638594 
Q 401.49875 23.038594 397.89875 23.038594 
L 257.465 23.038594 
Q 253.865 23.038594 253.865 26.638594 
L 253.865 77.679844 
Q 253.865 81.279844 257.465 81.279844 
z
" style="fill: #ffffff; opacity: 0.8; stroke: #cccccc; stroke-linejoin: miter"/>
    </g>
    <g id="patch_208">
     <path d="M 261.065 43.915781 
L 297.065 43.915781 
L 297.065 31.315781 
L 261.065 31.315781 
z
" style="fill: #00a4ef; fill-opacity: 0.5"/>
    </g>
    <g id="text_21">
     <!-- Downlink -->
     <g transform="translate(311.465 43.915781) scale(0.18 -0.18)">
      <defs>
       <path id="DejaVuSans-44" d="M 1259 4147 
L 1259 519 
L 2022 519 
Q 2988 519 3436 956 
Q 3884 1394 3884 2338 
Q 3884 3275 3436 3711 
Q 2988 4147 2022 4147 
L 1259 4147 
z
M 628 4666 
L 1925 4666 
Q 3281 4666 3915 4102 
Q 4550 3538 4550 2338 
Q 4550 1131 3912 565 
Q 3275 0 1925 0 
L 628 0 
L 628 4666 
z
" transform="scale(0.015625)"/>
       <path id="DejaVuSans-6b" d="M 581 4863 
L 1159 4863 
L 1159 1991 
L 2875 3500 
L 3609 3500 
L 1753 1863 
L 3688 0 
L 2938 0 
L 1159 1709 
L 1159 0 
L 581 0 
L 581 4863 
z
" transform="scale(0.015625)"/>
      </defs>
      <use xlink:href="#DejaVuSans-44"/>
      <use xlink:href="#DejaVuSans-6f" x="77.001953"/>
      <use xlink:href="#DejaVuSans-77" x="138.183594"/>
      <use xlink:href="#DejaVuSans-6e" x="219.970703"/>
      <use xlink:href="#DejaVuSans-6c" x="283.349609"/>
      <use xlink:href="#DejaVuSans-69" x="311.132812"/>
      <use xlink:href="#DejaVuSans-6e" x="338.916016"/>
      <use xlink:href="#DejaVuSans-6b" x="402.294922"/>
     </g>
    </g>
    <g id="patch_209">
     <path d="M 261.065 70.336406 
L 297.065 70.336406 
L 297.065 57.736406 
L 261.065 57.736406 
z
" style="fill: #f25022; fill-opacity: 0.5"/>
    </g>
    <g id="text_22">
     <!-- Uplink -->
     <g transform="translate(311.465 70.336406) scale(0.18 -0.18)">
      <defs>
       <path id="DejaVuSans-55" d="M 556 4666 
L 1191 4666 
L 1191 1831 
Q 1191 1081 1462 751 
Q 1734 422 2344 422 
Q 2950 422 3222 751 
Q 3494 1081 3494 1831 
L 3494 4666 
L 4128 4666 
L 4128 1753 
Q 4128 841 3676 375 
Q 3225 -91 2344 -91 
Q 1459 -91 1007 375 
Q 556 841 556 1753 
L 556 4666 
z
" transform="scale(0.015625)"/>
       <path id="DejaVuSans-70" d="M 1159 525 
L 1159 -1331 
L 581 -1331 
L 581 3500 
L 1159 3500 
L 1159 2969 
Q 1341 3281 1617 3432 
Q 1894 3584 2278 3584 
Q 2916 3584 3314 3078 
Q 3713 2572 3713 1747 
Q 3713 922 3314 415 
Q 2916 -91 2278 -91 
Q 1894 -91 1617 61 
Q 1341 213 1159 525 
z
M 3116 1747 
Q 3116 2381 2855 2742 
Q 2594 3103 2138 3103 
Q 1681 3103 1420 2742 
Q 1159 2381 1159 1747 
Q 1159 1113 1420 752 
Q 1681 391 2138 391 
Q 2594 391 2855 752 
Q 3116 1113 3116 1747 
z
" transform="scale(0.015625)"/>
      </defs>
      <use xlink:href="#DejaVuSans-55"/>
      <use xlink:href="#DejaVuSans-70" x="73.193359"/>
      <use xlink:href="#DejaVuSans-6c" x="136.669922"/>
      <use xlink:href="#DejaVuSans-69" x="164.453125"/>
      <use xlink:href="#DejaVuSans-6e" x="192.236328"/>
      <use xlink:href="#DejaVuSans-6b" x="255.615234"/>
     </g>
    </g>
   </g>
  </g>
 </g>
 <defs>
  <clipPath id="p6c671c4377">
   <rect x="75.69875" y="14.038594" width="334.8" height="249.48"/>
  </clipPath>
 </defs>
</svg>
