<svg width="878" height="262" xmlns="http://www.w3.org/2000/svg" xmlns:xlink="http://www.w3.org/1999/xlink" xml:space="preserve" overflow="hidden"><defs><clipPath id="clip0"><rect x="199" y="106" width="878" height="262"/></clipPath><linearGradient x1="-9.01743e-10" y1="656.487" x2="63.531" y2="656.487" gradientUnits="userSpaceOnUse" spreadMethod="pad" id="fill1"><stop offset="0" stop-color="#FFFFFF"/><stop offset="0.5" stop-color="#B5C6E7"/><stop offset="1" stop-color="#90AADB"/></linearGradient><linearGradient x1="-9.01743e-10" y1="656.487" x2="63.531" y2="656.487" gradientUnits="userSpaceOnUse" spreadMethod="pad" id="fill2"><stop offset="0" stop-color="#90AADB"/><stop offset="0.5" stop-color="#305497"/><stop offset="1" stop-color="#203864"/></linearGradient><linearGradient x1="-9.01743e-10" y1="656.487" x2="63.531" y2="656.487" gradientUnits="userSpaceOnUse" spreadMethod="pad" id="fill3"><stop offset="0" stop-color="#FFFFFF"/><stop offset="0.5" stop-color="#B5C6E7"/><stop offset="1" stop-color="#90AADB"/></linearGradient><linearGradient x1="-9.01743e-10" y1="656.487" x2="63.531" y2="656.487" gradientUnits="userSpaceOnUse" spreadMethod="pad" id="fill4"><stop offset="0" stop-color="#90AADB"/><stop offset="0.5" stop-color="#305497"/><stop offset="1" stop-color="#203864"/></linearGradient><linearGradient x1="-9.01743e-10" y1="656.487" x2="63.531" y2="656.487" gradientUnits="userSpaceOnUse" spreadMethod="pad" id="fill5"><stop offset="0" stop-color="#FFFFFF"/><stop offset="0.5" stop-color="#B5C6E7"/><stop offset="1" stop-color="#90AADB"/></linearGradient><linearGradient x1="-9.01743e-10" y1="656.487" x2="63.531" y2="656.487" gradientUnits="userSpaceOnUse" spreadMethod="pad" id="fill6"><stop offset="0" stop-color="#FFFFFF"/><stop offset="0.5" stop-color="#B5C6E7"/><stop offset="1" stop-color="#90AADB"/></linearGradient><linearGradient x1="-9.01743e-10" y1="656.487" x2="63.531" y2="656.487" gradientUnits="userSpaceOnUse" spreadMethod="pad" id="fill7"><stop offset="0" stop-color="#FFFFFF"/><stop offset="0.5" stop-color="#B5C6E7"/><stop offset="1" stop-color="#90AADB"/></linearGradient><linearGradient x1="-2.25576e-07" y1="656.487" x2="84.708" y2="656.487" gradientUnits="userSpaceOnUse" spreadMethod="pad" id="fill8"><stop offset="0" stop-color="#FFFFFF"/><stop offset="1" stop-color="#D8D8D8"/></linearGradient></defs><g clip-path="url(#clip0)" transform="translate(-199 -106)"><path d="M0 514.601 330.141 514.601 330.141 720.018 7.75524e-06 720.018Z" stroke="#90AADB" stroke-width="1.76475" stroke-linecap="square" stroke-miterlimit="3" fill="none" fill-rule="evenodd" transform="matrix(1.00091 0 0 1 735.463 -379.076)"/><path d="M0 514.601 237.182 514.601 237.182 720.018 7.18078e-06 720.018Z" stroke="#90AADB" stroke-width="1.76475" stroke-linecap="square" stroke-miterlimit="3" fill="none" fill-rule="evenodd" transform="matrix(1.00091 0 0 1 476.869 -379.076)"/><path d="M0 514.601 154.592 514.601 154.592 720.018-7.18078e-06 720.018Z" stroke="#90AADB" stroke-width="1.76475" stroke-linecap="square" stroke-miterlimit="3" fill="none" fill-rule="evenodd" transform="matrix(1.00091 0 0 1 309.419 -379.076)"/><path d="M0 514.601 88.9434 514.601 88.9434 720.018-1.7952e-06 720.018Z" stroke="#90AADB" stroke-width="1.76475" stroke-linecap="square" stroke-miterlimit="3" fill="none" fill-rule="evenodd" transform="matrix(1.00091 0 0 1 201.318 -379.076)"/><path d="M0 720.018 774.678 720.018 774.678 479.788 0 479.788 0 720.018Z" stroke="#000000" stroke-width="1.1765" stroke-linecap="square" stroke-miterlimit="3" stroke-dasharray="8.2355 5.8825" fill="none" fill-rule="evenodd" transform="matrix(1.00091 0 0 1 299.88 -354.062)"/><text fill="#203864" font-family="Times New Roman,Times New Roman_MSFontService,sans-serif" font-weight="700" font-size="14" transform="matrix(1.17757 0 0 1.1765 544.779 173)">Control</text><path d="M0 720.018 38.1186 720.018" stroke="#7F7F7F" stroke-width="1.76475" stroke-linecap="round" stroke-linejoin="round" stroke-miterlimit="3" fill="none" fill-rule="evenodd" transform="matrix(-1.00091 1.22465e-16 -1.22576e-16 -1 917.747 1016.49)"/><path d="M7.1557-3.72504C5.58265-1.47844 3.04579-0.101043 0.304877-0.00532249L0.304861 0.00532062C3.04578 0.101033 5.58261 1.47843 7.1557 3.72502" stroke="#7F7F7F" stroke-width="1.76475" stroke-linecap="round" stroke-linejoin="round" stroke-miterlimit="3" fill="none" fill-rule="evenodd" transform="matrix(-1.00091 1.22465e-16 -1.22576e-16 -1 917.747 296.47)"/><path d="M7.1557-3.72504C5.58265-1.47844 3.04579-0.101043 0.304877-0.00532249L0.304861 0.00532062C3.04578 0.101033 5.58261 1.47843 7.1557 3.72502" stroke="#7F7F7F" stroke-width="1.76475" stroke-linecap="round" stroke-linejoin="round" stroke-miterlimit="3" fill="none" fill-rule="evenodd" transform="matrix(1.00091 -1.22465e-16 1.22576e-16 1 879.594 296.47)"/><path d="M6.3531 720.018 57.1779 720.018C60.6865 720.018 63.5309 717.173 63.531 713.665 63.531 713.665 63.531 713.665 63.531 713.664L63.531 662.84C63.531 659.331 60.6867 656.487 57.1781 656.487 57.178 656.487 57.1779 656.487 57.1779 656.487L6.3531 656.487C2.84444 656.487 5.85913e-05 659.331 1.122e-07 662.84 1.11023e-07 662.84 1.11023e-07 662.84 1.122e-07 662.84L0 713.664C-5.84791e-05 717.173 2.84422 720.018 6.35288 720.018 6.35296 720.018 6.35303 720.018 6.3531 720.018Z" stroke="#203864" stroke-width="0.882375" stroke-linecap="square" stroke-miterlimit="3" fill="url(#fill1)" fill-rule="evenodd" transform="matrix(1.00091 0 0 1 214.036 -391.782)"/><text fill="#203864" font-family="Times New Roman,Times New Roman_MSFontService,sans-serif" font-weight="400" font-size="14" transform="matrix(1.17757 0 0 1.1765 230.263 292)">User</text><text fill="#203864" font-family="Times New Roman,Times New Roman_MSFontService,sans-serif" font-weight="400" font-size="14" transform="matrix(1.17757 0 0 1.1765 227.519 311)">Plane</text><path d="M6.3531 720.018 57.1779 720.018C60.6865 720.018 63.5309 717.173 63.531 713.665 63.531 713.665 63.531 713.665 63.531 713.664L63.531 662.84C63.531 659.331 60.6867 656.487 57.1781 656.487 57.178 656.487 57.1779 656.487 57.1779 656.487L6.3531 656.487C2.84444 656.487 5.85913e-05 659.331 1.122e-07 662.84 1.11023e-07 662.84 1.11023e-07 662.84 1.122e-07 662.84L0 713.664C-5.84791e-05 717.173 2.84422 720.018 6.35288 720.018 6.35296 720.018 6.35303 720.018 6.3531 720.018Z" stroke="#203864" stroke-width="0.882375" stroke-linecap="square" stroke-miterlimit="3" fill="url(#fill2)" fill-rule="evenodd" transform="matrix(1.00091 0 0 1 214.036 -508.256)"/><text fill="#FFFFFF" font-family="Times New Roman,Times New Roman_MSFontService,sans-serif" font-weight="400" font-size="14" transform="matrix(1.17757 0 0 1.1765 220.642 175)">Control</text><text fill="#FFFFFF" font-family="Times New Roman,Times New Roman_MSFontService,sans-serif" font-weight="400" font-size="14" transform="matrix(1.17757 0 0 1.1765 227.519 195)">Plane</text><path d="M0 720.018 35.2126 720.018" stroke="#7F7F7F" stroke-width="1.76475" stroke-linecap="round" stroke-linejoin="round" stroke-miterlimit="3" fill="none" fill-rule="evenodd" transform="matrix(-1.00091 1.22465e-16 -1.22576e-16 -1 1033.53 1016.49)"/><path d="M7.1557-3.72504C5.58265-1.47844 3.04579-0.101043 0.304877-0.00532249L0.304861 0.00532062C3.04578 0.101033 5.58261 1.47843 7.1557 3.72502" stroke="#7F7F7F" stroke-width="1.76475" stroke-linecap="round" stroke-linejoin="round" stroke-miterlimit="3" fill="none" fill-rule="evenodd" transform="matrix(-1.00091 1.22465e-16 -1.22576e-16 -1 1033.53 296.47)"/><path d="M7.1557-3.72504C5.58265-1.47844 3.04579-0.101043 0.304877-0.00532249L0.304861 0.00532062C3.04578 0.101033 5.58261 1.47843 7.1557 3.72502" stroke="#7F7F7F" stroke-width="1.76475" stroke-linecap="round" stroke-linejoin="round" stroke-miterlimit="3" fill="none" fill-rule="evenodd" transform="matrix(1.00091 -1.22465e-16 1.22576e-16 1 998.29 296.47)"/><path d="M0 720.018 38.1186 720.018" stroke="#203864" stroke-width="1.76475" stroke-linecap="round" stroke-linejoin="round" stroke-miterlimit="3" fill="none" fill-rule="evenodd" transform="matrix(-1.00091 1.22465e-16 -1.22576e-16 -1 794.809 1016.49)"/><path d="M7.1557-3.72504C5.58265-1.47844 3.04579-0.101043 0.304877-0.00532249L0.304861 0.00532062C3.04578 0.101033 5.58261 1.47843 7.1557 3.72502" stroke="#203864" stroke-width="1.76475" stroke-linecap="round" stroke-linejoin="round" stroke-miterlimit="3" fill="none" fill-rule="evenodd" transform="matrix(-1.00091 1.22465e-16 -1.22576e-16 -1 794.809 296.47)"/><path d="M7.1557-3.72504C5.58265-1.47844 3.04579-0.101043 0.304877-0.00532249L0.304861 0.00532062C3.04578 0.101033 5.58261 1.47843 7.1557 3.72502" stroke="#203864" stroke-width="1.76475" stroke-linecap="round" stroke-linejoin="round" stroke-miterlimit="3" fill="none" fill-rule="evenodd" transform="matrix(1.00091 -1.22465e-16 1.22576e-16 1 756.655 296.47)"/><path d="M0 720.018 38.1186 720.018" stroke="#203864" stroke-width="1.76475" stroke-linecap="round" stroke-linejoin="round" stroke-miterlimit="3" fill="none" fill-rule="evenodd" transform="matrix(-1.00091 1.22465e-16 -1.22576e-16 -1 693.067 1016.49)"/><path d="M7.1557-3.72504C5.58265-1.47844 3.04579-0.101043 0.304877-0.00532249L0.304861 0.00532062C3.04578 0.101033 5.58261 1.47843 7.1557 3.72502" stroke="#203864" stroke-width="1.76475" stroke-linecap="round" stroke-linejoin="round" stroke-miterlimit="3" fill="none" fill-rule="evenodd" transform="matrix(-1.00091 1.22465e-16 -1.22576e-16 -1 693.067 296.47)"/><path d="M7.1557-3.72504C5.58265-1.47844 3.04579-0.101043 0.304877-0.00532249L0.304861 0.00532062C3.04578 0.101033 5.58261 1.47843 7.1557 3.72502" stroke="#203864" stroke-width="1.76475" stroke-linecap="round" stroke-linejoin="round" stroke-miterlimit="3" fill="none" fill-rule="evenodd" transform="matrix(1.00091 -1.22465e-16 1.22576e-16 1 654.914 296.47)"/><path d="M0 720.018 38.1186 720.018" stroke="#203864" stroke-width="1.76475" stroke-linecap="round" stroke-linejoin="round" stroke-miterlimit="3" fill="none" fill-rule="evenodd" transform="matrix(-1.00091 1.22465e-16 -1.22576e-16 -1 591.325 1016.49)"/><path d="M7.1557-3.72504C5.58265-1.47844 3.04579-0.101043 0.304877-0.00532249L0.304861 0.00532062C3.04578 0.101033 5.58261 1.47843 7.1557 3.72502" stroke="#203864" stroke-width="1.76475" stroke-linecap="round" stroke-linejoin="round" stroke-miterlimit="3" fill="none" fill-rule="evenodd" transform="matrix(-1.00091 1.22465e-16 -1.22576e-16 -1 591.325 296.47)"/><path d="M7.1557-3.72504C5.58265-1.47844 3.04579-0.101043 0.304877-0.00532249L0.304861 0.00532062C3.04578 0.101033 5.58261 1.47843 7.1557 3.72502" stroke="#203864" stroke-width="1.76475" stroke-linecap="round" stroke-linejoin="round" stroke-miterlimit="3" fill="none" fill-rule="evenodd" transform="matrix(1.00091 -1.22465e-16 1.22576e-16 1 553.172 296.47)"/><path d="M0 720.018 38.1186 720.018" stroke="#203864" stroke-width="1.76475" stroke-linecap="round" stroke-linejoin="round" stroke-miterlimit="3" fill="none" fill-rule="evenodd" transform="matrix(-1.00091 1.22465e-16 -1.22576e-16 -1 489.583 1016.49)"/><path d="M7.1557-3.72504C5.58265-1.47844 3.04579-0.101043 0.304877-0.00532249L0.304861 0.00532062C3.04578 0.101033 5.58261 1.47843 7.1557 3.72502" stroke="#203864" stroke-width="1.76475" stroke-linecap="round" stroke-linejoin="round" stroke-miterlimit="3" fill="none" fill-rule="evenodd" transform="matrix(-1.00091 1.22465e-16 -1.22576e-16 -1 489.583 296.47)"/><path d="M7.1557-3.72504C5.58265-1.47844 3.04579-0.101043 0.304877-0.00532249L0.304861 0.00532062C3.04578 0.101033 5.58261 1.47843 7.1557 3.72502" stroke="#203864" stroke-width="1.76475" stroke-linecap="round" stroke-linejoin="round" stroke-miterlimit="3" fill="none" fill-rule="evenodd" transform="matrix(1.00091 -1.22465e-16 1.22576e-16 1 451.43 296.47)"/><path d="M0 720.018 110.12 720.018" stroke="#203864" stroke-width="1.76475" stroke-linecap="round" stroke-linejoin="round" stroke-miterlimit="3" fill="none" fill-rule="evenodd" transform="matrix(-1.00091 1.22465e-16 -1.22576e-16 -1 387.841 1016.49)"/><path d="M7.1557-3.72504C5.58265-1.47844 3.04579-0.101043 0.304877-0.00532249L0.304861 0.00532062C3.04578 0.101033 5.58261 1.47843 7.1557 3.72502" stroke="#203864" stroke-width="1.76475" stroke-linecap="round" stroke-linejoin="round" stroke-miterlimit="3" fill="none" fill-rule="evenodd" transform="matrix(-1.00091 1.22465e-16 -1.22576e-16 -1 387.841 296.47)"/><path d="M7.1557-3.72504C5.58265-1.47844 3.04579-0.101043 0.304877-0.00532249L0.304861 0.00532062C3.04578 0.101033 5.58261 1.47843 7.1557 3.72502" stroke="#203864" stroke-width="1.76475" stroke-linecap="round" stroke-linejoin="round" stroke-miterlimit="3" fill="none" fill-rule="evenodd" transform="matrix(1.00091 -1.22465e-16 1.22576e-16 1 277.621 296.47)"/><path d="M0 720.018 44.4717 720.018" stroke="#203864" stroke-width="1.76475" stroke-linecap="round" stroke-linejoin="round" stroke-miterlimit="3" fill="none" fill-rule="evenodd" transform="matrix(-1.00091 1.22465e-16 -1.22576e-16 -1 322.136 900.014)"/><path d="M7.1557-3.72504C5.58265-1.47844 3.04579-0.101043 0.304877-0.00532249L0.304861 0.00532062C3.04578 0.101033 5.58261 1.47843 7.1557 3.72502" stroke="#203864" stroke-width="1.76475" stroke-linecap="round" stroke-linejoin="round" stroke-miterlimit="3" fill="none" fill-rule="evenodd" transform="matrix(-1.00091 1.22465e-16 -1.22576e-16 -1 322.136 179.996)"/><path d="M7.1557-3.72504C5.58265-1.47844 3.04579-0.101043 0.304877-0.00532249L0.304861 0.00532062C3.04578 0.101033 5.58261 1.47843 7.1557 3.72502" stroke="#203864" stroke-width="1.76475" stroke-linecap="round" stroke-linejoin="round" stroke-miterlimit="3" fill="none" fill-rule="evenodd" transform="matrix(1.00091 -1.22465e-16 1.22576e-16 1 277.624 179.996)"/><path d="M0 720.018 338.832 720.018 338.832 794.972" stroke="#203864" stroke-width="1.76475" stroke-linecap="round" stroke-linejoin="round" stroke-miterlimit="3" stroke-dasharray="1.76475 3.5295" fill="none" fill-rule="evenodd" transform="matrix(1.00091 0 0 1 385.725 -540.021)"/><path d="M11.1532 5.57661 0 0 11.0482-5.53973C9.32258-2.03276 9.32972 2.07807 11.0676 5.579" fill="#203864" fill-rule="evenodd" transform="matrix(-6.1288e-17 -1 1.00091 -6.12323e-17 724.865 264.71)"/><path d="M9.32964 720.018 9.75318 720.018 84.708 720.018" stroke="#203864" stroke-width="1.76475" stroke-linecap="round" stroke-linejoin="round" stroke-miterlimit="3" stroke-dasharray="1.76475 3.5295" fill="none" fill-rule="evenodd" transform="matrix(6.12879e-17 -1 1.00091 6.12323e-17 -301.036 264.704)"/><path d="M11.1532 5.57661 0 0 11.0482-5.53973C9.32258-2.03276 9.32972 2.07807 11.0676 5.579" fill="#203864" fill-rule="evenodd" transform="matrix(6.1288e-17 -1 1.00091 6.12323e-17 419.636 264.71)"/><path d="M9.32964 720.018 9.75318 720.018 84.708 720.018" stroke="#203864" stroke-width="1.76475" stroke-linecap="round" stroke-linejoin="round" stroke-miterlimit="3" stroke-dasharray="1.76475 3.5295" fill="none" fill-rule="evenodd" transform="matrix(6.12879e-17 -1 1.00091 6.12323e-17 -199.294 264.704)"/><path d="M11.1532 5.57661 0 0 11.0482-5.53973C9.32258-2.03276 9.32972 2.07807 11.0676 5.579" fill="#203864" fill-rule="evenodd" transform="matrix(6.1288e-17 -1 1.00091 6.12323e-17 521.377 264.71)"/><path d="M9.32964 720.018 9.75318 720.018 84.708 720.018" stroke="#203864" stroke-width="1.76475" stroke-linecap="round" stroke-linejoin="round" stroke-miterlimit="3" stroke-dasharray="1.76475 3.5295" fill="none" fill-rule="evenodd" transform="matrix(6.12879e-17 -1 1.00091 6.12323e-17 -97.5522 264.704)"/><path d="M11.1532 5.57661 0 0 11.0482-5.53973C9.32258-2.03276 9.32972 2.07807 11.0676 5.579" fill="#203864" fill-rule="evenodd" transform="matrix(6.1288e-17 -1 1.00091 6.12323e-17 623.119 264.71)"/><path d="M6.3531 720.018 57.1779 720.018C60.6865 720.018 63.5309 717.173 63.531 713.665 63.531 713.665 63.531 713.665 63.531 713.664L63.531 662.84C63.531 659.331 60.6867 656.487 57.1781 656.487 57.178 656.487 57.1779 656.487 57.1779 656.487L6.3531 656.487C2.84444 656.487 5.85913e-05 659.331 1.122e-07 662.84 1.11023e-07 662.84 1.11023e-07 662.84 1.122e-07 662.84L0 713.664C-5.84791e-05 717.173 2.84422 720.018 6.35288 720.018 6.35296 720.018 6.35303 720.018 6.3531 720.018Z" stroke="#203864" stroke-width="0.882375" stroke-linecap="square" stroke-miterlimit="3" fill="url(#fill3)" fill-rule="evenodd" transform="matrix(1.00091 0 0 1 387.841 -391.782)"/><text fill="#203864" font-family="Times New Roman,Times New Roman_MSFontService,sans-serif" font-weight="400" font-size="14" transform="matrix(1.17757 0 0 1.1765 399.016 301)">PDCP</text><path d="M6.3531 720.018 57.1779 720.018C60.6865 720.018 63.5309 717.173 63.531 713.665 63.531 713.665 63.531 713.665 63.531 713.664L63.531 662.84C63.531 659.331 60.6867 656.487 57.1781 656.487 57.178 656.487 57.1779 656.487 57.1779 656.487L6.3531 656.487C2.84444 656.487 5.85913e-05 659.331 1.122e-07 662.84 1.11023e-07 662.84 1.11023e-07 662.84 1.122e-07 662.84L0 713.664C-5.84791e-05 717.173 2.84422 720.018 6.35288 720.018 6.35296 720.018 6.35303 720.018 6.3531 720.018Z" stroke="#203864" stroke-width="0.882375" stroke-linecap="square" stroke-miterlimit="3" fill="url(#fill4)" fill-rule="evenodd" transform="matrix(1.00091 0 0 1 322.136 -508.256)"/><text fill="#FFFFFF" font-family="Times New Roman,Times New Roman_MSFontService,sans-serif" font-weight="400" font-size="14" transform="matrix(1.17757 0 0 1.1765 337.433 185)">RRC</text><path d="M6.3531 720.018 57.1779 720.018C60.6865 720.018 63.5309 717.173 63.531 713.665 63.531 713.665 63.531 713.665 63.531 713.664L63.531 662.84C63.531 659.331 60.6867 656.487 57.1781 656.487 57.178 656.487 57.1779 656.487 57.1779 656.487L6.3531 656.487C2.84444 656.487 5.85913e-05 659.331 1.122e-07 662.84 1.11023e-07 662.84 1.11023e-07 662.84 1.122e-07 662.84L0 713.664C-5.84791e-05 717.173 2.84422 720.018 6.35288 720.018 6.35296 720.018 6.35303 720.018 6.3531 720.018Z" stroke="#203864" stroke-width="0.882375" stroke-linecap="square" stroke-miterlimit="3" fill="url(#fill5)" fill-rule="evenodd" transform="matrix(1.00091 0 0 1 693.067 -391.782)"/><text fill="#203864" font-family="Times New Roman,Times New Roman_MSFontService,sans-serif" font-weight="400" font-size="14" transform="matrix(1.17757 0 0 1.1765 708.375 301)">PHY</text><path d="M6.3531 720.018 57.1779 720.018C60.6865 720.018 63.5309 717.173 63.531 713.665 63.531 713.665 63.531 713.665 63.531 713.664L63.531 662.84C63.531 659.331 60.6867 656.487 57.1781 656.487 57.178 656.487 57.1779 656.487 57.1779 656.487L6.3531 656.487C2.84444 656.487 5.85913e-05 659.331 1.122e-07 662.84 1.11023e-07 662.84 1.11023e-07 662.84 1.122e-07 662.84L0 713.664C-5.84791e-05 717.173 2.84422 720.018 6.35288 720.018 6.35296 720.018 6.35303 720.018 6.3531 720.018Z" stroke="#203864" stroke-width="0.882375" stroke-linecap="square" stroke-miterlimit="3" fill="url(#fill6)" fill-rule="evenodd" transform="matrix(1.00091 0 0 1 591.325 -391.782)"/><text fill="#203864" font-family="Times New Roman,Times New Roman_MSFontService,sans-serif" font-weight="400" font-size="14" transform="matrix(1.17757 0 0 1.1765 604.337 301)">MAC</text><path d="M6.3531 720.018 57.1779 720.018C60.6865 720.018 63.5309 717.173 63.531 713.665 63.531 713.665 63.531 713.665 63.531 713.664L63.531 662.84C63.531 659.331 60.6867 656.487 57.1781 656.487 57.178 656.487 57.1779 656.487 57.1779 656.487L6.3531 656.487C2.84444 656.487 5.85913e-05 659.331 1.122e-07 662.84 1.11023e-07 662.84 1.11023e-07 662.84 1.122e-07 662.84L0 713.664C-5.84791e-05 717.173 2.84422 720.018 6.35288 720.018 6.35296 720.018 6.35303 720.018 6.3531 720.018Z" stroke="#203864" stroke-width="0.882375" stroke-linecap="square" stroke-miterlimit="3" fill="url(#fill7)" fill-rule="evenodd" transform="matrix(1.00091 0 0 1 489.583 -391.782)"/><text fill="#203864" font-family="Times New Roman,Times New Roman_MSFontService,sans-serif" font-weight="400" font-size="14" transform="matrix(1.17757 0 0 1.1765 505.351 301)">RLC</text><path d="M0 720.018 113.826 720.018" stroke="#000000" stroke-width="1.76475" stroke-linecap="round" stroke-linejoin="round" stroke-miterlimit="3" fill="none" fill-rule="evenodd" transform="matrix(6.12879e-17 1 -1.00091 6.12323e-17 1755 199.585)"/><path d="M0 708.547 14.8239 708.547 14.8239 720.018 4.48799e-07 720.018Z" fill-rule="evenodd" transform="matrix(6.12879e-17 1 -1.00091 6.12323e-17 1749.25 313.411)"/><path d="M0 720.018 24.4124 720.018" stroke="#000000" stroke-width="3.5295" stroke-linecap="round" stroke-linejoin="round" stroke-miterlimit="3" fill="none" fill-rule="evenodd" transform="matrix(6.12879e-17 1 -1.00091 6.12323e-17 1749.07 199.585)"/><path d="M0 720.018 24.4124 720.018" stroke="#000000" stroke-width="3.5295" stroke-linecap="round" stroke-linejoin="round" stroke-miterlimit="3" fill="none" fill-rule="evenodd" transform="matrix(6.12879e-17 1 -1.00091 6.12323e-17 1760.94 199.585)"/><path d="M3.77656 705.605C3.77656 701.417 5.01189 697.358 7.36489 693.899 8.24726 692.558 6.25898 691.193 5.32954 692.523 0 700.194 0 711.029 5.32954 718.7 6.25898 720.018 8.24726 718.676 7.36489 717.312 5.02365 713.853 3.77656 709.806 3.77656 705.605L3.77656 705.605Z" fill="#7F7F7F" fill-rule="evenodd" transform="matrix(1.00091 0 0 1 1009.61 -493.813)"/><path d="M4.77659 699.017C4.21187 698.641 3.44714 698.782 3.07066 699.346 1.05885 702.311 0 705.758 0 709.335 0 712.888 1.05885 716.347 3.07066 719.312 3.44714 719.876 4.22363 720.018 4.77659 719.641 5.34131 719.265 5.48249 718.5 5.10601 717.935 3.37655 715.37 2.45888 712.406 2.45888 709.335 2.45888 706.264 3.37655 703.288 5.10601 700.735 5.48249 700.17 5.34131 699.405 4.77659 699.017L4.77659 699.017Z" fill="#7F7F7F" fill-rule="evenodd" transform="matrix(1.00091 0 0 1 1016.48 -497.533)"/><path d="M2.91772 693.276C1.98828 691.958 0 693.299 0.882375 694.652 5.6472 701.511 5.6472 711.206 0.882375 718.065 0.317655 718.853 0.952964 720.018 1.90593 719.994 2.29417 719.994 2.68242 719.806 2.91772 719.453 8.24726 711.782 8.24726 700.947 2.91772 693.276L2.91772 693.276Z" fill="#7F7F7F" fill-rule="evenodd" transform="matrix(1.00091 0 0 1 1050.78 -494.564)"/><path d="M2.91772 699.488C1.98828 698.17 0 699.511 0.882375 700.864 4.40011 705.935 4.40011 712.994 0.882375 718.065 0.317655 718.853 0.952964 720.018 1.90593 719.994 2.29417 719.994 2.68242 719.806 2.92948 719.453 7.00017 713.559 7.00017 705.37 2.92948 699.488L2.91772 699.488Z" fill="#7F7F7F" fill-rule="evenodd" transform="matrix(1.00091 0 0 1 1046.18 -497.672)"/><path d="M8.04726 720.018 72.4253 720.018C76.8696 720.018 80.4725 716.415 80.4726 711.971 80.4726 711.971 80.4726 711.97 80.4726 711.97L80.4726 664.534C80.4726 660.09 76.8699 656.487 72.4256 656.487 72.4255 656.487 72.4254 656.487 72.4253 656.487L8.04726 656.487C3.60295 656.487 7.1654e-05 660.089 1.7952e-07 664.534 1.78132e-07 664.534 1.78132e-07 664.534 1.7952e-07 664.534L0 711.97C-7.14745e-05 716.415 3.60269 720.018 8.047 720.018 8.04708 720.018 8.04717 720.018 8.04726 720.018Z" stroke="#000000" stroke-width="0.882375" stroke-linecap="square" stroke-miterlimit="3" fill="#F2F2F2" fill-rule="evenodd" transform="matrix(1.00091 0 0 1 917.747 -391.782)"/><text font-family="Times New Roman,Times New Roman_MSFontService,sans-serif" font-weight="400" font-size="14" transform="matrix(1.17757 0 0 1.1765 947.94 292)">RF </text><text font-family="Times New Roman,Times New Roman_MSFontService,sans-serif" font-weight="400" font-size="14" transform="matrix(1.17757 0 0 1.1765 924.824 311)">Front End</text><path d="M8.4708 720.018 76.2372 720.018C80.9154 720.018 84.7079 716.225 84.708 711.547 84.708 711.547 84.708 711.547 84.708 711.547L84.708 664.957C84.708 660.279 80.9157 656.487 76.2374 656.487 76.2374 656.487 76.2373 656.487 76.2372 656.487L8.4708 656.487C3.79258 656.487 7.77478e-05 660.279-2.24399e-07 664.957-2.25968e-07 664.957-2.25968e-07 664.957-2.24399e-07 664.957L0 711.547C-7.79722e-05 716.225 3.7923 720.018 8.47051 720.018 8.47061 720.018 8.4707 720.018 8.4708 720.018Z" stroke="#000000" stroke-width="0.882375" stroke-linecap="square" stroke-miterlimit="3" fill="url(#fill8)" fill-rule="evenodd" transform="matrix(1.00091 0 0 1 794.809 -391.782)"/><text font-family="Times New Roman,Times New Roman_MSFontService,sans-serif" font-weight="400" font-size="14" transform="matrix(1.17757 0 0 1.1765 823 292)">D</text><text font-family="Times New Roman,Times New Roman_MSFontService,sans-serif" font-weight="400" font-size="14" transform="matrix(1.17757 0 0 1.1765 834.775 292)">/</text><text font-family="Times New Roman,Times New Roman_MSFontService,sans-serif" font-weight="400" font-size="14" transform="matrix(1.17757 0 0 1.1765 839.486 292)">A</text><text font-family="Times New Roman,Times New Roman_MSFontService,sans-serif" font-weight="400" font-size="14" transform="matrix(1.17757 0 0 1.1765 804.241 311)">Converter</text><text fill="#203864" font-family="Times New Roman,Times New Roman_MSFontService,sans-serif" font-weight="700" font-size="14" transform="matrix(1.17757 0 0 1.1765 322.69 359)">Central Unit </text><text fill="#203864" font-family="Times New Roman,Times New Roman_MSFontService,sans-serif" font-weight="700" font-size="14" transform="matrix(1.17757 0 0 1.1765 418.073 359)">(</text><text fill="#203864" font-family="Times New Roman,Times New Roman_MSFontService,sans-serif" font-weight="700" font-size="14" transform="matrix(1.17757 0 0 1.1765 423.961 359)">CU</text><text fill="#203864" font-family="Times New Roman,Times New Roman_MSFontService,sans-serif" font-weight="700" font-size="14" transform="matrix(1.17757 0 0 1.1765 446.335 359)">)  </text><text fill="#203864" font-family="Times New Roman,Times New Roman_MSFontService,sans-serif" font-weight="700" font-size="14" transform="matrix(1.17757 0 0 1.1765 518.178 359)">Distributed Unit </text><text fill="#203864" font-family="Times New Roman,Times New Roman_MSFontService,sans-serif" font-weight="700" font-size="14" transform="matrix(1.17757 0 0 1.1765 639.467 359)">(</text><text fill="#203864" font-family="Times New Roman,Times New Roman_MSFontService,sans-serif" font-weight="700" font-size="14" transform="matrix(1.17757 0 0 1.1765 645.355 359)">DU</text><text fill="#203864" font-family="Times New Roman,Times New Roman_MSFontService,sans-serif" font-weight="700" font-size="14" transform="matrix(1.17757 0 0 1.1765 667.729 359)">)</text><text fill="#203864" font-family="Times New Roman,Times New Roman_MSFontService,sans-serif" font-weight="700" font-size="14" transform="matrix(1.17757 0 0 1.1765 842.523 359)">Radio Unit </text><text fill="#203864" font-family="Times New Roman,Times New Roman_MSFontService,sans-serif" font-weight="700" font-size="14" transform="matrix(1.17757 0 0 1.1765 923.775 359)">(</text><text fill="#203864" font-family="Times New Roman,Times New Roman_MSFontService,sans-serif" font-weight="700" font-size="14" transform="matrix(1.17757 0 0 1.1765 929.663 359)">RU</text><text fill="#203864" font-family="Times New Roman,Times New Roman_MSFontService,sans-serif" font-weight="700" font-size="14" transform="matrix(1.17757 0 0 1.1765 952.036 359)">)</text><text fill="#203864" font-family="Times New Roman,Times New Roman_MSFontService,sans-serif" font-weight="700" font-size="14" transform="matrix(1.17757 0 0 1.1765 201.648 359)">Mobile Core</text><text font-family="Times New Roman,Times New Roman_MSFontService,sans-serif" font-weight="700" font-size="14" transform="matrix(1.17757 0 0 1.1765 672.005 119)">gNB</text></g></svg>