<svg width="595" height="144" xmlns="http://www.w3.org/2000/svg" xmlns:xlink="http://www.w3.org/1999/xlink" xml:space="preserve" overflow="hidden"><defs><clipPath id="clip0"><rect x="421" y="214" width="595" height="144"/></clipPath><linearGradient x1="0" y1="601.415" x2="132.612" y2="601.415" gradientUnits="userSpaceOnUse" spreadMethod="pad" id="fill1"><stop offset="0" stop-color="#FFFFFF"/><stop offset="1" stop-color="#D8D8D8"/></linearGradient><linearGradient x1="-4.50424e-07" y1="601.415" x2="169.413" y2="601.415" gradientUnits="userSpaceOnUse" spreadMethod="pad" id="fill2"><stop offset="0" stop-color="#FFFFFF"/><stop offset="1" stop-color="#D8D8D8"/></linearGradient><linearGradient x1="-1.53939e-06" y1="683.545" x2="98.5417" y2="683.545" gradientUnits="userSpaceOnUse" spreadMethod="pad" id="fill3"><stop offset="0" stop-color="#C5E0B3"/><stop offset="0.5" stop-color="#E2EFD9"/><stop offset="1" stop-color="#FFFFFF"/></linearGradient><linearGradient x1="-1.53939e-06" y1="683.545" x2="98.5417" y2="683.545" gradientUnits="userSpaceOnUse" spreadMethod="pad" id="fill4"><stop offset="0" stop-color="#FFFFFF"/><stop offset="0.5" stop-color="#F4CCCC"/><stop offset="1" stop-color="#F0B9B9"/></linearGradient></defs><g clip-path="url(#clip0)" transform="translate(-421 -214)"><path d="M13.2589 720.004 119.354 720.004C126.676 720.002 132.611 714.067 132.612 706.745L132.612 614.674C132.611 607.352 126.676 601.416 119.354 601.415L13.2589 601.415C5.93683 601.416 0.00149438 607.352 5.38548e-07 614.674L0 706.745C0.00149384 714.067 5.93683 720.002 13.2589 720.004Z" stroke="#000000" stroke-width="0.882357" stroke-linecap="square" stroke-miterlimit="3" fill="url(#fill1)" fill-rule="evenodd" transform="matrix(1 0 0 1.00235 515.317 -365.603)"/><path d="M16.9413 720.004 152.471 720.004C161.828 720.004 169.413 712.419 169.413 703.063 169.413 703.063 169.413 703.063 169.413 703.062L169.413 618.356C169.413 609 161.828 601.415 152.472 601.415 152.472 601.415 152.472 601.415 152.471 601.415L16.9413 601.415C7.58499 601.415 0.000129502 608.999-4.4879e-07 618.356-4.50969e-07 618.356-4.50969e-07 618.356-4.4879e-07 618.356L0 703.062C-0.000129951 712.419 7.58452 720.004 16.9408 720.004 16.941 720.004 16.9411 720.004 16.9413 720.004Z" stroke="#000000" stroke-width="0.882357" stroke-linecap="square" stroke-miterlimit="3" fill="url(#fill2)" fill-rule="evenodd" transform="matrix(1 0 0 1.00235 798.818 -365.603)"/><path d="M0 720.167 26.0296 720.167" stroke="#7F7F7F" stroke-width="1.76511" stroke-linecap="round" stroke-linejoin="round" stroke-miterlimit="3" fill="none" fill-rule="evenodd" transform="matrix(0.950403 0.31102 -0.310291 0.952637 1076.13 -415.615)"/><path d="M7.15718-3.72581C5.58381-1.47875 3.04642-0.101064 0.30494-0.00532359L0.304924 0.00532173C3.04641 0.101054 5.58377 1.47873 7.15718 3.72579" stroke="#7F7F7F" stroke-width="1.76511" stroke-linecap="round" stroke-linejoin="round" stroke-miterlimit="3" fill="none" fill-rule="evenodd" transform="matrix(-0.950403 -0.31102 0.310291 -0.952637 877.406 278.539)"/><path d="M0 720.167 26.0296 720.167" stroke="#7F7F7F" stroke-width="1.76511" stroke-linecap="round" stroke-linejoin="round" stroke-miterlimit="3" fill="none" fill-rule="evenodd" transform="matrix(0.950403 -0.31102 0.310291 0.952637 629.206 -363.182)"/><path d="M7.15718-3.72581C5.58381-1.47875 3.04642-0.101064 0.30494-0.00532359L0.304924 0.00532173C3.04641 0.101054 5.58377 1.47873 7.15718 3.72579" stroke="#7F7F7F" stroke-width="1.76511" stroke-linecap="round" stroke-linejoin="round" stroke-miterlimit="3" fill="none" fill-rule="evenodd" transform="matrix(0.950403 -0.31102 0.310291 0.952637 852.667 322.876)"/><path d="M0 720.004 82.2239 720.004" stroke="#6AA84F" stroke-width="1.76471" stroke-linecap="round" stroke-linejoin="round" stroke-miterlimit="3" fill="none" fill-rule="evenodd" transform="matrix(1 0 0 1.00235 632.549 -449.969)"/><path d="M8.71678-4.53769C6.80055-1.80097 3.71026-0.123086 0.371388-0.00648363L0.371369 0.00648136C3.71024 0.123075 6.8005 1.80096 8.71678 4.53767" stroke="#6AA84F" stroke-width="1.76471" stroke-linecap="round" stroke-linejoin="round" stroke-miterlimit="3" fill="none" fill-rule="evenodd" transform="matrix(-1 0 0 -1.00235 714.773 271.727)"/><path d="M0 720.004 82.2239 720.004" stroke="#CC0000" stroke-width="1.76471" stroke-linecap="round" stroke-linejoin="round" stroke-miterlimit="3" fill="none" fill-rule="evenodd" transform="matrix(1 0 0 1.00235 632.549 -401.604)"/><path d="M8.71678-4.53769C6.80055-1.80097 3.71026-0.123086 0.371388-0.00648363L0.371369 0.00648136C3.71024 0.123075 6.8005 1.80096 8.71678 4.53767" stroke="#CC0000" stroke-width="1.76471" stroke-linecap="round" stroke-linejoin="round" stroke-miterlimit="3" fill="none" fill-rule="evenodd" transform="matrix(1 0 0 1.00235 632.549 320.092)"/><path d="M0 720.004 53.9297 720.004" stroke="#6AA84F" stroke-width="1.76471" stroke-linecap="round" stroke-linejoin="round" stroke-miterlimit="3" fill="none" fill-rule="evenodd" transform="matrix(-1 1.22753e-16 -1.22465e-16 -1.00235 809.737 992.138)"/><path d="M8.71678-4.53769C6.80055-1.80097 3.71026-0.123086 0.371388-0.00648363L0.371369 0.00648136C3.71024 0.123075 6.8005 1.80096 8.71678 4.53767" stroke="#6AA84F" stroke-width="1.76471" stroke-linecap="round" stroke-linejoin="round" stroke-miterlimit="3" fill="none" fill-rule="evenodd" transform="matrix(-1 1.22753e-16 -1.22465e-16 -1.00235 809.737 270.442)"/><path d="M0 720.004 53.6826 720.004" stroke="#CC0000" stroke-width="1.76471" stroke-linecap="round" stroke-linejoin="round" stroke-miterlimit="3" fill="none" fill-rule="evenodd" transform="matrix(-1 1.22753e-16 -1.22465e-16 -1.00235 809.737 1044.57)"/><path d="M8.71678-4.53769C6.80055-1.80097 3.71026-0.123086 0.371388-0.00648363L0.371369 0.00648136C3.71024 0.123075 6.8005 1.80096 8.71678 4.53767" stroke="#CC0000" stroke-width="1.76471" stroke-linecap="round" stroke-linejoin="round" stroke-miterlimit="3" fill="none" fill-rule="evenodd" transform="matrix(1 -1.22753e-16 1.22465e-16 1.00235 756.054 322.876)"/><path d="M0 720.004 84.9769 720.004" stroke="#3333B3" stroke-width="1.76471" stroke-linecap="round" stroke-linejoin="round" stroke-miterlimit="3" fill="none" fill-rule="evenodd" transform="matrix(-1 1.22753e-16 -1.22465e-16 -1.00235 530.14 993.422)"/><path d="M8.71678-4.53769C6.80055-1.80097 3.71026-0.123086 0.371388-0.00648363L0.371369 0.00648136C3.71024 0.123075 6.8005 1.80096 8.71678 4.53767" stroke="#3333B3" stroke-width="1.76471" stroke-linecap="round" stroke-linejoin="round" stroke-miterlimit="3" fill="none" fill-rule="evenodd" transform="matrix(-1 1.22753e-16 -1.22465e-16 -1.00235 530.14 271.727)"/><path d="M0 720.004 84.9769 720.004" stroke="#F1C232" stroke-width="1.76471" stroke-linecap="round" stroke-linejoin="round" stroke-miterlimit="3" fill="none" fill-rule="evenodd" transform="matrix(-1 1.22753e-16 -1.22465e-16 -1.00235 530.14 1041.79)"/><path d="M8.71678-4.53769C6.80055-1.80097 3.71026-0.123086 0.371388-0.00648363L0.371369 0.00648136C3.71024 0.123075 6.8005 1.80096 8.71678 4.53767" stroke="#F1C232" stroke-width="1.76471" stroke-linecap="round" stroke-linejoin="round" stroke-miterlimit="3" fill="none" fill-rule="evenodd" transform="matrix(1 -1.22753e-16 1.22465e-16 1.00235 445.163 320.092)"/><path d="M9.85887 720.004 88.6828 720.004C94.1247 720.007 98.5387 715.598 98.5417 710.156 98.5417 710.152 98.5417 710.148 98.5417 710.145L98.5417 693.404C98.5447 687.962 94.1356 683.548 88.6937 683.545 88.6901 683.545 88.6864 683.545 88.6828 683.545L9.85887 683.545C4.41698 683.542 0.00300931 687.951 1.34637e-07 693.393-1.87395e-06 693.396-1.87395e-06 693.4 1.34637e-07 693.404L0 710.145C-0.00300917 715.587 4.40608 720.001 9.84798 720.004 9.85161 720.004 9.85524 720.004 9.85887 720.004Z" stroke="#538135" stroke-width="1.17648" stroke-linecap="square" stroke-miterlimit="3" fill="url(#fill3)" fill-rule="evenodd" transform="matrix(1 0 0 1.00235 532.358 -431.699)"/><text fill="#538135" font-family="Times New Roman,Times New Roman_MSFontService,sans-serif" font-weight="400" font-size="10" transform="matrix(1.17648 0 0 1.17924 539.311 275)">RU</text><text fill="#538135" font-family="Times New Roman,Times New Roman_MSFontService,sans-serif" font-weight="400" font-size="10" transform="matrix(1.17648 0 0 1.17924 555.782 275)">-</text><text fill="#538135" font-family="Times New Roman,Times New Roman_MSFontService,sans-serif" font-weight="400" font-size="10" transform="matrix(1.17648 0 0 1.17924 559.311 275)">DL Processor</text><path d="M9.85887 720.004 88.6828 720.004C94.1247 720.007 98.5387 715.598 98.5417 710.156 98.5417 710.152 98.5417 710.148 98.5417 710.145L98.5417 693.404C98.5447 687.962 94.1356 683.548 88.6937 683.545 88.6901 683.545 88.6864 683.545 88.6828 683.545L9.85887 683.545C4.41698 683.542 0.00300931 687.951 1.34637e-07 693.393-1.87395e-06 693.396-1.87395e-06 693.4 1.34637e-07 693.404L0 710.145C-0.00300917 715.587 4.40608 720.001 9.84798 720.004 9.85161 720.004 9.85524 720.004 9.85887 720.004Z" stroke="#CC0000" stroke-width="1.17648" stroke-linecap="square" stroke-miterlimit="3" fill="url(#fill4)" fill-rule="evenodd" transform="matrix(1 0 0 1.00235 532.358 -383.332)"/><text fill="#CC0000" font-family="Times New Roman,Times New Roman_MSFontService,sans-serif" font-weight="400" font-size="10" transform="matrix(1.17648 0 0 1.17924 539.311 324)">RU</text><text fill="#CC0000" font-family="Times New Roman,Times New Roman_MSFontService,sans-serif" font-weight="400" font-size="10" transform="matrix(1.17648 0 0 1.17924 555.782 324)">-</text><text fill="#CC0000" font-family="Times New Roman,Times New Roman_MSFontService,sans-serif" font-weight="400" font-size="10" transform="matrix(1.17648 0 0 1.17924 559.311 324)">UL Processor</text><path d="M8.0471 720.004 72.4239 720.004C76.8681 720.004 80.4709 716.401 80.471 711.957 80.471 711.957 80.471 711.957 80.471 711.957L80.471 690.709C80.4711 686.265 76.8684 682.662 72.4242 682.662 72.4241 682.662 72.424 682.662 72.4239 682.662L8.0471 682.662C3.60288 682.662 7.16526e-05 686.265 1.79516e-07 690.709 1.78129e-07 690.709 1.78129e-07 690.709 1.79516e-07 690.709L0 711.957C-7.14731e-05 716.401 3.60262 720.004 8.04684 720.004 8.04693 720.004 8.04701 720.004 8.0471 720.004Z" stroke="#000000" stroke-width="0.882357" stroke-linecap="square" stroke-miterlimit="3" fill="#F2F2F2" fill-rule="evenodd" transform="matrix(6.12323e-17 -1.00235 1 6.13763e-17 33.8142 337.038)"/><text font-family="Times New Roman,Times New Roman_MSFontService,sans-serif" font-weight="400" font-size="10" transform="matrix(7.20384e-17 -1.17924 1.17648 7.22077e-17 731.618 318)">Software </text><text font-family="Times New Roman,Times New Roman_MSFontService,sans-serif" font-weight="400" font-size="10" transform="matrix(7.20384e-17 -1.17924 1.17648 7.22077e-17 745.736 318)">Interface</text><path d="M11.4942 720.004 29.6472 720.004C35.9949 720.003 41.1406 714.857 41.1414 708.509L41.1414 690.627C41.1406 684.279 35.9949 679.134 29.6472 679.133L11.4942 679.133C5.14646 679.134 0.00083201 684.279 5.38548e-07 690.627L0 708.509C0.000831472 714.857 5.14646 720.003 11.4942 720.004Z" stroke="#000000" stroke-width="0.882357" stroke-linecap="square" stroke-miterlimit="3" fill="#F2F2F2" fill-rule="evenodd" transform="matrix(1 0 0 1.00235 811.524 -430.771)"/><text font-family="Times New Roman,Times New Roman_MSFontService,sans-serif" font-weight="400" font-size="10" transform="matrix(1.17648 0 0 1.17924 819.677 274)">DAC</text><path d="M11.4942 720.004 29.6472 720.004C35.9949 720.003 41.1406 714.857 41.1414 708.509L41.1414 690.627C41.1406 684.279 35.9949 679.134 29.6472 679.133L11.4942 679.133C5.14646 679.134 0.00083201 684.279 5.38548e-07 690.627L0 708.509C0.000831472 714.857 5.14646 720.003 11.4942 720.004Z" stroke="#000000" stroke-width="0.882357" stroke-linecap="square" stroke-miterlimit="3" fill="#F2F2F2" fill-rule="evenodd" transform="matrix(1 0 0 1.00235 811.524 -378.339)"/><text font-family="Times New Roman,Times New Roman_MSFontService,sans-serif" font-weight="400" font-size="10" transform="matrix(1.17648 0 0 1.17924 819.677 326)">ADC</text><path d="M8.0471 720.004 72.4239 720.004C76.8681 720.004 80.4709 716.401 80.471 711.957 80.471 711.957 80.471 711.957 80.471 711.957L80.471 687.18C80.4711 682.736 76.8684 679.133 72.4242 679.133 72.4241 679.133 72.424 679.133 72.4239 679.133L8.0471 679.133C3.60288 679.133 7.16526e-05 682.735 1.79516e-07 687.18 1.78129e-07 687.18 1.78129e-07 687.18 1.79516e-07 687.18L0 711.957C-7.14731e-05 716.401 3.60262 720.004 8.04684 720.004 8.04693 720.004 8.04701 720.004 8.0471 720.004Z" stroke="#000000" stroke-width="0.882357" stroke-linecap="square" stroke-miterlimit="3" fill="#F2F2F2" fill-rule="evenodd" transform="matrix(1 0 0 1.00235 875.054 -404.556)"/><text font-family="Times New Roman,Times New Roman_MSFontService,sans-serif" font-weight="400" font-size="10" transform="matrix(1.17648 0 0 1.17924 882.924 300)">RF Front End</text><text font-family="Times New Roman,Times New Roman_MSFontService,sans-serif" font-weight="700" font-size="12" transform="matrix(1.17648 0 0 1.17924 525.567 228)">Lower PHY Layer</text><text font-family="Times New Roman,Times New Roman_MSFontService,sans-serif" font-weight="700" font-size="12" transform="matrix(1.17648 0 0 1.17924 847.642 228)">Radio Head</text><text fill="#3333B3" font-family="Times New Roman,Times New Roman_MSFontService,sans-serif" font-weight="400" font-size="10" transform="matrix(1.17648 0 0 1.17924 479.687 268)">DL </text><text fill="#3333B3" font-family="Times New Roman,Times New Roman_MSFontService,sans-serif" font-weight="400" font-size="10" transform="matrix(1.17648 0 0 1.17924 466.922 282)">Symbols</text><text fill="#F1C232" font-family="Times New Roman,Times New Roman_MSFontService,sans-serif" font-weight="400" font-size="10" transform="matrix(1.17648 0 0 1.17924 479.687 317)">UL </text><text fill="#F1C232" font-family="Times New Roman,Times New Roman_MSFontService,sans-serif" font-weight="400" font-size="10" transform="matrix(1.17648 0 0 1.17924 466.922 331)">Symbols</text><text fill="#6AA84F" font-family="Times New Roman,Times New Roman_MSFontService,sans-serif" font-weight="400" font-size="10" transform="matrix(1.17648 0 0 1.17924 671.97 268)">DL </text><text fill="#6AA84F" font-family="Times New Roman,Times New Roman_MSFontService,sans-serif" font-weight="400" font-size="10" transform="matrix(1.17648 0 0 1.17924 659.876 282)">Samples</text><text fill="#CC0000" font-family="Times New Roman,Times New Roman_MSFontService,sans-serif" font-weight="400" font-size="10" transform="matrix(1.17648 0 0 1.17924 671.967 317)">UL </text><text fill="#CC0000" font-family="Times New Roman,Times New Roman_MSFontService,sans-serif" font-weight="400" font-size="10" transform="matrix(1.17648 0 0 1.17924 659.873 331)">Samples</text><path d="M0 720.004 31.7649 720.004" stroke="#7F7F7F" stroke-width="1.76471" stroke-linecap="round" stroke-linejoin="round" stroke-miterlimit="3" fill="none" fill-rule="evenodd" transform="matrix(-1 1.22753e-16 -1.22465e-16 -1.00235 989.407 1007.74)"/><path d="M7.15556-3.72497C5.58254-1.47841 3.04573-0.101041 0.304871-0.00532238L0.304855 0.00532052C3.04572 0.101031 5.5825 1.4784 7.15556 3.72495" stroke="#7F7F7F" stroke-width="1.76471" stroke-linecap="round" stroke-linejoin="round" stroke-miterlimit="3" fill="none" fill-rule="evenodd" transform="matrix(-1 1.22753e-16 -1.22465e-16 -1.00235 989.407 286.046)"/><path d="M0 720.004 31.7649 720.004" stroke="#7F7F7F" stroke-width="1.76471" stroke-linecap="round" stroke-linejoin="round" stroke-miterlimit="3" fill="none" fill-rule="evenodd" transform="matrix(-1 1.22753e-16 -1.22465e-16 -1.00235 989.407 1028.97)"/><path d="M7.15556-3.72497C5.58254-1.47841 3.04573-0.101041 0.304871-0.00532238L0.304855 0.00532052C3.04572 0.101031 5.5825 1.4784 7.15556 3.72495" stroke="#7F7F7F" stroke-width="1.76471" stroke-linecap="round" stroke-linejoin="round" stroke-miterlimit="3" fill="none" fill-rule="evenodd" transform="matrix(1 -1.22753e-16 1.22465e-16 1.00235 957.642 307.272)"/><path d="M0 720.004 113.824 720.004" stroke="#000000" stroke-width="1.76471" stroke-linecap="round" stroke-linejoin="round" stroke-miterlimit="3" fill="none" fill-rule="evenodd" transform="matrix(6.12323e-17 1.00235 -1 6.13763e-17 1711.53 217.06)"/><path d="M0 708.533 14.8236 708.533 14.8236 720.004 4.4879e-07 720.004Z" fill-rule="evenodd" transform="matrix(6.12323e-17 1.00235 -1 6.13763e-17 1705.8 331.152)"/><path d="M0 720.004 24.4119 720.004" stroke="#000000" stroke-width="3.52943" stroke-linecap="round" stroke-linejoin="round" stroke-miterlimit="3" fill="none" fill-rule="evenodd" transform="matrix(6.12323e-17 1.00235 -1 6.13763e-17 1705.6 217.06)"/><path d="M0 720.004 24.4119 720.004" stroke="#000000" stroke-width="3.52943" stroke-linecap="round" stroke-linejoin="round" stroke-miterlimit="3" fill="none" fill-rule="evenodd" transform="matrix(6.12323e-17 1.00235 -1 6.13763e-17 1717.46 217.06)"/><path d="M0 688.239 31.3332 688.239 31.3332 720.004 5.99584e-07 720.004Z" fill="#FFFFFF" fill-rule="evenodd" transform="matrix(1 0 0 1.00235 412.561 -408.268)"/><text font-family="Times New Roman,Times New Roman_MSFontService,sans-serif" font-weight="700" font-size="14" transform="matrix(1.17648 0 0 1.17924 419.984 302)">···</text><path d="M3.77649 705.592C3.77649 701.404 5.01179 697.345 7.36474 693.886 8.2471 692.545 6.25886 691.18 5.32944 692.509 0 700.18 0 711.015 5.32944 718.686 6.25886 720.004 8.2471 718.662 7.36474 717.298 5.02356 713.839 3.77649 709.792 3.77649 705.592L3.77649 705.592Z" fill="#7F7F7F" fill-rule="evenodd" transform="matrix(1 0 0 1.00235 966.834 -477.954)"/><path d="M2.91766 693.262C1.98825 691.945 0 693.286 0.882357 694.639 5.64709 701.498 5.64709 711.192 0.882357 718.051 0.317649 718.839 0.952946 720.004 1.90589 719.98 2.29413 719.98 2.68237 719.792 2.91766 719.439 8.2471 711.768 8.2471 700.933 2.91766 693.262L2.91766 693.262Z" fill="#7F7F7F" fill-rule="evenodd" transform="matrix(1 0 0 1.00235 1007.97 -478.706)"/><path d="M4.77649 699.004C4.21179 698.627 3.44708 698.768 3.0706 699.333 1.05883 702.298 0 705.745 0 709.321 0 712.874 1.05883 716.333 3.0706 719.298 3.44708 719.862 4.22355 720.004 4.77649 719.627 5.3412 719.251 5.48238 718.486 5.10591 717.921 3.37649 715.357 2.45884 712.392 2.45884 709.321 2.45884 706.251 3.37649 703.274 5.10591 700.721 5.48238 700.156 5.3412 699.392 4.77649 699.004L4.77649 699.004Z" fill="#7F7F7F" fill-rule="evenodd" transform="matrix(1 0 0 1.00235 973.697 -481.683)"/><path d="M2.91766 699.474C1.98825 698.156 0 699.498 0.882357 700.851 4.40002 705.921 4.40002 712.98 0.882357 718.051 0.317649 718.839 0.952946 720.004 1.90589 719.98 2.29413 719.98 2.68237 719.792 2.92943 719.439 7.00004 713.545 7.00004 705.357 2.92943 699.474L2.91766 699.474Z" fill="#7F7F7F" fill-rule="evenodd" transform="matrix(1 0 0 1.00235 1003.37 -481.822)"/><path d="M0 720.004 135.53 720.004" stroke="#000000" stroke-width="1.17648" stroke-linecap="round" stroke-linejoin="round" stroke-miterlimit="3" stroke-dasharray="1.17648 2.35295" fill="none" fill-rule="evenodd" transform="matrix(6.12323e-17 1.00235 -1 6.13763e-17 1496.32 220.244)"/></g></svg>