<svg width="531" height="150" xmlns="http://www.w3.org/2000/svg" xmlns:xlink="http://www.w3.org/1999/xlink" xml:space="preserve" overflow="hidden"><defs><clipPath id="clip0"><rect x="204" y="221" width="531" height="150"/></clipPath></defs><g clip-path="url(#clip0)" transform="translate(-204 -221)"><path d="M0 698.06 101.536 698.06 101.536 719.213 1.79319e-06 719.213Z" fill="#FFFFFF" fill-rule="evenodd" transform="matrix(1 0 0 1.0028 381.789 -344.021)"/><text fill="#6AA84F" font-family="Times New Roman,Times New Roman_MSFontService,sans-serif" font-weight="400" font-size="10" transform="matrix(1.17518 0 0 1.17847 391.648 370)">DP slot </text><text fill="#6AA84F" font-family="Times New Roman,Times New Roman_MSFontService,sans-serif" font-style="italic" font-weight="400" font-size="10" transform="matrix(1.17518 0 0 1.17847 431.605 370)">s</text><text fill="#6AA84F" font-family="Times New Roman,Times New Roman_MSFontService,sans-serif" font-weight="400" font-size="10" transform="matrix(1.17518 0 0 1.17847 436.305 370)"> </text><text fill="#6AA84F" font-family="Times New Roman,Times New Roman_MSFontService,sans-serif" font-weight="400" font-size="10" transform="matrix(1.17518 0 0 1.17847 439.831 370)">+ </text><text fill="#6AA84F" font-family="Times New Roman,Times New Roman_MSFontService,sans-serif" font-style="italic" font-weight="400" font-size="10" transform="matrix(1.17518 0 0 1.17847 450.408 370)">H</text><text fill="#6AA84F" font-family="Times New Roman,Times New Roman_MSFontService,sans-serif" font-weight="400" font-size="10" transform="matrix(1.17518 0 0 1.17847 458.634 370)"> </text><text fill="#6AA84F" font-family="Times New Roman,Times New Roman_MSFontService,sans-serif" font-weight="400" font-size="10" transform="matrix(1.17518 0 0 1.17847 462.159 370)">+ </text><text fill="#6AA84F" font-family="Times New Roman,Times New Roman_MSFontService,sans-serif" font-weight="400" font-size="10" transform="matrix(1.17518 0 0 1.17847 472.736 370)">1</text><path d="M0 719.213 120.315 719.213" stroke="#FF0000" stroke-width="1.76278" stroke-linecap="round" stroke-linejoin="round" stroke-miterlimit="3" fill="none" fill-rule="evenodd" transform="matrix(1 0 0 1.0028 307.355 -373.365)"/><path d="M6.36795-3.31496C4.96807-1.31568 2.71049-0.0899192 0.271314-0.00473655L0.2713 0.00473489C2.71048 0.0899109 4.96804 1.31567 6.36795 3.31495" stroke="#FF0000" stroke-width="1.76278" stroke-linecap="round" stroke-linejoin="round" stroke-miterlimit="3" fill="none" fill-rule="evenodd" transform="matrix(-1 0 0 -1.0028 427.67 347.858)"/><path d="M31.9514 712.044 88.3584 712.044 88.3584 726.264 31.9514 726.264Z" fill="#FFFFFF" fill-rule="evenodd" transform="matrix(1 0 0 1.0028 307.355 -373.365)"/><text fill="#FFFFFF" font-family="Times New Roman,Times New Roman_MSFontService,sans-serif" font-weight="700" font-size="10" transform="matrix(1.17518 0 0 1.17847 339.308 351)">-</text><text fill="#FF0000" font-family="Times New Roman,Times New Roman_MSFontService,sans-serif" font-weight="700" font-size="12" transform="matrix(1.17518 0 0 1.17847 342.834 351)">Waiting</text><text fill="#FFFFFF" font-family="Times New Roman,Times New Roman_MSFontService,sans-serif" font-weight="700" font-size="10" transform="matrix(1.17518 0 0 1.17847 391.016 351)">-</text><path d="M0 703.071 125.598 703.071 125.598 719.213 0 719.213Z" fill="#D8D8D8" fill-rule="evenodd" transform="matrix(1 0 0 1.0028 280.914 -450.085)"/><text fill="#595959" font-family="Times New Roman,Times New Roman_MSFontService,sans-serif" font-weight="400" font-size="8" transform="matrix(1.17518 0 0 1.17847 301.538 266)">DL signal in RH slot </text><text fill="#595959" font-family="Times New Roman,Times New Roman_MSFontService,sans-serif" font-style="italic" font-weight="400" font-size="8" transform="matrix(1.17518 0 0 1.17847 381.451 266)">s</text><path d="M0 719.213 457.652 719.213" stroke="#000000" stroke-width="0.881388" stroke-linecap="round" stroke-linejoin="round" stroke-miterlimit="3" fill="none" fill-rule="evenodd" transform="matrix(1 0 0 1.0028 259.099 -382.203)"/><path d="M7.72096 2.57365 0 0 7.72096-2.57365 7.72096 2.57365" fill-rule="evenodd" transform="matrix(-1 0 0 -1.0028 724.472 339.02)"/><path d="M0 719.213 457.652 719.213" stroke="#000000" stroke-width="0.881388" stroke-linecap="round" stroke-linejoin="round" stroke-miterlimit="3" fill="none" fill-rule="evenodd" transform="matrix(1 0 0 1.0028 259.099 -467.053)"/><path d="M7.72096 2.57365 0 0 7.72096-2.57365 7.72096 2.57365" fill-rule="evenodd" transform="matrix(-1 0 0 -1.0028 724.472 254.17)"/><path d="M0 719.213 33.8453 719.213" stroke="#000000" stroke-width="0.587592" stroke-linecap="round" stroke-linejoin="round" stroke-miterlimit="3" fill="none" fill-rule="evenodd" transform="matrix(6.12323e-17 1.0028 -1 6.14035e-17 999.466 237.2)"/><path d="M0 719.213 33.8453 719.213" stroke="#000000" stroke-width="0.587592" stroke-linecap="round" stroke-linejoin="round" stroke-miterlimit="3" fill="none" fill-rule="evenodd" transform="matrix(6.12323e-17 1.0028 -1 6.14035e-17 1380.23 237.2)"/><path d="M0 719.213 33.8453 719.213" stroke="#000000" stroke-width="0.587592" stroke-linecap="round" stroke-linejoin="round" stroke-miterlimit="3" fill="none" fill-rule="evenodd" transform="matrix(6.12323e-17 1.0028 -1 6.14035e-17 1126.39 237.2)"/><path d="M0 719.213 33.8453 719.213" stroke="#000000" stroke-width="0.587592" stroke-linecap="round" stroke-linejoin="round" stroke-miterlimit="3" fill="none" fill-rule="evenodd" transform="matrix(6.12323e-17 1.0028 -1 6.14035e-17 1253.31 237.2)"/><path d="M0 719.213 16.9227 719.213" stroke="#000000" stroke-width="0.587592" stroke-linecap="round" stroke-linejoin="round" stroke-miterlimit="3" fill="none" fill-rule="evenodd" transform="matrix(6.12323e-17 1.0028 -1 6.14035e-17 1020.62 322.05)"/><path d="M0 719.213 16.9227 719.213" stroke="#000000" stroke-width="0.587592" stroke-linecap="round" stroke-linejoin="round" stroke-miterlimit="3" fill="none" fill-rule="evenodd" transform="matrix(6.12323e-17 1.0028 -1 6.14035e-17 1401.38 322.05)"/><path d="M0 719.213 16.9227 719.213" stroke="#000000" stroke-width="0.587592" stroke-linecap="round" stroke-linejoin="round" stroke-miterlimit="3" fill="none" fill-rule="evenodd" transform="matrix(6.12323e-17 1.0028 -1 6.14035e-17 1147.54 322.05)"/><path d="M0 719.213 16.9227 719.213" stroke="#000000" stroke-width="0.587592" stroke-linecap="round" stroke-linejoin="round" stroke-miterlimit="3" fill="none" fill-rule="evenodd" transform="matrix(6.12323e-17 1.0028 -1 6.14035e-17 1274.46 322.05)"/><path d="M0 703.071 125.598 703.071 125.598 719.213 0 719.213Z" fill="#D8D8D8" fill-rule="evenodd" transform="matrix(1 0 0 1.0028 534.753 -467.835)"/><text fill="#595959" font-family="Times New Roman,Times New Roman_MSFontService,sans-serif" font-weight="400" font-size="8" transform="matrix(1.17518 0 0 1.17847 546.975 248)">UL signal in RH slot </text><text fill="#595959" font-family="Times New Roman,Times New Roman_MSFontService,sans-serif" font-style="italic" font-weight="400" font-size="8" transform="matrix(1.17518 0 0 1.17847 626.887 248)">s</text><text fill="#595959" font-family="Times New Roman,Times New Roman_MSFontService,sans-serif" font-weight="400" font-size="8" transform="matrix(1.17518 0 0 1.17847 630.413 248)"> </text><text fill="#595959" font-family="Times New Roman,Times New Roman_MSFontService,sans-serif" font-weight="400" font-size="8" transform="matrix(1.17518 0 0 1.17847 632.763 248)">+ </text><text fill="#595959" font-family="Times New Roman,Times New Roman_MSFontService,sans-serif" font-style="italic" font-weight="400" font-size="8" transform="matrix(1.17518 0 0 1.17847 640.99 248)">H</text><path d="M0 703.071 125.598 703.071 125.598 719.213 0 719.213Z" fill="#D8D8D8" fill-rule="evenodd" transform="matrix(1 0 0 1.0028 534.753 -450.085)"/><text fill="#595959" font-family="Times New Roman,Times New Roman_MSFontService,sans-serif" font-weight="400" font-size="8" transform="matrix(1.17518 0 0 1.17847 546.975 266)">DL signal in RH slot </text><text fill="#595959" font-family="Times New Roman,Times New Roman_MSFontService,sans-serif" font-style="italic" font-weight="400" font-size="8" transform="matrix(1.17518 0 0 1.17847 626.887 266)">s</text><text fill="#595959" font-family="Times New Roman,Times New Roman_MSFontService,sans-serif" font-weight="400" font-size="8" transform="matrix(1.17518 0 0 1.17847 630.413 266)"> </text><text fill="#595959" font-family="Times New Roman,Times New Roman_MSFontService,sans-serif" font-weight="400" font-size="8" transform="matrix(1.17518 0 0 1.17847 632.763 266)">+ </text><text fill="#595959" font-family="Times New Roman,Times New Roman_MSFontService,sans-serif" font-style="italic" font-weight="400" font-size="8" transform="matrix(1.17518 0 0 1.17847 640.99 266)">H</text><text fill="#595959" font-family="Times New Roman,Times New Roman_MSFontService,sans-serif" font-weight="700" font-size="10" transform="matrix(1.17518 0 0 1.17847 214.466 251)">Radio </text><text fill="#595959" font-family="Times New Roman,Times New Roman_MSFontService,sans-serif" font-weight="700" font-size="10" transform="matrix(1.17518 0 0 1.17847 216.099 265)">Head</text><path d="M0 698.06 101.536 698.06 101.536 719.213 1.79319e-06 719.213Z" fill="#FFFFFF" fill-rule="evenodd" transform="matrix(1 0 0 1.0028 229.485 -484.023)"/><text fill="#595959" font-family="Times New Roman,Times New Roman_MSFontService,sans-serif" font-weight="400" font-size="10" transform="matrix(1.17518 0 0 1.17847 258.371 230)">RH slot </text><text fill="#595959" font-family="Times New Roman,Times New Roman_MSFontService,sans-serif" font-style="italic" font-weight="400" font-size="10" transform="matrix(1.17518 0 0 1.17847 299.502 230)">s</text><path d="M0 698.06 101.536 698.06 101.536 719.213 1.79319e-06 719.213Z" fill="#FFFFFF" fill-rule="evenodd" transform="matrix(1 0 0 1.0028 356.405 -484.023)"/><text fill="#595959" font-family="Times New Roman,Times New Roman_MSFontService,sans-serif" font-weight="400" font-size="10" transform="matrix(1.17518 0 0 1.17847 376.101 230)">RH slot </text><text fill="#595959" font-family="Times New Roman,Times New Roman_MSFontService,sans-serif" font-style="italic" font-weight="400" font-size="10" transform="matrix(1.17518 0 0 1.17847 417.232 230)">s</text><text fill="#595959" font-family="Times New Roman,Times New Roman_MSFontService,sans-serif" font-weight="400" font-size="10" transform="matrix(1.17518 0 0 1.17847 421.933 230)"> </text><text fill="#595959" font-family="Times New Roman,Times New Roman_MSFontService,sans-serif" font-weight="400" font-size="10" transform="matrix(1.17518 0 0 1.17847 425.458 230)">+ </text><text fill="#595959" font-family="Times New Roman,Times New Roman_MSFontService,sans-serif" font-weight="400" font-size="10" transform="matrix(1.17518 0 0 1.17847 436.035 230)">1</text><path d="M0 698.06 101.536 698.06 101.536 719.213 1.79319e-06 719.213Z" fill="#FFFFFF" fill-rule="evenodd" transform="matrix(1 0 0 1.0028 483.325 -484.023)"/><text fill="#595959" font-family="Times New Roman,Times New Roman_MSFontService,sans-serif" font-weight="400" font-size="10" transform="matrix(1.17518 0 0 1.17847 501.716 230)">RH slot </text><text fill="#595959" font-family="Times New Roman,Times New Roman_MSFontService,sans-serif" font-style="italic" font-weight="400" font-size="10" transform="matrix(1.17518 0 0 1.17847 542.848 230)">s</text><text fill="#595959" font-family="Times New Roman,Times New Roman_MSFontService,sans-serif" font-weight="400" font-size="10" transform="matrix(1.17518 0 0 1.17847 547.548 230)"> </text><text fill="#595959" font-family="Times New Roman,Times New Roman_MSFontService,sans-serif" font-weight="400" font-size="10" transform="matrix(1.17518 0 0 1.17847 551.074 230)">+ </text><text fill="#595959" font-family="Times New Roman,Times New Roman_MSFontService,sans-serif" font-style="italic" font-weight="400" font-size="10" transform="matrix(1.17518 0 0 1.17847 561.651 230)">H</text><path d="M0 698.06 101.536 698.06 101.536 719.213 1.79319e-06 719.213Z" fill="#FFFFFF" fill-rule="evenodd" transform="matrix(1 0 0 1.0028 610.244 -484.023)"/><text fill="#595959" font-family="Times New Roman,Times New Roman_MSFontService,sans-serif" font-weight="400" font-size="10" transform="matrix(1.17518 0 0 1.17847 619.446 230)">RH slot </text><text fill="#595959" font-family="Times New Roman,Times New Roman_MSFontService,sans-serif" font-style="italic" font-weight="400" font-size="10" transform="matrix(1.17518 0 0 1.17847 660.578 230)">s</text><text fill="#595959" font-family="Times New Roman,Times New Roman_MSFontService,sans-serif" font-weight="400" font-size="10" transform="matrix(1.17518 0 0 1.17847 665.278 230)"> </text><text fill="#595959" font-family="Times New Roman,Times New Roman_MSFontService,sans-serif" font-weight="400" font-size="10" transform="matrix(1.17518 0 0 1.17847 668.804 230)">+ </text><text fill="#595959" font-family="Times New Roman,Times New Roman_MSFontService,sans-serif" font-style="italic" font-weight="400" font-size="10" transform="matrix(1.17518 0 0 1.17847 679.381 230)">H</text><text fill="#595959" font-family="Times New Roman,Times New Roman_MSFontService,sans-serif" font-weight="400" font-size="10" transform="matrix(1.17518 0 0 1.17847 687.607 230)"> </text><text fill="#595959" font-family="Times New Roman,Times New Roman_MSFontService,sans-serif" font-weight="400" font-size="10" transform="matrix(1.17518 0 0 1.17847 691.132 230)">+ </text><text fill="#595959" font-family="Times New Roman,Times New Roman_MSFontService,sans-serif" font-weight="400" font-size="10" transform="matrix(1.17518 0 0 1.17847 701.709 230)">1</text><path d="M0 698.06 101.536 698.06 101.536 719.213 1.79319e-06 719.213Z" fill="#FFFFFF" fill-rule="evenodd" transform="matrix(1 0 0 1.0028 377.558 -399.173)"/><text fill="#CC0000" font-family="Times New Roman,Times New Roman_MSFontService,sans-serif" font-weight="400" font-size="10" transform="matrix(1.17518 0 0 1.17847 397.912 315)">UP slot </text><text fill="#CC0000" font-family="Times New Roman,Times New Roman_MSFontService,sans-serif" font-style="italic" font-weight="400" font-size="10" transform="matrix(1.17518 0 0 1.17847 437.868 315)">s</text><text fill="#CC0000" font-family="Times New Roman,Times New Roman_MSFontService,sans-serif" font-weight="400" font-size="10" transform="matrix(1.17518 0 0 1.17847 442.569 315)"> </text><text fill="#CC0000" font-family="Times New Roman,Times New Roman_MSFontService,sans-serif" font-weight="400" font-size="10" transform="matrix(1.17518 0 0 1.17847 446.095 315)">+ </text><text fill="#CC0000" font-family="Times New Roman,Times New Roman_MSFontService,sans-serif" font-weight="400" font-size="10" transform="matrix(1.17518 0 0 1.17847 456.671 315)">1</text><path d="M0 698.06 101.536 698.06 101.536 719.213 1.79319e-06 719.213Z" fill="#FFFFFF" fill-rule="evenodd" transform="matrix(1 0 0 1.0028 504.478 -399.173)"/><text fill="#CC0000" font-family="Times New Roman,Times New Roman_MSFontService,sans-serif" font-weight="400" font-size="10" transform="matrix(1.17518 0 0 1.17847 523.528 315)">UP slot </text><text fill="#CC0000" font-family="Times New Roman,Times New Roman_MSFontService,sans-serif" font-style="italic" font-weight="400" font-size="10" transform="matrix(1.17518 0 0 1.17847 563.484 315)">s</text><text fill="#CC0000" font-family="Times New Roman,Times New Roman_MSFontService,sans-serif" font-weight="400" font-size="10" transform="matrix(1.17518 0 0 1.17847 568.185 315)"> </text><text fill="#CC0000" font-family="Times New Roman,Times New Roman_MSFontService,sans-serif" font-weight="400" font-size="10" transform="matrix(1.17518 0 0 1.17847 571.71 315)">+ </text><text fill="#CC0000" font-family="Times New Roman,Times New Roman_MSFontService,sans-serif" font-style="italic" font-weight="400" font-size="10" transform="matrix(1.17518 0 0 1.17847 582.287 315)">H</text><path d="M0 698.06 101.536 698.06 101.536 719.213 1.79319e-06 719.213Z" fill="#FFFFFF" fill-rule="evenodd" transform="matrix(1 0 0 1.0028 631.398 -399.173)"/><text fill="#CC0000" font-family="Times New Roman,Times New Roman_MSFontService,sans-serif" font-weight="400" font-size="10" transform="matrix(1.17518 0 0 1.17847 641.258 315)">UP slot </text><text fill="#CC0000" font-family="Times New Roman,Times New Roman_MSFontService,sans-serif" font-style="italic" font-weight="400" font-size="10" transform="matrix(1.17518 0 0 1.17847 681.214 315)">s</text><text fill="#CC0000" font-family="Times New Roman,Times New Roman_MSFontService,sans-serif" font-weight="400" font-size="10" transform="matrix(1.17518 0 0 1.17847 685.915 315)"> </text><text fill="#CC0000" font-family="Times New Roman,Times New Roman_MSFontService,sans-serif" font-weight="400" font-size="10" transform="matrix(1.17518 0 0 1.17847 689.44 315)">+ </text><text fill="#CC0000" font-family="Times New Roman,Times New Roman_MSFontService,sans-serif" font-style="italic" font-weight="400" font-size="10" transform="matrix(1.17518 0 0 1.17847 700.017 315)">H</text><text fill="#CC0000" font-family="Times New Roman,Times New Roman_MSFontService,sans-serif" font-weight="400" font-size="10" transform="matrix(1.17518 0 0 1.17847 708.243 315)"> </text><text fill="#CC0000" font-family="Times New Roman,Times New Roman_MSFontService,sans-serif" font-weight="400" font-size="10" transform="matrix(1.17518 0 0 1.17847 711.769 315)">+ </text><text fill="#CC0000" font-family="Times New Roman,Times New Roman_MSFontService,sans-serif" font-weight="400" font-size="10" transform="matrix(1.17518 0 0 1.17847 722.345 315)">1</text><path d="M0 698.06 101.536 698.06 101.536 719.213 1.79319e-06 719.213Z" fill="#FFFFFF" fill-rule="evenodd" transform="matrix(1 0 0 1.0028 635.628 -344.021)"/><text fill="#6AA84F" font-family="Times New Roman,Times New Roman_MSFontService,sans-serif" font-weight="400" font-size="10" transform="matrix(1.17518 0 0 1.17847 642.55 370)">DP slot </text><text fill="#6AA84F" font-family="Times New Roman,Times New Roman_MSFontService,sans-serif" font-style="italic" font-weight="400" font-size="10" transform="matrix(1.17518 0 0 1.17847 682.507 370)">s</text><text fill="#6AA84F" font-family="Times New Roman,Times New Roman_MSFontService,sans-serif" font-weight="400" font-size="10" transform="matrix(1.17518 0 0 1.17847 687.207 370)"> </text><text fill="#6AA84F" font-family="Times New Roman,Times New Roman_MSFontService,sans-serif" font-weight="400" font-size="10" transform="matrix(1.17518 0 0 1.17847 690.733 370)">+ </text><text fill="#6AA84F" font-family="Times New Roman,Times New Roman_MSFontService,sans-serif" font-weight="400" font-size="10" transform="matrix(1.17518 0 0 1.17847 701.31 370)">2</text><text fill="#6AA84F" font-family="Times New Roman,Times New Roman_MSFontService,sans-serif" font-style="italic" font-weight="400" font-size="10" transform="matrix(1.17518 0 0 1.17847 707.185 370)">H</text><text fill="#6AA84F" font-family="Times New Roman,Times New Roman_MSFontService,sans-serif" font-weight="400" font-size="10" transform="matrix(1.17518 0 0 1.17847 715.412 370)"> </text><text fill="#6AA84F" font-family="Times New Roman,Times New Roman_MSFontService,sans-serif" font-weight="400" font-size="10" transform="matrix(1.17518 0 0 1.17847 718.937 370)">+ </text><text fill="#6AA84F" font-family="Times New Roman,Times New Roman_MSFontService,sans-serif" font-weight="400" font-size="10" transform="matrix(1.17518 0 0 1.17847 729.514 370)">1</text><path d="M0 698.06 101.536 698.06 101.536 719.213 1.79319e-06 719.213Z" fill="#FFFFFF" fill-rule="evenodd" transform="matrix(1 0 0 1.0028 250.638 -399.173)"/><text fill="#CC0000" font-family="Times New Roman,Times New Roman_MSFontService,sans-serif" font-weight="400" font-size="10" transform="matrix(1.17518 0 0 1.17847 280.182 315)">UP slot </text><text fill="#CC0000" font-family="Times New Roman,Times New Roman_MSFontService,sans-serif" font-style="italic" font-weight="400" font-size="10" transform="matrix(1.17518 0 0 1.17847 320.138 315)">s</text><path d="M0 698.06 101.536 698.06 101.536 719.213 1.79319e-06 719.213Z" fill="#FFFFFF" fill-rule="evenodd" transform="matrix(1 0 0 1.0028 254.869 -344.021)"/><text fill="#6AA84F" font-family="Times New Roman,Times New Roman_MSFontService,sans-serif" font-weight="400" font-size="10" transform="matrix(1.17518 0 0 1.17847 273.918 370)">DP slot </text><text fill="#6AA84F" font-family="Times New Roman,Times New Roman_MSFontService,sans-serif" font-style="italic" font-weight="400" font-size="10" transform="matrix(1.17518 0 0 1.17847 313.875 370)">s</text><text fill="#6AA84F" font-family="Times New Roman,Times New Roman_MSFontService,sans-serif" font-weight="400" font-size="10" transform="matrix(1.17518 0 0 1.17847 318.575 370)"> </text><text fill="#6AA84F" font-family="Times New Roman,Times New Roman_MSFontService,sans-serif" font-weight="400" font-size="10" transform="matrix(1.17518 0 0 1.17847 322.101 370)">+ </text><text fill="#6AA84F" font-family="Times New Roman,Times New Roman_MSFontService,sans-serif" font-style="italic" font-weight="400" font-size="10" transform="matrix(1.17518 0 0 1.17847 332.678 370)">H</text><path d="M0 719.213 16.9227 719.213" stroke="#000000" stroke-width="0.587592" stroke-linecap="round" stroke-linejoin="round" stroke-miterlimit="3" fill="none" fill-rule="evenodd" transform="matrix(6.12323e-17 1.0028 -1 6.14035e-17 1024.85 339.02)"/><path d="M0 719.213 16.9227 719.213" stroke="#000000" stroke-width="0.587592" stroke-linecap="round" stroke-linejoin="round" stroke-miterlimit="3" fill="none" fill-rule="evenodd" transform="matrix(6.12323e-17 1.0028 -1 6.14035e-17 1405.61 339.02)"/><path d="M0 719.213 16.9227 719.213" stroke="#000000" stroke-width="0.587592" stroke-linecap="round" stroke-linejoin="round" stroke-miterlimit="3" fill="none" fill-rule="evenodd" transform="matrix(6.12323e-17 1.0028 -1 6.14035e-17 1151.77 339.02)"/><path d="M0 719.213 16.9227 719.213" stroke="#000000" stroke-width="0.587592" stroke-linecap="round" stroke-linejoin="round" stroke-miterlimit="3" fill="none" fill-rule="evenodd" transform="matrix(6.12323e-17 1.0028 -1 6.14035e-17 1278.69 339.02)"/><path d="M0 698.06 101.536 698.06 101.536 719.213 1.79319e-06 719.213Z" fill="#FFFFFF" fill-rule="evenodd" transform="matrix(1 0 0 1.0028 508.709 -344.021)"/><text fill="#6AA84F" font-family="Times New Roman,Times New Roman_MSFontService,sans-serif" font-weight="400" font-size="10" transform="matrix(1.17518 0 0 1.17847 524.82 370)">DP slot </text><text fill="#6AA84F" font-family="Times New Roman,Times New Roman_MSFontService,sans-serif" font-style="italic" font-weight="400" font-size="10" transform="matrix(1.17518 0 0 1.17847 564.777 370)">s</text><text fill="#6AA84F" font-family="Times New Roman,Times New Roman_MSFontService,sans-serif" font-weight="400" font-size="10" transform="matrix(1.17518 0 0 1.17847 569.477 370)"> </text><text fill="#6AA84F" font-family="Times New Roman,Times New Roman_MSFontService,sans-serif" font-weight="400" font-size="10" transform="matrix(1.17518 0 0 1.17847 573.003 370)">+ </text><text fill="#6AA84F" font-family="Times New Roman,Times New Roman_MSFontService,sans-serif" font-weight="400" font-size="10" transform="matrix(1.17518 0 0 1.17847 583.58 370)">2</text><text fill="#6AA84F" font-family="Times New Roman,Times New Roman_MSFontService,sans-serif" font-style="italic" font-weight="400" font-size="10" transform="matrix(1.17518 0 0 1.17847 589.455 370)">H</text><path d="M0 703.071 125.598 703.071 125.598 719.213 0 719.213Z" fill="#D8D8D8" fill-rule="evenodd" transform="matrix(1 0 0 1.0028 280.914 -467.835)"/><text fill="#595959" font-family="Times New Roman,Times New Roman_MSFontService,sans-serif" font-weight="400" font-size="8" transform="matrix(1.17518 0 0 1.17847 301.538 248)">UL signal in RH slot </text><text fill="#595959" font-family="Times New Roman,Times New Roman_MSFontService,sans-serif" font-style="italic" font-weight="400" font-size="8" transform="matrix(1.17518 0 0 1.17847 381.451 248)">s</text><path d="M0 687.483 31.2988 687.483 31.2988 719.213 5.98925e-07 719.213Z" fill="#FFFFFF" fill-rule="evenodd" transform="matrix(1 0 0 1.0028 478.251 -365.446)"/><text font-family="Times New Roman,Times New Roman_MSFontService,sans-serif" font-weight="400" font-size="14" transform="matrix(1.17518 0 0 1.17847 485.678 345)">···</text><path d="M0 687.483 31.2988 687.483 31.2988 719.213 5.98925e-07 719.213Z" fill="#FFFFFF" fill-rule="evenodd" transform="matrix(1 0 0 1.0028 454.983 -450.295)"/><text font-family="Times New Roman,Times New Roman_MSFontService,sans-serif" font-weight="400" font-size="14" transform="matrix(1.17518 0 0 1.17847 462.41 260)">···</text><path d="M0 720.035 33.084 720.035" stroke="#000000" stroke-width="0.588264" stroke-linecap="round" stroke-linejoin="round" stroke-miterlimit="3" stroke-dasharray="0.588264 1.17653" fill="none" fill-rule="evenodd" transform="matrix(0.639454 0.769489 -0.767344 0.641241 832.767 -186.334)"/><path d="M0 720.035 33.084 720.035" stroke="#000000" stroke-width="0.588264" stroke-linecap="round" stroke-linejoin="round" stroke-miterlimit="3" stroke-dasharray="0.588264 1.17653" fill="none" fill-rule="evenodd" transform="matrix(0.639454 0.769489 -0.767344 0.641241 959.687 -186.334)"/><path d="M0 720.035 33.084 720.035" stroke="#000000" stroke-width="0.588264" stroke-linecap="round" stroke-linejoin="round" stroke-miterlimit="3" stroke-dasharray="0.588264 1.17653" fill="none" fill-rule="evenodd" transform="matrix(0.639454 0.769489 -0.767344 0.641241 1086.61 -186.334)"/><path d="M0 720.035 33.084 720.035" stroke="#000000" stroke-width="0.588264" stroke-linecap="round" stroke-linejoin="round" stroke-miterlimit="3" stroke-dasharray="0.588264 1.17653" fill="none" fill-rule="evenodd" transform="matrix(0.639454 0.769489 -0.767344 0.641241 1213.53 -186.334)"/><path d="M0 703.071 18.5092 703.071 18.5092 719.213 0 719.213Z" fill="#F4CCCC" fill-rule="evenodd" transform="matrix(1 0 0 1.0028 302.066 -382.985)"/><path d="M0 703.071 1.32208 703.071 1.32208 719.213 0 719.213Z" fill="#E06666" fill-rule="evenodd" transform="matrix(1 0 0 1.0028 320.978 -382.985)"/><path d="M0 703.071 18.5092 703.071 18.5092 719.213 0 719.213Z" fill="#F4CCCC" fill-rule="evenodd" transform="matrix(1 0 0 1.0028 322.702 -382.985)"/><path d="M0 703.071 1.32208 703.071 1.32208 719.213 0 719.213Z" fill="#E06666" fill-rule="evenodd" transform="matrix(1 0 0 1.0028 341.614 -382.985)"/><path d="M0 703.071 18.5092 703.071 18.5092 719.213 0 719.213Z" fill="#F4CCCC" fill-rule="evenodd" transform="matrix(1 0 0 1.0028 343.338 -382.985)"/><path d="M0 703.071 1.32208 703.071 1.32208 719.213 0 719.213Z" fill="#E06666" fill-rule="evenodd" transform="matrix(1 0 0 1.0028 362.25 -382.985)"/><path d="M0 703.071 1.32208 703.071 1.32208 719.213 0 719.213Z" fill="#E06666" fill-rule="evenodd" transform="matrix(1 0 0 1.0028 426.342 -382.985)"/><path d="M0 703.071 18.5092 703.071 18.5092 719.213 0 719.213Z" fill="#F4CCCC" fill-rule="evenodd" transform="matrix(1 0 0 1.0028 407.431 -382.985)"/><text fill="#CC0000" font-family="Times New Roman,Times New Roman_MSFontService,sans-serif" font-weight="400" font-size="14" transform="matrix(1.17518 0 0 1.17847 377.279 336)">···</text><path d="M0 703.071 18.5092 703.071 18.5092 719.213 0 719.213Z" fill="#F4CCCC" fill-rule="evenodd" transform="matrix(1 0 0 1.0028 555.906 -382.985)"/><path d="M0 703.071 1.32208 703.071 1.32208 719.213 0 719.213Z" fill="#E06666" fill-rule="evenodd" transform="matrix(1 0 0 1.0028 574.819 -382.985)"/><path d="M0 703.071 18.5092 703.071 18.5092 719.213 0 719.213Z" fill="#F4CCCC" fill-rule="evenodd" transform="matrix(1 0 0 1.0028 576.543 -382.985)"/><path d="M0 703.071 1.32208 703.071 1.32208 719.213 0 719.213Z" fill="#E06666" fill-rule="evenodd" transform="matrix(1 0 0 1.0028 595.455 -382.985)"/><path d="M0 703.071 18.5092 703.071 18.5092 719.213 0 719.213Z" fill="#F4CCCC" fill-rule="evenodd" transform="matrix(1 0 0 1.0028 597.179 -382.985)"/><path d="M0 703.071 1.32208 703.071 1.32208 719.213 0 719.213Z" fill="#E06666" fill-rule="evenodd" transform="matrix(1 0 0 1.0028 616.09 -382.985)"/><path d="M0 703.071 1.32208 703.071 1.32208 719.213 0 719.213Z" fill="#E06666" fill-rule="evenodd" transform="matrix(1 0 0 1.0028 680.183 -382.985)"/><path d="M0 703.071 18.5092 703.071 18.5092 719.213 0 719.213Z" fill="#F4CCCC" fill-rule="evenodd" transform="matrix(1 0 0 1.0028 661.271 -382.985)"/><text fill="#CC0000" font-family="Times New Roman,Times New Roman_MSFontService,sans-serif" font-weight="400" font-size="14" transform="matrix(1.17518 0 0 1.17847 631.119 336)">···</text><path d="M0 703.071 2.90964 703.071 2.90964 719.213-7.66588e-08 719.213Z" fill="#93C47D" fill-rule="evenodd" transform="matrix(1 0 0 1.0028 428.988 -365.235)"/><path d="M0 703.071 1.32208 703.071 1.32208 719.213 0 719.213Z" fill="#D9EAD3" fill-rule="evenodd" transform="matrix(1 0 0 1.0028 433.214 -365.235)"/><path d="M0 703.071 2.90964 703.071 2.90964 719.213-7.66588e-08 719.213Z" fill="#93C47D" fill-rule="evenodd" transform="matrix(1 0 0 1.0028 682.827 -365.235)"/><path d="M0 703.071 1.32208 703.071 1.32208 719.213 0 719.213Z" fill="#D9EAD3" fill-rule="evenodd" transform="matrix(1 0 0 1.0028 687.053 -365.235)"/><text fill="#CC0000" font-family="Times New Roman,Times New Roman_MSFontService,sans-serif" font-weight="700" font-size="10" transform="matrix(1.17518 0 0 1.17847 210.882 317)">RU</text><text fill="#CC0000" font-family="Times New Roman,Times New Roman_MSFontService,sans-serif" font-weight="700" font-size="10" transform="matrix(1.17518 0 0 1.17847 227.334 317)">-</text><text fill="#CC0000" font-family="Times New Roman,Times New Roman_MSFontService,sans-serif" font-weight="700" font-size="10" transform="matrix(1.17518 0 0 1.17847 230.86 317)">UL </text><text fill="#CC0000" font-family="Times New Roman,Times New Roman_MSFontService,sans-serif" font-weight="700" font-size="10" transform="matrix(1.17518 0 0 1.17847 205.017 331)">Processor</text><text fill="#6AA84F" font-family="Times New Roman,Times New Roman_MSFontService,sans-serif" font-weight="700" font-size="10" transform="matrix(1.17518 0 0 1.17847 210.882 354)">RU</text><text fill="#6AA84F" font-family="Times New Roman,Times New Roman_MSFontService,sans-serif" font-weight="700" font-size="10" transform="matrix(1.17518 0 0 1.17847 227.334 354)">-</text><text fill="#6AA84F" font-family="Times New Roman,Times New Roman_MSFontService,sans-serif" font-weight="700" font-size="10" transform="matrix(1.17518 0 0 1.17847 230.86 354)">DL </text><text fill="#6AA84F" font-family="Times New Roman,Times New Roman_MSFontService,sans-serif" font-weight="700" font-size="10" transform="matrix(1.17518 0 0 1.17847 205.017 368)">Processor</text><path d="M0 719.213 120.539 719.213" stroke="#FF0000" stroke-width="1.76278" stroke-linecap="round" stroke-linejoin="round" stroke-miterlimit="3" fill="none" fill-rule="evenodd" transform="matrix(1 0 0 1.0028 560.965 -373.363)"/><path d="M6.36795-3.31496C4.96807-1.31568 2.71049-0.0899192 0.271314-0.00473655L0.2713 0.00473489C2.71048 0.0899109 4.96804 1.31567 6.36795 3.31495" stroke="#FF0000" stroke-width="1.76278" stroke-linecap="round" stroke-linejoin="round" stroke-miterlimit="3" fill="none" fill-rule="evenodd" transform="matrix(-1 0 0 -1.0028 681.504 347.861)"/><path d="M32.0663 712.044 88.4733 712.044 88.4733 726.264 32.0663 726.264Z" fill="#FFFFFF" fill-rule="evenodd" transform="matrix(1 0 0 1.0028 560.965 -373.363)"/><text fill="#FFFFFF" font-family="Times New Roman,Times New Roman_MSFontService,sans-serif" font-weight="700" font-size="10" transform="matrix(1.17518 0 0 1.17847 593.036 351)">-</text><text fill="#FF0000" font-family="Times New Roman,Times New Roman_MSFontService,sans-serif" font-weight="700" font-size="12" transform="matrix(1.17518 0 0 1.17847 596.562 351)">Waiting</text><text fill="#FFFFFF" font-family="Times New Roman,Times New Roman_MSFontService,sans-serif" font-weight="700" font-size="10" transform="matrix(1.17518 0 0 1.17847 644.744 351)">-</text></g></svg>