<svg width="532" height="149" xmlns="http://www.w3.org/2000/svg" xmlns:xlink="http://www.w3.org/1999/xlink" xml:space="preserve" overflow="hidden"><defs><clipPath id="clip0"><rect x="204" y="222" width="532" height="149"/></clipPath></defs><g clip-path="url(#clip0)" transform="translate(-204 -222)"><text font-family="Cambria Math,Cambria Math_MSFontService,sans-serif" font-weight="400" font-size="10" transform="matrix(1.17703 0 0 1.17451 505.842 267)">④</text><path d="M0 702.667 125.526 702.667 125.526 718.8 0 718.8Z" fill="#D8D8D8" fill-rule="evenodd" transform="matrix(1.00214 0 0 1 280.95 -447.318)"/><text fill="#595959" font-family="Times New Roman,Times New Roman_MSFontService,sans-serif" font-weight="400" font-size="8" transform="matrix(1.17703 0 0 1.17451 301.607 266)">DL signal in RH slot </text><text fill="#595959" font-family="Times New Roman,Times New Roman_MSFontService,sans-serif" font-style="italic" font-weight="400" font-size="8" transform="matrix(1.17703 0 0 1.17451 381.645 266)">s</text><path d="M0 718.8 457.389 718.8" stroke="#000000" stroke-width="0.880882" stroke-linecap="round" stroke-linejoin="round" stroke-miterlimit="3" fill="none" fill-rule="evenodd" transform="matrix(1.00214 0 0 1 259.102 -379.665)"/><path d="M7.71653 2.57218 0 0 7.71653-2.57218 7.71653 2.57218" fill-rule="evenodd" transform="matrix(-1.00214 0 0 -1 725.204 339.134)"/><path d="M0 718.8 457.389 718.8" stroke="#000000" stroke-width="0.880882" stroke-linecap="round" stroke-linejoin="round" stroke-miterlimit="3" fill="none" fill-rule="evenodd" transform="matrix(1.00214 0 0 1 259.102 -464.23)"/><path d="M7.71653 2.57218 0 0 7.71653-2.57218 7.71653 2.57218" fill-rule="evenodd" transform="matrix(-1.00214 0 0 -1 725.204 254.57)"/><path d="M0 718.8 33.8259 718.8" stroke="#000000" stroke-width="0.587255" stroke-linecap="round" stroke-linejoin="round" stroke-miterlimit="3" fill="none" fill-rule="evenodd" transform="matrix(6.13636e-17 1 -1.00214 6.12323e-17 1000.63 237.657)"/><path d="M0 718.8 33.8259 718.8" stroke="#000000" stroke-width="0.587255" stroke-linecap="round" stroke-linejoin="round" stroke-miterlimit="3" fill="none" fill-rule="evenodd" transform="matrix(6.13636e-17 1 -1.00214 6.12323e-17 1381.98 237.657)"/><path d="M0 718.8 33.8259 718.8" stroke="#000000" stroke-width="0.587255" stroke-linecap="round" stroke-linejoin="round" stroke-miterlimit="3" fill="none" fill-rule="evenodd" transform="matrix(6.13636e-17 1 -1.00214 6.12323e-17 1127.75 237.657)"/><path d="M0 718.8 33.8259 718.8" stroke="#000000" stroke-width="0.587255" stroke-linecap="round" stroke-linejoin="round" stroke-miterlimit="3" fill="none" fill-rule="evenodd" transform="matrix(6.13636e-17 1 -1.00214 6.12323e-17 1254.87 237.657)"/><path d="M0 718.8 16.9129 718.8" stroke="#000000" stroke-width="0.587255" stroke-linecap="round" stroke-linejoin="round" stroke-miterlimit="3" fill="none" fill-rule="evenodd" transform="matrix(6.13636e-17 1 -1.00214 6.12323e-17 1021.81 322.221)"/><path d="M0 718.8 16.9129 718.8" stroke="#000000" stroke-width="0.587255" stroke-linecap="round" stroke-linejoin="round" stroke-miterlimit="3" fill="none" fill-rule="evenodd" transform="matrix(6.13636e-17 1 -1.00214 6.12323e-17 1403.17 322.221)"/><path d="M0 718.8 16.9129 718.8" stroke="#000000" stroke-width="0.587255" stroke-linecap="round" stroke-linejoin="round" stroke-miterlimit="3" fill="none" fill-rule="evenodd" transform="matrix(6.13636e-17 1 -1.00214 6.12323e-17 1148.93 322.221)"/><path d="M0 718.8 16.9129 718.8" stroke="#000000" stroke-width="0.587255" stroke-linecap="round" stroke-linejoin="round" stroke-miterlimit="3" fill="none" fill-rule="evenodd" transform="matrix(6.13636e-17 1 -1.00214 6.12323e-17 1276.05 322.221)"/><path d="M0 702.667 125.526 702.667 125.526 718.8 0 718.8Z" fill="#D8D8D8" fill-rule="evenodd" transform="matrix(1.00214 0 0 1 535.187 -465.009)"/><text fill="#595959" font-family="Times New Roman,Times New Roman_MSFontService,sans-serif" font-weight="400" font-size="8" transform="matrix(1.17703 0 0 1.17451 547.429 249)">UL signal in RH slot </text><text fill="#595959" font-family="Times New Roman,Times New Roman_MSFontService,sans-serif" font-style="italic" font-weight="400" font-size="8" transform="matrix(1.17703 0 0 1.17451 627.466 249)">s</text><text fill="#595959" font-family="Times New Roman,Times New Roman_MSFontService,sans-serif" font-weight="400" font-size="8" transform="matrix(1.17703 0 0 1.17451 630.997 249)"> </text><text fill="#595959" font-family="Times New Roman,Times New Roman_MSFontService,sans-serif" font-weight="400" font-size="8" transform="matrix(1.17703 0 0 1.17451 633.351 249)">+ </text><text fill="#595959" font-family="Times New Roman,Times New Roman_MSFontService,sans-serif" font-style="italic" font-weight="400" font-size="8" transform="matrix(1.17703 0 0 1.17451 641.591 249)">H</text><path d="M0 702.667 125.526 702.667 125.526 718.8 0 718.8Z" fill="#D8D8D8" fill-rule="evenodd" transform="matrix(1.00214 0 0 1 535.187 -447.318)"/><text fill="#595959" font-family="Times New Roman,Times New Roman_MSFontService,sans-serif" font-weight="400" font-size="8" transform="matrix(1.17703 0 0 1.17451 547.429 266)">DL signal in RH slot </text><text fill="#595959" font-family="Times New Roman,Times New Roman_MSFontService,sans-serif" font-style="italic" font-weight="400" font-size="8" transform="matrix(1.17703 0 0 1.17451 627.466 266)">s</text><text fill="#595959" font-family="Times New Roman,Times New Roman_MSFontService,sans-serif" font-weight="400" font-size="8" transform="matrix(1.17703 0 0 1.17451 630.997 266)"> </text><text fill="#595959" font-family="Times New Roman,Times New Roman_MSFontService,sans-serif" font-weight="400" font-size="8" transform="matrix(1.17703 0 0 1.17451 633.351 266)">+ </text><text fill="#595959" font-family="Times New Roman,Times New Roman_MSFontService,sans-serif" font-style="italic" font-weight="400" font-size="8" transform="matrix(1.17703 0 0 1.17451 641.591 266)">H</text><text fill="#595959" font-family="Times New Roman,Times New Roman_MSFontService,sans-serif" font-weight="700" font-size="10" transform="matrix(1.17703 0 0 1.17451 214.398 251)">Radio </text><text fill="#595959" font-family="Times New Roman,Times New Roman_MSFontService,sans-serif" font-weight="700" font-size="10" transform="matrix(1.17703 0 0 1.17451 216.034 265)">Head</text><path d="M0 697.659 101.478 697.659 101.478 718.8 1.79216e-06 718.8Z" fill="#FFFFFF" fill-rule="evenodd" transform="matrix(1.00214 0 0 1 229.441 -481.143)"/><text fill="#595959" font-family="Times New Roman,Times New Roman_MSFontService,sans-serif" font-weight="400" font-size="10" transform="matrix(1.17703 0 0 1.17451 258.372 231)">RH slot </text><text fill="#595959" font-family="Times New Roman,Times New Roman_MSFontService,sans-serif" font-style="italic" font-weight="400" font-size="10" transform="matrix(1.17703 0 0 1.17451 299.568 231)">s</text><path d="M0 697.659 101.478 697.659 101.478 718.8 1.79216e-06 718.8Z" fill="#FFFFFF" fill-rule="evenodd" transform="matrix(1.00214 0 0 1 356.56 -481.143)"/><text fill="#595959" font-family="Times New Roman,Times New Roman_MSFontService,sans-serif" font-weight="400" font-size="10" transform="matrix(1.17703 0 0 1.17451 376.287 231)">RH slot </text><text fill="#595959" font-family="Times New Roman,Times New Roman_MSFontService,sans-serif" font-style="italic" font-weight="400" font-size="10" transform="matrix(1.17703 0 0 1.17451 417.482 231)">s</text><text fill="#595959" font-family="Times New Roman,Times New Roman_MSFontService,sans-serif" font-weight="400" font-size="10" transform="matrix(1.17703 0 0 1.17451 422.191 231)"> </text><text fill="#595959" font-family="Times New Roman,Times New Roman_MSFontService,sans-serif" font-weight="400" font-size="10" transform="matrix(1.17703 0 0 1.17451 425.722 231)">+ </text><text fill="#595959" font-family="Times New Roman,Times New Roman_MSFontService,sans-serif" font-weight="400" font-size="10" transform="matrix(1.17703 0 0 1.17451 436.315 231)">1</text><path d="M0 697.659 101.478 697.659 101.478 718.8 1.79216e-06 718.8Z" fill="#FFFFFF" fill-rule="evenodd" transform="matrix(1.00214 0 0 1 483.678 -481.143)"/><text fill="#595959" font-family="Times New Roman,Times New Roman_MSFontService,sans-serif" font-weight="400" font-size="10" transform="matrix(1.17703 0 0 1.17451 502.099 231)">RH slot </text><text fill="#595959" font-family="Times New Roman,Times New Roman_MSFontService,sans-serif" font-style="italic" font-weight="400" font-size="10" transform="matrix(1.17703 0 0 1.17451 543.295 231)">s</text><text fill="#595959" font-family="Times New Roman,Times New Roman_MSFontService,sans-serif" font-weight="400" font-size="10" transform="matrix(1.17703 0 0 1.17451 548.003 231)"> </text><text fill="#595959" font-family="Times New Roman,Times New Roman_MSFontService,sans-serif" font-weight="400" font-size="10" transform="matrix(1.17703 0 0 1.17451 551.534 231)">+ </text><text fill="#595959" font-family="Times New Roman,Times New Roman_MSFontService,sans-serif" font-style="italic" font-weight="400" font-size="10" transform="matrix(1.17703 0 0 1.17451 562.127 231)">H</text><path d="M0 697.659 101.478 697.659 101.478 718.8 1.79216e-06 718.8Z" fill="#FFFFFF" fill-rule="evenodd" transform="matrix(1.00214 0 0 1 610.797 -481.143)"/><text fill="#595959" font-family="Times New Roman,Times New Roman_MSFontService,sans-serif" font-weight="400" font-size="10" transform="matrix(1.17703 0 0 1.17451 620.013 231)">RH slot </text><text fill="#595959" font-family="Times New Roman,Times New Roman_MSFontService,sans-serif" font-style="italic" font-weight="400" font-size="10" transform="matrix(1.17703 0 0 1.17451 661.209 231)">s</text><text fill="#595959" font-family="Times New Roman,Times New Roman_MSFontService,sans-serif" font-weight="400" font-size="10" transform="matrix(1.17703 0 0 1.17451 665.917 231)"> </text><text fill="#595959" font-family="Times New Roman,Times New Roman_MSFontService,sans-serif" font-weight="400" font-size="10" transform="matrix(1.17703 0 0 1.17451 669.448 231)">+ </text><text fill="#595959" font-family="Times New Roman,Times New Roman_MSFontService,sans-serif" font-style="italic" font-weight="400" font-size="10" transform="matrix(1.17703 0 0 1.17451 680.042 231)">H</text><text fill="#595959" font-family="Times New Roman,Times New Roman_MSFontService,sans-serif" font-weight="400" font-size="10" transform="matrix(1.17703 0 0 1.17451 688.281 231)"> </text><text fill="#595959" font-family="Times New Roman,Times New Roman_MSFontService,sans-serif" font-weight="400" font-size="10" transform="matrix(1.17703 0 0 1.17451 691.812 231)">+ </text><text fill="#595959" font-family="Times New Roman,Times New Roman_MSFontService,sans-serif" font-weight="400" font-size="10" transform="matrix(1.17703 0 0 1.17451 702.405 231)">1</text><path d="M0 697.659 101.478 697.659 101.478 718.8 1.79216e-06 718.8Z" fill="#FFFFFF" fill-rule="evenodd" transform="matrix(1.00214 0 0 1 377.746 -396.578)"/><text fill="#CC0000" font-family="Times New Roman,Times New Roman_MSFontService,sans-serif" font-weight="400" font-size="10" transform="matrix(1.17703 0 0 1.17451 398.132 315)">UP slot </text><text fill="#CC0000" font-family="Times New Roman,Times New Roman_MSFontService,sans-serif" font-style="italic" font-weight="400" font-size="10" transform="matrix(1.17703 0 0 1.17451 438.151 315)">s</text><text fill="#CC0000" font-family="Times New Roman,Times New Roman_MSFontService,sans-serif" font-weight="400" font-size="10" transform="matrix(1.17703 0 0 1.17451 442.859 315)"> </text><text fill="#CC0000" font-family="Times New Roman,Times New Roman_MSFontService,sans-serif" font-weight="400" font-size="10" transform="matrix(1.17703 0 0 1.17451 446.39 315)">+ </text><text fill="#CC0000" font-family="Times New Roman,Times New Roman_MSFontService,sans-serif" font-weight="400" font-size="10" transform="matrix(1.17703 0 0 1.17451 456.983 315)">1</text><path d="M0 697.659 101.478 697.659 101.478 718.8 1.79216e-06 718.8Z" fill="#FFFFFF" fill-rule="evenodd" transform="matrix(1.00214 0 0 1 504.865 -396.578)"/><text fill="#CC0000" font-family="Times New Roman,Times New Roman_MSFontService,sans-serif" font-weight="400" font-size="10" transform="matrix(1.17703 0 0 1.17451 523.944 315)">UP slot </text><text fill="#CC0000" font-family="Times New Roman,Times New Roman_MSFontService,sans-serif" font-style="italic" font-weight="400" font-size="10" transform="matrix(1.17703 0 0 1.17451 563.963 315)">s</text><text fill="#CC0000" font-family="Times New Roman,Times New Roman_MSFontService,sans-serif" font-weight="400" font-size="10" transform="matrix(1.17703 0 0 1.17451 568.672 315)"> </text><text fill="#CC0000" font-family="Times New Roman,Times New Roman_MSFontService,sans-serif" font-weight="400" font-size="10" transform="matrix(1.17703 0 0 1.17451 572.203 315)">+ </text><text fill="#CC0000" font-family="Times New Roman,Times New Roman_MSFontService,sans-serif" font-style="italic" font-weight="400" font-size="10" transform="matrix(1.17703 0 0 1.17451 582.796 315)">H</text><path d="M0 697.659 101.478 697.659 101.478 718.8 1.79216e-06 718.8Z" fill="#FFFFFF" fill-rule="evenodd" transform="matrix(1.00214 0 0 1 631.984 -396.578)"/><text fill="#CC0000" font-family="Times New Roman,Times New Roman_MSFontService,sans-serif" font-weight="400" font-size="10" transform="matrix(1.17703 0 0 1.17451 641.859 315)">UP slot </text><text fill="#CC0000" font-family="Times New Roman,Times New Roman_MSFontService,sans-serif" font-style="italic" font-weight="400" font-size="10" transform="matrix(1.17703 0 0 1.17451 681.878 315)">s</text><text fill="#CC0000" font-family="Times New Roman,Times New Roman_MSFontService,sans-serif" font-weight="400" font-size="10" transform="matrix(1.17703 0 0 1.17451 686.586 315)"> </text><text fill="#CC0000" font-family="Times New Roman,Times New Roman_MSFontService,sans-serif" font-weight="400" font-size="10" transform="matrix(1.17703 0 0 1.17451 690.117 315)">+ </text><text fill="#CC0000" font-family="Times New Roman,Times New Roman_MSFontService,sans-serif" font-style="italic" font-weight="400" font-size="10" transform="matrix(1.17703 0 0 1.17451 700.71 315)">H</text><text fill="#CC0000" font-family="Times New Roman,Times New Roman_MSFontService,sans-serif" font-weight="400" font-size="10" transform="matrix(1.17703 0 0 1.17451 708.949 315)"> </text><text fill="#CC0000" font-family="Times New Roman,Times New Roman_MSFontService,sans-serif" font-weight="400" font-size="10" transform="matrix(1.17703 0 0 1.17451 712.481 315)">+ </text><text fill="#CC0000" font-family="Times New Roman,Times New Roman_MSFontService,sans-serif" font-weight="400" font-size="10" transform="matrix(1.17703 0 0 1.17451 723.074 315)">1</text><path d="M0 697.659 101.478 697.659 101.478 718.8 1.79216e-06 718.8Z" fill="#FFFFFF" fill-rule="evenodd" transform="matrix(1.00214 0 0 1 381.983 -341.611)"/><text fill="#6AA84F" font-family="Times New Roman,Times New Roman_MSFontService,sans-serif" font-weight="400" font-size="10" transform="matrix(1.17703 0 0 1.17451 391.859 370)">DP slot </text><text fill="#6AA84F" font-family="Times New Roman,Times New Roman_MSFontService,sans-serif" font-style="italic" font-weight="400" font-size="10" transform="matrix(1.17703 0 0 1.17451 431.877 370)">s</text><text fill="#6AA84F" font-family="Times New Roman,Times New Roman_MSFontService,sans-serif" font-weight="400" font-size="10" transform="matrix(1.17703 0 0 1.17451 436.586 370)"> </text><text fill="#6AA84F" font-family="Times New Roman,Times New Roman_MSFontService,sans-serif" font-weight="400" font-size="10" transform="matrix(1.17703 0 0 1.17451 440.117 370)">+ </text><text fill="#6AA84F" font-family="Times New Roman,Times New Roman_MSFontService,sans-serif" font-style="italic" font-weight="400" font-size="10" transform="matrix(1.17703 0 0 1.17451 450.71 370)">H</text><text fill="#6AA84F" font-family="Times New Roman,Times New Roman_MSFontService,sans-serif" font-weight="400" font-size="10" transform="matrix(1.17703 0 0 1.17451 458.949 370)"> </text><text fill="#6AA84F" font-family="Times New Roman,Times New Roman_MSFontService,sans-serif" font-weight="400" font-size="10" transform="matrix(1.17703 0 0 1.17451 462.48 370)">+ </text><text fill="#6AA84F" font-family="Times New Roman,Times New Roman_MSFontService,sans-serif" font-weight="400" font-size="10" transform="matrix(1.17703 0 0 1.17451 473.073 370)">1</text><path d="M0 697.659 101.478 697.659 101.478 718.8 1.79216e-06 718.8Z" fill="#FFFFFF" fill-rule="evenodd" transform="matrix(1.00214 0 0 1 636.221 -341.611)"/><text fill="#6AA84F" font-family="Times New Roman,Times New Roman_MSFontService,sans-serif" font-weight="400" font-size="10" transform="matrix(1.17703 0 0 1.17451 643.154 370)">DP slot </text><text fill="#6AA84F" font-family="Times New Roman,Times New Roman_MSFontService,sans-serif" font-style="italic" font-weight="400" font-size="10" transform="matrix(1.17703 0 0 1.17451 683.173 370)">s</text><text fill="#6AA84F" font-family="Times New Roman,Times New Roman_MSFontService,sans-serif" font-weight="400" font-size="10" transform="matrix(1.17703 0 0 1.17451 687.881 370)"> </text><text fill="#6AA84F" font-family="Times New Roman,Times New Roman_MSFontService,sans-serif" font-weight="400" font-size="10" transform="matrix(1.17703 0 0 1.17451 691.412 370)">+ </text><text fill="#6AA84F" font-family="Times New Roman,Times New Roman_MSFontService,sans-serif" font-weight="400" font-size="10" transform="matrix(1.17703 0 0 1.17451 702.005 370)">2</text><text fill="#6AA84F" font-family="Times New Roman,Times New Roman_MSFontService,sans-serif" font-style="italic" font-weight="400" font-size="10" transform="matrix(1.17703 0 0 1.17451 707.89 370)">H</text><text fill="#6AA84F" font-family="Times New Roman,Times New Roman_MSFontService,sans-serif" font-weight="400" font-size="10" transform="matrix(1.17703 0 0 1.17451 716.129 370)"> </text><text fill="#6AA84F" font-family="Times New Roman,Times New Roman_MSFontService,sans-serif" font-weight="400" font-size="10" transform="matrix(1.17703 0 0 1.17451 719.66 370)">+ </text><text fill="#6AA84F" font-family="Times New Roman,Times New Roman_MSFontService,sans-serif" font-weight="400" font-size="10" transform="matrix(1.17703 0 0 1.17451 730.254 370)">1</text><path d="M0 697.659 101.478 697.659 101.478 718.8 1.79216e-06 718.8Z" fill="#FFFFFF" fill-rule="evenodd" transform="matrix(1.00214 0 0 1 250.627 -396.578)"/><text fill="#CC0000" font-family="Times New Roman,Times New Roman_MSFontService,sans-serif" font-weight="400" font-size="10" transform="matrix(1.17703 0 0 1.17451 280.218 315)">UP slot </text><text fill="#CC0000" font-family="Times New Roman,Times New Roman_MSFontService,sans-serif" font-style="italic" font-weight="400" font-size="10" transform="matrix(1.17703 0 0 1.17451 320.237 315)">s</text><path d="M0 697.659 101.478 697.659 101.478 718.8 1.79216e-06 718.8Z" fill="#FFFFFF" fill-rule="evenodd" transform="matrix(1.00214 0 0 1 254.864 -341.611)"/><text fill="#6AA84F" font-family="Times New Roman,Times New Roman_MSFontService,sans-serif" font-weight="400" font-size="10" transform="matrix(1.17703 0 0 1.17451 273.944 370)">DP slot </text><text fill="#6AA84F" font-family="Times New Roman,Times New Roman_MSFontService,sans-serif" font-style="italic" font-weight="400" font-size="10" transform="matrix(1.17703 0 0 1.17451 313.963 370)">s</text><text fill="#6AA84F" font-family="Times New Roman,Times New Roman_MSFontService,sans-serif" font-weight="400" font-size="10" transform="matrix(1.17703 0 0 1.17451 318.671 370)"> </text><text fill="#6AA84F" font-family="Times New Roman,Times New Roman_MSFontService,sans-serif" font-weight="400" font-size="10" transform="matrix(1.17703 0 0 1.17451 322.202 370)">+ </text><text fill="#6AA84F" font-family="Times New Roman,Times New Roman_MSFontService,sans-serif" font-style="italic" font-weight="400" font-size="10" transform="matrix(1.17703 0 0 1.17451 332.795 370)">H</text><path d="M0 718.8 16.9129 718.8" stroke="#000000" stroke-width="0.587255" stroke-linecap="round" stroke-linejoin="round" stroke-miterlimit="3" fill="none" fill-rule="evenodd" transform="matrix(6.13636e-17 1 -1.00214 6.12323e-17 1026.05 339.134)"/><path d="M0 718.8 16.9129 718.8" stroke="#000000" stroke-width="0.587255" stroke-linecap="round" stroke-linejoin="round" stroke-miterlimit="3" fill="none" fill-rule="evenodd" transform="matrix(6.13636e-17 1 -1.00214 6.12323e-17 1407.41 339.134)"/><path d="M0 718.8 16.9129 718.8" stroke="#000000" stroke-width="0.587255" stroke-linecap="round" stroke-linejoin="round" stroke-miterlimit="3" fill="none" fill-rule="evenodd" transform="matrix(6.13636e-17 1 -1.00214 6.12323e-17 1153.17 339.134)"/><path d="M0 718.8 16.9129 718.8" stroke="#000000" stroke-width="0.587255" stroke-linecap="round" stroke-linejoin="round" stroke-miterlimit="3" fill="none" fill-rule="evenodd" transform="matrix(6.13636e-17 1 -1.00214 6.12323e-17 1280.29 339.134)"/><path d="M0 697.659 101.478 697.659 101.478 718.8 1.79216e-06 718.8Z" fill="#FFFFFF" fill-rule="evenodd" transform="matrix(1.00214 0 0 1 509.102 -341.611)"/><text fill="#6AA84F" font-family="Times New Roman,Times New Roman_MSFontService,sans-serif" font-weight="400" font-size="10" transform="matrix(1.17703 0 0 1.17451 525.239 370)">DP slot </text><text fill="#6AA84F" font-family="Times New Roman,Times New Roman_MSFontService,sans-serif" font-style="italic" font-weight="400" font-size="10" transform="matrix(1.17703 0 0 1.17451 565.258 370)">s</text><text fill="#6AA84F" font-family="Times New Roman,Times New Roman_MSFontService,sans-serif" font-weight="400" font-size="10" transform="matrix(1.17703 0 0 1.17451 569.966 370)"> </text><text fill="#6AA84F" font-family="Times New Roman,Times New Roman_MSFontService,sans-serif" font-weight="400" font-size="10" transform="matrix(1.17703 0 0 1.17451 573.497 370)">+ </text><text fill="#6AA84F" font-family="Times New Roman,Times New Roman_MSFontService,sans-serif" font-weight="400" font-size="10" transform="matrix(1.17703 0 0 1.17451 584.091 370)">2</text><text fill="#6AA84F" font-family="Times New Roman,Times New Roman_MSFontService,sans-serif" font-style="italic" font-weight="400" font-size="10" transform="matrix(1.17703 0 0 1.17451 589.976 370)">H</text><path d="M0 702.667 125.526 702.667 125.526 718.8 0 718.8Z" fill="#D8D8D8" fill-rule="evenodd" transform="matrix(1.00214 0 0 1 280.95 -465.009)"/><text fill="#595959" font-family="Times New Roman,Times New Roman_MSFontService,sans-serif" font-weight="400" font-size="8" transform="matrix(1.17703 0 0 1.17451 301.607 249)">UL signal in RH slot </text><text fill="#595959" font-family="Times New Roman,Times New Roman_MSFontService,sans-serif" font-style="italic" font-weight="400" font-size="8" transform="matrix(1.17703 0 0 1.17451 381.645 249)">s</text><path d="M0 687.088 31.2808 687.088 31.2808 718.8 5.98581e-07 718.8Z" fill="#FFFFFF" fill-rule="evenodd" transform="matrix(1.00214 0 0 1 478.597 -362.964)"/><text font-family="Times New Roman,Times New Roman_MSFontService,sans-serif" font-weight="400" font-size="14" transform="matrix(1.17703 0 0 1.17451 486.036 345)">···</text><path d="M0 687.088 31.2808 687.088 31.2808 718.8 5.98581e-07 718.8Z" fill="#FFFFFF" fill-rule="evenodd" transform="matrix(1.00214 0 0 1 455.292 -447.529)"/><text font-family="Times New Roman,Times New Roman_MSFontService,sans-serif" font-weight="400" font-size="14" transform="matrix(1.17703 0 0 1.17451 462.731 260)">···</text><path d="M0 719.431 33.0562 719.431" stroke="#000000" stroke-width="0.587771" stroke-linecap="round" stroke-linejoin="round" stroke-miterlimit="3" stroke-dasharray="0.587771 1.17554" fill="none" fill-rule="evenodd" transform="matrix(0.640993 0.767546 -0.769191 0.639623 833.668 -184.454)"/><path d="M0 719.431 33.0562 719.431" stroke="#000000" stroke-width="0.587771" stroke-linecap="round" stroke-linejoin="round" stroke-miterlimit="3" stroke-dasharray="0.587771 1.17554" fill="none" fill-rule="evenodd" transform="matrix(0.640993 0.767546 -0.769191 0.639623 960.787 -184.454)"/><path d="M0 719.431 33.0562 719.431" stroke="#000000" stroke-width="0.587771" stroke-linecap="round" stroke-linejoin="round" stroke-miterlimit="3" stroke-dasharray="0.587771 1.17554" fill="none" fill-rule="evenodd" transform="matrix(0.640993 0.767546 -0.769191 0.639623 1087.91 -184.454)"/><path d="M0 719.431 33.0562 719.431" stroke="#000000" stroke-width="0.587771" stroke-linecap="round" stroke-linejoin="round" stroke-miterlimit="3" stroke-dasharray="0.587771 1.17554" fill="none" fill-rule="evenodd" transform="matrix(0.640993 0.767546 -0.769191 0.639623 1215.02 -184.454)"/><path d="M0 702.667 18.4985 702.667 18.4985 718.8 0 718.8Z" fill="#F4CCCC" fill-rule="evenodd" transform="matrix(1.00214 0 0 1 302.136 -380.444)"/><path d="M0 702.667 1.32132 702.667 1.32132 718.8 0 718.8Z" fill="#E06666" fill-rule="evenodd" transform="matrix(1.00214 0 0 1 321.077 -380.444)"/><path d="M0 702.667 18.4985 702.667 18.4985 718.8 0 718.8Z" fill="#F4CCCC" fill-rule="evenodd" transform="matrix(1.00214 0 0 1 322.805 -380.444)"/><path d="M0 702.667 1.32132 702.667 1.32132 718.8 0 718.8Z" fill="#E06666" fill-rule="evenodd" transform="matrix(1.00214 0 0 1 341.746 -380.444)"/><path d="M0 702.667 18.4985 702.667 18.4985 718.8 0 718.8Z" fill="#F4CCCC" fill-rule="evenodd" transform="matrix(1.00214 0 0 1 343.473 -380.444)"/><path d="M0 702.667 1.32132 702.667 1.32132 718.8 0 718.8Z" fill="#E06666" fill-rule="evenodd" transform="matrix(1.00214 0 0 1 362.414 -380.444)"/><path d="M0 702.667 1.32132 702.667 1.32132 718.8 0 718.8Z" fill="#E06666" fill-rule="evenodd" transform="matrix(1.00214 0 0 1 426.607 -380.444)"/><path d="M0 702.667 18.4985 702.667 18.4985 718.8 0 718.8Z" fill="#F4CCCC" fill-rule="evenodd" transform="matrix(1.00214 0 0 1 407.666 -380.444)"/><text fill="#CC0000" font-family="Times New Roman,Times New Roman_MSFontService,sans-serif" font-weight="400" font-size="14" transform="matrix(1.17703 0 0 1.17451 377.467 336)">···</text><path d="M0 702.667 18.4985 702.667 18.4985 718.8 0 718.8Z" fill="#F4CCCC" fill-rule="evenodd" transform="matrix(1.00214 0 0 1 556.374 -380.444)"/><path d="M0 702.667 1.32132 702.667 1.32132 718.8 0 718.8Z" fill="#E06666" fill-rule="evenodd" transform="matrix(1.00214 0 0 1 575.315 -380.444)"/><path d="M0 702.667 18.4985 702.667 18.4985 718.8 0 718.8Z" fill="#F4CCCC" fill-rule="evenodd" transform="matrix(1.00214 0 0 1 577.042 -380.444)"/><path d="M0 702.667 1.32132 702.667 1.32132 718.8 0 718.8Z" fill="#E06666" fill-rule="evenodd" transform="matrix(1.00214 0 0 1 595.983 -380.444)"/><path d="M0 702.667 18.4985 702.667 18.4985 718.8 0 718.8Z" fill="#F4CCCC" fill-rule="evenodd" transform="matrix(1.00214 0 0 1 597.711 -380.444)"/><path d="M0 702.667 1.32132 702.667 1.32132 718.8 0 718.8Z" fill="#E06666" fill-rule="evenodd" transform="matrix(1.00214 0 0 1 616.652 -380.444)"/><path d="M0 702.667 1.32132 702.667 1.32132 718.8 0 718.8Z" fill="#E06666" fill-rule="evenodd" transform="matrix(1.00214 0 0 1 680.844 -380.444)"/><path d="M0 702.667 18.4985 702.667 18.4985 718.8 0 718.8Z" fill="#F4CCCC" fill-rule="evenodd" transform="matrix(1.00214 0 0 1 661.903 -380.444)"/><text fill="#CC0000" font-family="Times New Roman,Times New Roman_MSFontService,sans-serif" font-weight="400" font-size="14" transform="matrix(1.17703 0 0 1.17451 631.704 336)">···</text><path d="M0 702.667 2.90797 702.667 2.90797 718.8-7.66148e-08 718.8Z" fill="#93C47D" fill-rule="evenodd" transform="matrix(1.00214 0 0 1 429.256 -362.754)"/><path d="M0 702.667 1.32132 702.667 1.32132 718.8 0 718.8Z" fill="#D9EAD3" fill-rule="evenodd" transform="matrix(1.00214 0 0 1 433.489 -362.754)"/><path d="M0 702.667 2.90797 702.667 2.90797 718.8-7.66148e-08 718.8Z" fill="#93C47D" fill-rule="evenodd" transform="matrix(1.00214 0 0 1 683.494 -362.754)"/><path d="M0 702.667 1.32132 702.667 1.32132 718.8 0 718.8Z" fill="#D9EAD3" fill-rule="evenodd" transform="matrix(1.00214 0 0 1 687.727 -362.754)"/><text fill="#CC0000" font-family="Times New Roman,Times New Roman_MSFontService,sans-serif" font-weight="700" font-size="10" transform="matrix(1.17703 0 0 1.17451 210.808 317)">RU</text><text fill="#CC0000" font-family="Times New Roman,Times New Roman_MSFontService,sans-serif" font-weight="700" font-size="10" transform="matrix(1.17703 0 0 1.17451 227.287 317)">-</text><text fill="#CC0000" font-family="Times New Roman,Times New Roman_MSFontService,sans-serif" font-weight="700" font-size="10" transform="matrix(1.17703 0 0 1.17451 230.818 317)">UL </text><text fill="#CC0000" font-family="Times New Roman,Times New Roman_MSFontService,sans-serif" font-weight="700" font-size="10" transform="matrix(1.17703 0 0 1.17451 204.935 331)">Processor</text><text fill="#6AA84F" font-family="Times New Roman,Times New Roman_MSFontService,sans-serif" font-weight="700" font-size="10" transform="matrix(1.17703 0 0 1.17451 210.808 354)">RU</text><text fill="#6AA84F" font-family="Times New Roman,Times New Roman_MSFontService,sans-serif" font-weight="700" font-size="10" transform="matrix(1.17703 0 0 1.17451 227.287 354)">-</text><text fill="#6AA84F" font-family="Times New Roman,Times New Roman_MSFontService,sans-serif" font-weight="700" font-size="10" transform="matrix(1.17703 0 0 1.17451 230.818 354)">DL </text><text fill="#6AA84F" font-family="Times New Roman,Times New Roman_MSFontService,sans-serif" font-weight="700" font-size="10" transform="matrix(1.17703 0 0 1.17451 204.935 368)">Processor</text><text font-family="Cambria Math,Cambria Math_MSFontService,sans-serif" font-weight="400" font-size="10" transform="matrix(1.17703 0 0 1.17451 251.604 250)">①</text><path d="M3.55876 718.8 3.98159 718.8 15.2216 718.8" stroke="#000000" stroke-width="0.587255" stroke-linecap="round" stroke-linejoin="round" stroke-miterlimit="3" fill="none" fill-rule="evenodd" transform="matrix(-1.00214 1.22465e-16 -1.22727e-16 -1 279.626 964.524)"/><path d="M4.5571 2.27855 0 0 4.51419-2.26348C3.80912-0.830565 3.81203 0.849081 4.52212 2.27953" fill-rule="evenodd" transform="matrix(-1.00214 1.22465e-16 -1.22727e-16 -1 279.632 245.724)"/><path d="M3.55876 718.8 3.98159 718.8 15.2216 718.8" stroke="#000000" stroke-width="0.587255" stroke-linecap="round" stroke-linejoin="round" stroke-miterlimit="3" fill="none" fill-rule="evenodd" transform="matrix(-1.00214 1.22465e-16 -1.22727e-16 -1 533.863 982.215)"/><path d="M4.5571 2.27855 0 0 4.51419-2.26348C3.80912-0.830565 3.81203 0.849081 4.52212 2.27953" fill-rule="evenodd" transform="matrix(-1.00214 1.22465e-16 -1.22727e-16 -1 533.869 263.415)"/><path d="M3.57051 718.8 3.99333 718.8 15.2216 718.8" stroke="#000000" stroke-width="0.587255" stroke-linecap="round" stroke-linejoin="round" stroke-miterlimit="3" fill="none" fill-rule="evenodd" transform="matrix(-1.00214 1.22465e-16 -1.22727e-16 -1 305.075 1066.78)"/><path d="M4.5571 2.27855 0 0 4.51419-2.26348C3.80912-0.830565 3.81203 0.849081 4.52212 2.27953" fill-rule="evenodd" transform="matrix(-1.00214 1.22465e-16 -1.22727e-16 -1 305.069 347.98)"/><text font-family="Cambria Math,Cambria Math_MSFontService,sans-serif" font-weight="400" font-size="10" transform="matrix(1.17703 0 0 1.17451 277.051 352)">③</text><path d="M3.55876 718.8 3.98159 718.8 15.2216 718.8" stroke="#000000" stroke-width="0.587255" stroke-linecap="round" stroke-linejoin="round" stroke-miterlimit="3" fill="none" fill-rule="evenodd" transform="matrix(-1.00214 1.22465e-16 -1.22727e-16 -1 300.813 1049.09)"/><path d="M4.5571 2.27855 0 0 4.51419-2.26348C3.80912-0.830565 3.81203 0.849081 4.52212 2.27953" fill-rule="evenodd" transform="matrix(-1.00214 1.22465e-16 -1.22727e-16 -1 300.819 330.288)"/><text font-family="Cambria Math,Cambria Math_MSFontService,sans-serif" font-weight="400" font-size="10" transform="matrix(1.17703 0 0 1.17451 272.791 334)">②</text></g></svg>