<svg width="527" height="150" xmlns="http://www.w3.org/2000/svg" xmlns:xlink="http://www.w3.org/1999/xlink" xml:space="preserve" overflow="hidden"><defs><clipPath id="clip0"><rect x="204" y="221" width="527" height="150"/></clipPath></defs><g clip-path="url(#clip0)" transform="translate(-204 -221)"><path d="M5.62356 720.004 6.0471 720.004 119.377 720.004" stroke="#326CE5" stroke-width="1.76472" stroke-linecap="round" stroke-linejoin="round" stroke-miterlimit="3" fill="none" fill-rule="evenodd" transform="matrix(1 0 0 1.00164 561.252 -373.3)"/><path d="M6.91769 3.45884 0 0 6.85256-3.43597C5.78225-1.2608 5.78668 1.28891 6.8646 3.46033" fill="#326CE5" fill-rule="evenodd" transform="matrix(1 0 0 1.00164 561.246 347.889)"/><path d="M22.6274 709.416 96.7511 709.416 96.7511 730.593 22.6274 730.593Z" fill="#FFFFFF" fill-rule="evenodd" transform="matrix(1 0 0 1.00164 561.252 -373.3)"/><text fill="#FFFFFF" font-family="Times New Roman,Times New Roman_MSFontService,sans-serif" font-weight="700" font-size="10" transform="matrix(1.17648 0 0 1.17841 583.876 353)">-</text><text fill="#326CE5" font-family="Times New Roman,Times New Roman_MSFontService,sans-serif" font-weight="700" font-size="12" transform="matrix(1.17648 0 0 1.17841 587.405 353)">In advance</text><text fill="#FFFFFF" font-family="Times New Roman,Times New Roman_MSFontService,sans-serif" font-weight="700" font-size="10" transform="matrix(1.17648 0 0 1.17841 652.112 353)">-</text><path d="M5.62356 720.004 6.0471 720.004 119.448 720.004" stroke="#326CE5" stroke-width="1.76472" stroke-linecap="round" stroke-linejoin="round" stroke-miterlimit="3" fill="none" fill-rule="evenodd" transform="matrix(1 0 0 1.00164 307.134 -373.3)"/><path d="M6.91769 3.45884 0 0 6.85256-3.43597C5.78225-1.2608 5.78668 1.28891 6.8646 3.46033" fill="#326CE5" fill-rule="evenodd" transform="matrix(1 0 0 1.00164 307.128 347.889)"/><path d="M22.663 709.416 96.7866 709.416 96.7866 730.593 22.663 730.593Z" fill="#FFFFFF" fill-rule="evenodd" transform="matrix(1 0 0 1.00164 307.134 -373.3)"/><text fill="#FFFFFF" font-family="Times New Roman,Times New Roman_MSFontService,sans-serif" font-weight="700" font-size="10" transform="matrix(1.17648 0 0 1.17841 329.793 353)">-</text><text fill="#326CE5" font-family="Times New Roman,Times New Roman_MSFontService,sans-serif" font-weight="700" font-size="12" transform="matrix(1.17648 0 0 1.17841 333.323 353)">In advance</text><text fill="#FFFFFF" font-family="Times New Roman,Times New Roman_MSFontService,sans-serif" font-weight="700" font-size="10" transform="matrix(1.17648 0 0 1.17841 398.029 353)">-</text><path d="M0 698.828 101.648 698.828 101.648 720.004 1.79516e-06 720.004Z" fill="#FFFFFF" fill-rule="evenodd" transform="matrix(1 0 0 1.00164 377.413 -343.994)"/><text fill="#6AA84F" font-family="Times New Roman,Times New Roman_MSFontService,sans-serif" font-weight="400" font-size="10" transform="matrix(1.17648 0 0 1.17841 387.284 370)">DP slot </text><text fill="#6AA84F" font-family="Times New Roman,Times New Roman_MSFontService,sans-serif" font-style="italic" font-weight="400" font-size="10" transform="matrix(1.17648 0 0 1.17841 427.284 370)">s</text><text fill="#6AA84F" font-family="Times New Roman,Times New Roman_MSFontService,sans-serif" font-weight="400" font-size="10" transform="matrix(1.17648 0 0 1.17841 431.99 370)"> </text><text fill="#6AA84F" font-family="Times New Roman,Times New Roman_MSFontService,sans-serif" font-weight="400" font-size="10" transform="matrix(1.17648 0 0 1.17841 435.52 370)">+ </text><text fill="#6AA84F" font-family="Times New Roman,Times New Roman_MSFontService,sans-serif" font-style="italic" font-weight="400" font-size="10" transform="matrix(1.17648 0 0 1.17841 446.108 370)">H</text><text fill="#6AA84F" font-family="Times New Roman,Times New Roman_MSFontService,sans-serif" font-weight="400" font-size="10" transform="matrix(1.17648 0 0 1.17841 454.343 370)"> </text><text fill="#6AA84F" font-family="Times New Roman,Times New Roman_MSFontService,sans-serif" font-weight="400" font-size="10" transform="matrix(1.17648 0 0 1.17841 457.873 370)">+ </text><text fill="#6AA84F" font-family="Times New Roman,Times New Roman_MSFontService,sans-serif" font-weight="400" font-size="10" transform="matrix(1.17648 0 0 1.17841 468.461 370)">1</text><path d="M0 703.844 125.736 703.844 125.736 720.005 0 720.005Z" fill="#D8D8D8" fill-rule="evenodd" transform="matrix(1 0 0 1.00164 280.663 -450.052)"/><text fill="#595959" font-family="Times New Roman,Times New Roman_MSFontService,sans-serif" font-weight="400" font-size="8" transform="matrix(1.17648 0 0 1.17841 301.31 266)">DL signal in RH slot </text><text fill="#595959" font-family="Times New Roman,Times New Roman_MSFontService,sans-serif" font-style="italic" font-weight="400" font-size="8" transform="matrix(1.17648 0 0 1.17841 381.311 266)">s</text><path d="M0 720.004 458.156 720.004" stroke="#000000" stroke-width="0.882358" stroke-linecap="round" stroke-linejoin="round" stroke-miterlimit="3" fill="none" fill-rule="evenodd" transform="matrix(1 0 0 1.00164 258.825 -467.02)"/><path d="M7.72946 2.57649 0 0 7.72946-2.57649 7.72946 2.57649" fill-rule="evenodd" transform="matrix(-1 0 0 -1.00164 724.71 254.168)"/><path d="M0 720.004 33.8826 720.004" stroke="#000000" stroke-width="0.588239" stroke-linecap="round" stroke-linejoin="round" stroke-miterlimit="3" fill="none" fill-rule="evenodd" transform="matrix(6.12323e-17 1.00164 -1 6.1333e-17 1000.01 237.199)"/><path d="M0 720.004 33.8826 720.004" stroke="#000000" stroke-width="0.588239" stroke-linecap="round" stroke-linejoin="round" stroke-miterlimit="3" fill="none" fill-rule="evenodd" transform="matrix(6.12323e-17 1.00164 -1 6.1333e-17 1381.18 237.199)"/><path d="M0 720.004 33.8826 720.004" stroke="#000000" stroke-width="0.588239" stroke-linecap="round" stroke-linejoin="round" stroke-miterlimit="3" fill="none" fill-rule="evenodd" transform="matrix(6.12323e-17 1.00164 -1 6.1333e-17 1127.07 237.199)"/><path d="M0 720.004 33.8826 720.004" stroke="#000000" stroke-width="0.588239" stroke-linecap="round" stroke-linejoin="round" stroke-miterlimit="3" fill="none" fill-rule="evenodd" transform="matrix(6.12323e-17 1.00164 -1 6.1333e-17 1254.12 237.199)"/><path d="M0 720.004 16.9413 720.004" stroke="#000000" stroke-width="0.588239" stroke-linecap="round" stroke-linejoin="round" stroke-miterlimit="3" fill="none" fill-rule="evenodd" transform="matrix(6.12323e-17 1.00164 -1 6.1333e-17 1021.18 322.045)"/><path d="M0 720.004 16.9413 720.004" stroke="#000000" stroke-width="0.588239" stroke-linecap="round" stroke-linejoin="round" stroke-miterlimit="3" fill="none" fill-rule="evenodd" transform="matrix(6.12323e-17 1.00164 -1 6.1333e-17 1402.36 322.045)"/><path d="M0 720.004 16.9413 720.004" stroke="#000000" stroke-width="0.588239" stroke-linecap="round" stroke-linejoin="round" stroke-miterlimit="3" fill="none" fill-rule="evenodd" transform="matrix(6.12323e-17 1.00164 -1 6.1333e-17 1148.24 322.045)"/><path d="M0 720.004 16.9413 720.004" stroke="#000000" stroke-width="0.588239" stroke-linecap="round" stroke-linejoin="round" stroke-miterlimit="3" fill="none" fill-rule="evenodd" transform="matrix(6.12323e-17 1.00164 -1 6.1333e-17 1275.3 322.045)"/><path d="M0 703.844 125.736 703.844 125.736 720.005 0 720.005Z" fill="#D8D8D8" fill-rule="evenodd" transform="matrix(1 0 0 1.00164 534.781 -467.801)"/><text fill="#595959" font-family="Times New Roman,Times New Roman_MSFontService,sans-serif" font-weight="400" font-size="8" transform="matrix(1.17648 0 0 1.17841 547.017 248)">UL signal in RH slot </text><text fill="#595959" font-family="Times New Roman,Times New Roman_MSFontService,sans-serif" font-style="italic" font-weight="400" font-size="8" transform="matrix(1.17648 0 0 1.17841 627.017 248)">s</text><text fill="#595959" font-family="Times New Roman,Times New Roman_MSFontService,sans-serif" font-weight="400" font-size="8" transform="matrix(1.17648 0 0 1.17841 630.547 248)"> </text><text fill="#595959" font-family="Times New Roman,Times New Roman_MSFontService,sans-serif" font-weight="400" font-size="8" transform="matrix(1.17648 0 0 1.17841 632.9 248)">+ </text><text fill="#595959" font-family="Times New Roman,Times New Roman_MSFontService,sans-serif" font-style="italic" font-weight="400" font-size="8" transform="matrix(1.17648 0 0 1.17841 641.135 248)">H</text><path d="M0 703.844 125.736 703.844 125.736 720.005 0 720.005Z" fill="#D8D8D8" fill-rule="evenodd" transform="matrix(1 0 0 1.00164 534.781 -450.052)"/><text fill="#595959" font-family="Times New Roman,Times New Roman_MSFontService,sans-serif" font-weight="400" font-size="8" transform="matrix(1.17648 0 0 1.17841 547.017 266)">DL signal in RH slot </text><text fill="#595959" font-family="Times New Roman,Times New Roman_MSFontService,sans-serif" font-style="italic" font-weight="400" font-size="8" transform="matrix(1.17648 0 0 1.17841 627.017 266)">s</text><text fill="#595959" font-family="Times New Roman,Times New Roman_MSFontService,sans-serif" font-weight="400" font-size="8" transform="matrix(1.17648 0 0 1.17841 630.547 266)"> </text><text fill="#595959" font-family="Times New Roman,Times New Roman_MSFontService,sans-serif" font-weight="400" font-size="8" transform="matrix(1.17648 0 0 1.17841 632.9 266)">+ </text><text fill="#595959" font-family="Times New Roman,Times New Roman_MSFontService,sans-serif" font-style="italic" font-weight="400" font-size="8" transform="matrix(1.17648 0 0 1.17841 641.135 266)">H</text><path d="M0 698.828 101.648 698.828 101.648 720.004 1.79516e-06 720.004Z" fill="#FFFFFF" fill-rule="evenodd" transform="matrix(1 0 0 1.00164 229.177 -483.989)"/><text fill="#595959" font-family="Times New Roman,Times New Roman_MSFontService,sans-serif" font-weight="400" font-size="10" transform="matrix(1.17648 0 0 1.17841 258.095 230)">RH slot </text><text fill="#595959" font-family="Times New Roman,Times New Roman_MSFontService,sans-serif" font-style="italic" font-weight="400" font-size="10" transform="matrix(1.17648 0 0 1.17841 299.272 230)">s</text><path d="M0 698.828 101.648 698.828 101.648 720.004 1.79516e-06 720.004Z" fill="#FFFFFF" fill-rule="evenodd" transform="matrix(1 0 0 1.00164 356.237 -483.989)"/><text fill="#595959" font-family="Times New Roman,Times New Roman_MSFontService,sans-serif" font-weight="400" font-size="10" transform="matrix(1.17648 0 0 1.17841 375.955 230)">RH slot </text><text fill="#595959" font-family="Times New Roman,Times New Roman_MSFontService,sans-serif" font-style="italic" font-weight="400" font-size="10" transform="matrix(1.17648 0 0 1.17841 417.131 230)">s</text><text fill="#595959" font-family="Times New Roman,Times New Roman_MSFontService,sans-serif" font-weight="400" font-size="10" transform="matrix(1.17648 0 0 1.17841 421.837 230)"> </text><text fill="#595959" font-family="Times New Roman,Times New Roman_MSFontService,sans-serif" font-weight="400" font-size="10" transform="matrix(1.17648 0 0 1.17841 425.367 230)">+ </text><text fill="#595959" font-family="Times New Roman,Times New Roman_MSFontService,sans-serif" font-weight="400" font-size="10" transform="matrix(1.17648 0 0 1.17841 435.955 230)">1</text><path d="M0 698.828 101.648 698.828 101.648 720.004 1.79516e-06 720.004Z" fill="#FFFFFF" fill-rule="evenodd" transform="matrix(1 0 0 1.00164 483.296 -483.989)"/><text fill="#595959" font-family="Times New Roman,Times New Roman_MSFontService,sans-serif" font-weight="400" font-size="10" transform="matrix(1.17648 0 0 1.17841 501.708 230)">RH slot </text><text fill="#595959" font-family="Times New Roman,Times New Roman_MSFontService,sans-serif" font-style="italic" font-weight="400" font-size="10" transform="matrix(1.17648 0 0 1.17841 542.885 230)">s</text><text fill="#595959" font-family="Times New Roman,Times New Roman_MSFontService,sans-serif" font-weight="400" font-size="10" transform="matrix(1.17648 0 0 1.17841 547.591 230)"> </text><text fill="#595959" font-family="Times New Roman,Times New Roman_MSFontService,sans-serif" font-weight="400" font-size="10" transform="matrix(1.17648 0 0 1.17841 551.12 230)">+ </text><text fill="#595959" font-family="Times New Roman,Times New Roman_MSFontService,sans-serif" font-style="italic" font-weight="400" font-size="10" transform="matrix(1.17648 0 0 1.17841 561.709 230)">H</text><path d="M0 698.828 101.648 698.828 101.648 720.004 1.79516e-06 720.004Z" fill="#FFFFFF" fill-rule="evenodd" transform="matrix(1 0 0 1.00164 610.356 -483.989)"/><text fill="#595959" font-family="Times New Roman,Times New Roman_MSFontService,sans-serif" font-weight="400" font-size="10" transform="matrix(1.17648 0 0 1.17841 619.568 230)">RH slot </text><text fill="#595959" font-family="Times New Roman,Times New Roman_MSFontService,sans-serif" font-style="italic" font-weight="400" font-size="10" transform="matrix(1.17648 0 0 1.17841 660.745 230)">s</text><text fill="#595959" font-family="Times New Roman,Times New Roman_MSFontService,sans-serif" font-weight="400" font-size="10" transform="matrix(1.17648 0 0 1.17841 665.451 230)"> </text><text fill="#595959" font-family="Times New Roman,Times New Roman_MSFontService,sans-serif" font-weight="400" font-size="10" transform="matrix(1.17648 0 0 1.17841 668.98 230)">+ </text><text fill="#595959" font-family="Times New Roman,Times New Roman_MSFontService,sans-serif" font-style="italic" font-weight="400" font-size="10" transform="matrix(1.17648 0 0 1.17841 679.568 230)">H</text><text fill="#595959" font-family="Times New Roman,Times New Roman_MSFontService,sans-serif" font-weight="400" font-size="10" transform="matrix(1.17648 0 0 1.17841 687.804 230)"> </text><text fill="#595959" font-family="Times New Roman,Times New Roman_MSFontService,sans-serif" font-weight="400" font-size="10" transform="matrix(1.17648 0 0 1.17841 691.333 230)">+ </text><text fill="#595959" font-family="Times New Roman,Times New Roman_MSFontService,sans-serif" font-weight="400" font-size="10" transform="matrix(1.17648 0 0 1.17841 701.921 230)">1</text><path d="M0 698.828 101.648 698.828 101.648 720.004 1.79516e-06 720.004Z" fill="#FFFFFF" fill-rule="evenodd" transform="matrix(1 0 0 1.00164 377.413 -399.144)"/><text fill="#CC0000" font-family="Times New Roman,Times New Roman_MSFontService,sans-serif" font-weight="400" font-size="10" transform="matrix(1.17648 0 0 1.17841 397.79 315)">UP slot </text><text fill="#CC0000" font-family="Times New Roman,Times New Roman_MSFontService,sans-serif" font-style="italic" font-weight="400" font-size="10" transform="matrix(1.17648 0 0 1.17841 437.79 315)">s</text><text fill="#CC0000" font-family="Times New Roman,Times New Roman_MSFontService,sans-serif" font-weight="400" font-size="10" transform="matrix(1.17648 0 0 1.17841 442.496 315)"> </text><text fill="#CC0000" font-family="Times New Roman,Times New Roman_MSFontService,sans-serif" font-weight="400" font-size="10" transform="matrix(1.17648 0 0 1.17841 446.026 315)">+ </text><text fill="#CC0000" font-family="Times New Roman,Times New Roman_MSFontService,sans-serif" font-weight="400" font-size="10" transform="matrix(1.17648 0 0 1.17841 456.614 315)">1</text><path d="M0 698.828 101.648 698.828 101.648 720.004 1.79516e-06 720.004Z" fill="#FFFFFF" fill-rule="evenodd" transform="matrix(1 0 0 1.00164 504.473 -399.144)"/><text fill="#CC0000" font-family="Times New Roman,Times New Roman_MSFontService,sans-serif" font-weight="400" font-size="10" transform="matrix(1.17648 0 0 1.17841 523.544 315)">UP slot </text><text fill="#CC0000" font-family="Times New Roman,Times New Roman_MSFontService,sans-serif" font-style="italic" font-weight="400" font-size="10" transform="matrix(1.17648 0 0 1.17841 563.544 315)">s</text><text fill="#CC0000" font-family="Times New Roman,Times New Roman_MSFontService,sans-serif" font-weight="400" font-size="10" transform="matrix(1.17648 0 0 1.17841 568.25 315)"> </text><text fill="#CC0000" font-family="Times New Roman,Times New Roman_MSFontService,sans-serif" font-weight="400" font-size="10" transform="matrix(1.17648 0 0 1.17841 571.779 315)">+ </text><text fill="#CC0000" font-family="Times New Roman,Times New Roman_MSFontService,sans-serif" font-style="italic" font-weight="400" font-size="10" transform="matrix(1.17648 0 0 1.17841 582.368 315)">H</text><path d="M0 698.828 101.648 698.828 101.648 720.004 1.79516e-06 720.004Z" fill="#FFFFFF" fill-rule="evenodd" transform="matrix(1 0 0 1.00164 631.533 -399.144)"/><text fill="#CC0000" font-family="Times New Roman,Times New Roman_MSFontService,sans-serif" font-weight="400" font-size="10" transform="matrix(1.17648 0 0 1.17841 641.403 315)">UP slot </text><text fill="#CC0000" font-family="Times New Roman,Times New Roman_MSFontService,sans-serif" font-style="italic" font-weight="400" font-size="10" transform="matrix(1.17648 0 0 1.17841 681.404 315)">s</text><text fill="#CC0000" font-family="Times New Roman,Times New Roman_MSFontService,sans-serif" font-weight="400" font-size="10" transform="matrix(1.17648 0 0 1.17841 686.109 315)"> </text><text fill="#CC0000" font-family="Times New Roman,Times New Roman_MSFontService,sans-serif" font-weight="400" font-size="10" transform="matrix(1.17648 0 0 1.17841 689.639 315)">+ </text><text fill="#CC0000" font-family="Times New Roman,Times New Roman_MSFontService,sans-serif" font-style="italic" font-weight="400" font-size="10" transform="matrix(1.17648 0 0 1.17841 700.227 315)">H</text><text fill="#CC0000" font-family="Times New Roman,Times New Roman_MSFontService,sans-serif" font-weight="400" font-size="10" transform="matrix(1.17648 0 0 1.17841 708.463 315)"> </text><text fill="#CC0000" font-family="Times New Roman,Times New Roman_MSFontService,sans-serif" font-weight="400" font-size="10" transform="matrix(1.17648 0 0 1.17841 711.992 315)">+ </text><text fill="#CC0000" font-family="Times New Roman,Times New Roman_MSFontService,sans-serif" font-weight="400" font-size="10" transform="matrix(1.17648 0 0 1.17841 722.58 315)">1</text><path d="M0 698.828 101.648 698.828 101.648 720.004 1.79516e-06 720.004Z" fill="#FFFFFF" fill-rule="evenodd" transform="matrix(1 0 0 1.00164 250.354 -399.144)"/><text fill="#CC0000" font-family="Times New Roman,Times New Roman_MSFontService,sans-serif" font-weight="400" font-size="10" transform="matrix(1.17648 0 0 1.17841 279.931 315)">UP slot </text><text fill="#CC0000" font-family="Times New Roman,Times New Roman_MSFontService,sans-serif" font-style="italic" font-weight="400" font-size="10" transform="matrix(1.17648 0 0 1.17841 319.931 315)">s</text><path d="M0 720.004 16.9413 720.004" stroke="#000000" stroke-width="0.588239" stroke-linecap="round" stroke-linejoin="round" stroke-miterlimit="3" fill="none" fill-rule="evenodd" transform="matrix(6.12323e-17 1.00164 -1 6.1333e-17 1021.18 339.014)"/><path d="M0 720.004 16.9413 720.004" stroke="#000000" stroke-width="0.588239" stroke-linecap="round" stroke-linejoin="round" stroke-miterlimit="3" fill="none" fill-rule="evenodd" transform="matrix(6.12323e-17 1.00164 -1 6.1333e-17 1402.36 339.014)"/><path d="M0 720.004 16.9413 720.004" stroke="#000000" stroke-width="0.588239" stroke-linecap="round" stroke-linejoin="round" stroke-miterlimit="3" fill="none" fill-rule="evenodd" transform="matrix(6.12323e-17 1.00164 -1 6.1333e-17 1148.24 339.014)"/><path d="M0 720.004 16.9413 720.004" stroke="#000000" stroke-width="0.588239" stroke-linecap="round" stroke-linejoin="round" stroke-miterlimit="3" fill="none" fill-rule="evenodd" transform="matrix(6.12323e-17 1.00164 -1 6.1333e-17 1275.3 339.014)"/><path d="M0 703.844 125.736 703.844 125.736 720.005 0 720.005Z" fill="#D8D8D8" fill-rule="evenodd" transform="matrix(1 0 0 1.00164 280.663 -467.801)"/><text fill="#595959" font-family="Times New Roman,Times New Roman_MSFontService,sans-serif" font-weight="400" font-size="8" transform="matrix(1.17648 0 0 1.17841 301.31 248)">UL signal in RH slot </text><text fill="#595959" font-family="Times New Roman,Times New Roman_MSFontService,sans-serif" font-style="italic" font-weight="400" font-size="8" transform="matrix(1.17648 0 0 1.17841 381.311 248)">s</text><path d="M0 688.24 31.3333 688.24 31.3333 720.004 5.99584e-07 720.004Z" fill="#FFFFFF" fill-rule="evenodd" transform="matrix(1 0 0 1.00164 454.923 -450.263)"/><text font-family="Times New Roman,Times New Roman_MSFontService,sans-serif" font-weight="400" font-size="14" transform="matrix(1.17648 0 0 1.17841 462.359 260)">···</text><path d="M0 720.489 33.1048 720.489" stroke="#000000" stroke-width="0.588635" stroke-linecap="round" stroke-linejoin="round" stroke-miterlimit="3" stroke-dasharray="0.588635 1.17727" fill="none" fill-rule="evenodd" transform="matrix(0.639754 0.768967 -0.767704 0.640806 833.123 -186.314)"/><path d="M0 720.489 33.1048 720.489" stroke="#000000" stroke-width="0.588635" stroke-linecap="round" stroke-linejoin="round" stroke-miterlimit="3" stroke-dasharray="0.588635 1.17727" fill="none" fill-rule="evenodd" transform="matrix(0.639754 0.768967 -0.767704 0.640806 960.183 -186.314)"/><path d="M0 720.489 33.1048 720.489" stroke="#000000" stroke-width="0.588635" stroke-linecap="round" stroke-linejoin="round" stroke-miterlimit="3" stroke-dasharray="0.588635 1.17727" fill="none" fill-rule="evenodd" transform="matrix(0.639754 0.768967 -0.767704 0.640806 1087.24 -186.314)"/><path d="M0 720.489 33.1048 720.489" stroke="#000000" stroke-width="0.588635" stroke-linecap="round" stroke-linejoin="round" stroke-miterlimit="3" stroke-dasharray="0.588635 1.17727" fill="none" fill-rule="evenodd" transform="matrix(0.639754 0.768967 -0.767704 0.640806 1214.3 -186.314)"/><path d="M0 703.844 18.5295 703.844 18.5295 720.005 0 720.005Z" fill="#F4CCCC" fill-rule="evenodd" transform="matrix(1 0 0 1.00164 301.839 -382.956)"/><path d="M0 703.844 1.32354 703.844 1.32354 720.005 0 720.005Z" fill="#E06666" fill-rule="evenodd" transform="matrix(1 0 0 1.00164 320.772 -382.956)"/><path d="M0 703.844 18.5295 703.844 18.5295 720.005 0 720.005Z" fill="#F4CCCC" fill-rule="evenodd" transform="matrix(1 0 0 1.00164 322.498 -382.956)"/><path d="M0 703.844 1.32354 703.844 1.32354 720.005 0 720.005Z" fill="#E06666" fill-rule="evenodd" transform="matrix(1 0 0 1.00164 341.431 -382.956)"/><path d="M0 703.844 18.5295 703.844 18.5295 720.005 0 720.005Z" fill="#F4CCCC" fill-rule="evenodd" transform="matrix(1 0 0 1.00164 343.157 -382.956)"/><path d="M0 703.844 1.32354 703.844 1.32354 720.005 0 720.005Z" fill="#E06666" fill-rule="evenodd" transform="matrix(1 0 0 1.00164 362.089 -382.956)"/><path d="M0 703.844 1.32354 703.844 1.32354 720.005 0 720.005Z" fill="#E06666" fill-rule="evenodd" transform="matrix(1 0 0 1.00164 426.253 -382.956)"/><path d="M0 703.844 18.5295 703.844 18.5295 720.005 0 720.005Z" fill="#F4CCCC" fill-rule="evenodd" transform="matrix(1 0 0 1.00164 407.32 -382.956)"/><path d="M0 703.844 18.5295 703.844 18.5295 720.005 0 720.005Z" fill="#F4CCCC" fill-rule="evenodd" transform="matrix(1 0 0 1.00164 555.958 -382.956)"/><path d="M0 703.844 1.32354 703.844 1.32354 720.005 0 720.005Z" fill="#E06666" fill-rule="evenodd" transform="matrix(1 0 0 1.00164 574.891 -382.956)"/><path d="M0 703.844 18.5295 703.844 18.5295 720.005 0 720.005Z" fill="#F4CCCC" fill-rule="evenodd" transform="matrix(1 0 0 1.00164 576.617 -382.956)"/><path d="M0 703.844 1.32354 703.844 1.32354 720.005 0 720.005Z" fill="#E06666" fill-rule="evenodd" transform="matrix(1 0 0 1.00164 595.55 -382.956)"/><path d="M0 703.844 18.5295 703.844 18.5295 720.005 0 720.005Z" fill="#F4CCCC" fill-rule="evenodd" transform="matrix(1 0 0 1.00164 597.276 -382.956)"/><path d="M0 703.844 1.32354 703.844 1.32354 720.005 0 720.005Z" fill="#E06666" fill-rule="evenodd" transform="matrix(1 0 0 1.00164 616.208 -382.956)"/><path d="M0 703.844 1.32354 703.844 1.32354 720.005 0 720.005Z" fill="#E06666" fill-rule="evenodd" transform="matrix(1 0 0 1.00164 680.372 -382.956)"/><path d="M0 703.844 18.5295 703.844 18.5295 720.005 0 720.005Z" fill="#F4CCCC" fill-rule="evenodd" transform="matrix(1 0 0 1.00164 661.439 -382.956)"/><text fill="#CC0000" font-family="Times New Roman,Times New Roman_MSFontService,sans-serif" font-weight="400" font-size="14" transform="matrix(1.17648 0 0 1.17841 631.254 336)">···</text><path d="M0 698.828 101.648 698.828 101.648 720.004 1.79516e-06 720.004Z" fill="#FFFFFF" fill-rule="evenodd" transform="matrix(1 0 0 1.00164 631.533 -343.994)"/><text fill="#6AA84F" font-family="Times New Roman,Times New Roman_MSFontService,sans-serif" font-weight="400" font-size="10" transform="matrix(1.17648 0 0 1.17841 638.462 370)">DP slot </text><text fill="#6AA84F" font-family="Times New Roman,Times New Roman_MSFontService,sans-serif" font-style="italic" font-weight="400" font-size="10" transform="matrix(1.17648 0 0 1.17841 678.462 370)">s</text><text fill="#6AA84F" font-family="Times New Roman,Times New Roman_MSFontService,sans-serif" font-weight="400" font-size="10" transform="matrix(1.17648 0 0 1.17841 683.168 370)"> </text><text fill="#6AA84F" font-family="Times New Roman,Times New Roman_MSFontService,sans-serif" font-weight="400" font-size="10" transform="matrix(1.17648 0 0 1.17841 686.698 370)">+ </text><text fill="#6AA84F" font-family="Times New Roman,Times New Roman_MSFontService,sans-serif" font-weight="400" font-size="10" transform="matrix(1.17648 0 0 1.17841 697.286 370)">2</text><text fill="#6AA84F" font-family="Times New Roman,Times New Roman_MSFontService,sans-serif" font-style="italic" font-weight="400" font-size="10" transform="matrix(1.17648 0 0 1.17841 703.168 370)">H</text><text fill="#6AA84F" font-family="Times New Roman,Times New Roman_MSFontService,sans-serif" font-weight="400" font-size="10" transform="matrix(1.17648 0 0 1.17841 711.404 370)"> </text><text fill="#6AA84F" font-family="Times New Roman,Times New Roman_MSFontService,sans-serif" font-weight="400" font-size="10" transform="matrix(1.17648 0 0 1.17841 714.933 370)">+ </text><text fill="#6AA84F" font-family="Times New Roman,Times New Roman_MSFontService,sans-serif" font-weight="400" font-size="10" transform="matrix(1.17648 0 0 1.17841 725.521 370)">1</text><path d="M0 698.828 101.648 698.828 101.648 720.004 1.79516e-06 720.004Z" fill="#FFFFFF" fill-rule="evenodd" transform="matrix(1 0 0 1.00164 250.354 -343.994)"/><text fill="#6AA84F" font-family="Times New Roman,Times New Roman_MSFontService,sans-serif" font-weight="400" font-size="10" transform="matrix(1.17648 0 0 1.17841 269.425 370)">DP slot </text><text fill="#6AA84F" font-family="Times New Roman,Times New Roman_MSFontService,sans-serif" font-style="italic" font-weight="400" font-size="10" transform="matrix(1.17648 0 0 1.17841 309.425 370)">s</text><text fill="#6AA84F" font-family="Times New Roman,Times New Roman_MSFontService,sans-serif" font-weight="400" font-size="10" transform="matrix(1.17648 0 0 1.17841 314.131 370)"> </text><text fill="#6AA84F" font-family="Times New Roman,Times New Roman_MSFontService,sans-serif" font-weight="400" font-size="10" transform="matrix(1.17648 0 0 1.17841 317.66 370)">+ </text><text fill="#6AA84F" font-family="Times New Roman,Times New Roman_MSFontService,sans-serif" font-style="italic" font-weight="400" font-size="10" transform="matrix(1.17648 0 0 1.17841 328.248 370)">H</text><path d="M0 698.828 101.648 698.828 101.648 720.004 1.79516e-06 720.004Z" fill="#FFFFFF" fill-rule="evenodd" transform="matrix(1 0 0 1.00164 504.473 -343.994)"/><text fill="#6AA84F" font-family="Times New Roman,Times New Roman_MSFontService,sans-serif" font-weight="400" font-size="10" transform="matrix(1.17648 0 0 1.17841 520.603 370)">DP slot </text><text fill="#6AA84F" font-family="Times New Roman,Times New Roman_MSFontService,sans-serif" font-style="italic" font-weight="400" font-size="10" transform="matrix(1.17648 0 0 1.17841 560.603 370)">s</text><text fill="#6AA84F" font-family="Times New Roman,Times New Roman_MSFontService,sans-serif" font-weight="400" font-size="10" transform="matrix(1.17648 0 0 1.17841 565.309 370)"> </text><text fill="#6AA84F" font-family="Times New Roman,Times New Roman_MSFontService,sans-serif" font-weight="400" font-size="10" transform="matrix(1.17648 0 0 1.17841 568.838 370)">+ </text><text fill="#6AA84F" font-family="Times New Roman,Times New Roman_MSFontService,sans-serif" font-weight="400" font-size="10" transform="matrix(1.17648 0 0 1.17841 579.426 370)">2</text><text fill="#6AA84F" font-family="Times New Roman,Times New Roman_MSFontService,sans-serif" font-style="italic" font-weight="400" font-size="10" transform="matrix(1.17648 0 0 1.17841 585.309 370)">H</text><path d="M0 703.844 2.91284 703.844 2.91284 720.005-7.67432e-08 720.005Z" fill="#93C47D" fill-rule="evenodd" transform="matrix(1 0 0 1.00164 301.839 -365.207)"/><path d="M0 703.844 1.32354 703.844 1.32354 720.005 0 720.005Z" fill="#D9EAD3" fill-rule="evenodd" transform="matrix(1 0 0 1.00164 305.089 -365.207)"/><path d="M0 710.607 31.3333 710.607 31.3333 720.004 5.99584e-07 720.004Z" fill="#FFFFFF" fill-rule="evenodd" transform="matrix(1 0 0 1.00164 369.699 -377.534)"/><path d="M0 707.298 31.3333 707.298 31.3333 720.004 5.99584e-07 720.004Z" fill="#FFFFFF" fill-rule="evenodd" transform="matrix(1 0 0 1.00164 369.699 -383.837)"/><text fill="#CC0000" font-family="Times New Roman,Times New Roman_MSFontService,sans-serif" font-weight="400" font-size="14" transform="matrix(1.17648 0 0 1.17841 377.135 336)">···</text><path d="M0 720.004 458.156 720.004" stroke="#000000" stroke-width="0.882358" stroke-linecap="round" stroke-linejoin="round" stroke-miterlimit="3" fill="none" fill-rule="evenodd" transform="matrix(1 0 0 1.00164 258.825 -382.174)"/><path d="M7.72946 2.57649 0 0 7.72946-2.57649 7.72946 2.57649" fill-rule="evenodd" transform="matrix(-1 0 0 -1.00164 724.71 339.014)"/><path d="M0 688.24 31.3333 688.24 31.3333 720.004 5.99584e-07 720.004Z" fill="#FFFFFF" fill-rule="evenodd" transform="matrix(1 0 0 1.00164 478.218 -365.417)"/><text font-family="Times New Roman,Times New Roman_MSFontService,sans-serif" font-weight="400" font-size="14" transform="matrix(1.17648 0 0 1.17841 485.653 345)">···</text><path d="M0 703.844 2.91284 703.844 2.91284 720.005-7.67432e-08 720.005Z" fill="#93C47D" fill-rule="evenodd" transform="matrix(1 0 0 1.00164 555.958 -365.207)"/><path d="M0 703.844 1.32354 703.844 1.32354 720.005 0 720.005Z" fill="#D9EAD3" fill-rule="evenodd" transform="matrix(1 0 0 1.00164 559.208 -365.207)"/><text fill="#595959" font-family="Times New Roman,Times New Roman_MSFontService,sans-serif" font-weight="700" font-size="10" transform="matrix(1.17648 0 0 1.17841 214.142 251)">Radio </text><text fill="#595959" font-family="Times New Roman,Times New Roman_MSFontService,sans-serif" font-weight="700" font-size="10" transform="matrix(1.17648 0 0 1.17841 215.777 265)">Head</text><text fill="#CC0000" font-family="Times New Roman,Times New Roman_MSFontService,sans-serif" font-weight="700" font-size="10" transform="matrix(1.17648 0 0 1.17841 210.554 317)">RU</text><text fill="#CC0000" font-family="Times New Roman,Times New Roman_MSFontService,sans-serif" font-weight="700" font-size="10" transform="matrix(1.17648 0 0 1.17841 227.024 317)">-</text><text fill="#CC0000" font-family="Times New Roman,Times New Roman_MSFontService,sans-serif" font-weight="700" font-size="10" transform="matrix(1.17648 0 0 1.17841 230.554 317)">UL </text><text fill="#CC0000" font-family="Times New Roman,Times New Roman_MSFontService,sans-serif" font-weight="700" font-size="10" transform="matrix(1.17648 0 0 1.17841 204.683 331)">Processor</text><text fill="#6AA84F" font-family="Times New Roman,Times New Roman_MSFontService,sans-serif" font-weight="700" font-size="10" transform="matrix(1.17648 0 0 1.17841 210.554 354)">RU</text><text fill="#6AA84F" font-family="Times New Roman,Times New Roman_MSFontService,sans-serif" font-weight="700" font-size="10" transform="matrix(1.17648 0 0 1.17841 227.024 354)">-</text><text fill="#6AA84F" font-family="Times New Roman,Times New Roman_MSFontService,sans-serif" font-weight="700" font-size="10" transform="matrix(1.17648 0 0 1.17841 230.554 354)">DL </text><text fill="#6AA84F" font-family="Times New Roman,Times New Roman_MSFontService,sans-serif" font-weight="700" font-size="10" transform="matrix(1.17648 0 0 1.17841 204.683 368)">Processor</text></g></svg>