<svg width="511" height="215" xmlns="http://www.w3.org/2000/svg" xmlns:xlink="http://www.w3.org/1999/xlink" xml:space="preserve" overflow="hidden"><defs><clipPath id="clip0"><rect x="215" y="155" width="511" height="215"/></clipPath><linearGradient x1="-9.20318e-08" y1="677.205" x2="118.511" y2="677.205" gradientUnits="userSpaceOnUse" spreadMethod="pad" id="fill1"><stop offset="0" stop-color="#F5F7FC"/><stop offset="1" stop-color="#F0B9B9"/></linearGradient><linearGradient x1="-9.20318e-08" y1="677.205" x2="118.511" y2="677.205" gradientUnits="userSpaceOnUse" spreadMethod="pad" id="fill2"><stop offset="0" stop-color="#F5F7FC"/><stop offset="1" stop-color="#D8D8D8"/></linearGradient><linearGradient x1="-9.20318e-08" y1="677.205" x2="118.511" y2="677.205" gradientUnits="userSpaceOnUse" spreadMethod="pad" id="fill3"><stop offset="0" stop-color="#F5F7FC"/><stop offset="1" stop-color="#C5E0B3"/></linearGradient><linearGradient x1="-9.20318e-08" y1="677.205" x2="118.511" y2="677.205" gradientUnits="userSpaceOnUse" spreadMethod="pad" id="fill4"><stop offset="0" stop-color="#FFFFFF"/><stop offset="1" stop-color="#90AADB"/></linearGradient></defs><g clip-path="url(#clip0)" transform="translate(-215 -155)"><path d="M10.934 719.53 11.3573 719.53 51.7192 719.53" stroke="#6AA84F" stroke-width="3.52711" stroke-linecap="round" stroke-linejoin="round" stroke-miterlimit="3" fill="none" fill-rule="evenodd" transform="matrix(-6.12323e-17 1.00183 1 6.13445e-17 -249.112 260.468)"/><path d="M12.9798 6.48988 0 0 12.8576-6.44696C10.8493-2.36566 10.8576 2.41839 12.8801 6.49267" fill="#6AA84F" fill-rule="evenodd" transform="matrix(-6.12323e-17 1.00183 1 6.13445e-17 470.418 260.468)"/><path d="M0 719.53 507.903 719.53" stroke="#000000" stroke-width="1.1757" stroke-linecap="round" stroke-linejoin="round" stroke-miterlimit="3" fill="none" fill-rule="evenodd" transform="matrix(1 0 0 1.00183 216.466 -464.616)"/><path d="M0 719.53 33.8602 719.53" stroke="#000000" stroke-width="0.587851" stroke-linecap="round" stroke-linejoin="round" stroke-miterlimit="3" fill="none" fill-rule="evenodd" transform="matrix(6.12323e-17 1.00183 -1 6.13445e-17 978.321 239.27)"/><path d="M0 719.53 33.8602 719.53" stroke="#000000" stroke-width="0.587851" stroke-linecap="round" stroke-linejoin="round" stroke-miterlimit="3" fill="none" fill-rule="evenodd" transform="matrix(6.12323e-17 1.00183 -1 6.13445e-17 1401.57 239.27)"/><path d="M0 719.53 33.8602 719.53" stroke="#000000" stroke-width="0.587851" stroke-linecap="round" stroke-linejoin="round" stroke-miterlimit="3" fill="none" fill-rule="evenodd" transform="matrix(6.12323e-17 1.00183 -1 6.13445e-17 1062.97 239.27)"/><path d="M0 719.53 33.8602 719.53" stroke="#000000" stroke-width="0.587851" stroke-linecap="round" stroke-linejoin="round" stroke-miterlimit="3" fill="none" fill-rule="evenodd" transform="matrix(6.12323e-17 1.00183 -1 6.13445e-17 1147.62 239.27)"/><path d="M0 719.53 33.8602 719.53" stroke="#000000" stroke-width="0.587851" stroke-linecap="round" stroke-linejoin="round" stroke-miterlimit="3" fill="none" fill-rule="evenodd" transform="matrix(6.12323e-17 1.00183 -1 6.13445e-17 1232.27 239.267)"/><path d="M0 719.53 33.8602 719.53" stroke="#000000" stroke-width="0.587851" stroke-linecap="round" stroke-linejoin="round" stroke-miterlimit="3" fill="none" fill-rule="evenodd" transform="matrix(6.12323e-17 1.00183 -1 6.13445e-17 1316.92 239.27)"/><path d="M0 687.786 31.3126 687.786 31.3126 719.53 5.99189e-07 719.53Z" fill="#FFFFFF" fill-rule="evenodd" transform="matrix(1 0 0 1.00183 370.11 -448.04)"/><text font-family="Times New Roman,Times New Roman_MSFontService,sans-serif" font-weight="400" font-size="14" transform="matrix(1.1757 0 0 1.17786 377.541 262)">···</text><path d="M0 687.786 31.3126 687.786 31.3126 719.53 5.99189e-07 719.53Z" fill="#FFFFFF" fill-rule="evenodd" transform="matrix(1 0 0 1.00183 539.412 -448.04)"/><text font-family="Times New Roman,Times New Roman_MSFontService,sans-serif" font-weight="400" font-size="14" transform="matrix(1.1757 0 0 1.17786 546.842 262)">···</text><path d="M10.934 719.53 11.3573 719.53 46.8517 719.53" stroke="#CC0000" stroke-width="3.52711" stroke-linecap="round" stroke-linejoin="round" stroke-miterlimit="3" fill="none" fill-rule="evenodd" transform="matrix(6.12323e-17 -1.00183 1 6.13445e-17 -418.413 251.988)"/><path d="M12.9798 6.48988 0 0 12.8576-6.44696C10.8493-2.36566 10.8576 2.41839 12.8801 6.49267" fill="#CC0000" fill-rule="evenodd" transform="matrix(6.12323e-17 -1.00183 1 6.13445e-17 301.117 251.988)"/><text font-family="Times New Roman,Times New Roman_MSFontService,sans-serif" font-style="italic" font-weight="400" font-size="10" transform="matrix(1.1757 0 0 1.17786 490.758 232)">s</text><text font-family="Times New Roman,Times New Roman_MSFontService,sans-serif" font-weight="400" font-size="10" transform="matrix(1.1757 0 0 1.17786 495.46 232)"> </text><text font-family="Times New Roman,Times New Roman_MSFontService,sans-serif" font-weight="400" font-size="10" transform="matrix(1.1757 0 0 1.17786 498.987 232)">+ </text><text font-family="Times New Roman,Times New Roman_MSFontService,sans-serif" font-style="italic" font-weight="400" font-size="10" transform="matrix(1.1757 0 0 1.17786 509.569 232)">H</text><text font-family="Times New Roman,Times New Roman_MSFontService,sans-serif" font-weight="400" font-size="10" transform="matrix(1.1757 0 0 1.17786 517.799 232)"> </text><text font-family="Times New Roman,Times New Roman_MSFontService,sans-serif" font-weight="400" font-size="10" transform="matrix(1.1757 0 0 1.17786 521.326 232)">+ </text><text font-family="Times New Roman,Times New Roman_MSFontService,sans-serif" font-weight="400" font-size="10" transform="matrix(1.1757 0 0 1.17786 531.907 232)">1</text><text font-family="Times New Roman,Times New Roman_MSFontService,sans-serif" font-style="italic" font-weight="400" font-size="10" transform="matrix(1.1757 0 0 1.17786 573.456 232)">s</text><text font-family="Times New Roman,Times New Roman_MSFontService,sans-serif" font-weight="400" font-size="10" transform="matrix(1.1757 0 0 1.17786 578.159 232)"> </text><text font-family="Times New Roman,Times New Roman_MSFontService,sans-serif" font-weight="400" font-size="10" transform="matrix(1.1757 0 0 1.17786 581.686 232)">+ </text><text font-family="Times New Roman,Times New Roman_MSFontService,sans-serif" font-style="italic" font-weight="400" font-size="10" transform="matrix(1.1757 0 0 1.17786 592.268 232)">H</text><text font-family="Times New Roman,Times New Roman_MSFontService,sans-serif" font-weight="400" font-size="10" transform="matrix(1.1757 0 0 1.17786 600.498 232)"> </text><text font-family="Times New Roman,Times New Roman_MSFontService,sans-serif" font-weight="400" font-size="10" transform="matrix(1.1757 0 0 1.17786 604.025 232)">+ </text><text font-family="Times New Roman,Times New Roman_MSFontService,sans-serif" font-style="italic" font-weight="400" font-size="10" transform="matrix(1.1757 0 0 1.17786 614.606 232)">M</text><text font-family="Times New Roman,Times New Roman_MSFontService,sans-serif" font-style="italic" font-weight="400" font-size="10" transform="matrix(1.1757 0 0 1.17786 648.913 232)">s</text><text font-family="Times New Roman,Times New Roman_MSFontService,sans-serif" font-weight="400" font-size="10" transform="matrix(1.1757 0 0 1.17786 653.616 232)"> </text><text font-family="Times New Roman,Times New Roman_MSFontService,sans-serif" font-weight="400" font-size="10" transform="matrix(1.1757 0 0 1.17786 657.143 232)">+ </text><text font-family="Times New Roman,Times New Roman_MSFontService,sans-serif" font-style="italic" font-weight="400" font-size="10" transform="matrix(1.1757 0 0 1.17786 667.724 232)">H</text><text font-family="Times New Roman,Times New Roman_MSFontService,sans-serif" font-weight="400" font-size="10" transform="matrix(1.1757 0 0 1.17786 675.954 232)"> </text><text font-family="Times New Roman,Times New Roman_MSFontService,sans-serif" font-weight="400" font-size="10" transform="matrix(1.1757 0 0 1.17786 679.481 232)">+ </text><text font-family="Times New Roman,Times New Roman_MSFontService,sans-serif" font-style="italic" font-weight="400" font-size="10" transform="matrix(1.1757 0 0 1.17786 690.063 232)">M</text><text font-family="Times New Roman,Times New Roman_MSFontService,sans-serif" font-weight="400" font-size="10" transform="matrix(1.1757 0 0 1.17786 699.468 232)"> </text><text font-family="Times New Roman,Times New Roman_MSFontService,sans-serif" font-weight="400" font-size="10" transform="matrix(1.1757 0 0 1.17786 702.995 232)">+ </text><text font-family="Times New Roman,Times New Roman_MSFontService,sans-serif" font-weight="400" font-size="10" transform="matrix(1.1757 0 0 1.17786 713.577 232)">1</text><text font-family="Times New Roman,Times New Roman_MSFontService,sans-serif" font-style="italic" font-weight="400" font-size="10" transform="matrix(1.1757 0 0 1.17786 256.499 232)">s</text><text font-family="Times New Roman,Times New Roman_MSFontService,sans-serif" font-style="italic" font-weight="400" font-size="10" transform="matrix(1.1757 0 0 1.17786 331.955 232)">s</text><text font-family="Times New Roman,Times New Roman_MSFontService,sans-serif" font-weight="400" font-size="10" transform="matrix(1.1757 0 0 1.17786 336.658 232)"> </text><text font-family="Times New Roman,Times New Roman_MSFontService,sans-serif" font-weight="400" font-size="10" transform="matrix(1.1757 0 0 1.17786 340.185 232)">+ </text><text font-family="Times New Roman,Times New Roman_MSFontService,sans-serif" font-weight="400" font-size="10" transform="matrix(1.1757 0 0 1.17786 350.767 232)">1</text><text font-family="Times New Roman,Times New Roman_MSFontService,sans-serif" font-style="italic" font-weight="400" font-size="10" transform="matrix(1.1757 0 0 1.17786 415.301 232)">s</text><text font-family="Times New Roman,Times New Roman_MSFontService,sans-serif" font-weight="400" font-size="10" transform="matrix(1.1757 0 0 1.17786 420.004 232)"> </text><text font-family="Times New Roman,Times New Roman_MSFontService,sans-serif" font-weight="400" font-size="10" transform="matrix(1.1757 0 0 1.17786 423.531 232)">+ </text><text font-family="Times New Roman,Times New Roman_MSFontService,sans-serif" font-style="italic" font-weight="400" font-size="10" transform="matrix(1.1757 0 0 1.17786 434.112 232)">H</text><path d="M10.934 719.53 11.3573 719.53 51.7192 719.53" stroke="#3333B3" stroke-width="3.52711" stroke-linecap="round" stroke-linejoin="round" stroke-miterlimit="3" fill="none" fill-rule="evenodd" transform="matrix(-6.12323e-17 1.00183 1 6.13445e-17 -79.8109 260.468)"/><path d="M12.9798 6.48988 0 0 12.8576-6.44696C10.8493-2.36566 10.8576 2.41839 12.8801 6.49267" fill="#3333B3" fill-rule="evenodd" transform="matrix(-6.12323e-17 1.00183 1 6.13445e-17 639.719 260.468)"/><path d="M10.934 719.53 11.3573 719.53 51.7192 719.53" stroke="#7F7F7F" stroke-width="3.52711" stroke-linecap="round" stroke-linejoin="round" stroke-miterlimit="3" fill="none" fill-rule="evenodd" transform="matrix(-6.12323e-17 1.00183 1 6.13445e-17 -418.413 260.468)"/><path d="M12.9798 6.48988 0 0 12.8576-6.44696C10.8493-2.36566 10.8576 2.41839 12.8801 6.49267" fill="#7F7F7F" fill-rule="evenodd" transform="matrix(-6.12323e-17 1.00183 1 6.13445e-17 301.117 260.468)"/><path d="M0 719.53 160.836 719.53" stroke="#000000" stroke-width="2.64533" stroke-linecap="round" stroke-linejoin="round" stroke-miterlimit="3" fill="none" fill-rule="evenodd" transform="matrix(1 0 0 1.00183 305.349 -429.765)"/><path d="M10.3362-5.38073C8.064-2.13557 4.39957-0.145954 0.440387-0.0076882L0.440364 0.00768551C4.39955 0.14594 8.06394 2.13555 10.3362 5.3807" stroke="#000000" stroke-width="2.64533" stroke-linecap="round" stroke-linejoin="round" stroke-miterlimit="3" fill="none" fill-rule="evenodd" transform="matrix(1 0 0 1.00183 305.349 291.083)"/><path d="M0 719.53 160.836 719.53" stroke="#000000" stroke-width="2.64533" stroke-linecap="round" stroke-linejoin="round" stroke-miterlimit="3" fill="none" fill-rule="evenodd" transform="matrix(1 0 0 1.00183 474.65 -429.765)"/><path d="M10.3362-5.38073C8.064-2.13557 4.39957-0.145954 0.440387-0.0076882L0.440364 0.00768551C4.39955 0.14594 8.06394 2.13555 10.3362 5.3807" stroke="#000000" stroke-width="2.64533" stroke-linecap="round" stroke-linejoin="round" stroke-miterlimit="3" fill="none" fill-rule="evenodd" transform="matrix(1 0 0 1.00183 474.65 291.083)"/><path d="M0 698.367 76.1855 698.367 76.1855 719.53 3.58796e-06 719.53Z" fill="#FFFFFF" fill-rule="evenodd" transform="matrix(1 0 0 1.00183 347.675 -419.164)"/><text font-family="Times New Roman,Times New Roman_MSFontService,sans-serif" font-style="italic" font-weight="700" font-size="10" transform="matrix(1.1757 0 0 1.17786 353.612 288)">H</text><text font-family="Times New Roman,Times New Roman_MSFontService,sans-serif" font-style="italic" font-weight="700" font-size="10" transform="matrix(1.1757 0 0 1.17786 363.017 288)">-</text><text font-family="Times New Roman,Times New Roman_MSFontService,sans-serif" font-weight="700" font-size="10" transform="matrix(1.1757 0 0 1.17786 366.545 288)">slot Offset </text><text font-family="Times New Roman,Times New Roman_MSFontService,sans-serif" font-weight="700" font-size="10" transform="matrix(1.1757 0 0 1.17786 367.003 302)">(</text><text font-family="Times New Roman,Times New Roman_MSFontService,sans-serif" font-weight="700" font-size="10" transform="matrix(1.1757 0 0 1.17786 370.53 302)">Part I</text><text font-family="Times New Roman,Times New Roman_MSFontService,sans-serif" font-weight="700" font-size="10" transform="matrix(1.1757 0 0 1.17786 399.923 302)">)</text><path d="M0 698.367 76.1855 698.367 76.1855 719.53 3.58796e-06 719.53Z" fill="#FFFFFF" fill-rule="evenodd" transform="matrix(1 0 0 1.00183 516.976 -419.164)"/><text font-family="Times New Roman,Times New Roman_MSFontService,sans-serif" font-style="italic" font-weight="700" font-size="10" transform="matrix(1.1757 0 0 1.17786 522.255 288)">M</text><text font-family="Times New Roman,Times New Roman_MSFontService,sans-serif" font-style="italic" font-weight="700" font-size="10" transform="matrix(1.1757 0 0 1.17786 532.836 288)">-</text><text font-family="Times New Roman,Times New Roman_MSFontService,sans-serif" font-weight="700" font-size="10" transform="matrix(1.1757 0 0 1.17786 536.363 288)">slot Offset </text><text font-family="Times New Roman,Times New Roman_MSFontService,sans-serif" font-weight="700" font-size="10" transform="matrix(1.1757 0 0 1.17786 534.012 302)">(</text><text font-family="Times New Roman,Times New Roman_MSFontService,sans-serif" font-weight="700" font-size="10" transform="matrix(1.1757 0 0 1.17786 537.539 302)">Part II</text><text font-family="Times New Roman,Times New Roman_MSFontService,sans-serif" font-weight="700" font-size="10" transform="matrix(1.1757 0 0 1.17786 571.634 302)">)</text><path d="M11.8511 719.53 106.66 719.53C113.205 719.53 118.511 714.224 118.511 707.679 118.511 707.679 118.511 707.679 118.511 707.679L118.511 689.056C118.511 682.511 113.205 677.205 106.66 677.205 106.66 677.205 106.66 677.205 106.66 677.205L11.8511 677.205C5.30604 677.204 0.000129776 682.51-8.9699e-08 689.055-9.28094e-08 689.055-9.28094e-08 689.055-8.9699e-08 689.056L0 707.679C-0.000129866 714.224 5.30557 719.53 11.8506 719.53 11.8508 719.53 11.8509 719.53 11.8511 719.53Z" stroke="#CC0000" stroke-width="1.1757" stroke-linecap="square" stroke-miterlimit="3" fill="url(#fill1)" fill-rule="evenodd" transform="matrix(1 0 0 1.00183 241.861 -506.62)"/><text fill="#CC0000" font-family="Times New Roman,Times New Roman_MSFontService,sans-serif" font-weight="400" font-size="10" transform="matrix(1.1757 0 0 1.17786 258.827 189)">RU</text><text fill="#CC0000" font-family="Times New Roman,Times New Roman_MSFontService,sans-serif" font-weight="400" font-size="10" transform="matrix(1.1757 0 0 1.17786 275.287 189)">-</text><text fill="#CC0000" font-family="Times New Roman,Times New Roman_MSFontService,sans-serif" font-weight="400" font-size="10" transform="matrix(1.1757 0 0 1.17786 278.814 189)">UL Processor </text><text fill="#CC0000" font-family="Times New Roman,Times New Roman_MSFontService,sans-serif" font-weight="400" font-size="10" transform="matrix(1.1757 0 0 1.17786 253.454 204)">(</text><text fill="#CC0000" font-family="Times New Roman,Times New Roman_MSFontService,sans-serif" font-weight="400" font-size="10" transform="matrix(1.1757 0 0 1.17786 256.981 204)">Lower PHY Layer</text><text fill="#CC0000" font-family="Times New Roman,Times New Roman_MSFontService,sans-serif" font-weight="400" font-size="10" transform="matrix(1.1757 0 0 1.17786 342.807 204)">)</text><path d="M11.8511 719.53 106.66 719.53C113.205 719.53 118.511 714.224 118.511 707.679 118.511 707.679 118.511 707.679 118.511 707.679L118.511 689.056C118.511 682.511 113.205 677.205 106.66 677.205 106.66 677.205 106.66 677.205 106.66 677.205L11.8511 677.205C5.30604 677.204 0.000129776 682.51-8.9699e-08 689.055-9.28094e-08 689.055-9.28094e-08 689.055-8.9699e-08 689.056L0 707.679C-0.000129866 714.224 5.30557 719.53 11.8506 719.53 11.8508 719.53 11.8509 719.53 11.8511 719.53Z" stroke="#7F7F7F" stroke-width="1.1757" stroke-linecap="square" stroke-miterlimit="3" fill="url(#fill2)" fill-rule="evenodd" transform="matrix(1 0 0 1.00183 241.861 -366.16)"/><text fill="#7F7F7F" font-family="Times New Roman,Times New Roman_MSFontService,sans-serif" font-weight="400" font-size="10" transform="matrix(1.1757 0 0 1.17786 273.206 337)">Radio Head</text><path d="M11.8511 719.53 106.66 719.53C113.205 719.53 118.511 714.224 118.511 707.679 118.511 707.679 118.511 707.679 118.511 707.679L118.511 689.056C118.511 682.511 113.205 677.205 106.66 677.205 106.66 677.205 106.66 677.205 106.66 677.205L11.8511 677.205C5.30604 677.204 0.000129776 682.51-8.9699e-08 689.055-9.28094e-08 689.055-9.28094e-08 689.055-8.9699e-08 689.056L0 707.679C-0.000129866 714.224 5.30557 719.53 11.8506 719.53 11.8508 719.53 11.8509 719.53 11.8511 719.53Z" stroke="#6AA84F" stroke-width="1.1757" stroke-linecap="square" stroke-miterlimit="3" fill="url(#fill3)" fill-rule="evenodd" transform="matrix(1 0 0 1.00183 411.162 -366.16)"/><text fill="#6AA84F" font-family="Times New Roman,Times New Roman_MSFontService,sans-serif" font-weight="400" font-size="10" transform="matrix(1.1757 0 0 1.17786 428.128 330)">RU</text><text fill="#6AA84F" font-family="Times New Roman,Times New Roman_MSFontService,sans-serif" font-weight="400" font-size="10" transform="matrix(1.1757 0 0 1.17786 444.588 330)">-</text><text fill="#6AA84F" font-family="Times New Roman,Times New Roman_MSFontService,sans-serif" font-weight="400" font-size="10" transform="matrix(1.1757 0 0 1.17786 448.115 330)">DL Processor </text><text fill="#6AA84F" font-family="Times New Roman,Times New Roman_MSFontService,sans-serif" font-weight="400" font-size="10" transform="matrix(1.1757 0 0 1.17786 422.755 344)">(</text><text fill="#6AA84F" font-family="Times New Roman,Times New Roman_MSFontService,sans-serif" font-weight="400" font-size="10" transform="matrix(1.1757 0 0 1.17786 426.282 344)">Lower PHY Layer</text><text fill="#6AA84F" font-family="Times New Roman,Times New Roman_MSFontService,sans-serif" font-weight="400" font-size="10" transform="matrix(1.1757 0 0 1.17786 512.108 344)">)</text><path d="M11.8511 719.53 106.66 719.53C113.205 719.53 118.511 714.224 118.511 707.679 118.511 707.679 118.511 707.679 118.511 707.679L118.511 689.056C118.511 682.511 113.205 677.205 106.66 677.205 106.66 677.205 106.66 677.205 106.66 677.205L11.8511 677.205C5.30604 677.204 0.000129776 682.51-8.9699e-08 689.055-9.28094e-08 689.055-9.28094e-08 689.055-8.9699e-08 689.056L0 707.679C-0.000129866 714.224 5.30557 719.53 11.8506 719.53 11.8508 719.53 11.8509 719.53 11.8511 719.53Z" stroke="#3333B3" stroke-width="1.1757" stroke-linecap="square" stroke-miterlimit="3" fill="url(#fill4)" fill-rule="evenodd" transform="matrix(1 0 0 1.00183 580.464 -366.16)"/><text fill="#3333B3" font-family="Times New Roman,Times New Roman_MSFontService,sans-serif" font-weight="400" font-size="10" transform="matrix(1.1757 0 0 1.17786 606.905 330)">DU Processor </text><text fill="#3333B3" font-family="Times New Roman,Times New Roman_MSFontService,sans-serif" font-weight="400" font-size="10" transform="matrix(1.1757 0 0 1.17786 597.429 344)">(</text><text fill="#3333B3" font-family="Times New Roman,Times New Roman_MSFontService,sans-serif" font-weight="400" font-size="10" transform="matrix(1.1757 0 0 1.17786 600.956 344)">Distributed Unit</text><text fill="#3333B3" font-family="Times New Roman,Times New Roman_MSFontService,sans-serif" font-weight="400" font-size="10" transform="matrix(1.1757 0 0 1.17786 678.552 344)">)</text><text fill="#CC0000" font-family="Times New Roman,Times New Roman_MSFontService,sans-serif" font-weight="400" font-size="10" transform="matrix(1.1757 0 0 1.17786 279.884 164)">UP slot </text><text fill="#CC0000" font-family="Times New Roman,Times New Roman_MSFontService,sans-serif" font-style="italic" font-weight="400" font-size="10" transform="matrix(1.1757 0 0 1.17786 319.857 164)">s</text><text fill="#7F7F7F" font-family="Times New Roman,Times New Roman_MSFontService,sans-serif" font-weight="400" font-size="10" transform="matrix(1.1757 0 0 1.17786 279.225 369)">RH slot </text><text fill="#7F7F7F" font-family="Times New Roman,Times New Roman_MSFontService,sans-serif" font-style="italic" font-weight="400" font-size="10" transform="matrix(1.1757 0 0 1.17786 320.375 369)">s</text><text fill="#6AA84F" font-family="Times New Roman,Times New Roman_MSFontService,sans-serif" font-weight="400" font-size="10" transform="matrix(1.1757 0 0 1.17786 438.686 369)">DP slot </text><text fill="#6AA84F" font-family="Times New Roman,Times New Roman_MSFontService,sans-serif" font-style="italic" font-weight="400" font-size="10" transform="matrix(1.1757 0 0 1.17786 478.66 369)">s</text><text fill="#6AA84F" font-family="Times New Roman,Times New Roman_MSFontService,sans-serif" font-weight="400" font-size="10" transform="matrix(1.1757 0 0 1.17786 483.362 369)"> </text><text fill="#6AA84F" font-family="Times New Roman,Times New Roman_MSFontService,sans-serif" font-weight="400" font-size="10" transform="matrix(1.1757 0 0 1.17786 486.889 369)">+ </text><text fill="#6AA84F" font-family="Times New Roman,Times New Roman_MSFontService,sans-serif" font-style="italic" font-weight="400" font-size="10" transform="matrix(1.1757 0 0 1.17786 497.471 369)">H</text><text fill="#3333B3" font-family="Times New Roman,Times New Roman_MSFontService,sans-serif" font-weight="400" font-size="10" transform="matrix(1.1757 0 0 1.17786 595.854 369)">DU slot </text><text fill="#3333B3" font-family="Times New Roman,Times New Roman_MSFontService,sans-serif" font-style="italic" font-weight="400" font-size="10" transform="matrix(1.1757 0 0 1.17786 637.003 369)">s</text><text fill="#3333B3" font-family="Times New Roman,Times New Roman_MSFontService,sans-serif" font-weight="400" font-size="10" transform="matrix(1.1757 0 0 1.17786 641.706 369)"> </text><text fill="#3333B3" font-family="Times New Roman,Times New Roman_MSFontService,sans-serif" font-weight="400" font-size="10" transform="matrix(1.1757 0 0 1.17786 645.233 369)">+ </text><text fill="#3333B3" font-family="Times New Roman,Times New Roman_MSFontService,sans-serif" font-style="italic" font-weight="400" font-size="10" transform="matrix(1.1757 0 0 1.17786 655.814 369)">H</text><text fill="#3333B3" font-family="Times New Roman,Times New Roman_MSFontService,sans-serif" font-weight="400" font-size="10" transform="matrix(1.1757 0 0 1.17786 664.044 369)"> </text><text fill="#3333B3" font-family="Times New Roman,Times New Roman_MSFontService,sans-serif" font-weight="400" font-size="10" transform="matrix(1.1757 0 0 1.17786 667.571 369)">+ </text><text fill="#3333B3" font-family="Times New Roman,Times New Roman_MSFontService,sans-serif" font-style="italic" font-weight="400" font-size="10" transform="matrix(1.1757 0 0 1.17786 678.153 369)">M</text></g></svg>