<svg width="520" height="289" xmlns="http://www.w3.org/2000/svg" xmlns:xlink="http://www.w3.org/1999/xlink" xml:space="preserve" overflow="hidden"><defs><clipPath id="clip0"><rect x="212" y="232" width="520" height="289"/></clipPath></defs><g clip-path="url(#clip0)" transform="translate(-212 -232)"><path d="M0 720.44 25.4273 720.44" stroke="#000000" stroke-width="0.882892" stroke-linecap="round" stroke-linejoin="round" stroke-miterlimit="3" stroke-dasharray="0.882892 1.76578" fill="none" fill-rule="evenodd" transform="matrix(6.12323e-17 1.00051 -1 6.12635e-17 1114.57 385.261)"/><path d="M0 709.699 42.3788 709.699 42.3788 720.44 0 720.44Z" fill="#FFFFFF" fill-rule="evenodd" transform="matrix(1 0 0 1.00051 372.945 -317.591)"/><text font-family="Times New Roman,Times New Roman_MSFontService,sans-serif" font-style="italic" font-weight="700" font-size="9" transform="matrix(1.17719 0 0 1.17779 381.103 401)">M</text><text font-family="Times New Roman,Times New Roman_MSFontService,sans-serif" font-weight="700" font-size="9" transform="matrix(1.17719 0 0 1.17779 390.521 401)"> </text><text font-family="Times New Roman,Times New Roman_MSFontService,sans-serif" font-weight="700" font-size="9" transform="matrix(1.17719 0 0 1.17779 392.875 401)">= </text><text font-family="Times New Roman,Times New Roman_MSFontService,sans-serif" font-weight="700" font-size="9" transform="matrix(1.17719 0 0 1.17779 401.116 401)">0</text><path d="M0 688.656 31.7841 688.656 31.7841 720.44 0 720.44Z" fill="#FFFFFF" fill-rule="evenodd" transform="matrix(1 0 0 1.00051 530.012 -272.157)"/><text fill="#3333B3" font-family="Times New Roman,Times New Roman_MSFontService,sans-serif" font-weight="400" font-size="14" transform="matrix(1.17719 0 0 1.17779 537.675 438)">···</text><path d="M0 688.656 31.7841 688.656 31.7841 720.44 0 720.44Z" fill="#FFFFFF" fill-rule="evenodd" transform="matrix(1 0 0 1.00051 530.012 -407.838)"/><text fill="#7F7F7F" font-family="Times New Roman,Times New Roman_MSFontService,sans-serif" font-weight="400" font-size="14" transform="matrix(1.17719 0 0 1.17779 537.675 302)">···</text><path d="M0 688.656 31.7841 688.656 31.7841 720.44 0 720.44Z" fill="#FFFFFF" fill-rule="evenodd" transform="matrix(1 0 0 1.00051 530.012 -339.997)"/><text fill="#6AA84F" font-family="Times New Roman,Times New Roman_MSFontService,sans-serif" font-weight="400" font-size="14" transform="matrix(1.17719 0 0 1.17779 537.675 370)">···</text><path d="M0 688.656 31.7841 688.656 31.7841 720.44 0 720.44Z" fill="#FFFFFF" fill-rule="evenodd" transform="matrix(1 0 0 1.00051 294.545 -272.157)"/><text fill="#3333B3" font-family="Times New Roman,Times New Roman_MSFontService,sans-serif" font-weight="400" font-size="14" transform="matrix(1.17719 0 0 1.17779 302.208 438)">···</text><path d="M0 688.656 31.7841 688.656 31.7841 720.44 0 720.44Z" fill="#FFFFFF" fill-rule="evenodd" transform="matrix(1 0 0 1.00051 294.76 -407.838)"/><text fill="#7F7F7F" font-family="Times New Roman,Times New Roman_MSFontService,sans-serif" font-weight="400" font-size="14" transform="matrix(1.17719 0 0 1.17779 302.424 302)">···</text><path d="M0 688.656 31.7841 688.656 31.7841 720.44 0 720.44Z" fill="#FFFFFF" fill-rule="evenodd" transform="matrix(1 0 0 1.00051 294.545 -339.997)"/><text fill="#6AA84F" font-family="Times New Roman,Times New Roman_MSFontService,sans-serif" font-weight="400" font-size="14" transform="matrix(1.17719 0 0 1.17779 302.208 370)">···</text><path d="M0 699.251 152.564 699.251 152.564 720.44 7.18499e-06 720.44Z" fill="#FFFFFF" fill-rule="evenodd" transform="matrix(1 0 0 1.00051 589.077 -464.866)"/><text font-family="Cambria Math,Cambria Math_MSFontService,sans-serif" font-weight="400" font-size="13" transform="matrix(1.17719 0 0 1.17779 601.579 247)">⑥</text><text font-family="Times New Roman,Times New Roman_MSFontService,sans-serif" font-weight="400" font-size="13" transform="matrix(1.17719 0 0 1.17779 620.414 247)"> </text><text fill="#7F7F7F" font-family="Times New Roman,Times New Roman_MSFontService,sans-serif" font-weight="400" font-size="13" transform="matrix(1.17719 0 0 1.17779 623.946 247)">UL data received</text><text fill="#7F7F7F" font-family="Times New Roman,Times New Roman_MSFontService,sans-serif" font-weight="700" font-size="12" transform="matrix(1.17719 0 0 1.17779 218.38 292)">Radio Head </text><text fill="#7F7F7F" font-family="Times New Roman,Times New Roman_MSFontService,sans-serif" font-weight="700" font-size="12" transform="matrix(1.17719 0 0 1.17779 226.621 309)">(</text><text fill="#7F7F7F" font-family="Times New Roman,Times New Roman_MSFontService,sans-serif" font-weight="700" font-size="12" transform="matrix(1.17719 0 0 1.17779 231.33 309)">RH slot</text><text fill="#7F7F7F" font-family="Times New Roman,Times New Roman_MSFontService,sans-serif" font-weight="700" font-size="12" transform="matrix(1.17719 0 0 1.17779 277.24 309)">)</text><text fill="#6AA84F" font-family="Times New Roman,Times New Roman_MSFontService,sans-serif" font-weight="700" font-size="12" transform="matrix(1.17719 0 0 1.17779 213.295 360)">DL Processor </text><text fill="#6AA84F" font-family="Times New Roman,Times New Roman_MSFontService,sans-serif" font-weight="700" font-size="12" transform="matrix(1.17719 0 0 1.17779 227.81 377)">(</text><text fill="#6AA84F" font-family="Times New Roman,Times New Roman_MSFontService,sans-serif" font-weight="700" font-size="12" transform="matrix(1.17719 0 0 1.17779 232.519 377)">DP slot</text><text fill="#6AA84F" font-family="Times New Roman,Times New Roman_MSFontService,sans-serif" font-weight="700" font-size="12" transform="matrix(1.17719 0 0 1.17779 276.075 377)">)</text><text fill="#3333B3" font-family="Times New Roman,Times New Roman_MSFontService,sans-serif" font-weight="700" font-size="12" transform="matrix(1.17719 0 0 1.17779 212.907 428)">DU Processor </text><text fill="#3333B3" font-family="Times New Roman,Times New Roman_MSFontService,sans-serif" font-weight="700" font-size="12" transform="matrix(1.17719 0 0 1.17779 227.021 445)">(</text><text fill="#3333B3" font-family="Times New Roman,Times New Roman_MSFontService,sans-serif" font-weight="700" font-size="12" transform="matrix(1.17719 0 0 1.17779 231.73 445)">DU slot</text><text fill="#3333B3" font-family="Times New Roman,Times New Roman_MSFontService,sans-serif" font-weight="700" font-size="12" transform="matrix(1.17719 0 0 1.17779 277.64 445)">)</text><path d="M0 699.251 169.515 699.251 169.515 720.44 0 720.44Z" fill="#FFFFFF" fill-rule="evenodd" transform="matrix(1 0 0 1.00051 360.232 -201.984)"/><text font-family="Cambria Math,Cambria Math_MSFontService,sans-serif" font-weight="400" font-size="13" transform="matrix(1.17719 0 0 1.17779 373.546 516)">③</text><text fill="#3333B3" font-family="Times New Roman,Times New Roman_MSFontService,sans-serif" font-weight="400" font-size="13" transform="matrix(1.17719 0 0 1.17779 392.381 516)"> </text><text fill="#3333B3" font-family="Times New Roman,Times New Roman_MSFontService,sans-serif" font-weight="400" font-size="13" transform="matrix(1.17719 0 0 1.17779 395.912 516)">UL grant scheduled</text><path d="M0 699.251 148.326 699.251 148.326 720.44 0 720.44Z" fill="#FFFFFF" fill-rule="evenodd" transform="matrix(1 0 0 1.00051 591.196 -201.984)"/><text font-family="Cambria Math,Cambria Math_MSFontService,sans-serif" font-weight="400" font-size="13" transform="matrix(1.17719 0 0 1.17779 601.991 516)">⑦</text><text font-family="Times New Roman,Times New Roman_MSFontService,sans-serif" font-weight="400" font-size="13" transform="matrix(1.17719 0 0 1.17779 620.826 516)"> </text><text fill="#3333B3" font-family="Times New Roman,Times New Roman_MSFontService,sans-serif" font-weight="400" font-size="13" transform="matrix(1.17719 0 0 1.17779 624.358 516)">UL data decoded</text><path d="M0 686.537 33.9031 686.537 33.9031 720.44-8.98124e-07 720.44Z" stroke="#7F7F7F" stroke-width="1.17719" stroke-linecap="square" stroke-miterlimit="3" fill="#D8D8D8" fill-rule="evenodd" transform="matrix(1 0 0 1.00051 326.329 -407.626)"/><text fill="#7F7F7F" font-family="Times New Roman,Times New Roman_MSFontService,sans-serif" font-weight="400" font-size="14" transform="matrix(1.17719 0 0 1.17779 339.16 301)">3</text><path d="M0 686.537 33.9031 686.537 33.9031 720.44-8.98124e-07 720.44Z" stroke="#7F7F7F" stroke-width="1.17719" stroke-linecap="square" stroke-miterlimit="3" fill="#FFFFFF" fill-rule="evenodd" transform="matrix(1 0 0 1.00051 360.232 -407.626)"/><text fill="#7F7F7F" font-family="Times New Roman,Times New Roman_MSFontService,sans-serif" font-weight="400" font-size="14" transform="matrix(1.17719 0 0 1.17779 373.063 301)">4</text><path d="M0 686.537 33.9031 686.537 33.9031 720.44-8.98124e-07 720.44Z" stroke="#7F7F7F" stroke-width="1.17719" stroke-linecap="square" stroke-miterlimit="3" fill="#FFFFFF" fill-rule="evenodd" transform="matrix(1 0 0 1.00051 394.135 -407.626)"/><text fill="#7F7F7F" font-family="Times New Roman,Times New Roman_MSFontService,sans-serif" font-weight="400" font-size="14" transform="matrix(1.17719 0 0 1.17779 406.966 301)">5</text><path d="M0 686.537 33.9031 686.537 33.9031 720.44-8.98124e-07 720.44Z" stroke="#7F7F7F" stroke-width="1.17719" stroke-linecap="square" stroke-miterlimit="3" fill="#FFFFFF" fill-rule="evenodd" transform="matrix(1 0 0 1.00051 428.038 -407.626)"/><text fill="#7F7F7F" font-family="Times New Roman,Times New Roman_MSFontService,sans-serif" font-weight="400" font-size="14" transform="matrix(1.17719 0 0 1.17779 440.869 301)">6</text><path d="M0 686.537 33.9031 686.537 33.9031 720.44-8.98124e-07 720.44Z" stroke="#7F7F7F" stroke-width="1.17719" stroke-linecap="square" stroke-miterlimit="3" fill="#D8D8D8" fill-rule="evenodd" transform="matrix(1 0 0 1.00051 461.941 -407.626)"/><text fill="#7F7F7F" font-family="Times New Roman,Times New Roman_MSFontService,sans-serif" font-weight="400" font-size="14" transform="matrix(1.17719 0 0 1.17779 474.772 301)">7</text><path d="M0 686.537 33.9031 686.537 33.9031 720.44-8.98124e-07 720.44Z" stroke="#6AA84F" stroke-width="1.17719" stroke-linecap="square" stroke-miterlimit="3" fill="#FFFFFF" fill-rule="evenodd" transform="matrix(1 0 0 1.00051 326.329 -339.785)"/><text fill="#6AA84F" font-family="Times New Roman,Times New Roman_MSFontService,sans-serif" font-weight="400" font-size="14" transform="matrix(1.17719 0 0 1.17779 339.16 369)">4</text><path d="M0 686.537 33.9031 686.537 33.9031 720.44-8.98124e-07 720.44Z" stroke="#6AA84F" stroke-width="1.17719" stroke-linecap="square" stroke-miterlimit="3" fill="none" fill-rule="evenodd" transform="matrix(1 0 0 1.00051 360.232 -339.785)"/><text fill="#6AA84F" font-family="Times New Roman,Times New Roman_MSFontService,sans-serif" font-weight="400" font-size="14" transform="matrix(1.17719 0 0 1.17779 373.063 369)">5</text><path d="M0 686.537 33.9031 686.537 33.9031 720.44-8.98124e-07 720.44Z" stroke="#6AA84F" stroke-width="1.17719" stroke-linecap="square" stroke-miterlimit="3" fill="#FFFFFF" fill-rule="evenodd" transform="matrix(1 0 0 1.00051 394.135 -339.785)"/><text fill="#6AA84F" font-family="Times New Roman,Times New Roman_MSFontService,sans-serif" font-weight="400" font-size="14" transform="matrix(1.17719 0 0 1.17779 406.966 369)">6</text><path d="M0 686.537 33.9031 686.537 33.9031 720.44-8.98124e-07 720.44Z" stroke="#6AA84F" stroke-width="1.17719" stroke-linecap="square" stroke-miterlimit="3" fill="#D9EAD3" fill-rule="evenodd" transform="matrix(1 0 0 1.00051 428.038 -339.785)"/><text fill="#6AA84F" font-family="Times New Roman,Times New Roman_MSFontService,sans-serif" font-weight="400" font-size="14" transform="matrix(1.17719 0 0 1.17779 440.869 369)">7</text><path d="M0 686.537 33.9031 686.537 33.9031 720.44-8.98124e-07 720.44Z" stroke="#6AA84F" stroke-width="1.17719" stroke-linecap="square" stroke-miterlimit="3" fill="#FFFFFF" fill-rule="evenodd" transform="matrix(1 0 0 1.00051 461.941 -339.785)"/><text fill="#6AA84F" font-family="Times New Roman,Times New Roman_MSFontService,sans-serif" font-weight="400" font-size="14" transform="matrix(1.17719 0 0 1.17779 474.772 369)">8</text><path d="M0 686.537 33.9031 686.537 33.9031 720.44-8.98124e-07 720.44Z" stroke="#3333B3" stroke-width="1.17719" stroke-linecap="square" stroke-miterlimit="3" fill="none" fill-rule="evenodd" transform="matrix(1 0 0 1.00051 326.329 -271.945)"/><text fill="#3333B3" font-family="Times New Roman,Times New Roman_MSFontService,sans-serif" font-weight="400" font-size="14" transform="matrix(1.17719 0 0 1.17779 339.16 437)">4</text><path d="M0 686.537 33.9031 686.537 33.9031 720.44-8.98124e-07 720.44Z" stroke="#3333B3" stroke-width="1.17719" stroke-linecap="square" stroke-miterlimit="3" fill="none" fill-rule="evenodd" transform="matrix(1 0 0 1.00051 360.232 -271.945)"/><text fill="#3333B3" font-family="Times New Roman,Times New Roman_MSFontService,sans-serif" font-weight="400" font-size="14" transform="matrix(1.17719 0 0 1.17779 373.063 437)">5</text><path d="M0 686.537 33.9031 686.537 33.9031 720.44-8.98124e-07 720.44Z" stroke="#3333B3" stroke-width="1.17719" stroke-linecap="square" stroke-miterlimit="3" fill="none" fill-rule="evenodd" transform="matrix(1 0 0 1.00051 394.135 -271.945)"/><text fill="#3333B3" font-family="Times New Roman,Times New Roman_MSFontService,sans-serif" font-weight="400" font-size="14" transform="matrix(1.17719 0 0 1.17779 406.966 437)">6</text><path d="M0 686.537 33.9031 686.537 33.9031 720.44-8.98124e-07 720.44Z" stroke="#3333B3" stroke-width="1.17719" stroke-linecap="square" stroke-miterlimit="3" fill="#ADC0E4" fill-rule="evenodd" transform="matrix(1 0 0 1.00051 428.038 -271.945)"/><text fill="#3333B3" font-family="Times New Roman,Times New Roman_MSFontService,sans-serif" font-weight="400" font-size="14" transform="matrix(1.17719 0 0 1.17779 440.869 437)">7</text><path d="M0 686.537 33.9031 686.537 33.9031 720.44-8.98124e-07 720.44Z" stroke="#3333B3" stroke-width="1.17719" stroke-linecap="square" stroke-miterlimit="3" fill="none" fill-rule="evenodd" transform="matrix(1 0 0 1.00051 461.941 -271.945)"/><text fill="#3333B3" font-family="Times New Roman,Times New Roman_MSFontService,sans-serif" font-weight="400" font-size="14" transform="matrix(1.17719 0 0 1.17779 474.772 437)">8</text><path d="M0 686.537 33.9031 686.537 33.9031 720.44-8.98124e-07 720.44Z" stroke="#3333B3" stroke-width="1.17719" stroke-linecap="square" stroke-miterlimit="3" fill="#FFFFFF" fill-rule="evenodd" transform="matrix(1 0 0 1.00051 495.844 -271.945)"/><text fill="#3333B3" font-family="Times New Roman,Times New Roman_MSFontService,sans-serif" font-weight="400" font-size="14" transform="matrix(1.17719 0 0 1.17779 508.675 437)">9</text><path d="M0 699.251 190.705 699.251 190.705 720.44 0 720.44Z" fill="#FFFFFF" fill-rule="evenodd" transform="matrix(1 0 0 1.00051 485.249 -223.184)"/><text font-family="Cambria Math,Cambria Math_MSFontService,sans-serif" font-weight="400" font-size="13" transform="matrix(1.17719 0 0 1.17779 509.582 495)">④</text><text fill="#6AA84F" font-family="Times New Roman,Times New Roman_MSFontService,sans-serif" font-weight="400" font-size="13" transform="matrix(1.17719 0 0 1.17779 528.417 495)"> </text><text fill="#6AA84F" font-family="Times New Roman,Times New Roman_MSFontService,sans-serif" font-weight="400" font-size="13" transform="matrix(1.17719 0 0 1.17779 531.948 495)">UL grant processed</text><path d="M0 720.44 0 737.309 169.515 737.309 169.515 815.792" stroke="#6AA84F" stroke-width="1.17719" stroke-linecap="round" stroke-linejoin="round" stroke-miterlimit="3" fill="none" fill-rule="evenodd" transform="matrix(1 0 0 1.00051 411.086 -339.785)"/><path d="M5.29399-2.75589C4.1302-1.09379 2.25336-0.0747541 0.225556-0.00393772L0.225545 0.00393634C2.25335 0.0747472 4.13017 1.09378 5.29399 2.75587" stroke="#6AA84F" stroke-width="1.17719" stroke-linecap="round" stroke-linejoin="round" stroke-miterlimit="3" fill="none" fill-rule="evenodd" transform="matrix(-6.12323e-17 -1.00051 1 -6.12635e-17 580.602 476.422)"/><path d="M0 699.251 161.04 699.251 161.04 720.44 3.5925e-06 720.44Z" fill="#FFFFFF" fill-rule="evenodd" transform="matrix(1 0 0 1.00051 228.857 -464.866)"/><text font-family="Cambria Math,Cambria Math_MSFontService,sans-serif" font-weight="400" font-size="13" transform="matrix(1.17719 0 0 1.17779 261.089 247)">①</text><text font-family="Times New Roman,Times New Roman_MSFontService,sans-serif" font-weight="400" font-size="13" transform="matrix(1.17719 0 0 1.17779 279.924 247)"> </text><text fill="#7F7F7F" font-family="Times New Roman,Times New Roman_MSFontService,sans-serif" font-weight="400" font-size="13" transform="matrix(1.17719 0 0 1.17779 283.456 247)">SR received</text><path d="M0 720.44 0 728.386 33.9031 728.386 33.9031 743.748" stroke="#7F7F7F" stroke-width="1.17719" stroke-linecap="round" stroke-linejoin="round" stroke-miterlimit="3" stroke-dasharray="1.17719 2.35438" fill="none" fill-rule="evenodd" transform="matrix(1 0 0 1.00051 309.377 -464.866)"/><path d="M5.29399-2.75589C4.1302-1.09379 2.25336-0.0747541 0.225556-0.00393772L0.225545 0.00393634C2.25335 0.0747472 4.13017 1.09378 5.29399 2.75587" stroke="#7F7F7F" stroke-width="1.17719" stroke-linecap="round" stroke-linejoin="round" stroke-miterlimit="3" fill="none" fill-rule="evenodd" transform="matrix(-6.12323e-17 -1.00051 1 -6.12635e-17 343.28 279.26)"/><path d="M0 720.44 0 734.39-186.467 734.39-186.467 743.748" stroke="#7F7F7F" stroke-width="1.17719" stroke-linecap="round" stroke-linejoin="round" stroke-miterlimit="3" stroke-dasharray="1.17719 2.35438" fill="none" fill-rule="evenodd" transform="matrix(1 0 0 1.00051 665.359 -464.866)"/><path d="M5.29399-2.75589C4.1302-1.09379 2.25336-0.0747541 0.225556-0.00393772L0.225545 0.00393634C2.25335 0.0747472 4.13017 1.09378 5.29399 2.75587" stroke="#7F7F7F" stroke-width="1.17719" stroke-linecap="round" stroke-linejoin="round" stroke-miterlimit="3" fill="none" fill-rule="evenodd" transform="matrix(-6.12323e-17 -1.00051 1 -6.12635e-17 478.892 279.26)"/><path d="M-10.5947 720.44-10.5947 706.667-10.5947 697.132" stroke="#7F7F7F" stroke-width="1.17719" stroke-linecap="round" stroke-linejoin="round" stroke-miterlimit="3" stroke-dasharray="1.17719 2.35438" fill="none" fill-rule="evenodd" transform="matrix(1 0 0 1.00051 455.584 -441.546)"/><path d="M5.29399-2.75589C4.1302-1.09379 2.25336-0.0747541 0.225556-0.00393772L0.225545 0.00393634C2.25335 0.0747472 4.13017 1.09378 5.29399 2.75587" stroke="#7F7F7F" stroke-width="1.17719" stroke-linecap="round" stroke-linejoin="round" stroke-miterlimit="3" fill="none" fill-rule="evenodd" transform="matrix(-6.12323e-17 1.00051 -1 -6.12635e-17 444.989 255.94)"/><path d="M0 720.44 0 728.386 33.9031 728.386 33.9031 769.176" stroke="#3333B3" stroke-width="1.17719" stroke-linecap="round" stroke-linejoin="round" stroke-miterlimit="3" fill="none" fill-rule="evenodd" transform="matrix(1 0 0 1.00051 411.086 -271.945)"/><path d="M5.29399-2.75589C4.1302-1.09379 2.25336-0.0747541 0.225556-0.00393772L0.225545 0.00393634C2.25335 0.0747472 4.13017 1.09378 5.29399 2.75587" stroke="#3333B3" stroke-width="1.17719" stroke-linecap="round" stroke-linejoin="round" stroke-miterlimit="3" fill="none" fill-rule="evenodd" transform="matrix(-6.12323e-17 -1.00051 1 -6.12635e-17 444.989 497.622)"/><path d="M0 699.251 105.947 699.251 105.947 720.44 0 720.44Z" fill="#FFFFFF" fill-rule="evenodd" transform="matrix(1 0 0 1.00051 324.21 -235.904)"/><text font-family="Cambria Math,Cambria Math_MSFontService,sans-serif" font-weight="400" font-size="13" transform="matrix(1.17719 0 0 1.17779 329.319 482)">②</text><text fill="#3333B3" font-family="Times New Roman,Times New Roman_MSFontService,sans-serif" font-weight="400" font-size="13" transform="matrix(1.17719 0 0 1.17779 348.154 482)"> </text><text fill="#3333B3" font-family="Times New Roman,Times New Roman_MSFontService,sans-serif" font-weight="400" font-size="13" transform="matrix(1.17719 0 0 1.17779 351.685 482)">SR decoded</text><path d="M10.5947 723.618 10.5947 738.451" stroke="#3333B3" stroke-width="1.17719" stroke-linecap="round" stroke-linejoin="round" stroke-miterlimit="3" fill="none" fill-rule="evenodd" transform="matrix(1 0 0 1.00051 366.589 -275.125)"/><path d="M5.29399-2.75589C4.1302-1.09379 2.25336-0.0747541 0.225556-0.00393772L0.225545 0.00393634C2.25335 0.0747472 4.13017 1.09378 5.29399 2.75587" stroke="#3333B3" stroke-width="1.17719" stroke-linecap="round" stroke-linejoin="round" stroke-miterlimit="3" fill="none" fill-rule="evenodd" transform="matrix(-6.12323e-17 -1.00051 1 -6.12635e-17 377.183 463.701)"/><path d="M0 706.879 35.5982 706.879 35.5982 720.44-2.69437e-07 720.44Z" fill="#FFFFFF" fill-rule="evenodd" transform="matrix(1 0 0 1.00051 393.287 -383.882)"/><text font-family="Times New Roman,Times New Roman_MSFontService,sans-serif" font-style="italic" font-weight="700" font-size="9" transform="matrix(1.17719 0 0 1.17779 398.655 333)">H</text><text font-family="Times New Roman,Times New Roman_MSFontService,sans-serif" font-weight="700" font-size="9" transform="matrix(1.17719 0 0 1.17779 406.896 333)"> </text><text font-family="Times New Roman,Times New Roman_MSFontService,sans-serif" font-weight="700" font-size="9" transform="matrix(1.17719 0 0 1.17779 409.25 333)">= </text><text font-family="Times New Roman,Times New Roman_MSFontService,sans-serif" font-weight="700" font-size="9" transform="matrix(1.17719 0 0 1.17779 417.49 333)">1</text><path d="M0 706.879 37.2934 706.879 37.2934 720.44 3.5925e-07 720.44Z" fill="#FFFFFF" fill-rule="evenodd" transform="matrix(1 0 0 1.00051 426.343 -383.882)"/><text font-family="Times New Roman,Times New Roman_MSFontService,sans-serif" font-style="italic" font-weight="700" font-size="9" transform="matrix(1.17719 0 0 1.17779 431.416 333)">K</text><text font-family="Times New Roman,Times New Roman_MSFontService,sans-serif" font-weight="700" font-size="6" transform="matrix(1.17719 0 0 1.17779 438.48 331)">2</text><text font-family="Times New Roman,Times New Roman_MSFontService,sans-serif" font-weight="700" font-size="9" transform="matrix(1.17719 0 0 1.17779 442.011 333)"> </text><text font-family="Times New Roman,Times New Roman_MSFontService,sans-serif" font-weight="700" font-size="9" transform="matrix(1.17719 0 0 1.17779 444.366 333)">= </text><text font-family="Times New Roman,Times New Roman_MSFontService,sans-serif" font-weight="700" font-size="9" transform="matrix(1.17719 0 0 1.17779 452.606 333)">1</text><path d="M0 720.44 25.4273 720.44" stroke="#000000" stroke-width="0.882892" stroke-linecap="round" stroke-linejoin="round" stroke-miterlimit="3" stroke-dasharray="0.882892 1.76578" fill="none" fill-rule="evenodd" transform="matrix(6.12323e-17 1.00051 -1 6.12635e-17 1114.57 317.42)"/><path d="M0 720.44 25.4273 720.44" stroke="#000000" stroke-width="0.882892" stroke-linecap="round" stroke-linejoin="round" stroke-miterlimit="3" stroke-dasharray="0.882892 1.76578" fill="none" fill-rule="evenodd" transform="matrix(6.12323e-17 1.00051 -1 6.12635e-17 1148.48 317.42)"/><path d="M0 720.44 25.4273 720.44" stroke="#000000" stroke-width="0.882892" stroke-linecap="round" stroke-linejoin="round" stroke-miterlimit="3" stroke-dasharray="0.882892 1.76578" fill="none" fill-rule="evenodd" transform="matrix(6.12323e-17 1.00051 -1 6.12635e-17 1182.38 317.42)"/><path d="M0 720.44 0 736.332 64.2745 736.332C64.2745 734.382 65.8557 732.8 67.8061 732.8 69.7565 732.8 71.3377 734.382 71.3377 736.332L152.564 736.332 152.564 769.176" stroke="#3333B3" stroke-width="1.17719" stroke-linecap="round" stroke-linejoin="round" stroke-miterlimit="3" fill="none" fill-rule="evenodd" transform="matrix(1 0 0 1.00051 512.796 -271.945)"/><path d="M5.29399-2.75589C4.1302-1.09379 2.25336-0.0747541 0.225556-0.00393772L0.225545 0.00393634C2.25335 0.0747472 4.13017 1.09378 5.29399 2.75587" stroke="#3333B3" stroke-width="1.17719" stroke-linecap="round" stroke-linejoin="round" stroke-miterlimit="3" fill="none" fill-rule="evenodd" transform="matrix(-6.12323e-17 -1.00051 1 -6.12635e-17 665.359 497.622)"/><path d="M0 686.537 33.9031 686.537 33.9031 720.44-8.98124e-07 720.44Z" stroke="#7F7F7F" stroke-width="1.17719" stroke-linecap="square" stroke-miterlimit="3" fill="#FFFFFF" fill-rule="evenodd" transform="matrix(1 0 0 1.00051 495.844 -407.626)"/><text fill="#7F7F7F" font-family="Times New Roman,Times New Roman_MSFontService,sans-serif" font-weight="400" font-size="14" transform="matrix(1.17719 0 0 1.17779 508.675 301)">8</text><path d="M0 686.537 33.9031 686.537 33.9031 720.44-8.98124e-07 720.44Z" stroke="#6AA84F" stroke-width="1.17719" stroke-linecap="square" stroke-miterlimit="3" fill="#FFFFFF" fill-rule="evenodd" transform="matrix(1 0 0 1.00051 495.844 -339.997)"/><text fill="#6AA84F" font-family="Times New Roman,Times New Roman_MSFontService,sans-serif" font-weight="400" font-size="14" transform="matrix(1.17719 0 0 1.17779 508.675 369)">9</text><path d="M0 699.251 161.04 699.251 161.04 720.44 3.5925e-06 720.44Z" fill="#FFFFFF" fill-rule="evenodd" transform="matrix(1 0 0 1.00051 364.47 -464.866)"/><text font-family="Cambria Math,Cambria Math_MSFontService,sans-serif" font-weight="400" font-size="13" transform="matrix(1.17719 0 0 1.17779 369.72 247)">⑤</text><text font-family="Times New Roman,Times New Roman_MSFontService,sans-serif" font-weight="400" font-size="13" transform="matrix(1.17719 0 0 1.17779 388.555 247)"> </text><text fill="#7F7F7F" font-family="Times New Roman,Times New Roman_MSFontService,sans-serif" font-weight="400" font-size="13" transform="matrix(1.17719 0 0 1.17779 392.087 247)">UL grant transmitted</text></g></svg>