<svg width="556" height="287" xmlns="http://www.w3.org/2000/svg" xmlns:xlink="http://www.w3.org/1999/xlink" xml:space="preserve" overflow="hidden"><defs><clipPath id="clip0"><rect x="212" y="233" width="556" height="287"/></clipPath></defs><g clip-path="url(#clip0)" transform="translate(-212 -233)"><path d="M0 685.811 31.6528 685.811 31.6528 717.464 0 717.464Z" fill="#FFFFFF" fill-rule="evenodd" transform="matrix(1.00459 0 0 1 665.541 -268.992)"/><text fill="#3333B3" font-family="Times New Roman,Times New Roman_MSFontService,sans-serif" font-weight="400" font-size="14" transform="matrix(1.17771 0 0 1.17233 673.207 438)">···</text><path d="M0 685.811 31.6528 685.811 31.6528 717.464 0 717.464Z" fill="#FFFFFF" fill-rule="evenodd" transform="matrix(1.00459 0 0 1 665.541 -404.044)"/><text fill="#7F7F7F" font-family="Times New Roman,Times New Roman_MSFontService,sans-serif" font-weight="400" font-size="14" transform="matrix(1.17771 0 0 1.17233 673.207 303)">···</text><path d="M0 685.811 31.6528 685.811 31.6528 717.464 0 717.464Z" fill="#FFFFFF" fill-rule="evenodd" transform="matrix(1.00459 0 0 1 665.541 -336.518)"/><text fill="#6AA84F" font-family="Times New Roman,Times New Roman_MSFontService,sans-serif" font-weight="400" font-size="14" transform="matrix(1.17771 0 0 1.17233 673.207 370)">···</text><path d="M0 685.811 31.6528 685.811 31.6528 717.464 0 717.464Z" fill="#FFFFFF" fill-rule="evenodd" transform="matrix(1.00459 0 0 1 294.562 -268.992)"/><text fill="#3333B3" font-family="Times New Roman,Times New Roman_MSFontService,sans-serif" font-weight="400" font-size="14" transform="matrix(1.17771 0 0 1.17233 302.229 438)">···</text><path d="M0 685.811 31.6528 685.811 31.6528 717.464 0 717.464Z" fill="#FFFFFF" fill-rule="evenodd" transform="matrix(1.00459 0 0 1 294.778 -404.044)"/><text fill="#7F7F7F" font-family="Times New Roman,Times New Roman_MSFontService,sans-serif" font-weight="400" font-size="14" transform="matrix(1.17771 0 0 1.17233 302.445 303)">···</text><path d="M0 685.811 31.6528 685.811 31.6528 717.464 0 717.464Z" fill="#FFFFFF" fill-rule="evenodd" transform="matrix(1.00459 0 0 1 294.562 -336.518)"/><text fill="#6AA84F" font-family="Times New Roman,Times New Roman_MSFontService,sans-serif" font-weight="400" font-size="14" transform="matrix(1.17771 0 0 1.17233 302.229 370)">···</text><path d="M0 696.362 151.934 696.362 151.934 717.464 7.15532e-06 717.464Z" fill="#FFFFFF" fill-rule="evenodd" transform="matrix(1.00459 0 0 1 626.535 -460.808)"/><text font-family="Cambria Math,Cambria Math_MSFontService,sans-serif" font-weight="400" font-size="13" transform="matrix(1.17771 0 0 1.17233 639.042 247)">⑥</text><text font-family="Times New Roman,Times New Roman_MSFontService,sans-serif" font-weight="400" font-size="13" transform="matrix(1.17771 0 0 1.17233 657.885 247)"> </text><text fill="#7F7F7F" font-family="Times New Roman,Times New Roman_MSFontService,sans-serif" font-weight="400" font-size="13" transform="matrix(1.17771 0 0 1.17233 661.419 247)">UL data received</text><text fill="#7F7F7F" font-family="Times New Roman,Times New Roman_MSFontService,sans-serif" font-weight="700" font-size="12" transform="matrix(1.17771 0 0 1.17233 218.365 293)">Radio Head </text><text fill="#7F7F7F" font-family="Times New Roman,Times New Roman_MSFontService,sans-serif" font-weight="700" font-size="12" transform="matrix(1.17771 0 0 1.17233 226.609 309)">(</text><text fill="#7F7F7F" font-family="Times New Roman,Times New Roman_MSFontService,sans-serif" font-weight="700" font-size="12" transform="matrix(1.17771 0 0 1.17233 231.319 309)">RH slot</text><text fill="#7F7F7F" font-family="Times New Roman,Times New Roman_MSFontService,sans-serif" font-weight="700" font-size="12" transform="matrix(1.17771 0 0 1.17233 277.25 309)">)</text><text fill="#6AA84F" font-family="Times New Roman,Times New Roman_MSFontService,sans-serif" font-weight="700" font-size="12" transform="matrix(1.17771 0 0 1.17233 213.277 360)">DL Processor </text><text fill="#6AA84F" font-family="Times New Roman,Times New Roman_MSFontService,sans-serif" font-weight="700" font-size="12" transform="matrix(1.17771 0 0 1.17233 227.798 377)">(</text><text fill="#6AA84F" font-family="Times New Roman,Times New Roman_MSFontService,sans-serif" font-weight="700" font-size="12" transform="matrix(1.17771 0 0 1.17233 232.509 377)">DP slot</text><text fill="#6AA84F" font-family="Times New Roman,Times New Roman_MSFontService,sans-serif" font-weight="700" font-size="12" transform="matrix(1.17771 0 0 1.17233 276.084 377)">)</text><text fill="#3333B3" font-family="Times New Roman,Times New Roman_MSFontService,sans-serif" font-weight="700" font-size="12" transform="matrix(1.17771 0 0 1.17233 212.888 428)">DU Processor </text><text fill="#3333B3" font-family="Times New Roman,Times New Roman_MSFontService,sans-serif" font-weight="700" font-size="12" transform="matrix(1.17771 0 0 1.17233 227.009 444)">(</text><text fill="#3333B3" font-family="Times New Roman,Times New Roman_MSFontService,sans-serif" font-weight="700" font-size="12" transform="matrix(1.17771 0 0 1.17233 231.72 444)">DU slot</text><text fill="#3333B3" font-family="Times New Roman,Times New Roman_MSFontService,sans-serif" font-weight="700" font-size="12" transform="matrix(1.17771 0 0 1.17233 277.65 444)">)</text><path d="M0 696.362 337.63 696.362 337.63 717.464 0 717.464Z" fill="#FFFFFF" fill-rule="evenodd" transform="matrix(1.00459 0 0 1 275.483 -199.144)"/><text font-family="Cambria Math,Cambria Math_MSFontService,sans-serif" font-weight="400" font-size="13" transform="matrix(1.17771 0 0 1.17233 373.598 516)">③</text><text fill="#3333B3" font-family="Times New Roman,Times New Roman_MSFontService,sans-serif" font-weight="400" font-size="13" transform="matrix(1.17771 0 0 1.17233 392.442 516)"> </text><text fill="#3333B3" font-family="Times New Roman,Times New Roman_MSFontService,sans-serif" font-weight="400" font-size="13" transform="matrix(1.17771 0 0 1.17233 395.975 516)">UL grant scheduled</text><path d="M0 696.362 147.713 696.362 147.713 717.464 0 717.464Z" fill="#FFFFFF" fill-rule="evenodd" transform="matrix(1.00459 0 0 1 625.263 -199.144)"/><text font-family="Cambria Math,Cambria Math_MSFontService,sans-serif" font-weight="400" font-size="13" transform="matrix(1.17771 0 0 1.17233 636.062 516)">⑦</text><text font-family="Times New Roman,Times New Roman_MSFontService,sans-serif" font-weight="400" font-size="13" transform="matrix(1.17771 0 0 1.17233 654.906 516)"> </text><text fill="#3333B3" font-family="Times New Roman,Times New Roman_MSFontService,sans-serif" font-weight="400" font-size="13" transform="matrix(1.17771 0 0 1.17233 658.439 516)">UL data decoded</text><path d="M0 683.701 33.763 683.701 33.763 717.464-8.94415e-07 717.464Z" stroke="#7F7F7F" stroke-width="1.17233" stroke-linecap="square" stroke-miterlimit="3" fill="#D8D8D8" fill-rule="evenodd" transform="matrix(1.00459 0 0 1 326.36 -403.833)"/><text fill="#7F7F7F" font-family="Times New Roman,Times New Roman_MSFontService,sans-serif" font-weight="400" font-size="14" transform="matrix(1.17771 0 0 1.17233 339.198 302)">3</text><path d="M0 683.701 33.763 683.701 33.763 717.464-8.94415e-07 717.464Z" stroke="#7F7F7F" stroke-width="1.17233" stroke-linecap="square" stroke-miterlimit="3" fill="#FFFFFF" fill-rule="evenodd" transform="matrix(1.00459 0 0 1 360.278 -403.833)"/><text fill="#7F7F7F" font-family="Times New Roman,Times New Roman_MSFontService,sans-serif" font-weight="400" font-size="14" transform="matrix(1.17771 0 0 1.17233 373.116 302)">4</text><path d="M0 683.701 33.763 683.701 33.763 717.464-8.94415e-07 717.464Z" stroke="#7F7F7F" stroke-width="1.17233" stroke-linecap="square" stroke-miterlimit="3" fill="#FFFFFF" fill-rule="evenodd" transform="matrix(1.00459 0 0 1 394.196 -403.833)"/><text fill="#7F7F7F" font-family="Times New Roman,Times New Roman_MSFontService,sans-serif" font-weight="400" font-size="14" transform="matrix(1.17771 0 0 1.17233 407.034 302)">5</text><path d="M0 683.701 33.763 683.701 33.763 717.464-8.94415e-07 717.464Z" stroke="#7F7F7F" stroke-width="1.17233" stroke-linecap="square" stroke-miterlimit="3" fill="#FFFFFF" fill-rule="evenodd" transform="matrix(1.00459 0 0 1 428.114 -403.833)"/><text fill="#7F7F7F" font-family="Times New Roman,Times New Roman_MSFontService,sans-serif" font-weight="400" font-size="14" transform="matrix(1.17771 0 0 1.17233 440.952 302)">6</text><path d="M0 683.701 33.763 683.701 33.763 717.464-8.94415e-07 717.464Z" stroke="#7F7F7F" stroke-width="1.17233" stroke-linecap="square" stroke-miterlimit="3" fill="#D8D8D8" fill-rule="evenodd" transform="matrix(1.00459 0 0 1 462.033 -403.833)"/><text fill="#7F7F7F" font-family="Times New Roman,Times New Roman_MSFontService,sans-serif" font-weight="400" font-size="14" transform="matrix(1.17771 0 0 1.17233 474.87 302)">7</text><path d="M0 683.701 33.763 683.701 33.763 717.464-8.94415e-07 717.464Z" stroke="#7F7F7F" stroke-width="1.17233" stroke-linecap="square" stroke-miterlimit="3" fill="#FFFFFF" fill-rule="evenodd" transform="matrix(1.00459 0 0 1 495.951 -403.833)"/><text fill="#7F7F7F" font-family="Times New Roman,Times New Roman_MSFontService,sans-serif" font-weight="400" font-size="14" transform="matrix(1.17771 0 0 1.17233 508.788 302)">8</text><path d="M0 683.701 33.763 683.701 33.763 717.464-8.94415e-07 717.464Z" stroke="#7F7F7F" stroke-width="1.17233" stroke-linecap="square" stroke-miterlimit="3" fill="#FFFFFF" fill-rule="evenodd" transform="matrix(1.00459 0 0 1 529.868 -403.833)"/><text fill="#7F7F7F" font-family="Times New Roman,Times New Roman_MSFontService,sans-serif" font-weight="400" font-size="14" transform="matrix(1.17771 0 0 1.17233 542.706 302)">9</text><path d="M0 683.701 33.763 683.701 33.763 717.464-8.94415e-07 717.464Z" stroke="#7F7F7F" stroke-width="1.17233" stroke-linecap="square" stroke-miterlimit="3" fill="#FFFFFF" fill-rule="evenodd" transform="matrix(1.00459 0 0 1 563.786 -403.833)"/><text fill="#7F7F7F" font-family="Times New Roman,Times New Roman_MSFontService,sans-serif" font-weight="400" font-size="14" transform="matrix(1.17771 0 0 1.17233 572.502 302)">10</text><path d="M0 683.701 33.763 683.701 33.763 717.464-8.94415e-07 717.464Z" stroke="#7F7F7F" stroke-width="1.17233" stroke-linecap="square" stroke-miterlimit="3" fill="#D8D8D8" fill-rule="evenodd" transform="matrix(1.00459 0 0 1 597.704 -403.833)"/><text fill="#7F7F7F" font-family="Times New Roman,Times New Roman_MSFontService,sans-serif" font-weight="400" font-size="14" transform="matrix(1.17771 0 0 1.17233 606.42 302)">11</text><path d="M0 683.701 33.763 683.701 33.763 717.464-8.94415e-07 717.464Z" stroke="#7F7F7F" stroke-width="1.17233" stroke-linecap="square" stroke-miterlimit="3" fill="#FFFFFF" fill-rule="evenodd" transform="matrix(1.00459 0 0 1 631.622 -403.833)"/><text fill="#7F7F7F" font-family="Times New Roman,Times New Roman_MSFontService,sans-serif" font-weight="400" font-size="14" transform="matrix(1.17771 0 0 1.17233 640.338 302)">12</text><path d="M0 683.701 33.763 683.701 33.763 717.464-8.94415e-07 717.464Z" stroke="#6AA84F" stroke-width="1.17233" stroke-linecap="square" stroke-miterlimit="3" fill="#FFFFFF" fill-rule="evenodd" transform="matrix(1.00459 0 0 1 326.36 -336.307)"/><text fill="#6AA84F" font-family="Times New Roman,Times New Roman_MSFontService,sans-serif" font-weight="400" font-size="14" transform="matrix(1.17771 0 0 1.17233 339.198 369)">6</text><path d="M0 683.701 33.763 683.701 33.763 717.464-8.94415e-07 717.464Z" stroke="#6AA84F" stroke-width="1.17233" stroke-linecap="square" stroke-miterlimit="3" fill="#D9EAD3" fill-rule="evenodd" transform="matrix(1.00459 0 0 1 360.278 -336.307)"/><text fill="#6AA84F" font-family="Times New Roman,Times New Roman_MSFontService,sans-serif" font-weight="400" font-size="14" transform="matrix(1.17771 0 0 1.17233 373.116 369)">7</text><path d="M0 683.701 33.763 683.701 33.763 717.464-8.94415e-07 717.464Z" stroke="#6AA84F" stroke-width="1.17233" stroke-linecap="square" stroke-miterlimit="3" fill="#FFFFFF" fill-rule="evenodd" transform="matrix(1.00459 0 0 1 394.196 -336.307)"/><text fill="#6AA84F" font-family="Times New Roman,Times New Roman_MSFontService,sans-serif" font-weight="400" font-size="14" transform="matrix(1.17771 0 0 1.17233 407.034 369)">8</text><path d="M0 683.701 33.763 683.701 33.763 717.464-8.94415e-07 717.464Z" stroke="#6AA84F" stroke-width="1.17233" stroke-linecap="square" stroke-miterlimit="3" fill="#FFFFFF" fill-rule="evenodd" transform="matrix(1.00459 0 0 1 428.114 -336.307)"/><text fill="#6AA84F" font-family="Times New Roman,Times New Roman_MSFontService,sans-serif" font-weight="400" font-size="14" transform="matrix(1.17771 0 0 1.17233 440.952 369)">9</text><path d="M0 683.701 33.763 683.701 33.763 717.464-8.94415e-07 717.464Z" stroke="#6AA84F" stroke-width="1.17233" stroke-linecap="square" stroke-miterlimit="3" fill="#FFFFFF" fill-rule="evenodd" transform="matrix(1.00459 0 0 1 462.033 -336.307)"/><text fill="#6AA84F" font-family="Times New Roman,Times New Roman_MSFontService,sans-serif" font-weight="400" font-size="14" transform="matrix(1.17771 0 0 1.17233 470.748 369)">10</text><path d="M0 683.701 33.763 683.701 33.763 717.464-8.94415e-07 717.464Z" stroke="#6AA84F" stroke-width="1.17233" stroke-linecap="square" stroke-miterlimit="3" fill="#D9EAD3" fill-rule="evenodd" transform="matrix(1.00459 0 0 1 495.951 -336.307)"/><text fill="#6AA84F" font-family="Times New Roman,Times New Roman_MSFontService,sans-serif" font-weight="400" font-size="14" transform="matrix(1.17771 0 0 1.17233 504.666 369)">11</text><path d="M0 683.701 33.763 683.701 33.763 717.464-8.94415e-07 717.464Z" stroke="#6AA84F" stroke-width="1.17233" stroke-linecap="square" stroke-miterlimit="3" fill="#FFFFFF" fill-rule="evenodd" transform="matrix(1.00459 0 0 1 529.868 -336.307)"/><text fill="#6AA84F" font-family="Times New Roman,Times New Roman_MSFontService,sans-serif" font-weight="400" font-size="14" transform="matrix(1.17771 0 0 1.17233 538.584 369)">12</text><path d="M0 683.701 33.763 683.701 33.763 717.464-8.94415e-07 717.464Z" stroke="#6AA84F" stroke-width="1.17233" stroke-linecap="square" stroke-miterlimit="3" fill="#FFFFFF" fill-rule="evenodd" transform="matrix(1.00459 0 0 1 563.786 -336.307)"/><text fill="#6AA84F" font-family="Times New Roman,Times New Roman_MSFontService,sans-serif" font-weight="400" font-size="14" transform="matrix(1.17771 0 0 1.17233 572.502 369)">13</text><path d="M0 683.701 33.763 683.701 33.763 717.464-8.94415e-07 717.464Z" stroke="#6AA84F" stroke-width="1.17233" stroke-linecap="square" stroke-miterlimit="3" fill="#FFFFFF" fill-rule="evenodd" transform="matrix(1.00459 0 0 1 597.704 -336.307)"/><text fill="#6AA84F" font-family="Times New Roman,Times New Roman_MSFontService,sans-serif" font-weight="400" font-size="14" transform="matrix(1.17771 0 0 1.17233 606.42 369)">14</text><path d="M0 683.701 33.763 683.701 33.763 717.464-8.94415e-07 717.464Z" stroke="#6AA84F" stroke-width="1.17233" stroke-linecap="square" stroke-miterlimit="3" fill="#D9EAD3" fill-rule="evenodd" transform="matrix(1.00459 0 0 1 631.622 -336.307)"/><text fill="#6AA84F" font-family="Times New Roman,Times New Roman_MSFontService,sans-serif" font-weight="400" font-size="14" transform="matrix(1.17771 0 0 1.17233 640.338 369)">15</text><path d="M0 683.701 33.763 683.701 33.763 717.464-8.94415e-07 717.464Z" stroke="#3333B3" stroke-width="1.17233" stroke-linecap="square" stroke-miterlimit="3" fill="#ADC0E4" fill-rule="evenodd" transform="matrix(1.00459 0 0 1 326.36 -268.78)"/><text fill="#3333B3" font-family="Times New Roman,Times New Roman_MSFontService,sans-serif" font-weight="400" font-size="14" transform="matrix(1.17771 0 0 1.17233 339.198 437)">7</text><path d="M0 683.701 33.763 683.701 33.763 717.464-8.94415e-07 717.464Z" stroke="#3333B3" stroke-width="1.17233" stroke-linecap="square" stroke-miterlimit="3" fill="none" fill-rule="evenodd" transform="matrix(1.00459 0 0 1 360.278 -268.78)"/><text fill="#3333B3" font-family="Times New Roman,Times New Roman_MSFontService,sans-serif" font-weight="400" font-size="14" transform="matrix(1.17771 0 0 1.17233 373.116 437)">8</text><path d="M0 683.701 33.763 683.701 33.763 717.464-8.94415e-07 717.464Z" stroke="#3333B3" stroke-width="1.17233" stroke-linecap="square" stroke-miterlimit="3" fill="none" fill-rule="evenodd" transform="matrix(1.00459 0 0 1 394.196 -268.78)"/><text fill="#3333B3" font-family="Times New Roman,Times New Roman_MSFontService,sans-serif" font-weight="400" font-size="14" transform="matrix(1.17771 0 0 1.17233 407.034 437)">9</text><path d="M0 683.701 33.763 683.701 33.763 717.464-8.94415e-07 717.464Z" stroke="#3333B3" stroke-width="1.17233" stroke-linecap="square" stroke-miterlimit="3" fill="none" fill-rule="evenodd" transform="matrix(1.00459 0 0 1 428.114 -268.78)"/><text fill="#3333B3" font-family="Times New Roman,Times New Roman_MSFontService,sans-serif" font-weight="400" font-size="14" transform="matrix(1.17771 0 0 1.17233 436.83 437)">10</text><path d="M0 683.701 33.763 683.701 33.763 717.464-8.94415e-07 717.464Z" stroke="#3333B3" stroke-width="1.17233" stroke-linecap="square" stroke-miterlimit="3" fill="#ADC0E4" fill-rule="evenodd" transform="matrix(1.00459 0 0 1 462.033 -268.78)"/><text fill="#3333B3" font-family="Times New Roman,Times New Roman_MSFontService,sans-serif" font-weight="400" font-size="14" transform="matrix(1.17771 0 0 1.17233 470.748 437)">11</text><path d="M0 683.701 33.763 683.701 33.763 717.464-8.94415e-07 717.464Z" stroke="#3333B3" stroke-width="1.17233" stroke-linecap="square" stroke-miterlimit="3" fill="#FFFFFF" fill-rule="evenodd" transform="matrix(1.00459 0 0 1 495.951 -268.78)"/><text fill="#3333B3" font-family="Times New Roman,Times New Roman_MSFontService,sans-serif" font-weight="400" font-size="14" transform="matrix(1.17771 0 0 1.17233 504.666 437)">12</text><path d="M0 683.701 33.763 683.701 33.763 717.464-8.94415e-07 717.464Z" stroke="#3333B3" stroke-width="1.17233" stroke-linecap="square" stroke-miterlimit="3" fill="none" fill-rule="evenodd" transform="matrix(1.00459 0 0 1 563.786 -268.78)"/><text fill="#3333B3" font-family="Times New Roman,Times New Roman_MSFontService,sans-serif" font-weight="400" font-size="14" transform="matrix(1.17771 0 0 1.17233 572.502 437)">14</text><path d="M0 683.701 33.763 683.701 33.763 717.464-8.94415e-07 717.464Z" stroke="#3333B3" stroke-width="1.17233" stroke-linecap="square" stroke-miterlimit="3" fill="#ADC0E4" fill-rule="evenodd" transform="matrix(1.00459 0 0 1 597.704 -268.78)"/><text fill="#3333B3" font-family="Times New Roman,Times New Roman_MSFontService,sans-serif" font-weight="400" font-size="14" transform="matrix(1.17771 0 0 1.17233 606.42 437)">15</text><path d="M0 683.701 33.763 683.701 33.763 717.464-8.94415e-07 717.464Z" stroke="#3333B3" stroke-width="1.17233" stroke-linecap="square" stroke-miterlimit="3" fill="none" fill-rule="evenodd" transform="matrix(1.00459 0 0 1 631.622 -268.78)"/><text fill="#3333B3" font-family="Times New Roman,Times New Roman_MSFontService,sans-serif" font-weight="400" font-size="14" transform="matrix(1.17771 0 0 1.17233 640.338 437)">16</text><path d="M0 696.362 189.917 696.362 189.917 717.464 0 717.464Z" fill="#FFFFFF" fill-rule="evenodd" transform="matrix(1.00459 0 0 1 451.433 -232.907)"/><text font-family="Cambria Math,Cambria Math_MSFontService,sans-serif" font-weight="400" font-size="13" transform="matrix(1.17771 0 0 1.17233 475.776 482)">④</text><text fill="#6AA84F" font-family="Times New Roman,Times New Roman_MSFontService,sans-serif" font-weight="400" font-size="13" transform="matrix(1.17771 0 0 1.17233 494.62 482)"> </text><text fill="#6AA84F" font-family="Times New Roman,Times New Roman_MSFontService,sans-serif" font-weight="400" font-size="13" transform="matrix(1.17771 0 0 1.17233 498.153 482)">UL grant processed</text><path d="M0 717.464 0 741.602 50.6445 741.602 50.6445 765.999" stroke="#3333B3" stroke-width="1.17233" stroke-linecap="round" stroke-linejoin="round" stroke-miterlimit="3" fill="none" fill-rule="evenodd" transform="matrix(1.00459 0 0 1 648.581 -268.78)"/><path d="M5.27212-2.7445C4.11314-1.08927 2.24405-0.0744454 0.224625-0.00392146L0.224613 0.00392008C2.24404 0.0744385 4.11311 1.08926 5.27212 2.74449" stroke="#3333B3" stroke-width="1.17233" stroke-linecap="round" stroke-linejoin="round" stroke-miterlimit="3" fill="none" fill-rule="evenodd" transform="matrix(-6.15134e-17 -1 1.00459 -6.12323e-17 699.458 497.218)"/><path d="M0 717.464 0 733.291 67.526 733.291 67.526 799.762" stroke="#6AA84F" stroke-width="1.17233" stroke-linecap="round" stroke-linejoin="round" stroke-miterlimit="3" fill="none" fill-rule="evenodd" transform="matrix(1.00459 0 0 1 478.991 -336.307)"/><path d="M5.27212-2.7445C4.11314-1.08927 2.24405-0.0744454 0.224625-0.00392146L0.224613 0.00392008C2.24404 0.0744385 4.11311 1.08926 5.27212 2.74449" stroke="#6AA84F" stroke-width="1.17233" stroke-linecap="round" stroke-linejoin="round" stroke-miterlimit="3" fill="none" fill-rule="evenodd" transform="matrix(-6.15134e-17 -1 1.00459 -6.12323e-17 546.828 463.455)"/><path d="M0 696.362 202.578 696.362 202.578 717.464 3.57766e-06 717.464Z" fill="#FFFFFF" fill-rule="evenodd" transform="matrix(1.00459 0 0 1 428.114 -460.808)"/><text font-family="Cambria Math,Cambria Math_MSFontService,sans-serif" font-weight="400" font-size="13" transform="matrix(1.17771 0 0 1.17233 454.566 247)">⑤</text><text font-family="Times New Roman,Times New Roman_MSFontService,sans-serif" font-weight="400" font-size="13" transform="matrix(1.17771 0 0 1.17233 473.409 247)"> </text><text fill="#7F7F7F" font-family="Times New Roman,Times New Roman_MSFontService,sans-serif" font-weight="400" font-size="13" transform="matrix(1.17771 0 0 1.17233 476.942 247)">UL grant transmitted </text><path d="M0 683.701 33.763 683.701 33.763 717.464-8.94415e-07 717.464Z" stroke="#3333B3" stroke-width="1.17233" stroke-linecap="square" stroke-miterlimit="3" fill="#FFFFFF" fill-rule="evenodd" transform="matrix(1.00459 0 0 1 529.868 -268.78)"/><text fill="#3333B3" font-family="Times New Roman,Times New Roman_MSFontService,sans-serif" font-weight="400" font-size="14" transform="matrix(1.17771 0 0 1.17233 538.584 437)">13</text><path d="M0 696.362 160.374 696.362 160.374 717.464 3.57766e-06 717.464Z" fill="#FFFFFF" fill-rule="evenodd" transform="matrix(1.00459 0 0 1 262.764 -460.808)"/><text font-family="Cambria Math,Cambria Math_MSFontService,sans-serif" font-weight="400" font-size="13" transform="matrix(1.17771 0 0 1.17233 295.01 247)">①</text><text font-family="Times New Roman,Times New Roman_MSFontService,sans-serif" font-weight="400" font-size="13" transform="matrix(1.17771 0 0 1.17233 313.853 247)"> </text><text fill="#7F7F7F" font-family="Times New Roman,Times New Roman_MSFontService,sans-serif" font-weight="400" font-size="13" transform="matrix(1.17771 0 0 1.17233 317.386 247)">SR received </text><path d="M10.5509 717.464 10.5509 740.676" stroke="#7F7F7F" stroke-width="1.17233" stroke-linecap="round" stroke-linejoin="round" stroke-miterlimit="3" stroke-dasharray="1.17233 2.34465" fill="none" fill-rule="evenodd" transform="matrix(1.00459 0 0 1 332.72 -460.808)"/><path d="M5.27212-2.7445C4.11314-1.08927 2.24405-0.0744454 0.224625-0.00392146L0.224613 0.00392008C2.24404 0.0744385 4.11311 1.08926 5.27212 2.74449" stroke="#7F7F7F" stroke-width="1.17233" stroke-linecap="round" stroke-linejoin="round" stroke-miterlimit="3" fill="none" fill-rule="evenodd" transform="matrix(-6.15134e-17 -1 1.00459 -6.12323e-17 343.319 279.869)"/><path d="M0 717.464 0 725.377-87.7838 725.377-87.7838 740.676" stroke="#7F7F7F" stroke-width="1.17233" stroke-linecap="round" stroke-linejoin="round" stroke-miterlimit="3" stroke-dasharray="1.17233 2.34465" fill="none" fill-rule="evenodd" transform="matrix(1.00459 0 0 1 702.85 -460.808)"/><path d="M5.27212-2.7445C4.11314-1.08927 2.24405-0.0744454 0.224625-0.00392146L0.224613 0.00392008C2.24404 0.0744385 4.11311 1.08926 5.27212 2.74449" stroke="#7F7F7F" stroke-width="1.17233" stroke-linecap="round" stroke-linejoin="round" stroke-miterlimit="3" fill="none" fill-rule="evenodd" transform="matrix(-6.15134e-17 -1 1.00459 -6.12323e-17 614.664 279.869)"/><path d="M0 717.464 0 709.551-50.6445 709.551-50.6445 694.252" stroke="#7F7F7F" stroke-width="1.17233" stroke-linecap="round" stroke-linejoin="round" stroke-miterlimit="3" stroke-dasharray="1.17233 2.34465" fill="none" fill-rule="evenodd" transform="matrix(1.00459 0 0 1 580.745 -437.596)"/><path d="M5.27212-2.7445C4.11314-1.08927 2.24405-0.0744454 0.224625-0.00392146L0.224613 0.00392008C2.24404 0.0744385 4.11311 1.08926 5.27212 2.74449" stroke="#7F7F7F" stroke-width="1.17233" stroke-linecap="round" stroke-linejoin="round" stroke-miterlimit="3" fill="none" fill-rule="evenodd" transform="matrix(-6.15134e-17 1 -1.00459 -6.12323e-17 529.868 256.656)"/><path d="M0 696.362 156.154 696.362 156.154 717.464-3.57766e-06 717.464Z" fill="#FFFFFF" fill-rule="evenodd" transform="matrix(1.00459 0 0 1 298.802 -232.907)"/><text font-family="Cambria Math,Cambria Math_MSFontService,sans-serif" font-weight="400" font-size="13" transform="matrix(1.17771 0 0 1.17233 329.352 482)">②</text><text fill="#3333B3" font-family="Times New Roman,Times New Roman_MSFontService,sans-serif" font-weight="400" font-size="13" transform="matrix(1.17771 0 0 1.17233 348.195 482)"> </text><text fill="#3333B3" font-family="Times New Roman,Times New Roman_MSFontService,sans-serif" font-weight="400" font-size="13" transform="matrix(1.17771 0 0 1.17233 351.728 482)">SR decoded</text><path d="M10.5509 720.629 10.5509 735.401" stroke="#3333B3" stroke-width="1.17233" stroke-linecap="round" stroke-linejoin="round" stroke-miterlimit="3" fill="none" fill-rule="evenodd" transform="matrix(1.00459 0 0 1 366.638 -271.946)"/><path d="M5.27212-2.7445C4.11314-1.08927 2.24405-0.0744454 0.224625-0.00392146L0.224613 0.00392008C2.24404 0.0744385 4.11311 1.08926 5.27212 2.74449" stroke="#3333B3" stroke-width="1.17233" stroke-linecap="round" stroke-linejoin="round" stroke-miterlimit="3" fill="none" fill-rule="evenodd" transform="matrix(-6.15134e-17 -1 1.00459 -6.12323e-17 377.237 463.455)"/><path d="M0 703.959 42.2038 703.959 42.2038 717.464 0 717.464Z" fill="#FFFFFF" fill-rule="evenodd" transform="matrix(1.00459 0 0 1 423.875 -312.672)"/><text font-family="Times New Roman,Times New Roman_MSFontService,sans-serif" font-style="italic" font-weight="700" font-size="9" transform="matrix(1.17771 0 0 1.17233 432.036 401)">M</text><text font-family="Times New Roman,Times New Roman_MSFontService,sans-serif" font-weight="700" font-size="9" transform="matrix(1.17771 0 0 1.17233 441.458 401)"> </text><text font-family="Times New Roman,Times New Roman_MSFontService,sans-serif" font-weight="700" font-size="9" transform="matrix(1.17771 0 0 1.17233 443.813 401)">= </text><text font-family="Times New Roman,Times New Roman_MSFontService,sans-serif" font-weight="700" font-size="9" transform="matrix(1.17771 0 0 1.17233 452.057 401)">1</text><path d="M0 717.464 25.3223 717.464" stroke="#000000" stroke-width="0.879245" stroke-linecap="round" stroke-linejoin="round" stroke-miterlimit="3" stroke-dasharray="0.879245 1.75849" fill="none" fill-rule="evenodd" transform="matrix(6.15134e-17 1 -1.00459 6.12323e-17 1148.87 385.378)"/><path d="M0 717.464 25.3223 717.464" stroke="#000000" stroke-width="0.879245" stroke-linecap="round" stroke-linejoin="round" stroke-miterlimit="3" stroke-dasharray="0.879245 1.75849" fill="none" fill-rule="evenodd" transform="matrix(6.15134e-17 1 -1.00459 6.12323e-17 1182.79 385.378)"/><path d="M0 703.959 37.1393 703.959 37.1393 717.464 3.57766e-07 717.464Z" fill="#FFFFFF" fill-rule="evenodd" transform="matrix(1.00459 0 0 1 562.091 -380.198)"/><text font-family="Times New Roman,Times New Roman_MSFontService,sans-serif" font-style="italic" font-weight="700" font-size="9" transform="matrix(1.17771 0 0 1.17233 567.167 334)">K</text><text font-family="Times New Roman,Times New Roman_MSFontService,sans-serif" font-weight="700" font-size="6" transform="matrix(1.17771 0 0 1.17233 574.233 332)">2</text><text font-family="Times New Roman,Times New Roman_MSFontService,sans-serif" font-weight="700" font-size="9" transform="matrix(1.17771 0 0 1.17233 577.766 334)"> </text><text font-family="Times New Roman,Times New Roman_MSFontService,sans-serif" font-weight="700" font-size="9" transform="matrix(1.17771 0 0 1.17233 580.121 334)">= </text><text font-family="Times New Roman,Times New Roman_MSFontService,sans-serif" font-weight="700" font-size="9" transform="matrix(1.17771 0 0 1.17233 588.365 334)">1</text><path d="M0 717.464 25.3223 717.464" stroke="#000000" stroke-width="0.879245" stroke-linecap="round" stroke-linejoin="round" stroke-miterlimit="3" stroke-dasharray="0.879245 1.75849" fill="none" fill-rule="evenodd" transform="matrix(6.15134e-17 1 -1.00459 6.12323e-17 1182.79 317.852)"/><path d="M0 717.464 25.3223 717.464" stroke="#000000" stroke-width="0.879245" stroke-linecap="round" stroke-linejoin="round" stroke-miterlimit="3" stroke-dasharray="0.879245 1.75849" fill="none" fill-rule="evenodd" transform="matrix(6.15134e-17 1 -1.00459 6.12323e-17 1284.54 317.852)"/><path d="M0 717.464 25.3223 717.464" stroke="#000000" stroke-width="0.879245" stroke-linecap="round" stroke-linejoin="round" stroke-miterlimit="3" stroke-dasharray="0.879245 1.75849" fill="none" fill-rule="evenodd" transform="matrix(6.15134e-17 1 -1.00459 6.12323e-17 1318.46 317.852)"/><path d="M0 717.464 92.8483 717.464" stroke="#000000" stroke-width="0.586164" stroke-linecap="round" stroke-linejoin="round" stroke-miterlimit="3" fill="none" fill-rule="evenodd" transform="matrix(1.00459 0 0 1 466.272 -386.951)"/><path d="M4.19177-2.1821C3.27028-0.866061 1.78421-0.0591902 0.178595-0.00311788L0.178586 0.00311679C1.7842 0.0591847 3.27026 0.866054 4.19177 2.1821" stroke="#000000" stroke-width="0.586163" stroke-linecap="round" stroke-linejoin="round" stroke-miterlimit="3" fill="none" fill-rule="evenodd" transform="matrix(1.00459 0 0 1 466.272 330.513)"/><path d="M4.19177-2.1821C3.27028-0.866061 1.78421-0.0591902 0.178595-0.00311788L0.178586 0.00311679C1.7842 0.0591847 3.27026 0.866054 4.19177 2.1821" stroke="#000000" stroke-width="0.586163" stroke-linecap="round" stroke-linejoin="round" stroke-miterlimit="3" fill="none" fill-rule="evenodd" transform="matrix(-1.00459 0 0 -1 559.547 330.513)"/><path d="M0 703.959 35.4512 703.959 35.4512 717.464-2.68324e-07 717.464Z" fill="#FFFFFF" fill-rule="evenodd" transform="matrix(1.00459 0 0 1 495.103 -380.198)"/><text font-family="Times New Roman,Times New Roman_MSFontService,sans-serif" font-style="italic" font-weight="700" font-size="9" transform="matrix(1.17771 0 0 1.17233 500.473 334)">H</text><text font-family="Times New Roman,Times New Roman_MSFontService,sans-serif" font-weight="700" font-size="9" transform="matrix(1.17771 0 0 1.17233 508.717 334)"> </text><text font-family="Times New Roman,Times New Roman_MSFontService,sans-serif" font-weight="700" font-size="9" transform="matrix(1.17771 0 0 1.17233 511.072 334)">= </text><text font-family="Times New Roman,Times New Roman_MSFontService,sans-serif" font-weight="700" font-size="9" transform="matrix(1.17771 0 0 1.17233 519.316 334)">3</text><path d="M10.5509 717.464 10.5509 765.999" stroke="#3333B3" stroke-width="1.17233" stroke-linecap="round" stroke-linejoin="round" stroke-miterlimit="3" fill="none" fill-rule="evenodd" transform="matrix(1.00459 0 0 1 434.474 -268.78)"/><path d="M5.27212-2.7445C4.11314-1.08927 2.24405-0.0744454 0.224625-0.00392146L0.224613 0.00392008C2.24404 0.0744385 4.11311 1.08926 5.27212 2.74449" stroke="#3333B3" stroke-width="1.17233" stroke-linecap="round" stroke-linejoin="round" stroke-miterlimit="3" fill="none" fill-rule="evenodd" transform="matrix(-6.15134e-17 -1 1.00459 -6.12323e-17 445.073 497.218)"/></g></svg>