<svg width="556" height="289" xmlns="http://www.w3.org/2000/svg" xmlns:xlink="http://www.w3.org/1999/xlink" xml:space="preserve" overflow="hidden"><defs><clipPath id="clip0"><rect x="212" y="232" width="556" height="289"/></clipPath></defs><g clip-path="url(#clip0)" transform="translate(-212 -232)"><path d="M0 706.463 35.5773 706.463 35.5773 720.016-2.69279e-07 720.016Z" fill="#FFFFFF" fill-rule="evenodd" transform="matrix(1.00069 0 0 1 529.269 -382.487)"/><text font-family="Times New Roman,Times New Roman_MSFontService,sans-serif" font-style="italic" font-weight="700" font-size="9" transform="matrix(1.17731 0 0 1.1765 534.637 334)">H</text><text font-family="Times New Roman,Times New Roman_MSFontService,sans-serif" font-weight="700" font-size="9" transform="matrix(1.17731 0 0 1.1765 542.878 334)"> </text><text font-family="Times New Roman,Times New Roman_MSFontService,sans-serif" font-weight="700" font-size="9" transform="matrix(1.17731 0 0 1.1765 545.233 334)">= </text><text font-family="Times New Roman,Times New Roman_MSFontService,sans-serif" font-weight="700" font-size="9" transform="matrix(1.17731 0 0 1.1765 553.474 334)">1</text><path d="M0 688.251 31.7654 688.251 31.7654 720.016 0 720.016Z" fill="#FFFFFF" fill-rule="evenodd" transform="matrix(1.00069 0 0 1 665.743 -270.884)"/><text fill="#3333B3" font-family="Times New Roman,Times New Roman_MSFontService,sans-serif" font-weight="400" font-size="14" transform="matrix(1.17731 0 0 1.1765 673.407 438)">···</text><path d="M0 688.251 31.7654 688.251 31.7654 720.016 0 720.016Z" fill="#FFFFFF" fill-rule="evenodd" transform="matrix(1.00069 0 0 1 665.743 -406.417)"/><text fill="#7F7F7F" font-family="Times New Roman,Times New Roman_MSFontService,sans-serif" font-weight="400" font-size="14" transform="matrix(1.17731 0 0 1.1765 673.407 303)">···</text><path d="M0 688.251 31.7654 688.251 31.7654 720.016 0 720.016Z" fill="#FFFFFF" fill-rule="evenodd" transform="matrix(1.00069 0 0 1 665.743 -338.65)"/><text fill="#6AA84F" font-family="Times New Roman,Times New Roman_MSFontService,sans-serif" font-weight="400" font-size="14" transform="matrix(1.17731 0 0 1.1765 673.407 370)">···</text><path d="M0 688.251 31.7654 688.251 31.7654 720.016 0 720.016Z" fill="#FFFFFF" fill-rule="evenodd" transform="matrix(1.00069 0 0 1 294.889 -270.884)"/><text fill="#3333B3" font-family="Times New Roman,Times New Roman_MSFontService,sans-serif" font-weight="400" font-size="14" transform="matrix(1.17731 0 0 1.1765 302.553 438)">···</text><path d="M0 688.251 31.7654 688.251 31.7654 720.016 0 720.016Z" fill="#FFFFFF" fill-rule="evenodd" transform="matrix(1.00069 0 0 1 295.104 -406.417)"/><text fill="#7F7F7F" font-family="Times New Roman,Times New Roman_MSFontService,sans-serif" font-weight="400" font-size="14" transform="matrix(1.17731 0 0 1.1765 302.769 303)">···</text><path d="M0 688.251 31.7654 688.251 31.7654 720.016 0 720.016Z" fill="#FFFFFF" fill-rule="evenodd" transform="matrix(1.00069 0 0 1 294.889 -338.65)"/><text fill="#6AA84F" font-family="Times New Roman,Times New Roman_MSFontService,sans-serif" font-weight="400" font-size="14" transform="matrix(1.17731 0 0 1.1765 302.553 370)">···</text><path d="M0 698.839 152.474 698.839 152.474 720.016 7.18077e-06 720.016Z" fill="#FFFFFF" fill-rule="evenodd" transform="matrix(1.00069 0 0 1 626.75 -463.383)"/><text font-family="Cambria Math,Cambria Math_MSFontService,sans-serif" font-weight="400" font-size="13" transform="matrix(1.17731 0 0 1.1765 639.253 247)">⑥</text><text font-family="Times New Roman,Times New Roman_MSFontService,sans-serif" font-weight="400" font-size="13" transform="matrix(1.17731 0 0 1.1765 658.09 247)"> </text><text fill="#7F7F7F" font-family="Times New Roman,Times New Roman_MSFontService,sans-serif" font-weight="400" font-size="13" transform="matrix(1.17731 0 0 1.1765 661.622 247)">UL data received</text><text fill="#7F7F7F" font-family="Times New Roman,Times New Roman_MSFontService,sans-serif" font-weight="700" font-size="12" transform="matrix(1.17731 0 0 1.1765 218.717 293)">Radio Head </text><text fill="#7F7F7F" font-family="Times New Roman,Times New Roman_MSFontService,sans-serif" font-weight="700" font-size="12" transform="matrix(1.17731 0 0 1.1765 226.958 310)">(</text><text fill="#7F7F7F" font-family="Times New Roman,Times New Roman_MSFontService,sans-serif" font-weight="700" font-size="12" transform="matrix(1.17731 0 0 1.1765 231.667 310)">RH slot</text><text fill="#7F7F7F" font-family="Times New Roman,Times New Roman_MSFontService,sans-serif" font-weight="700" font-size="12" transform="matrix(1.17731 0 0 1.1765 277.582 310)">)</text><text fill="#6AA84F" font-family="Times New Roman,Times New Roman_MSFontService,sans-serif" font-weight="700" font-size="12" transform="matrix(1.17731 0 0 1.1765 213.631 360)">DL Processor </text><text fill="#6AA84F" font-family="Times New Roman,Times New Roman_MSFontService,sans-serif" font-weight="700" font-size="12" transform="matrix(1.17731 0 0 1.1765 228.147 377)">(</text><text fill="#6AA84F" font-family="Times New Roman,Times New Roman_MSFontService,sans-serif" font-weight="700" font-size="12" transform="matrix(1.17731 0 0 1.1765 232.856 377)">DP slot</text><text fill="#6AA84F" font-family="Times New Roman,Times New Roman_MSFontService,sans-serif" font-weight="700" font-size="12" transform="matrix(1.17731 0 0 1.1765 276.417 377)">)</text><text fill="#3333B3" font-family="Times New Roman,Times New Roman_MSFontService,sans-serif" font-weight="700" font-size="12" transform="matrix(1.17731 0 0 1.1765 213.242 428)">DU Processor </text><text fill="#3333B3" font-family="Times New Roman,Times New Roman_MSFontService,sans-serif" font-weight="700" font-size="12" transform="matrix(1.17731 0 0 1.1765 227.358 445)">(</text><text fill="#3333B3" font-family="Times New Roman,Times New Roman_MSFontService,sans-serif" font-weight="700" font-size="12" transform="matrix(1.17731 0 0 1.1765 232.068 445)">DU slot</text><text fill="#3333B3" font-family="Times New Roman,Times New Roman_MSFontService,sans-serif" font-weight="700" font-size="12" transform="matrix(1.17731 0 0 1.1765 277.983 445)">)</text><path d="M0 698.839 338.831 698.839 338.831 720.016 0 720.016Z" fill="#FFFFFF" fill-rule="evenodd" transform="matrix(1.00069 0 0 1 275.816 -200.788)"/><text font-family="Cambria Math,Cambria Math_MSFontService,sans-serif" font-weight="400" font-size="13" transform="matrix(1.17731 0 0 1.1765 373.898 517)">③</text><text fill="#3333B3" font-family="Times New Roman,Times New Roman_MSFontService,sans-serif" font-weight="400" font-size="13" transform="matrix(1.17731 0 0 1.1765 392.736 517)"> </text><text fill="#3333B3" font-family="Times New Roman,Times New Roman_MSFontService,sans-serif" font-weight="400" font-size="13" transform="matrix(1.17731 0 0 1.1765 396.267 517)">UL grant scheduled</text><path d="M0 698.839 148.239 698.839 148.239 720.016 0 720.016Z" fill="#FFFFFF" fill-rule="evenodd" transform="matrix(1.00069 0 0 1 625.479 -200.788)"/><text font-family="Cambria Math,Cambria Math_MSFontService,sans-serif" font-weight="400" font-size="13" transform="matrix(1.17731 0 0 1.1765 636.275 517)">⑦</text><text font-family="Times New Roman,Times New Roman_MSFontService,sans-serif" font-weight="400" font-size="13" transform="matrix(1.17731 0 0 1.1765 655.112 517)"> </text><text fill="#3333B3" font-family="Times New Roman,Times New Roman_MSFontService,sans-serif" font-weight="400" font-size="13" transform="matrix(1.17731 0 0 1.1765 658.643 517)">UL data decoded</text><path d="M0 686.133 33.8831 686.133 33.8831 720.016-8.97596e-07 720.016Z" stroke="#7F7F7F" stroke-width="1.1765" stroke-linecap="square" stroke-miterlimit="3" fill="#D8D8D8" fill-rule="evenodd" transform="matrix(1.00069 0 0 1 326.676 -406.205)"/><text fill="#7F7F7F" font-family="Times New Roman,Times New Roman_MSFontService,sans-serif" font-weight="400" font-size="14" transform="matrix(1.17731 0 0 1.1765 339.509 302)">3</text><path d="M0 686.133 33.8831 686.133 33.8831 720.016-8.97596e-07 720.016Z" stroke="#7F7F7F" stroke-width="1.1765" stroke-linecap="square" stroke-miterlimit="3" fill="#FFFFFF" fill-rule="evenodd" transform="matrix(1.00069 0 0 1 360.583 -406.205)"/><text fill="#7F7F7F" font-family="Times New Roman,Times New Roman_MSFontService,sans-serif" font-weight="400" font-size="14" transform="matrix(1.17731 0 0 1.1765 373.416 302)">4</text><path d="M0 686.133 33.8831 686.133 33.8831 720.016-8.97596e-07 720.016Z" stroke="#7F7F7F" stroke-width="1.1765" stroke-linecap="square" stroke-miterlimit="3" fill="#FFFFFF" fill-rule="evenodd" transform="matrix(1.00069 0 0 1 394.49 -406.205)"/><text fill="#7F7F7F" font-family="Times New Roman,Times New Roman_MSFontService,sans-serif" font-weight="400" font-size="14" transform="matrix(1.17731 0 0 1.1765 407.322 302)">5</text><path d="M0 686.133 33.8831 686.133 33.8831 720.016-8.97596e-07 720.016Z" stroke="#7F7F7F" stroke-width="1.1765" stroke-linecap="square" stroke-miterlimit="3" fill="#FFFFFF" fill-rule="evenodd" transform="matrix(1.00069 0 0 1 428.396 -406.205)"/><text fill="#7F7F7F" font-family="Times New Roman,Times New Roman_MSFontService,sans-serif" font-weight="400" font-size="14" transform="matrix(1.17731 0 0 1.1765 441.229 302)">6</text><path d="M0 686.133 33.8831 686.133 33.8831 720.016-8.97596e-07 720.016Z" stroke="#7F7F7F" stroke-width="1.1765" stroke-linecap="square" stroke-miterlimit="3" fill="#D8D8D8" fill-rule="evenodd" transform="matrix(1.00069 0 0 1 462.303 -406.205)"/><text fill="#7F7F7F" font-family="Times New Roman,Times New Roman_MSFontService,sans-serif" font-weight="400" font-size="14" transform="matrix(1.17731 0 0 1.1765 475.136 302)">7</text><path d="M0 686.133 33.8831 686.133 33.8831 720.016-8.97596e-07 720.016Z" stroke="#7F7F7F" stroke-width="1.1765" stroke-linecap="square" stroke-miterlimit="3" fill="#FFFFFF" fill-rule="evenodd" transform="matrix(1.00069 0 0 1 496.21 -406.205)"/><text fill="#7F7F7F" font-family="Times New Roman,Times New Roman_MSFontService,sans-serif" font-weight="400" font-size="14" transform="matrix(1.17731 0 0 1.1765 509.042 302)">8</text><path d="M0 686.133 33.8831 686.133 33.8831 720.016-8.97596e-07 720.016Z" stroke="#7F7F7F" stroke-width="1.1765" stroke-linecap="square" stroke-miterlimit="3" fill="#FFFFFF" fill-rule="evenodd" transform="matrix(1.00069 0 0 1 530.116 -406.205)"/><text fill="#7F7F7F" font-family="Times New Roman,Times New Roman_MSFontService,sans-serif" font-weight="400" font-size="14" transform="matrix(1.17731 0 0 1.1765 542.949 302)">9</text><path d="M0 686.133 33.8831 686.133 33.8831 720.016-8.97596e-07 720.016Z" stroke="#7F7F7F" stroke-width="1.1765" stroke-linecap="square" stroke-miterlimit="3" fill="#FFFFFF" fill-rule="evenodd" transform="matrix(1.00069 0 0 1 564.023 -406.205)"/><text fill="#7F7F7F" font-family="Times New Roman,Times New Roman_MSFontService,sans-serif" font-weight="400" font-size="14" transform="matrix(1.17731 0 0 1.1765 572.735 302)">10</text><path d="M0 686.133 33.8831 686.133 33.8831 720.016-8.97596e-07 720.016Z" stroke="#7F7F7F" stroke-width="1.1765" stroke-linecap="square" stroke-miterlimit="3" fill="#D8D8D8" fill-rule="evenodd" transform="matrix(1.00069 0 0 1 597.929 -406.205)"/><text fill="#7F7F7F" font-family="Times New Roman,Times New Roman_MSFontService,sans-serif" font-weight="400" font-size="14" transform="matrix(1.17731 0 0 1.1765 606.642 302)">11</text><path d="M0 686.133 33.8831 686.133 33.8831 720.016-8.97596e-07 720.016Z" stroke="#7F7F7F" stroke-width="1.1765" stroke-linecap="square" stroke-miterlimit="3" fill="#FFFFFF" fill-rule="evenodd" transform="matrix(1.00069 0 0 1 631.836 -406.205)"/><text fill="#7F7F7F" font-family="Times New Roman,Times New Roman_MSFontService,sans-serif" font-weight="400" font-size="14" transform="matrix(1.17731 0 0 1.1765 640.548 302)">12</text><path d="M0 686.133 33.8831 686.133 33.8831 720.016-8.97596e-07 720.016Z" stroke="#6AA84F" stroke-width="1.1765" stroke-linecap="square" stroke-miterlimit="3" fill="#FFFFFF" fill-rule="evenodd" transform="matrix(1.00069 0 0 1 326.676 -338.439)"/><text fill="#6AA84F" font-family="Times New Roman,Times New Roman_MSFontService,sans-serif" font-weight="400" font-size="14" transform="matrix(1.17731 0 0 1.1765 339.509 370)">4</text><path d="M0 686.133 33.8831 686.133 33.8831 720.016-8.97596e-07 720.016Z" stroke="#6AA84F" stroke-width="1.1765" stroke-linecap="square" stroke-miterlimit="3" fill="#FFFFFF" fill-rule="evenodd" transform="matrix(1.00069 0 0 1 360.583 -338.439)"/><text fill="#6AA84F" font-family="Times New Roman,Times New Roman_MSFontService,sans-serif" font-weight="400" font-size="14" transform="matrix(1.17731 0 0 1.1765 373.416 370)">5</text><path d="M0 686.133 33.8831 686.133 33.8831 720.016-8.97596e-07 720.016Z" stroke="#6AA84F" stroke-width="1.1765" stroke-linecap="square" stroke-miterlimit="3" fill="#FFFFFF" fill-rule="evenodd" transform="matrix(1.00069 0 0 1 394.49 -338.439)"/><text fill="#6AA84F" font-family="Times New Roman,Times New Roman_MSFontService,sans-serif" font-weight="400" font-size="14" transform="matrix(1.17731 0 0 1.1765 407.322 370)">6</text><path d="M0 686.133 33.8831 686.133 33.8831 720.016-8.97596e-07 720.016Z" stroke="#6AA84F" stroke-width="1.1765" stroke-linecap="square" stroke-miterlimit="3" fill="#D9EAD3" fill-rule="evenodd" transform="matrix(1.00069 0 0 1 428.396 -338.439)"/><text fill="#6AA84F" font-family="Times New Roman,Times New Roman_MSFontService,sans-serif" font-weight="400" font-size="14" transform="matrix(1.17731 0 0 1.1765 441.229 370)">7</text><path d="M0 686.133 33.8831 686.133 33.8831 720.016-8.97596e-07 720.016Z" stroke="#6AA84F" stroke-width="1.1765" stroke-linecap="square" stroke-miterlimit="3" fill="#FFFFFF" fill-rule="evenodd" transform="matrix(1.00069 0 0 1 462.303 -338.439)"/><text fill="#6AA84F" font-family="Times New Roman,Times New Roman_MSFontService,sans-serif" font-weight="400" font-size="14" transform="matrix(1.17731 0 0 1.1765 475.136 370)">8</text><path d="M0 686.133 33.8831 686.133 33.8831 720.016-8.97596e-07 720.016Z" stroke="#6AA84F" stroke-width="1.1765" stroke-linecap="square" stroke-miterlimit="3" fill="#FFFFFF" fill-rule="evenodd" transform="matrix(1.00069 0 0 1 496.21 -338.439)"/><text fill="#6AA84F" font-family="Times New Roman,Times New Roman_MSFontService,sans-serif" font-weight="400" font-size="14" transform="matrix(1.17731 0 0 1.1765 509.042 370)">9</text><path d="M0 686.133 33.8831 686.133 33.8831 720.016-8.97596e-07 720.016Z" stroke="#6AA84F" stroke-width="1.1765" stroke-linecap="square" stroke-miterlimit="3" fill="#FFFFFF" fill-rule="evenodd" transform="matrix(1.00069 0 0 1 530.116 -338.439)"/><text fill="#6AA84F" font-family="Times New Roman,Times New Roman_MSFontService,sans-serif" font-weight="400" font-size="14" transform="matrix(1.17731 0 0 1.1765 538.828 370)">10</text><path d="M0 686.133 33.8831 686.133 33.8831 720.016-8.97596e-07 720.016Z" stroke="#6AA84F" stroke-width="1.1765" stroke-linecap="square" stroke-miterlimit="3" fill="#D9EAD3" fill-rule="evenodd" transform="matrix(1.00069 0 0 1 564.023 -338.439)"/><text fill="#6AA84F" font-family="Times New Roman,Times New Roman_MSFontService,sans-serif" font-weight="400" font-size="14" transform="matrix(1.17731 0 0 1.1765 572.735 370)">11</text><path d="M0 686.133 33.8831 686.133 33.8831 720.016-8.97596e-07 720.016Z" stroke="#6AA84F" stroke-width="1.1765" stroke-linecap="square" stroke-miterlimit="3" fill="#FFFFFF" fill-rule="evenodd" transform="matrix(1.00069 0 0 1 597.929 -338.439)"/><text fill="#6AA84F" font-family="Times New Roman,Times New Roman_MSFontService,sans-serif" font-weight="400" font-size="14" transform="matrix(1.17731 0 0 1.1765 606.642 370)">12</text><path d="M0 686.133 33.8831 686.133 33.8831 720.016-8.97596e-07 720.016Z" stroke="#6AA84F" stroke-width="1.1765" stroke-linecap="square" stroke-miterlimit="3" fill="#FFFFFF" fill-rule="evenodd" transform="matrix(1.00069 0 0 1 631.836 -338.439)"/><text fill="#6AA84F" font-family="Times New Roman,Times New Roman_MSFontService,sans-serif" font-weight="400" font-size="14" transform="matrix(1.17731 0 0 1.1765 640.548 370)">13</text><path d="M0 686.133 33.8831 686.133 33.8831 720.016-8.97596e-07 720.016Z" stroke="#3333B3" stroke-width="1.1765" stroke-linecap="square" stroke-miterlimit="3" fill="#FFFFFF" fill-rule="evenodd" transform="matrix(1.00069 0 0 1 326.676 -270.672)"/><text fill="#3333B3" font-family="Times New Roman,Times New Roman_MSFontService,sans-serif" font-weight="400" font-size="14" transform="matrix(1.17731 0 0 1.1765 339.509 437)">5</text><path d="M0 686.133 33.8831 686.133 33.8831 720.016-8.97596e-07 720.016Z" stroke="#3333B3" stroke-width="1.1765" stroke-linecap="square" stroke-miterlimit="3" fill="none" fill-rule="evenodd" transform="matrix(1.00069 0 0 1 360.583 -270.672)"/><text fill="#3333B3" font-family="Times New Roman,Times New Roman_MSFontService,sans-serif" font-weight="400" font-size="14" transform="matrix(1.17731 0 0 1.1765 373.416 437)">6</text><path d="M0 686.133 33.8831 686.133 33.8831 720.016-8.97596e-07 720.016Z" stroke="#3333B3" stroke-width="1.1765" stroke-linecap="square" stroke-miterlimit="3" fill="#ADC0E4" fill-rule="evenodd" transform="matrix(1.00069 0 0 1 394.49 -270.672)"/><text fill="#3333B3" font-family="Times New Roman,Times New Roman_MSFontService,sans-serif" font-weight="400" font-size="14" transform="matrix(1.17731 0 0 1.1765 407.322 437)">7</text><path d="M0 686.133 33.8831 686.133 33.8831 720.016-8.97596e-07 720.016Z" stroke="#3333B3" stroke-width="1.1765" stroke-linecap="square" stroke-miterlimit="3" fill="none" fill-rule="evenodd" transform="matrix(1.00069 0 0 1 428.396 -270.672)"/><text fill="#3333B3" font-family="Times New Roman,Times New Roman_MSFontService,sans-serif" font-weight="400" font-size="14" transform="matrix(1.17731 0 0 1.1765 441.229 437)">8</text><path d="M0 686.133 33.8831 686.133 33.8831 720.016-8.97596e-07 720.016Z" stroke="#3333B3" stroke-width="1.1765" stroke-linecap="square" stroke-miterlimit="3" fill="#FFFFFF" fill-rule="evenodd" transform="matrix(1.00069 0 0 1 462.303 -270.672)"/><text fill="#3333B3" font-family="Times New Roman,Times New Roman_MSFontService,sans-serif" font-weight="400" font-size="14" transform="matrix(1.17731 0 0 1.1765 475.136 437)">9</text><path d="M0 686.133 33.8831 686.133 33.8831 720.016-8.97596e-07 720.016Z" stroke="#3333B3" stroke-width="1.1765" stroke-linecap="square" stroke-miterlimit="3" fill="#FFFFFF" fill-rule="evenodd" transform="matrix(1.00069 0 0 1 496.21 -270.672)"/><text fill="#3333B3" font-family="Times New Roman,Times New Roman_MSFontService,sans-serif" font-weight="400" font-size="14" transform="matrix(1.17731 0 0 1.1765 504.922 437)">10</text><path d="M0 686.133 33.8831 686.133 33.8831 720.016-8.97596e-07 720.016Z" stroke="#3333B3" stroke-width="1.1765" stroke-linecap="square" stroke-miterlimit="3" fill="none" fill-rule="evenodd" transform="matrix(1.00069 0 0 1 564.023 -270.672)"/><text fill="#3333B3" font-family="Times New Roman,Times New Roman_MSFontService,sans-serif" font-weight="400" font-size="14" transform="matrix(1.17731 0 0 1.1765 572.735 437)">12</text><path d="M0 686.133 33.8831 686.133 33.8831 720.016-8.97596e-07 720.016Z" stroke="#3333B3" stroke-width="1.1765" stroke-linecap="square" stroke-miterlimit="3" fill="#FFFFFF" fill-rule="evenodd" transform="matrix(1.00069 0 0 1 597.929 -270.672)"/><text fill="#3333B3" font-family="Times New Roman,Times New Roman_MSFontService,sans-serif" font-weight="400" font-size="14" transform="matrix(1.17731 0 0 1.1765 606.642 437)">13</text><path d="M0 686.133 33.8831 686.133 33.8831 720.016-8.97596e-07 720.016Z" stroke="#3333B3" stroke-width="1.1765" stroke-linecap="square" stroke-miterlimit="3" fill="none" fill-rule="evenodd" transform="matrix(1.00069 0 0 1 631.836 -270.672)"/><text fill="#3333B3" font-family="Times New Roman,Times New Roman_MSFontService,sans-serif" font-weight="400" font-size="14" transform="matrix(1.17731 0 0 1.1765 640.548 437)">14</text><path d="M0 698.839 190.592 698.839 190.592 720.016 0 720.016Z" fill="#FFFFFF" fill-rule="evenodd" transform="matrix(1.00069 0 0 1 451.707 -234.672)"/><text font-family="Cambria Math,Cambria Math_MSFontService,sans-serif" font-weight="400" font-size="13" transform="matrix(1.17731 0 0 1.1765 476.042 483)">④</text><text fill="#6AA84F" font-family="Times New Roman,Times New Roman_MSFontService,sans-serif" font-weight="400" font-size="13" transform="matrix(1.17731 0 0 1.1765 494.879 483)"> </text><text fill="#6AA84F" font-family="Times New Roman,Times New Roman_MSFontService,sans-serif" font-weight="400" font-size="13" transform="matrix(1.17731 0 0 1.1765 498.411 483)">UL grant processed</text><path d="M0 720.016 0 744.24 50.8247 744.24 50.8247 768.723" stroke="#3333B3" stroke-width="1.1765" stroke-linecap="round" stroke-linejoin="round" stroke-miterlimit="3" fill="none" fill-rule="evenodd" transform="matrix(1.00069 0 0 1 648.789 -270.672)"/><path d="M5.29087-2.75426C4.12777-1.09315 2.25203-0.0747101 0.225424-0.00393541L0.225412 0.00393403C2.25202 0.0747033 4.12774 1.09314 5.29087 2.75425" stroke="#3333B3" stroke-width="1.1765" stroke-linecap="round" stroke-linejoin="round" stroke-miterlimit="3" fill="none" fill-rule="evenodd" transform="matrix(-6.12748e-17 -1 1.00069 -6.12323e-17 699.649 498.051)"/><path d="M10.5885 720.016 10.5885 802.606" stroke="#6AA84F" stroke-width="1.1765" stroke-linecap="round" stroke-linejoin="round" stroke-miterlimit="3" fill="none" fill-rule="evenodd" transform="matrix(1.00069 0 0 1 536.474 -338.439)"/><path d="M5.29087-2.75426C4.12777-1.09315 2.25203-0.0747101 0.225424-0.00393541L0.225412 0.00393403C2.25202 0.0747033 4.12774 1.09314 5.29087 2.75425" stroke="#6AA84F" stroke-width="1.1765" stroke-linecap="round" stroke-linejoin="round" stroke-miterlimit="3" fill="none" fill-rule="evenodd" transform="matrix(-6.12748e-17 -1 1.00069 -6.12323e-17 547.07 464.167)"/><path d="M0 698.839 203.299 698.839 203.299 720.016 3.59038e-06 720.016Z" fill="#FFFFFF" fill-rule="evenodd" transform="matrix(1.00069 0 0 1 394.49 -463.383)"/><text font-family="Cambria Math,Cambria Math_MSFontService,sans-serif" font-weight="400" font-size="13" transform="matrix(1.17731 0 0 1.1765 420.932 247)">⑤</text><text font-family="Times New Roman,Times New Roman_MSFontService,sans-serif" font-weight="400" font-size="13" transform="matrix(1.17731 0 0 1.1765 439.769 247)"> </text><text fill="#7F7F7F" font-family="Times New Roman,Times New Roman_MSFontService,sans-serif" font-weight="400" font-size="13" transform="matrix(1.17731 0 0 1.1765 443.301 247)">UL grant transmitted </text><path d="M0 686.133 33.8831 686.133 33.8831 720.016-8.97596e-07 720.016Z" stroke="#3333B3" stroke-width="1.1765" stroke-linecap="square" stroke-miterlimit="3" fill="#ADC0E4" fill-rule="evenodd" transform="matrix(1.00069 0 0 1 530.116 -270.672)"/><text fill="#3333B3" font-family="Times New Roman,Times New Roman_MSFontService,sans-serif" font-weight="400" font-size="14" transform="matrix(1.17731 0 0 1.1765 538.828 437)">11</text><path d="M0 698.839 144.003 698.839 144.003 720.016 1.79519e-06 720.016Z" fill="#FFFFFF" fill-rule="evenodd" transform="matrix(1.00069 0 0 1 271.578 -463.383)"/><text font-family="Cambria Math,Cambria Math_MSFontService,sans-serif" font-weight="400" font-size="13" transform="matrix(1.17731 0 0 1.1765 295.336 247)">①</text><text font-family="Times New Roman,Times New Roman_MSFontService,sans-serif" font-weight="400" font-size="13" transform="matrix(1.17731 0 0 1.1765 314.173 247)"> </text><text fill="#7F7F7F" font-family="Times New Roman,Times New Roman_MSFontService,sans-serif" font-weight="400" font-size="13" transform="matrix(1.17731 0 0 1.1765 317.705 247)">SR received </text><path d="M10.5885 720.016 10.5885 743.311" stroke="#7F7F7F" stroke-width="1.1765" stroke-linecap="round" stroke-linejoin="round" stroke-miterlimit="3" stroke-dasharray="1.1765 2.35299" fill="none" fill-rule="evenodd" transform="matrix(1.00069 0 0 1 333.034 -463.383)"/><path d="M5.29087-2.75426C4.12777-1.09315 2.25203-0.0747101 0.225424-0.00393541L0.225412 0.00393403C2.25202 0.0747033 4.12774 1.09314 5.29087 2.75425" stroke="#7F7F7F" stroke-width="1.1765" stroke-linecap="round" stroke-linejoin="round" stroke-miterlimit="3" fill="none" fill-rule="evenodd" transform="matrix(-6.12748e-17 -1 1.00069 -6.12323e-17 343.63 279.928)"/><path d="M0 720.016 0 727.957-88.0961 727.957-88.0961 743.311" stroke="#7F7F7F" stroke-width="1.1765" stroke-linecap="round" stroke-linejoin="round" stroke-miterlimit="3" stroke-dasharray="1.1765 2.35299" fill="none" fill-rule="evenodd" transform="matrix(1.00069 0 0 1 703.04 -463.383)"/><path d="M5.29087-2.75426C4.12777-1.09315 2.25203-0.0747101 0.225424-0.00393541L0.225412 0.00393403C2.25202 0.0747033 4.12774 1.09314 5.29087 2.75425" stroke="#7F7F7F" stroke-width="1.1765" stroke-linecap="round" stroke-linejoin="round" stroke-miterlimit="3" fill="none" fill-rule="evenodd" transform="matrix(-6.12748e-17 -1 1.00069 -6.12323e-17 614.883 279.928)"/><path d="M0 720.016 0 712.075-84.7078 712.075-84.7078 696.721" stroke="#7F7F7F" stroke-width="1.1765" stroke-linecap="round" stroke-linejoin="round" stroke-miterlimit="3" stroke-dasharray="1.1765 2.35299" fill="none" fill-rule="evenodd" transform="matrix(1.00069 0 0 1 580.976 -440.088)"/><path d="M5.29087-2.75426C4.12777-1.09315 2.25203-0.0747101 0.225424-0.00393541L0.225412 0.00393403C2.25202 0.0747033 4.12774 1.09314 5.29087 2.75425" stroke="#7F7F7F" stroke-width="1.1765" stroke-linecap="round" stroke-linejoin="round" stroke-miterlimit="3" fill="none" fill-rule="evenodd" transform="matrix(-6.12748e-17 1 -1.00069 -6.12323e-17 496.21 256.633)"/><path d="M0 698.839 156.709 698.839 156.709 720.016-3.59038e-06 720.016Z" fill="#FFFFFF" fill-rule="evenodd" transform="matrix(1.00069 0 0 1 299.127 -234.672)"/><text font-family="Cambria Math,Cambria Math_MSFontService,sans-serif" font-weight="400" font-size="13" transform="matrix(1.17731 0 0 1.1765 329.667 483)">②</text><text fill="#3333B3" font-family="Times New Roman,Times New Roman_MSFontService,sans-serif" font-weight="400" font-size="13" transform="matrix(1.17731 0 0 1.1765 348.504 483)"> </text><text fill="#3333B3" font-family="Times New Roman,Times New Roman_MSFontService,sans-serif" font-weight="400" font-size="13" transform="matrix(1.17731 0 0 1.1765 352.036 483)">SR decoded</text><path d="M10.5885 723.193 10.5885 738.016" stroke="#3333B3" stroke-width="1.1765" stroke-linecap="round" stroke-linejoin="round" stroke-miterlimit="3" fill="none" fill-rule="evenodd" transform="matrix(1.00069 0 0 1 366.941 -273.849)"/><path d="M5.29087-2.75426C4.12777-1.09315 2.25203-0.0747101 0.225424-0.00393541L0.225412 0.00393403C2.25202 0.0747033 4.12774 1.09314 5.29087 2.75425" stroke="#3333B3" stroke-width="1.1765" stroke-linecap="round" stroke-linejoin="round" stroke-miterlimit="3" fill="none" fill-rule="evenodd" transform="matrix(-6.12748e-17 -1 1.00069 -6.12323e-17 377.536 464.167)"/><path d="M0 706.463 42.3539 706.463 42.3539 720.016 0 720.016Z" fill="#FFFFFF" fill-rule="evenodd" transform="matrix(1.00069 0 0 1 491.971 -314.72)"/><text font-family="Times New Roman,Times New Roman_MSFontService,sans-serif" font-style="italic" font-weight="700" font-size="9" transform="matrix(1.17731 0 0 1.1765 500.13 402)">M</text><text font-family="Times New Roman,Times New Roman_MSFontService,sans-serif" font-weight="700" font-size="9" transform="matrix(1.17731 0 0 1.1765 509.549 402)"> </text><text font-family="Times New Roman,Times New Roman_MSFontService,sans-serif" font-weight="700" font-size="9" transform="matrix(1.17731 0 0 1.1765 511.903 402)">= </text><text font-family="Times New Roman,Times New Roman_MSFontService,sans-serif" font-weight="700" font-size="9" transform="matrix(1.17731 0 0 1.1765 520.144 402)">1</text><path d="M0 720.016 25.4123 720.016" stroke="#000000" stroke-width="0.882373" stroke-linecap="round" stroke-linejoin="round" stroke-miterlimit="3" stroke-dasharray="0.882373 1.76475" fill="none" fill-rule="evenodd" transform="matrix(6.12748e-17 1 -1.00069 6.12323e-17 1216.73 385.813)"/><path d="M0 720.016 25.4123 720.016" stroke="#000000" stroke-width="0.882373" stroke-linecap="round" stroke-linejoin="round" stroke-miterlimit="3" stroke-dasharray="0.882373 1.76475" fill="none" fill-rule="evenodd" transform="matrix(6.12748e-17 1 -1.00069 6.12323e-17 1250.63 385.813)"/><path d="M0 706.463 42.3539 706.463 42.3539 720.016 0 720.016Z" fill="#FFFFFF" fill-rule="evenodd" transform="matrix(1.00069 0 0 1 560.632 -382.487)"/><text font-family="Times New Roman,Times New Roman_MSFontService,sans-serif" font-style="italic" font-weight="700" font-size="9" transform="matrix(1.17731 0 0 1.1765 567.319 334)">K</text><text font-family="Times New Roman,Times New Roman_MSFontService,sans-serif" font-weight="700" font-size="9" transform="matrix(1.17731 0 0 1.1765 574.383 334)">2 </text><text font-family="Times New Roman,Times New Roman_MSFontService,sans-serif" font-weight="700" font-size="9" transform="matrix(1.17731 0 0 1.1765 582.624 334)">= </text><text font-family="Times New Roman,Times New Roman_MSFontService,sans-serif" font-weight="700" font-size="9" transform="matrix(1.17731 0 0 1.1765 590.866 334)">1</text><path d="M0 720.016 25.4123 720.016" stroke="#000000" stroke-width="0.882373" stroke-linecap="round" stroke-linejoin="round" stroke-miterlimit="3" stroke-dasharray="0.882373 1.76475" fill="none" fill-rule="evenodd" transform="matrix(6.12748e-17 1 -1.00069 6.12323e-17 1250.63 318.047)"/><path d="M0 720.016 25.4123 720.016" stroke="#000000" stroke-width="0.882373" stroke-linecap="round" stroke-linejoin="round" stroke-miterlimit="3" stroke-dasharray="0.882373 1.76475" fill="none" fill-rule="evenodd" transform="matrix(6.12748e-17 1 -1.00069 6.12323e-17 1284.54 318.047)"/><path d="M0 720.016 25.4123 720.016" stroke="#000000" stroke-width="0.882373" stroke-linecap="round" stroke-linejoin="round" stroke-miterlimit="3" stroke-dasharray="0.882373 1.76475" fill="none" fill-rule="evenodd" transform="matrix(6.12748e-17 1 -1.00069 6.12323e-17 1318.45 318.047)"/><path d="M0 720.016 0 730.91-67.7662 730.91-67.7662 768.723" stroke="#3333B3" stroke-width="1.1765" stroke-linecap="round" stroke-linejoin="round" stroke-miterlimit="3" fill="none" fill-rule="evenodd" transform="matrix(1.00069 0 0 1 513.163 -270.672)"/><path d="M5.29087-2.75426C4.12777-1.09315 2.25203-0.0747101 0.225424-0.00393541L0.225412 0.00393403C2.25202 0.0747033 4.12774 1.09314 5.29087 2.75425" stroke="#3333B3" stroke-width="1.1765" stroke-linecap="round" stroke-linejoin="round" stroke-miterlimit="3" fill="none" fill-rule="evenodd" transform="matrix(-6.12748e-17 -1 1.00069 -6.12323e-17 445.35 498.051)"/></g></svg>