<svg width="519" height="289" xmlns="http://www.w3.org/2000/svg" xmlns:xlink="http://www.w3.org/1999/xlink" xml:space="preserve" overflow="hidden"><defs><clipPath id="clip0"><rect x="213" y="232" width="519" height="289"/></clipPath></defs><g clip-path="url(#clip0)" transform="translate(-213 -232)"><path d="M0 719.338 25.3884 719.338" stroke="#000000" stroke-width="0.881542" stroke-linecap="round" stroke-linejoin="round" stroke-miterlimit="3" stroke-dasharray="0.881542 1.76308" fill="none" fill-rule="evenodd" transform="matrix(6.12323e-17 1.00067 -1 6.12732e-17 1114 385.108)"/><path d="M0 708.614 42.314 708.614 42.314 719.338 0 719.338Z" fill="#FFFFFF" fill-rule="evenodd" transform="matrix(1 0 0 1.00067 373.504 -316.781)"/><text font-family="Times New Roman,Times New Roman_MSFontService,sans-serif" font-style="italic" font-weight="700" font-size="9" transform="matrix(1.17539 0 0 1.17617 381.649 401)">M</text><text font-family="Times New Roman,Times New Roman_MSFontService,sans-serif" font-weight="700" font-size="9" transform="matrix(1.17539 0 0 1.17617 391.052 401)"> </text><text font-family="Times New Roman,Times New Roman_MSFontService,sans-serif" font-weight="700" font-size="9" transform="matrix(1.17539 0 0 1.17617 393.403 401)">= </text><text font-family="Times New Roman,Times New Roman_MSFontService,sans-serif" font-weight="700" font-size="9" transform="matrix(1.17539 0 0 1.17617 401.631 401)">0</text><path d="M0 687.603 31.7355 687.603 31.7355 719.338 0 719.338Z" fill="#FFFFFF" fill-rule="evenodd" transform="matrix(1 0 0 1.00067 530.33 -271.409)"/><text fill="#3333B3" font-family="Times New Roman,Times New Roman_MSFontService,sans-serif" font-weight="400" font-size="14" transform="matrix(1.17539 0 0 1.17617 537.982 437)">···</text><path d="M0 687.603 31.7355 687.603 31.7355 719.338 0 719.338Z" fill="#FFFFFF" fill-rule="evenodd" transform="matrix(1 0 0 1.00067 530.33 -406.904)"/><text fill="#7F7F7F" font-family="Times New Roman,Times New Roman_MSFontService,sans-serif" font-weight="400" font-size="14" transform="matrix(1.17539 0 0 1.17617 537.982 302)">···</text><path d="M0 687.603 31.7355 687.603 31.7355 719.338 0 719.338Z" fill="#FFFFFF" fill-rule="evenodd" transform="matrix(1 0 0 1.00067 530.33 -339.156)"/><text fill="#6AA84F" font-family="Times New Roman,Times New Roman_MSFontService,sans-serif" font-weight="400" font-size="14" transform="matrix(1.17539 0 0 1.17617 537.982 370)">···</text><path d="M0 687.603 31.7355 687.603 31.7355 719.338 0 719.338Z" fill="#FFFFFF" fill-rule="evenodd" transform="matrix(1 0 0 1.00067 295.223 -271.409)"/><text fill="#3333B3" font-family="Times New Roman,Times New Roman_MSFontService,sans-serif" font-weight="400" font-size="14" transform="matrix(1.17539 0 0 1.17617 302.875 437)">···</text><path d="M0 687.603 31.7355 687.603 31.7355 719.338 0 719.338Z" fill="#FFFFFF" fill-rule="evenodd" transform="matrix(1 0 0 1.00067 295.438 -406.904)"/><text fill="#7F7F7F" font-family="Times New Roman,Times New Roman_MSFontService,sans-serif" font-weight="400" font-size="14" transform="matrix(1.17539 0 0 1.17617 303.09 302)">···</text><path d="M0 687.603 31.7355 687.603 31.7355 719.338 0 719.338Z" fill="#FFFFFF" fill-rule="evenodd" transform="matrix(1 0 0 1.00067 295.223 -339.156)"/><text fill="#6AA84F" font-family="Times New Roman,Times New Roman_MSFontService,sans-serif" font-weight="400" font-size="14" transform="matrix(1.17539 0 0 1.17617 302.875 370)">···</text><path d="M0 698.181 152.33 698.181 152.33 719.338 7.17401e-06 719.338Z" fill="#FFFFFF" fill-rule="evenodd" transform="matrix(1 0 0 1.00067 589.305 -463.854)"/><text font-family="Cambria Math,Cambria Math_MSFontService,sans-serif" font-weight="400" font-size="13" transform="matrix(1.17539 0 0 1.17617 601.788 247)">⑥</text><text font-family="Times New Roman,Times New Roman_MSFontService,sans-serif" font-weight="400" font-size="13" transform="matrix(1.17539 0 0 1.17617 620.594 247)"> </text><text fill="#7F7F7F" font-family="Times New Roman,Times New Roman_MSFontService,sans-serif" font-weight="400" font-size="13" transform="matrix(1.17539 0 0 1.17617 624.12 247)">UL data received</text><text fill="#7F7F7F" font-family="Times New Roman,Times New Roman_MSFontService,sans-serif" font-weight="700" font-size="12" transform="matrix(1.17539 0 0 1.17617 219.175 292)">Radio Head </text><text fill="#7F7F7F" font-family="Times New Roman,Times New Roman_MSFontService,sans-serif" font-weight="700" font-size="12" transform="matrix(1.17539 0 0 1.17617 227.403 309)">(</text><text fill="#7F7F7F" font-family="Times New Roman,Times New Roman_MSFontService,sans-serif" font-weight="700" font-size="12" transform="matrix(1.17539 0 0 1.17617 232.104 309)">RH slot</text><text fill="#7F7F7F" font-family="Times New Roman,Times New Roman_MSFontService,sans-serif" font-weight="700" font-size="12" transform="matrix(1.17539 0 0 1.17617 277.945 309)">)</text><text fill="#6AA84F" font-family="Times New Roman,Times New Roman_MSFontService,sans-serif" font-weight="700" font-size="12" transform="matrix(1.17539 0 0 1.17617 214.098 360)">DL Processor </text><text fill="#6AA84F" font-family="Times New Roman,Times New Roman_MSFontService,sans-serif" font-weight="700" font-size="12" transform="matrix(1.17539 0 0 1.17617 228.59 377)">(</text><text fill="#6AA84F" font-family="Times New Roman,Times New Roman_MSFontService,sans-serif" font-weight="700" font-size="12" transform="matrix(1.17539 0 0 1.17617 233.292 377)">DP slot</text><text fill="#6AA84F" font-family="Times New Roman,Times New Roman_MSFontService,sans-serif" font-weight="700" font-size="12" transform="matrix(1.17539 0 0 1.17617 276.781 377)">)</text><text fill="#3333B3" font-family="Times New Roman,Times New Roman_MSFontService,sans-serif" font-weight="700" font-size="12" transform="matrix(1.17539 0 0 1.17617 213.71 427)">DU Processor </text><text fill="#3333B3" font-family="Times New Roman,Times New Roman_MSFontService,sans-serif" font-weight="700" font-size="12" transform="matrix(1.17539 0 0 1.17617 227.803 444)">(</text><text fill="#3333B3" font-family="Times New Roman,Times New Roman_MSFontService,sans-serif" font-weight="700" font-size="12" transform="matrix(1.17539 0 0 1.17617 232.504 444)">DU slot</text><text fill="#3333B3" font-family="Times New Roman,Times New Roman_MSFontService,sans-serif" font-weight="700" font-size="12" transform="matrix(1.17539 0 0 1.17617 278.344 444)">)</text><path d="M0 698.181 169.256 698.181 169.256 719.338 0 719.338Z" fill="#FFFFFF" fill-rule="evenodd" transform="matrix(1 0 0 1.00067 360.81 -201.332)"/><text font-family="Cambria Math,Cambria Math_MSFontService,sans-serif" font-weight="400" font-size="13" transform="matrix(1.17539 0 0 1.17617 374.103 516)">③</text><text fill="#3333B3" font-family="Times New Roman,Times New Roman_MSFontService,sans-serif" font-weight="400" font-size="13" transform="matrix(1.17539 0 0 1.17617 392.91 516)"> </text><text fill="#3333B3" font-family="Times New Roman,Times New Roman_MSFontService,sans-serif" font-weight="400" font-size="13" transform="matrix(1.17539 0 0 1.17617 396.436 516)">UL grant scheduled</text><path d="M0 698.181 148.099 698.181 148.099 719.338 0 719.338Z" fill="#FFFFFF" fill-rule="evenodd" transform="matrix(1 0 0 1.00067 591.421 -201.332)"/><text font-family="Cambria Math,Cambria Math_MSFontService,sans-serif" font-weight="400" font-size="13" transform="matrix(1.17539 0 0 1.17617 602.199 516)">⑦</text><text font-family="Times New Roman,Times New Roman_MSFontService,sans-serif" font-weight="400" font-size="13" transform="matrix(1.17539 0 0 1.17617 621.006 516)"> </text><text fill="#3333B3" font-family="Times New Roman,Times New Roman_MSFontService,sans-serif" font-weight="400" font-size="13" transform="matrix(1.17539 0 0 1.17617 624.532 516)">UL data decoded</text><path d="M0 685.487 33.8512 685.487 33.8512 719.338-8.96751e-07 719.338Z" stroke="#7F7F7F" stroke-width="1.17539" stroke-linecap="square" stroke-miterlimit="3" fill="#D8D8D8" fill-rule="evenodd" transform="matrix(1 0 0 1.00067 326.958 -406.692)"/><text fill="#7F7F7F" font-family="Times New Roman,Times New Roman_MSFontService,sans-serif" font-weight="400" font-size="14" transform="matrix(1.17539 0 0 1.17617 339.77 301)">3</text><path d="M0 685.487 33.8512 685.487 33.8512 719.338-8.96751e-07 719.338Z" stroke="#7F7F7F" stroke-width="1.17539" stroke-linecap="square" stroke-miterlimit="3" fill="#FFFFFF" fill-rule="evenodd" transform="matrix(1 0 0 1.00067 360.81 -406.692)"/><text fill="#7F7F7F" font-family="Times New Roman,Times New Roman_MSFontService,sans-serif" font-weight="400" font-size="14" transform="matrix(1.17539 0 0 1.17617 373.621 301)">4</text><path d="M0 685.487 33.8512 685.487 33.8512 719.338-8.96751e-07 719.338Z" stroke="#7F7F7F" stroke-width="1.17539" stroke-linecap="square" stroke-miterlimit="3" fill="#FFFFFF" fill-rule="evenodd" transform="matrix(1 0 0 1.00067 394.661 -406.692)"/><text fill="#7F7F7F" font-family="Times New Roman,Times New Roman_MSFontService,sans-serif" font-weight="400" font-size="14" transform="matrix(1.17539 0 0 1.17617 407.473 301)">5</text><path d="M0 685.487 33.8512 685.487 33.8512 719.338-8.96751e-07 719.338Z" stroke="#7F7F7F" stroke-width="1.17539" stroke-linecap="square" stroke-miterlimit="3" fill="#FFFFFF" fill-rule="evenodd" transform="matrix(1 0 0 1.00067 428.512 -406.692)"/><text fill="#7F7F7F" font-family="Times New Roman,Times New Roman_MSFontService,sans-serif" font-weight="400" font-size="14" transform="matrix(1.17539 0 0 1.17617 441.324 301)">6</text><path d="M0 685.487 33.8512 685.487 33.8512 719.338-8.96751e-07 719.338Z" stroke="#7F7F7F" stroke-width="1.17539" stroke-linecap="square" stroke-miterlimit="3" fill="#D8D8D8" fill-rule="evenodd" transform="matrix(1 0 0 1.00067 462.363 -406.692)"/><text fill="#7F7F7F" font-family="Times New Roman,Times New Roman_MSFontService,sans-serif" font-weight="400" font-size="14" transform="matrix(1.17539 0 0 1.17617 475.175 301)">7</text><path d="M0 685.487 33.8512 685.487 33.8512 719.338-8.96751e-07 719.338Z" stroke="#6AA84F" stroke-width="1.17539" stroke-linecap="square" stroke-miterlimit="3" fill="#FFFFFF" fill-rule="evenodd" transform="matrix(1 0 0 1.00067 326.958 -338.945)"/><text fill="#6AA84F" font-family="Times New Roman,Times New Roman_MSFontService,sans-serif" font-weight="400" font-size="14" transform="matrix(1.17539 0 0 1.17617 339.77 369)">4</text><path d="M0 685.487 33.8512 685.487 33.8512 719.338-8.96751e-07 719.338Z" stroke="#6AA84F" stroke-width="1.17539" stroke-linecap="square" stroke-miterlimit="3" fill="none" fill-rule="evenodd" transform="matrix(1 0 0 1.00067 360.81 -338.945)"/><text fill="#6AA84F" font-family="Times New Roman,Times New Roman_MSFontService,sans-serif" font-weight="400" font-size="14" transform="matrix(1.17539 0 0 1.17617 373.621 369)">5</text><path d="M0 685.487 33.8512 685.487 33.8512 719.338-8.96751e-07 719.338Z" stroke="#6AA84F" stroke-width="1.17539" stroke-linecap="square" stroke-miterlimit="3" fill="#FFFFFF" fill-rule="evenodd" transform="matrix(1 0 0 1.00067 394.661 -338.945)"/><text fill="#6AA84F" font-family="Times New Roman,Times New Roman_MSFontService,sans-serif" font-weight="400" font-size="14" transform="matrix(1.17539 0 0 1.17617 407.473 369)">6</text><path d="M0 685.487 33.8512 685.487 33.8512 719.338-8.96751e-07 719.338Z" stroke="#6AA84F" stroke-width="1.17539" stroke-linecap="square" stroke-miterlimit="3" fill="#D9EAD3" fill-rule="evenodd" transform="matrix(1 0 0 1.00067 428.512 -338.945)"/><text fill="#6AA84F" font-family="Times New Roman,Times New Roman_MSFontService,sans-serif" font-weight="400" font-size="14" transform="matrix(1.17539 0 0 1.17617 441.324 369)">7</text><path d="M0 685.487 33.8512 685.487 33.8512 719.338-8.96751e-07 719.338Z" stroke="#6AA84F" stroke-width="1.17539" stroke-linecap="square" stroke-miterlimit="3" fill="#FFFFFF" fill-rule="evenodd" transform="matrix(1 0 0 1.00067 462.363 -338.945)"/><text fill="#6AA84F" font-family="Times New Roman,Times New Roman_MSFontService,sans-serif" font-weight="400" font-size="14" transform="matrix(1.17539 0 0 1.17617 475.175 369)">8</text><path d="M0 685.487 33.8512 685.487 33.8512 719.338-8.96751e-07 719.338Z" stroke="#3333B3" stroke-width="1.17539" stroke-linecap="square" stroke-miterlimit="3" fill="none" fill-rule="evenodd" transform="matrix(1 0 0 1.00067 326.958 -271.197)"/><text fill="#3333B3" font-family="Times New Roman,Times New Roman_MSFontService,sans-serif" font-weight="400" font-size="14" transform="matrix(1.17539 0 0 1.17617 339.77 437)">4</text><path d="M0 685.487 33.8512 685.487 33.8512 719.338-8.96751e-07 719.338Z" stroke="#3333B3" stroke-width="1.17539" stroke-linecap="square" stroke-miterlimit="3" fill="none" fill-rule="evenodd" transform="matrix(1 0 0 1.00067 360.81 -271.197)"/><text fill="#3333B3" font-family="Times New Roman,Times New Roman_MSFontService,sans-serif" font-weight="400" font-size="14" transform="matrix(1.17539 0 0 1.17617 373.621 437)">5</text><path d="M0 685.487 33.8512 685.487 33.8512 719.338-8.96751e-07 719.338Z" stroke="#3333B3" stroke-width="1.17539" stroke-linecap="square" stroke-miterlimit="3" fill="none" fill-rule="evenodd" transform="matrix(1 0 0 1.00067 394.661 -271.197)"/><text fill="#3333B3" font-family="Times New Roman,Times New Roman_MSFontService,sans-serif" font-weight="400" font-size="14" transform="matrix(1.17539 0 0 1.17617 407.473 437)">6</text><path d="M0 685.487 33.8512 685.487 33.8512 719.338-8.96751e-07 719.338Z" stroke="#3333B3" stroke-width="1.17539" stroke-linecap="square" stroke-miterlimit="3" fill="#ADC0E4" fill-rule="evenodd" transform="matrix(1 0 0 1.00067 428.512 -271.197)"/><text fill="#3333B3" font-family="Times New Roman,Times New Roman_MSFontService,sans-serif" font-weight="400" font-size="14" transform="matrix(1.17539 0 0 1.17617 441.324 437)">7</text><path d="M0 685.487 33.8512 685.487 33.8512 719.338-8.96751e-07 719.338Z" stroke="#3333B3" stroke-width="1.17539" stroke-linecap="square" stroke-miterlimit="3" fill="none" fill-rule="evenodd" transform="matrix(1 0 0 1.00067 462.363 -271.197)"/><text fill="#3333B3" font-family="Times New Roman,Times New Roman_MSFontService,sans-serif" font-weight="400" font-size="14" transform="matrix(1.17539 0 0 1.17617 475.175 437)">8</text><path d="M0 685.487 33.8512 685.487 33.8512 719.338-8.96751e-07 719.338Z" stroke="#3333B3" stroke-width="1.17539" stroke-linecap="square" stroke-miterlimit="3" fill="#FFFFFF" fill-rule="evenodd" transform="matrix(1 0 0 1.00067 496.214 -271.197)"/><text fill="#3333B3" font-family="Times New Roman,Times New Roman_MSFontService,sans-serif" font-weight="400" font-size="14" transform="matrix(1.17539 0 0 1.17617 509.026 437)">9</text><path d="M0 698.181 190.413 698.181 190.413 719.338 0 719.338Z" fill="#FFFFFF" fill-rule="evenodd" transform="matrix(1 0 0 1.00067 485.636 -222.503)"/><text font-family="Cambria Math,Cambria Math_MSFontService,sans-serif" font-weight="400" font-size="13" transform="matrix(1.17539 0 0 1.17617 509.931 495)">④</text><text fill="#6AA84F" font-family="Times New Roman,Times New Roman_MSFontService,sans-serif" font-weight="400" font-size="13" transform="matrix(1.17539 0 0 1.17617 528.737 495)"> </text><text fill="#6AA84F" font-family="Times New Roman,Times New Roman_MSFontService,sans-serif" font-weight="400" font-size="13" transform="matrix(1.17539 0 0 1.17617 532.264 495)">UL grant processed</text><path d="M0 719.338 0 736.182 169.256 736.182 169.256 814.545" stroke="#6AA84F" stroke-width="1.17539" stroke-linecap="round" stroke-linejoin="round" stroke-miterlimit="3" fill="none" fill-rule="evenodd" transform="matrix(1 0 0 1.00067 411.586 -338.945)"/><path d="M5.28589-2.75167C4.12388-1.09212 2.24992-0.0746398 0.225212-0.0039317L0.2252 0.00393032C2.2499 0.0746329 4.12385 1.09211 5.28589 2.75166" stroke="#6AA84F" stroke-width="1.17539" stroke-linecap="round" stroke-linejoin="round" stroke-miterlimit="3" fill="none" fill-rule="evenodd" transform="matrix(-6.12323e-17 -1.00067 1 -6.12732e-17 580.842 476.144)"/><path d="M0 698.181 160.793 698.181 160.793 719.338 3.587e-06 719.338Z" fill="#FFFFFF" fill-rule="evenodd" transform="matrix(1 0 0 1.00067 229.636 -463.854)"/><text font-family="Cambria Math,Cambria Math_MSFontService,sans-serif" font-weight="400" font-size="13" transform="matrix(1.17539 0 0 1.17617 261.818 247)">①</text><text font-family="Times New Roman,Times New Roman_MSFontService,sans-serif" font-weight="400" font-size="13" transform="matrix(1.17539 0 0 1.17617 280.625 247)"> </text><text fill="#7F7F7F" font-family="Times New Roman,Times New Roman_MSFontService,sans-serif" font-weight="400" font-size="13" transform="matrix(1.17539 0 0 1.17617 284.151 247)">SR received</text><path d="M0 719.338 0 727.272 33.8512 727.272 33.8512 742.611" stroke="#7F7F7F" stroke-width="1.17539" stroke-linecap="round" stroke-linejoin="round" stroke-miterlimit="3" stroke-dasharray="1.17539 2.35078" fill="none" fill-rule="evenodd" transform="matrix(1 0 0 1.00067 310.033 -463.854)"/><path d="M5.28589-2.75167C4.12388-1.09212 2.24992-0.0746398 0.225212-0.0039317L0.2252 0.00393032C2.2499 0.0746329 4.12385 1.09211 5.28589 2.75166" stroke="#7F7F7F" stroke-width="1.17539" stroke-linecap="round" stroke-linejoin="round" stroke-miterlimit="3" fill="none" fill-rule="evenodd" transform="matrix(-6.12323e-17 -1.00067 1 -6.12732e-17 343.884 279.253)"/><path d="M0 719.338 0 733.267-186.182 733.267-186.182 742.611" stroke="#7F7F7F" stroke-width="1.17539" stroke-linecap="round" stroke-linejoin="round" stroke-miterlimit="3" stroke-dasharray="1.17539 2.35078" fill="none" fill-rule="evenodd" transform="matrix(1 0 0 1.00067 665.471 -463.854)"/><path d="M5.28589-2.75167C4.12388-1.09212 2.24992-0.0746398 0.225212-0.0039317L0.2252 0.00393032C2.2499 0.0746329 4.12385 1.09211 5.28589 2.75166" stroke="#7F7F7F" stroke-width="1.17539" stroke-linecap="round" stroke-linejoin="round" stroke-miterlimit="3" fill="none" fill-rule="evenodd" transform="matrix(-6.12323e-17 -1.00067 1 -6.12732e-17 479.289 279.253)"/><path d="M-10.5785 719.338-10.5785 705.586-10.5785 696.066" stroke="#7F7F7F" stroke-width="1.17539" stroke-linecap="round" stroke-linejoin="round" stroke-miterlimit="3" stroke-dasharray="1.17539 2.35078" fill="none" fill-rule="evenodd" transform="matrix(1 0 0 1.00067 456.016 -440.566)"/><path d="M5.28589-2.75167C4.12388-1.09212 2.24992-0.0746398 0.225212-0.0039317L0.2252 0.00393032C2.2499 0.0746329 4.12385 1.09211 5.28589 2.75166" stroke="#7F7F7F" stroke-width="1.17539" stroke-linecap="round" stroke-linejoin="round" stroke-miterlimit="3" fill="none" fill-rule="evenodd" transform="matrix(-6.12323e-17 1.00067 -1 -6.12732e-17 445.438 255.964)"/><path d="M0 719.338 0 727.272 33.8512 727.272 33.8512 767.999" stroke="#3333B3" stroke-width="1.17539" stroke-linecap="round" stroke-linejoin="round" stroke-miterlimit="3" fill="none" fill-rule="evenodd" transform="matrix(1 0 0 1.00067 411.586 -271.197)"/><path d="M5.28589-2.75167C4.12388-1.09212 2.24992-0.0746398 0.225212-0.0039317L0.2252 0.00393032C2.2499 0.0746329 4.12385 1.09211 5.28589 2.75166" stroke="#3333B3" stroke-width="1.17539" stroke-linecap="round" stroke-linejoin="round" stroke-miterlimit="3" fill="none" fill-rule="evenodd" transform="matrix(-6.12323e-17 -1.00067 1 -6.12732e-17 445.438 497.315)"/><path d="M0 698.181 105.785 698.181 105.785 719.338 0 719.338Z" fill="#FFFFFF" fill-rule="evenodd" transform="matrix(1 0 0 1.00067 324.843 -235.206)"/><text font-family="Cambria Math,Cambria Math_MSFontService,sans-serif" font-weight="400" font-size="13" transform="matrix(1.17539 0 0 1.17617 329.944 482)">②</text><text fill="#3333B3" font-family="Times New Roman,Times New Roman_MSFontService,sans-serif" font-weight="400" font-size="13" transform="matrix(1.17539 0 0 1.17617 348.75 482)"> </text><text fill="#3333B3" font-family="Times New Roman,Times New Roman_MSFontService,sans-serif" font-weight="400" font-size="13" transform="matrix(1.17539 0 0 1.17617 352.276 482)">SR decoded</text><path d="M10.5785 722.512 10.5785 737.322" stroke="#3333B3" stroke-width="1.17539" stroke-linecap="round" stroke-linejoin="round" stroke-miterlimit="3" fill="none" fill-rule="evenodd" transform="matrix(1 0 0 1.00067 367.157 -274.373)"/><path d="M5.28589-2.75167C4.12388-1.09212 2.24992-0.0746398 0.225212-0.0039317L0.2252 0.00393032C2.2499 0.0746329 4.12385 1.09211 5.28589 2.75166" stroke="#3333B3" stroke-width="1.17539" stroke-linecap="round" stroke-linejoin="round" stroke-miterlimit="3" fill="none" fill-rule="evenodd" transform="matrix(-6.12323e-17 -1.00067 1 -6.12732e-17 377.735 463.442)"/><path d="M0 705.798 35.5438 705.798 35.5438 719.338-2.69025e-07 719.338Z" fill="#FFFFFF" fill-rule="evenodd" transform="matrix(1 0 0 1.00067 393.815 -382.98)"/><text font-family="Times New Roman,Times New Roman_MSFontService,sans-serif" font-style="italic" font-weight="700" font-size="9" transform="matrix(1.17539 0 0 1.17617 399.174 333)">H</text><text font-family="Times New Roman,Times New Roman_MSFontService,sans-serif" font-weight="700" font-size="9" transform="matrix(1.17539 0 0 1.17617 407.402 333)"> </text><text font-family="Times New Roman,Times New Roman_MSFontService,sans-serif" font-weight="700" font-size="9" transform="matrix(1.17539 0 0 1.17617 409.753 333)">= </text><text font-family="Times New Roman,Times New Roman_MSFontService,sans-serif" font-weight="700" font-size="9" transform="matrix(1.17539 0 0 1.17617 417.981 333)">1</text><path d="M0 705.798 42.314 705.798 42.314 719.338 0 719.338Z" fill="#FFFFFF" fill-rule="evenodd" transform="matrix(1 0 0 1.00067 425.127 -382.98)"/><text font-family="Times New Roman,Times New Roman_MSFontService,sans-serif" font-style="italic" font-weight="700" font-size="9" transform="matrix(1.17539 0 0 1.17617 431.803 333)">K</text><text font-family="Times New Roman,Times New Roman_MSFontService,sans-serif" font-weight="700" font-size="9" transform="matrix(1.17539 0 0 1.17617 438.855 333)">2 </text><text font-family="Times New Roman,Times New Roman_MSFontService,sans-serif" font-weight="700" font-size="9" transform="matrix(1.17539 0 0 1.17617 447.083 333)">= </text><text font-family="Times New Roman,Times New Roman_MSFontService,sans-serif" font-weight="700" font-size="9" transform="matrix(1.17539 0 0 1.17617 455.311 333)">1</text><path d="M0 719.338 25.3884 719.338" stroke="#000000" stroke-width="0.881542" stroke-linecap="round" stroke-linejoin="round" stroke-miterlimit="3" stroke-dasharray="0.881542 1.76308" fill="none" fill-rule="evenodd" transform="matrix(6.12323e-17 1.00067 -1 6.12732e-17 1114 317.361)"/><path d="M0 719.338 25.3884 719.338" stroke="#000000" stroke-width="0.881542" stroke-linecap="round" stroke-linejoin="round" stroke-miterlimit="3" stroke-dasharray="0.881542 1.76308" fill="none" fill-rule="evenodd" transform="matrix(6.12323e-17 1.00067 -1 6.12732e-17 1147.85 317.361)"/><path d="M0 719.338 25.3884 719.338" stroke="#000000" stroke-width="0.881542" stroke-linecap="round" stroke-linejoin="round" stroke-miterlimit="3" stroke-dasharray="0.881542 1.76308" fill="none" fill-rule="evenodd" transform="matrix(6.12323e-17 1.00067 -1 6.12732e-17 1181.7 317.361)"/><path d="M0 719.338 0 735.206 64.1763 735.206C64.1763 733.259 65.755 731.68 67.7024 731.68 69.6499 731.68 71.2286 733.259 71.2286 735.206L152.33 735.206 152.33 767.999" stroke="#3333B3" stroke-width="1.17539" stroke-linecap="round" stroke-linejoin="round" stroke-miterlimit="3" fill="none" fill-rule="evenodd" transform="matrix(1 0 0 1.00067 513.14 -271.197)"/><path d="M5.28589-2.75167C4.12388-1.09212 2.24992-0.0746398 0.225212-0.0039317L0.2252 0.00393032C2.2499 0.0746329 4.12385 1.09211 5.28589 2.75166" stroke="#3333B3" stroke-width="1.17539" stroke-linecap="round" stroke-linejoin="round" stroke-miterlimit="3" fill="none" fill-rule="evenodd" transform="matrix(-6.12323e-17 -1.00067 1 -6.12732e-17 665.471 497.315)"/><path d="M0 685.487 33.8512 685.487 33.8512 719.338-8.96751e-07 719.338Z" stroke="#7F7F7F" stroke-width="1.17539" stroke-linecap="square" stroke-miterlimit="3" fill="#FFFFFF" fill-rule="evenodd" transform="matrix(1 0 0 1.00067 496.214 -406.692)"/><text fill="#7F7F7F" font-family="Times New Roman,Times New Roman_MSFontService,sans-serif" font-weight="400" font-size="14" transform="matrix(1.17539 0 0 1.17617 509.026 301)">8</text><path d="M0 685.487 33.8512 685.487 33.8512 719.338-8.96751e-07 719.338Z" stroke="#6AA84F" stroke-width="1.17539" stroke-linecap="square" stroke-miterlimit="3" fill="#FFFFFF" fill-rule="evenodd" transform="matrix(1 0 0 1.00067 496.214 -339.156)"/><text fill="#6AA84F" font-family="Times New Roman,Times New Roman_MSFontService,sans-serif" font-weight="400" font-size="14" transform="matrix(1.17539 0 0 1.17617 509.026 369)">9</text><path d="M0 698.181 160.793 698.181 160.793 719.338 3.587e-06 719.338Z" fill="#FFFFFF" fill-rule="evenodd" transform="matrix(1 0 0 1.00067 365.041 -463.854)"/><text font-family="Cambria Math,Cambria Math_MSFontService,sans-serif" font-weight="400" font-size="13" transform="matrix(1.17539 0 0 1.17617 370.283 247)">⑤</text><text font-family="Times New Roman,Times New Roman_MSFontService,sans-serif" font-weight="400" font-size="13" transform="matrix(1.17539 0 0 1.17617 389.089 247)"> </text><text fill="#7F7F7F" font-family="Times New Roman,Times New Roman_MSFontService,sans-serif" font-weight="400" font-size="13" transform="matrix(1.17539 0 0 1.17617 392.616 247)">UL grant transmitted</text></g></svg>