<svg width="556" height="289" xmlns="http://www.w3.org/2000/svg" xmlns:xlink="http://www.w3.org/1999/xlink" xml:space="preserve" overflow="hidden"><defs><clipPath id="clip0"><rect x="212" y="232" width="556" height="289"/></clipPath></defs><g clip-path="url(#clip0)" transform="translate(-212 -232)"><path d="M0 688.697 31.786 688.697 31.786 720.483 0 720.483Z" fill="#FFFFFF" fill-rule="evenodd" transform="matrix(1.00006 0 0 1 665.741 -271.599)"/><text fill="#3333B3" font-family="Times New Roman,Times New Roman_MSFontService,sans-serif" font-weight="400" font-size="14" transform="matrix(1.17733 0 0 1.17726 673.405 438)">···</text><path d="M0 688.697 31.786 688.697 31.786 720.483 0 720.483Z" fill="#FFFFFF" fill-rule="evenodd" transform="matrix(1.00006 0 0 1 665.741 -407.219)"/><text fill="#7F7F7F" font-family="Times New Roman,Times New Roman_MSFontService,sans-serif" font-weight="400" font-size="14" transform="matrix(1.17733 0 0 1.17726 673.405 302)">···</text><path d="M0 688.697 31.786 688.697 31.786 720.483 0 720.483Z" fill="#FFFFFF" fill-rule="evenodd" transform="matrix(1.00006 0 0 1 665.741 -339.409)"/><text fill="#6AA84F" font-family="Times New Roman,Times New Roman_MSFontService,sans-serif" font-weight="400" font-size="14" transform="matrix(1.17733 0 0 1.17726 673.405 370)">···</text><path d="M0 688.697 31.786 688.697 31.786 720.483 0 720.483Z" fill="#FFFFFF" fill-rule="evenodd" transform="matrix(1.00006 0 0 1 294.881 -271.599)"/><text fill="#3333B3" font-family="Times New Roman,Times New Roman_MSFontService,sans-serif" font-weight="400" font-size="14" transform="matrix(1.17733 0 0 1.17726 302.546 438)">···</text><path d="M0 688.697 31.786 688.697 31.786 720.483 0 720.483Z" fill="#FFFFFF" fill-rule="evenodd" transform="matrix(1.00006 0 0 1 295.096 -407.219)"/><text fill="#7F7F7F" font-family="Times New Roman,Times New Roman_MSFontService,sans-serif" font-weight="400" font-size="14" transform="matrix(1.17733 0 0 1.17726 302.761 302)">···</text><path d="M0 688.697 31.786 688.697 31.786 720.483 0 720.483Z" fill="#FFFFFF" fill-rule="evenodd" transform="matrix(1.00006 0 0 1 294.881 -339.409)"/><text fill="#6AA84F" font-family="Times New Roman,Times New Roman_MSFontService,sans-serif" font-weight="400" font-size="14" transform="matrix(1.17733 0 0 1.17726 302.546 370)">···</text><path d="M0 699.292 152.573 699.292 152.573 720.483 7.18542e-06 720.483Z" fill="#FFFFFF" fill-rule="evenodd" transform="matrix(1.00006 0 0 1 626.748 -464.222)"/><text font-family="Cambria Math,Cambria Math_MSFontService,sans-serif" font-weight="400" font-size="13" transform="matrix(1.17733 0 0 1.17726 639.251 247)">⑥</text><text font-family="Times New Roman,Times New Roman_MSFontService,sans-serif" font-weight="400" font-size="13" transform="matrix(1.17733 0 0 1.17726 658.088 247)"> </text><text fill="#7F7F7F" font-family="Times New Roman,Times New Roman_MSFontService,sans-serif" font-weight="400" font-size="13" transform="matrix(1.17733 0 0 1.17726 661.62 247)">UL data received</text><text fill="#7F7F7F" font-family="Times New Roman,Times New Roman_MSFontService,sans-serif" font-weight="700" font-size="12" transform="matrix(1.17733 0 0 1.17726 218.708 292)">Radio Head </text><text fill="#7F7F7F" font-family="Times New Roman,Times New Roman_MSFontService,sans-serif" font-weight="700" font-size="12" transform="matrix(1.17733 0 0 1.17726 226.949 309)">(</text><text fill="#7F7F7F" font-family="Times New Roman,Times New Roman_MSFontService,sans-serif" font-weight="700" font-size="12" transform="matrix(1.17733 0 0 1.17726 231.658 309)">RH slot</text><text fill="#7F7F7F" font-family="Times New Roman,Times New Roman_MSFontService,sans-serif" font-weight="700" font-size="12" transform="matrix(1.17733 0 0 1.17726 277.574 309)">)</text><text fill="#6AA84F" font-family="Times New Roman,Times New Roman_MSFontService,sans-serif" font-weight="700" font-size="12" transform="matrix(1.17733 0 0 1.17726 213.622 360)">DL Processor </text><text fill="#6AA84F" font-family="Times New Roman,Times New Roman_MSFontService,sans-serif" font-weight="700" font-size="12" transform="matrix(1.17733 0 0 1.17726 228.138 377)">(</text><text fill="#6AA84F" font-family="Times New Roman,Times New Roman_MSFontService,sans-serif" font-weight="700" font-size="12" transform="matrix(1.17733 0 0 1.17726 232.847 377)">DP slot</text><text fill="#6AA84F" font-family="Times New Roman,Times New Roman_MSFontService,sans-serif" font-weight="700" font-size="12" transform="matrix(1.17733 0 0 1.17726 276.409 377)">)</text><text fill="#3333B3" font-family="Times New Roman,Times New Roman_MSFontService,sans-serif" font-weight="700" font-size="12" transform="matrix(1.17733 0 0 1.17726 213.233 428)">DU Processor </text><text fill="#3333B3" font-family="Times New Roman,Times New Roman_MSFontService,sans-serif" font-weight="700" font-size="12" transform="matrix(1.17733 0 0 1.17726 227.349 445)">(</text><text fill="#3333B3" font-family="Times New Roman,Times New Roman_MSFontService,sans-serif" font-weight="700" font-size="12" transform="matrix(1.17733 0 0 1.17726 232.059 445)">DU slot</text><text fill="#3333B3" font-family="Times New Roman,Times New Roman_MSFontService,sans-serif" font-weight="700" font-size="12" transform="matrix(1.17733 0 0 1.17726 277.975 445)">)</text><path d="M0 699.292 339.051 699.292 339.051 720.483 0 720.483Z" fill="#FFFFFF" fill-rule="evenodd" transform="matrix(1.00006 0 0 1 275.808 -201.458)"/><text font-family="Cambria Math,Cambria Math_MSFontService,sans-serif" font-weight="400" font-size="13" transform="matrix(1.17733 0 0 1.17726 373.892 517)">③</text><text fill="#3333B3" font-family="Times New Roman,Times New Roman_MSFontService,sans-serif" font-weight="400" font-size="13" transform="matrix(1.17733 0 0 1.17726 392.729 517)"> </text><text fill="#3333B3" font-family="Times New Roman,Times New Roman_MSFontService,sans-serif" font-weight="400" font-size="13" transform="matrix(1.17733 0 0 1.17726 396.261 517)">UL grant scheduled</text><path d="M0 699.292 148.335 699.292 148.335 720.483 0 720.483Z" fill="#FFFFFF" fill-rule="evenodd" transform="matrix(1.00006 0 0 1 625.476 -201.458)"/><text font-family="Cambria Math,Cambria Math_MSFontService,sans-serif" font-weight="400" font-size="13" transform="matrix(1.17733 0 0 1.17726 636.272 517)">⑦</text><text font-family="Times New Roman,Times New Roman_MSFontService,sans-serif" font-weight="400" font-size="13" transform="matrix(1.17733 0 0 1.17726 655.11 517)"> </text><text fill="#3333B3" font-family="Times New Roman,Times New Roman_MSFontService,sans-serif" font-weight="400" font-size="13" transform="matrix(1.17733 0 0 1.17726 658.642 517)">UL data decoded</text><path d="M0 686.578 33.9051 686.578 33.9051 720.483-8.98178e-07 720.483Z" stroke="#7F7F7F" stroke-width="1.17726" stroke-linecap="square" stroke-miterlimit="3" fill="#D8D8D8" fill-rule="evenodd" transform="matrix(1.00006 0 0 1 326.669 -407.008)"/><text fill="#7F7F7F" font-family="Times New Roman,Times New Roman_MSFontService,sans-serif" font-weight="400" font-size="14" transform="matrix(1.17733 0 0 1.17726 339.502 301)">3</text><path d="M0 686.578 33.9051 686.578 33.9051 720.483-8.98178e-07 720.483Z" stroke="#7F7F7F" stroke-width="1.17726" stroke-linecap="square" stroke-miterlimit="3" fill="#FFFFFF" fill-rule="evenodd" transform="matrix(1.00006 0 0 1 360.576 -407.008)"/><text fill="#7F7F7F" font-family="Times New Roman,Times New Roman_MSFontService,sans-serif" font-weight="400" font-size="14" transform="matrix(1.17733 0 0 1.17726 373.409 301)">4</text><path d="M0 686.578 33.9051 686.578 33.9051 720.483-8.98178e-07 720.483Z" stroke="#7F7F7F" stroke-width="1.17726" stroke-linecap="square" stroke-miterlimit="3" fill="#FFFFFF" fill-rule="evenodd" transform="matrix(1.00006 0 0 1 394.483 -407.008)"/><text fill="#7F7F7F" font-family="Times New Roman,Times New Roman_MSFontService,sans-serif" font-weight="400" font-size="14" transform="matrix(1.17733 0 0 1.17726 407.316 301)">5</text><path d="M0 686.578 33.9051 686.578 33.9051 720.483-8.98178e-07 720.483Z" stroke="#7F7F7F" stroke-width="1.17726" stroke-linecap="square" stroke-miterlimit="3" fill="#FFFFFF" fill-rule="evenodd" transform="matrix(1.00006 0 0 1 428.391 -407.008)"/><text fill="#7F7F7F" font-family="Times New Roman,Times New Roman_MSFontService,sans-serif" font-weight="400" font-size="14" transform="matrix(1.17733 0 0 1.17726 441.224 301)">6</text><path d="M0 686.578 33.9051 686.578 33.9051 720.483-8.98178e-07 720.483Z" stroke="#7F7F7F" stroke-width="1.17726" stroke-linecap="square" stroke-miterlimit="3" fill="#D8D8D8" fill-rule="evenodd" transform="matrix(1.00006 0 0 1 462.298 -407.008)"/><text fill="#7F7F7F" font-family="Times New Roman,Times New Roman_MSFontService,sans-serif" font-weight="400" font-size="14" transform="matrix(1.17733 0 0 1.17726 475.131 301)">7</text><path d="M0 686.578 33.9051 686.578 33.9051 720.483-8.98178e-07 720.483Z" stroke="#7F7F7F" stroke-width="1.17726" stroke-linecap="square" stroke-miterlimit="3" fill="#FFFFFF" fill-rule="evenodd" transform="matrix(1.00006 0 0 1 496.205 -407.008)"/><text fill="#7F7F7F" font-family="Times New Roman,Times New Roman_MSFontService,sans-serif" font-weight="400" font-size="14" transform="matrix(1.17733 0 0 1.17726 509.038 301)">8</text><path d="M0 686.578 33.9051 686.578 33.9051 720.483-8.98178e-07 720.483Z" stroke="#7F7F7F" stroke-width="1.17726" stroke-linecap="square" stroke-miterlimit="3" fill="#FFFFFF" fill-rule="evenodd" transform="matrix(1.00006 0 0 1 530.112 -407.008)"/><text fill="#7F7F7F" font-family="Times New Roman,Times New Roman_MSFontService,sans-serif" font-weight="400" font-size="14" transform="matrix(1.17733 0 0 1.17726 542.945 301)">9</text><path d="M0 686.578 33.9051 686.578 33.9051 720.483-8.98178e-07 720.483Z" stroke="#7F7F7F" stroke-width="1.17726" stroke-linecap="square" stroke-miterlimit="3" fill="#FFFFFF" fill-rule="evenodd" transform="matrix(1.00006 0 0 1 564.019 -407.008)"/><text fill="#7F7F7F" font-family="Times New Roman,Times New Roman_MSFontService,sans-serif" font-weight="400" font-size="14" transform="matrix(1.17733 0 0 1.17726 572.732 301)">10</text><path d="M0 686.578 33.9051 686.578 33.9051 720.483-8.98178e-07 720.483Z" stroke="#7F7F7F" stroke-width="1.17726" stroke-linecap="square" stroke-miterlimit="3" fill="#D8D8D8" fill-rule="evenodd" transform="matrix(1.00006 0 0 1 597.927 -407.008)"/><text fill="#7F7F7F" font-family="Times New Roman,Times New Roman_MSFontService,sans-serif" font-weight="400" font-size="14" transform="matrix(1.17733 0 0 1.17726 606.639 301)">11</text><path d="M0 686.578 33.9051 686.578 33.9051 720.483-8.98178e-07 720.483Z" stroke="#7F7F7F" stroke-width="1.17726" stroke-linecap="square" stroke-miterlimit="3" fill="#FFFFFF" fill-rule="evenodd" transform="matrix(1.00006 0 0 1 631.834 -407.008)"/><text fill="#7F7F7F" font-family="Times New Roman,Times New Roman_MSFontService,sans-serif" font-weight="400" font-size="14" transform="matrix(1.17733 0 0 1.17726 640.546 301)">12</text><path d="M0 686.578 33.9051 686.578 33.9051 720.483-8.98178e-07 720.483Z" stroke="#6AA84F" stroke-width="1.17726" stroke-linecap="square" stroke-miterlimit="3" fill="#FFFFFF" fill-rule="evenodd" transform="matrix(1.00006 0 0 1 326.669 -339.197)"/><text fill="#6AA84F" font-family="Times New Roman,Times New Roman_MSFontService,sans-serif" font-weight="400" font-size="14" transform="matrix(1.17733 0 0 1.17726 339.502 369)">6</text><path d="M0 686.578 33.9051 686.578 33.9051 720.483-8.98178e-07 720.483Z" stroke="#6AA84F" stroke-width="1.17726" stroke-linecap="square" stroke-miterlimit="3" fill="#D9EAD3" fill-rule="evenodd" transform="matrix(1.00006 0 0 1 360.576 -339.197)"/><text fill="#6AA84F" font-family="Times New Roman,Times New Roman_MSFontService,sans-serif" font-weight="400" font-size="14" transform="matrix(1.17733 0 0 1.17726 373.409 369)">7</text><path d="M0 686.578 33.9051 686.578 33.9051 720.483-8.98178e-07 720.483Z" stroke="#6AA84F" stroke-width="1.17726" stroke-linecap="square" stroke-miterlimit="3" fill="#FFFFFF" fill-rule="evenodd" transform="matrix(1.00006 0 0 1 394.483 -339.197)"/><text fill="#6AA84F" font-family="Times New Roman,Times New Roman_MSFontService,sans-serif" font-weight="400" font-size="14" transform="matrix(1.17733 0 0 1.17726 407.316 369)">8</text><path d="M0 686.578 33.9051 686.578 33.9051 720.483-8.98178e-07 720.483Z" stroke="#6AA84F" stroke-width="1.17726" stroke-linecap="square" stroke-miterlimit="3" fill="#FFFFFF" fill-rule="evenodd" transform="matrix(1.00006 0 0 1 428.391 -339.197)"/><text fill="#6AA84F" font-family="Times New Roman,Times New Roman_MSFontService,sans-serif" font-weight="400" font-size="14" transform="matrix(1.17733 0 0 1.17726 441.224 369)">9</text><path d="M0 686.578 33.9051 686.578 33.9051 720.483-8.98178e-07 720.483Z" stroke="#6AA84F" stroke-width="1.17726" stroke-linecap="square" stroke-miterlimit="3" fill="#FFFFFF" fill-rule="evenodd" transform="matrix(1.00006 0 0 1 462.298 -339.197)"/><text fill="#6AA84F" font-family="Times New Roman,Times New Roman_MSFontService,sans-serif" font-weight="400" font-size="14" transform="matrix(1.17733 0 0 1.17726 471.01 369)">10</text><path d="M0 686.578 33.9051 686.578 33.9051 720.483-8.98178e-07 720.483Z" stroke="#6AA84F" stroke-width="1.17726" stroke-linecap="square" stroke-miterlimit="3" fill="#D9EAD3" fill-rule="evenodd" transform="matrix(1.00006 0 0 1 496.205 -339.197)"/><text fill="#6AA84F" font-family="Times New Roman,Times New Roman_MSFontService,sans-serif" font-weight="400" font-size="14" transform="matrix(1.17733 0 0 1.17726 504.917 369)">11</text><path d="M0 686.578 33.9051 686.578 33.9051 720.483-8.98178e-07 720.483Z" stroke="#6AA84F" stroke-width="1.17726" stroke-linecap="square" stroke-miterlimit="3" fill="#FFFFFF" fill-rule="evenodd" transform="matrix(1.00006 0 0 1 530.112 -339.197)"/><text fill="#6AA84F" font-family="Times New Roman,Times New Roman_MSFontService,sans-serif" font-weight="400" font-size="14" transform="matrix(1.17733 0 0 1.17726 538.824 369)">12</text><path d="M0 686.578 33.9051 686.578 33.9051 720.483-8.98178e-07 720.483Z" stroke="#6AA84F" stroke-width="1.17726" stroke-linecap="square" stroke-miterlimit="3" fill="#FFFFFF" fill-rule="evenodd" transform="matrix(1.00006 0 0 1 564.019 -339.197)"/><text fill="#6AA84F" font-family="Times New Roman,Times New Roman_MSFontService,sans-serif" font-weight="400" font-size="14" transform="matrix(1.17733 0 0 1.17726 572.732 369)">13</text><path d="M0 686.578 33.9051 686.578 33.9051 720.483-8.98178e-07 720.483Z" stroke="#6AA84F" stroke-width="1.17726" stroke-linecap="square" stroke-miterlimit="3" fill="#FFFFFF" fill-rule="evenodd" transform="matrix(1.00006 0 0 1 597.927 -339.197)"/><text fill="#6AA84F" font-family="Times New Roman,Times New Roman_MSFontService,sans-serif" font-weight="400" font-size="14" transform="matrix(1.17733 0 0 1.17726 606.639 369)">14</text><path d="M0 686.578 33.9051 686.578 33.9051 720.483-8.98178e-07 720.483Z" stroke="#6AA84F" stroke-width="1.17726" stroke-linecap="square" stroke-miterlimit="3" fill="#D9EAD3" fill-rule="evenodd" transform="matrix(1.00006 0 0 1 631.834 -339.197)"/><text fill="#6AA84F" font-family="Times New Roman,Times New Roman_MSFontService,sans-serif" font-weight="400" font-size="14" transform="matrix(1.17733 0 0 1.17726 640.546 369)">15</text><path d="M0 686.578 33.9051 686.578 33.9051 720.483-8.98178e-07 720.483Z" stroke="#3333B3" stroke-width="1.17726" stroke-linecap="square" stroke-miterlimit="3" fill="#ADC0E4" fill-rule="evenodd" transform="matrix(1.00006 0 0 1 326.669 -271.387)"/><text fill="#3333B3" font-family="Times New Roman,Times New Roman_MSFontService,sans-serif" font-weight="400" font-size="14" transform="matrix(1.17733 0 0 1.17726 339.502 437)">7</text><path d="M0 686.578 33.9051 686.578 33.9051 720.483-8.98178e-07 720.483Z" stroke="#3333B3" stroke-width="1.17726" stroke-linecap="square" stroke-miterlimit="3" fill="none" fill-rule="evenodd" transform="matrix(1.00006 0 0 1 360.576 -271.387)"/><text fill="#3333B3" font-family="Times New Roman,Times New Roman_MSFontService,sans-serif" font-weight="400" font-size="14" transform="matrix(1.17733 0 0 1.17726 373.409 437)">8</text><path d="M0 686.578 33.9051 686.578 33.9051 720.483-8.98178e-07 720.483Z" stroke="#3333B3" stroke-width="1.17726" stroke-linecap="square" stroke-miterlimit="3" fill="none" fill-rule="evenodd" transform="matrix(1.00006 0 0 1 394.483 -271.387)"/><text fill="#3333B3" font-family="Times New Roman,Times New Roman_MSFontService,sans-serif" font-weight="400" font-size="14" transform="matrix(1.17733 0 0 1.17726 407.316 437)">9</text><path d="M0 686.578 33.9051 686.578 33.9051 720.483-8.98178e-07 720.483Z" stroke="#3333B3" stroke-width="1.17726" stroke-linecap="square" stroke-miterlimit="3" fill="none" fill-rule="evenodd" transform="matrix(1.00006 0 0 1 428.391 -271.387)"/><text fill="#3333B3" font-family="Times New Roman,Times New Roman_MSFontService,sans-serif" font-weight="400" font-size="14" transform="matrix(1.17733 0 0 1.17726 437.103 437)">10</text><path d="M0 686.578 33.9051 686.578 33.9051 720.483-8.98178e-07 720.483Z" stroke="#3333B3" stroke-width="1.17726" stroke-linecap="square" stroke-miterlimit="3" fill="#ADC0E4" fill-rule="evenodd" transform="matrix(1.00006 0 0 1 462.298 -271.387)"/><text fill="#3333B3" font-family="Times New Roman,Times New Roman_MSFontService,sans-serif" font-weight="400" font-size="14" transform="matrix(1.17733 0 0 1.17726 471.01 437)">11</text><path d="M0 686.578 33.9051 686.578 33.9051 720.483-8.98178e-07 720.483Z" stroke="#3333B3" stroke-width="1.17726" stroke-linecap="square" stroke-miterlimit="3" fill="#FFFFFF" fill-rule="evenodd" transform="matrix(1.00006 0 0 1 496.205 -271.387)"/><text fill="#3333B3" font-family="Times New Roman,Times New Roman_MSFontService,sans-serif" font-weight="400" font-size="14" transform="matrix(1.17733 0 0 1.17726 504.917 437)">12</text><path d="M0 686.578 33.9051 686.578 33.9051 720.483-8.98178e-07 720.483Z" stroke="#3333B3" stroke-width="1.17726" stroke-linecap="square" stroke-miterlimit="3" fill="none" fill-rule="evenodd" transform="matrix(1.00006 0 0 1 564.019 -271.387)"/><text fill="#3333B3" font-family="Times New Roman,Times New Roman_MSFontService,sans-serif" font-weight="400" font-size="14" transform="matrix(1.17733 0 0 1.17726 572.732 437)">14</text><path d="M0 686.578 33.9051 686.578 33.9051 720.483-8.98178e-07 720.483Z" stroke="#3333B3" stroke-width="1.17726" stroke-linecap="square" stroke-miterlimit="3" fill="#ADC0E4" fill-rule="evenodd" transform="matrix(1.00006 0 0 1 597.927 -271.387)"/><text fill="#3333B3" font-family="Times New Roman,Times New Roman_MSFontService,sans-serif" font-weight="400" font-size="14" transform="matrix(1.17733 0 0 1.17726 606.639 437)">15</text><path d="M0 686.578 33.9051 686.578 33.9051 720.483-8.98178e-07 720.483Z" stroke="#3333B3" stroke-width="1.17726" stroke-linecap="square" stroke-miterlimit="3" fill="none" fill-rule="evenodd" transform="matrix(1.00006 0 0 1 631.834 -271.387)"/><text fill="#3333B3" font-family="Times New Roman,Times New Roman_MSFontService,sans-serif" font-weight="400" font-size="14" transform="matrix(1.17733 0 0 1.17726 640.546 437)">16</text><path d="M0 699.292 190.716 699.292 190.716 720.483 0 720.483Z" fill="#FFFFFF" fill-rule="evenodd" transform="matrix(1.00006 0 0 1 451.702 -235.363)"/><text font-family="Cambria Math,Cambria Math_MSFontService,sans-serif" font-weight="400" font-size="13" transform="matrix(1.17733 0 0 1.17726 476.037 483)">④</text><text fill="#6AA84F" font-family="Times New Roman,Times New Roman_MSFontService,sans-serif" font-weight="400" font-size="13" transform="matrix(1.17733 0 0 1.17726 494.875 483)"> </text><text fill="#6AA84F" font-family="Times New Roman,Times New Roman_MSFontService,sans-serif" font-weight="400" font-size="13" transform="matrix(1.17733 0 0 1.17726 498.407 483)">UL grant processed</text><path d="M0 720.483 0 744.722 50.8576 744.722 50.8576 769.221" stroke="#3333B3" stroke-width="1.17726" stroke-linecap="round" stroke-linejoin="round" stroke-miterlimit="3" fill="none" fill-rule="evenodd" transform="matrix(1.00006 0 0 1 648.787 -271.387)"/><path d="M5.2943-2.75605C4.13044-1.09386 2.25349-0.0747586 0.22557-0.00393796L0.225558 0.00393658C2.25348 0.0747517 4.13041 1.09385 5.2943 2.75604" stroke="#3333B3" stroke-width="1.17726" stroke-linecap="round" stroke-linejoin="round" stroke-miterlimit="3" fill="none" fill-rule="evenodd" transform="matrix(-6.12362e-17 -1 1.00006 -6.12323e-17 699.648 497.834)"/><path d="M0 720.483 0 736.376 67.8101 736.376 67.8101 803.126" stroke="#6AA84F" stroke-width="1.17726" stroke-linecap="round" stroke-linejoin="round" stroke-miterlimit="3" fill="none" fill-rule="evenodd" transform="matrix(1.00006 0 0 1 479.251 -339.197)"/><path d="M5.2943-2.75605C4.13044-1.09386 2.25349-0.0747586 0.22557-0.00393796L0.225558 0.00393658C2.25348 0.0747517 4.13041 1.09385 5.2943 2.75604" stroke="#6AA84F" stroke-width="1.17726" stroke-linecap="round" stroke-linejoin="round" stroke-miterlimit="3" fill="none" fill-rule="evenodd" transform="matrix(-6.12362e-17 -1 1.00006 -6.12323e-17 547.066 463.929)"/><path d="M0 699.292 203.43 699.292 203.43 720.483 3.59271e-06 720.483Z" fill="#FFFFFF" fill-rule="evenodd" transform="matrix(1.00006 0 0 1 428.391 -464.222)"/><text font-family="Cambria Math,Cambria Math_MSFontService,sans-serif" font-weight="400" font-size="13" transform="matrix(1.17733 0 0 1.17726 454.834 247)">⑤</text><text font-family="Times New Roman,Times New Roman_MSFontService,sans-serif" font-weight="400" font-size="13" transform="matrix(1.17733 0 0 1.17726 473.671 247)"> </text><text fill="#7F7F7F" font-family="Times New Roman,Times New Roman_MSFontService,sans-serif" font-weight="400" font-size="13" transform="matrix(1.17733 0 0 1.17726 477.203 247)">UL grant transmitted </text><path d="M0 686.578 33.9051 686.578 33.9051 720.483-8.98178e-07 720.483Z" stroke="#3333B3" stroke-width="1.17726" stroke-linecap="square" stroke-miterlimit="3" fill="#FFFFFF" fill-rule="evenodd" transform="matrix(1.00006 0 0 1 530.112 -271.387)"/><text fill="#3333B3" font-family="Times New Roman,Times New Roman_MSFontService,sans-serif" font-weight="400" font-size="14" transform="matrix(1.17733 0 0 1.17726 538.824 437)">13</text><path d="M0 699.292 161.049 699.292 161.049 720.483 3.59271e-06 720.483Z" fill="#FFFFFF" fill-rule="evenodd" transform="matrix(1.00006 0 0 1 263.093 -464.222)"/><text font-family="Cambria Math,Cambria Math_MSFontService,sans-serif" font-weight="400" font-size="13" transform="matrix(1.17733 0 0 1.17726 295.328 247)">①</text><text font-family="Times New Roman,Times New Roman_MSFontService,sans-serif" font-weight="400" font-size="13" transform="matrix(1.17733 0 0 1.17726 314.166 247)"> </text><text fill="#7F7F7F" font-family="Times New Roman,Times New Roman_MSFontService,sans-serif" font-weight="400" font-size="13" transform="matrix(1.17733 0 0 1.17726 317.698 247)">SR received </text><path d="M10.5953 720.483 10.5953 743.792" stroke="#7F7F7F" stroke-width="1.17726" stroke-linecap="round" stroke-linejoin="round" stroke-miterlimit="3" stroke-dasharray="1.17726 2.35452" fill="none" fill-rule="evenodd" transform="matrix(1.00006 0 0 1 333.027 -464.222)"/><path d="M5.2943-2.75605C4.13044-1.09386 2.25349-0.0747586 0.22557-0.00393796L0.225558 0.00393658C2.25348 0.0747517 4.13041 1.09385 5.2943 2.75604" stroke="#7F7F7F" stroke-width="1.17726" stroke-linecap="round" stroke-linejoin="round" stroke-miterlimit="3" fill="none" fill-rule="evenodd" transform="matrix(-6.12362e-17 -1 1.00006 -6.12323e-17 343.623 279.57)"/><path d="M0 720.483 0 728.429-88.1532 728.429-88.1532 743.792" stroke="#7F7F7F" stroke-width="1.17726" stroke-linecap="round" stroke-linejoin="round" stroke-miterlimit="3" stroke-dasharray="1.17726 2.35452" fill="none" fill-rule="evenodd" transform="matrix(1.00006 0 0 1 703.039 -464.222)"/><path d="M5.2943-2.75605C4.13044-1.09386 2.25349-0.0747586 0.22557-0.00393796L0.225558 0.00393658C2.25348 0.0747517 4.13041 1.09385 5.2943 2.75604" stroke="#7F7F7F" stroke-width="1.17726" stroke-linecap="round" stroke-linejoin="round" stroke-miterlimit="3" fill="none" fill-rule="evenodd" transform="matrix(-6.12362e-17 -1 1.00006 -6.12323e-17 614.88 279.57)"/><path d="M0 720.483 0 712.536-50.8576 712.536-50.8576 697.173" stroke="#7F7F7F" stroke-width="1.17726" stroke-linecap="round" stroke-linejoin="round" stroke-miterlimit="3" stroke-dasharray="1.17726 2.35452" fill="none" fill-rule="evenodd" transform="matrix(1.00006 0 0 1 580.973 -440.913)"/><path d="M5.2943-2.75605C4.13044-1.09386 2.25349-0.0747586 0.22557-0.00393796L0.225558 0.00393658C2.25348 0.0747517 4.13041 1.09385 5.2943 2.75604" stroke="#7F7F7F" stroke-width="1.17726" stroke-linecap="round" stroke-linejoin="round" stroke-miterlimit="3" fill="none" fill-rule="evenodd" transform="matrix(-6.12362e-17 1 -1.00006 -6.12323e-17 530.112 256.26)"/><path d="M0 699.292 156.811 699.292 156.811 720.483-3.59271e-06 720.483Z" fill="#FFFFFF" fill-rule="evenodd" transform="matrix(1.00006 0 0 1 299.119 -235.363)"/><text font-family="Cambria Math,Cambria Math_MSFontService,sans-serif" font-weight="400" font-size="13" transform="matrix(1.17733 0 0 1.17726 329.659 483)">②</text><text fill="#3333B3" font-family="Times New Roman,Times New Roman_MSFontService,sans-serif" font-weight="400" font-size="13" transform="matrix(1.17733 0 0 1.17726 348.497 483)"> </text><text fill="#3333B3" font-family="Times New Roman,Times New Roman_MSFontService,sans-serif" font-weight="400" font-size="13" transform="matrix(1.17733 0 0 1.17726 352.029 483)">SR decoded</text><path d="M10.5953 723.661 10.5953 738.495" stroke="#3333B3" stroke-width="1.17726" stroke-linecap="round" stroke-linejoin="round" stroke-miterlimit="3" fill="none" fill-rule="evenodd" transform="matrix(1.00006 0 0 1 366.934 -274.566)"/><path d="M5.2943-2.75605C4.13044-1.09386 2.25349-0.0747586 0.22557-0.00393796L0.225558 0.00393658C2.25348 0.0747517 4.13041 1.09385 5.2943 2.75604" stroke="#3333B3" stroke-width="1.17726" stroke-linecap="round" stroke-linejoin="round" stroke-miterlimit="3" fill="none" fill-rule="evenodd" transform="matrix(-6.12362e-17 -1 1.00006 -6.12323e-17 377.53 463.929)"/><path d="M0 706.921 42.3813 706.921 42.3813 720.483 0 720.483Z" fill="#FFFFFF" fill-rule="evenodd" transform="matrix(1.00006 0 0 1 424.152 -315.464)"/><text font-family="Times New Roman,Times New Roman_MSFontService,sans-serif" font-style="italic" font-weight="700" font-size="9" transform="matrix(1.17733 0 0 1.17726 432.311 401)">M</text><text font-family="Times New Roman,Times New Roman_MSFontService,sans-serif" font-weight="700" font-size="9" transform="matrix(1.17733 0 0 1.17726 441.73 401)"> </text><text font-family="Times New Roman,Times New Roman_MSFontService,sans-serif" font-weight="700" font-size="9" transform="matrix(1.17733 0 0 1.17726 444.084 401)">= </text><text font-family="Times New Roman,Times New Roman_MSFontService,sans-serif" font-weight="700" font-size="9" transform="matrix(1.17733 0 0 1.17726 452.326 401)">1</text><path d="M0 720.483 25.4288 720.483" stroke="#000000" stroke-width="0.882944" stroke-linecap="round" stroke-linejoin="round" stroke-miterlimit="3" stroke-dasharray="0.882944 1.76589" fill="none" fill-rule="evenodd" transform="matrix(6.12362e-17 1 -1.00006 6.12323e-17 1148.92 385.523)"/><path d="M0 720.483 25.4288 720.483" stroke="#000000" stroke-width="0.882944" stroke-linecap="round" stroke-linejoin="round" stroke-miterlimit="3" stroke-dasharray="0.882944 1.76589" fill="none" fill-rule="evenodd" transform="matrix(6.12362e-17 1 -1.00006 6.12323e-17 1182.83 385.523)"/><path d="M0 706.921 42.3813 706.921 42.3813 720.483 0 720.483Z" fill="#FFFFFF" fill-rule="evenodd" transform="matrix(1.00006 0 0 1 560.629 -383.274)"/><text font-family="Times New Roman,Times New Roman_MSFontService,sans-serif" font-style="italic" font-weight="700" font-size="9" transform="matrix(1.17733 0 0 1.17726 567.316 334)">K</text><text font-family="Times New Roman,Times New Roman_MSFontService,sans-serif" font-weight="700" font-size="9" transform="matrix(1.17733 0 0 1.17726 574.38 334)">2 </text><text font-family="Times New Roman,Times New Roman_MSFontService,sans-serif" font-weight="700" font-size="9" transform="matrix(1.17733 0 0 1.17726 582.621 334)">= </text><text font-family="Times New Roman,Times New Roman_MSFontService,sans-serif" font-weight="700" font-size="9" transform="matrix(1.17733 0 0 1.17726 590.863 334)">1</text><path d="M0 720.483 25.4288 720.483" stroke="#000000" stroke-width="0.882944" stroke-linecap="round" stroke-linejoin="round" stroke-miterlimit="3" stroke-dasharray="0.882944 1.76589" fill="none" fill-rule="evenodd" transform="matrix(6.12362e-17 1 -1.00006 6.12323e-17 1182.83 317.713)"/><path d="M0 720.483 25.4288 720.483" stroke="#000000" stroke-width="0.882944" stroke-linecap="round" stroke-linejoin="round" stroke-miterlimit="3" stroke-dasharray="0.882944 1.76589" fill="none" fill-rule="evenodd" transform="matrix(6.12362e-17 1 -1.00006 6.12323e-17 1284.55 317.713)"/><path d="M0 720.483 25.4288 720.483" stroke="#000000" stroke-width="0.882944" stroke-linecap="round" stroke-linejoin="round" stroke-miterlimit="3" stroke-dasharray="0.882944 1.76589" fill="none" fill-rule="evenodd" transform="matrix(6.12362e-17 1 -1.00006 6.12323e-17 1318.45 317.713)"/><path d="M0 720.483 93.2389 720.483" stroke="#000000" stroke-width="0.58863" stroke-linecap="round" stroke-linejoin="round" stroke-miterlimit="3" fill="none" fill-rule="evenodd" transform="matrix(1.00006 0 0 1 466.536 -390.055)"/><path d="M4.2094-2.19129C3.28404-0.869705 1.79171-0.0594392 0.179346-0.003131L0.179337 0.0031299C1.7917 0.0594337 3.28402 0.869698 4.2094 2.19128" stroke="#000000" stroke-width="0.58863" stroke-linecap="round" stroke-linejoin="round" stroke-miterlimit="3" fill="none" fill-rule="evenodd" transform="matrix(1.00006 0 0 1 466.536 330.428)"/><path d="M4.2094-2.19129C3.28404-0.869705 1.79171-0.0594392 0.179346-0.003131L0.179337 0.0031299C1.7917 0.0594337 3.28402 0.869698 4.2094 2.19128" stroke="#000000" stroke-width="0.58863" stroke-linecap="round" stroke-linejoin="round" stroke-miterlimit="3" fill="none" fill-rule="evenodd" transform="matrix(-1.00006 0 0 -1 559.781 330.428)"/><path d="M0 706.921 35.6003 706.921 35.6003 720.483-2.69453e-07 720.483Z" fill="#FFFFFF" fill-rule="evenodd" transform="matrix(1.00006 0 0 1 495.357 -383.274)"/><text font-family="Times New Roman,Times New Roman_MSFontService,sans-serif" font-style="italic" font-weight="700" font-size="9" transform="matrix(1.17733 0 0 1.17726 500.726 334)">H</text><text font-family="Times New Roman,Times New Roman_MSFontService,sans-serif" font-weight="700" font-size="9" transform="matrix(1.17733 0 0 1.17726 508.967 334)"> </text><text font-family="Times New Roman,Times New Roman_MSFontService,sans-serif" font-weight="700" font-size="9" transform="matrix(1.17733 0 0 1.17726 511.322 334)">= </text><text font-family="Times New Roman,Times New Roman_MSFontService,sans-serif" font-weight="700" font-size="9" transform="matrix(1.17733 0 0 1.17726 519.563 334)">3</text><path d="M10.5953 720.483 10.5953 769.221" stroke="#3333B3" stroke-width="1.17726" stroke-linecap="round" stroke-linejoin="round" stroke-miterlimit="3" fill="none" fill-rule="evenodd" transform="matrix(1.00006 0 0 1 434.748 -271.387)"/><path d="M5.2943-2.75605C4.13044-1.09386 2.25349-0.0747586 0.22557-0.00393796L0.225558 0.00393658C2.25348 0.0747517 4.13041 1.09385 5.2943 2.75604" stroke="#3333B3" stroke-width="1.17726" stroke-linecap="round" stroke-linejoin="round" stroke-miterlimit="3" fill="none" fill-rule="evenodd" transform="matrix(-6.12362e-17 -1 1.00006 -6.12323e-17 445.344 497.834)"/></g></svg>