<svg width="556" height="289" xmlns="http://www.w3.org/2000/svg" xmlns:xlink="http://www.w3.org/1999/xlink" xml:space="preserve" overflow="hidden"><defs><clipPath id="clip0"><rect x="200" y="239" width="556" height="289"/></clipPath></defs><g clip-path="url(#clip0)" transform="translate(-200 -239)"><path d="M0 707.404 35.6247 707.404 35.6247 720.975-2.69637e-07 720.975Z" fill="#FFFFFF" fill-rule="evenodd" transform="matrix(1 0 0 1.00124 516.976 -378.049)"/><text font-family="Times New Roman,Times New Roman_MSFontService,sans-serif" font-style="italic" font-weight="700" font-size="9" transform="matrix(1.17806 0 0 1.17952 522.348 340)">H</text><text font-family="Times New Roman,Times New Roman_MSFontService,sans-serif" font-weight="700" font-size="9" transform="matrix(1.17806 0 0 1.17952 530.595 340)"> </text><text font-family="Times New Roman,Times New Roman_MSFontService,sans-serif" font-weight="700" font-size="9" transform="matrix(1.17806 0 0 1.17952 532.951 340)">= </text><text font-family="Times New Roman,Times New Roman_MSFontService,sans-serif" font-weight="700" font-size="9" transform="matrix(1.17806 0 0 1.17952 541.197 340)">1</text><path d="M0 689.167 31.8077 689.167 31.8077 720.975 0 720.975Z" fill="#FFFFFF" fill-rule="evenodd" transform="matrix(1 0 0 1.00124 653.538 -266.16)"/><text fill="#3333B3" font-family="Times New Roman,Times New Roman_MSFontService,sans-serif" font-weight="400" font-size="14" transform="matrix(1.17806 0 0 1.17952 661.207 445)">···</text><path d="M0 689.167 31.8077 689.167 31.8077 720.975 0 720.975Z" fill="#FFFFFF" fill-rule="evenodd" transform="matrix(1 0 0 1.00124 653.538 -402.041)"/><text fill="#7F7F7F" font-family="Times New Roman,Times New Roman_MSFontService,sans-serif" font-weight="400" font-size="14" transform="matrix(1.17806 0 0 1.17952 661.207 309)">···</text><path d="M0 689.167 31.8077 689.167 31.8077 720.975 0 720.975Z" fill="#FFFFFF" fill-rule="evenodd" transform="matrix(1 0 0 1.00124 653.538 -334.1)"/><text fill="#6AA84F" font-family="Times New Roman,Times New Roman_MSFontService,sans-serif" font-weight="400" font-size="14" transform="matrix(1.17806 0 0 1.17952 661.207 377)">···</text><path d="M0 689.167 31.8077 689.167 31.8077 720.975 0 720.975Z" fill="#FFFFFF" fill-rule="evenodd" transform="matrix(1 0 0 1.00124 282.447 -266.16)"/><text fill="#3333B3" font-family="Times New Roman,Times New Roman_MSFontService,sans-serif" font-weight="400" font-size="14" transform="matrix(1.17806 0 0 1.17952 290.117 445)">···</text><path d="M0 689.167 31.8077 689.167 31.8077 720.975 0 720.975Z" fill="#FFFFFF" fill-rule="evenodd" transform="matrix(1 0 0 1.00124 282.663 -402.041)"/><text fill="#7F7F7F" font-family="Times New Roman,Times New Roman_MSFontService,sans-serif" font-weight="400" font-size="14" transform="matrix(1.17806 0 0 1.17952 290.332 309)">···</text><path d="M0 689.167 31.8077 689.167 31.8077 720.975 0 720.975Z" fill="#FFFFFF" fill-rule="evenodd" transform="matrix(1 0 0 1.00124 282.447 -334.1)"/><text fill="#6AA84F" font-family="Times New Roman,Times New Roman_MSFontService,sans-serif" font-weight="400" font-size="14" transform="matrix(1.17806 0 0 1.17952 290.117 377)">···</text><path d="M0 699.77 152.677 699.77 152.677 720.975 7.19033e-06 720.975Z" fill="#FFFFFF" fill-rule="evenodd" transform="matrix(1 0 0 1.00124 614.52 -459.153)"/><text font-family="Cambria Math,Cambria Math_MSFontService,sans-serif" font-weight="400" font-size="13" transform="matrix(1.17806 0 0 1.17952 627.031 253)">⑥</text><text font-family="Times New Roman,Times New Roman_MSFontService,sans-serif" font-weight="400" font-size="13" transform="matrix(1.17806 0 0 1.17952 645.88 253)"> </text><text fill="#7F7F7F" font-family="Times New Roman,Times New Roman_MSFontService,sans-serif" font-weight="400" font-size="13" transform="matrix(1.17806 0 0 1.17952 649.414 253)">UL data received</text><text fill="#7F7F7F" font-family="Times New Roman,Times New Roman_MSFontService,sans-serif" font-weight="700" font-size="12" transform="matrix(1.17806 0 0 1.17952 206.227 299)">Radio Head </text><text fill="#7F7F7F" font-family="Times New Roman,Times New Roman_MSFontService,sans-serif" font-weight="700" font-size="12" transform="matrix(1.17806 0 0 1.17952 214.473 316)">(</text><text fill="#7F7F7F" font-family="Times New Roman,Times New Roman_MSFontService,sans-serif" font-weight="700" font-size="12" transform="matrix(1.17806 0 0 1.17952 219.185 316)">RH slot</text><text fill="#7F7F7F" font-family="Times New Roman,Times New Roman_MSFontService,sans-serif" font-weight="700" font-size="12" transform="matrix(1.17806 0 0 1.17952 265.13 316)">)</text><text fill="#6AA84F" font-family="Times New Roman,Times New Roman_MSFontService,sans-serif" font-weight="700" font-size="12" transform="matrix(1.17806 0 0 1.17952 201.137 367)">DL Processor </text><text fill="#6AA84F" font-family="Times New Roman,Times New Roman_MSFontService,sans-serif" font-weight="700" font-size="12" transform="matrix(1.17806 0 0 1.17952 215.663 384)">(</text><text fill="#6AA84F" font-family="Times New Roman,Times New Roman_MSFontService,sans-serif" font-weight="700" font-size="12" transform="matrix(1.17806 0 0 1.17952 220.375 384)">DP slot</text><text fill="#6AA84F" font-family="Times New Roman,Times New Roman_MSFontService,sans-serif" font-weight="700" font-size="12" transform="matrix(1.17806 0 0 1.17952 263.964 384)">)</text><text fill="#3333B3" font-family="Times New Roman,Times New Roman_MSFontService,sans-serif" font-weight="700" font-size="12" transform="matrix(1.17806 0 0 1.17952 200.749 435)">DU Processor </text><text fill="#3333B3" font-family="Times New Roman,Times New Roman_MSFontService,sans-serif" font-weight="700" font-size="12" transform="matrix(1.17806 0 0 1.17952 214.874 452)">(</text><text fill="#3333B3" font-family="Times New Roman,Times New Roman_MSFontService,sans-serif" font-weight="700" font-size="12" transform="matrix(1.17806 0 0 1.17952 219.586 452)">DU slot</text><text fill="#3333B3" font-family="Times New Roman,Times New Roman_MSFontService,sans-serif" font-weight="700" font-size="12" transform="matrix(1.17806 0 0 1.17952 265.53 452)">)</text><path d="M0 699.77 339.282 699.77 339.282 720.975 0 720.975Z" fill="#FFFFFF" fill-rule="evenodd" transform="matrix(1 0 0 1.00124 263.363 -195.884)"/><text font-family="Cambria Math,Cambria Math_MSFontService,sans-serif" font-weight="400" font-size="13" transform="matrix(1.17806 0 0 1.17952 361.507 523)">③</text><text fill="#3333B3" font-family="Times New Roman,Times New Roman_MSFontService,sans-serif" font-weight="400" font-size="13" transform="matrix(1.17806 0 0 1.17952 380.356 523)"> </text><text fill="#3333B3" font-family="Times New Roman,Times New Roman_MSFontService,sans-serif" font-weight="400" font-size="13" transform="matrix(1.17806 0 0 1.17952 383.89 523)">UL grant scheduled</text><path d="M0 699.77 148.436 699.77 148.436 720.975 0 720.975Z" fill="#FFFFFF" fill-rule="evenodd" transform="matrix(1 0 0 1.00124 613.248 -195.884)"/><text font-family="Cambria Math,Cambria Math_MSFontService,sans-serif" font-weight="400" font-size="13" transform="matrix(1.17806 0 0 1.17952 624.051 523)">⑦</text><text font-family="Times New Roman,Times New Roman_MSFontService,sans-serif" font-weight="400" font-size="13" transform="matrix(1.17806 0 0 1.17952 642.9 523)"> </text><text fill="#3333B3" font-family="Times New Roman,Times New Roman_MSFontService,sans-serif" font-weight="400" font-size="13" transform="matrix(1.17806 0 0 1.17952 646.434 523)">UL data decoded</text><path d="M0 687.047 33.9282 687.047 33.9282 720.975-8.98792e-07 720.975Z" stroke="#7F7F7F" stroke-width="1.17806" stroke-linecap="square" stroke-miterlimit="3" fill="#D8D8D8" fill-rule="evenodd" transform="matrix(1 0 0 1.00124 314.255 -401.828)"/><text fill="#7F7F7F" font-family="Times New Roman,Times New Roman_MSFontService,sans-serif" font-weight="400" font-size="14" transform="matrix(1.17806 0 0 1.17952 327.096 308)">3</text><path d="M0 687.047 33.9282 687.047 33.9282 720.975-8.98792e-07 720.975Z" stroke="#7F7F7F" stroke-width="1.17806" stroke-linecap="square" stroke-miterlimit="3" fill="#FFFFFF" fill-rule="evenodd" transform="matrix(1 0 0 1.00124 348.183 -401.828)"/><text fill="#7F7F7F" font-family="Times New Roman,Times New Roman_MSFontService,sans-serif" font-weight="400" font-size="14" transform="matrix(1.17806 0 0 1.17952 361.024 308)">4</text><path d="M0 687.047 33.9282 687.047 33.9282 720.975-8.98792e-07 720.975Z" stroke="#7F7F7F" stroke-width="1.17806" stroke-linecap="square" stroke-miterlimit="3" fill="#FFFFFF" fill-rule="evenodd" transform="matrix(1 0 0 1.00124 382.112 -401.828)"/><text fill="#7F7F7F" font-family="Times New Roman,Times New Roman_MSFontService,sans-serif" font-weight="400" font-size="14" transform="matrix(1.17806 0 0 1.17952 394.952 308)">5</text><path d="M0 687.047 33.9282 687.047 33.9282 720.975-8.98792e-07 720.975Z" stroke="#7F7F7F" stroke-width="1.17806" stroke-linecap="square" stroke-miterlimit="3" fill="#FFFFFF" fill-rule="evenodd" transform="matrix(1 0 0 1.00124 416.04 -401.828)"/><text fill="#7F7F7F" font-family="Times New Roman,Times New Roman_MSFontService,sans-serif" font-weight="400" font-size="14" transform="matrix(1.17806 0 0 1.17952 428.881 308)">6</text><path d="M0 687.047 33.9282 687.047 33.9282 720.975-8.98792e-07 720.975Z" stroke="#7F7F7F" stroke-width="1.17806" stroke-linecap="square" stroke-miterlimit="3" fill="#D8D8D8" fill-rule="evenodd" transform="matrix(1 0 0 1.00124 449.968 -401.828)"/><text fill="#7F7F7F" font-family="Times New Roman,Times New Roman_MSFontService,sans-serif" font-weight="400" font-size="14" transform="matrix(1.17806 0 0 1.17952 462.809 308)">7</text><path d="M0 687.047 33.9282 687.047 33.9282 720.975-8.98792e-07 720.975Z" stroke="#7F7F7F" stroke-width="1.17806" stroke-linecap="square" stroke-miterlimit="3" fill="#FFFFFF" fill-rule="evenodd" transform="matrix(1 0 0 1.00124 483.896 -401.828)"/><text fill="#7F7F7F" font-family="Times New Roman,Times New Roman_MSFontService,sans-serif" font-weight="400" font-size="14" transform="matrix(1.17806 0 0 1.17952 496.737 308)">8</text><path d="M0 687.047 33.9282 687.047 33.9282 720.975-8.98792e-07 720.975Z" stroke="#7F7F7F" stroke-width="1.17806" stroke-linecap="square" stroke-miterlimit="3" fill="#FFFFFF" fill-rule="evenodd" transform="matrix(1 0 0 1.00124 517.825 -401.828)"/><text fill="#7F7F7F" font-family="Times New Roman,Times New Roman_MSFontService,sans-serif" font-weight="400" font-size="14" transform="matrix(1.17806 0 0 1.17952 530.665 308)">9</text><path d="M0 687.047 33.9282 687.047 33.9282 720.975-8.98792e-07 720.975Z" stroke="#7F7F7F" stroke-width="1.17806" stroke-linecap="square" stroke-miterlimit="3" fill="#FFFFFF" fill-rule="evenodd" transform="matrix(1 0 0 1.00124 551.753 -401.828)"/><text fill="#7F7F7F" font-family="Times New Roman,Times New Roman_MSFontService,sans-serif" font-weight="400" font-size="14" transform="matrix(1.17806 0 0 1.17952 560.47 308)">10</text><path d="M0 687.047 33.9282 687.047 33.9282 720.975-8.98792e-07 720.975Z" stroke="#7F7F7F" stroke-width="1.17806" stroke-linecap="square" stroke-miterlimit="3" fill="#D8D8D8" fill-rule="evenodd" transform="matrix(1 0 0 1.00124 585.681 -401.828)"/><text fill="#7F7F7F" font-family="Times New Roman,Times New Roman_MSFontService,sans-serif" font-weight="400" font-size="14" transform="matrix(1.17806 0 0 1.17952 594.399 308)">11</text><path d="M0 687.047 33.9282 687.047 33.9282 720.975-8.98792e-07 720.975Z" stroke="#7F7F7F" stroke-width="1.17806" stroke-linecap="square" stroke-miterlimit="3" fill="#FFFFFF" fill-rule="evenodd" transform="matrix(1 0 0 1.00124 619.609 -401.828)"/><text fill="#7F7F7F" font-family="Times New Roman,Times New Roman_MSFontService,sans-serif" font-weight="400" font-size="14" transform="matrix(1.17806 0 0 1.17952 628.327 308)">12</text><path d="M0 687.047 33.9282 687.047 33.9282 720.975-8.98792e-07 720.975Z" stroke="#6AA84F" stroke-width="1.17806" stroke-linecap="square" stroke-miterlimit="3" fill="#FFFFFF" fill-rule="evenodd" transform="matrix(1 0 0 1.00124 314.255 -333.888)"/><text fill="#6AA84F" font-family="Times New Roman,Times New Roman_MSFontService,sans-serif" font-weight="400" font-size="14" transform="matrix(1.17806 0 0 1.17952 327.096 376)">4</text><path d="M0 687.047 33.9282 687.047 33.9282 720.975-8.98792e-07 720.975Z" stroke="#6AA84F" stroke-width="1.17806" stroke-linecap="square" stroke-miterlimit="3" fill="#FFFFFF" fill-rule="evenodd" transform="matrix(1 0 0 1.00124 348.183 -333.888)"/><text fill="#6AA84F" font-family="Times New Roman,Times New Roman_MSFontService,sans-serif" font-weight="400" font-size="14" transform="matrix(1.17806 0 0 1.17952 361.024 376)">5</text><path d="M0 687.047 33.9282 687.047 33.9282 720.975-8.98792e-07 720.975Z" stroke="#6AA84F" stroke-width="1.17806" stroke-linecap="square" stroke-miterlimit="3" fill="#FFFFFF" fill-rule="evenodd" transform="matrix(1 0 0 1.00124 382.112 -333.888)"/><text fill="#6AA84F" font-family="Times New Roman,Times New Roman_MSFontService,sans-serif" font-weight="400" font-size="14" transform="matrix(1.17806 0 0 1.17952 394.952 376)">6</text><path d="M0 687.047 33.9282 687.047 33.9282 720.975-8.98792e-07 720.975Z" stroke="#6AA84F" stroke-width="1.17806" stroke-linecap="square" stroke-miterlimit="3" fill="#D9EAD3" fill-rule="evenodd" transform="matrix(1 0 0 1.00124 416.04 -333.888)"/><text fill="#6AA84F" font-family="Times New Roman,Times New Roman_MSFontService,sans-serif" font-weight="400" font-size="14" transform="matrix(1.17806 0 0 1.17952 428.881 376)">7</text><path d="M0 687.047 33.9282 687.047 33.9282 720.975-8.98792e-07 720.975Z" stroke="#6AA84F" stroke-width="1.17806" stroke-linecap="square" stroke-miterlimit="3" fill="#FFFFFF" fill-rule="evenodd" transform="matrix(1 0 0 1.00124 449.968 -333.888)"/><text fill="#6AA84F" font-family="Times New Roman,Times New Roman_MSFontService,sans-serif" font-weight="400" font-size="14" transform="matrix(1.17806 0 0 1.17952 462.809 376)">8</text><path d="M0 687.047 33.9282 687.047 33.9282 720.975-8.98792e-07 720.975Z" stroke="#6AA84F" stroke-width="1.17806" stroke-linecap="square" stroke-miterlimit="3" fill="#FFFFFF" fill-rule="evenodd" transform="matrix(1 0 0 1.00124 483.896 -333.888)"/><text fill="#6AA84F" font-family="Times New Roman,Times New Roman_MSFontService,sans-serif" font-weight="400" font-size="14" transform="matrix(1.17806 0 0 1.17952 496.737 376)">9</text><path d="M0 687.047 33.9282 687.047 33.9282 720.975-8.98792e-07 720.975Z" stroke="#6AA84F" stroke-width="1.17806" stroke-linecap="square" stroke-miterlimit="3" fill="#FFFFFF" fill-rule="evenodd" transform="matrix(1 0 0 1.00124 517.825 -333.888)"/><text fill="#6AA84F" font-family="Times New Roman,Times New Roman_MSFontService,sans-serif" font-weight="400" font-size="14" transform="matrix(1.17806 0 0 1.17952 526.542 376)">10</text><path d="M0 687.047 33.9282 687.047 33.9282 720.975-8.98792e-07 720.975Z" stroke="#6AA84F" stroke-width="1.17806" stroke-linecap="square" stroke-miterlimit="3" fill="#D9EAD3" fill-rule="evenodd" transform="matrix(1 0 0 1.00124 551.753 -333.888)"/><text fill="#6AA84F" font-family="Times New Roman,Times New Roman_MSFontService,sans-serif" font-weight="400" font-size="14" transform="matrix(1.17806 0 0 1.17952 560.47 376)">11</text><path d="M0 687.047 33.9282 687.047 33.9282 720.975-8.98792e-07 720.975Z" stroke="#6AA84F" stroke-width="1.17806" stroke-linecap="square" stroke-miterlimit="3" fill="#FFFFFF" fill-rule="evenodd" transform="matrix(1 0 0 1.00124 585.681 -333.888)"/><text fill="#6AA84F" font-family="Times New Roman,Times New Roman_MSFontService,sans-serif" font-weight="400" font-size="14" transform="matrix(1.17806 0 0 1.17952 594.399 376)">12</text><path d="M0 687.047 33.9282 687.047 33.9282 720.975-8.98792e-07 720.975Z" stroke="#6AA84F" stroke-width="1.17806" stroke-linecap="square" stroke-miterlimit="3" fill="#FFFFFF" fill-rule="evenodd" transform="matrix(1 0 0 1.00124 619.609 -333.888)"/><text fill="#6AA84F" font-family="Times New Roman,Times New Roman_MSFontService,sans-serif" font-weight="400" font-size="14" transform="matrix(1.17806 0 0 1.17952 628.327 376)">13</text><path d="M0 687.047 33.9282 687.047 33.9282 720.975-8.98792e-07 720.975Z" stroke="#3333B3" stroke-width="1.17806" stroke-linecap="square" stroke-miterlimit="3" fill="#FFFFFF" fill-rule="evenodd" transform="matrix(1 0 0 1.00124 314.255 -265.947)"/><text fill="#3333B3" font-family="Times New Roman,Times New Roman_MSFontService,sans-serif" font-weight="400" font-size="14" transform="matrix(1.17806 0 0 1.17952 327.096 444)">5</text><path d="M0 687.047 33.9282 687.047 33.9282 720.975-8.98792e-07 720.975Z" stroke="#3333B3" stroke-width="1.17806" stroke-linecap="square" stroke-miterlimit="3" fill="none" fill-rule="evenodd" transform="matrix(1 0 0 1.00124 348.183 -265.947)"/><text fill="#3333B3" font-family="Times New Roman,Times New Roman_MSFontService,sans-serif" font-weight="400" font-size="14" transform="matrix(1.17806 0 0 1.17952 361.024 444)">6</text><path d="M0 687.047 33.9282 687.047 33.9282 720.975-8.98792e-07 720.975Z" stroke="#3333B3" stroke-width="1.17806" stroke-linecap="square" stroke-miterlimit="3" fill="#ADC0E4" fill-rule="evenodd" transform="matrix(1 0 0 1.00124 382.112 -265.947)"/><text fill="#3333B3" font-family="Times New Roman,Times New Roman_MSFontService,sans-serif" font-weight="400" font-size="14" transform="matrix(1.17806 0 0 1.17952 394.952 444)">7</text><path d="M0 687.047 33.9282 687.047 33.9282 720.975-8.98792e-07 720.975Z" stroke="#3333B3" stroke-width="1.17806" stroke-linecap="square" stroke-miterlimit="3" fill="none" fill-rule="evenodd" transform="matrix(1 0 0 1.00124 416.04 -265.947)"/><text fill="#3333B3" font-family="Times New Roman,Times New Roman_MSFontService,sans-serif" font-weight="400" font-size="14" transform="matrix(1.17806 0 0 1.17952 428.881 444)">8</text><path d="M0 687.047 33.9282 687.047 33.9282 720.975-8.98792e-07 720.975Z" stroke="#3333B3" stroke-width="1.17806" stroke-linecap="square" stroke-miterlimit="3" fill="#FFFFFF" fill-rule="evenodd" transform="matrix(1 0 0 1.00124 449.968 -265.947)"/><text fill="#3333B3" font-family="Times New Roman,Times New Roman_MSFontService,sans-serif" font-weight="400" font-size="14" transform="matrix(1.17806 0 0 1.17952 462.809 444)">9</text><path d="M0 687.047 33.9282 687.047 33.9282 720.975-8.98792e-07 720.975Z" stroke="#3333B3" stroke-width="1.17806" stroke-linecap="square" stroke-miterlimit="3" fill="#FFFFFF" fill-rule="evenodd" transform="matrix(1 0 0 1.00124 483.896 -265.947)"/><text fill="#3333B3" font-family="Times New Roman,Times New Roman_MSFontService,sans-serif" font-weight="400" font-size="14" transform="matrix(1.17806 0 0 1.17952 492.614 444)">10</text><path d="M0 687.047 33.9282 687.047 33.9282 720.975-8.98792e-07 720.975Z" stroke="#3333B3" stroke-width="1.17806" stroke-linecap="square" stroke-miterlimit="3" fill="none" fill-rule="evenodd" transform="matrix(1 0 0 1.00124 551.753 -265.947)"/><text fill="#3333B3" font-family="Times New Roman,Times New Roman_MSFontService,sans-serif" font-weight="400" font-size="14" transform="matrix(1.17806 0 0 1.17952 560.47 444)">12</text><path d="M0 687.047 33.9282 687.047 33.9282 720.975-8.98792e-07 720.975Z" stroke="#3333B3" stroke-width="1.17806" stroke-linecap="square" stroke-miterlimit="3" fill="#FFFFFF" fill-rule="evenodd" transform="matrix(1 0 0 1.00124 585.681 -265.947)"/><text fill="#3333B3" font-family="Times New Roman,Times New Roman_MSFontService,sans-serif" font-weight="400" font-size="14" transform="matrix(1.17806 0 0 1.17952 594.399 444)">13</text><path d="M0 687.047 33.9282 687.047 33.9282 720.975-8.98792e-07 720.975Z" stroke="#3333B3" stroke-width="1.17806" stroke-linecap="square" stroke-miterlimit="3" fill="none" fill-rule="evenodd" transform="matrix(1 0 0 1.00124 619.609 -265.947)"/><text fill="#3333B3" font-family="Times New Roman,Times New Roman_MSFontService,sans-serif" font-weight="400" font-size="14" transform="matrix(1.17806 0 0 1.17952 628.327 444)">14</text><path d="M0 699.77 190.846 699.77 190.846 720.975 0 720.975Z" fill="#FFFFFF" fill-rule="evenodd" transform="matrix(1 0 0 1.00124 439.365 -229.854)"/><text font-family="Cambria Math,Cambria Math_MSFontService,sans-serif" font-weight="400" font-size="13" transform="matrix(1.17806 0 0 1.17952 463.716 490)">④</text><text fill="#6AA84F" font-family="Times New Roman,Times New Roman_MSFontService,sans-serif" font-weight="400" font-size="13" transform="matrix(1.17806 0 0 1.17952 482.565 490)"> </text><text fill="#6AA84F" font-family="Times New Roman,Times New Roman_MSFontService,sans-serif" font-weight="400" font-size="13" transform="matrix(1.17806 0 0 1.17952 486.099 490)">UL grant processed</text><path d="M0 720.975 0 745.232 50.8924 745.232 50.8924 769.747" stroke="#3333B3" stroke-width="1.17806" stroke-linecap="round" stroke-linejoin="round" stroke-miterlimit="3" fill="none" fill-rule="evenodd" transform="matrix(1 0 0 1.00124 636.573 -265.947)"/><path d="M5.29792-2.75793C4.13327-1.0946 2.25504-0.0748097 0.225724-0.00394065L0.225712 0.00393927C2.25502 0.0748028 4.13324 1.09459 5.29792 2.75792" stroke="#3333B3" stroke-width="1.17806" stroke-linecap="round" stroke-linejoin="round" stroke-miterlimit="3" fill="none" fill-rule="evenodd" transform="matrix(-6.12323e-17 -1.00124 1 -6.13082e-17 687.466 504.753)"/><path d="M10.6026 720.975 10.6026 803.675" stroke="#6AA84F" stroke-width="1.17806" stroke-linecap="round" stroke-linejoin="round" stroke-miterlimit="3" fill="none" fill-rule="evenodd" transform="matrix(1 0 0 1.00124 524.186 -333.888)"/><path d="M5.29792-2.75793C4.13327-1.0946 2.25504-0.0748097 0.225724-0.00394065L0.225712 0.00393927C2.25502 0.0748028 4.13324 1.09459 5.29792 2.75792" stroke="#6AA84F" stroke-width="1.17806" stroke-linecap="round" stroke-linejoin="round" stroke-miterlimit="3" fill="none" fill-rule="evenodd" transform="matrix(-6.12323e-17 -1.00124 1 -6.13082e-17 534.789 470.783)"/><path d="M0 699.77 203.569 699.77 203.569 720.975 3.59517e-06 720.975Z" fill="#FFFFFF" fill-rule="evenodd" transform="matrix(1 0 0 1.00124 382.112 -459.153)"/><text font-family="Cambria Math,Cambria Math_MSFontService,sans-serif" font-weight="400" font-size="13" transform="matrix(1.17806 0 0 1.17952 408.571 253)">⑤</text><text font-family="Times New Roman,Times New Roman_MSFontService,sans-serif" font-weight="400" font-size="13" transform="matrix(1.17806 0 0 1.17952 427.42 253)"> </text><text fill="#7F7F7F" font-family="Times New Roman,Times New Roman_MSFontService,sans-serif" font-weight="400" font-size="13" transform="matrix(1.17806 0 0 1.17952 430.954 253)">UL grant transmitted </text><path d="M0 687.047 33.9282 687.047 33.9282 720.975-8.98792e-07 720.975Z" stroke="#3333B3" stroke-width="1.17806" stroke-linecap="square" stroke-miterlimit="3" fill="#ADC0E4" fill-rule="evenodd" transform="matrix(1 0 0 1.00124 517.825 -265.947)"/><text fill="#3333B3" font-family="Times New Roman,Times New Roman_MSFontService,sans-serif" font-weight="400" font-size="14" transform="matrix(1.17806 0 0 1.17952 526.542 444)">11</text><path d="M0 699.77 144.195 699.77 144.195 720.975 1.79758e-06 720.975Z" fill="#FFFFFF" fill-rule="evenodd" transform="matrix(1 0 0 1.00124 259.122 -459.153)"/><text font-family="Cambria Math,Cambria Math_MSFontService,sans-serif" font-weight="400" font-size="13" transform="matrix(1.17806 0 0 1.17952 282.895 253)">①</text><text font-family="Times New Roman,Times New Roman_MSFontService,sans-serif" font-weight="400" font-size="13" transform="matrix(1.17806 0 0 1.17952 301.744 253)"> </text><text fill="#7F7F7F" font-family="Times New Roman,Times New Roman_MSFontService,sans-serif" font-weight="400" font-size="13" transform="matrix(1.17806 0 0 1.17952 305.278 253)">SR received </text><path d="M10.6026 720.975 10.6026 744.301" stroke="#7F7F7F" stroke-width="1.17806" stroke-linecap="round" stroke-linejoin="round" stroke-miterlimit="3" stroke-dasharray="1.17806 2.35613" fill="none" fill-rule="evenodd" transform="matrix(1 0 0 1.00124 320.617 -459.153)"/><path d="M5.29792-2.75793C4.13327-1.0946 2.25504-0.0748097 0.225724-0.00394065L0.225712 0.00393927C2.25502 0.0748028 4.13324 1.09459 5.29792 2.75792" stroke="#7F7F7F" stroke-width="1.17806" stroke-linecap="round" stroke-linejoin="round" stroke-miterlimit="3" fill="none" fill-rule="evenodd" transform="matrix(-6.12323e-17 -1.00124 1 -6.13082e-17 331.219 286.07)"/><path d="M0 720.975 0 728.927-88.2134 728.927-88.2134 744.301" stroke="#7F7F7F" stroke-width="1.17806" stroke-linecap="round" stroke-linejoin="round" stroke-miterlimit="3" stroke-dasharray="1.17806 2.35613" fill="none" fill-rule="evenodd" transform="matrix(1 0 0 1.00124 690.859 -459.153)"/><path d="M5.29792-2.75793C4.13327-1.0946 2.25504-0.0748097 0.225724-0.00394065L0.225712 0.00393927C2.25502 0.0748028 4.13324 1.09459 5.29792 2.75792" stroke="#7F7F7F" stroke-width="1.17806" stroke-linecap="round" stroke-linejoin="round" stroke-miterlimit="3" fill="none" fill-rule="evenodd" transform="matrix(-6.12323e-17 -1.00124 1 -6.13082e-17 602.645 286.07)"/><path d="M0 720.975 0 713.023-84.8206 713.023-84.8206 697.65" stroke="#7F7F7F" stroke-width="1.17806" stroke-linecap="round" stroke-linejoin="round" stroke-miterlimit="3" stroke-dasharray="1.17806 2.35613" fill="none" fill-rule="evenodd" transform="matrix(1 0 0 1.00124 568.717 -435.799)"/><path d="M5.29792-2.75793C4.13327-1.0946 2.25504-0.0748097 0.225724-0.00394065L0.225712 0.00393927C2.25502 0.0748028 4.13324 1.09459 5.29792 2.75792" stroke="#7F7F7F" stroke-width="1.17806" stroke-linecap="round" stroke-linejoin="round" stroke-miterlimit="3" fill="none" fill-rule="evenodd" transform="matrix(-6.12323e-17 1.00124 -1 -6.13082e-17 483.896 262.715)"/><path d="M0 699.77 156.918 699.77 156.918 720.975-3.59517e-06 720.975Z" fill="#FFFFFF" fill-rule="evenodd" transform="matrix(1 0 0 1.00124 286.688 -229.854)"/><text font-family="Cambria Math,Cambria Math_MSFontService,sans-serif" font-weight="400" font-size="13" transform="matrix(1.17806 0 0 1.17952 317.247 490)">②</text><text fill="#3333B3" font-family="Times New Roman,Times New Roman_MSFontService,sans-serif" font-weight="400" font-size="13" transform="matrix(1.17806 0 0 1.17952 336.096 490)"> </text><text fill="#3333B3" font-family="Times New Roman,Times New Roman_MSFontService,sans-serif" font-weight="400" font-size="13" transform="matrix(1.17806 0 0 1.17952 339.631 490)">SR decoded</text><path d="M10.6026 724.156 10.6026 739" stroke="#3333B3" stroke-width="1.17806" stroke-linecap="round" stroke-linejoin="round" stroke-miterlimit="3" fill="none" fill-rule="evenodd" transform="matrix(1 0 0 1.00124 354.545 -269.132)"/><path d="M5.29792-2.75793C4.13327-1.0946 2.25504-0.0748097 0.225724-0.00394065L0.225712 0.00393927C2.25502 0.0748028 4.13324 1.09459 5.29792 2.75792" stroke="#3333B3" stroke-width="1.17806" stroke-linecap="round" stroke-linejoin="round" stroke-miterlimit="3" fill="none" fill-rule="evenodd" transform="matrix(-6.12323e-17 -1.00124 1 -6.13082e-17 365.147 470.783)"/><path d="M0 707.404 42.4103 707.404 42.4103 720.975 0 720.975Z" fill="#FFFFFF" fill-rule="evenodd" transform="matrix(1 0 0 1.00124 479.655 -310.109)"/><text font-family="Times New Roman,Times New Roman_MSFontService,sans-serif" font-style="italic" font-weight="700" font-size="9" transform="matrix(1.17806 0 0 1.17952 487.819 408)">M</text><text font-family="Times New Roman,Times New Roman_MSFontService,sans-serif" font-weight="700" font-size="9" transform="matrix(1.17806 0 0 1.17952 497.244 408)"> </text><text font-family="Times New Roman,Times New Roman_MSFontService,sans-serif" font-weight="700" font-size="9" transform="matrix(1.17806 0 0 1.17952 499.6 408)">= </text><text font-family="Times New Roman,Times New Roman_MSFontService,sans-serif" font-weight="700" font-size="9" transform="matrix(1.17806 0 0 1.17952 507.846 408)">1</text><path d="M0 720.975 25.4462 720.975" stroke="#000000" stroke-width="0.883548" stroke-linecap="round" stroke-linejoin="round" stroke-miterlimit="3" stroke-dasharray="0.883548 1.7671" fill="none" fill-rule="evenodd" transform="matrix(6.12323e-17 1.00124 -1 6.13082e-17 1204.87 392.227)"/><path d="M0 720.975 25.4462 720.975" stroke="#000000" stroke-width="0.883548" stroke-linecap="round" stroke-linejoin="round" stroke-miterlimit="3" stroke-dasharray="0.883548 1.7671" fill="none" fill-rule="evenodd" transform="matrix(6.12323e-17 1.00124 -1 6.13082e-17 1238.8 392.227)"/><path d="M0 707.404 37.3211 707.404 37.3211 720.975 3.59517e-07 720.975Z" fill="#FFFFFF" fill-rule="evenodd" transform="matrix(1 0 0 1.00124 550.056 -378.049)"/><text font-family="Times New Roman,Times New Roman_MSFontService,sans-serif" font-style="italic" font-weight="700" font-size="9" transform="matrix(1.17806 0 0 1.17952 555.134 340)">K</text><text font-family="Times New Roman,Times New Roman_MSFontService,sans-serif" font-weight="700" font-size="6" transform="matrix(1.17806 0 0 1.17952 562.202 338)">2</text><text font-family="Times New Roman,Times New Roman_MSFontService,sans-serif" font-weight="700" font-size="9" transform="matrix(1.17806 0 0 1.17952 565.736 340)"> </text><text font-family="Times New Roman,Times New Roman_MSFontService,sans-serif" font-weight="700" font-size="9" transform="matrix(1.17806 0 0 1.17952 568.093 340)">= </text><text font-family="Times New Roman,Times New Roman_MSFontService,sans-serif" font-weight="700" font-size="9" transform="matrix(1.17806 0 0 1.17952 576.339 340)">1</text><path d="M0 720.975 25.4462 720.975" stroke="#000000" stroke-width="0.883548" stroke-linecap="round" stroke-linejoin="round" stroke-miterlimit="3" stroke-dasharray="0.883548 1.7671" fill="none" fill-rule="evenodd" transform="matrix(6.12323e-17 1.00124 -1 6.13082e-17 1238.8 324.286)"/><path d="M0 720.975 25.4462 720.975" stroke="#000000" stroke-width="0.883548" stroke-linecap="round" stroke-linejoin="round" stroke-miterlimit="3" stroke-dasharray="0.883548 1.7671" fill="none" fill-rule="evenodd" transform="matrix(6.12323e-17 1.00124 -1 6.13082e-17 1272.73 324.286)"/><path d="M0 720.975 25.4462 720.975" stroke="#000000" stroke-width="0.883548" stroke-linecap="round" stroke-linejoin="round" stroke-miterlimit="3" stroke-dasharray="0.883548 1.7671" fill="none" fill-rule="evenodd" transform="matrix(6.12323e-17 1.00124 -1 6.13082e-17 1306.66 324.286)"/><path d="M0 720.975 0 731.884-67.8565 731.884-67.8565 769.747" stroke="#3333B3" stroke-width="1.17806" stroke-linecap="round" stroke-linejoin="round" stroke-miterlimit="3" fill="none" fill-rule="evenodd" transform="matrix(1 0 0 1.00124 500.86 -265.947)"/><path d="M5.29792-2.75793C4.13327-1.0946 2.25504-0.0748097 0.225724-0.00394065L0.225712 0.00393927C2.25502 0.0748028 4.13324 1.09459 5.29792 2.75792" stroke="#3333B3" stroke-width="1.17806" stroke-linecap="round" stroke-linejoin="round" stroke-miterlimit="3" fill="none" fill-rule="evenodd" transform="matrix(-6.12323e-17 -1.00124 1 -6.13082e-17 433.004 504.753)"/></g></svg>